<?xml version="1.0" standalone="no"?>
<!DOCTYPE svg PUBLIC "-//W3C//DTD SVG 1.1//EN" "http://www.w3.org/Graphics/SVG/1.1/DTD/svg11.dtd" >
<svg xmlns="http://www.w3.org/2000/svg">
<metadata></metadata>
<defs>
<font id="avantregular" horiz-adv-x="667" >
<font-face units-per-em="1000" ascent="800" descent="-200" />
<missing-glyph horiz-adv-x="500" />
<glyph unicode="&#x104b0;&#x358;" d="M630 -5q0 -4 -3.5 -6.5t-16.5 -2.5q-28 0 -32 15l-235 632h-18l-236 -633q-4 -15 -30 -15q-21 0 -21 12q0 -2 257 687q7 21 39 21q33 0 41 -22l254 -682q1 -1 1 -6zM565 638q0 -22 -17 -38.5t-39 -16.5q-23 0 -40.5 17.5t-17.5 40.5q0 24 17 40t41 16q23 0 39.5 -18 t16.5 -41z" />
<glyph unicode="&#x104b3;&#x358;" d="M585 26q0 -10 -11 -18.5t-21 -8.5q-5 0 -9 4l-216 329l-203 -329q-1 -4 -11 -6q-10 0 -21 6t-11 16q0 4 104 174q30 48 59 94.5t58 95.5v290q0 24 25 24t25 -24v-291q232 -344 232 -356zM523 638q0 -22 -16.5 -38.5t-39.5 -16.5t-40.5 17.5t-17.5 40.5q0 24 17 40t41 16 t40 -18t16 -41z" />
<glyph unicode="&#x104bb;&#x358;" d="M571 471l-50 -448q-2 -23 -26 -23q-28 0 -24 24l50 447q4 39 -9.5 74t-40 61.5t-62 42.5t-75.5 16q-39 0 -75 -16t-62 -43t-40 -62t-10 -73l58 -447q4 -24 -25 -24q-13 0 -18 6t-8 18l-58 447q-7 50 10.5 94.5t51 77.5t79 52.5t96.5 19.5t97 -19.5t79 -52.5t50.5 -77.5 t11.5 -94.5zM697 638q0 -22 -16.5 -38.5t-39.5 -16.5t-40.5 17.5t-17.5 40.5q0 24 17 40t41 16t40 -18t16 -41z" />
<glyph unicode="&#x104c2;&#x358;" d="M571 340q1 64 -17 120.5t-49.5 99.5t-75.5 67.5t-95 24.5q-52 0 -95.5 -26t-75 -69t-49 -100t-17.5 -117q0 -69 20 -125.5t53 -98t75.5 -64.5t88.5 -23q51 0 94 25.5t75 68.5t50 99t18 118zM619 340q0 -76 -21 -140.5t-59.5 -113.5t-90.5 -77t-115 -28q-62 0 -113.5 29 t-89.5 78t-59.5 114t-21.5 138q0 74 21.5 139t59 113.5t90.5 77t115 28.5q61 0 112.5 -29.5t89.5 -79.5t60 -115t22 -134zM681 638q0 -22 -17 -38.5t-39 -16.5q-23 0 -40.5 17.5t-17.5 40.5q0 24 17 40t41 16q23 0 39.5 -18t16.5 -41z" />
<glyph unicode="&#x104d8;&#x358;" d="M532 -10q-23 0 -29 15l-167 453h-5l-169 -455q-3 -9 -10 -12t-16 -3q-8 0 -14.5 3t-6.5 12q0 4 2 9q2 4 4 9.5t5 14.5l35 94q23 63 58 155.5t80 217.5q8 19 35 19t34 -20l183 -493q1 -1 1 -7q0 -12 -20 -12zM557 457q0 -22 -17 -38t-39 -16q-23 0 -40.5 17t-17.5 41 q0 23 17 39t41 16q23 0 39.5 -18t16.5 -41z" />
<glyph unicode="&#x104db;&#x358;" d="M568 457q0 -22 -16.5 -38t-38.5 -16q-23 0 -40.5 17t-17.5 41q0 23 16.5 39t41.5 16q23 0 39 -18t16 -41zM604 1q0 -11 -19 -11q-25 0 -29 11l-214 457l-229 -457q-5 -11 -31 -11q-18 0 -18 10q168 343 200 407t53 107l-75 159q-10 22 -37 22q-16 0 -26 -5 q-20 6 -24.5 10t-4.5 16q0 25 30 25q79 0 103 -50z" />
<glyph unicode="&#x104e3;&#x358;" d="M473 22q-2 -22 -23 -22q-12 0 -18.5 6t-4.5 18l36 323q2 27 -7 51t-27 42.5t-42.5 29.5t-52.5 11t-52 -11t-42 -29.5t-28 -42.5t-7 -50l42 -324q4 -24 -23 -24q-13 0 -17.5 6t-6.5 16l-42 324q-5 38 8 71.5t38 58t58.5 39t70.5 14.5q38 0 71.5 -14.5t58.5 -39t38 -58 t8 -71.5zM658 457q0 -22 -17 -38t-39 -16q-23 0 -40.5 17t-17.5 41q0 23 17 39t41 16q23 0 39.5 -18t16.5 -41z" />
<glyph unicode="&#x104ea;&#x358;" d="M334 472q-36 0 -66.5 -18t-52.5 -48.5t-34.5 -70.5t-12.5 -83q0 -49 14 -89.5t37 -69t53.5 -45t61.5 -16.5q35 0 65 18t52 48.5t35 70t13 83.5q0 46 -12.5 86t-34.5 69.5t-52.5 47t-65.5 17.5zM333 -14q-45 0 -84 21.5t-67.5 58t-44 84.5t-15.5 102q0 53 15.5 101 t44 84.5t67.5 57.5t85 21q45 0 83.5 -22t67 -58.5t44.5 -84.5t16 -99q0 -55 -15.5 -103.5t-44 -84.5t-67.5 -57t-85 -21zM653 457q0 -22 -17 -38t-39 -16q-23 0 -40.5 17t-17.5 41q0 23 17 39t41 16t40 -18t16 -41z" />
<glyph unicode="&#x104b0;&#x304;" d="M630 -5q0 -4 -3.5 -6.5t-16.5 -2.5q-28 0 -32 15l-235 632h-18l-236 -633q-4 -15 -30 -15q-21 0 -21 12q0 -2 257 687q7 21 39 21q33 0 41 -22l254 -682q1 -1 1 -6zM517 796q0 -27 -34 -27h-297q-34 0 -34 27q0 25 32 25h301q32 0 32 -25z" />
<glyph unicode="&#xe000;&#x304;" d="M630 -5q0 -4 -3.5 -6.5t-16.5 -2.5q-28 0 -32 15l-235 632h-18l-236 -633q-4 -15 -30 -15q-21 0 -21 12q0 -2 257 687q7 21 39 21q33 0 41 -22l254 -682q1 -1 1 -6zM565 638q0 -22 -17 -38.5t-39 -16.5q-23 0 -40.5 17.5t-17.5 40.5q0 24 17 40t41 16q23 0 39.5 -18 t16.5 -41zM517 796q0 -27 -34 -27h-297q-34 0 -34 27q0 25 32 25h301q32 0 32 -25z" />
<glyph unicode="&#x104b1;&#x304;" d="M360 264v-240q0 -24 -25 -24t-25 29v235q0 24 24 24q26 0 26 -24zM630 -5q0 -4 -3.5 -6.5t-16.5 -2.5q-28 0 -32 15l-235 632h-18l-236 -633q-4 -15 -30 -15q-21 0 -21 12q0 -2 257 687q7 21 39 21q33 0 41 -22l254 -682q1 -1 1 -6zM517 796q0 -27 -34 -27h-297 q-34 0 -34 27q0 25 32 25h301q32 0 32 -25z" />
<glyph unicode="&#x104b2;&#x304;" d="M379 220h1q0 -46 -48 -46q-43 0 -43 51q0 44 45 44t45 -49zM630 -5q0 -4 -3.5 -6.5t-16.5 -2.5q-28 0 -32 15l-235 632h-18l-236 -633q-4 -15 -30 -15q-21 0 -21 12q0 -2 257 687q7 21 39 21q33 0 41 -22l254 -682q1 -1 1 -6zM517 796q0 -27 -34 -27h-297q-34 0 -34 27 q0 25 32 25h301q32 0 32 -25z" />
<glyph unicode="&#x104b3;&#x304;" d="M585 26q0 -10 -11 -18.5t-21 -8.5q-5 0 -9 4l-216 329l-203 -329q-1 -4 -11 -6q-10 0 -21 6t-11 16q0 4 104 174q30 48 59 94.5t58 95.5v290q0 24 25 24t25 -24v-291q232 -344 232 -356zM517 796q0 -27 -34 -27h-297q-34 0 -34 27q0 25 32 25h301q32 0 32 -25z" />
<glyph unicode="&#xe001;&#x304;" d="M585 26q0 -10 -11 -18.5t-21 -8.5q-5 0 -9 4l-216 329l-203 -329q-1 -4 -11 -6q-10 0 -21 6t-11 16q0 4 104 174q30 48 59 94.5t58 95.5v290q0 24 25 24t25 -24v-291q232 -344 232 -356zM523 638q0 -22 -16.5 -38.5t-39.5 -16.5t-40.5 17.5t-17.5 40.5q0 24 17 40t41 16 t40 -18t16 -41zM517 796q0 -27 -34 -27h-297q-34 0 -34 27q0 25 32 25h301q32 0 32 -25z" />
<glyph unicode="&#x104b7;&#x304;" d="M507 304q-8 60 -24.5 123t-43.5 114t-65.5 83.5t-90.5 32.5q-57 0 -100.5 -24.5t-73 -67.5t-45 -102.5t-15.5 -129.5q0 -56 15.5 -110.5t45.5 -96.5t73.5 -68.5t99.5 -26.5q44 0 79.5 23.5t63.5 61.5t48 87t33 101zM664 629q0 -10 -10 -14t-22.5 -5.5t-23.5 -1.5t-12 -2 q-1 -45 -7 -96q-4 -43 -13.5 -97.5t-24.5 -113.5q7 -44 11 -83.5t6 -69.5q2 -17 2.5 -33t0.5 -31q1 -2 12 -2t23 -1.5t22 -6t10 -13.5q0 -14 -13 -19t-26 -9q-28 -7 -51 9.5t-34 43.5v26q0 13 -0.5 31t-1.5 40q-18 -42 -40.5 -78.5t-50.5 -63.5t-62 -43t-76 -16 q-64 0 -115.5 28.5t-88 76.5t-56.5 110.5t-20 129.5q0 80 18 149.5t53.5 121t88 81t120.5 29.5q49 0 87 -23t67 -61.5t50.5 -88.5t36.5 -104q6 37 8.5 69t4.5 55q1 14 1.5 27t0.5 24q13 27 35 43.5t50 9.5q14 -4 27 -9t13 -19zM517 796q0 -27 -34 -27h-297q-34 0 -34 27 q0 25 32 25h301q32 0 32 -25z" />
<glyph unicode="&#x104b8;&#x304;" d="M328 339h1q0 -47 -48 -47q-43 0 -43 51q0 44 45 44t45 -48zM507 304q-8 60 -24.5 123t-43.5 114t-65.5 83.5t-90.5 32.5q-57 0 -100.5 -24.5t-73 -67.5t-45 -102.5t-15.5 -129.5q0 -56 15.5 -110.5t45.5 -96.5t73.5 -68.5t99.5 -26.5q44 0 79.5 23.5t63.5 61.5t48 87 t33 101zM664 629q0 -10 -10 -14t-22.5 -5.5t-23.5 -1.5t-12 -2q-1 -45 -7 -96q-4 -43 -13.5 -97.5t-24.5 -113.5q7 -44 11 -83.5t6 -69.5q2 -17 2.5 -33t0.5 -31q1 -2 12 -2t23 -1.5t22 -6t10 -13.5q0 -14 -13 -19t-26 -9q-28 -7 -51 9.5t-34 43.5v26q0 13 -0.5 31t-1.5 40 q-18 -42 -40.5 -78.5t-50.5 -63.5t-62 -43t-76 -16q-64 0 -115.5 28.5t-88 76.5t-56.5 110.5t-20 129.5q0 80 18 149.5t53.5 121t88 81t120.5 29.5q49 0 87 -23t67 -61.5t50.5 -88.5t36.5 -104q6 37 8.5 69t4.5 55q1 14 1.5 27t0.5 24q13 27 35 43.5t50 9.5q14 -4 27 -9 t13 -19zM517 796q0 -27 -34 -27h-297q-34 0 -34 27q0 25 32 25h301q32 0 32 -25z" />
<glyph unicode="&#x104bb;&#x304;" d="M571 471l-50 -448q-2 -23 -26 -23q-28 0 -24 24l50 447q4 39 -9.5 74t-40 61.5t-62 42.5t-75.5 16q-39 0 -75 -16t-62 -43t-40 -62t-10 -73l58 -447q4 -24 -25 -24q-13 0 -18 6t-8 18l-58 447q-7 50 10.5 94.5t51 77.5t79 52.5t96.5 19.5t97 -19.5t79 -52.5t50.5 -77.5 t11.5 -94.5zM517 796q0 -27 -34 -27h-297q-34 0 -34 27q0 25 32 25h301q32 0 32 -25z" />
<glyph unicode="&#xe002;&#x304;" d="M571 471l-50 -448q-2 -23 -26 -23q-28 0 -24 24l50 447q4 39 -9.5 74t-40 61.5t-62 42.5t-75.5 16q-39 0 -75 -16t-62 -43t-40 -62t-10 -73l58 -447q4 -24 -25 -24q-13 0 -18 6t-8 18l-58 447q-7 50 10.5 94.5t51 77.5t79 52.5t96.5 19.5t97 -19.5t79 -52.5t50.5 -77.5 t11.5 -94.5zM697 638q0 -22 -16.5 -38.5t-39.5 -16.5t-40.5 17.5t-17.5 40.5q0 24 17 40t41 16t40 -18t16 -41zM517 796q0 -27 -34 -27h-297q-34 0 -34 27q0 25 32 25h301q32 0 32 -25z" />
<glyph unicode="&#x104c2;&#x304;" d="M571 340q1 64 -17 120.5t-49.5 99.5t-75.5 67.5t-95 24.5q-52 0 -95.5 -26t-75 -69t-49 -100t-17.5 -117q0 -69 20 -125.5t53 -98t75.5 -64.5t88.5 -23q51 0 94 25.5t75 68.5t50 99t18 118zM619 340q0 -76 -21 -140.5t-59.5 -113.5t-90.5 -77t-115 -28q-62 0 -113.5 29 t-89.5 78t-59.5 114t-21.5 138q0 74 21.5 139t59 113.5t90.5 77t115 28.5q61 0 112.5 -29.5t89.5 -79.5t60 -115t22 -134zM517 796q0 -27 -34 -27h-297q-34 0 -34 27q0 25 32 25h301q32 0 32 -25z" />
<glyph unicode="&#xe003;&#x304;" d="M571 340q1 64 -17 120.5t-49.5 99.5t-75.5 67.5t-95 24.5q-52 0 -95.5 -26t-75 -69t-49 -100t-17.5 -117q0 -69 20 -125.5t53 -98t75.5 -64.5t88.5 -23q51 0 94 25.5t75 68.5t50 99t18 118zM619 340q0 -76 -21 -140.5t-59.5 -113.5t-90.5 -77t-115 -28q-62 0 -113.5 29 t-89.5 78t-59.5 114t-21.5 138q0 74 21.5 139t59 113.5t90.5 77t115 28.5q61 0 112.5 -29.5t89.5 -79.5t60 -115t22 -134zM681 638q0 -22 -17 -38.5t-39 -16.5q-23 0 -40.5 17.5t-17.5 40.5q0 24 17 40t41 16q23 0 39.5 -18t16.5 -41zM517 796q0 -27 -34 -27h-297 q-34 0 -34 27q0 25 32 25h301q32 0 32 -25z" />
<glyph unicode="&#x104c3;&#x304;" d="M378 339h1q0 -47 -48 -47q-43 0 -43 51q0 44 45 44t45 -48zM571 340q1 64 -17 120.5t-49.5 99.5t-75.5 67.5t-95 24.5q-52 0 -95.5 -26t-75 -69t-49 -100t-17.5 -117q0 -69 20 -125.5t53 -98t75.5 -64.5t88.5 -23q51 0 94 25.5t75 68.5t50 99t18 118zM619 340 q0 -76 -21 -140.5t-59.5 -113.5t-90.5 -77t-115 -28q-62 0 -113.5 29t-89.5 78t-59.5 114t-21.5 138q0 74 21.5 139t59 113.5t90.5 77t115 28.5q61 0 112.5 -29.5t89.5 -79.5t60 -115t22 -134zM517 796q0 -27 -34 -27h-297q-34 0 -34 27q0 25 32 25h301q32 0 32 -25z" />
<glyph unicode="&#x104ce;&#x304;" d="M571 670v-446q0 -51 -18 -95t-49.5 -77t-75 -52.5t-94.5 -19.5q-52 0 -95.5 19.5t-75 52.5t-49.5 77t-18 95v448q0 23 26 23q24 0 24 -25v-446q0 -40 14 -75t39.5 -61.5t59 -42t74.5 -15.5q39 0 73 15.5t59.5 42.5t40 62.5t14.5 73.5v446q0 25 25 25q26 0 26 -25z M517 796q0 -27 -34 -27h-297q-34 0 -34 27q0 25 32 25h301q32 0 32 -25z" />
<glyph unicode="&#x104d8;&#x304;" d="M532 -10q-23 0 -29 15l-167 453h-5l-169 -455q-3 -9 -10 -12t-16 -3q-8 0 -14.5 3t-6.5 12q0 4 2 9q2 4 4 9.5t5 14.5l35 94q23 63 58 155.5t80 217.5q8 19 35 19t34 -20l183 -493q1 -1 1 -7q0 -12 -20 -12zM512 652q0 -23 -29 -23l-310 -1q-30 0 -30 24q0 25 29 25h308 q32 0 32 -25z" />
<glyph unicode="&#xe004;&#x304;" d="M532 -10q-23 0 -29 15l-167 453h-5l-169 -455q-3 -9 -10 -12t-16 -3q-8 0 -14.5 3t-6.5 12q0 4 2 9q2 4 4 9.5t5 14.5l35 94q23 63 58 155.5t80 217.5q8 19 35 19t34 -20l183 -493q1 -1 1 -7q0 -12 -20 -12zM557 457q0 -22 -17 -38t-39 -16q-23 0 -40.5 17t-17.5 41 q0 23 17 39t41 16q23 0 39.5 -18t16.5 -41zM512 652q0 -23 -29 -23l-310 -1q-30 0 -30 24q0 25 29 25h308q32 0 32 -25z" />
<glyph unicode="&#x104d9;&#x304;" d="M357 23q0 -23 -23 -23q-24 0 -24 27v170q0 22 24 22q23 0 23 -22v-174zM532 -10q-23 0 -29 15l-167 453h-5l-169 -455q-3 -9 -10 -12t-16 -3q-8 0 -14.5 3t-6.5 12q0 4 2 9q2 4 4 9.5t5 14.5l35 94q23 63 58 155.5t80 217.5q8 19 35 19t34 -20l183 -493q1 -1 1 -7 q0 -12 -20 -12zM512 652q0 -23 -29 -23l-310 -1q-30 0 -30 24q0 25 29 25h308q32 0 32 -25z" />
<glyph unicode="&#x104da;&#x304;" d="M372 171q0 -46 -40 -46q-36 0 -36 43q0 38 38 38q35 0 37 -35h1zM532 -10q-23 0 -29 15l-167 453h-5l-169 -455q-3 -9 -10 -12t-16 -3q-8 0 -14.5 3t-6.5 12q0 4 2 9q2 4 4 9.5t5 14.5l35 94q23 63 58 155.5t80 217.5q8 19 35 19t34 -20l183 -493q1 -1 1 -7 q0 -12 -20 -12zM512 652q0 -23 -29 -23l-310 -1q-30 0 -30 24q0 25 29 25h308q32 0 32 -25z" />
<glyph unicode="&#x104db;&#x304;" d="M604 1l-321 690q-24 50 -103 50q-30 0 -30 -25q0 -12 4.5 -16t24.5 -10q10 5 26 5q27 0 37 -22l75 -159q-21 -43 -53 -107t-200 -407q0 -10 18 -10q26 0 31 11l229 457l214 -457q4 -11 29 -11q19 0 19 11zM517 796q0 -27 -34 -27h-297q-34 0 -34 27q0 25 32 25h301 q32 0 32 -25z" />
<glyph unicode="&#xe005;&#x304;" d="M568 457q0 -22 -16.5 -38t-38.5 -16q-23 0 -40.5 17t-17.5 41q0 23 16.5 39t41.5 16q23 0 39 -18t16 -41zM604 1l-321 690q-24 50 -103 50q-30 0 -30 -25q0 -12 4.5 -16t24.5 -10q10 5 26 5q27 0 37 -22l75 -159q-21 -43 -53 -107t-200 -407q0 -10 18 -10q26 0 31 11 l229 457l214 -457q4 -11 29 -11q19 0 19 11zM517 796q0 -27 -34 -27h-297q-34 0 -34 27q0 25 32 25h301q32 0 32 -25z" />
<glyph unicode="&#x104df;&#x304;" d="M297 476q-39 0 -69.5 -17t-51.5 -48t-32 -72.5t-11 -91.5q0 -41 11 -79t32.5 -68t52 -48t68.5 -18q30 0 54.5 15.5t44 42t34 61.5t24.5 73q-6 44 -18.5 89t-31 80t-45 58t-62.5 23zM550 442q-6 -1 -10 -1t-8 -1q-1 0 -1.5 0.5t-1.5 0.5q-1 -16 -1.5 -32.5t-3.5 -33.5 q-3 -32 -10 -71.5t-18 -81.5q6 -32 8.5 -59.5t4.5 -51.5q1 -11 1 -22v-21h4h7t10 -1q12 -1 20 -5t8 -13q0 -8 -3.5 -13t-7.5 -7q-6 -2 -11 -3.5t-10 -3.5q-24 -6 -42 7.5t-27 35.5v20v12t-1 16q-25 -54 -64 -91t-96 -37q-48 0 -86.5 21.5t-65.5 57t-41.5 81.5t-14.5 95 q0 59 13.5 111t39.5 90t65 60t90 22q35 0 61.5 -15t47.5 -40t36.5 -57.5t27.5 -68.5q2 20 2.5 36t1.5 29q3 9 3 18.5v18.5q10 21 27.5 34.5t40.5 7.5q11 -2 21 -7q5 -2 8.5 -7t3.5 -11q0 -10 -8.5 -14t-19.5 -5zM512 652q0 -23 -29 -23l-310 -1q-30 0 -30 24q0 25 29 25h308 q32 0 32 -25z" />
<glyph unicode="&#x104e0;&#x304;" d="M336 256q0 -45 -40 -45q-37 0 -37 43q0 37 38 37q35 0 38 -35h1zM297 476q-39 0 -69.5 -17t-51.5 -48t-32 -72.5t-11 -91.5q0 -41 11 -79t32.5 -68t52 -48t68.5 -18q30 0 54.5 15.5t44 42t34 61.5t24.5 73q-6 44 -18.5 89t-31 80t-45 58t-62.5 23zM550 442q-6 -1 -10 -1 t-8 -1q-1 0 -1.5 0.5t-1.5 0.5q-1 -16 -1.5 -32.5t-3.5 -33.5q-3 -32 -10 -71.5t-18 -81.5q6 -32 8.5 -59.5t4.5 -51.5q1 -11 1 -22v-21h4h7t10 -1q12 -1 20 -5t8 -13q0 -8 -3.5 -13t-7.5 -7q-6 -2 -11 -3.5t-10 -3.5q-24 -6 -42 7.5t-27 35.5v20v12t-1 16q-25 -54 -64 -91 t-96 -37q-48 0 -86.5 21.5t-65.5 57t-41.5 81.5t-14.5 95q0 59 13.5 111t39.5 90t65 60t90 22q35 0 61.5 -15t47.5 -40t36.5 -57.5t27.5 -68.5q2 20 2.5 36t1.5 29q3 9 3 18.5v18.5q10 21 27.5 34.5t40.5 7.5q11 -2 21 -7q5 -2 8.5 -7t3.5 -11q0 -10 -8.5 -14t-19.5 -5z M512 652q0 -23 -29 -23l-310 -1q-30 0 -30 24q0 25 29 25h308q32 0 32 -25z" />
<glyph unicode="&#x104e3;&#x304;" d="M473 22q-2 -22 -23 -22q-12 0 -18.5 6t-4.5 18l36 323q2 27 -7 51t-27 42.5t-42.5 29.5t-52.5 11t-52 -11t-42 -29.5t-28 -42.5t-7 -50l42 -324q4 -24 -23 -24q-13 0 -17.5 6t-6.5 16l-42 324q-5 38 8 71.5t38 58t58.5 39t70.5 14.5q38 0 71.5 -14.5t58.5 -39t38 -58 t8 -71.5zM512 652q0 -23 -29 -23l-310 -1q-30 0 -30 24q0 25 29 25h308q32 0 32 -25z" />
<glyph unicode="&#xe006;&#x304;" d="M473 22q-2 -22 -23 -22q-12 0 -18.5 6t-4.5 18l36 323q2 27 -7 51t-27 42.5t-42.5 29.5t-52.5 11t-52 -11t-42 -29.5t-28 -42.5t-7 -50l42 -324q4 -24 -23 -24q-13 0 -17.5 6t-6.5 16l-42 324q-5 38 8 71.5t38 58t58.5 39t70.5 14.5q38 0 71.5 -14.5t58.5 -39t38 -58 t8 -71.5zM658 457q0 -22 -17 -38t-39 -16q-23 0 -40.5 17t-17.5 41q0 23 17 39t41 16q23 0 39.5 -18t16.5 -41zM512 652q0 -23 -29 -23l-310 -1q-30 0 -30 24q0 25 29 25h308q32 0 32 -25z" />
<glyph unicode="&#x104ea;&#x304;" d="M334 472q-36 0 -66.5 -18t-52.5 -48.5t-34.5 -70.5t-12.5 -83q0 -49 14 -89.5t37 -69t53.5 -45t61.5 -16.5q35 0 65 18t52 48.5t35 70t13 83.5q0 46 -12.5 86t-34.5 69.5t-52.5 47t-65.5 17.5zM333 -14q-45 0 -84 21.5t-67.5 58t-44 84.5t-15.5 102q0 53 15.5 101 t44 84.5t67.5 57.5t85 21q45 0 83.5 -22t67 -58.5t44.5 -84.5t16 -99q0 -55 -15.5 -103.5t-44 -84.5t-67.5 -57t-85 -21zM512 652q0 -23 -29 -23l-310 -1q-30 0 -30 24q0 25 29 25h308q32 0 32 -25z" />
<glyph unicode="&#xe007;&#x304;" d="M334 472q-36 0 -66.5 -18t-52.5 -48.5t-34.5 -70.5t-12.5 -83q0 -49 14 -89.5t37 -69t53.5 -45t61.5 -16.5q35 0 65 18t52 48.5t35 70t13 83.5q0 46 -12.5 86t-34.5 69.5t-52.5 47t-65.5 17.5zM333 -14q-45 0 -84 21.5t-67.5 58t-44 84.5t-15.5 102q0 53 15.5 101 t44 84.5t67.5 57.5t85 21q45 0 83.5 -22t67 -58.5t44.5 -84.5t16 -99q0 -55 -15.5 -103.5t-44 -84.5t-67.5 -57t-85 -21zM653 457q0 -22 -17 -38t-39 -16q-23 0 -40.5 17t-17.5 41q0 23 17 39t41 16t40 -18t16 -41zM512 652q0 -23 -29 -23l-310 -1q-30 0 -30 24q0 25 29 25 h308q32 0 32 -25z" />
<glyph unicode="&#x104eb;&#x304;" d="M371 256q0 -45 -40 -45q-36 0 -36 43q0 37 38 37q35 0 38 -35zM334 472q-36 0 -66.5 -18t-52.5 -48.5t-34.5 -70.5t-12.5 -83q0 -49 14 -89.5t37 -69t53.5 -45t61.5 -16.5q35 0 65 18t52 48.5t35 70t13 83.5q0 46 -12.5 86t-34.5 69.5t-52.5 47t-65.5 17.5zM333 -14 q-45 0 -84 21.5t-67.5 58t-44 84.5t-15.5 102q0 53 15.5 101t44 84.5t67.5 57.5t85 21q45 0 83.5 -22t67 -58.5t44.5 -84.5t16 -99q0 -55 -15.5 -103.5t-44 -84.5t-67.5 -57t-85 -21zM512 652q0 -23 -29 -23l-310 -1q-30 0 -30 24q0 25 29 25h308q32 0 32 -25z" />
<glyph unicode="&#x104f6;&#x304;" d="M509 167q0 -37 -13 -70t-36.5 -58t-55.5 -39.5t-70 -14.5t-70.5 14.5t-56 39.5t-36.5 58t-13 70v325q0 22 24 22q23 0 23 -23v-324q0 -28 10 -52.5t27 -42t40 -29t51 -11.5q27 0 50.5 11.5t41 30t27.5 42.5t10 51v324q0 23 23 23q24 0 24 -23v-324zM512 652 q0 -23 -29 -23l-310 -1q-30 0 -30 24q0 25 29 25h308q32 0 32 -25z" />
<glyph unicode="&#x104b0;&#x301;" d="M630 -5q0 -4 -3.5 -6.5t-16.5 -2.5q-28 0 -32 15l-235 632h-18l-236 -633q-4 -15 -30 -15q-21 0 -21 12q0 -2 257 687q7 21 39 21q33 0 41 -22l254 -682q1 -1 1 -6zM520 894q0 -10 -10 -19l-159 -133q-9 -5 -16 -5q-26 0 -26 26q0 10 9 19l159 132q8 7 17 7q26 0 26 -27z " />
<glyph unicode="&#xe000;&#x301;" d="M630 -5q0 -4 -3.5 -6.5t-16.5 -2.5q-28 0 -32 15l-235 632h-18l-236 -633q-4 -15 -30 -15q-21 0 -21 12q0 -2 257 687q7 21 39 21q33 0 41 -22l254 -682q1 -1 1 -6zM565 638q0 -22 -17 -38.5t-39 -16.5q-23 0 -40.5 17.5t-17.5 40.5q0 24 17 40t41 16q23 0 39.5 -18 t16.5 -41zM520 894q0 -10 -10 -19l-159 -133q-9 -5 -16 -5q-26 0 -26 26q0 10 9 19l159 132q8 7 17 7q26 0 26 -27z" />
<glyph unicode="&#x104b1;&#x301;" d="M360 264v-240q0 -24 -25 -24t-25 29v235q0 24 24 24q26 0 26 -24zM630 -5q0 -4 -3.5 -6.5t-16.5 -2.5q-28 0 -32 15l-235 632h-18l-236 -633q-4 -15 -30 -15q-21 0 -21 12q0 -2 257 687q7 21 39 21q33 0 41 -22l254 -682q1 -1 1 -6zM520 894q0 -10 -10 -19l-159 -133 q-9 -5 -16 -5q-26 0 -26 26q0 10 9 19l159 132q8 7 17 7q26 0 26 -27z" />
<glyph unicode="&#x104b2;&#x301;" d="M379 220h1q0 -46 -48 -46q-43 0 -43 51q0 44 45 44t45 -49zM630 -5q0 -4 -3.5 -6.5t-16.5 -2.5q-28 0 -32 15l-235 632h-18l-236 -633q-4 -15 -30 -15q-21 0 -21 12q0 -2 257 687q7 21 39 21q33 0 41 -22l254 -682q1 -1 1 -6zM520 894q0 -10 -10 -19l-159 -133 q-9 -5 -16 -5q-26 0 -26 26q0 10 9 19l159 132q8 7 17 7q26 0 26 -27z" />
<glyph unicode="&#x104b3;&#x301;" d="M585 26q0 -10 -11 -18.5t-21 -8.5q-5 0 -9 4l-216 329l-203 -329q-1 -4 -11 -6q-10 0 -21 6t-11 16q0 4 104 174q30 48 59 94.5t58 95.5v290q0 24 25 24t25 -24v-291q232 -344 232 -356zM520 894q0 -10 -10 -19l-159 -133q-9 -5 -16 -5q-26 0 -26 26q0 10 9 19l159 132 q8 7 17 7q26 0 26 -27z" />
<glyph unicode="&#xe001;&#x301;" d="M585 26q0 -10 -11 -18.5t-21 -8.5q-5 0 -9 4l-216 329l-203 -329q-1 -4 -11 -6q-10 0 -21 6t-11 16q0 4 104 174q30 48 59 94.5t58 95.5v290q0 24 25 24t25 -24v-291q232 -344 232 -356zM523 638q0 -22 -16.5 -38.5t-39.5 -16.5t-40.5 17.5t-17.5 40.5q0 24 17 40t41 16 t40 -18t16 -41zM520 894q0 -10 -10 -19l-159 -133q-9 -5 -16 -5q-26 0 -26 26q0 10 9 19l159 132q8 7 17 7q26 0 26 -27z" />
<glyph unicode="&#x104b7;&#x301;" d="M507 304q-8 60 -24.5 123t-43.5 114t-65.5 83.5t-90.5 32.5q-57 0 -100.5 -24.5t-73 -67.5t-45 -102.5t-15.5 -129.5q0 -56 15.5 -110.5t45.5 -96.5t73.5 -68.5t99.5 -26.5q44 0 79.5 23.5t63.5 61.5t48 87t33 101zM664 629q0 -10 -10 -14t-22.5 -5.5t-23.5 -1.5t-12 -2 q-1 -45 -7 -96q-4 -43 -13.5 -97.5t-24.5 -113.5q7 -44 11 -83.5t6 -69.5q2 -17 2.5 -33t0.5 -31q1 -2 12 -2t23 -1.5t22 -6t10 -13.5q0 -14 -13 -19t-26 -9q-28 -7 -51 9.5t-34 43.5v26q0 13 -0.5 31t-1.5 40q-18 -42 -40.5 -78.5t-50.5 -63.5t-62 -43t-76 -16 q-64 0 -115.5 28.5t-88 76.5t-56.5 110.5t-20 129.5q0 80 18 149.5t53.5 121t88 81t120.5 29.5q49 0 87 -23t67 -61.5t50.5 -88.5t36.5 -104q6 37 8.5 69t4.5 55q1 14 1.5 27t0.5 24q13 27 35 43.5t50 9.5q14 -4 27 -9t13 -19zM520 894q0 -10 -10 -19l-159 -133 q-9 -5 -16 -5q-26 0 -26 26q0 10 9 19l159 132q8 7 17 7q26 0 26 -27z" />
<glyph unicode="&#x104b8;&#x301;" d="M328 339h1q0 -47 -48 -47q-43 0 -43 51q0 44 45 44t45 -48zM507 304q-8 60 -24.5 123t-43.5 114t-65.5 83.5t-90.5 32.5q-57 0 -100.5 -24.5t-73 -67.5t-45 -102.5t-15.5 -129.5q0 -56 15.5 -110.5t45.5 -96.5t73.5 -68.5t99.5 -26.5q44 0 79.5 23.5t63.5 61.5t48 87 t33 101zM664 629q0 -10 -10 -14t-22.5 -5.5t-23.5 -1.5t-12 -2q-1 -45 -7 -96q-4 -43 -13.5 -97.5t-24.5 -113.5q7 -44 11 -83.5t6 -69.5q2 -17 2.5 -33t0.5 -31q1 -2 12 -2t23 -1.5t22 -6t10 -13.5q0 -14 -13 -19t-26 -9q-28 -7 -51 9.5t-34 43.5v26q0 13 -0.5 31t-1.5 40 q-18 -42 -40.5 -78.5t-50.5 -63.5t-62 -43t-76 -16q-64 0 -115.5 28.5t-88 76.5t-56.5 110.5t-20 129.5q0 80 18 149.5t53.5 121t88 81t120.5 29.5q49 0 87 -23t67 -61.5t50.5 -88.5t36.5 -104q6 37 8.5 69t4.5 55q1 14 1.5 27t0.5 24q13 27 35 43.5t50 9.5q14 -4 27 -9 t13 -19zM520 894q0 -10 -10 -19l-159 -133q-9 -5 -16 -5q-26 0 -26 26q0 10 9 19l159 132q8 7 17 7q26 0 26 -27z" />
<glyph unicode="&#x104bb;&#x301;" d="M571 471l-50 -448q-2 -23 -26 -23q-28 0 -24 24l50 447q4 39 -9.5 74t-40 61.5t-62 42.5t-75.5 16q-39 0 -75 -16t-62 -43t-40 -62t-10 -73l58 -447q4 -24 -25 -24q-13 0 -18 6t-8 18l-58 447q-7 50 10.5 94.5t51 77.5t79 52.5t96.5 19.5t97 -19.5t79 -52.5t50.5 -77.5 t11.5 -94.5zM520 894q0 -10 -10 -19l-159 -133q-9 -5 -16 -5q-26 0 -26 26q0 10 9 19l159 132q8 7 17 7q26 0 26 -27z" />
<glyph unicode="&#xe002;&#x301;" d="M571 471l-50 -448q-2 -23 -26 -23q-28 0 -24 24l50 447q4 39 -9.5 74t-40 61.5t-62 42.5t-75.5 16q-39 0 -75 -16t-62 -43t-40 -62t-10 -73l58 -447q4 -24 -25 -24q-13 0 -18 6t-8 18l-58 447q-7 50 10.5 94.5t51 77.5t79 52.5t96.5 19.5t97 -19.5t79 -52.5t50.5 -77.5 t11.5 -94.5zM697 638q0 -22 -16.5 -38.5t-39.5 -16.5t-40.5 17.5t-17.5 40.5q0 24 17 40t41 16t40 -18t16 -41zM520 894q0 -10 -10 -19l-159 -133q-9 -5 -16 -5q-26 0 -26 26q0 10 9 19l159 132q8 7 17 7q26 0 26 -27z" />
<glyph unicode="&#x104c2;&#x301;" d="M571 340q1 64 -17 120.5t-49.5 99.5t-75.5 67.5t-95 24.5q-52 0 -95.5 -26t-75 -69t-49 -100t-17.5 -117q0 -69 20 -125.5t53 -98t75.5 -64.5t88.5 -23q51 0 94 25.5t75 68.5t50 99t18 118zM619 340q0 -76 -21 -140.5t-59.5 -113.5t-90.5 -77t-115 -28q-62 0 -113.5 29 t-89.5 78t-59.5 114t-21.5 138q0 74 21.5 139t59 113.5t90.5 77t115 28.5q61 0 112.5 -29.5t89.5 -79.5t60 -115t22 -134zM520 894q0 -10 -10 -19l-159 -133q-9 -5 -16 -5q-26 0 -26 26q0 10 9 19l159 132q8 7 17 7q26 0 26 -27z" />
<glyph unicode="&#xe003;&#x301;" d="M571 340q1 64 -17 120.5t-49.5 99.5t-75.5 67.5t-95 24.5q-52 0 -95.5 -26t-75 -69t-49 -100t-17.5 -117q0 -69 20 -125.5t53 -98t75.5 -64.5t88.5 -23q51 0 94 25.5t75 68.5t50 99t18 118zM619 340q0 -76 -21 -140.5t-59.5 -113.5t-90.5 -77t-115 -28q-62 0 -113.5 29 t-89.5 78t-59.5 114t-21.5 138q0 74 21.5 139t59 113.5t90.5 77t115 28.5q61 0 112.5 -29.5t89.5 -79.5t60 -115t22 -134zM681 638q0 -22 -17 -38.5t-39 -16.5q-23 0 -40.5 17.5t-17.5 40.5q0 24 17 40t41 16q23 0 39.5 -18t16.5 -41zM520 894q0 -10 -10 -19l-159 -133 q-9 -5 -16 -5q-26 0 -26 26q0 10 9 19l159 132q8 7 17 7q26 0 26 -27z" />
<glyph unicode="&#x104c3;&#x301;" d="M378 339h1q0 -47 -48 -47q-43 0 -43 51q0 44 45 44t45 -48zM571 340q1 64 -17 120.5t-49.5 99.5t-75.5 67.5t-95 24.5q-52 0 -95.5 -26t-75 -69t-49 -100t-17.5 -117q0 -69 20 -125.5t53 -98t75.5 -64.5t88.5 -23q51 0 94 25.5t75 68.5t50 99t18 118zM619 340 q0 -76 -21 -140.5t-59.5 -113.5t-90.5 -77t-115 -28q-62 0 -113.5 29t-89.5 78t-59.5 114t-21.5 138q0 74 21.5 139t59 113.5t90.5 77t115 28.5q61 0 112.5 -29.5t89.5 -79.5t60 -115t22 -134zM520 894q0 -10 -10 -19l-159 -133q-9 -5 -16 -5q-26 0 -26 26q0 10 9 19 l159 132q8 7 17 7q26 0 26 -27z" />
<glyph unicode="&#x104ce;&#x301;" d="M571 670v-446q0 -51 -18 -95t-49.5 -77t-75 -52.5t-94.5 -19.5q-52 0 -95.5 19.5t-75 52.5t-49.5 77t-18 95v448q0 23 26 23q24 0 24 -25v-446q0 -40 14 -75t39.5 -61.5t59 -42t74.5 -15.5q39 0 73 15.5t59.5 42.5t40 62.5t14.5 73.5v446q0 25 25 25q26 0 26 -25z M520 894q0 -10 -10 -19l-159 -133q-9 -5 -16 -5q-26 0 -26 26q0 10 9 19l159 132q8 7 17 7q26 0 26 -27z" />
<glyph unicode="&#x104d8;&#x301;" d="M532 -10q-23 0 -29 15l-167 453h-5l-169 -455q-3 -9 -10 -12t-16 -3q-8 0 -14.5 3t-6.5 12q0 4 2 9q2 4 4 9.5t5 14.5l35 94q23 63 58 155.5t80 217.5q8 19 35 19t34 -20l183 -493q1 -1 1 -7q0 -12 -20 -12zM535 760q0 -11 -10 -20l-158 -132q-10 -6 -17 -6q-26 0 -26 26 q0 10 10 19l159 133q8 5 16 5q26 0 26 -25z" />
<glyph unicode="&#xe004;&#x301;" d="M532 -10q-23 0 -29 15l-167 453h-5l-169 -455q-3 -9 -10 -12t-16 -3q-8 0 -14.5 3t-6.5 12q0 4 2 9q2 4 4 9.5t5 14.5l35 94q23 63 58 155.5t80 217.5q8 19 35 19t34 -20l183 -493q1 -1 1 -7q0 -12 -20 -12zM557 457q0 -22 -17 -38t-39 -16q-23 0 -40.5 17t-17.5 41 q0 23 17 39t41 16q23 0 39.5 -18t16.5 -41zM535 760q0 -11 -10 -20l-158 -132q-10 -6 -17 -6q-26 0 -26 26q0 10 10 19l159 133q8 5 16 5q26 0 26 -25z" />
<glyph unicode="&#x104d9;&#x301;" d="M357 23q0 -23 -23 -23q-24 0 -24 27v170q0 22 24 22q23 0 23 -22v-174zM532 -10q-23 0 -29 15l-167 453h-5l-169 -455q-3 -9 -10 -12t-16 -3q-8 0 -14.5 3t-6.5 12q0 4 2 9q2 4 4 9.5t5 14.5l35 94q23 63 58 155.5t80 217.5q8 19 35 19t34 -20l183 -493q1 -1 1 -7 q0 -12 -20 -12zM535 760q0 -11 -10 -20l-158 -132q-10 -6 -17 -6q-26 0 -26 26q0 10 10 19l159 133q8 5 16 5q26 0 26 -25z" />
<glyph unicode="&#x104da;&#x301;" d="M372 171q0 -46 -40 -46q-36 0 -36 43q0 38 38 38q35 0 37 -35h1zM532 -10q-23 0 -29 15l-167 453h-5l-169 -455q-3 -9 -10 -12t-16 -3q-8 0 -14.5 3t-6.5 12q0 4 2 9q2 4 4 9.5t5 14.5l35 94q23 63 58 155.5t80 217.5q8 19 35 19t34 -20l183 -493q1 -1 1 -7 q0 -12 -20 -12zM535 760q0 -11 -10 -20l-158 -132q-10 -6 -17 -6q-26 0 -26 26q0 10 10 19l159 133q8 5 16 5q26 0 26 -25z" />
<glyph unicode="&#x104db;&#x301;" d="M604 1l-321 690q-24 50 -103 50q-30 0 -30 -25q0 -12 4.5 -16t24.5 -10q10 5 26 5q27 0 37 -22l75 -159q-21 -43 -53 -107t-200 -407q0 -10 18 -10q26 0 31 11l229 457l214 -457q4 -11 29 -11q19 0 19 11zM520 894q0 -10 -10 -19l-159 -133q-9 -5 -16 -5q-26 0 -26 26 q0 10 9 19l159 132q8 7 17 7q26 0 26 -27z" />
<glyph unicode="&#xe005;&#x301;" d="M568 457q0 -22 -16.5 -38t-38.5 -16q-23 0 -40.5 17t-17.5 41q0 23 16.5 39t41.5 16q23 0 39 -18t16 -41zM604 1l-321 690q-24 50 -103 50q-30 0 -30 -25q0 -12 4.5 -16t24.5 -10q9 5 26 5q27 0 37 -22l75 -159l-253 -514q0 -10 18 -10q26 0 31 11l229 457l214 -457 q4 -11 29 -11q19 0 19 11zM520 894q0 -10 -10 -19l-159 -133q-9 -5 -16 -5q-26 0 -26 26q0 10 9 19l159 132q8 7 17 7q26 0 26 -27z" />
<glyph unicode="&#x104df;&#x301;" d="M297 476q-39 0 -69.5 -17t-51.5 -48t-32 -72.5t-11 -91.5q0 -41 11 -79t32.5 -68t52 -48t68.5 -18q30 0 54.5 15.5t44 42t34 61.5t24.5 73q-6 44 -18.5 89t-31 80t-45 58t-62.5 23zM550 442q-6 -1 -10 -1t-8 -1q-1 0 -1.5 0.5t-1.5 0.5q-1 -16 -1.5 -32.5t-3.5 -33.5 q-3 -32 -10 -71.5t-18 -81.5q6 -32 8.5 -59.5t4.5 -51.5q1 -11 1 -22v-21h4h7t10 -1q12 -1 20 -5t8 -13q0 -8 -3.5 -13t-7.5 -7q-6 -2 -11 -3.5t-10 -3.5q-24 -6 -42 7.5t-27 35.5v20v12t-1 16q-25 -54 -64 -91t-96 -37q-48 0 -86.5 21.5t-65.5 57t-41.5 81.5t-14.5 95 q0 59 13.5 111t39.5 90t65 60t90 22q35 0 61.5 -15t47.5 -40t36.5 -57.5t27.5 -68.5q2 20 2.5 36t1.5 29q3 9 3 18.5v18.5q10 21 27.5 34.5t40.5 7.5q11 -2 21 -7q5 -2 8.5 -7t3.5 -11q0 -10 -8.5 -14t-19.5 -5zM535 760q0 -11 -10 -20l-158 -132q-10 -6 -17 -6 q-26 0 -26 26q0 10 10 19l159 133q8 5 16 5q26 0 26 -25z" />
<glyph unicode="&#x104e0;&#x301;" d="M336 256q0 -45 -40 -45q-37 0 -37 43q0 37 38 37q35 0 38 -35h1zM297 476q-39 0 -69.5 -17t-51.5 -48t-32 -72.5t-11 -91.5q0 -41 11 -79t32.5 -68t52 -48t68.5 -18q30 0 54.5 15.5t44 42t34 61.5t24.5 73q-6 44 -18.5 89t-31 80t-45 58t-62.5 23zM550 442q-6 -1 -10 -1 t-8 -1q-1 0 -1.5 0.5t-1.5 0.5q-1 -16 -1.5 -32.5t-3.5 -33.5q-3 -32 -10 -71.5t-18 -81.5q6 -32 8.5 -59.5t4.5 -51.5q1 -11 1 -22v-21h4h7t10 -1q12 -1 20 -5t8 -13q0 -8 -3.5 -13t-7.5 -7q-6 -2 -11 -3.5t-10 -3.5q-24 -6 -42 7.5t-27 35.5v20v12t-1 16q-25 -54 -64 -91 t-96 -37q-48 0 -86.5 21.5t-65.5 57t-41.5 81.5t-14.5 95q0 59 13.5 111t39.5 90t65 60t90 22q35 0 61.5 -15t47.5 -40t36.5 -57.5t27.5 -68.5q2 20 2.5 36t1.5 29q3 9 3 18.5v18.5q10 21 27.5 34.5t40.5 7.5q11 -2 21 -7q5 -2 8.5 -7t3.5 -11q0 -10 -8.5 -14t-19.5 -5z M535 760q0 -11 -10 -20l-158 -132q-10 -6 -17 -6q-26 0 -26 26q0 10 10 19l159 133q8 5 16 5q26 0 26 -25z" />
<glyph unicode="&#x104e3;&#x301;" d="M473 22q-2 -22 -23 -22q-12 0 -18.5 6t-4.5 18l36 323q2 27 -7 51t-27 42.5t-42.5 29.5t-52.5 11t-52 -11t-42 -29.5t-28 -42.5t-7 -50l42 -324q4 -24 -23 -24q-13 0 -17.5 6t-6.5 16l-42 324q-5 38 8 71.5t38 58t58.5 39t70.5 14.5q38 0 71.5 -14.5t58.5 -39t38 -58 t8 -71.5zM535 760q0 -11 -10 -20l-158 -132q-10 -6 -17 -6q-26 0 -26 26q0 10 10 19l159 133q8 5 16 5q26 0 26 -25z" />
<glyph unicode="&#xe006;&#x301;" d="M473 22q-2 -22 -23 -22q-12 0 -18.5 6t-4.5 18l36 323q2 27 -7 51t-27 42.5t-42.5 29.5t-52.5 11t-52 -11t-42 -29.5t-28 -42.5t-7 -50l42 -324q4 -24 -23 -24q-13 0 -17.5 6t-6.5 16l-42 324q-5 38 8 71.5t38 58t58.5 39t70.5 14.5q38 0 71.5 -14.5t58.5 -39t38 -58 t8 -71.5zM658 457q0 -22 -17 -38t-39 -16q-23 0 -40.5 17t-17.5 41q0 23 17 39t41 16q23 0 39.5 -18t16.5 -41zM535 760q0 -11 -10 -20l-158 -132q-10 -6 -17 -6q-26 0 -26 26q0 10 10 19l159 133q8 5 16 5q26 0 26 -25z" />
<glyph unicode="&#x104ea;&#x301;" d="M334 472q-36 0 -66.5 -18t-52.5 -48.5t-34.5 -70.5t-12.5 -83q0 -49 14 -89.5t37 -69t53.5 -45t61.5 -16.5q35 0 65 18t52 48.5t35 70t13 83.5q0 46 -12.5 86t-34.5 69.5t-52.5 47t-65.5 17.5zM333 -14q-45 0 -84 21.5t-67.5 58t-44 84.5t-15.5 102q0 53 15.5 101 t44 84.5t67.5 57.5t85 21q45 0 83.5 -22t67 -58.5t44.5 -84.5t16 -99q0 -55 -15.5 -103.5t-44 -84.5t-67.5 -57t-85 -21zM535 760q0 -11 -10 -20l-158 -132q-10 -6 -17 -6q-26 0 -26 26q0 10 10 19l159 133q8 5 16 5q26 0 26 -25z" />
<glyph unicode="&#xe007;&#x301;" d="M334 472q-36 0 -66.5 -18t-52.5 -48.5t-34.5 -70.5t-12.5 -83q0 -49 14 -89.5t37 -69t53.5 -45t61.5 -16.5q35 0 65 18t52 48.5t35 70t13 83.5q0 46 -12.5 86t-34.5 69.5t-52.5 47t-65.5 17.5zM333 -14q-45 0 -84 21.5t-67.5 58t-44 84.5t-15.5 102q0 53 15.5 101 t44 84.5t67.5 57.5t85 21q45 0 83.5 -22t67 -58.5t44.5 -84.5t16 -99q0 -55 -15.5 -103.5t-44 -84.5t-67.5 -57t-85 -21zM653 457q0 -22 -17 -38t-39 -16q-23 0 -40.5 17t-17.5 41q0 23 17 39t41 16t40 -18t16 -41zM535 760q0 -11 -10 -20l-158 -132q-10 -6 -17 -6 q-26 0 -26 26q0 10 10 19l159 133q8 5 16 5q26 0 26 -25z" />
<glyph unicode="&#x104eb;&#x301;" d="M371 256q0 -45 -40 -45q-36 0 -36 43q0 37 38 37q35 0 38 -35zM334 472q-36 0 -66.5 -18t-52.5 -48.5t-34.5 -70.5t-12.5 -83q0 -49 14 -89.5t37 -69t53.5 -45t61.5 -16.5q35 0 65 18t52 48.5t35 70t13 83.5q0 46 -12.5 86t-34.5 69.5t-52.5 47t-65.5 17.5zM333 -14 q-45 0 -84 21.5t-67.5 58t-44 84.5t-15.5 102q0 53 15.5 101t44 84.5t67.5 57.5t85 21q45 0 83.5 -22t67 -58.5t44.5 -84.5t16 -99q0 -55 -15.5 -103.5t-44 -84.5t-67.5 -57t-85 -21zM535 760q0 -11 -10 -20l-158 -132q-10 -6 -17 -6q-26 0 -26 26q0 10 10 19l159 133 q8 5 16 5q26 0 26 -25z" />
<glyph unicode="&#x104f6;&#x301;" d="M509 167q0 -37 -13 -70t-36.5 -58t-55.5 -39.5t-70 -14.5t-70.5 14.5t-56 39.5t-36.5 58t-13 70v325q0 22 24 22q23 0 23 -23v-324q0 -28 10 -52.5t27 -42t40 -29t51 -11.5q27 0 50.5 11.5t41 30t27.5 42.5t10 51v324q0 23 23 23q24 0 24 -23v-324zM535 760 q0 -11 -10 -20l-158 -132q-10 -6 -17 -6q-26 0 -26 26q0 10 10 19l159 133q8 5 16 5q26 0 26 -25z" />
<glyph unicode="&#x104b0;&#x30b;" d="M630 -5q0 -4 -3.5 -6.5t-16.5 -2.5q-28 0 -32 15l-235 632h-18l-236 -633q-4 -15 -30 -15q-21 0 -21 12q0 -2 257 687q7 21 39 21q33 0 41 -22l254 -682q1 -1 1 -6zM593 861q0 -6 -4 -10q-174 -139 -175 -139q-9 0 -16.5 10t-7.5 19q0 3 12.5 15t32 29t42 36t41.5 35 t32.5 26.5l13.5 10.5q8 0 18.5 -11.5t10.5 -20.5zM426 861q0 -3 -13 -15t-32.5 -28t-42 -35t-42.5 -34.5t-33.5 -26t-14.5 -10.5q-10 0 -18 10t-8 19q0 4 12.5 16t32.5 29t42.5 36t42 34.5t33 26l13.5 10.5q8 0 18 -11.5t10 -20.5z" />
<glyph unicode="&#xe000;&#x30b;" d="M630 -5q0 -4 -3.5 -6.5t-16.5 -2.5q-28 0 -32 15l-235 632h-18l-236 -633q-4 -15 -30 -15q-21 0 -21 12q0 -2 257 687q7 21 39 21q33 0 41 -22l254 -682q1 -1 1 -6zM565 638q0 -22 -17 -38.5t-39 -16.5q-23 0 -40.5 17.5t-17.5 40.5q0 24 17 40t41 16q23 0 39.5 -18 t16.5 -41zM593 861q0 -6 -4 -10q-174 -139 -175 -139q-9 0 -16.5 10t-7.5 19q0 3 12.5 15t32 29t42 36t41.5 35t32.5 26.5l13.5 10.5q8 0 18.5 -11.5t10.5 -20.5zM426 861q0 -3 -13 -15t-32.5 -28t-42 -35t-42.5 -34.5t-33.5 -26t-14.5 -10.5q-10 0 -18 10t-8 19 q0 4 12.5 16t32.5 29t42.5 36t42 34.5t33 26l13.5 10.5q8 0 18 -11.5t10 -20.5z" />
<glyph unicode="&#x104b1;&#x30b;" d="M360 264v-240q0 -24 -25 -24t-25 29v235q0 24 24 24q26 0 26 -24zM630 -5q0 -4 -3.5 -6.5t-16.5 -2.5q-28 0 -32 15l-235 632h-18l-236 -633q-4 -15 -30 -15q-21 0 -21 12q0 -2 257 687q7 21 39 21q33 0 41 -22l254 -682q1 -1 1 -6zM593 861q0 -6 -4 -10 q-174 -139 -175 -139q-9 0 -16.5 10t-7.5 19q0 3 12.5 15t32 29t42 36t41.5 35t32.5 26.5l13.5 10.5q8 0 18.5 -11.5t10.5 -20.5zM426 861q0 -3 -13 -15t-32.5 -28t-42 -35t-42.5 -34.5t-33.5 -26t-14.5 -10.5q-10 0 -18 10t-8 19q0 4 12.5 16t32.5 29t42.5 36t42 34.5 t33 26l13.5 10.5q8 0 18 -11.5t10 -20.5z" />
<glyph unicode="&#x104b2;&#x30b;" d="M379 220h1q0 -46 -48 -46q-43 0 -43 51q0 44 45 44t45 -49zM630 -5q0 -4 -3.5 -6.5t-16.5 -2.5q-28 0 -32 15l-235 632h-18l-236 -633q-4 -15 -30 -15q-21 0 -21 12q0 -2 257 687q7 21 39 21q33 0 41 -22l254 -682q1 -1 1 -6zM593 861q0 -6 -4 -10q-174 -139 -175 -139 q-9 0 -16.5 10t-7.5 19q0 3 12.5 15t32 29t42 36t41.5 35t32.5 26.5l13.5 10.5q8 0 18.5 -11.5t10.5 -20.5zM426 861q0 -3 -13 -15t-32.5 -28t-42 -35t-42.5 -34.5t-33.5 -26t-14.5 -10.5q-10 0 -18 10t-8 19q0 4 12.5 16t32.5 29t42.5 36t42 34.5t33 26l13.5 10.5 q8 0 18 -11.5t10 -20.5z" />
<glyph unicode="&#x104b3;&#x30b;" d="M585 26q0 -10 -11 -18.5t-21 -8.5q-5 0 -9 4l-216 329l-203 -329q-1 -4 -11 -6q-10 0 -21 6t-11 16q0 4 104 174q30 48 59 94.5t58 95.5v290q0 24 25 24t25 -24v-291q232 -344 232 -356zM593 861q0 -6 -4 -10q-174 -139 -175 -139q-9 0 -16.5 10t-7.5 19q0 3 12.5 15 t32 29t42 36t41.5 35t32.5 26.5l13.5 10.5q8 0 18.5 -11.5t10.5 -20.5zM426 861q0 -3 -13 -15t-32.5 -28t-42 -35t-42.5 -34.5t-33.5 -26t-14.5 -10.5q-10 0 -18 10t-8 19q0 4 12.5 16t32.5 29t42.5 36t42 34.5t33 26l13.5 10.5q8 0 18 -11.5t10 -20.5z" />
<glyph unicode="&#xe001;&#x30b;" d="M585 26q0 -10 -11 -18.5t-21 -8.5q-5 0 -9 4l-216 329l-203 -329q-1 -4 -11 -6q-10 0 -21 6t-11 16q0 4 104 174q30 48 59 94.5t58 95.5v290q0 24 25 24t25 -24v-291q232 -344 232 -356zM523 638q0 -22 -16.5 -38.5t-39.5 -16.5t-40.5 17.5t-17.5 40.5q0 24 17 40t41 16 t40 -18t16 -41zM593 861q0 -6 -4 -10q-174 -139 -175 -139q-9 0 -16.5 10t-7.5 19q0 3 12.5 15t32 29t42 36t41.5 35t32.5 26.5l13.5 10.5q8 0 18.5 -11.5t10.5 -20.5zM426 861q0 -3 -13 -15t-32.5 -28t-42 -35t-42.5 -34.5t-33.5 -26t-14.5 -10.5q-10 0 -18 10t-8 19 q0 4 12.5 16t32.5 29t42.5 36t42 34.5t33 26l13.5 10.5q8 0 18 -11.5t10 -20.5z" />
<glyph unicode="&#x104b7;&#x30b;" d="M507 304q-8 60 -24.5 123t-43.5 114t-65.5 83.5t-90.5 32.5q-57 0 -100.5 -24.5t-73 -67.5t-45 -102.5t-15.5 -129.5q0 -56 15.5 -110.5t45.5 -96.5t73.5 -68.5t99.5 -26.5q44 0 79.5 23.5t63.5 61.5t48 87t33 101zM664 629q0 -10 -10 -14t-22.5 -5.5t-23.5 -1.5t-12 -2 q-1 -45 -7 -96q-4 -43 -13.5 -97.5t-24.5 -113.5q7 -44 11 -83.5t6 -69.5q2 -17 2.5 -33t0.5 -31q1 -2 12 -2t23 -1.5t22 -6t10 -13.5q0 -14 -13 -19t-26 -9q-28 -7 -51 9.5t-34 43.5v26q0 13 -0.5 31t-1.5 40q-18 -42 -40.5 -78.5t-50.5 -63.5t-62 -43t-76 -16 q-64 0 -115.5 28.5t-88 76.5t-56.5 110.5t-20 129.5q0 80 18 149.5t53.5 121t88 81t120.5 29.5q49 0 87 -23t67 -61.5t50.5 -88.5t36.5 -104q6 37 8.5 69t4.5 55q1 14 1.5 27t0.5 24q13 27 35 43.5t50 9.5q14 -4 27 -9t13 -19zM593 861q0 -6 -4 -10q-174 -139 -175 -139 q-9 0 -16.5 10t-7.5 19q0 3 12.5 15t32 29t42 36t41.5 35t32.5 26.5l13.5 10.5q8 0 18.5 -11.5t10.5 -20.5zM426 861q0 -3 -13 -15t-32.5 -28t-42 -35t-42.5 -34.5t-33.5 -26t-14.5 -10.5q-10 0 -18 10t-8 19q0 4 12.5 16t32.5 29t42.5 36t42 34.5t33 26l13.5 10.5 q8 0 18 -11.5t10 -20.5z" />
<glyph unicode="&#x104b8;&#x30b;" d="M328 339h1q0 -47 -48 -47q-43 0 -43 51q0 44 45 44t45 -48zM507 304q-8 60 -24.5 123t-43.5 114t-65.5 83.5t-90.5 32.5q-57 0 -100.5 -24.5t-73 -67.5t-45 -102.5t-15.5 -129.5q0 -56 15.5 -110.5t45.5 -96.5t73.5 -68.5t99.5 -26.5q44 0 79.5 23.5t63.5 61.5t48 87 t33 101zM664 629q0 -10 -10 -14t-22.5 -5.5t-23.5 -1.5t-12 -2q-1 -45 -7 -96q-4 -43 -13.5 -97.5t-24.5 -113.5q7 -44 11 -83.5t6 -69.5q2 -17 2.5 -33t0.5 -31q1 -2 12 -2t23 -1.5t22 -6t10 -13.5q0 -14 -13 -19t-26 -9q-28 -7 -51 9.5t-34 43.5v26q0 13 -0.5 31t-1.5 40 q-18 -42 -40.5 -78.5t-50.5 -63.5t-62 -43t-76 -16q-64 0 -115.5 28.5t-88 76.5t-56.5 110.5t-20 129.5q0 80 18 149.5t53.5 121t88 81t120.5 29.5q49 0 87 -23t67 -61.5t50.5 -88.5t36.5 -104q6 37 8.5 69t4.5 55q1 14 1.5 27t0.5 24q13 27 35 43.5t50 9.5q14 -4 27 -9 t13 -19zM593 861q0 -6 -4 -10q-174 -139 -175 -139q-9 0 -16.5 10t-7.5 19q0 3 12.5 15t32 29t42 36t41.5 35t32.5 26.5l13.5 10.5q8 0 18.5 -11.5t10.5 -20.5zM426 861q0 -3 -13 -15t-32.5 -28t-42 -35t-42.5 -34.5t-33.5 -26t-14.5 -10.5q-10 0 -18 10t-8 19q0 4 12.5 16 t32.5 29t42.5 36t42 34.5t33 26l13.5 10.5q8 0 18 -11.5t10 -20.5z" />
<glyph unicode="&#x104bb;&#x30b;" d="M571 471l-50 -448q-2 -23 -26 -23q-28 0 -24 24l50 447q4 39 -9.5 74t-40 61.5t-62 42.5t-75.5 16q-39 0 -75 -16t-62 -43t-40 -62t-10 -73l58 -447q4 -24 -25 -24q-13 0 -18 6t-8 18l-58 447q-7 50 10.5 94.5t51 77.5t79 52.5t96.5 19.5t97 -19.5t79 -52.5t50.5 -77.5 t11.5 -94.5zM593 861q0 -6 -4 -10q-174 -139 -175 -139q-9 0 -16.5 10t-7.5 19q0 3 12.5 15t32 29t42 36t41.5 35t32.5 26.5l13.5 10.5q8 0 18.5 -11.5t10.5 -20.5zM426 861q0 -3 -13 -15t-32.5 -28t-42 -35t-42.5 -34.5t-33.5 -26t-14.5 -10.5q-10 0 -18 10t-8 19 q0 4 12.5 16t32.5 29t42.5 36t42 34.5t33 26l13.5 10.5q8 0 18 -11.5t10 -20.5z" />
<glyph unicode="&#xe002;&#x30b;" d="M571 471l-50 -448q-2 -23 -26 -23q-28 0 -24 24l50 447q4 39 -9.5 74t-40 61.5t-62 42.5t-75.5 16q-39 0 -75 -16t-62 -43t-40 -62t-10 -73l58 -447q4 -24 -25 -24q-13 0 -18 6t-8 18l-58 447q-7 50 10.5 94.5t51 77.5t79 52.5t96.5 19.5t97 -19.5t79 -52.5t50.5 -77.5 t11.5 -94.5zM697 638q0 -22 -16.5 -38.5t-39.5 -16.5t-40.5 17.5t-17.5 40.5q0 24 17 40t41 16t40 -18t16 -41zM593 861q0 -6 -4 -10q-174 -139 -175 -139q-9 0 -16.5 10t-7.5 19q0 3 12.5 15t32 29t42 36t41.5 35t32.5 26.5l13.5 10.5q8 0 18.5 -11.5t10.5 -20.5zM426 861 q0 -3 -13 -15t-32.5 -28t-42 -35t-42.5 -34.5t-33.5 -26t-14.5 -10.5q-10 0 -18 10t-8 19q0 4 12.5 16t32.5 29t42.5 36t42 34.5t33 26l13.5 10.5q8 0 18 -11.5t10 -20.5z" />
<glyph unicode="&#x104c2;&#x30b;" d="M571 340q1 64 -17 120.5t-49.5 99.5t-75.5 67.5t-95 24.5q-52 0 -95.5 -26t-75 -69t-49 -100t-17.5 -117q0 -69 20 -125.5t53 -98t75.5 -64.5t88.5 -23q51 0 94 25.5t75 68.5t50 99t18 118zM619 340q0 -76 -21 -140.5t-59.5 -113.5t-90.5 -77t-115 -28q-62 0 -113.5 29 t-89.5 78t-59.5 114t-21.5 138q0 74 21.5 139t59 113.5t90.5 77t115 28.5q61 0 112.5 -29.5t89.5 -79.5t60 -115t22 -134zM593 861q0 -6 -4 -10q-174 -139 -175 -139q-9 0 -16.5 10t-7.5 19q0 3 12.5 15t32 29t42 36t41.5 35t32.5 26.5l13.5 10.5q8 0 18.5 -11.5t10.5 -20.5 zM426 861q0 -3 -13 -15t-32.5 -28t-42 -35t-42.5 -34.5t-33.5 -26t-14.5 -10.5q-10 0 -18 10t-8 19q0 4 12.5 16t32.5 29t42.5 36t42 34.5t33 26l13.5 10.5q8 0 18 -11.5t10 -20.5z" />
<glyph unicode="&#xe003;&#x30b;" d="M571 340q1 64 -17 120.5t-49.5 99.5t-75.5 67.5t-95 24.5q-52 0 -95.5 -26t-75 -69t-49 -100t-17.5 -117q0 -69 20 -125.5t53 -98t75.5 -64.5t88.5 -23q51 0 94 25.5t75 68.5t50 99t18 118zM619 340q0 -76 -21 -140.5t-59.5 -113.5t-90.5 -77t-115 -28q-62 0 -113.5 29 t-89.5 78t-59.5 114t-21.5 138q0 74 21.5 139t59 113.5t90.5 77t115 28.5q61 0 112.5 -29.5t89.5 -79.5t60 -115t22 -134zM681 638q0 -22 -17 -38.5t-39 -16.5q-23 0 -40.5 17.5t-17.5 40.5q0 24 17 40t41 16q23 0 39.5 -18t16.5 -41zM593 861q0 -6 -4 -10 q-174 -139 -175 -139q-9 0 -16.5 10t-7.5 19q0 3 12.5 15t32 29t42 36t41.5 35t32.5 26.5l13.5 10.5q8 0 18.5 -11.5t10.5 -20.5zM426 861q0 -3 -13 -15t-32.5 -28t-42 -35t-42.5 -34.5t-33.5 -26t-14.5 -10.5q-10 0 -18 10t-8 19q0 4 12.5 16t32.5 29t42.5 36t42 34.5 t33 26l13.5 10.5q8 0 18 -11.5t10 -20.5z" />
<glyph unicode="&#x104c3;&#x30b;" d="M378 339h1q0 -47 -48 -47q-43 0 -43 51q0 44 45 44t45 -48zM571 340q1 64 -17 120.5t-49.5 99.5t-75.5 67.5t-95 24.5q-52 0 -95.5 -26t-75 -69t-49 -100t-17.5 -117q0 -69 20 -125.5t53 -98t75.5 -64.5t88.5 -23q51 0 94 25.5t75 68.5t50 99t18 118zM619 340 q0 -76 -21 -140.5t-59.5 -113.5t-90.5 -77t-115 -28q-62 0 -113.5 29t-89.5 78t-59.5 114t-21.5 138q0 74 21.5 139t59 113.5t90.5 77t115 28.5q61 0 112.5 -29.5t89.5 -79.5t60 -115t22 -134zM593 861q0 -6 -4 -10q-174 -139 -175 -139q-9 0 -16.5 10t-7.5 19q0 3 12.5 15 t32 29t42 36t41.5 35t32.5 26.5l13.5 10.5q8 0 18.5 -11.5t10.5 -20.5zM426 861q0 -3 -13 -15t-32.5 -28t-42 -35t-42.5 -34.5t-33.5 -26t-14.5 -10.5q-10 0 -18 10t-8 19q0 4 12.5 16t32.5 29t42.5 36t42 34.5t33 26l13.5 10.5q8 0 18 -11.5t10 -20.5z" />
<glyph unicode="&#x104ce;&#x30b;" d="M571 670v-446q0 -51 -18 -95t-49.5 -77t-75 -52.5t-94.5 -19.5q-52 0 -95.5 19.5t-75 52.5t-49.5 77t-18 95v448q0 23 26 23q24 0 24 -25v-446q0 -40 14 -75t39.5 -61.5t59 -42t74.5 -15.5q39 0 73 15.5t59.5 42.5t40 62.5t14.5 73.5v446q0 25 25 25q26 0 26 -25z M593 861q0 -6 -4 -10q-174 -139 -175 -139q-9 0 -16.5 10t-7.5 19q0 3 12.5 15t32 29t42 36t41.5 35t32.5 26.5l13.5 10.5q8 0 18.5 -11.5t10.5 -20.5zM426 861q0 -3 -13 -15t-32.5 -28t-42 -35t-42.5 -34.5t-33.5 -26t-14.5 -10.5q-10 0 -18 10t-8 19q0 4 12.5 16t32.5 29 t42.5 36t42 34.5t33 26l13.5 10.5q8 0 18 -11.5t10 -20.5z" />
<glyph unicode="&#x104d8;&#x30b;" d="M532 -10q-23 0 -29 15l-167 453h-5l-169 -455q-3 -9 -10 -12t-16 -3q-8 0 -14.5 3t-6.5 12q0 4 2 9q2 4 4 9.5t5 14.5l35 94q23 63 58 155.5t80 217.5q8 19 35 19t34 -20l183 -493q1 -1 1 -7q0 -12 -20 -12zM589 760q0 -11 -9 -20l-159 -132q-8 -6 -16 -6q-26 0 -26 26 q0 10 10 19l159 133q9 5 16 5q25 0 25 -25zM423 760q0 -11 -9 -20l-159 -132q-8 -6 -16 -6q-26 0 -26 26q0 10 10 19l159 133q9 5 16 5q25 0 25 -25z" />
<glyph unicode="&#xe004;&#x30b;" d="M532 -10q-23 0 -29 15l-167 453h-5l-169 -455q-3 -9 -10 -12t-16 -3q-8 0 -14.5 3t-6.5 12q0 4 2 9q2 4 4 9.5t5 14.5l35 94q23 63 58 155.5t80 217.5q8 19 35 19t34 -20l183 -493q1 -1 1 -7q0 -12 -20 -12zM557 457q0 -22 -17 -38t-39 -16q-23 0 -40.5 17t-17.5 41 q0 23 17 39t41 16q23 0 39.5 -18t16.5 -41zM589 760q0 -11 -9 -20l-159 -132q-8 -6 -16 -6q-26 0 -26 26q0 10 10 19l159 133q9 5 16 5q25 0 25 -25zM423 760q0 -11 -9 -20l-159 -132q-8 -6 -16 -6q-26 0 -26 26q0 10 10 19l159 133q9 5 16 5q25 0 25 -25z" />
<glyph unicode="&#x104d9;&#x30b;" d="M357 23q0 -23 -23 -23q-24 0 -24 27v170q0 22 24 22q23 0 23 -22v-174zM532 -10q-23 0 -29 15l-167 453h-5l-169 -455q-3 -9 -10 -12t-16 -3q-8 0 -14.5 3t-6.5 12q0 4 2 9q2 4 4 9.5t5 14.5l35 94q23 63 58 155.5t80 217.5q8 19 35 19t34 -20l183 -493q1 -1 1 -7 q0 -12 -20 -12zM589 760q0 -11 -9 -20l-159 -132q-8 -6 -16 -6q-26 0 -26 26q0 10 10 19l159 133q9 5 16 5q25 0 25 -25zM423 760q0 -11 -9 -20l-159 -132q-8 -6 -16 -6q-26 0 -26 26q0 10 10 19l159 133q9 5 16 5q25 0 25 -25z" />
<glyph unicode="&#x104da;&#x30b;" d="M372 171q0 -46 -40 -46q-36 0 -36 43q0 38 38 38q35 0 37 -35h1zM532 -10q-23 0 -29 15l-167 453h-5l-169 -455q-3 -9 -10 -12t-16 -3q-8 0 -14.5 3t-6.5 12q0 4 2 9q2 4 4 9.5t5 14.5l35 94q23 63 58 155.5t80 217.5q8 19 35 19t34 -20l183 -493q1 -1 1 -7 q0 -12 -20 -12zM589 760q0 -11 -9 -20l-159 -132q-8 -6 -16 -6q-26 0 -26 26q0 10 10 19l159 133q9 5 16 5q25 0 25 -25zM423 760q0 -11 -9 -20l-159 -132q-8 -6 -16 -6q-26 0 -26 26q0 10 10 19l159 133q9 5 16 5q25 0 25 -25z" />
<glyph unicode="&#x104db;&#x30b;" d="M426 861q0 -3 -13 -15t-32.5 -28t-42 -35t-42.5 -34.5t-34 -25.5q-1 -1 -2 -3q14 -11 23 -29l321 -690q0 -11 -19 -11q-25 0 -29 11l-214 457l-229 -457q-5 -11 -31 -11q-18 0 -18 10q168 343 200 407t53 107l-75 159q-10 22 -37 22q-16 0 -26 -5q-20 6 -24.5 10t-4.5 16 q0 25 30 25q23 0 42 -4v4q0 4 12.5 16t32.5 29t42.5 36t42 34.5t32.5 26.5l14 10q8 0 18 -11.5t10 -20.5zM593 861q0 -6 -4 -10q-174 -139 -175 -139q-9 0 -16.5 10t-7.5 19q0 3 12.5 15t32 29t42 36t41.5 35t32 27l14 10q8 0 18.5 -11.5t10.5 -20.5z" />
<glyph unicode="&#xe005;&#x30b;" d="M426 861q0 -3 -13 -15t-32.5 -28t-42 -35t-42.5 -34.5t-34 -25.5q-1 -1 -2 -3q14 -11 23 -29l321 -690q0 -11 -19 -11q-25 0 -29 11l-214 457l-229 -457q-5 -11 -31 -11q-18 0 -18 10q168 343 200 407t53 107l-75 159q-10 22 -37 22q-16 0 -26 -5q-20 6 -24.5 10t-4.5 16 q0 25 30 25q23 0 42 -4v4q0 4 12.5 16t32.5 29t42.5 36t42 34.5t32.5 26.5l14 10q8 0 18 -11.5t10 -20.5zM593 861q0 -6 -4 -10q-174 -139 -175 -139q-9 0 -16.5 10t-7.5 19q0 3 12.5 15t32 29t42 36t41.5 35t32 27l14 10q8 0 18.5 -11.5t10.5 -20.5zM568 457 q0 -22 -16.5 -38t-38.5 -16q-23 0 -40.5 17t-17.5 41q0 23 16.5 39t41.5 16q23 0 39 -18t16 -41z" />
<glyph unicode="&#x104df;&#x30b;" d="M297 476q-39 0 -69.5 -17t-51.5 -48t-32 -72.5t-11 -91.5q0 -41 11 -79t32.5 -68t52 -48t68.5 -18q30 0 54.5 15.5t44 42t34 61.5t24.5 73q-6 44 -18.5 89t-31 80t-45 58t-62.5 23zM550 442q-6 -1 -10 -1t-8 -1q-1 0 -1.5 0.5t-1.5 0.5q-1 -16 -1.5 -32.5t-3.5 -33.5 q-3 -32 -10 -71.5t-18 -81.5q6 -32 8.5 -59.5t4.5 -51.5q1 -11 1 -22v-21h4h7t10 -1q12 -1 20 -5t8 -13q0 -8 -3.5 -13t-7.5 -7q-6 -2 -11 -3.5t-10 -3.5q-24 -6 -42 7.5t-27 35.5v20v12t-1 16q-25 -54 -64 -91t-96 -37q-48 0 -86.5 21.5t-65.5 57t-41.5 81.5t-14.5 95 q0 59 13.5 111t39.5 90t65 60t90 22q35 0 61.5 -15t47.5 -40t36.5 -57.5t27.5 -68.5q2 20 2.5 36t1.5 29q3 9 3 18.5v18.5q10 21 27.5 34.5t40.5 7.5q11 -2 21 -7q5 -2 8.5 -7t3.5 -11q0 -10 -8.5 -14t-19.5 -5zM589 760q0 -11 -9 -20l-159 -132q-8 -6 -16 -6q-26 0 -26 26 q0 10 10 19l159 133q9 5 16 5q25 0 25 -25zM423 760q0 -11 -9 -20l-159 -132q-8 -6 -16 -6q-26 0 -26 26q0 10 10 19l159 133q9 5 16 5q25 0 25 -25z" />
<glyph unicode="&#x104e0;&#x30b;" d="M336 256q0 -45 -40 -45q-37 0 -37 43q0 37 38 37q35 0 38 -35h1zM297 476q-39 0 -69.5 -17t-51.5 -48t-32 -72.5t-11 -91.5q0 -41 11 -79t32.5 -68t52 -48t68.5 -18q30 0 54.5 15.5t44 42t34 61.5t24.5 73q-6 44 -18.5 89t-31 80t-45 58t-62.5 23zM550 442q-6 -1 -10 -1 t-8 -1q-1 0 -1.5 0.5t-1.5 0.5q-1 -16 -1.5 -32.5t-3.5 -33.5q-3 -32 -10 -71.5t-18 -81.5q6 -32 8.5 -59.5t4.5 -51.5q1 -11 1 -22v-21h4h7t10 -1q12 -1 20 -5t8 -13q0 -8 -3.5 -13t-7.5 -7q-6 -2 -11 -3.5t-10 -3.5q-24 -6 -42 7.5t-27 35.5v20v12t-1 16q-25 -54 -64 -91 t-96 -37q-48 0 -86.5 21.5t-65.5 57t-41.5 81.5t-14.5 95q0 59 13.5 111t39.5 90t65 60t90 22q35 0 61.5 -15t47.5 -40t36.5 -57.5t27.5 -68.5q2 20 2.5 36t1.5 29q3 9 3 18.5v18.5q10 21 27.5 34.5t40.5 7.5q11 -2 21 -7q5 -2 8.5 -7t3.5 -11q0 -10 -8.5 -14t-19.5 -5z M589 760q0 -11 -9 -20l-159 -132q-8 -6 -16 -6q-26 0 -26 26q0 10 10 19l159 133q9 5 16 5q25 0 25 -25zM423 760q0 -11 -9 -20l-159 -132q-8 -6 -16 -6q-26 0 -26 26q0 10 10 19l159 133q9 5 16 5q25 0 25 -25z" />
<glyph unicode="&#x104e3;&#x30b;" d="M473 22q-2 -22 -23 -22q-12 0 -18.5 6t-4.5 18l36 323q2 27 -7 51t-27 42.5t-42.5 29.5t-52.5 11t-52 -11t-42 -29.5t-28 -42.5t-7 -50l42 -324q4 -24 -23 -24q-13 0 -17.5 6t-6.5 16l-42 324q-5 38 8 71.5t38 58t58.5 39t70.5 14.5q38 0 71.5 -14.5t58.5 -39t38 -58 t8 -71.5zM589 760q0 -11 -9 -20l-159 -132q-8 -6 -16 -6q-26 0 -26 26q0 10 10 19l159 133q9 5 16 5q25 0 25 -25zM423 760q0 -11 -9 -20l-159 -132q-8 -6 -16 -6q-26 0 -26 26q0 10 10 19l159 133q9 5 16 5q25 0 25 -25z" />
<glyph unicode="&#xe006;&#x30b;" d="M473 22q-2 -22 -23 -22q-12 0 -18.5 6t-4.5 18l36 323q2 27 -7 51t-27 42.5t-42.5 29.5t-52.5 11t-52 -11t-42 -29.5t-28 -42.5t-7 -50l42 -324q4 -24 -23 -24q-13 0 -17.5 6t-6.5 16l-42 324q-5 38 8 71.5t38 58t58.5 39t70.5 14.5q38 0 71.5 -14.5t58.5 -39t38 -58 t8 -71.5zM658 457q0 -22 -17 -38t-39 -16q-23 0 -40.5 17t-17.5 41q0 23 17 39t41 16q23 0 39.5 -18t16.5 -41zM589 760q0 -11 -9 -20l-159 -132q-8 -6 -16 -6q-26 0 -26 26q0 10 10 19l159 133q9 5 16 5q25 0 25 -25zM423 760q0 -11 -9 -20l-159 -132q-8 -6 -16 -6 q-26 0 -26 26q0 10 10 19l159 133q9 5 16 5q25 0 25 -25z" />
<glyph unicode="&#x104ea;&#x30b;" d="M334 472q-36 0 -66.5 -18t-52.5 -48.5t-34.5 -70.5t-12.5 -83q0 -49 14 -89.5t37 -69t53.5 -45t61.5 -16.5q35 0 65 18t52 48.5t35 70t13 83.5q0 46 -12.5 86t-34.5 69.5t-52.5 47t-65.5 17.5zM333 -14q-45 0 -84 21.5t-67.5 58t-44 84.5t-15.5 102q0 53 15.5 101 t44 84.5t67.5 57.5t85 21q45 0 83.5 -22t67 -58.5t44.5 -84.5t16 -99q0 -55 -15.5 -103.5t-44 -84.5t-67.5 -57t-85 -21zM589 760q0 -11 -9 -20l-159 -132q-8 -6 -16 -6q-26 0 -26 26q0 10 10 19l159 133q9 5 16 5q25 0 25 -25zM423 760q0 -11 -9 -20l-159 -132 q-8 -6 -16 -6q-26 0 -26 26q0 10 10 19l159 133q9 5 16 5q25 0 25 -25z" />
<glyph unicode="&#xe007;&#x30b;" d="M334 472q-36 0 -66.5 -18t-52.5 -48.5t-34.5 -70.5t-12.5 -83q0 -49 14 -89.5t37 -69t53.5 -45t61.5 -16.5q35 0 65 18t52 48.5t35 70t13 83.5q0 46 -12.5 86t-34.5 69.5t-52.5 47t-65.5 17.5zM333 -14q-45 0 -84 21.5t-67.5 58t-44 84.5t-15.5 102q0 53 15.5 101 t44 84.5t67.5 57.5t85 21q45 0 83.5 -22t67 -58.5t44.5 -84.5t16 -99q0 -55 -15.5 -103.5t-44 -84.5t-67.5 -57t-85 -21zM653 457q0 -22 -17 -38t-39 -16q-23 0 -40.5 17t-17.5 41q0 23 17 39t41 16t40 -18t16 -41zM589 760q0 -11 -9 -20l-159 -132q-8 -6 -16 -6 q-26 0 -26 26q0 10 10 19l159 133q9 5 16 5q25 0 25 -25zM423 760q0 -11 -9 -20l-159 -132q-8 -6 -16 -6q-26 0 -26 26q0 10 10 19l159 133q9 5 16 5q25 0 25 -25z" />
<glyph unicode="&#x104eb;&#x30b;" d="M371 256q0 -45 -40 -45q-36 0 -36 43q0 37 38 37q35 0 38 -35zM334 472q-36 0 -66.5 -18t-52.5 -48.5t-34.5 -70.5t-12.5 -83q0 -49 14 -89.5t37 -69t53.5 -45t61.5 -16.5q35 0 65 18t52 48.5t35 70t13 83.5q0 46 -12.5 86t-34.5 69.5t-52.5 47t-65.5 17.5zM333 -14 q-45 0 -84 21.5t-67.5 58t-44 84.5t-15.5 102q0 53 15.5 101t44 84.5t67.5 57.5t85 21q45 0 83.5 -22t67 -58.5t44.5 -84.5t16 -99q0 -55 -15.5 -103.5t-44 -84.5t-67.5 -57t-85 -21zM589 760q0 -11 -9 -20l-159 -132q-8 -6 -16 -6q-26 0 -26 26q0 10 10 19l159 133 q9 5 16 5q25 0 25 -25zM423 760q0 -11 -9 -20l-159 -132q-8 -6 -16 -6q-26 0 -26 26q0 10 10 19l159 133q9 5 16 5q25 0 25 -25z" />
<glyph unicode="&#x104f6;&#x30b;" d="M509 167q0 -37 -13 -70t-36.5 -58t-55.5 -39.5t-70 -14.5t-70.5 14.5t-56 39.5t-36.5 58t-13 70v325q0 22 24 22q23 0 23 -23v-324q0 -28 10 -52.5t27 -42t40 -29t51 -11.5q27 0 50.5 11.5t41 30t27.5 42.5t10 51v324q0 23 23 23q24 0 24 -23v-324zM589 760q0 -11 -9 -20 l-159 -132q-8 -6 -16 -6q-26 0 -26 26q0 10 10 19l159 133q9 5 16 5q25 0 25 -25zM423 760q0 -11 -9 -20l-159 -132q-8 -6 -16 -6q-26 0 -26 26q0 10 10 19l159 133q9 5 16 5q25 0 25 -25z" />
<glyph unicode="A&#x304;&#x301;" d="M517 796q0 -27 -34 -27h-297q-34 0 -34 27q0 25 32 25h301q32 0 32 -25zM629 -5q0 -4 -3.5 -6.5t-16.5 -2.5q-28 0 -32 15l-83 228h-321l-85 -229q-4 -15 -30 -15q-21 0 -21 12q0 2 256 687q7 21 40 21q32 0 41 -22l254 -682q1 -1 1 -6zM478 280l-136 353h-18l-134 -353 h288zM508 1010l-5 -8q-174 -139 -175 -139q-8 0 -16 10t-8 19q0 2 12.5 15t32 30t42 36t42 34.5t32.5 26t14 10.5q9 0 19 -11.5t10 -22.5z" />
<glyph unicode="a&#x304;&#x301;" d="M566 21q0 -24 -22 -24q-10 0 -15.5 6t-7.5 16.5t-2 23.5v27q-114 -90 -229 -90q-41 0 -75.5 11t-60 31t-39.5 49t-14 65q0 32 14 63.5t47 56.5t88 40t137 15q46 0 132 -19v82q0 45 -43 72.5t-107 27.5q-49 0 -129 -25q-46 -15 -54 -15q-14 0 -19.5 11t-5.5 13q0 8 4 15 t15 13t31.5 11t52.5 11q39 7 66.5 10t44.5 3q40 0 75.5 -11t61 -30t40 -46t14.5 -59v-354zM519 137v108q-41 9 -80.5 14t-78.5 5q-42 0 -80 -9.5t-67 -26.5t-46 -40t-17 -51q0 -52 38 -79.5t102 -27.5q115 0 229 107zM541 652q0 -24 -29 -24h-310q-30 0 -30 24q0 25 29 25 h308q32 0 32 -25zM531 889q0 -12 -9 -19l-159 -132q-9 -7 -16 -7q-26 0 -26 26q0 10 10 19l159 132q6 7 16 7q25 0 25 -26z" />
<glyph unicode="E&#x304;&#x301;" d="M503 796q0 -27 -34 -27h-297q-34 0 -34 27q0 25 33 25h300q32 0 32 -25zM566 26q0 -26 -15 -26h-420q-30 0 -30 27v632q0 24 29 24h421q15 0 15 -24q0 -26 -15 -26h-401v-253h225q4 0 10 -6t6 -19q0 -26 -15 -26h-226v-278l401 -1q15 0 15 -24zM508 1010l-5 -8 q-174 -139 -175 -139q-8 0 -16 10t-8 19q0 2 12.5 15t32 30t42 36t42 34.5t32.5 26t14 10.5q9 0 19 -11.5t10 -22.5z" />
<glyph unicode="e&#x304;&#x301;" d="M512 652q0 -23 -29 -23l-310 -1q-30 0 -30 24q0 25 29 25h308q32 0 32 -25zM607 108q0 -20 -27 -42t-67 -41t-85.5 -32t-84.5 -13q-60 0 -111.5 23t-90 61.5t-60 91t-21.5 111.5q0 57 21 104.5t57.5 82t85.5 54.5t105 20q47 0 90 -12.5t75.5 -44t51.5 -87t20 -139.5h-459 q12 -99 75 -156.5t161 -57.5q61 0 111.5 14t91.5 59q13 15 22.5 21t13.5 7q25 0 25 -24zM517 292q-5 36 -8.5 57.5t-9 35t-13 22t-19.5 19.5q-60 53 -142 53q-85 0 -143.5 -51t-73.5 -136h409zM531 889q0 -12 -9 -19l-159 -132q-9 -7 -16 -7q-26 0 -26 26q0 10 10 19 l159 132q6 7 16 7q25 0 25 -26z" />
<glyph unicode="I&#x304;&#x301;" d="M515 796q0 -27 -35 -27h-297q-33 0 -33 27q0 25 32 25h301q31 0 32 -25zM550 27q0 -27 -33 -27h-369q-31 0 -31 28q0 23 31 23h162v582l-162 -1q-31 0 -31 28q0 23 31 23h371q31 0 31 -23q0 -27 -33 -27h-156v-582h156q33 0 33 -24zM508 1010l-5 -8q-174 -139 -175 -139 q-8 0 -16 10t-8 19q0 2 12.5 15t32 30t42 36t42 34.5t32.5 26t14 10.5q9 0 19 -11.5t10 -22.5z" />
<glyph unicode="i&#x304;&#x301;" d="M492 652q0 -23 -29 -23l-310 -1q-30 0 -30 24q0 25 29 25h309q31 0 31 -25zM573 26q0 -26 -32 -26h-417q-32 0 -32 28q0 20 32 20h185v408h-149q-32 0 -32 27q0 25 32 25h200v-460h182q31 0 31 -22zM531 889q0 -12 -9 -19l-159 -132q-9 -7 -16 -7q-26 0 -26 26 q0 10 10 19l159 132q6 7 16 7q25 0 25 -26z" />
<glyph unicode="O&#x304;&#x301;" d="M524 796q0 -27 -34 -27h-297q-34 0 -34 27q0 25 32 25h301q32 0 32 -25zM619 340q0 -74 -21 -139.5t-59.5 -114.5t-90.5 -77t-115 -28q-62 0 -113.5 29t-89.5 78t-59.5 114t-21.5 138q0 74 21.5 139t59 113.5t90.5 77t115 28.5q61 0 112.5 -29.5t89.5 -79.5t60 -115 t22 -134zM571 340q0 64 -18 120.5t-49.5 99.5t-75 67.5t-94.5 24.5q-52 0 -95.5 -26t-75 -69t-49 -100t-17.5 -117q0 -69 20 -125.5t53 -98t75.5 -64.5t88.5 -23q51 0 94 25.5t74.5 68.5t49.5 99t19 118zM508 1010l-5 -8q-174 -139 -175 -139q-8 0 -16 10t-8 19q0 2 12.5 15 t32 30t42 36t42 34.5t32.5 26t14 10.5q9 0 19 -11.5t10 -22.5z" />
<glyph unicode="o&#x304;&#x301;" d="M528 652q0 -23 -29 -23l-310 -1q-30 0 -30 24q0 25 29 25h308q32 0 32 -25zM608 253q0 -58 -21 -108t-58 -86.5t-87 -57.5t-107 -21q-55 0 -105.5 21.5t-88.5 58.5t-60 87t-22 107q0 56 22.5 104.5t60.5 85t88 57.5t104 21q56 0 106 -21.5t87 -58t59 -85t22 -104.5z M560 251q0 44 -18.5 84t-49 70.5t-71.5 48.5t-86 18t-85.5 -18t-72 -48.5t-50 -70.5t-18.5 -84q0 -47 18 -87.5t48 -70t71.5 -47t88.5 -17.5t88 17.5t71.5 47.5t48 70t17.5 87zM531 889q0 -12 -9 -19l-159 -132q-9 -7 -16 -7q-26 0 -26 26q0 10 10 19l159 132q6 7 16 7 q25 0 25 -26z" />
<glyph unicode="U&#x304;&#x301;" d="M509 796q0 -27 -35 -27h-297q-33 0 -33 27q0 25 32 25h301q32 0 32 -25zM571 224q0 -51 -18 -95t-49.5 -77t-75 -52.5t-94.5 -19.5q-52 0 -95.5 19.5t-75 52.5t-49.5 77t-18 95v448q0 23 26 23q24 0 24 -25l-1 -446q0 -40 14 -75t39.5 -61.5t59.5 -42t75 -15.5 q39 0 73 15.5t59.5 42.5t40 62.5t14.5 73.5v446q0 25 25 25q26 0 26 -25v-446zM508 1010l-5 -8q-174 -139 -175 -139q-8 0 -16 10t-8 19q0 2 12.5 15t32 30t42 36t42 34.5t32.5 26t14 10.5q9 0 19 -11.5t10 -22.5z" />
<glyph unicode="u&#x304;&#x301;" d="M538 652q0 -23 -29 -23l-309 -1q-31 0 -31 24q0 25 29 25h309q31 0 31 -25zM545 21q0 -24 -23 -24q-22 0 -26 29q0 2 1 13t2 31q-103 -90 -219 -90q-71 0 -114.5 45.5t-43.5 116.5v353q0 24 24 24q25 0 25 -24v-353q0 -49 29.5 -80t77.5 -31q120 0 220 111v353 q0 24 23 24q24 0 24 -24v-474zM531 889q0 -12 -9 -19l-159 -132q-9 -7 -16 -7q-26 0 -26 26q0 10 10 19l159 132q6 7 16 7q25 0 25 -26z" />
<glyph unicode="A&#x30b;" d="M629 -5q0 -4 -3.5 -6.5t-16.5 -2.5q-28 0 -32 15l-83 228h-321l-85 -229q-4 -15 -30 -15q-21 0 -21 12q0 2 256 687q7 21 40 21q32 0 41 -22l254 -682q1 -1 1 -6zM478 280l-136 353h-18l-134 -353h288zM593 861q0 -6 -4 -10q-174 -139 -175 -139q-9 0 -16.5 10t-7.5 19 q0 3 12.5 15t32 29t42 36t41.5 35t32.5 26.5l13.5 10.5q8 0 18.5 -11.5t10.5 -20.5zM426 861q0 -3 -13 -15t-32.5 -28t-42 -35t-42.5 -34.5t-33.5 -26t-14.5 -10.5q-10 0 -18 10t-8 19q0 4 12.5 16t32.5 29t42.5 36t42 34.5t33 26l13.5 10.5q8 0 18 -11.5t10 -20.5z" />
<glyph unicode="a&#x30b;" d="M566 21q0 -24 -22 -24q-10 0 -15.5 6t-7.5 16.5t-2 23.5v27q-114 -90 -229 -90q-41 0 -75.5 11t-60 31t-39.5 49t-14 65q0 32 14 63.5t47 56.5t88 40t137 15q47 0 133 -19v82q-3 46 -45.5 73t-105.5 27q-49 0 -129 -25q-46 -15 -54 -15q-14 0 -19.5 11t-5.5 13q0 8 4 15 t15 13t31.5 11t52.5 11q39 7 66.5 10t44.5 3q40 0 75.5 -11t61 -30t40 -46t14.5 -59v-354zM520 137v108q-42 9 -81.5 14t-78.5 5q-42 0 -80 -9.5t-67 -26.5t-46 -40t-17 -51q0 -52 38 -79.5t102 -27.5q116 0 230 107zM589 760q0 -11 -9 -20l-159 -132q-8 -6 -16 -6 q-26 0 -26 26q0 10 10 19l159 133q9 5 16 5q25 0 25 -25zM423 760q0 -11 -9 -20l-159 -132q-8 -6 -16 -6q-26 0 -26 26q0 10 10 19l159 133q9 5 16 5q25 0 25 -25z" />
<glyph unicode="E&#x30b;" d="M566 26q0 -26 -15 -26h-420q-30 0 -30 27v632q0 24 29 24h421q15 0 15 -24q0 -26 -15 -26h-401v-253h225q4 0 10 -6t6 -19q0 -26 -15 -26h-226v-278h401q15 -1 15 -25zM593 861q0 -6 -4 -10q-174 -139 -175 -139q-9 0 -16.5 10t-7.5 19q0 3 12.5 15t32 29t42 36t41.5 35 t32.5 26.5l13.5 10.5q8 0 18.5 -11.5t10.5 -20.5zM426 861q0 -3 -13 -15t-32.5 -28t-42 -35t-42.5 -34.5t-33.5 -26t-14.5 -10.5q-10 0 -18 10t-8 19q0 4 12.5 16t32.5 29t42.5 36t42 34.5t33 26l13.5 10.5q8 0 18 -11.5t10 -20.5z" />
<glyph unicode="e&#x30b;" d="M607 108q0 -20 -27 -42t-67 -41t-85.5 -32t-84.5 -13q-60 0 -111.5 23t-90 61.5t-60 91t-21.5 111.5q0 57 21 104.5t57.5 82t85.5 54.5t105 20q47 0 90 -13t75.5 -45t51.5 -86.5t20 -138.5h-459q12 -99 75 -156.5t161 -57.5q61 0 111.5 14t91.5 59q13 15 22.5 21t13.5 7 q25 0 25 -24zM517 292q-5 36 -8.5 57.5t-9 35t-13 22t-19.5 19.5q-60 53 -142 53q-85 0 -143.5 -51t-73.5 -136h409zM589 760q0 -11 -9 -20l-159 -132q-8 -6 -16 -6q-26 0 -26 26q0 10 10 19l159 133q9 5 16 5q25 0 25 -25zM423 760q0 -11 -9 -20l-159 -132q-8 -6 -16 -6 q-26 0 -26 26q0 10 10 19l159 133q9 5 16 5q25 0 25 -25z" />
<glyph unicode="I&#x30b;" d="M550 27q0 -27 -33 -27h-369q-31 0 -31 28q0 23 31 23h162v581h-162q-31 0 -31 28q0 23 31 23h371q31 0 31 -23q0 -28 -33 -28h-156v-581h156q33 0 33 -24zM593 861q0 -6 -4 -10q-174 -139 -175 -139q-9 0 -16.5 10t-7.5 19q0 3 12.5 15t32 29t42 36t41.5 35t32.5 26.5 l13.5 10.5q8 0 18.5 -11.5t10.5 -20.5zM426 861q0 -3 -13 -15t-32.5 -28t-42 -35t-42.5 -34.5t-33.5 -26t-14.5 -10.5q-10 0 -18 10t-8 19q0 4 12.5 16t32.5 29t42.5 36t42 34.5t33 26l13.5 10.5q8 0 18 -11.5t10 -20.5z" />
<glyph unicode="i&#x30b;" d="M573 26q0 -26 -32 -26h-417q-32 0 -32 28q0 20 32 20h185v408h-149q-32 0 -32 27q0 25 32 25h200v-460h182q31 0 31 -22zM589 760q0 -11 -9 -20l-159 -132q-8 -6 -16 -6q-26 0 -26 26q0 10 10 19l159 133q9 5 16 5q25 0 25 -25zM423 760q0 -11 -9 -20l-159 -132 q-8 -6 -16 -6q-26 0 -26 26q0 10 10 19l159 133q9 5 16 5q25 0 25 -25z" />
<glyph unicode="A&#x328;&#x304;" d="M628 1q-2 -11 -24 -17q-138 -28 -138 -110q0 -25 15 -45t40 -20q18 0 30.5 9t20.5 19.5t14 20t13 9.5q24 0 24 -22q0 -17 -9.5 -32t-23 -26.5t-31 -18t-35.5 -6.5q-23 0 -42 9.5t-33 25.5t-21.5 37t-7.5 45q0 51 40.5 89.5t107.5 55.5l-74 205h-321l-85 -229 q-4 -15 -30 -15q-21 0 -21 12q116 319 180 490t76 197q11 21 40 21q32 0 41 -22zM478 280l-136 353h-18l-134 -353h288zM517 796q0 -27 -34 -27h-297q-34 0 -34 27q0 25 32 25h301q32 0 32 -25z" />
<glyph unicode="a&#x328;&#x304;" d="M566 21q0 -24 -22 -24q-20 0 -43.5 -12t-44.5 -29t-35.5 -38.5t-14.5 -42.5q0 -26 17 -46t42 -20q15 0 26 9t19.5 19.5t14.5 20t13 9.5q25 0 25 -22q0 -17 -9.5 -32t-23.5 -26.5t-31.5 -18t-34.5 -6.5q-23 0 -42 9.5t-33 25t-21.5 36t-7.5 43.5q0 52 44 96.5t113 65.5 l2 32q-114 -90 -229 -90q-41 0 -75.5 11t-60 31.5t-39.5 49.5t-14 64q0 87 76 131t210 44q47 0 132 -19v82q0 45 -43 72.5t-107 27.5q-14 0 -39 -6t-53 -13.5t-52.5 -14t-38.5 -6.5q-10 0 -18 7l-7 17q0 8 3 15t13.5 12.5t31 10.5t54.5 11q77 14 112 14q39 0 74.5 -10.5 t61 -29.5t40.5 -46.5t15 -59.5v-354zM519 137v108q-83 19 -159 19q-41 0 -78.5 -9t-67.5 -26t-47 -40t-17 -52q0 -51 37.5 -79t99.5 -28q118 0 232 107zM541 652q0 -24 -29 -24h-310q-30 0 -30 24q0 25 29 25h308q32 0 32 -25z" />
<glyph unicode="I&#x328;&#x304;" d="M550 27q0 -27 -33 -27h-79q-17 0 -31 -8.5t-24.5 -22t-16 -31t-5.5 -34.5q0 -36 21 -61.5t56 -25.5q16 0 29.5 8.5t24.5 18.5t19 18.5t10 8.5q25 0 25 -28q0 -15 -11 -29.5t-27.5 -25.5t-36 -18t-35.5 -7q-28 0 -50.5 10.5t-38.5 28t-25.5 42t-9.5 52.5q0 60 39 104h-203 q-31 0 -31 28q0 23 31 23h162v582l-162 -1q-31 0 -31 28q0 23 31 23h371q31 0 31 -23q0 -27 -33 -27h-156v-582h156q33 0 33 -24zM517 796q0 -27 -34 -27h-297q-34 0 -34 27q0 25 32 25h301q32 0 32 -25z" />
<glyph unicode="i&#x328;&#x304;" d="M573 26q0 -26 -32 -26h-92q-15 -3 -26.5 -13t-20 -23.5t-13 -29t-4.5 -29.5q0 -37 21 -62.5t57 -25.5q15 0 29 8.5t25 18.5t18.5 18.5t9.5 8.5q26 0 26 -28q0 -15 -11 -29.5t-28 -25.5t-36 -18t-35 -7q-28 0 -51 10.5t-39 28t-25.5 42t-9.5 52.5q0 61 40 104h-252 q-32 0 -32 28q0 20 32 20h185v408h-149q-32 0 -32 27q0 25 32 25h200v-460h182q31 0 31 -22zM492 652q0 -23 -29 -23l-310 -1q-30 0 -30 24q0 25 29 25h309q31 0 31 -25z" />
<glyph unicode="&#x18f;&#x328;" d="M606 362q0 -81 -20.5 -150.5t-57.5 -121.5t-90 -81q-27 -15 -59 -23q-9 -7 -16 -16q-10 -14 -16 -31.5t-6 -34.5q0 -36 21 -61.5t57 -25.5q15 0 29 8.5t25 18.5t18.5 18.5t9.5 8.5q26 0 26 -28q0 -15 -11 -29.5t-28 -25.5t-36 -18t-36 -7q-27 0 -50 10.5t-39 28t-25.5 42 t-9.5 52.5q0 47 24 84q-61 1 -105 18q-47 16 -77 56.5t-43 109t-13 172.5q0 26 15 26h467q-2 54 -23.5 107t-56.5 94t-80 66.5t-94 25.5q-54 0 -96.5 -20.5t-87.5 -70.5q-30 -34 -38 -33q-10 0 -17 6t-7 19q0 12 26 43q39 48 98.5 77.5t119.5 29.5q63 0 117.5 -29 t95.5 -76.5t65 -109.5t24 -129zM558 311h-432q0 -73 10.5 -126t34.5 -87t62 -51t93 -17q50 0 90.5 20t70 56.5t48 88t23.5 116.5z" />
<glyph unicode="&#x259;&#x328;" d="M445 0h-2q-15 -6 -32 -10q-12 -9 -21 -20q-11 -14 -16.5 -31.5t-5.5 -34.5q0 -36 20.5 -61.5t56.5 -25.5q16 0 29.5 8.5t24.5 18.5t18.5 18.5t10.5 8.5q25 0 25 -28q0 -15 -11 -29.5t-27.5 -25.5t-36 -18t-35.5 -7q-28 0 -50.5 10.5t-38.5 28t-25.5 42t-9.5 52.5 q0 47 23 84h-4q-48 0 -90.5 13t-75 45t-51.5 86.5t-20 138.5h459q-12 99 -75 156.5t-161 57.5q-62 0 -112 -14t-91 -59q-13 -15 -23 -21.5t-13 -6.5q-25 0 -25 24q0 19 27 41.5t67 41.5t85.5 32t84.5 13q59 0 110.5 -22t90 -61t60.5 -91t22 -113q0 -55 -21 -103t-57 -83 t-85 -55h1zM559 216h-409q4 -36 8 -57.5t9.5 -35t12.5 -22t20 -19.5q60 -53 142 -53q85 0 143.5 51t73.5 136z" />
<glyph unicode="A&#x328;&#x304;&#x301;" d="M628 1q-2 -11 -24 -17q-138 -28 -138 -110q0 -25 15 -45t40 -20q18 0 30.5 9t20.5 19.5t14 20t13 9.5q24 0 24 -22q0 -17 -9.5 -32t-23 -26.5t-31 -18t-35.5 -6.5q-23 0 -42 9.5t-33 25.5t-21.5 37t-7.5 45q0 51 40.5 89.5t107.5 55.5l-74 205h-321l-85 -229 q-4 -15 -30 -15q-21 0 -21 12q116 319 180 490t76 197q11 21 40 21q32 0 41 -22zM478 280l-136 353h-18l-134 -353h288zM517 796q0 -27 -34 -27h-297q-34 0 -34 27q0 25 32 25h301q32 0 32 -25zM508 1010l-5 -8q-174 -139 -175 -139q-8 0 -16 10t-8 19q0 2 12.5 15t32 30 t42 36t42 34.5t32.5 26t14 10.5q9 0 19 -11.5t10 -22.5z" />
<glyph unicode="a&#x328;&#x304;&#x301;" d="M566 21q0 -24 -22 -24q-20 0 -43.5 -12t-44.5 -29t-35.5 -38.5t-14.5 -42.5q0 -26 17 -46t42 -20q15 0 26 9t19.5 19.5t14.5 20t13 9.5q25 0 25 -22q0 -17 -9.5 -32t-23.5 -26.5t-31.5 -18t-34.5 -6.5q-23 0 -42 9.5t-33 25t-21.5 36t-7.5 43.5q0 52 44 96.5t113 65.5 l2 32q-114 -90 -229 -90q-41 0 -75.5 11t-60 31.5t-39.5 49.5t-14 64q0 87 76 131t210 44q47 0 132 -19v82q0 45 -43 72.5t-107 27.5q-14 0 -39 -6t-53 -13.5t-52.5 -14t-38.5 -6.5q-10 0 -18 7l-7 17q0 8 3 15t13.5 12.5t31 10.5t54.5 11q77 14 112 14q39 0 74.5 -10.5 t61 -29.5t40.5 -46.5t15 -59.5v-354zM519 137v108q-83 19 -159 19q-41 0 -78.5 -9t-67.5 -26t-47 -40t-17 -52q0 -51 37.5 -79t99.5 -28q118 0 232 107zM541 652q0 -24 -29 -24h-310q-30 0 -30 24q0 25 29 25h308q32 0 32 -25zM531 889q0 -12 -9 -19l-159 -132q-9 -7 -16 -7 q-26 0 -26 26q0 10 10 19l159 132q6 7 16 7q25 0 25 -26z" />
<glyph unicode="I&#x328;&#x304;&#x301;" d="M550 27q0 -27 -33 -27h-79q-17 0 -31 -8.5t-24.5 -22t-16 -31t-5.5 -34.5q0 -36 21 -61.5t56 -25.5q16 0 29.5 8.5t24.5 18.5t19 18.5t10 8.5q25 0 25 -28q0 -15 -11 -29.5t-27.5 -25.5t-36 -18t-35.5 -7q-28 0 -50.5 10.5t-38.5 28t-25.5 42t-9.5 52.5q0 60 39 104h-203 q-31 0 -31 28q0 23 31 23h162v582l-162 -1q-31 0 -31 28q0 23 31 23h371q31 0 31 -23q0 -27 -33 -27h-156v-582h156q33 0 33 -24zM517 796q0 -27 -34 -27h-297q-34 0 -34 27q0 25 32 25h301q32 0 32 -25zM508 1010l-5 -8q-174 -139 -175 -139q-8 0 -16 10t-8 19q0 2 12.5 15 t32 30t42 36t42 34.5t32.5 26t14 10.5q9 0 19 -11.5t10 -22.5z" />
<glyph unicode="i&#x328;&#x304;&#x301;" d="M573 26q0 -26 -32 -26h-92q-15 -3 -26.5 -13t-20 -23.5t-13 -29t-4.5 -29.5q0 -37 21 -62.5t57 -25.5q15 0 29 8.5t25 18.5t18.5 18.5t9.5 8.5q26 0 26 -28q0 -15 -11 -29.5t-28 -25.5t-36 -18t-35 -7q-28 0 -51 10.5t-39 28t-25.5 42t-9.5 52.5q0 61 40 104h-252 q-32 0 -32 28q0 20 32 20h185v408h-149q-32 0 -32 27q0 25 32 25h200v-460h182q31 0 31 -22zM492 652q0 -23 -29 -23l-310 -1q-30 0 -30 24q0 25 29 25h309q31 0 31 -25zM531 889q0 -12 -9 -19l-159 -132q-9 -7 -16 -7q-26 0 -26 26q0 10 10 19l159 132q6 7 16 7 q25 0 25 -26z" />
<glyph unicode="O&#x328;&#x304;&#x301;" d="M619 340q0 -51 -12.5 -101.5t-35 -95t-54.5 -79.5t-69 -56l-45 -17q-27 -11 -40 -33.5t-13 -53.5q0 -36 21 -61.5t57 -25.5q16 0 30 8.5t24.5 18.5t18 18.5t9.5 8.5q26 0 26 -28q0 -15 -11.5 -29.5t-28.5 -25.5t-36 -18t-34 -7q-28 0 -50.5 10.5t-39 28t-25.5 42t-9 52.5 q0 47 27 85q-60 2 -111 31t-88.5 77.5t-59 113.5t-21.5 137q0 74 21.5 139.5t59.5 114.5t90.5 76.5t114.5 27.5q61 0 112.5 -29.5t89.5 -79.5t60 -115t22 -134zM571 340q0 64 -18 120.5t-49.5 99.5t-75 67.5t-94.5 24.5t-94.5 -25.5t-75 -69t-49.5 -100t-18 -117.5 q0 -62 18 -118t49.5 -99t75 -68.5t94.5 -25.5t94.5 26t75 69t49.5 99.5t18 116.5zM517 796q0 -27 -34 -27h-297q-34 0 -34 27q0 25 32 25h301q32 0 32 -25zM508 1010l-5 -8q-174 -139 -175 -139q-8 0 -16 10t-8 19q0 2 12.5 15t32 30t42 36t42 34.5t32.5 26t14 10.5 q9 0 19 -11.5t10 -22.5z" />
<glyph unicode="o&#x328;&#x304;&#x301;" d="M608 253q0 -42 -11 -80t-32 -71.5t-51 -59t-69 -40.5l-37 -12q-58 -21 -58 -89q0 -36 21.5 -60t56.5 -24q16 0 30 8.5t24.5 18.5t18 18.5t9.5 8.5q26 0 26 -28q0 -15 -11.5 -29.5t-28.5 -25.5t-36 -18t-34 -7q-28 0 -50.5 10.5t-39 28t-25.5 42t-9 52.5q0 45 26 84 q-55 1 -104.5 24t-86 60t-57.5 85.5t-21 104.5t22.5 104.5t60.5 85t88 57.5t104 21q56 0 106 -21.5t87 -58t59 -85t22 -104.5zM560 251q0 44 -18.5 84t-49.5 70.5t-72 48.5t-85 18q-45 0 -85.5 -18t-72 -48.5t-50 -70.5t-18.5 -84q0 -47 18 -87.5t48 -70t71.5 -47 t88.5 -17.5t88 17.5t71.5 47.5t48 70t17.5 87zM528 652q0 -23 -29 -23l-310 -1q-30 0 -30 24q0 25 29 25h308q32 0 32 -25zM531 889q0 -12 -9 -19l-159 -132q-9 -7 -16 -7q-26 0 -26 26q0 10 10 19l159 132q6 7 16 7q25 0 25 -26z" />
<glyph unicode="A&#x328;&#x30b;" d="M628 1q-2 -11 -24 -17q-138 -28 -138 -110q0 -25 15 -45t40 -20q18 0 30.5 9t20.5 19.5t14 20t13 9.5q24 0 24 -22q0 -17 -9.5 -32t-23 -26.5t-31 -18t-35.5 -6.5q-23 0 -42 9.5t-33 25.5t-21.5 37t-7.5 45q0 51 40.5 89.5t107.5 55.5l-74 205h-321l-85 -229 q-4 -15 -30 -15q-21 0 -21 12q116 319 180 490t76 197q11 21 40 21q32 0 41 -22zM478 280l-136 353h-18l-134 -353h288zM593 861q0 -6 -4 -10q-174 -139 -175 -139q-9 0 -16.5 10t-7.5 19q0 3 12.5 15t32 29t42 36t41.5 35t32.5 26.5l13.5 10.5q8 0 18.5 -11.5t10.5 -20.5z M426 861q0 -3 -13 -15t-32.5 -28t-42 -35t-42.5 -34.5t-33.5 -26t-14.5 -10.5q-10 0 -18 10t-8 19q0 4 12.5 16t32.5 29t42.5 36t42 34.5t33 26l13.5 10.5q8 0 18 -11.5t10 -20.5z" />
<glyph unicode="a&#x328;&#x30b;" d="M566 21q0 -24 -22 -24q-20 0 -43.5 -12t-44.5 -29t-35.5 -38.5t-14.5 -42.5q0 -26 17 -46t42 -20q15 0 26 9t19.5 19.5t14.5 20t13 9.5q25 0 25 -22q0 -17 -9.5 -32t-23.5 -26.5t-31.5 -18t-34.5 -6.5q-23 0 -42 9.5t-33 25t-21.5 36t-7.5 43.5q0 52 44 96.5t113 65.5 l2 32q-114 -90 -229 -90q-41 0 -75.5 11t-60 31.5t-39.5 49.5t-14 64q0 87 76 131t210 44q47 0 132 -19v82q0 45 -43 72.5t-107 27.5q-14 0 -39 -6t-53 -13.5t-52.5 -14t-38.5 -6.5q-10 0 -18 7l-7 17q0 8 3 15t13.5 12.5t31 10.5t54.5 11q77 14 112 14q39 0 74.5 -10.5 t61 -29.5t40.5 -46.5t15 -59.5v-354zM519 137v108q-83 19 -159 19q-41 0 -78.5 -9t-67.5 -26t-47 -40t-17 -52q0 -51 37.5 -79t99.5 -28q118 0 232 107zM589 760q0 -11 -9 -20l-159 -132q-8 -6 -16 -6q-26 0 -26 26q0 10 10 19l159 133q9 5 16 5q25 0 25 -25zM423 760 q0 -11 -9 -20l-159 -132q-8 -6 -16 -6q-26 0 -26 26q0 10 10 19l159 133q9 5 16 5q25 0 25 -25z" />
<glyph unicode="I&#x328;&#x30b;" d="M550 27q0 -27 -33 -27h-79q-17 0 -31 -8.5t-24.5 -22t-16 -31t-5.5 -34.5q0 -36 21 -61.5t56 -25.5q16 0 29.5 8.5t24.5 18.5t19 18.5t10 8.5q25 0 25 -28q0 -15 -11 -29.5t-27.5 -25.5t-36 -18t-35.5 -7q-28 0 -50.5 10.5t-38.5 28t-25.5 42t-9.5 52.5q0 60 39 104h-203 q-31 0 -31 28q0 23 31 23h162v582l-162 -1q-31 0 -31 28q0 23 31 23h371q31 0 31 -23q0 -27 -33 -27h-156v-582h156q33 0 33 -24zM593 861q0 -6 -4 -10q-174 -139 -175 -139q-9 0 -16.5 10t-7.5 19q0 3 12.5 15t32 29t42 36t41.5 35t32.5 26.5l13.5 10.5q8 0 18.5 -11.5 t10.5 -20.5zM426 861q0 -3 -13 -15t-32.5 -28t-42 -35t-42.5 -34.5t-33.5 -26t-14.5 -10.5q-10 0 -18 10t-8 19q0 4 12.5 16t32.5 29t42.5 36t42 34.5t33 26l13.5 10.5q8 0 18 -11.5t10 -20.5z" />
<glyph unicode="i&#x328;&#x30b;" d="M573 26q0 -26 -32 -26h-92q-15 -3 -26.5 -13t-20 -23.5t-13 -29t-4.5 -29.5q0 -37 21 -62.5t57 -25.5q15 0 29 8.5t25 18.5t18.5 18.5t9.5 8.5q26 0 26 -28q0 -15 -11 -29.5t-28 -25.5t-36 -18t-35 -7q-28 0 -51 10.5t-39 28t-25.5 42t-9.5 52.5q0 61 40 104h-252 q-32 0 -32 28q0 20 32 20h185v408h-149q-32 0 -32 27q0 25 32 25h200v-460h182q31 0 31 -22zM589 760q0 -11 -9 -20l-159 -132q-8 -6 -16 -6q-26 0 -26 26q0 10 10 19l159 133q9 5 16 5q25 0 25 -25zM423 760q0 -11 -9 -20l-159 -132q-8 -6 -16 -6q-26 0 -26 26q0 10 10 19 l159 133q9 5 16 5q25 0 25 -25z" />
<glyph unicode="O&#x328;&#x30b;" d="M619 340q0 -51 -12.5 -101.5t-35 -95t-54.5 -79.5t-69 -56l-45 -17q-27 -11 -40 -33.5t-13 -53.5q0 -36 21 -61.5t57 -25.5q16 0 30 8.5t24.5 18.5t18 18.5t9.5 8.5q26 0 26 -28q0 -15 -11.5 -29.5t-28.5 -25.5t-36 -18t-34 -7q-28 0 -50.5 10.5t-39 28t-25.5 42t-9 52.5 q0 47 27 85q-60 2 -111 31t-88.5 77.5t-59 113.5t-21.5 137q0 74 21.5 139.5t59.5 114.5t90.5 76.5t114.5 27.5q61 0 112.5 -29.5t89.5 -79.5t60 -115t22 -134zM571 340q0 64 -18 120.5t-49.5 99.5t-75 67.5t-94.5 24.5t-94.5 -25.5t-75 -69t-49.5 -100t-18 -117.5 q0 -62 18 -118t49.5 -99t75 -68.5t94.5 -25.5t94.5 26t75 69t49.5 99.5t18 116.5zM593 861q0 -6 -4 -10q-174 -139 -175 -139q-9 0 -16.5 10t-7.5 19q0 3 12.5 15t32 29t42 36t41.5 35t32.5 26.5l13.5 10.5q8 0 18.5 -11.5t10.5 -20.5zM426 861q0 -3 -13 -15t-32.5 -28 t-42 -35t-42.5 -34.5t-33.5 -26t-14.5 -10.5q-10 0 -18 10t-8 19q0 4 12.5 16t32.5 29t42.5 36t42 34.5t33 26l13.5 10.5q8 0 18 -11.5t10 -20.5z" />
<glyph unicode="o&#x328;&#x30b;" d="M608 253q0 -42 -11 -80t-32 -71.5t-51 -59t-69 -40.5l-37 -12q-58 -21 -58 -89q0 -36 21.5 -60t56.5 -24q16 0 30 8.5t24.5 18.5t18 18.5t9.5 8.5q26 0 26 -28q0 -15 -11.5 -29.5t-28.5 -25.5t-36 -18t-34 -7q-28 0 -50.5 10.5t-39 28t-25.5 42t-9 52.5q0 45 26 84 q-55 1 -104.5 24t-86 60t-57.5 85.5t-21 104.5t22.5 104.5t60.5 85t88 57.5t104 21q56 0 106 -21.5t87 -58t59 -85t22 -104.5zM560 251q0 44 -18.5 84t-49.5 70.5t-72 48.5t-85 18q-45 0 -85.5 -18t-72 -48.5t-50 -70.5t-18.5 -84q0 -47 18 -87.5t48 -70t71.5 -47 t88.5 -17.5t88 17.5t71.5 47.5t48 70t17.5 87zM589 760q0 -11 -9 -20l-159 -132q-8 -6 -16 -6q-26 0 -26 26q0 10 10 19l159 133q9 5 16 5q25 0 25 -25zM423 760q0 -11 -9 -20l-159 -132q-8 -6 -16 -6q-26 0 -26 26q0 10 10 19l159 133q9 5 16 5q25 0 25 -25z" />
<glyph unicode="A&#x328;&#x301;" d="M628 1q-2 -11 -24 -17q-138 -28 -138 -110q0 -25 15 -45t40 -20q18 0 30.5 9t20.5 19.5t14 20t13 9.5q24 0 24 -22q0 -17 -9.5 -32t-23 -26.5t-31 -18t-35.5 -6.5q-23 0 -42 9.5t-33 25.5t-21.5 37t-7.5 45q0 51 40.5 89.5t107.5 55.5l-74 205h-321l-85 -229 q-4 -15 -30 -15q-21 0 -21 12q116 319 180 490t76 197q11 21 40 21q32 0 41 -22zM478 280l-136 353h-18l-134 -353h288zM520 894q0 -10 -10 -19l-159 -133q-9 -5 -16 -5q-26 0 -26 26q0 10 9 19l159 132q8 7 17 7q26 0 26 -27z" />
<glyph unicode="a&#x328;&#x301;" d="M566 21q0 -24 -22 -24q-20 0 -43.5 -12t-44.5 -29t-35.5 -38.5t-14.5 -42.5q0 -26 17 -46t42 -20q15 0 26 9t19.5 19.5t14.5 20t13 9.5q25 0 25 -22q0 -17 -9.5 -32t-23.5 -26.5t-31.5 -18t-34.5 -6.5q-23 0 -42 9.5t-33 25t-21.5 36t-7.5 43.5q0 52 44 96.5t113 65.5 l2 32q-114 -90 -229 -90q-41 0 -75.5 11t-60 31.5t-39.5 49.5t-14 64q0 87 76 131t210 44q47 0 132 -19v82q0 45 -43 72.5t-107 27.5q-14 0 -39 -6t-53 -13.5t-52.5 -14t-38.5 -6.5q-10 0 -18 7l-7 17q0 8 3 15t13.5 12.5t31 10.5t54.5 11q77 14 112 14q39 0 74.5 -10.5 t61 -29.5t40.5 -46.5t15 -59.5v-354zM519 137v108q-83 19 -159 19q-41 0 -78.5 -9t-67.5 -26t-47 -40t-17 -52q0 -51 37.5 -79t99.5 -28q118 0 232 107zM535 760q0 -11 -10 -20l-158 -132q-10 -6 -17 -6q-26 0 -26 26q0 10 10 19l159 133q8 5 16 5q26 0 26 -25z" />
<glyph unicode="I&#x328;&#x301;" d="M550 27q0 -27 -33 -27h-79q-17 0 -31 -8.5t-24.5 -22t-16 -31t-5.5 -34.5q0 -36 21 -61.5t56 -25.5q16 0 29.5 8.5t24.5 18.5t19 18.5t10 8.5q25 0 25 -28q0 -15 -11 -29.5t-27.5 -25.5t-36 -18t-35.5 -7q-28 0 -50.5 10.5t-38.5 28t-25.5 42t-9.5 52.5q0 60 39 104h-203 q-31 0 -31 28q0 23 31 23h162v582l-162 -1q-31 0 -31 28q0 23 31 23h371q31 0 31 -23q0 -27 -33 -27h-156v-582h156q33 0 33 -24zM520 894q0 -10 -10 -19l-159 -133q-9 -5 -16 -5q-26 0 -26 26q0 10 9 19l159 132q8 7 17 7q26 0 26 -27z" />
<glyph unicode="i&#x328;&#x301;" d="M573 26q0 -26 -32 -26h-92q-15 -3 -26.5 -13t-20 -23.5t-13 -29t-4.5 -29.5q0 -37 21 -62.5t57 -25.5q15 0 29 8.5t25 18.5t18.5 18.5t9.5 8.5q26 0 26 -28q0 -15 -11 -29.5t-28 -25.5t-36 -18t-35 -7q-28 0 -51 10.5t-39 28t-25.5 42t-9.5 52.5q0 61 40 104h-252 q-32 0 -32 28q0 20 32 20h185v408h-149q-32 0 -32 27q0 25 32 25h200v-460h182q31 0 31 -22zM535 760q0 -11 -10 -20l-158 -132q-10 -6 -17 -6q-26 0 -26 26q0 10 10 19l159 133q8 5 16 5q26 0 26 -25z" />
<glyph unicode="ff" d="M658 709q0 -23 -36 -27h2l-12 1h-44q-26 0 -50.5 -7.5t-43 -21t-29.5 -32t-11 -41.5v-73h191q32 0 32 -25q0 -27 -32 -27h-190v-435q0 -24 -24 -24q-25 0 -25 24v435h-190v-435q0 -24 -24 -24q-25 0 -25 24v435h-105q-34 0 -34 28q0 24 33 24h106v73q0 40 19.5 71 t52 51.5t74 28.5t86.5 2q40 -3 40 -25q0 -23 -36 -27h2l-11 1h-45q-26 0 -50.5 -7.5t-43 -21t-29.5 -32t-11 -41.5v-73h190l1 73q0 40 21 71t53.5 51.5t74.5 28.5t83 2q40 -3 40 -25z" />
<glyph unicode="fi" d="M600 669q0 -17 -14 -31.5t-32 -14.5q-47 0 -47 47q0 21 14 35t35 14q18 0 31 -15.5t13 -34.5zM590 21q0 -24 -24 -24t-24 24v435h-287v-435q0 -24 -23 -24q-24 0 -24 24v435h-106q-34 0 -34 28q0 24 33 24h107v73q0 33 13.5 60.5t37.5 48.5t56.5 32.5t69.5 11.5h47.5 t27 -1.5t13 -7.5t5.5 -16q0 -23 -36 -27h2q-1 1 -3 1h-52q-57 0 -95.5 -27.5t-38.5 -74.5v-73h335v-487z" />
<glyph unicode="fl" d="M595 21q0 -24 -24 -24q-25 0 -25 24v662h-153q-29 0 -53 -7.5t-42 -21.5t-28 -32.5t-10 -40.5v-73h191q32 0 32 -25q0 -27 -32 -27h-191v-435q0 -24 -23 -24q-25 0 -25 24v435h-105q-34 0 -34 28q0 24 33 24h106v73q0 34 14.5 62.5t39 48.5t57.5 31t71 11h201v-713z" />
<glyph unicode="ffi" d="M647 665q0 -19 -12 -35t-29 -16q-45 0 -45 52q0 20 12.5 36.5t32.5 16.5q18 0 29.5 -17.5t11.5 -36.5zM639 27q0 -30 -24 -30q-26 0 -26 30v422h-215v-422q0 -30 -26 -30t-26 30v422h-140v-422q0 -30 -25 -30q-26 0 -26 30v422h-78q-33 0 -33 34q0 29 32 29h79v66 q0 31 11 59.5t31 50t47 34t58 12.5h51q32 -6 32 -30q0 -30 -52 -31q-68 -3 -95 -24t-33 -62v-75h140l1 66q0 31 8.5 59.5t33.5 50t70 34t120 12.5h50q32 -6 32 -30q0 -31 -51 -31q-156 -4 -180 -25q-28 -24 -33 -61v-75h267v-485z" />
<glyph unicode="ffl" d="M630 27q0 -30 -29 -30q-24 0 -24 30v646h-108q-36 0 -63.5 -22.5t-31.5 -64.5v-74h138q29 0 29 -31q0 -32 -29 -32h-137v-422q0 -30 -25 -30q-23 0 -23 30v422h-163v-422q0 -30 -25 -30q-24 0 -24 30v422h-73q-32 0 -32 34q0 29 31 29h74v66q0 33 11 61.5t29.5 49.5 t43.5 33t54 12h60q29 -4 29 -30q0 -30 -49 -31q-37 -1 -61 -7t-38.5 -17t-21.5 -26.5t-10 -36.5v-74h164q1 47 1.5 74.5t4 43.5t11 27t20.5 27q42 50 85 50h182v-707z" />
<glyph horiz-adv-x="0" />
<glyph horiz-adv-x="0" />
<glyph unicode="&#x9;" horiz-adv-x="0" />
<glyph unicode="&#xa;" horiz-adv-x="0" />
<glyph unicode=" " />
<glyph unicode="!" d="M379 708v-7.5t-1 -17.5l-20 -395q-1 -33 -26 -33q-23 0 -25 33l-22 395v28q0 21 12.5 29.5t35.5 8.5q18 0 31.5 -12t14.5 -29zM400 60q0 -26 -16.5 -44t-43.5 -18h-15q-26 0 -42.5 18.5t-16.5 43.5q0 26 16.5 46t41.5 20h16q28 0 44 -19.5t16 -46.5z" />
<glyph unicode="&#x22;" d="M505 724l-27 -288q-4 -30 -26 -40q-24 0 -27 40l-28 288h108zM268 724l-29 -287q-4 -29 -27 -41q-22 0 -25 40l-25 288h106z" />
<glyph unicode="#" d="M416 437h-147l-18 -175h147zM619 238q-2 -27 -30 -27h-148l-22 -211q-4 -34 -28 -34q-22 0 -22 26q0 2 0.5 4t0.5 4l22 211h-147l-22 -211q-4 -34 -28 -34q-22 0 -22 26q0 2 0.5 4t0.5 4l22 211h-118q-30 0 -30 29q0 22 31 22h123l18 175h-142q-30 0 -30 29q0 22 31 22 h147l22 215q4 30 28 30q21 0 21 -24v-8l-22 -213h147l22 215q4 30 28 30q21 0 21 -24v-8l-22 -213h118q30 0 30 -24q0 -13 -8.5 -20t-21.5 -7h-124l-18 -175h142q30 0 30 -24z" />
<glyph unicode="$" d="M548 244q0 -73 -52 -120t-138 -60l-1 -142q0 -33 -25 -33q-22 0 -22 33l2 143q-31 0 -65.5 12t-63 32t-46.5 46t-18 53q0 33 26 33q12 0 14 -7.5t5.5 -20.5t13 -30t34.5 -36q43 -32 121 -32q36 0 67.5 9t54 26.5t35 41.5t12.5 53q0 40 -25 64.5t-63.5 40t-85.5 25.5 t-91 21q-93 37 -93 131q0 32 12.5 61.5t34.5 53t52.5 39t66.5 20.5q0 58 -1 58v-5q1 42 24 42q25 0 25 -54q0 -2 -0.5 -12t-1.5 -29q26 0 55.5 -11t54.5 -28.5t41 -39t16 -43.5q0 -34 -22 -34q-7 0 -12.5 9t-12 21t-14.5 24.5t-19 19.5q-51 33 -107 33q-65 0 -105.5 -35 t-40.5 -89q0 -37 25 -60t64 -38t86 -24t90 -20q93 -40 93 -142z" />
<glyph unicode="%" d="M401 595q0 -31 -11 -59t-30 -49.5t-45.5 -33.5t-59.5 -12q-28 0 -53 12.5t-43.5 33.5t-29.5 49t-11 58t10.5 57.5t29.5 48t45.5 33.5t56.5 13q29 0 55 -13t45 -33.5t30 -48t11 -56.5zM572 442q0 -9 -30 -22t-71.5 -27t-83.5 -26t-67 -20q-204 -66 -210 -73q-8 3 -9.5 5 t-5.5 10q4 15 16 21q423 149 445 149q12 -3 16 -17zM548 139q0 -29 -10.5 -56.5t-30 -49t-45.5 -34.5t-57 -13t-57.5 12t-45 33t-29 49t-10.5 59q0 30 10.5 57.5t29 48.5t44 33t56.5 12t57.5 -11.5t45.5 -32t30.5 -48t11.5 -59.5zM374 594q0 22 -9 43.5t-23.5 37t-34.5 25.5 t-43 10q-48 0 -77.5 -33.5t-29.5 -82.5t29.5 -83.5t77.5 -34.5q23 0 43 10t34.5 26.5t23.5 38t9 43.5zM514 138q0 49 -31 82.5t-79 33.5q-49 0 -77.5 -33.5t-28.5 -82.5q0 -24 8 -45.5t22 -38t34 -26t43 -9.5q24 0 44 9t34.5 26t22.5 38.5t8 45.5z" />
<glyph unicode="&#x26;" d="M556 318q0 -11 -9 -37t-21.5 -56t-26.5 -58t-25 -42q74 -97 74 -105q0 -26 -27 -26q-6 1 -17.5 9.5t-25.5 27.5l-37 51q-74 -81 -179 -81q-29 0 -56 10.5t-48 29t-33 44t-12 54.5t8.5 60t24 60.5t37 55.5t46.5 45q-24 29 -36.5 47.5t-19 31.5t-8 24t-1.5 28q0 25 10 51 t29 46.5t42 33.5t50 13q15 0 40.5 -8t50.5 -19.5t43.5 -24.5t18.5 -25q0 -27 -26 -27q-26 14 -51 26q-21 9 -41.5 17.5t-32.5 8.5q-16 0 -31 -8t-26 -21t-18 -30t-7 -33q0 -26 23 -59l209 -270q15 26 24.5 57.5t18 58.5t17.5 45.5t23 18.5q26 0 26 -24zM413 119l-153 200 q-95 -81 -95 -176q0 -42 30 -66.5t73 -24.5q78 0 145 67z" />
<glyph unicode="'" d="M387 734l-29 -308q-3 -41 -25 -41t-26 40l-27 309h107z" />
<glyph unicode="(" d="M461 -84q16 -6 16 -23q0 -26 -25 -26q-4 0 -11 2q-121 51 -186 162.5t-65 265.5q0 153 65 264.5t186 163.5q7 2 11 2q25 0 25 -26q0 -17 -16 -24q-106 -44 -163 -143.5t-57 -236.5t57 -236.5t163 -144.5z" />
<glyph unicode=")" d="M477 297q0 -154 -65.5 -265.5t-185.5 -162.5q-7 -2 -11 -2q-25 0 -25 26q0 17 16 23q106 45 163 144.5t57 236.5t-57 236.5t-163 143.5q-16 7 -16 24q0 26 25 26q4 0 11 -2q120 -52 185.5 -163.5t65.5 -264.5z" />
<glyph unicode="*" d="M585 520q0 -26 -26 -26h-163l116 -116q8 -7 8 -17q0 -27 -27 -27q-10 0 -17 8l-116 116v-163q0 -26 -26 -26q-25 0 -25 26v163l-116 -116q-7 -8 -18 -8q-27 0 -27 27q0 10 9 17l116 116h-164q-25 0 -25 26q0 25 25 25h164l-116 116q-9 7 -9 18q0 26 27 26q11 0 18 -8 l116 -116v164q0 25 25 25q26 0 26 -25v-164l116 116q7 8 17 8q27 0 27 -26q0 -11 -8 -18l-116 -116h163q26 0 26 -25z" />
<glyph unicode="+" d="M597 342q0 -25 -32 -25h-205v-245q0 -13 -8.5 -23t-19.5 -10q-22 0 -22 31v247h-207q-32 0 -32 25q0 26 33 26h206v243q0 32 24 32q26 0 26 -31v-244h205q32 0 32 -26z" />
<glyph unicode="," d="M416 5q0 -24 -12.5 -51t-32.5 -52.5t-44 -45.5t-46 -27l-10 24q98 67 98 127q0 18 -15 18q-5 0 -16 -3t-17 -3q-29 0 -50.5 15.5t-21.5 44.5q0 69 75 69q48 0 70 -33t22 -83z" />
<glyph unicode="-" d="M519 346q0 -26 -29 -26h-309q-31 0 -31 26q0 25 29 25h308q32 0 32 -25z" />
<glyph unicode="." d="M401 60q0 -25 -18 -43.5t-43 -18.5h-15q-26 0 -42.5 18.5t-16.5 43.5q0 26 16 46t42 20h16q25 0 43 -20t18 -46z" />
<glyph unicode="/" d="M542 769l-376 -846q-7 -16 -19 -16q-9 0 -16.5 6.5t-7.5 14.5q0 7 3 14l373 848q7 16 20 16q9 0 17 -7t8 -16t-2 -14z" />
<glyph unicode="0" d="M548 304q0 -67 -15.5 -126t-43 -102.5t-66.5 -69t-87 -25.5q-58 0 -100 29t-76 105q-14 30 -21.5 52t-11.5 43t-5 43t-1 51v123q0 69 15 128.5t42.5 103t67 68.5t88.5 25q45 0 84 -24.5t67.5 -68t45.5 -103.5t17 -130v-122zM502 311l-1 110q-1 63 -14 114.5t-35.5 88.5 t-54.5 57.5t-71 20.5q-37 0 -66.5 -22.5t-50.5 -61t-32.5 -88.5t-11.5 -103q0 -108 9 -183.5t30 -122.5t53.5 -68t77.5 -21q37 0 68 22.5t53 60.5t34 88.5t12 107.5z" />
<glyph unicode="1" d="M548 27q0 -27 -31 -27h-366q-32 0 -32 28q0 23 34 23h157v578l-148 -148q-9 -7 -16 -7q-24 0 -24 24q0 9 7 16l229 230v-693l157 -1q30 0 33 -23z" />
<glyph unicode="2" d="M558 0h-451v70l214 208q63 63 100 105t57.5 70t26 47.5t5.5 38.5q0 32 -13 61.5t-36 52t-52.5 36t-61.5 13.5q-52 0 -95.5 -27.5t-60.5 -67.5q-9 -21 -13.5 -32.5t-7.5 -17t-4.5 -6.5t-5.5 -1q-18 0 -23 4l-7 18q0 28 31 76q66 103 185 103q45 0 83 -17t66.5 -46 t44.5 -68t16 -83q0 -24 -5.5 -45.5t-24 -50.5t-55 -71t-99.5 -106q-56 -58 -110 -109.5t-108 -99.5h358q0 45 20 45q28 0 28 -54v2q-1 -5 -1 -12q0 -6 -0.5 -15t-0.5 -21z" />
<glyph unicode="3" d="M564 205q0 -47 -19.5 -87.5t-52.5 -71t-75.5 -47t-89.5 -16.5q-27 0 -65 9t-73.5 24t-60.5 32.5t-25 35.5q0 24 22 24q47 -27 74.5 -42.5t48 -23t37.5 -9.5t41 -2q39 0 73.5 13t60.5 36t41 54.5t15 68.5q0 38 -17.5 70.5t-45.5 57t-65 38.5t-76 14q-32 0 -32 21 q0 26 32 26q8 0 22.5 -1.5t20.5 -1.5q27 0 52 11.5t44 30.5t30.5 43t11.5 49q0 32 -12 57.5t-33.5 44.5t-50 29.5t-59.5 10.5q-26 0 -47 -3.5t-40 -13t-38.5 -25t-44.5 -39.5h-3q-1 -1 -4 -1q-23 0 -23 20q0 18 18 37t46.5 35.5t64.5 27t71 10.5q41 0 77.5 -14t64 -38.5 t43 -59.5t15.5 -76q0 -118 -109 -163q135 -62 135 -195z" />
<glyph unicode="4" d="M556 26q0 -26 -27 -26h-188q-17 0 -24 7t-7 21q0 11 8.5 17t22.5 6h88v153h-308v59l261 471h97v-479h50q27 0 27 -26q0 -25 -27 -25h-50v-154h50q27 0 27 -24zM429 255v428h-24l-233 -428h257z" />
<glyph unicode="5" d="M564 245q0 -56 -17.5 -103.5t-49 -83.5t-74.5 -56.5t-92 -20.5q-48 0 -89 14.5t-72 34t-48.5 39.5t-17.5 31q0 25 24 25l11.5 -8.5t27 -19.5t33 -22.5t29.5 -17.5q49 -25 100 -25q43 0 78 15.5t59.5 43t37 67t12.5 88.5q-2 83 -44.5 134.5t-116.5 51.5q-17 0 -47.5 -8 t-59.5 -16.5t-48.5 -16t-17.5 -7.5q-18 0 -18 22v328h324q27 0 27 -25l-2 -18q-8 -8 -25 -8h-280v-240q76 37 156 37q43 0 79.5 -19.5t63.5 -52t42 -75.5t15 -88z" />
<glyph unicode="6" d="M549 215q0 -46 -15 -88t-42 -74t-63 -52t-76 -20q-54 0 -97.5 28t-73.5 78.5t-47 122t-17 158.5q0 58 21.5 124.5t64 124t105.5 96t148 38.5q92 0 92 -42q0 -8 -7 -17t-15 -9l-9.5 3t-21 6.5t-24.5 6.5t-20 3q-55 0 -107.5 -27.5t-92.5 -71.5t-63.5 -101.5t-23.5 -117.5 q0 -38 3 -74q84 131 193 131q39 0 73.5 -18.5t60 -49.5t40 -72t14.5 -86zM502 216q0 37 -10.5 69.5t-29.5 57t-45 38t-57 13.5q-26 0 -48 -8.5t-44 -28t-43.5 -51t-44.5 -77.5q40 -197 173 -197q33 0 61 14t47.5 38.5t30 58t10.5 73.5z" />
<glyph unicode="7" d="M548 734q0 -80 -2 -81l-184 -627l-11 -23q-8 -4 -16 -4q-10 0 -16.5 7.5t-6.5 16.5q0 4 0.5 6.5t0.5 5.5q0 2 1 4l188 644h-333v-43q-3 -30 -24 -30q-24 0 -24 28v96h427z" />
<glyph unicode="8" d="M546 196q0 -43 -16.5 -82t-45.5 -68.5t-68 -47.5t-82 -18t-82 17.5t-68 47t-46 68.5t-17 83q0 123 119 187q-108 60 -108 166q0 41 16 78t42.5 64t63 43.5t78.5 16.5q40 0 76.5 -16t64.5 -43t44.5 -63.5t16.5 -78.5q0 -114 -107 -168q52 -27 85.5 -77.5t33.5 -108.5z M490 548q0 29 -13 57t-35 49.5t-50 35t-57 13.5q-31 0 -59 -12t-50 -32.5t-34.5 -48.5t-12.5 -59t12.5 -58t34 -47t49.5 -31t58 -11t58.5 11.5t50 31t35 46t13.5 55.5zM501 195q0 32 -14.5 62.5t-37.5 53t-53.5 36t-62.5 13.5q-33 0 -63 -13t-52.5 -35t-36.5 -51.5 t-14 -63.5q0 -35 13 -65t35.5 -52.5t53 -35.5t65.5 -13q34 0 64 13t53 35.5t36.5 52t13.5 63.5z" />
<glyph unicode="9" d="M548 355q0 -207 -139 -303q-102 -71 -200 -71q-33 0 -60 12.5t-27 34.5q0 23 21 23q3 0 13 -3t21.5 -7t22.5 -7t17 -3q58 0 109 24.5t89.5 66.5t61 98t23.5 119q0 10 -0.5 29t-1.5 48q-75 -136 -188 -136q-42 0 -77 18t-60 49.5t-39.5 74.5t-14.5 93t14 93.5t40.5 75 t61.5 49.5t79 18q54 0 97.5 -30t73.5 -82t46.5 -124.5t16.5 -159.5zM487 499q-39 203 -174 203q-31 0 -58.5 -16t-47.5 -42t-31 -59.5t-11 -70.5q0 -35 11 -68.5t30.5 -59.5t45.5 -42t58 -16q52 0 93 39t84 132z" />
<glyph unicode=":" d="M401 426q0 -25 -18.5 -44t-42.5 -19h-15q-27 0 -42.5 18t-15.5 45q0 66 57 66h16q27 0 44 -19t17 -47zM401 63q0 -26 -18 -44.5t-43 -18.5h-15q-26 0 -42.5 18.5t-16.5 44.5q0 25 16 45.5t42 20.5h16q25 0 43 -20.5t18 -45.5z" />
<glyph unicode=";" d="M403 426q0 -64 -82 -64q-23 0 -38.5 19.5t-15.5 44.5q0 28 15.5 47t42.5 19h16q26 0 44 -20.5t18 -45.5zM416 6q0 -23 -12.5 -50.5t-32.5 -53t-44 -45t-46 -26.5l-10 23q98 67 98 127q0 18 -15 18q-5 0 -16 -3t-17 -3q-29 0 -50.5 15.5t-21.5 44.5q0 69 75 69 q48 0 70 -33t22 -83z" />
<glyph unicode="&#x3c;" d="M608 621q-1 -13 -21 -26l-430 -255l430 -253q19 -10 19 -24q0 -20 -25 -25q-2 1 -6 3.5t-9 4.5l-506 294l508 295q0 2 14 8q14 0 26 -22z" />
<glyph unicode="=" d="M619 430q0 -25 -30 -25h-511q-29 0 -29 25q0 26 28 26h515q27 0 27 -26zM619 256q-2 -26 -30 -26h-511q-30 0 -30 29q0 22 31 22h510q30 0 30 -25z" />
<glyph unicode="&#x3e;" d="M608 340q-125 -74 -255 -149t-267 -152q-26 0 -26 21q0 14 20 27l432 253l-432 255q-20 13 -20 24q0 22 26 22q1 0 18 -5z" />
<glyph unicode="?" d="M536 479q0 -31 -7.5 -55t-28.5 -45.5t-57.5 -44t-95.5 -50.5v-51q1 1 1 2q-1 -27 -26 -34q-24 0 -24 32v81q56 22 93 41.5t59 38t31 38.5t9 45q0 32 -13.5 61t-35.5 50.5t-51 34t-62 12.5q-59 0 -102.5 -24.5t-48.5 -66.5q0 -9 -6 -24l-14 -10q-25 0 -26 33q0 10 14 40 q50 101 187 101q45 0 82 -15t64.5 -42t42.5 -65t15 -83zM375 51q0 -23 -16 -40t-39 -17h-14q-23 0 -38 17t-15 40t15 41t37 18h16q22 0 38 -18.5t16 -40.5z" />
<glyph unicode="@" d="M641 345q0 -112 -23 -161t-81 -49q-22 0 -41 9t-33.5 24.5t-22.5 36t-8 41.5q0 12 1 17q-41 -58 -104 -58q-55 0 -89.5 44t-34.5 112q0 30 9.5 58.5t25.5 50.5t39 35.5t50 13.5q65 0 104 -56q5 15 11.5 29.5t17.5 14.5q15 0 15 -43q0 -7 -2 -29t-3.5 -48t-3 -50.5 t-1.5 -37.5q0 -128 70 -128q66 0 66 174q0 66 -20 124.5t-56.5 102t-86 69t-107.5 25.5q-59 0 -108.5 -26t-85.5 -70.5t-55.5 -103.5t-19.5 -126q0 -64 21 -121.5t56.5 -100.5t85 -68.5t106.5 -25.5q9 0 30.5 5.5t42.5 11.5q24 7 52 16q18 0 18 -23q0 -10 -14 -19t-35 -16 t-46 -11t-47 -4q-66 0 -122.5 29t-97.5 78t-64 114.5t-23 139.5q0 73 23.5 138.5t65 114.5t97 78.5t120.5 29.5q66 0 122.5 -28t98 -77t64.5 -115t23 -141zM430 362q0 23 -7.5 44.5t-20 38.5t-32 27.5t-41.5 10.5q-42 0 -66 -34t-24 -88q0 -55 25 -87.5t65 -32.5 q22 0 41.5 10.5t32 27.5t20 38.5t7.5 44.5z" />
<glyph unicode="A" d="M629 -5q0 -4 -3.5 -6.5t-16.5 -2.5q-28 0 -32 15l-83 228h-321l-85 -229q-4 -15 -30 -15q-21 0 -21 12q0 2 256 687q7 21 40 21q32 0 41 -22l254 -682q1 -1 1 -6zM478 280l-136 353h-18l-134 -353h288z" />
<glyph unicode="B" d="M583 187q0 -40 -16 -74t-43.5 -59t-64 -39.5t-75.5 -14.5h-268q-29 0 -34 26v633q3 24 32 24h212q42 0 79 -14.5t65.5 -38.5t44.5 -56.5t16 -68.5q0 -89 -96 -144q148 -54 148 -174zM532 186q0 52 -31 84.5t-97 47.5q-50 11 -208 11q-22 0 -22 26q0 23 23 23h26 q73 0 122 7t80 22.5t43.5 41t12.5 63.5q0 26 -13 48.5t-34.5 39t-50 25t-58.5 8.5h-195v-582h249q30 0 58 10t49 28t33.5 43t12.5 54z" />
<glyph unicode="C" d="M607 131q0 -13 -26 -43q-39 -49 -98.5 -78.5t-119.5 -29.5q-63 0 -117.5 28.5t-95.5 76.5t-65 110.5t-24 129.5q0 80 20.5 149.5t57 121t88 81t114.5 29.5q117 0 200 -83q0 42 1.5 54.5t22.5 12.5q24 0 24 -33v-138q0 -11 -7.5 -21.5t-16.5 -10.5q-24 0 -24 30 q0 29 -19 54.5t-47 45t-63.5 30t-70.5 10.5q-54 0 -97.5 -24.5t-74 -67.5t-46.5 -102.5t-16 -129.5q0 -56 21.5 -110.5t56.5 -96.5t81 -68.5t95 -26.5q54 0 96.5 20.5t87.5 71.5q29 32 38 32q10 0 17 -5t7 -19z" />
<glyph unicode="D" d="M588 305q0 -59 -22.5 -114t-61.5 -97.5t-90 -68t-108 -25.5h-190q-22 0 -29 8t-7 18v495q1 73 1.5 112.5t2.5 45.5q3 11 31 11h190q59 0 110.5 -26t90 -68.5t60.5 -97.5t22 -113v-80zM538 300v92q0 48 -18.5 92.5t-50 79.5t-72.5 55.5t-86 20.5h-180v-588h89 q31 0 53.5 -0.5t37.5 -0.5q45 0 86 22t72.5 58t50 80t18.5 89z" />
<glyph unicode="E" d="M566 26q0 -26 -15 -26h-420q-30 0 -30 27v632q0 24 29 24h421q15 0 15 -24q0 -26 -15 -26h-401v-253h225q4 0 10 -6t6 -19q0 -26 -15 -26h-226v-278h401q15 -1 15 -25z" />
<glyph unicode="F" d="M554 659q0 -26 -15 -26h-377v-253h227q4 0 10 -6t6 -19q0 -26 -16 -26h-227v-308q0 -24 -24 -24t-24 24v638q0 24 31 24h394q15 0 15 -24z" />
<glyph unicode="G" d="M624 255q-3 -24 -28 -88q-73 -187 -250 -187q-63 0 -117.5 28.5t-95.5 76.5t-65 110.5t-24 129.5q0 80 20.5 149.5t57 121t88 81t114.5 29.5q117 0 199 -83q0 42 2 54.5t23 12.5q24 0 24 -33v-138q0 -11 -7.5 -21.5t-16.5 -10.5q-25 0 -25 30q0 29 -18.5 54.5t-47 45 t-64 30t-69.5 10.5q-55 0 -98.5 -24.5t-73.5 -67.5t-46.5 -102.5t-16.5 -129.5q0 -57 21 -111.5t57 -97t82 -68t97 -25.5q40 0 78 17t68.5 46.5t53 70.5t33.5 90h-172q-30 -1 -30 22q0 25 30 25h183q20 1 27 -8.5t7 -38.5z" />
<glyph unicode="H" d="M546 21q0 -24 -25 -24q-26 0 -26 24v308h-324v-308q-2 -24 -26 -24t-24 24v649q0 26 27 26q23 0 23 -26v-290h324v290q0 26 25 26q26 0 26 -26v-649z" />
<glyph unicode="I" d="M550 27q0 -27 -33 -27h-369q-31 0 -31 28q0 23 31 23h162v581h-162q-31 0 -31 28q0 23 31 23h371q31 0 31 -23q0 -28 -33 -28h-156v-581h156q33 0 33 -24z" />
<glyph unicode="J" d="M566 200q0 -46 -18.5 -86t-49.5 -69.5t-71.5 -47t-84.5 -17.5q-112 0 -176 47.5t-64 138.5q0 10 2 26t4.5 32t5 29.5t2.5 16.5q1 32 27 32q24 0 24 -29q0 -3 -2.5 -14.5t-4.5 -26.5t-4.5 -30t-2.5 -23q0 -148 194 -148q33 0 64.5 13.5t55.5 36.5t38.5 54t14.5 65v433 h-195q-32 2 -32 26t31 24h208q34 0 34 -24v-459z" />
<glyph unicode="K" d="M595 27q-2 -27 -34 -27h-91q-56 159 -86 215q-65 113 -166 149l-97 -89v-254q0 -24 -25 -24q-24 0 -24 24v649q0 25 24 25q25 0 25 -25v-330l366 342q14 15 50 15q31 0 31 -23q0 -28 -51 -28l-259 -245q49 -22 88 -58.5t69 -88.5q11 -19 33 -69t54 -134q8 0 24.5 1 t23.5 1q32 0 45 -26z" />
<glyph unicode="L" d="M554 26q0 -26 -15 -26h-393q-31 0 -31 27v643q-1 25 24 25q26 0 26 -25v-619h374q15 -1 15 -25z" />
<glyph unicode="M" d="M608 21q0 -24 -26 -24q-24 0 -24 24v612h-10l-185 -428q-7 -15 -28 -15q-22 0 -30 15l-188 428h-8v-612q0 -24 -24 -24q-26 0 -26 24v662q0 26 42 26q34 0 46 -26l187 -421l182 421q11 26 52 26q40 0 40 -26v-662z" />
<glyph unicode="N" d="M571 21q0 -7 -6.5 -13t-19.5 -6q-26 0 -38 19l-362 593v-593q0 -24 -24 -24q-25 0 -25 24v649q0 28 30 28q25 0 33 -15l361 -587v574q0 25 25 25q26 0 26 -25v-649z" />
<glyph unicode="O" d="M619 340q0 -74 -21 -139.5t-59.5 -114.5t-90.5 -77t-115 -28q-62 0 -113.5 29t-89.5 78t-59.5 114t-21.5 138q0 74 21.5 139t59 113.5t90.5 77t115 28.5q61 0 112.5 -29.5t89.5 -79.5t60 -115t22 -134zM571 340q0 64 -18 120.5t-49.5 99.5t-75 67.5t-94.5 24.5 q-52 0 -95.5 -26t-75 -69t-49 -100t-17.5 -117q0 -69 20 -125.5t53 -98t75.5 -64.5t88.5 -23q51 0 94 25.5t74.5 68.5t49.5 99t19 118z" />
<glyph unicode="P" d="M556 485q0 -48 -16.5 -85.5t-52.5 -63.5t-91.5 -40.5t-135.5 -14.5q-33 0 -49.5 0.5t-23.5 3t-7.5 7t-0.5 12.5q0 24 23 24h114q38 1 72.5 14t61.5 34t42.5 48.5t15.5 60.5q0 31 -14 58t-38 47t-56 31.5t-68 11.5h-172v-613q-1 -23 -25 -23q-25 0 -25 24v639q0 23 36 23 h181q48 0 89.5 -15t72.5 -41.5t49 -63t18 -78.5z" />
<glyph unicode="Q" d="M648 -32q0 -79 -113 -79q-32 0 -52.5 5.5t-33.5 19.5t-18.5 38t-5.5 58q-50 -30 -111 -30q-66 0 -120.5 29t-92.5 79.5t-59.5 117.5t-21.5 143q0 79 23 144.5t62.5 113t91.5 73.5t110 26q61 0 113.5 -30t91 -80t60.5 -116t22 -137q0 -97 -32 -172t-95 -129v-32 q0 -37 16.5 -56.5t48.5 -19.5q40 0 55 10t19.5 22t6.5 22.5t16 10.5q19 0 19 -31zM546 345q0 62 -18.5 119t-51 100.5t-76.5 69t-94 25.5q-52 0 -96 -25.5t-76 -69t-49.5 -100.5t-17.5 -119q0 -173 110 -260q5 37 43.5 60.5t92.5 23.5q49 0 84.5 -19t57.5 -55 q21 21 37.5 49.5t29 61.5t18.5 69t6 70zM421 66q-6 12 -17.5 22.5t-26.5 18.5t-30.5 12t-29.5 4q-19 0 -36.5 -4t-31.5 -11t-22.5 -17t-8.5 -21q0 -12 10.5 -19t25.5 -11t29.5 -6t23.5 -2q63 0 114 34z" />
<glyph unicode="R" d="M614 27q0 -29 -54 -29q-2 0 -44 3q-44 79 -76.5 129.5t-60.5 83t-56 53t-64 37.5h-91q-23 0 -23 25q0 26 23 26h70q40 0 79 11t69 30t49 46t19 57q0 28 -14.5 52t-38.5 42.5t-54.5 29t-63.5 10.5h-181v-612q0 -24 -24 -24q-25 0 -25 24v638q0 24 33 24h201q41 0 80 -15 t69 -41t48 -59.5t18 -72.5q0 -119 -168 -176q62 -43 118 -123q13 -17 35 -53.5t56 -93.5q8 0 14 1h13q44 0 44 -23z" />
<glyph unicode="S" d="M578 186q0 -47 -18 -84.5t-50.5 -65t-77.5 -42t-97 -14.5q-48 0 -92.5 14.5t-78.5 40t-54 60.5t-20 77q0 34 24 34q3 0 6 1t5.5 -4t6 -16t7.5 -35q13 -51 64.5 -86.5t138.5 -35.5q40 0 74 12.5t59.5 33.5t40.5 49.5t15 62.5q0 32 -8 55t-30.5 39.5t-64 29.5t-106.5 24 q-207 39 -207 186q0 42 16.5 77.5t46.5 60t69.5 38.5t84.5 14q39 0 78.5 -14t71 -38t50.5 -56t19 -67q0 -34 -22 -34q-14 0 -19 9l-9 41q-6 22 -21 42.5t-37.5 35.5t-50.5 24t-58 9q-37 0 -68.5 -11.5t-54 -30.5t-36 -45t-13.5 -57q0 -43 22 -68t59 -40.5t85 -25t100 -21.5 q75 -19 112.5 -67.5t37.5 -111.5z" />
<glyph unicode="T" d="M623 659q0 -26 -15 -26h-248v-612q0 -24 -26 -24q-25 0 -25 24v612h-250q-15 0 -15 25t15 25h548q12 0 16 -24z" />
<glyph unicode="U" d="M571 224q0 -51 -18 -95t-49.5 -77t-75 -52.5t-94.5 -19.5q-52 0 -95.5 19.5t-75 52.5t-49.5 77t-18 95v448q0 23 26 23q24 0 24 -25v-446q-1 -40 13 -75t39.5 -61.5t59.5 -42t75 -15.5q39 0 73 15.5t59.5 42.5t40 62.5t14.5 73.5v446q0 25 25 25q26 0 26 -25v-446z" />
<glyph unicode="V" d="M616 683q0 -1 -117 -325q-34 -90 -66.5 -178t-64.5 -179q-8 -20 -39 -20q-23 0 -30 19l-131 354q-59 160 -88 240t-29 82q0 19 29 22q9 0 13 -8l239 -639l236 639q4 11 20 11q28 0 28 -18z" />
<glyph unicode="W" d="M652 690l-75 -690q-3 -21 -35 -21q-33 0 -37 21l-167 587l-162 -587q-5 -21 -39 -21t-35 21l-87 690q0 11 20 14q21 0 23 -14l86 -632l158 554q5 20 38 20q32 0 38 -20l156 -554l74 632q1 14 23 14q13 0 17 -3.5t4 -10.5z" />
<glyph unicode="X" d="M648 27q0 -28 -39 -28q-16 0 -26 0.5t-18 5.5t-17.5 15.5t-23.5 30.5l-192 261l-236 -327q-9 -11 -19 -11t-19.5 6.5t-9.5 13.5q0 4 2 6l250 355l-210 285q-2 3 -13.5 3.5t-24.5 2t-22.5 5.5t-9.5 15q0 27 43 27q39 0 52 -11l212 -289l217 301q8 10 20 10q9 0 19 -6.5 t10 -13.5q0 -3 -3 -5l-230 -329l221 -300q1 -2 12 -2t23.5 -2t22 -6t9.5 -13z" />
<glyph unicode="Y" d="M585 675q0 -5 -104 -174q-30 -49 -59 -95t-58 -95v-290q0 -24 -25 -24t-25 24v291q-232 342 -232 356q0 9 11 18t21 9q5 0 9 -5l216 -328l203 328q1 5 11 7q10 0 21 -6.5t11 -15.5z" />
<glyph unicode="Z" d="M587 24q0 -24 -35 -24h-453q-18 0 -18 21q0 22 18 49l381 565h-361q-34 -2 -34 27q0 28 34 28h408q15 0 15 -21q0 -22 -17 -47l-379 -571h406q35 -1 35 -27z" />
<glyph unicode="[" d="M430 -155h-219v889h219q26 0 26 -25q0 -26 -26 -26h-168v-787h168q26 0 26 -26q0 -25 -26 -25z" />
<glyph unicode="\" d="M542 -58q2 -5 2 -13q0 -9 -7.5 -15.5t-16.5 -6.5q-12 0 -18 16l-376 846q-3 7 -3 14q0 9 8.5 16t18.5 7t19 -16z" />
<glyph unicode="]" d="M456 -155h-219q-26 0 -26 25q0 26 26 26h168v787h-168q-26 0 -26 26q0 25 26 25h219v-889z" />
<glyph unicode="^" d="M549 455q0 -14 -6 -18.5t-19 -4.5q-11 0 -22 13l-168 224l-168 -224q-13 -16 -21 -16q-9 0 -18 9t-9 17t216 292l204 -270q11 -14 11 -22z" />
<glyph unicode="_" d="M667 -205h-667v51h667v-51z" />
<glyph unicode="`" d="M435 636q-1 -10 -9 -19.5t-17 -9.5q-5 0 -6 3l-93 73q-41 32 -59.5 50.5t-18.5 21.5q0 9 9.5 21t18.5 12q4 -2 4 -3q35 -28 66.5 -53.5t54.5 -46t36.5 -34t13.5 -15.5z" />
<glyph unicode="a" d="M566 21q0 -24 -22 -24q-10 0 -15.5 6t-7.5 16.5t-2 23.5v27q-114 -90 -229 -90q-41 0 -75.5 11t-60 31t-39.5 49t-14 65q0 32 14 63.5t47 56.5t88 40t137 15q47 0 133 -19v82q-3 46 -45.5 73t-105.5 27q-49 0 -129 -25q-46 -15 -54 -15q-14 0 -19.5 11t-5.5 13q0 8 4 15 t15 13t31.5 11t52.5 11q39 7 66.5 10t44.5 3q40 0 75.5 -11t61 -30t40 -46t14.5 -59v-354zM520 137v108q-42 9 -81.5 14t-78.5 5q-42 0 -80 -9.5t-67 -26.5t-46 -40t-17 -51q0 -52 38 -79.5t102 -27.5q116 0 230 107z" />
<glyph unicode="b" d="M596 255q0 -55 -20 -104.5t-56 -87t-83.5 -60t-101.5 -22.5q-127 0 -214 115q0 -3 1 -19.5t1 -25.5q0 -54 -28 -54q-24 0 -24 24v701q0 23 24 23q26 0 26 -23v-315q85 114 217 114q54 0 101 -21.5t82 -57.5t55 -84.5t20 -102.5zM546 252q0 43 -16.5 83t-45 70.5t-67.5 49 t-83 18.5t-82.5 -18.5t-68 -48.5t-46 -70.5t-16.5 -83.5q0 -46 16 -86.5t45 -70.5t68 -47.5t84 -17.5t83.5 18t67.5 48t45 71t16 85z" />
<glyph unicode="c" d="M595 108q0 -20 -25.5 -42t-65 -41t-85 -32t-86.5 -13q-56 0 -103.5 21t-82 57.5t-54.5 85.5t-20 105q0 58 19 109t54 89t83 59.5t107 21.5q48 0 89.5 -11.5t72.5 -33t49 -52t18 -66.5q0 -33 -23 -33q-18 0 -19.5 14.5t-2.5 28.5t-15 32t-38.5 34t-58 27t-75.5 11 q-46 0 -85 -18t-67.5 -48t-44 -72t-15.5 -88q0 -50 15.5 -91t44.5 -70t69.5 -45t90.5 -16q52 0 99 18.5t97 56.5q16 12 24.5 19t9.5 7q24 0 24 -24z" />
<glyph unicode="d" d="M600 21q0 -24 -27 -24q-28 0 -28 52q0 10 1.5 27t1.5 21q-86 -117 -220 -117q-55 0 -103 22t-82.5 60t-54.5 87t-20 104q0 57 21 107.5t57 87.5t84 58.5t104 21.5q130 0 214 -119v313q0 23 25 23q27 0 27 -23v-701zM548 255q0 44 -17 84.5t-46 71.5t-68 49.5t-83 18.5 q-45 0 -84 -18t-68.5 -48.5t-46.5 -71.5t-17 -86q0 -47 16 -88.5t45 -71.5t67.5 -47.5t86.5 -17.5q46 0 85.5 17.5t68 47.5t45 71.5t16.5 88.5z" />
<glyph unicode="e" d="M607 108q0 -20 -27 -42t-67 -41t-85.5 -32t-84.5 -13q-60 0 -111.5 23t-90 61.5t-60 91t-21.5 111.5q0 57 21 104.5t57.5 82t85.5 54.5t105 20q47 0 90 -13t75.5 -45t51.5 -86.5t20 -138.5h-459q12 -99 75 -156.5t161 -57.5q61 0 111.5 14t91.5 59q13 15 22.5 21t13.5 7 q25 0 25 -24zM517 292q-5 36 -8.5 57.5t-9 35t-13 22t-19.5 19.5q-60 53 -142 53q-85 0 -143.5 -51t-73.5 -136h409z" />
<glyph unicode="f" d="M538 709q0 -23 -36 -27q3 1 -53 1q-57 0 -96 -28.5t-39 -73.5v-73h192q31 -1 31 -25q0 -27 -31 -27h-192v-435q2 -24 -23 -24q-24 0 -24 24v435h-106q-33 0 -33 28q0 24 32 24h107v73q0 34 15 62.5t40 49t58 31.5t69 10h56q33 -3 33 -25z" />
<glyph unicode="g" d="M608 -15q0 -36 -22.5 -65.5t-60.5 -51t-87 -33.5t-104 -12q-52 0 -101.5 12t-88 33.5t-62 51t-23.5 65.5q0 63 83 114l165 101q-30 4 -55 19t-43.5 36.5t-29 48.5t-10.5 57q0 33 13.5 62t36 51t52 34.5t63.5 12.5q60 0 98 -31q49 35 55 35q9 0 18.5 -11t9.5 -20 q0 -10 -49 -36q33 -39 33 -100q0 -66 -49 -114q-16 -17 -157 -98q14 1 24.5 1.5t17.5 0.5q51 0 100.5 -12t87.5 -34t61.5 -51.5t23.5 -65.5zM451 361q0 22 -9.5 42t-26.5 36.5t-38 26.5t-42 10q-23 0 -44 -9.5t-37.5 -25.5t-26.5 -37t-10 -43q0 -25 10 -45.5t26 -36.5 t37.5 -25t44.5 -9t44 9.5t37.5 26t25.5 37.5t9 43zM552 -3q0 22 -21.5 41.5t-54.5 34t-73 22.5t-77 8q-41 0 -78.5 -9t-66.5 -25t-46.5 -36.5t-17.5 -44.5t18.5 -45t49.5 -36t69.5 -23.5t80.5 -8.5t81 8.5t69 25t48.5 38.5t18.5 50z" />
<glyph unicode="h" d="M541 21q0 -23 -25 -23t-25 23v337q0 128 -170 128q-15 0 -27 -4t-27.5 -17t-38 -36t-54.5 -61v-347q0 -24 -23 -24t-23 24v701q-2 23 22 23t24 -23v-284q81 94 182 94q40 0 74 -12t58.5 -34t38.5 -54t14 -71v-340z" />
<glyph unicode="i" d="M376 669q0 -17 -14.5 -31t-33.5 -14q-46 0 -46 45q0 21 14.5 35t34.5 14q19 0 32 -15t13 -34zM573 26q0 -26 -32 -26h-417q-32 0 -32 28q0 20 32 20h185v408h-149q-32 0 -32 27q0 25 32 25h200v-460h182q31 0 31 -22z" />
<glyph unicode="j" d="M472 669q0 -17 -14.5 -31t-32.5 -14q-47 0 -47 45q0 21 14 35t34 14q19 0 32.5 -15t13.5 -34zM457 -34q0 -41 -14 -76.5t-39 -60.5t-60 -39t-77 -14h-37q-35 0 -35 26t32 25l47 -2q28 0 52 11.5t41.5 30.5t28 44.5t10.5 53.5v492h-108q-34 1 -34 28q0 24 34 24h159v-543z " />
<glyph unicode="k" d="M556 26q0 -18 -11 -22.5t-53 -4.5q-28 0 -74 52l-203 220l-58 -47v-203q2 -24 -21 -24q-25 0 -25 24v699q0 25 22 25q24 0 24 -23v-434l204 177q13 16 28 35t34 17l33 -1q32 -1 32 -24q0 -16 -9 -21.5t-44 -5.5l-187 -165l236 -249h43q29 -5 29 -25z" />
<glyph unicode="l" d="M574 26q0 -26 -32 -26h-417q-32 0 -32 28q0 20 32 20h182v634h-145q-32 0 -32 27q0 25 32 25h199v-686h182q31 0 31 -22z" />
<glyph unicode="m" d="M628 21q0 -24 -25 -24q-23 0 -23 24v368q0 17 -7 32t-19 27.5t-27 19t-32 6.5q-69 0 -133 -98v-355q0 -24 -26 -24q-25 0 -25 24v364q0 18 -7 33.5t-19 28t-28 20t-33 7.5q-60 0 -135 -98v-356q0 -22 -24 -22t-24 23v474q-2 24 23 24q22 0 25 -24v-39q61 66 137 66 q87 0 124 -79q64 78 148 78q24 0 48 -10.5t42 -28t29 -40t11 -48.5v-373z" />
<glyph unicode="n" d="M548 21q0 -24 -26 -24q-24 0 -24 24v330q0 28 -10.5 51t-30 39t-45 24.5t-54.5 8.5q-26 0 -44.5 -2.5t-38 -15t-43 -35.5t-61.5 -64v-336q0 -24 -25 -24q-24 0 -24 24v474q-3 24 22 24q29 0 29 -48q0 -8 -1 -22t-1 -17q26 26 48.5 43.5t45 28t46.5 15t54 4.5 q48 0 85.5 -18t69.5 -68q28 -44 28 -79v-337z" />
<glyph unicode="o" d="M608 253q0 -58 -21 -108t-58 -86.5t-87 -57.5t-107 -21q-55 0 -105.5 21.5t-88.5 58.5t-60 87t-22 107q0 56 22.5 104.5t60.5 85t88 57.5t104 21q56 0 106 -21.5t87 -58t59 -85t22 -104.5zM560 251q0 44 -18.5 84t-49 70.5t-71.5 48.5t-86 18t-85.5 -18t-72 -48.5 t-50 -70.5t-18.5 -84q0 -47 18 -87.5t48 -70t71.5 -47t88.5 -17.5t88 17.5t71.5 47.5t48 70t17.5 87z" />
<glyph unicode="p" d="M596 270q0 -54 -20 -101t-55.5 -82t-83 -54.5t-102.5 -19.5q-131 0 -214 106v-332q0 -24 -26 -24q-24 0 -24 25v706q0 25 25 25t28 -40q-1 -16 -1 -31v-32q81 106 211 106q53 0 101.5 -19t83.5 -53t56 -80t21 -100zM546 270q0 43 -17 80t-46 65t-67.5 43.5t-80.5 15.5 t-80.5 -15.5t-68 -43.5t-47 -65.5t-17.5 -81.5t16.5 -82t45.5 -65.5t67.5 -43.5t82.5 -16q42 0 80 17.5t68 46t47 66.5t17 79z" />
<glyph unicode="q" d="M596 -212q0 -25 -25 -25q-26 0 -26 25v331q-39 -52 -92.5 -79.5t-119.5 -27.5q-55 0 -102.5 19.5t-82.5 54.5t-56 82t-21 101q0 53 21.5 99.5t57.5 81t84 54t100 19.5q133 0 212 -107q0 6 -1 24t-1 29q0 50 27 50q25 0 25 -24v-707zM545 270q0 43 -16.5 80t-45 64.5 t-67.5 43t-83 15.5q-43 0 -82 -15.5t-68 -43.5t-45.5 -65.5t-16.5 -80.5q0 -44 16.5 -82t45 -65.5t67.5 -43.5t83 -16q43 0 82 16.5t68 45t45.5 66t16.5 81.5z" />
<glyph unicode="r" d="M532 443q0 -25 -24 -25q-1 0 -10 2q-51 50 -83 50q-45 0 -124 -58q-13 -9 -40 -33t-69 -61v-297q0 -24 -23 -24t-23 24v474q-1 24 22 24q24 0 24 -24v-111q51 43 84 69.5t57.5 41t45 19.5t44.5 5q15 0 36 -7t39.5 -18t31 -24.5t12.5 -26.5z" />
<glyph unicode="s" d="M563 144q0 -38 -17 -68.5t-48 -51.5t-72.5 -32t-90.5 -11q-48 0 -90.5 11t-74 31t-49 49t-17.5 64q0 32 25 32q18 0 25 -29l10 -44q7 -14 23.5 -25.5t40 -20t50.5 -13.5t55 -5q80 0 130.5 29t50.5 84q0 66 -100 93l-187 39q-99 34 -99 116q0 31 15 56t42 43t63.5 27.5 t80.5 9.5q40 0 77 -10.5t66 -28.5t47 -42.5t18 -52.5q0 -34 -25 -34q-6 0 -13 11t-14.5 26t-15.5 29.5t-15 20.5q-40 32 -121 32q-30 0 -58.5 -7t-50 -19t-34.5 -28.5t-13 -35.5q0 -28 27.5 -46t70 -31.5t93 -22.5t95.5 -19q100 -37 100 -126z" />
<glyph unicode="t" d="M516 7q0 -16 -9 -21.5t-45 -5.5q-84 0 -135.5 39.5t-51.5 110.5v326h-91q-33 0 -33 27q0 25 32 25h92v142q-1 8 7.5 20.5t15.5 12.5q27 0 27 -33v-142h159q32 0 32 -25q0 -27 -35 -27h-156v-326q0 -99 158 -99q33 0 33 -24z" />
<glyph unicode="u" d="M545 21q0 -24 -23 -24q-22 0 -26 29q0 2 1 13t2 31q-103 -90 -219 -90q-71 0 -114.5 45.5t-43.5 116.5v353q0 24 24 24q25 0 25 -24v-353q0 -49 29.5 -80t77.5 -31q120 0 220 111v353q0 24 23 24q24 0 24 -24v-474z" />
<glyph unicode="v" d="M571 506q0 -5 -211 -506q-11 -26 -26 -26q-16 0 -27 26l-211 506q0 24 27 24q15 0 23 -15l188 -445l127 301q9 20 23 56t37 88q8 15 23 15q27 0 27 -24z" />
<glyph unicode="w" d="M607 515q0 -5 -13.5 -65.5t-39.5 -180.5q-27 -126 -41.5 -193t-17.5 -76q-3 -16 -32 -16q-21 0 -26 16l-98 386l-108 -386q-6 -17 -31 -17q-26 0 -29 18l-110 514q0 12 23 12q25 0 27 -14l93 -447l95 342q5 22 39 22t39 -22l88 -342l98 446q1 11 25 11q19 0 19 -8z" />
<glyph unicode="x" d="M626 27q0 -27 -43 -27q-20 0 -41 17l-218 217l-238 -234q-5 -5 -14 -5q-29 0 -29 15q0 7 250 258l-192 193l-44 2q-8 3 -16 25q0 15 9.5 19.5t43.5 4.5q25 0 41.5 -17t31.5 -34l157 -163l207 215q7 7 18 7q32 0 32 -22q0 -15 -225 -230l216 -217q38 0 51 -12q0 -1 1 -3 q0 -2 0.5 -4t1.5 -5z" />
<glyph unicode="y" d="M604 513l-321 -690q-24 -50 -103 -50q-30 0 -30 25q0 12 4.5 16t24.5 10q10 -5 26 -5q27 0 37 22l75 159q-21 43 -53 107t-200 407q0 10 18 10q26 0 31 -11l229 -457l214 457q4 11 29 11q19 0 19 -11z" />
<glyph unicode="z" d="M579 24q0 -24 -35 -24h-430q-12 0 -12 15q0 19 12 31l351 415h-342q-35 0 -35 25q0 27 35 27h405q11 -1 11 -15q0 -19 -10 -31l-353 -416h367q36 -1 36 -27z" />
<glyph unicode="{" d="M474 -128q0 -24 -29 -24q-31 0 -60 10.5t-51.5 28t-36.5 40.5t-14 49v211q0 18 -2.5 30.5t-10 21.5t-20.5 15.5t-34 13.5q-25 7 -25 22q0 8 10 15t22 12t23.5 9.5t13.5 6.5q23 20 23 63l2 211q2 25 15.5 48.5t36.5 40.5t50.5 27.5t57.5 10.5q29 0 29 -24q0 -17 -36 -29 l-69 -26q-37 -19 -37 -48v-211q0 -63 -51 -107q51 -31 51 -103v-210q0 -29 37 -49l68 -26q37 -14 37 -29z" />
<glyph unicode="|" d="M357 701v-819q0 -34 -24 -34t-24 34v821q0 30 24 30t24 -32z" />
<glyph unicode="}" d="M476 290q0 -8 -10 -14.5t-22 -11.5t-23.5 -8.5t-13.5 -4.5q-23 -20 -23 -64v-211q0 -26 -14 -49t-36.5 -40.5t-51.5 -28t-60 -10.5q-29 0 -29 24q0 15 37 29l68 26q37 20 37 49v210q0 72 51 103q-51 44 -51 107v211q0 29 -37 48l-69 26q-36 12 -36 29q0 24 29 24 t57 -10.5t51 -27.5t36.5 -40.5t15.5 -48.5l2 -211q0 -18 2.5 -30.5t9.5 -22t20 -16t35 -13.5q25 -7 25 -24z" />
<glyph unicode="~" d="M568 351q0 -13 -16 -35.5t-40.5 -42t-52 -34t-51.5 -14.5q-41 0 -86 62q-47 64 -78 64q-18 0 -38 -15.5t-38 -34.5t-30.5 -34.5t-13.5 -15.5q-25 0 -25 24q0 14 15.5 35t40 40.5t52 33.5t52.5 14q40 0 83 -62q43 -63 79 -63q17 0 38 16t39.5 35t31.5 35.5l13 16.5 q25 0 25 -25z" />
<glyph unicode="&#xa0;" />
<glyph unicode="&#xa1;" d="M400 459q-2 -65 -58 -65h-15q-27 0 -43.5 19.5t-16.5 44.5q0 28 16 46t43 18h16q58 0 58 -63zM380 -189q0 -17 -13.5 -29t-32.5 -12q-17 0 -32 13t-15 30v6.5t1 16.5l21 398q1 33 25 33q22 0 24 -33l22 -398v-25z" />
<glyph unicode="&#xa2;" d="M538 238q0 -13 -16.5 -27t-42 -26t-55.5 -20t-55 -11v-120q0 -34 -26 -34q-23 0 -23 34l2 118q-42 6 -78 26t-61.5 50.5t-39.5 68.5t-14 81q0 173 191 225v143q0 34 25 34q24 0 24 -33l-1 -145q28 0 57.5 -10.5t53.5 -28t40 -40t16 -47.5q0 -34 -22 -34q-6 0 -13.5 11.5 t-15.5 26.5t-17 30t-17 21q-34 25 -94 25q-39 0 -72 -13t-57.5 -36.5t-38 -56t-13.5 -72.5q0 -38 13.5 -71t36.5 -56.5t56 -36.5t72 -13q24 0 52.5 8.5t53 19.5t41 21t16.5 12h-1q23 0 23 -24z" />
<glyph unicode="&#xa3;" d="M599 114q0 -24 -8.5 -44t-21.5 -35.5t-31 -25t-37 -9.5h-372q-34 0 -34 27q0 9 10 15.5t22 11t24.5 8.5t15.5 9q12 13 23 36t19 50t13 55t5 50v18t-1 17h-129q-29 0 -29 25q0 26 28 26h122l-8 36q-35 108 -35 150q0 32 14 63t37 54.5t53 37.5t62 14q28 0 54.5 -12t48 -29 t34.5 -34t13 -26q0 -23 -24 -23l-11 11.5t-29.5 25t-40.5 25t-43 11.5q-24 0 -46 -10t-37.5 -27.5t-25 -40t-9.5 -46.5v-23q0 -14 34 -122q4 -18 7 -35h110q28 0 28 -26q0 -25 -30 -25h-103q4 -23 4 -42q0 -130 -70 -204h291q13 0 21 2t13.5 8.5t9.5 20t10 36.5q6 24 23 24 q9 0 17.5 -9.5t8.5 -18.5z" />
<glyph unicode="&#xa4;" d="M560 143q0 -27 -25 -27q-11 0 -42 35l-41 45q-51 -39 -118 -39q-64 0 -117 38q-23 -27 -77 -77q-1 -1 -2 -1t-2 -0.5t-4 -0.5q-25 0 -25 26q0 11 77 89q-40 60 -40 129q0 55 37 120q-74 74 -74 90q0 8 8 16.5t16 8.5q12 0 84 -82q49 43 118 43q70 0 119 -43q70 82 83 82 q25 0 25 -25q0 -6 -3.5 -13.5t-12 -17.5t-22.5 -24.5t-36 -34.5q38 -62 38 -126q0 -59 -39 -122q75 -75 75 -89zM480 356q0 31 -11.5 58.5t-32 48t-47 32.5t-56.5 12q-31 0 -57.5 -12t-45.5 -33.5t-30 -50t-11 -60.5q0 -30 13 -57t33.5 -47.5t48 -32.5t57.5 -12q29 0 54 14 t44 36t30 49t11 55z" />
<glyph unicode="&#xa5;" d="M585 675q0 -2 -42.5 -72.5t-124.5 -203.5h87q27 0 27 -25q0 -26 -30 -26h-116l-22 -37v-14h141q27 0 27 -26q0 -25 -30 -25h-138v-225q0 -24 -25 -24t-25 24l2 225h-145q-29 0 -29 25q0 26 27 26h147v15l-25 36h-120q-29 0 -29 26q0 25 27 25h87q-174 258 -174 269 q0 9 11 18t21 9q5 0 9 -5l216 -328l203 328q1 5 11 7q10 0 21 -6.5t11 -15.5z" />
<glyph unicode="&#xa6;" d="M358 665l-1 -218q0 -43 -4 -56t-20 -13q-11 0 -23 16v26q-1 9 -1 15v10v220v-1q2 0 1 10t-1 23.5t4 24t15 10.5q15 0 22 -8t9 -18.5t0.5 -22t-1.5 -18.5zM358 137l-1 -262q-4 -26 -24 -26q-14 0 -23 16v26q-1 9 -1 15.5v11.5v218q0 40 1.5 54.5t22.5 14.5q15 0 20 -14.5 t5 -53.5z" />
<glyph unicode="&#xa7;" d="M559 79q0 -36 -16 -65t-46 -50t-71.5 -32t-91.5 -11t-91.5 10.5t-72 29.5t-47 47t-16.5 63q0 33 24 33q9 0 16 -11.5t11 -25.5t6 -25t2 -10q8 -13 25.5 -25t40.5 -20.5t50 -13t53 -4.5q36 0 68.5 7.5t56.5 22t38 34.5t14 45q0 22 -9.5 40t-31.5 31t-58 23.5t-89 17.5 q-50 7 -79 13t-46 14.5t-26 21.5t-20 32q-13 21 -18 42.5t-5 41.5q0 100 79 138q-33 14 -56 44.5t-23 66.5q0 31 15 55.5t42.5 42.5t64 28t77.5 10q39 0 75.5 -10.5t65 -28t45.5 -41.5t17 -52q0 -35 -23 -35q-7 0 -12 10t-11.5 24t-14 28.5t-17.5 22.5q-45 33 -122 33 q-32 0 -59.5 -7t-49 -18.5t-34 -28t-12.5 -35.5q0 -24 12 -39t42.5 -26.5t84 -20t136.5 -20.5q14 -2 32.5 -14t35 -31t28 -43t11.5 -48q0 -49 -31.5 -88t-77.5 -56h2q107 -44 107 -137zM514 360q0 23 -15.5 42.5t-40.5 34t-57.5 22.5t-66.5 8q-83 0 -120 -27.5t-37 -89.5 q0 -48 44.5 -75t118.5 -27q35 0 66 7.5t55 22t38.5 35t14.5 47.5z" />
<glyph unicode="&#xa8;" d="M500 669q0 -17 -14.5 -31t-33.5 -14q-46 0 -46 45q0 21 14 35t34 14q19 0 32.5 -15t13.5 -34zM260 670q0 -46 -52 -46q-41 0 -41 52q0 44 46 44t46 -50h1z" />
<glyph unicode="&#xa9;" d="M643 345q0 -75 -23.5 -140.5t-65 -114.5t-98.5 -77.5t-123 -28.5t-122.5 29t-97.5 79t-65 114.5t-24 138.5q0 73 24 138.5t65 114.5t97.5 78.5t122.5 29.5t123 -29t98 -78.5t65 -115t24 -138.5zM609 345q0 63 -21.5 121t-58.5 102t-87 71t-108 27q-59 0 -109.5 -27 t-87.5 -71.5t-58 -103.5t-21 -125q0 -64 21.5 -121t58.5 -100t87 -68.5t108 -25.5q57 0 107.5 26.5t87.5 70t58.5 101.5t21.5 123h1zM463 238q0 -14 -14 -28t-34.5 -26t-42 -19.5t-36.5 -7.5q-32 0 -60.5 15t-50 39t-34 56t-12.5 67q0 40 10.5 75.5t29 62.5t45 42.5 t60.5 15.5q58 0 94 -32q0 25 17 25q20 0 20 -22v-71q0 -22 -18 -22q-9 0 -14 5t-5 10q0 2 2 6q0 13 -8.5 24.5t-22.5 21t-31 15t-33 5.5q-54 0 -83.5 -45t-29.5 -111q0 -26 10 -52t27 -47t39 -33.5t46 -12.5q21 0 40.5 9.5t35 20.5t24.5 21t10 10q7 0 12.5 -3t5.5 -14h1z " />
<glyph unicode="&#xaa;" d="M479 430q0 -21 -21 -21q-20 0 -20 36q0 4 1 7.5t1 6.5q-75 -60 -158 -60q-64 0 -99.5 31.5t-35.5 83.5q0 123 202 123q36 0 91 -12l-2 52q-1 32 -29.5 50t-70.5 18q-11 0 -32 -5t-41.5 -10t-37.5 -9t-19 -4q-4 0 -15 8l-5 12q0 8 16 16.5t40 15t50.5 10.5t46.5 4 q28 0 53.5 -7.5t44 -21.5t29.5 -33.5t11 -43.5v-247zM520 346q0 -26 -29 -26h-309q-31 0 -31 26q0 25 29 25h308q32 0 32 -25zM440 515v70q-49 12 -109 12q-29 0 -55.5 -6t-46 -17t-31 -27.5t-11.5 -34.5q0 -72 93 -72q84 0 160 75z" />
<glyph unicode="&#xab;" d="M612 27q0 -27 -24 -27q-10 0 -25 15l-251 240l249 239q16 14 26 14q23 0 23 -24q-2 -14 -11 -26l-199 -203l197 -204q15 -15 15 -24zM350 26q0 -27 -24 -27q-10 0 -26 15l-245 240l244 239q14 14 26 14q25 0 25 -24q0 -10 -11 -26l-197 -203l196 -204q11 -12 11 -24h1z " />
<glyph unicode="&#xac;" d="M643 70q-3 -20 -11.5 -24.5t-10.5 -4.5q-27 0 -27 29v247l-537 1q-5 0 -9 1h-10q-14 12 -14 24q0 25 32 25h587v-298z" />
<glyph unicode="&#xad;" d="M519 346q0 -26 -29 -26h-309q-31 0 -31 26q0 25 29 25h308q32 0 32 -25z" />
<glyph unicode="&#xae;" d="M643 346q0 -75 -23.5 -140.5t-65 -114.5t-98.5 -77.5t-123 -28.5t-122.5 29t-97.5 79t-65 115t-24 138t24 138.5t65 114.5t97.5 79t122.5 30t123 -29t98 -79t65 -115.5t24 -138.5zM609 346q0 63 -21.5 121t-58.5 102.5t-87 71t-108 26.5q-59 0 -109.5 -26.5t-87.5 -71.5 t-58 -104t-21 -125q0 -64 21.5 -121t58.5 -99.5t87 -68t108 -25.5q57 0 107.5 26t87.5 69.5t58.5 101.5t21.5 123h1zM506 183q0 -19 -42 -19h-17q-27 44 -42.5 70t-28 41t-24.5 23t-31 19q-43 0 -43 -1h5q-24 1 -24 18q0 19 16 19q137 0 137 66q0 14 -7 25.5t-18.5 20 t-25.5 13.5t-28 5h-85v-303q0 -18 -17 -18q-20 0 -20 17l2 321q0 19 20 19l101 -2q21 0 41.5 -8t36.5 -22t26.5 -32t10.5 -39q0 -59 -78 -88q43 -35 94 -127q40 0 40 -18h1z" />
<glyph unicode="&#xaf;" d="M519 652q0 -23 -29 -23l-310 -1q-32 0 -32 24q0 25 29 25h309q33 0 33 -25z" />
<glyph unicode="&#xb0;" d="M433 694q0 -44 -27.5 -75t-72.5 -31q-21 0 -39 9t-32 23.5t-21.5 33.5t-7.5 40t9 40t23.5 33.5t33.5 23t40 8.5q19 0 36 -9t30 -23.5t20.5 -34t7.5 -38.5zM401 698q0 27 -21.5 45.5t-47.5 18.5q-30 0 -46.5 -17.5t-16.5 -50.5q0 -34 17 -52t50 -18t49 21.5t16 52.5z" />
<glyph unicode="&#xb1;" d="M596 418q0 -22 -32 -22h-206v-245q0 -34 -26 -34q-23 0 -23 34v245h-206q-33 0 -33 23q0 24 33 24h206v246q0 22 24 35q25 0 25 -35v-246h206q33 0 32 -25zM577 26q0 -26 -29 -26h-425q-33 0 -33 26q0 25 29 25h425q31 0 31 -25h2z" />
<glyph unicode="&#xb2;" d="M452 458h-237v43l109 107q30 31 48.5 52t28.5 35t13.5 23t3.5 16q0 14 -6.5 28t-17 24.5t-24.5 17t-29 6.5q-61 0 -79 -59q0 -7 -5.5 -12.5t-11.5 -5.5q-8 0 -13 5l-6 11q0 21 11 38.5t28 30.5t36.5 20.5t38.5 7.5q46 0 78 -32t32 -81q0 -15 -7.5 -33.5t-28.5 -45 t-58.5 -65t-96.5 -91.5l159 -3q0 25 15 25q19 0 19 -62z" />
<glyph unicode="&#xb3;" d="M455 567q0 -24 -10 -46t-27.5 -38t-40 -25t-46.5 -9t-45.5 6.5t-37.5 15.5t-26 18.5t-10 16.5q0 18 17 18q0 -2 10 -8t25.5 -13t33.5 -12t31 -5q36 0 63.5 22.5t27.5 57.5q0 17 -8 33t-21.5 27t-31 17.5t-35.5 6.5q-24 0 -24 16q0 18 19 18q12 -1 17.5 -1h6.5 q25 0 45 19.5t20 42.5q0 29 -21.5 47t-50.5 18q-41 0 -82 -41h-6q-18 0 -18 16q0 10 8.5 20t23.5 19.5t34.5 15.5t38.5 6q45 0 76 -28t31 -72q0 -57 -48 -81q61 -35 61 -98z" />
<glyph unicode="&#xb4;" d="M438 760q0 -11 -9 -20l-159 -132q-9 -6 -16 -6q-25 0 -25 26q0 10 9 19l159 133q9 5 16 5q25 0 25 -25z" />
<glyph unicode="&#xb5;" d="M545 21q0 -24 -23 -24q-22 0 -26 29q0 2 1 13t2 31q-103 -90 -219 -90q-69 0 -109 41v-233q0 -25 -25 -25q-24 0 -24 25v707q0 24 24 24q25 0 25 -24v-353q0 -49 29.5 -80t77.5 -31q120 0 220 111v353q0 24 23 24q24 0 24 -24v-474z" />
<glyph unicode="&#xb6;" d="M557 21q0 -24 -23 -24q-25 0 -25 24v612h-79v-305h37q23 -3 23 -23t-21 -24h-37v-260q0 -24 -26 -24q-27 0 -27 24v261q-19 1 -46 3t-60 6q-163 51 -163 194q0 42 17.5 78.5t48 63t72.5 41.5t91 15h181q37 0 37 -23v-639zM379 633h-44q-36 0 -68 -11.5t-56 -31.5t-38 -47 t-14 -58t15.5 -59.5t42.5 -50t61.5 -34.5t72.5 -13h28v305z" />
<glyph unicode="&#xb7;" d="M401 426q0 -25 -18.5 -44t-42.5 -19h-15q-27 0 -43 18.5t-16 44.5q0 66 56 66h17q28 0 45 -19t17 -47z" />
<glyph unicode="&#xb8;" d="M423 -166q0 -30 -23 -48t-60 -18q-13 0 -30 3.5t-32 10t-24.5 14t-9.5 16.5t4 14l14 3q2 0 11.5 -4t21.5 -8.5t25 -8.5t23 -4q17 0 32 9.5t15 22.5q0 16 -17.5 23.5t-48.5 7.5l1 89q0 6 1.5 15.5t14.5 9.5t16 -13.5t3 -30.5q0 -8 -1 -17t-2 -19q28 -2 47 -20.5t19 -46.5z " />
<glyph unicode="&#xb9;" d="M436 477q0 -19 -20 -19h-174q-20 0 -20 19q0 17 22 17h68v261l-60 -61q-6 -6 -12 -6q-17 0 -17 17q0 6 6 12l118 121v-344h68q19 -2 21 -17z" />
<glyph unicode="&#xba;" d="M527 609q0 -41 -14.5 -76t-40 -62t-61 -42t-78.5 -15q-40 0 -75 15.5t-61 42t-42 61.5t-16 75q0 39 16 74.5t42.5 61.5t62 41t73.5 15q39 0 74.5 -15t62 -40.5t42 -61t15.5 -74.5zM519 346q0 -26 -29 -26h-309q-31 0 -31 26q0 25 29 25h308q32 0 32 -25zM491 608 q0 30 -13 57.5t-34.5 47.5t-49 32t-59.5 12q-31 0 -59 -11.5t-50 -31.5t-34.5 -47.5t-12.5 -58.5q0 -33 12 -60.5t33.5 -48.5t50 -33t60.5 -12t60 12t49.5 33.5t34 49.5t12.5 59z" />
<glyph unicode="&#xbb;" d="M614 255l-250 -241q-17 -14 -25 -14q-23 0 -23 27q1 14 10 24l197 204l-196 203q-14 14 -14 26q0 24 25 24q9 0 25 -14zM351 255l-250 -241q-17 -14 -24 -14q-5 0 -11.5 2.5t-12.5 24.5q0 11 11 24l200 204l-198 203q-11 12 -11 26q0 24 22 24q7 0 23 -14z" />
<glyph unicode="&#xbc;" d="M345 498q0 -19 -20 -19h-174q-21 0 -21 19q0 17 22 17h68v261l-60 -61q-6 -6 -12 -6q-17 0 -17 17q0 6 6 12l118 120v-343h69q18 -2 21 -17zM572 488q-1 -15 -19 -18q-74 -27 -184 -64.5t-259 -87.5l-11 4l-4 12q4 15 16 21q419 148 445 151q12 -4 16 -18zM539 9 q0 -24 -24 -24h-87q-24 0 -24 23q0 19 24 21l-2 -1h39v60h-156v41l133 241h64v-240q33 0 33 -20q0 -22 -32 -22l-1 -60q33 0 33 -19zM465 130v195l-108 -195h108z" />
<glyph unicode="&#xbd;" d="M336 498q0 -19 -19 -19h-174q-21 0 -21 19q0 17 22 17h68v261l-60 -61q-6 -6 -12 -6q-17 0 -17 17q0 6 6 12l118 120v-343h69q18 -2 20 -17zM564 488q-3 -14 -19 -19l-429 -149q-12 -2 -14 -2l-12 4l-3 12q1 15 16 21q421 148 445 151q10 -4 16 -18zM581 -13h-242l-3 49 q56 51 93.5 88t61.5 64t34.5 44t12.5 28v8q0 28 -22.5 50.5t-50.5 22.5q-25 0 -48.5 -17.5t-30.5 -41.5l-4 -13q-6 -5 -13 -5q-13 0 -19 17q0 21 9.5 39t24.5 31.5t35.5 21t43.5 7.5q22 0 43 -9t37 -24t26.5 -35t10.5 -42q0 -14 -6 -30.5t-26 -42.5t-58 -65t-101 -100 l149 -2q0 26 21 26q22 -1 22 -24v-45z" />
<glyph unicode="&#xbe;" d="M339 601q0 -24 -10.5 -46.5t-28 -39.5t-40.5 -27t-48 -10q-14 0 -34.5 5t-40 14t-32.5 19.5t-13 20.5q0 21 17 21q20 -12 39 -21q17 -8 35.5 -14t33.5 -6q32 0 56 25t24 58q0 9 -5 21t-15 23t-25 19.5t-34 11.5q-39 7 -39 26q0 16 17 18q-1 0 6.5 -0.5t23.5 -0.5 q25 0 43 18.5t18 44.5q0 59 -82 59q-9 0 -21.5 -7t-25 -14.5t-21 -14t-8.5 -5.5q-20 0 -20 19q0 11 11 22t27.5 20t35.5 14t36 5q44 0 75 -28.5t31 -73.5q0 -47 -45 -80q59 -42 59 -96zM575 488q-2 -15 -18 -19l-429 -149q-12 -2 -14 -2l-12 4l-3 12q3 15 16 21 q419 148 444 151q13 -4 16 -18zM539 9q0 -24 -24 -24h-87q-24 0 -24 23q0 19 24 21l-2 -1h39v60h-156v41l133 241h64v-240q33 0 33 -20q0 -22 -32 -22l-1 -60q33 0 33 -19zM465 130v195l-108 -195h108z" />
<glyph unicode="&#xbf;" d="M416 473q0 -23 -15.5 -41t-38.5 -18h-14q-26 0 -39.5 18.5t-13.5 45.5q0 23 12.5 36.5t39.5 15.5l15 1h5q22 0 35.5 -17.5t13.5 -40.5zM536 -17q0 -13 -14 -42q-48 -100 -187 -100q-45 0 -82.5 15t-64.5 43t-42 65.5t-15 83.5q0 31 8 54.5t29 46t57.5 44.5t94.5 48 q0 51 -1 51v-2q1 26 26 35q24 0 24 -34v-81q-55 -21 -91.5 -39.5t-58 -37t-30.5 -39t-9 -44.5q0 -34 12.5 -62.5t34 -50.5t50.5 -34t62 -12q59 0 102.5 24.5t48.5 65.5l6 25q6 8 16 9q24 0 24 -32z" />
<glyph unicode="&#xc0;" d="M360 763q0 -26 -26 -26q-8 0 -17 5l-159 133q-10 9 -10 19q0 27 26 27q8 0 17 -7l159 -132q10 -9 10 -19zM630 -5q0 -9 -21 -9q-28 0 -32 15l-83 228h-321l-84 -229q-4 -15 -30 -15q-21 0 -21 10q0 6 30.5 86.5t89.5 242.5q109 297 135 362q9 20 41 20q30 0 40 -23 l255 -683q0 -3 1 -5zM477 278l-136 354h-17l-134 -354h287z" />
<glyph unicode="&#xc1;" d="M520 894q0 -10 -10 -19l-159 -133q-9 -5 -16 -5q-26 0 -26 26q0 10 9 19l159 132q8 7 17 7q26 0 26 -27zM629 -5q0 -4 -3.5 -6.5t-16.5 -2.5q-28 0 -32 15l-83 228h-321l-85 -229q-4 -15 -30 -15q-21 0 -21 12q0 2 256 687q7 21 40 21q32 0 41 -22l254 -682q1 -1 1 -6z M478 280l-136 353h-18l-134 -353h288z" />
<glyph unicode="&#xc2;" d="M503 778q-2 -24 -23 -24q-16 0 -142 108q-26 -23 -50.5 -43t-44 -34.5t-32.5 -23t-16 -8.5q-8 0 -16 8.5t-8 18.5q0 12 15 24l152 122q74 -58 163 -136q0 -1 1 -5.5t1 -6.5zM629 -3q0 -5 -3.5 -7.5t-16.5 -2.5q-28 0 -32 15l-83 228h-321l-85 -229q-4 -15 -30 -15 q-21 0 -21 12q0 2 256 688q7 20 40 20q32 0 41 -22l254 -682q1 -1 1 -5zM478 281l-136 354h-18l-134 -354h288z" />
<glyph unicode="&#xc3;" d="M629 -5q0 -4 -3.5 -6.5t-16.5 -2.5q-28 0 -32 15l-83 228h-321l-85 -229q-4 -15 -30 -15q-21 0 -21 12q0 2 256 687q7 21 40 21q32 0 41 -22l254 -682q1 -1 1 -6zM478 280l-136 353h-18l-134 -353h288zM513 841q0 -15 -11.5 -36t-29 -40t-39 -32.5t-40.5 -13.5 q-33 0 -68 58q-37 63 -62 63q-15 0 -28 -14.5t-24 -32.5t-19.5 -32.5t-12.5 -14.5q-25 0 -25 22q0 14 11 34t28.5 38t38.5 31t41 13q33 0 67 -58q35 -62 60 -62q16 0 30.5 13.5t28.5 43.5q19 43 29 43q25 0 25 -23z" />
<glyph unicode="&#xc4;" d="M515 817q0 -20 -14 -33.5t-34 -13.5q-19 0 -32.5 14t-13.5 35q0 20 14.5 33t35.5 13q20 0 32 -14.5t12 -33.5zM275 815q0 -46 -50 -46q-39 0 -39 57q0 38 43 38q46 0 46 -49zM629 -6q0 -4 -3.5 -6.5t-16.5 -2.5q-28 0 -32 15l-83 227h-321l-85 -228q-4 -15 -30 -15 q-21 0 -21 11q0 3 256 688q7 21 40 21q32 0 41 -22l254 -682q1 -1 1 -6zM478 278l-136 354h-18l-134 -354h288z" />
<glyph unicode="&#xc5;" d="M435 834q0 -46 -26 -75t-73 -29q-46 0 -73.5 29.5t-27.5 78.5q0 18 9 36t23.5 32t32 22.5t34.5 8.5q44 0 72.5 -29.5t28.5 -73.5zM629 -5q0 -4 -3.5 -6.5t-16.5 -2.5q-28 0 -32 15l-83 228h-321l-85 -229q-4 -15 -30 -15q-21 0 -21 12q0 2 256 687q7 21 40 21 q32 0 41 -22l254 -682q1 -1 1 -6zM407 834q0 13 -5.5 25t-15.5 21.5t-23 15t-27 5.5q-27 0 -45 -19t-18 -48q0 -37 16.5 -53.5t50.5 -16.5q29 0 48 21t19 49zM478 280l-136 353h-18l-134 -353h288z" />
<glyph unicode="&#xc6;" d="M633 26q0 -26 -15 -26h-269q-32 0 -32 27v203h-171l-60 -220q-5 -15 -30 -15q-22 0 -22 13q2 0 179 676l404 -1q5 0 10.5 -5.5t5.5 -18.5q0 -26 -15 -26h-253v-253h147q12 0 12 -17q0 -32 -12 -32h-147v-280l252 -1q13 0 16 -24zM317 280v353h-62l-96 -353h158z" />
<glyph unicode="&#xc7;" d="M607 131q0 -13 -26 -43q-39 -49 -98.5 -78.5t-119.5 -29.5q-63 0 -117.5 28.5t-95.5 76.5t-65 110.5t-24 129.5q0 80 20.5 149.5t57 121t88 81t114.5 29.5q117 0 200 -83q0 42 1.5 54.5t22.5 12.5q24 0 24 -33v-138q0 -11 -7.5 -21.5t-16.5 -10.5q-24 0 -24 30 q0 29 -19 54.5t-47 45t-63.5 30t-70.5 10.5q-54 0 -97.5 -24.5t-74 -67.5t-46.5 -102.5t-16 -129.5q0 -56 21.5 -110.5t56.5 -96.5t81 -68.5t95 -26.5q54 0 96.5 20.5t87.5 71.5q29 32 38 32q10 0 17 -5t7 -19zM442 -173q0 -32 -25 -49.5t-57 -17.5q-13 0 -30 3.5t-31.5 10 t-24.5 14.5t-10 17q0 8 4 14l14 5l39 -18q22 -10 43 -10q14 0 29.5 10t15.5 23q0 16 -17 22.5t-49 6.5v91q0 24 18 24q13 0 15.5 -13t2.5 -35v-14.5t-1 -17.5q64 -4 64 -66z" />
<glyph unicode="&#xc8;" d="M360 763q0 -26 -26 -26q-8 0 -17 5l-159 133q-10 9 -10 19q0 27 26 27q8 0 17 -7l159 -132q10 -9 10 -19zM567 26h-1q0 -26 -14 -26h-421q-31 0 -31 27v633q0 24 29 24h422q15 0 15 -25q0 -26 -15 -26h-403v-253h227q16 0 16 -25q0 -24 -15 -24l-228 -2v-278h403 q16 0 16 -25z" />
<glyph unicode="&#xc9;" d="M520 894q0 -10 -10 -19l-159 -133q-9 -5 -16 -5q-26 0 -26 26q0 10 9 19l159 132q8 7 17 7q14 0 19.5 -7t6.5 -20zM566 26q0 -26 -15 -26h-420q-30 0 -30 27v632q0 24 29 24h421q15 0 15 -24q0 -26 -15 -26h-401v-253h225q4 0 10 -6t6 -19q0 -26 -15 -26h-226v-278 l401 -1q15 0 15 -24z" />
<glyph unicode="&#xca;" d="M501 776q0 -25 -25 -25q-10 0 -72 52l-70 58l-70 -58q-19 -17 -38.5 -30t-35.5 -22q-10 0 -16 8t-6 17q0 13 14 26l152 120q71 -52 166 -134q0 -3 1 -6v-6zM566 27q0 -26 -15 -26h-420q-30 0 -30 27v632q0 24 29 24h421q15 0 15 -24q0 -25 -15 -25h-401v-253h225 q4 0 10 -6.5t6 -19.5q0 -25 -15 -25h-226v-279l401 -1q15 0 15 -24z" />
<glyph unicode="&#xcb;" d="M501 824q0 -20 -14.5 -34t-34.5 -14q-19 0 -32 14t-13 34q0 19 13.5 32.5t33.5 13.5q47 0 47 -46zM261 824q0 -48 -50 -48q-42 0 -42 51q0 19 13.5 31.5t33.5 12.5q45 0 45 -47zM566 24q0 -25 -15 -25h-420q-30 0 -30 27v632q0 24 29 24h421q15 0 15 -24q0 -26 -15 -26 h-401v-253h225q4 0 10 -6t6 -19q0 -26 -15 -26h-226v-278l401 -1q15 0 15 -25z" />
<glyph unicode="&#xcc;" d="M360 763q0 -26 -26 -26q-8 0 -17 5l-159 133q-10 9 -10 19q0 27 26 27q8 0 17 -7l159 -132q10 -9 10 -19zM551 27q0 -27 -32 -27h-371q-32 0 -32 26q0 24 30 24l164 1v582h-162q-32 0 -32 28q0 23 30 23h371q33 0 33 -26q0 -25 -30 -25h-160v-582h157q34 0 34 -24z" />
<glyph unicode="&#xcd;" d="M520 894q0 -10 -10 -19l-159 -133q-9 -5 -16 -5q-26 0 -26 26q0 10 9 19l159 132q8 7 17 7q23 0 26 -27zM550 27q0 -27 -33 -27h-369q-31 0 -31 28q0 23 31 23h162v582l-162 -1q-31 0 -31 28q0 23 31 23h371q31 0 31 -23q0 -27 -33 -27h-156v-582h156q33 0 33 -24z" />
<glyph unicode="&#xce;" d="M500 776q0 -25 -26 -25q-9 0 -71 52l-70 58l-70 -58q-19 -17 -38.5 -30t-35.5 -22q-10 0 -16 8t-6 17q0 13 14 26l152 120q71 -52 166 -134q0 -3 1 -6v-6zM550 28q0 -27 -33 -27h-369q-31 0 -31 28q0 23 31 23h162v583l-162 -2q-31 0 -31 28q0 23 31 23h371q31 0 31 -23 q0 -26 -33 -26h-156v-583h156q33 0 33 -24z" />
<glyph unicode="&#xcf;" d="M495 824q0 -20 -14.5 -33.5t-33.5 -13.5q-44 0 -44 48q0 19 13.5 33t33.5 14t32.5 -14.5t12.5 -33.5zM255 822q0 -46 -50 -46q-40 0 -40 57q0 37 45 37t45 -48zM550 26q0 -27 -33 -27h-369q-31 0 -31 28q0 23 31 23h162v582l-162 -1q-31 0 -31 28q0 23 31 23h371 q31 0 31 -23q0 -27 -33 -27h-156v-582h156q33 0 33 -24z" />
<glyph unicode="&#xd0;" d="M621 305q0 -58 -22 -112.5t-60.5 -97.5t-89.5 -69t-110 -26h-191q-25 0 -30 10.5t-5 16.5v293q-23 0 -35.5 1t-19.5 3.5t-9.5 8t-2.5 13.5q0 19 25 25h40v297q0 22 34 22h191q61 0 112.5 -25.5t90 -68.5t60.5 -97.5t22 -113.5v-80zM571 392q0 46 -18 91t-49 79.5 t-72.5 56t-88.5 21.5h-181v-268h224q33 0 33 -26q0 -25 -32 -25h-223v-269h88q30 0 52.5 -0.5t37.5 -0.5q44 0 84.5 21.5t72.5 56.5t51.5 79.5t19.5 91.5z" />
<glyph unicode="&#xd1;" d="M571 21q0 -7 -6.5 -13t-19.5 -6q-26 0 -38 19l-362 593v-593q0 -24 -24 -24q-25 0 -25 24v649q0 28 30 28q25 0 33 -15l361 -587v574q0 25 25 25q26 0 26 -25v-649zM513 841q0 -15 -11.5 -36t-29 -40t-39 -32.5t-40.5 -13.5q-33 0 -68 58q-37 63 -62 63q-15 0 -28 -14.5 t-24 -32.5t-19.5 -32.5t-12.5 -14.5q-25 0 -25 22q0 14 11 34t28.5 38t38.5 31t41 13q33 0 67 -58q35 -62 60 -62q16 0 30.5 13.5t28.5 43.5q19 43 29 43q25 0 25 -23z" />
<glyph unicode="&#xd2;" d="M360 763q0 -26 -26 -26q-8 0 -17 5l-159 133q-10 9 -10 19q0 27 26 27q8 0 17 -7l159 -132q10 -9 10 -19zM618 340q0 -74 -21.5 -139.5t-59.5 -114.5t-90.5 -77t-114.5 -28q-61 0 -112.5 29t-89.5 78.5t-59.5 114.5t-21.5 137q0 73 20.5 138.5t59 115t90.5 77.5t115 28 q59 0 111.5 -29.5t90.5 -79t60 -114.5t22 -136zM571 340q0 63 -17.5 119t-49 99t-75 68t-95.5 25q-51 0 -95 -25.5t-76 -68.5t-50 -99.5t-18 -117.5q0 -69 20.5 -126t53.5 -98t76.5 -63.5t88.5 -22.5q50 0 93.5 25.5t75.5 68t50 98.5t18 118z" />
<glyph unicode="&#xd3;" d="M520 894q0 -10 -10 -19l-159 -133q-9 -5 -16 -5q-26 0 -26 26q0 10 9 19l159 132q8 7 17 7q26 0 26 -27zM619 340q0 -74 -21 -139.5t-59.5 -114.5t-90.5 -77t-115 -28q-62 0 -113.5 29t-89.5 78t-59.5 114t-21.5 138q0 74 21.5 139t59 113.5t90.5 77t115 28.5 q61 0 112.5 -29.5t89.5 -79.5t60 -115t22 -134zM571 340q0 64 -18 120.5t-49.5 99.5t-75 67.5t-94.5 24.5q-52 0 -95.5 -26t-75 -69t-49 -100t-17.5 -117q0 -69 20 -125.5t53 -98t75.5 -64.5t88.5 -23q51 0 94 25.5t74.5 68.5t49.5 99t19 118z" />
<glyph unicode="&#xd4;" d="M503 776q0 -9 -7.5 -17t-16.5 -8q-6 1 -25.5 12.5t-49.5 38.5l-69 59l-120 -101q-4 -4 -18 -9q-10 0 -17.5 8.5t-7.5 17.5q0 11 17 25l146 120q36 -26 76.5 -60t89.5 -74q0 -2 1 -6.5t1 -5.5zM619 341q0 -74 -21 -139.5t-59.5 -114.5t-90.5 -76.5t-115 -27.5 q-62 0 -113.5 29t-89.5 77.5t-59.5 113.5t-21.5 138q0 74 21.5 139t59 114t90.5 77t115 28q61 0 112.5 -29.5t89.5 -79t60 -114.5t22 -135zM571 341q0 64 -18 121t-49.5 99.5t-75 67t-94.5 24.5q-52 0 -95.5 -26t-75 -69t-49 -100t-17.5 -117q0 -68 20 -125t53 -98 t75.5 -64.5t88.5 -23.5q51 0 94 25.5t74.5 68.5t49.5 99.5t19 117.5z" />
<glyph unicode="&#xd5;" d="M619 340q0 -74 -21 -139.5t-59.5 -114.5t-90.5 -77t-115 -28q-62 0 -113.5 29t-89.5 78t-59.5 114t-21.5 138q0 74 21.5 139t59 113.5t90.5 77t115 28.5q61 0 112.5 -29.5t89.5 -79.5t60 -115t22 -134zM571 340q0 64 -18 120.5t-49.5 99.5t-75 67.5t-94.5 24.5 q-52 0 -95.5 -26t-75 -69t-49 -100t-17.5 -117q0 -69 20 -125.5t53 -98t75.5 -64.5t88.5 -23q51 0 94 25.5t74.5 68.5t49.5 99t19 118zM513 841q0 -15 -11.5 -36t-29 -40t-39 -32.5t-40.5 -13.5q-33 0 -68 58q-37 63 -62 63q-15 0 -28 -14.5t-24 -32.5t-19.5 -32.5 t-12.5 -14.5q-25 0 -25 22q0 14 11 34t28.5 38t38.5 31t41 13q33 0 67 -58q35 -62 60 -62q16 0 30.5 13.5t28.5 43.5q19 43 29 43q25 0 25 -23z" />
<glyph unicode="&#xd6;" d="M521 824q0 -20 -14.5 -33.5t-34.5 -13.5q-44 0 -44 48q0 19 13.5 33t34.5 14q18 0 31.5 -14.5t13.5 -33.5zM281 822q0 -46 -50 -46q-41 0 -41 57q0 37 45 37q46 0 46 -48zM619 339q0 -75 -21 -140.5t-59.5 -114t-90.5 -76.5t-115 -28q-62 0 -113.5 29t-89.5 78t-59.5 114 t-21.5 138q0 74 21.5 139t59 113.5t90.5 77t115 28.5q61 0 112.5 -29.5t89.5 -79.5t60 -115t22 -134zM571 339q0 64 -18 120.5t-49.5 99.5t-75 67.5t-94.5 24.5q-52 0 -95.5 -26t-75 -69t-49 -100t-17.5 -117q0 -69 20 -125.5t53 -98t75.5 -64.5t88.5 -23q51 0 94 25.5 t74.5 68.5t49.5 99t19 118z" />
<glyph unicode="&#xd7;" d="M515 155h-1q0 -23 -21 -23q-9 0 -22 13l-139 143l-78 -84q-34 -37 -53 -54t-24 -18q-24 0 -24 22q0 10 12 21l135 146l-134 145l-14 22q0 13 3 14t20 10q6 -2 26.5 -19t53.5 -55l76 -83l138 145q7 10 16 10q14 0 21.5 -5t7.5 -19t-151 -165l138 -145q14 -16 14 -21z" />
<glyph unicode="&#xd8;" d="M630 709h-1q0 -20 -86 -126q73 -98 73 -243q0 -80 -24 -146t-62.5 -113t-89.5 -73.5t-106 -26.5q-52 0 -96.5 20.5t-82.5 57.5q-30 -39 -54 -71.5t-41 -37.5q-23 0 -23 27q0 1 11 17t25.5 37t29 40t22.5 28q-77 106 -77 247q0 73 22 137.5t60.5 112t91 75t112.5 27.5 q101 0 176 -76q26 39 85 109q9 2 13 2q22 0 22 -24zM483 582q-64 68 -151 68q-51 0 -94.5 -25.5t-75.5 -68.5t-50 -99.5t-18 -116.5q0 -117 59 -198l328 440h2zM572 339q0 119 -59 202l-334 -442q69 -70 155 -70q50 0 93.5 26t76 69t50.5 99.5t18 115.5z" />
<glyph unicode="&#xd9;" d="M360 763q0 -26 -26 -26q-8 0 -17 5l-159 133q-10 9 -10 19q0 27 26 27q8 0 17 -7l159 -132q10 -9 10 -19zM571 224q0 -51 -18 -95t-50 -77t-75.5 -52.5t-94.5 -19.5t-94 19.5t-75 52.5t-50 77t-18 95v448q0 23 28 23q22 0 22 -22v-449q0 -40 14 -75t39 -61.5t59 -41.5 t75 -15q39 0 73 16t59.5 42.5t40 62t14.5 73.5v447q0 24 25 24q26 0 26 -24v-448z" />
<glyph unicode="&#xda;" d="M520 894q0 -10 -10 -19l-159 -133q-9 -5 -16 -5q-26 0 -26 26q0 10 9 19l159 132q8 7 17 7q26 0 26 -27zM571 224q0 -51 -18 -95t-50 -77t-75.5 -52.5t-94.5 -19.5t-94 19.5t-75 52.5t-50 77t-18 95v448q0 23 28 23q22 0 22 -22v-449q0 -40 14 -75t39 -61.5t59 -41.5 t75 -15q39 0 73 16t59.5 42.5t40 62t14.5 73.5v447q0 24 25 24q26 0 26 -24v-448z" />
<glyph unicode="&#xdb;" d="M512 784q0 -25 -26 -25q-2 0 -14.5 8t-31.5 22.5t-44 34.5t-53 44q-23 -20 -58.5 -47.5t-84.5 -63.5q-11 0 -18 9.5t-7 17.5q0 14 15 26l153 120q71 -52 167 -135q0 -3 2 -5v-6zM571 224q0 -51 -18 -95t-49.5 -77t-75 -52.5t-94.5 -19.5q-52 0 -95.5 19.5t-75 52.5 t-49.5 77t-18 95v448q0 23 26 23q24 0 24 -25l-1 -446q0 -40 14 -75t39.5 -61.5t59.5 -42t75 -15.5q39 0 73 15.5t59.5 42.5t40 62.5t14.5 73.5v446q0 25 25 25q26 0 26 -25v-446z" />
<glyph unicode="&#xdc;" d="M507 826q0 -19 -15 -33.5t-34 -14.5q-20 0 -32.5 14t-12.5 34q0 21 14.5 34t34.5 13q19 0 32 -14.5t13 -32.5zM267 825q0 -47 -49 -47q-43 0 -43 51q0 43 47 43q45 0 45 -47zM571 224q0 -51 -18 -95t-49.5 -77t-75 -52.5t-94.5 -19.5q-52 0 -95.5 19.5t-75 52.5t-49.5 77 t-18 95v448q0 23 26 23q24 0 24 -25l-1 -446q0 -40 14 -75t39.5 -61.5t59.5 -42t75 -15.5q39 0 73 15.5t59.5 42.5t40 62.5t14.5 73.5v446q0 25 25 25q26 0 26 -25v-446z" />
<glyph unicode="&#xdd;" d="M520 894q0 -10 -10 -19l-159 -133q-9 -5 -16 -5q-26 0 -26 26q0 10 9 19l159 132q8 7 17 7q26 0 26 -27zM586 675q-1 -2 -26 -45.5t-77 -127.5l-119 -190v-291q0 -24 -24 -24t-24 24v291q-235 343 -235 357q0 8 11 17t21 9q8 0 9 -5l216 -328l203 329q1 5 13 5 q10 0 21 -6t11 -15z" />
<glyph unicode="&#xde;" d="M558 343q0 -91 -73.5 -148.5t-222.5 -57.5q-47 0 -72.5 1.5t-28.5 1.5v-119q0 -24 -25 -24q-27 0 -27 24v649q0 25 26 25q25 0 25 -25v-128h168q51 0 93.5 -16.5t72.5 -43t47 -63t17 -76.5zM508 342q0 32 -14 59.5t-38 48t-56 32t-67 11.5h-173v-306h153q40 0 75 12 t62 33t42 49.5t15 60.5h1z" />
<glyph unicode="&#xdf;" d="M548 193q0 -42 -12 -80.5t-32 -68t-48.5 -47t-61.5 -17.5q-26 0 -48 11.5t-38 31.5t-25 46t-9 56q0 25 25 25q7 0 15 -6l14 -60q18 -53 66 -53q24 0 43.5 13.5t33.5 36t21.5 51.5t7.5 62q0 36 -11.5 72t-34 65.5t-57.5 48.5t-81 21q-31 2 -41.5 5t-14.5 24q0 13 4 18 l74 18q67 25 67 91q0 24 -10 47.5t-26 40.5t-38 27.5t-48 10.5q-23 0 -44.5 -8t-38.5 -22t-26.5 -33t-9.5 -41l1 -558q0 -24 -22 -24q-24 0 -24 24v558q0 32 13.5 60t35.5 49t51.5 32.5t61.5 11.5q35 0 66 -14t55 -37.5t37 -55.5t13 -68q0 -72 -69 -122q39 -20 70 -40 t51.5 -48t32 -65t11.5 -89z" />
<glyph unicode="&#xe0;" d="M566 21q0 -24 -22 -24q-10 0 -15.5 6t-7.5 16.5t-2 23.5v27q-114 -90 -229 -90q-41 0 -75.5 11t-60 31t-39.5 49t-14 65q0 32 14 63.5t47 56.5t88 40t137 15q46 0 132 -19v82q0 45 -43 72.5t-107 27.5q-49 0 -129 -25q-46 -15 -54 -15q-14 0 -19.5 11t-5.5 13q0 8 4 15 t15 13t31.5 11t52.5 11q39 7 66.5 10t44.5 3q40 0 75.5 -11t61 -30t40 -46t14.5 -59v-354zM519 137v108q-41 9 -80.5 14t-78.5 5q-42 0 -80 -9.5t-67 -26.5t-46 -40t-17 -51q0 -52 38 -79.5t102 -27.5q115 0 229 107zM394 628q0 -26 -25 -26q-8 0 -18 6l-158 132 q-10 9 -10 20q0 25 26 25q8 0 17 -5l159 -133q9 -9 9 -19z" />
<glyph unicode="&#xe1;" d="M566 21q0 -24 -22 -24q-10 0 -15.5 6t-7.5 16.5t-2 23.5v27q-114 -90 -229 -90q-41 0 -75.5 11t-60 31t-39.5 49t-14 65q0 32 14 63.5t47 56.5t88 40t137 15q46 0 132 -19v82q0 45 -43 72.5t-107 27.5q-49 0 -129 -25q-46 -15 -54 -15q-14 0 -19.5 11t-5.5 13q0 8 4 15 t15 13t31.5 11t52.5 11q39 7 66.5 10t44.5 3q40 0 75.5 -11t61 -30t40 -46t14.5 -59v-354zM519 137v108q-41 9 -80.5 14t-78.5 5q-42 0 -80 -9.5t-67 -26.5t-46 -40t-17 -51q0 -52 38 -79.5t102 -27.5q115 0 229 107zM531 760q0 -11 -9 -20l-159 -132q-9 -6 -16 -6 q-26 0 -26 26q0 10 10 19l159 133q8 5 16 5q25 0 25 -25z" />
<glyph unicode="&#xe2;" d="M515 628q-2 -25 -25 -25q-5 0 -18 9t-32 24t-43.5 34.5t-50.5 42.5l-124 -101q-5 -4 -19 -9q-8 0 -15.5 8t-7.5 17q0 12 13 23l154 122l87 -68q32 -25 52 -42t27 -26q1 -1 1 -2q0 -4 1 -7zM566 21q0 -24 -22 -24q-10 0 -15.5 6t-7.5 16.5t-2 23.5v27q-114 -90 -229 -90 q-41 0 -75.5 11t-60 31t-39.5 49t-14 65q0 32 14 63.5t47 56.5t88 40t137 15q47 0 133 -19l-1 82q-2 46 -44.5 73t-105.5 27q-49 0 -129 -25q-46 -15 -54 -15q-14 0 -19.5 11t-5.5 13q0 8 4 15t15 13t31.5 11t52.5 11q39 7 66.5 10t44.5 3q40 0 75.5 -11t61 -30t40 -46 t14.5 -59v-354zM520 137l-1 108q-41 9 -80.5 14t-78.5 5q-42 0 -80 -9.5t-67 -26.5t-46 -40t-17 -51q0 -52 38 -79.5t102 -27.5q116 0 230 107z" />
<glyph unicode="&#xe3;" d="M513 689q0 -16 -11.5 -37t-30.5 -39.5t-40.5 -31.5t-39.5 -13q-33 0 -66 58q-37 63 -62 63q-16 0 -30 -12.5t-27 -43.5q-18 -39 -27 -39q-25 0 -25 23q0 14 11 33t28.5 37.5t38.5 31.5t41 13q33 0 67 -58q35 -62 60 -62q16 0 30.5 13.5t28.5 43.5q19 43 29 43 q25 0 25 -23zM566 22q0 -24 -22 -24q-10 0 -15.5 6t-7.5 16.5t-2 23.5v27q-114 -90 -229 -90q-41 0 -75.5 11t-60 31t-39.5 49t-14 65q0 32 14 63.5t47 56.5t88 40t137 15q46 0 132 -19v82q0 45 -43 73t-107 28q-49 0 -129 -26q-46 -15 -54 -15q-14 0 -19.5 11t-5.5 13 q0 8 4 15t15 13t31.5 11t52.5 11q39 7 66.5 10t44.5 3q40 0 75.5 -11t61 -30t40 -46t14.5 -59v-354zM519 138v108q-41 9 -80.5 14.5t-78.5 5.5q-42 0 -80 -10t-67 -27t-46 -40t-17 -51q0 -52 38 -79.5t102 -27.5q115 0 229 107z" />
<glyph unicode="&#xe4;" d="M527 672q0 -19 -14.5 -33t-33.5 -14q-20 0 -33.5 13t-13.5 32q0 21 14.5 35.5t34.5 14.5q19 0 32.5 -15t13.5 -33zM287 670q0 -46 -49 -46q-43 0 -43 51q0 44 45 44t45 -49h2zM567 21q0 -24 -23 -24q-22 0 -25 29v-2q1 0 1 46q-114 -90 -229 -90q-85 0 -138 42.5 t-53 113.5q0 29 11.5 56.5t33 50.5t53.5 39t72 22q19 2 47.5 4.5t68.5 2.5q48 0 134 -18l-3 82q-2 46 -43.5 73.5t-104.5 27.5q-14 -2 -30.5 -3t-35.5 -7l-63 -17q-27 -8 -41.5 -10.5t-12.5 -3.5q-6 0 -11.5 3.5t-9 8t-5 8t-0.5 3.5q0 8 4 14.5t15.5 12.5t32 11.5t52.5 11.5 q75 14 111 14q40 0 75.5 -10.5t61.5 -30t40.5 -47t14.5 -59.5v-354zM520 245q-41 9 -80.5 14t-78.5 5q-42 0 -80.5 -9.5t-67.5 -26.5t-46 -40t-17 -51q0 -50 36 -78.5t101 -28.5q59 0 117 27.5t115 79.5z" />
<glyph unicode="&#xe5;" d="M472 694q0 -44 -28.5 -75t-71.5 -31q-21 0 -38.5 9t-31.5 23.5t-21.5 33.5t-7.5 40t8 40t22.5 33.5t33.5 23t41 8.5q19 0 35.5 -9t30 -24t21 -34.5t7.5 -37.5zM566 21q0 -24 -22 -24q-10 0 -15.5 6t-7.5 16.5t-2 23.5v27q-114 -90 -229 -90q-41 0 -75.5 11t-60 31 t-39.5 49t-14 65q0 32 14 63.5t47 56.5t88 40t137 15q47 0 133 -19l-1 82q-2 46 -44.5 73t-105.5 27q-49 0 -129 -25q-46 -15 -54 -15q-14 0 -19.5 11t-5.5 13q0 8 4 15t15 13t31.5 11t52.5 11q39 7 66.5 10t44.5 3q40 0 75.5 -11t61 -30t40 -46t14.5 -59v-354zM440 697 q0 25 -21 45t-45 20q-67 0 -67 -68q0 -69 69 -69q29 0 46.5 21.5t17.5 50.5zM520 137l-1 108q-41 9 -80.5 14t-78.5 5q-42 0 -80 -9.5t-67 -26.5t-46 -40t-17 -51q0 -52 38 -79.5t102 -27.5q116 0 230 107z" />
<glyph unicode="&#xe6;" d="M665 241l-298 1q3 -45 14.5 -84t30 -67t43 -44t52.5 -16q15 0 37.5 12t44 26.5t36.5 26t14 11.5q25 0 25 -26q0 -15 -14 -33t-36 -33t-49 -25t-52 -10q-46 0 -83 23.5t-63 70.5v-15q1 -6 1 -10v-6q0 -43 -27 -43q-24 0 -24 38v9.5t1 10.5q-27 -24 -46 -39.5t-35.5 -23 t-32 -10t-36.5 -2.5q-33 0 -63.5 14.5t-53 37.5t-36 53.5t-13.5 64.5q0 76 61.5 117t167.5 41q56 0 86 -16v76q0 19 -9 37t-23 33t-32 24t-36 9q-11 0 -32 -6t-43.5 -13t-38.5 -13.5t-17 -6.5q-23 0 -23 23q0 12 17 23.5t41.5 20t52 14t46.5 5.5q49 0 82.5 -26t53.5 -76 q28 48 67.5 76t89.5 28q33 0 61 -22t47.5 -60t31 -89.5t12.5 -110.5zM614 289q-25 185 -120 185q-23 0 -44 -13.5t-37.5 -38.5t-28.5 -59.5t-16 -73.5h246zM317 135l-1 112q-3 0 -48 12q-27 5 -44 5q-89 0 -130.5 -33t-41.5 -79q0 -26 11 -48t29 -38.5t41.5 -26t48.5 -9.5 q18 0 31 3.5t28 15t33 32t43 54.5z" />
<glyph unicode="&#xe7;" d="M595 108q0 -20 -25.5 -42t-65 -41t-85 -32t-86.5 -13q-57 0 -104.5 21t-82.5 57.5t-54 86t-19 104.5q0 58 19 109t54 89t83 59.5t107 21.5q47 0 88.5 -11.5t73 -33t49.5 -52t18 -66.5q0 -33 -23 -33q-18 0 -20 14.5t-2 28.5q-1 12 -14.5 30t-38 34.5t-58 28t-76.5 11.5 q-46 0 -85 -18t-67.5 -48t-44 -72t-15.5 -88q0 -50 15.5 -91t44.5 -70t69.5 -45t90.5 -16q52 0 100.5 19.5t94.5 55.5q34 26 35 26q24 0 24 -24zM435 -165q0 -30 -23 -48t-61 -18q-12 0 -29 3.5t-32 10t-25 14t-10 16.5q0 10 5 14l14 4q2 0 11.5 -4t21.5 -9t25 -9t23 -4 q15 0 30.5 9.5t15.5 23.5q0 15 -17 22.5t-49 7.5l1 89q0 6 1.5 16t15.5 10q12 0 15 -14t3 -30q0 -9 -0.5 -18t-1.5 -18q28 -3 47 -21.5t19 -46.5z" />
<glyph unicode="&#xe8;" d="M361 628q0 -26 -26 -26q-8 0 -16 6l-159 132q-9 9 -9 20q0 25 25 25q7 0 17 -5l158 -133q10 -9 10 -19zM607 108q0 -20 -27 -42t-67 -41t-85.5 -32t-84.5 -13q-60 0 -111.5 23t-90 61.5t-60 91t-21.5 111.5q0 57 20.5 104.5t56.5 82t84 54.5t104 20q49 0 92.5 -12.5 t76.5 -43.5t52.5 -86t20.5 -141h-459q13 -99 75.5 -156.5t161.5 -57.5q59 0 109.5 14t91.5 59q13 15 22.5 21t13.5 7q25 0 25 -24zM519 293q-6 35 -10 56.5t-9.5 35t-13 22t-19.5 19.5q-63 54 -141 54q-42 0 -78.5 -14t-65.5 -38t-48 -58.5t-26 -76.5h411z" />
<glyph unicode="&#xe9;" d="M607 108q0 -20 -27 -42t-67 -41t-85.5 -32t-84.5 -13q-60 0 -111.5 23t-90 61.5t-60 91t-21.5 111.5q0 57 20.5 104.5t56.5 82t84 54.5t104 20q49 0 92.5 -12.5t76.5 -43.5t52.5 -86t20.5 -141h-459q13 -99 75.5 -156.5t161.5 -57.5q59 0 109.5 14t91.5 59q13 15 22.5 21 t13.5 7q25 0 25 -24zM519 293q-6 35 -10 56.5t-9.5 35t-13 22t-19.5 19.5q-63 54 -141 54q-42 0 -78.5 -14t-65.5 -38t-48 -58.5t-26 -76.5h411zM535 760q0 -11 -10 -20l-158 -132q-10 -6 -18 -6q-25 0 -25 26q0 10 9 19l159 133q9 5 17 5q26 0 26 -25z" />
<glyph unicode="&#xea;" d="M501 628q0 -25 -25 -25q-12 0 -143 110l-124 -101q-5 -4 -20 -9q-9 0 -17 9t-8 14q0 12 16 25l153 122q36 -27 77 -60.5t90 -74.5q0 -2 1 -5v-5zM607 107q0 -20 -27 -42t-67 -41t-85.5 -32t-84.5 -13q-60 0 -111.5 22.5t-90 61.5t-60 91t-21.5 112q0 56 21 104t57.5 82.5 t85.5 54.5t105 20q47 0 90 -13t75.5 -45t51.5 -86.5t20 -138.5h-459q12 -99 75 -156.5t161 -57.5q61 0 111.5 14t91.5 59q13 15 22.5 21t13.5 7q25 0 25 -24zM517 291q-5 36 -8.5 57.5t-9 35t-13 22t-19.5 19.5q-60 53 -142 53q-85 0 -143.5 -51t-73.5 -136h409z" />
<glyph unicode="&#xeb;" d="M496 670q0 -18 -14.5 -32t-32.5 -14q-20 0 -33 13t-13 32q0 21 14.5 35.5t34.5 14.5q19 0 31.5 -15t12.5 -34zM256 669q0 -23 -11 -34.5t-37 -11.5q-42 0 -42 51q0 44 45 44q43 0 45 -49zM607 108q0 -20 -27 -42t-67 -41t-85.5 -32t-84.5 -13q-60 0 -111.5 23t-90 61.5 t-60 91t-21.5 111.5q0 57 20.5 104.5t56.5 82t84 54.5t104 20q49 0 92.5 -12.5t76.5 -43.5t52.5 -86t20.5 -141h-459q13 -99 75.5 -156.5t161.5 -57.5q59 0 109.5 14t91.5 59q13 15 22.5 21t13.5 7q25 0 25 -24zM519 293l-13 71q-10 29 -29.5 51t-44.5 36.5t-53 21.5t-53 7 q-42 0 -78.5 -14t-65.5 -38t-48 -58.5t-26 -76.5h411z" />
<glyph unicode="&#xec;" d="M351 628q0 -26 -25 -26q-8 0 -16 6l-159 132q-9 9 -9 20q0 25 25 25q7 0 16 -5l159 -133q9 -9 9 -19zM573 26q0 -26 -32 -26h-417q-32 0 -32 28q0 20 32 20h185v408h-149q-32 0 -32 27q0 25 32 25h200v-460h182q31 0 31 -22z" />
<glyph unicode="&#xed;" d="M532 760q0 -11 -9 -20l-159 -132q-8 -6 -16 -6q-26 0 -26 26q0 10 10 19l159 133q9 5 16 5q25 0 25 -25zM573 26q0 -26 -32 -26h-417q-32 0 -32 28q0 20 32 20h185v408h-149q-32 0 -32 27q0 25 32 25h200v-460h182q31 0 31 -22z" />
<glyph unicode="&#xee;" d="M499 628q0 -25 -26 -25q-11 0 -142 110l-125 -101q-2 -2 -19 -10q-10 0 -17.5 8.5t-7.5 17.5q0 11 15 23l154 122q36 -27 76.5 -60.5t88.5 -75.5q2 -1 2 -2q0 -4 1 -7zM573 26q0 -26 -32 -26h-417q-32 0 -32 28q0 20 32 20h185v408h-149q-32 0 -32 27q0 25 32 25h200 v-460h182q31 0 31 -22z" />
<glyph unicode="&#xef;" d="M494 670q0 -18 -14.5 -32t-32.5 -14q-20 0 -33.5 13t-13.5 32q0 21 14.5 35.5t35.5 14.5q19 0 31.5 -15t12.5 -34zM254 669q0 -23 -11 -34.5t-38 -11.5q-41 0 -41 51q0 44 45 44q43 0 45 -49zM573 26q0 -26 -32 -26h-417q-32 0 -32 28q0 20 32 20h185v408h-149 q-32 0 -32 27q0 25 32 25h200v-460h182q31 0 31 -22z" />
<glyph unicode="&#xf0;" d="M595 244q0 -67 -27 -116t-67 -82t-86 -49.5t-84 -16.5q-56 0 -103.5 22t-82 60t-54 86.5t-19.5 103.5t20.5 104t55.5 86t82.5 58.5t102.5 21.5q93 0 137 -37q-47 95 -125 165q-26 -12 -59.5 -24t-77.5 -26l-12 6l-3 11q2 13 16 20l103 40q-72 55 -151 55q-13 0 -13 17 q0 24 16 25q91 0 194 -79q129 46 133 46q14 -3 16 -16q-2 -15 -17 -20l-100 -38q45 -42 82.5 -94.5t65 -109t42.5 -113.5t15 -106zM548 253q0 45 -17 85t-45.5 70t-67.5 48t-82 18q-44 0 -82.5 -18t-67.5 -48.5t-46 -70.5t-17 -84q0 -48 15.5 -88.5t44 -70.5t67.5 -47 t85 -17q47 0 85.5 17.5t67 47.5t44.5 70.5t16 87.5z" />
<glyph unicode="&#xf1;" d="M548 21q0 -24 -26 -24q-24 0 -24 24v330q0 28 -10.5 51t-30 39t-45 24.5t-54.5 8.5q-26 0 -44.5 -2.5t-38 -15t-43 -35.5t-61.5 -64v-336q0 -24 -25 -24q-24 0 -24 24l-3 474q0 24 25 24q29 0 29 -48q0 -8 -1 -22t-1 -17q26 26 48.5 43.5t45 28t46.5 15t54 4.5 q48 0 85.5 -18t69.5 -68q28 -44 28 -79v-337zM513 689q0 -16 -11.5 -37t-30.5 -39.5t-40.5 -31.5t-39.5 -13q-33 0 -66 58q-37 63 -62 63q-16 0 -30 -12.5t-27 -43.5q-18 -39 -27 -39q-25 0 -25 23q0 14 11 33t28.5 37.5t38.5 31.5t41 13q33 0 67 -58q35 -62 60 -62 q16 0 30.5 13.5t28.5 43.5q19 43 29 43q25 0 25 -23z" />
<glyph unicode="&#xf2;" d="M380 628q0 -26 -25 -26q-8 0 -16 6l-159 132q-9 9 -9 20q0 25 25 25q7 0 16 -5l159 -133q9 -9 9 -19zM608 253q0 -57 -21.5 -107t-58 -86.5t-87 -57.5t-107.5 -21q-56 0 -106.5 21t-87.5 57.5t-59 86.5t-22 107q0 54 22.5 103.5t61 86t88.5 58t104 21.5q56 0 105.5 -21.5 t87 -58t59 -85t21.5 -104.5zM561 252q0 45 -18.5 85t-49 70.5t-71 48.5t-86.5 18q-45 0 -86 -18t-72.5 -48.5t-50 -70.5t-18.5 -85q0 -47 18 -87.5t48 -70t71.5 -47t88.5 -17.5t88 17t71.5 47t48.5 70t18 88z" />
<glyph unicode="&#xf3;" d="M608 253q0 -57 -21.5 -107t-58 -86.5t-87 -57.5t-107.5 -21q-56 0 -106.5 21t-87.5 57.5t-59 86.5t-22 107q0 54 22.5 103.5t61 86t88.5 58t104 21.5q56 0 105.5 -21.5t87 -58t59 -85t21.5 -104.5zM561 252q0 45 -18.5 85t-49 70.5t-71 48.5t-86.5 18q-45 0 -86 -18 t-72.5 -48.5t-50 -70.5t-18.5 -85q0 -47 18 -87.5t48 -70t71.5 -47t88.5 -17.5t88 17t71.5 47t48.5 70t18 88zM535 760q0 -11 -10 -20l-158 -132q-10 -6 -17 -6q-26 0 -26 26q0 10 10 19l159 133q8 5 16 5q26 0 26 -25z" />
<glyph unicode="&#xf4;" d="M517 628q0 -25 -25 -25q-12 0 -143 110l-124 -101q-5 -4 -20 -9q-9 0 -17 9t-8 14q0 12 16 25l153 122q36 -27 77 -60.5t90 -74.5q0 -2 1 -5v-5zM608 252q0 -58 -21 -108t-58 -86.5t-87 -57.5t-107 -21q-55 0 -105.5 21.5t-88.5 58.5t-60 87t-22 107q0 56 22.5 104.5 t60.5 85t88 57.5t104 21q56 0 106 -21.5t87 -58t59 -85.5t22 -104zM560 249q0 44 -18.5 84.5t-49 71t-71.5 48.5t-86 18t-85.5 -18t-72 -48.5t-50 -71t-18.5 -84.5q0 -46 18 -86.5t48 -70t71.5 -47t88.5 -17.5t88 17.5t71.5 47.5t48 70t17.5 86z" />
<glyph unicode="&#xf5;" d="M608 253q0 -58 -21 -108t-58 -86.5t-87 -57.5t-107 -21q-55 0 -105.5 21.5t-88.5 58.5t-60 87t-22 107q0 56 22.5 104.5t60.5 85t88 57.5t104 21q56 0 106 -21.5t87 -58t59 -85t22 -104.5zM560 251q0 44 -18.5 84t-49 70.5t-71.5 48.5t-86 18t-85.5 -18t-72 -48.5 t-50 -70.5t-18.5 -84q0 -47 18 -87.5t48 -70t71.5 -47t88.5 -17.5t88 17.5t71.5 47.5t48 70t17.5 87zM513 689q0 -16 -11.5 -37t-30.5 -39.5t-40.5 -31.5t-39.5 -13q-33 0 -66 58q-37 63 -62 63q-16 0 -30 -12.5t-27 -43.5q-18 -39 -27 -39q-25 0 -25 23q0 14 11 33 t28.5 37.5t38.5 31.5t41 13q33 0 67 -58q35 -62 60 -62q16 0 30.5 13.5t28.5 43.5q19 43 29 43q25 0 25 -23z" />
<glyph unicode="&#xf6;" d="M512 672q0 -19 -14.5 -33t-33.5 -14q-20 0 -33 13t-13 32q0 21 14.5 35.5t34.5 14.5q19 0 32 -15t13 -33zM271 670q0 -23 -11 -34.5t-37 -11.5q-42 0 -42 51q0 44 45 44q43 0 45 -49zM608 253q0 -57 -21.5 -107t-58 -86.5t-87 -57.5t-107.5 -21q-56 0 -106.5 21 t-87.5 57.5t-59 86.5t-22 107q0 54 22.5 103.5t61 86t88.5 58t104 21.5q56 0 105.5 -21.5t87 -58t59 -85t21.5 -104.5zM561 252q0 45 -18.5 85t-49 70.5t-71 48.5t-86.5 18q-45 0 -86 -18t-72.5 -48.5t-50 -70.5t-18.5 -85q0 -47 18 -87.5t48 -70t71.5 -47t88.5 -17.5t88 17 t71.5 47t48.5 70t18 88z" />
<glyph unicode="&#xf7;" d="M379 572q0 -21 -13 -35.5t-33 -14.5t-36 15t-16 35q0 18 14 32.5t32 14.5q22 0 37 -13t15 -34zM577 346q0 -26 -29 -26h-425q-33 0 -33 26q0 25 29 25h425q33 0 33 -25zM379 113q0 -21 -13 -35.5t-33 -14.5q-21 0 -36.5 14.5t-15.5 35.5q0 18 14 32.5t32 14.5 q21 0 36 -13.5t15 -33.5h1z" />
<glyph unicode="&#xf8;" d="M616 527h-1q0 -12 -83 -94q71 -75 71 -186q0 -54 -22 -103t-59 -85t-86 -57t-103 -21q-91 0 -165 57l-25 -30q-26 -30 -44 -45t-24 -15q-23 0 -23 26q0 20 81 94q-36 42 -52 87.5t-16 99.5q0 55 21.5 103.5t58 85t84.5 57.5t102 21q97 0 168 -57q30 36 56 61.5t35 25.5 q14 0 26 -25zM556 255q0 81 -53 146l-303 -324q55 -42 134 -42q49 0 89.5 16t69.5 45t45 69.5t16 89.5h2zM467 430q-62 46 -135 46q-45 0 -85.5 -17.5t-70.5 -48t-47.5 -70.5t-17.5 -85q0 -80 53 -147l302 322h1z" />
<glyph unicode="&#xf9;" d="M394 628q0 -26 -25 -26q-8 0 -18 6l-158 132q-10 9 -10 20q0 25 26 25q8 0 17 -5l159 -133q9 -9 9 -19zM546 21q0 -24 -24 -24t-26 29v-2q2 0 2 47q-104 -90 -220 -90q-70 0 -113 45t-43 116v353q0 24 24 24q22 0 25 -24l1 -353q0 -49 29 -80t77 -31q120 0 220 111v353 q0 24 24 24t24 -24v-474z" />
<glyph unicode="&#xfa;" d="M546 21q0 -24 -24 -24t-26 29v-2q2 0 2 47q-104 -90 -220 -90q-70 0 -113 45t-43 116v353q0 24 24 24q22 0 25 -24l1 -353q0 -49 29 -80t77 -31q120 0 220 111v353q0 24 24 24q22 0 24 -24v-474zM534 760q0 -11 -10 -20l-159 -132q-9 -6 -16 -6q-27 0 -27 26q0 10 11 19 l159 133q8 5 16 5q26 0 26 -25z" />
<glyph unicode="&#xfb;" d="M528 628q0 -25 -26 -25q-11 0 -142 110l-125 -101q-4 -4 -19 -9q-10 0 -18 9t-8 14q0 12 16 25l154 122q36 -27 77 -60.5t90 -74.5q0 -2 1 -5v-5zM545 20q0 -25 -23 -25q-22 0 -26 29q0 3 1 14t2 30q-103 -89 -219 -89q-71 0 -114.5 45.5t-43.5 115.5v354q0 23 24 23 q25 0 25 -23v-354q0 -48 29.5 -79t77.5 -31q120 0 220 110v354q0 23 23 23q24 0 24 -23v-474z" />
<glyph unicode="&#xfc;" d="M523 670q0 -18 -14.5 -32t-32.5 -14q-20 0 -34 13t-14 32q0 21 14.5 35.5t35.5 14.5q18 0 31.5 -15t13.5 -34zM283 669q0 -46 -49 -46q-43 0 -43 51q0 44 46 44q45 0 45 -49h1zM546 21q0 -24 -24 -24t-26 29v-3q2 0 2 48q-104 -90 -220 -90q-70 0 -113.5 45t-43.5 116 v353q0 24 24 24t24 -24l3 -353q0 -49 28.5 -80t76.5 -31q120 0 219 111v353q0 24 25 24t25 -24v-474z" />
<glyph unicode="&#xfd;" d="M606 513l-322 -690q-24 -50 -104 -50q-29 0 -29 24q0 12 3.5 16t26.5 10q12 -4 25 -4q16 0 28.5 13.5t24.5 37.5t26 57.5t33 72.5l-136 271q-61 122 -89.5 183t-29.5 62q2 9 19 9q25 0 32 -11l229 -458l215 457q5 12 36 12q12 0 12 -9v-3zM536 760q0 -11 -9 -20 l-159 -132q-10 -6 -17 -6q-25 0 -25 26q0 10 9 19l159 133q9 5 16 5q26 0 26 -25z" />
<glyph unicode="&#xfe;" d="M595 270q0 -54 -20.5 -101t-55 -82t-82 -54.5t-101.5 -19.5q-130 0 -215 106v-331q0 -25 -25 -25q-24 0 -24 25v932q0 25 23 25q26 0 26 -25v-304q84 106 213 106q53 0 100 -19t83 -53t57 -80t21 -100zM549 269q0 43 -17.5 80t-46.5 64.5t-67.5 43t-79.5 15.5 q-45 0 -83.5 -15.5t-68 -43.5t-47 -65.5t-17.5 -80.5q0 -44 17.5 -82t46.5 -65.5t67.5 -43.5t82.5 -16q42 0 80.5 17.5t68 46t47 66t17.5 79.5z" />
<glyph unicode="&#xff;" d="M498 670q0 -18 -15.5 -32t-32.5 -14q-20 0 -33.5 13t-13.5 32q0 21 14.5 35.5t34.5 14.5q18 0 32 -15t14 -34zM258 669q0 -46 -49 -46q-43 0 -43 51q0 44 45 44t45 -49h2zM606 513l-322 -690q-24 -50 -104 -50q-30 0 -30 24q0 12 3.5 16t26.5 10q11 -4 25 -4 q15 0 28 13.5t25.5 37.5t26.5 57.5t33 72.5l-136 271q-61 122 -89.5 183t-29.5 62q0 9 18 9q25 0 32 -11l229 -458l215 457q4 12 37 12q12 0 12 -9v-3z" />
<glyph unicode="&#x100;" d="M517 796q0 -27 -34 -27h-297q-34 0 -34 27q0 25 32 25h301q32 0 32 -25zM629 -5q0 -4 -3.5 -6.5t-16.5 -2.5q-28 0 -32 15l-83 228h-321l-85 -229q-4 -15 -30 -15q-21 0 -21 12q0 2 256 687q7 21 40 21q32 0 41 -22l254 -682q1 -1 1 -6zM478 280l-136 353h-18l-134 -353 h288z" />
<glyph unicode="&#x101;" d="M566 21q0 -24 -22 -24q-10 0 -15.5 6t-7.5 16.5t-2 23.5v27q-114 -90 -229 -90q-41 0 -75.5 11t-60 31t-39.5 49t-14 65q0 32 14 63.5t47 56.5t88 40t137 15q46 0 132 -19v82q0 45 -43 72.5t-107 27.5q-49 0 -129 -25q-46 -15 -54 -15q-14 0 -19.5 11t-5.5 13q0 8 4 15 t15 13t31.5 11t52.5 11q39 7 66.5 10t44.5 3q40 0 75.5 -11t61 -30t40 -46t14.5 -59v-354zM519 137v108q-41 9 -80.5 14t-78.5 5q-42 0 -80 -9.5t-67 -26.5t-46 -40t-17 -51q0 -52 38 -79.5t102 -27.5q115 0 229 107zM541 652q0 -24 -29 -24h-310q-30 0 -30 24q0 25 29 25 h308q32 0 32 -25z" />
<glyph unicode="&#x104;" d="M628 1q-2 -11 -24 -17q-138 -28 -138 -110q0 -25 15 -45t40 -20q18 0 30.5 9t20.5 19.5t14 20t13 9.5q24 0 24 -22q0 -17 -9.5 -32t-23 -26.5t-31 -18t-35.5 -6.5q-23 0 -42 9.5t-33 25.5t-21.5 37t-7.5 45q0 51 40.5 89.5t107.5 55.5l-74 205h-321l-85 -229 q-4 -15 -30 -15q-21 0 -21 12q116 319 180 490t76 197q11 21 40 21q32 0 41 -22zM478 280l-136 353h-18l-134 -353h288z" />
<glyph unicode="&#x105;" d="M566 21q0 -24 -22 -24q-20 0 -43.5 -12t-44.5 -29t-35.5 -38.5t-14.5 -42.5q0 -26 17 -46t42 -20q15 0 26 9t19.5 19.5t14.5 20t13 9.5q25 0 25 -22q0 -17 -9.5 -32t-23.5 -26.5t-31.5 -18t-34.5 -6.5q-23 0 -42 9.5t-33 25t-21.5 36t-7.5 43.5q0 52 44 96.5t113 65.5 l2 32q-114 -90 -229 -90q-41 0 -75.5 11t-60 31.5t-39.5 49.5t-14 64q0 87 76 131t210 44q47 0 132 -19v82q0 45 -43 72.5t-107 27.5q-14 0 -39 -6t-53 -13.5t-52.5 -14t-38.5 -6.5q-10 0 -18 7l-7 17q0 8 3 15t13.5 12.5t31 10.5t54.5 11q77 14 112 14q39 0 74.5 -10.5 t61 -29.5t40.5 -46.5t15 -59.5v-354zM519 137v108q-83 19 -159 19q-41 0 -78.5 -9t-67.5 -26t-47 -40t-17 -52q0 -51 37.5 -79t99.5 -28q118 0 232 107z" />
<glyph unicode="&#x10c;" d="M527 884q-3 -13 -15 -23l-152 -120q-36 27 -77 59t-87 71l-3 13q0 25 24 25q6 -1 24.5 -12t48.5 -36l70 -59l69 55q64 52 73 52q25 0 25 -25zM606 131q0 -12 -26 -42q-41 -48 -99.5 -78.5t-118.5 -30.5q-62 0 -117 28.5t-95.5 76.5t-64.5 110.5t-24 129.5q0 79 20 148.5 t56.5 121t88 81.5t115.5 30q117 0 200 -82q0 22 0.5 35.5t2.5 20.5t7 8.5t13 1.5q24 0 24 -32v-138q0 -33 -25 -33q-22 0 -22 30q0 29 -18 54t-46.5 44.5t-64.5 30.5t-72 11q-53 0 -96.5 -24t-74 -67t-47 -102.5t-16.5 -130.5q0 -56 20.5 -110.5t56 -96.5t82 -68.5 t96.5 -26.5q54 0 95.5 20t88.5 72q29 32 38 32q10 0 16.5 -5t6.5 -19z" />
<glyph unicode="&#x10d;" d="M515 734q0 -11 -15 -23l-152 -123q-31 24 -60.5 48t-53 43.5t-38.5 33.5t-16 19q0 25 26 25q21 0 142 -110q1 1 12.5 10.5t27.5 21.5t34 26t33 26.5t25.5 20l10.5 7.5q24 0 24 -25zM595 108q0 -20 -26.5 -42.5t-66.5 -41t-86.5 -31t-86.5 -12.5q-55 0 -102.5 21t-82 57.5 t-53.5 86t-19 105.5q0 59 19.5 109.5t54.5 87.5t83 58.5t106 21.5q49 0 90.5 -12.5t72.5 -33.5t49 -51.5t18 -66.5q0 -18 -6 -25t-17 -7q-17 0 -18.5 15t-3.5 29q-1 11 -15.5 28.5t-39 34.5t-58 28.5t-73.5 11.5q-46 0 -85.5 -18t-68 -48.5t-44 -72.5t-15.5 -88 q0 -50 15.5 -91.5t44.5 -70.5t69.5 -44.5t90.5 -15.5q52 0 99 18.5t97 57.5l34 26q24 0 24 -24z" />
<glyph unicode="&#x112;" d="M503 796q0 -27 -34 -27h-297q-34 0 -34 27q0 25 33 25h300q32 0 32 -25zM566 26q0 -26 -15 -26h-420q-30 0 -30 27v632q0 24 29 24h421q15 0 15 -24q0 -26 -15 -26h-401v-253h225q4 0 10 -6t6 -19q0 -26 -15 -26h-226v-278l401 -1q15 0 15 -24z" />
<glyph unicode="&#x113;" d="M512 652q0 -23 -29 -23l-310 -1q-30 0 -30 24q0 25 29 25h308q32 0 32 -25zM607 108q0 -20 -27 -42t-67 -41t-85.5 -32t-84.5 -13q-60 0 -111.5 23t-90 61.5t-60 91t-21.5 111.5q0 57 21 104.5t57.5 82t85.5 54.5t105 20q47 0 90 -12.5t75.5 -44t51.5 -87t20 -139.5h-459 q12 -99 75 -156.5t161 -57.5q61 0 111.5 14t91.5 59q13 15 22.5 21t13.5 7q25 0 25 -24zM517 292q-5 36 -8.5 57.5t-9 35t-13 22t-19.5 19.5q-60 53 -142 53q-85 0 -143.5 -51t-73.5 -136h409z" />
<glyph unicode="&#x118;" d="M566 26q0 -26 -15 -26h-96q-37 -5 -57.5 -32.5t-20.5 -63.5q0 -37 21 -62t57 -25q45 0 66 43q4 11 16 11q26 0 26 -28q0 -4 -3 -11q-33 -69 -108 -69q-54 0 -89 38t-35 95q0 58 40 104h-237q-30 0 -30 27v632q0 24 29 24h421q15 0 15 -24q0 -26 -15 -26h-401v-253h225 q4 0 10 -6t6 -19q0 -26 -15 -26h-226v-278h401q15 0 15 -25z" />
<glyph unicode="&#x119;" d="M607 108q-1 -8 -5.5 -17.5t-16.5 -18.5l-36 -27q-36 -26 -113 -57q-58 -23 -58 -87q0 -36 21.5 -60t56.5 -24q16 0 30 8.5t24.5 18.5t18 18.5t9.5 8.5q26 0 26 -28q0 -16 -11.5 -30.5t-28 -25.5t-36 -17.5t-34.5 -6.5q-28 0 -51 10.5t-39 28t-25.5 42t-9.5 52.5 q0 45 27 84h-13q-60 0 -111.5 22t-90 61t-60 91t-21.5 113q0 55 21 103t57 82.5t84 55t103 20.5q51 0 95 -14t76.5 -46.5t51 -87t18.5 -135.5h-459q12 -99 75 -156.5t161 -57.5q36 0 64 3t52 11t44.5 22t42.5 36q29 29 36 29q25 0 25 -24zM517 292q-4 34 -8 55t-9.5 35 t-13 23.5t-19.5 20.5q-58 53 -142 53q-85 0 -143.5 -51.5t-73.5 -135.5h409z" />
<glyph unicode="&#x12a;" d="M515 796q0 -27 -35 -27h-297q-33 0 -33 27q0 25 32 25h301q31 0 32 -25zM550 27q0 -27 -33 -27h-369q-31 0 -31 28q0 23 31 23h162v582l-162 -1q-31 0 -31 28q0 23 31 23h371q31 0 31 -23q0 -27 -33 -27h-156v-582h156q33 0 33 -24z" />
<glyph unicode="&#x12b;" d="M492 652q0 -23 -29 -23l-310 -1q-30 0 -30 24q0 25 29 25h309q31 0 31 -25zM573 26q0 -26 -32 -26h-417q-32 0 -32 28q0 20 32 20h185v408h-149q-32 0 -32 27q0 25 32 25h200v-460h182q31 0 31 -22z" />
<glyph unicode="&#x12e;" d="M550 27q0 -27 -33 -27h-79q-17 0 -31 -8.5t-24.5 -22t-16 -31t-5.5 -34.5q0 -36 21 -61.5t56 -25.5q16 0 29.5 8.5t24.5 18.5t19 18.5t10 8.5q25 0 25 -28q0 -15 -11 -29.5t-27.5 -25.5t-36 -18t-35.5 -7q-28 0 -50.5 10.5t-38.5 28t-25.5 42t-9.5 52.5q0 60 39 104h-203 q-31 0 -31 28q0 23 31 23h162v582l-162 -1q-31 0 -31 28q0 23 31 23h371q31 0 31 -23q0 -27 -33 -27h-156v-582h156q33 0 33 -24z" />
<glyph unicode="&#x12f;" d="M573 26q0 -26 -32 -26h-92q-15 -3 -26.5 -13t-20 -23.5t-13 -29t-4.5 -29.5q0 -37 21 -62.5t57 -25.5q15 0 29 8.5t25 18.5t18.5 18.5t9.5 8.5q26 0 26 -28q0 -15 -11 -29.5t-28 -25.5t-36 -18t-35 -7q-28 0 -51 10.5t-39 28t-25.5 42t-9.5 52.5q0 61 40 104h-252 q-32 0 -32 28q0 20 32 20h185v408h-149q-32 0 -32 27q0 25 32 25h200v-460h182q31 0 31 -22zM376 669q0 -17 -14.5 -31t-33.5 -14q-46 0 -46 45q0 21 14 35t35 14q18 0 31.5 -15t13.5 -34z" />
<glyph unicode="&#x131;" d="M573 26q0 -26 -32 -26h-417q-32 0 -32 28q0 20 32 20h185v408h-149q-32 0 -32 27q0 25 32 25h200v-460h182q31 0 31 -22z" />
<glyph unicode="&#x14a;" d="M571 -34q0 -41 -14 -76.5t-39 -60.5t-60.5 -39t-77.5 -14h-37q-33 0 -33 26t32 25l37 -2h10q27 0 51 11t41.5 30t28 44.5t10.5 54.5q-3 13 -5.5 27t-7.5 29l-362 593v-593q0 -24 -24 -24q-25 0 -25 24v649q0 28 30 28q25 0 33 -15l361 -587v574q0 25 25 25q26 0 26 -25 v-704z" />
<glyph unicode="&#x14b;" d="M548 -34q0 -41 -14 -76.5t-39 -60.5t-60.5 -39t-77.5 -14h-37q-33 0 -33 26t32 25l37 -2h9q28 0 52 11t41.5 30t27.5 44.5t10 54.5v386q0 28 -10 51t-29.5 39t-45 24.5t-54.5 8.5q-26 0 -45 -2.5t-38 -15t-42.5 -35.5t-62.5 -64v-336q0 -24 -24 -24t-24 24l-2 474 q0 24 25 24q11 0 19 -9t8 -26v-52q26 26 48.5 43.5t45 28t46.5 15t54 4.5q47 0 84 -17.5t70 -68.5q27 -44 27 -79z" />
<glyph unicode="&#x14c;" d="M524 796q0 -27 -34 -27h-297q-34 0 -34 27q0 25 32 25h301q32 0 32 -25zM619 340q0 -74 -21 -139.5t-59.5 -114.5t-90.5 -77t-115 -28q-62 0 -113.5 29t-89.5 78t-59.5 114t-21.5 138q0 74 21.5 139t59 113.5t90.5 77t115 28.5q61 0 112.5 -29.5t89.5 -79.5t60 -115 t22 -134zM571 340q0 64 -18 120.5t-49.5 99.5t-75 67.5t-94.5 24.5q-52 0 -95.5 -26t-75 -69t-49 -100t-17.5 -117q0 -69 20 -125.5t53 -98t75.5 -64.5t88.5 -23q51 0 94 25.5t74.5 68.5t49.5 99t19 118z" />
<glyph unicode="&#x14d;" d="M528 652q0 -23 -29 -23l-310 -1q-30 0 -30 24q0 25 29 25h308q32 0 32 -25zM608 253q0 -58 -21 -108t-58 -86.5t-87 -57.5t-107 -21q-55 0 -105.5 21.5t-88.5 58.5t-60 87t-22 107q0 56 22.5 104.5t60.5 85t88 57.5t104 21q56 0 106 -21.5t87 -58t59 -85t22 -104.5z M560 251q0 44 -18.5 84t-49 70.5t-71.5 48.5t-86 18t-85.5 -18t-72 -48.5t-50 -70.5t-18.5 -84q0 -47 18 -87.5t48 -70t71.5 -47t88.5 -17.5t88 17.5t71.5 47.5t48 70t17.5 87z" />
<glyph unicode="&#x150;" d="M593 861q0 -6 -4 -10q-174 -139 -175 -139q-9 0 -16.5 10t-7.5 19q0 3 12.5 15t32 29t42 36t41.5 35t32.5 26.5l13.5 10.5q8 0 18.5 -11.5t10.5 -20.5zM426 861q0 -3 -13 -15t-32.5 -28t-42 -35t-42.5 -34.5t-33.5 -26t-14.5 -10.5q-10 0 -18 10t-8 19q0 4 12.5 16 t32.5 29t42.5 36t42 34.5t33 26l13.5 10.5q8 0 18 -11.5t10 -20.5zM619 340q0 -74 -21 -139.5t-59.5 -114.5t-90.5 -77t-115 -28q-62 0 -113.5 29t-89.5 78t-59.5 114t-21.5 138q0 74 21.5 139t59 113.5t90.5 77t115 28.5q61 0 112.5 -29.5t89.5 -79.5t60 -115t22 -134z M571 340q0 64 -18 120.5t-49.5 99.5t-75 67.5t-94.5 24.5q-52 0 -95.5 -26t-75 -69t-49 -100t-17.5 -117q0 -69 20 -125.5t53 -98t75.5 -64.5t88.5 -23q51 0 94 25.5t74.5 68.5t49.5 99t19 118z" />
<glyph unicode="&#x151;" d="M589 760q0 -11 -9 -20l-159 -132q-8 -6 -16 -6q-26 0 -26 26q0 10 10 19l159 133q9 5 16 5q25 0 25 -25zM423 760q0 -11 -9 -20l-159 -132q-8 -6 -16 -6q-26 0 -26 26q0 10 10 19l159 133q9 5 16 5q25 0 25 -25zM608 253q0 -58 -21 -108t-58 -86.5t-87 -57.5t-107 -21 q-55 0 -105.5 21.5t-88.5 58.5t-60 87t-22 107q0 56 22.5 104.5t60.5 85t88 57.5t104 21q56 0 106 -21.5t87 -58t59 -85t22 -104.5zM560 251q0 44 -18.5 84t-49 70.5t-71.5 48.5t-86 18t-85.5 -18t-72 -48.5t-50 -70.5t-18.5 -84q0 -47 18 -87.5t48 -70t71.5 -47t88.5 -17.5 t88 17.5t71.5 47.5t48 70t17.5 87z" />
<glyph unicode="&#x152;" d="M652 26q0 -26 -14 -26h-317q-69 0 -125.5 24.5t-96.5 69t-62 107t-22 139.5q0 104 30 172.5t102 119.5q71 51 164 51h327q14 0 14 -24q0 -26 -14 -26h-227v-253h147q13 0 13 -17q0 -34 -14 -34h-146v-278h227q14 0 14 -25zM363 633h-9.5t-15.5 2h-27q-58 0 -103.5 -21.5 t-78 -60.5t-49 -93t-16.5 -119q0 -66 18 -119.5t51 -91t81 -58.5t110 -21h39v582z" />
<glyph unicode="&#x153;" d="M662 79q0 -14 -20 -31t-47 -32t-55 -25.5t-44 -10.5q-31 0 -57.5 11t-47.5 30.5t-35 46t-18 57.5q-6 -31 -21 -57.5t-37 -46.5t-50 -31.5t-59 -11.5q-35 0 -64.5 25t-52.5 64.5t-35.5 89t-12.5 98.5t12.5 97t35.5 86.5t53 62.5t64 24q30 0 56.5 -10t48.5 -29.5t37 -45 t22 -54.5q15 63 61.5 100t109.5 37q35 0 62.5 -19.5t47.5 -56t31 -89t13 -116.5h-299q0 -38 11 -76t29.5 -68t43.5 -48.5t53 -18.5q12 0 36 12t47 25q27 17 56 38q8 0 16.5 -9t8.5 -18zM609 291q-29 186 -118 186q-99 0 -128 -186h246zM312 255q0 50 -8.5 90.5t-25.5 69.5 t-41 45.5t-53 16.5t-52.5 -18.5t-41 -49.5t-26.5 -71t-9 -84q0 -46 9 -87t26.5 -71t43 -47.5t56.5 -17.5q27 0 49.5 17t39 47t25 70.5t8.5 89.5z" />
<glyph unicode="&#x160;" d="M524 884h-1q0 -13 -14 -23l-152 -120q-36 27 -76.5 59t-86.5 71l-5 13q0 25 24 25q6 -1 24.5 -12t49.5 -36l69 -59l70 55q64 52 73 52q25 0 25 -25zM578 186q0 -47 -18 -84.5t-50.5 -65t-76.5 -42t-98 -14.5q-48 0 -93 14.5t-79 40t-54 61t-20 76.5q0 34 24 34h6t6 -4 t6.5 -15.5t7.5 -34.5q13 -52 64 -87t138 -35q38 0 73 12.5t61 33t41 49.5t15 63q0 32 -8 55t-30.5 39.5t-64 29.5t-106.5 24q-207 36 -207 186q0 42 16.5 76.5t45.5 59.5t68.5 39.5t85.5 14.5q39 0 78.5 -14t71 -38t51 -56t19.5 -67q0 -34 -22 -34q-7 0 -10 -0.5t-6 3t-5 14 t-7 32.5q-6 25 -21 45t-37.5 34.5t-50.5 23.5t-58 9q-35 0 -66 -10.5t-55 -30t-38 -45.5t-14 -58q0 -42 21.5 -67.5t58 -41t85.5 -25.5t102 -21q77 -19 113.5 -70t36.5 -109z" />
<glyph unicode="&#x161;" d="M498 734q0 -11 -15 -23l-152 -123q-32 24 -61.5 47.5t-52.5 43.5t-39 34t-17 19q0 25 27 25q21 0 141 -110q2 1 13.5 10.5t27 21.5t33.5 26t33 26.5t25.5 20l10.5 7.5q26 0 26 -25zM563 144q0 -37 -17 -67.5t-48 -51t-72.5 -32.5t-90.5 -12q-50 0 -92 10.5t-73 31 t-48.5 49t-17.5 64.5q0 32 25 32q10 0 17 -12t11 -26t6 -25t1 -10q8 -14 25 -25.5t40.5 -20t50 -13.5t53.5 -5q80 0 130.5 29t50.5 84q0 62 -78 88l-159 30q-46 8 -75 24t-46 34.5t-22.5 38t-5.5 37.5q0 29 15.5 53t42.5 41.5t64 27.5t79 10q39 0 76.5 -10.5t66.5 -28.5 t47 -42.5t18 -52.5q0 -34 -25 -34q-7 0 -13 10t-12.5 24.5t-14.5 29t-18 23.5q-43 32 -121 32q-31 0 -59.5 -7t-50.5 -19t-35.5 -28.5t-13.5 -35.5q0 -29 31.5 -54t111.5 -33q55 -6 90 -11.5t57.5 -13.5t37.5 -21.5t32 -33.5q29 -38 29 -78z" />
<glyph unicode="&#x16a;" d="M509 796q0 -27 -35 -27h-297q-33 0 -33 27q0 25 32 25h301q32 0 32 -25zM571 224q0 -51 -18 -95t-49.5 -77t-75 -52.5t-94.5 -19.5q-52 0 -95.5 19.5t-75 52.5t-49.5 77t-18 95v448q0 23 26 23q24 0 24 -25l-1 -446q0 -40 14 -75t39.5 -61.5t59.5 -42t75 -15.5 q39 0 73 15.5t59.5 42.5t40 62.5t14.5 73.5v446q0 25 25 25q26 0 26 -25v-446z" />
<glyph unicode="&#x16b;" d="M538 652q0 -23 -29 -23l-309 -1q-31 0 -31 24q0 25 29 25h309q31 0 31 -25zM545 21q0 -24 -23 -24q-22 0 -26 29q0 2 1 13t2 31q-103 -90 -219 -90q-71 0 -114.5 45.5t-43.5 116.5v353q0 24 24 24q25 0 25 -24v-353q0 -49 29.5 -80t77.5 -31q120 0 220 111v353 q0 24 23 24q24 0 24 -24v-474z" />
<glyph unicode="&#x170;" d="M574 861q0 -6 -3 -10q-174 -139 -175 -139q-9 0 -17 10t-8 19q0 3 13 15t32 29t41.5 36t42 35t32.5 26.5l13 10.5q9 0 19 -11.5t10 -20.5zM407 861q0 -3 -12.5 -15t-32.5 -28t-42.5 -35t-42 -34.5t-33 -26t-14.5 -10.5q-11 0 -19 10t-8 19q0 3 13 15.5t32.5 29.5t42 36 t42.5 34.5t33 26l13 10.5q10 0 19 -11.5t9 -20.5zM567 224q0 -51 -18 -95t-49 -77t-74.5 -52.5t-94.5 -19.5q-53 0 -96.5 19.5t-74.5 52.5t-49 77t-18 95v448q0 23 25 23t25 -25l-1 -446q0 -40 13.5 -75t39 -61.5t60 -42t74.5 -15.5t73.5 15.5t59 42.5t40 62.5t14.5 73.5 v446q0 25 26 25q25 0 25 -25v-446z" />
<glyph unicode="&#x171;" d="M575 760q0 -11 -9 -20l-159 -132q-8 -6 -16 -6q-26 0 -26 26q0 10 10 19l159 133q9 5 16 5q25 0 25 -25zM409 760q0 -11 -9 -20l-159 -132q-8 -6 -16 -6q-25 0 -25 26q0 10 9 19l159 133q9 5 16 5q25 0 25 -25zM521 21q0 -24 -23 -24q-22 0 -26 29q0 2 0.5 13t1.5 31 q-103 -90 -219 -90q-71 0 -114.5 45.5t-43.5 116.5v353q0 24 25 24q24 0 24 -24v-353q0 -49 29.5 -80t78.5 -31q120 0 219 111v353q0 24 23 24q25 0 25 -24v-474z" />
<glyph unicode="&#x172;" d="M571 224q0 -137 -127 -217q-10 -4 -26.5 -9t-31.5 -16.5t-26 -29.5t-11 -47q0 -37 21.5 -62.5t57.5 -25.5q15 0 29 8.5t25 18.5t18.5 18.5t9.5 8.5q26 0 26 -28q0 -15 -11 -29.5t-28 -25.5t-36 -18t-35 -7q-28 0 -50.5 10.5t-39 28t-25.5 42t-9 52.5q0 45 26 84 q-50 1 -92 21t-73.5 53t-49 77t-17.5 93v448q0 23 26 23q24 0 24 -25v-446q0 -40 14 -75t39.5 -61.5t59 -42t74.5 -15.5q39 0 73 15.5t59.5 42.5t40 62.5t14.5 73.5v446q0 25 25 25q26 0 26 -25v-446z" />
<glyph unicode="&#x173;" d="M545 21q0 -9 -12 -16t-30 -14t-38 -16t-33 -19q-47 -36 -47 -78q0 -28 16.5 -48.5t41.5 -20.5q16 0 27 9t19.5 19.5t14.5 20t13 9.5q25 0 25 -22q0 -18 -9.5 -33t-24.5 -26t-32.5 -17.5t-32.5 -6.5q-23 0 -42 9.5t-33 25t-21.5 36t-7.5 43.5q0 52 44 96.5t113 65.5 q2 6 2 13.5t1 18.5q-103 -90 -219 -90q-71 0 -114.5 45.5t-43.5 116.5v353q0 24 24 24q25 0 25 -24v-353q0 -49 29.5 -80t77.5 -31q120 0 220 111v353q0 24 23 24q24 0 24 -24v-474z" />
<glyph unicode="&#x178;" d="M507 826q0 -17 -14.5 -31t-33.5 -14t-33 12.5t-14 32.5q0 21 14.5 35.5t35.5 14.5q18 0 31.5 -16t13.5 -34zM267 826q0 -45 -49 -45q-43 0 -43 51q0 44 45 44q46 0 46 -50h1zM586 675q-1 -2 -26 -45.5t-77 -127.5l-119 -190v-291q0 -24 -24 -24t-24 24v291 q-235 343 -235 357q0 8 11 17t21 9q8 0 9 -5l216 -328l203 329q1 5 13 5q10 0 21 -6t11 -15z" />
<glyph unicode="&#x17d;" d="M488 884h-1q0 -13 -14 -23l-152 -120q-36 27 -76.5 59t-86.5 71l-5 13q0 25 24 25q6 -1 24.5 -12t49.5 -36l69 -59l70 55q64 52 73 52q25 0 25 -25zM587 24q0 -24 -35 -24h-453q-19 0 -19 21q0 22 17 49l383 565l-361 -2q-35 0 -35 29q0 28 34 28h407q17 0 17 -21 q0 -22 -17 -47l-380 -571l406 -1q36 0 36 -26z" />
<glyph unicode="&#x17e;" d="M488 734q0 -11 -15 -23l-152 -123q-31 24 -60.5 47.5t-53 43.5t-39 34t-16.5 19q0 25 27 25q21 0 141 -110q1 1 13 10.5t27.5 21.5t33.5 26t33 26.5t25.5 20l10.5 7.5q25 0 25 -25zM579 24q0 -24 -35 -24h-430q-12 0 -12 15q0 19 12 31l351 415h-342q-35 0 -35 25 q0 27 35 27l405 -1q11 0 11 -14q0 -19 -10 -31l-353 -416l367 -1q36 0 36 -26z" />
<glyph unicode="&#x18f;" d="M606 362q0 -81 -20.5 -150.5t-57.5 -121.5t-89 -81t-113 -29q-67 0 -114.5 17t-77.5 57.5t-43 109t-13 172.5q0 26 15 26h467q-2 54 -23.5 107t-56.5 94t-80 66.5t-94 25.5q-54 0 -96.5 -20.5t-87.5 -70.5q-30 -34 -38 -33q-10 0 -17 6t-7 19q0 12 26 43q39 48 98.5 77.5 t119.5 29.5q63 0 117.5 -29t95.5 -76.5t65 -109.5t24 -129zM558 311h-432q0 -73 10.5 -126t34.5 -87t62 -51t93 -17q50 0 90.5 20t70 56.5t48 88t23.5 116.5z" />
<glyph unicode="&#x192;" d="M538 708q-1 -13 -11 -19t-22 -6h-56q-57 0 -94 -28.5t-37 -73.5v-73h188q31 0 31 -25q0 -27 -31 -27h-188v-490q0 -41 -14 -76.5t-39 -60.5t-60.5 -39t-76.5 -14h-38q-34 0 -34 26t32 25l37 -2h10q27 0 51.5 11.5t42 30.5t28 44.5t10.5 53.5v491h-106q-33 0 -33 28 q0 24 32 24h107v73q0 34 15 61.5t40 48t58 32t69 11.5h56q12 0 23 -7t10 -19z" />
<glyph unicode="&#x194;" d="M585 675q0 -8 -221 -364q71 -99 71 -208q0 -106 -96 -106q-94 0 -94 106q0 23 5.5 52t15.5 57.5t23 54.5t27 45l-234 356q0 9 11 18t21 9q5 0 9 -5l216 -328l203 328q1 5 11 7q10 0 21 -6.5t11 -15.5zM340 30q47 0 47 84q0 102 -49 152q-49 -51 -49 -148q0 -88 51 -88z " />
<glyph unicode="&#x1b7;" d="M565 205q0 -46 -20 -86.5t-53 -71t-75 -47.5t-89 -17q-44 0 -84 12t-71 28t-50 33t-19 28q0 24 22 24l11 -7t28 -16.5t35 -19t31 -14.5q24 -10 48.5 -15t47.5 -5q38 0 72.5 13t60.5 35.5t41.5 54t15.5 69.5q0 36 -16.5 69t-45 57.5t-65.5 39t-77 14.5q-32 0 -32 24 q0 20 21 22l198 202l-363 2q-35 0 -35 29q0 28 35 28h407q15 0 15 -21t-16 -47l-187 -195l74 -27q135 -62 135 -195z" />
<glyph unicode="&#x1ea;" d="M619 340q0 -51 -12.5 -101.5t-35 -95t-54.5 -79.5t-69 -56l-45 -17q-27 -11 -40 -33.5t-13 -53.5q0 -36 21 -61.5t57 -25.5q16 0 30 8.5t24.5 18.5t18 18.5t9.5 8.5q26 0 26 -28q0 -15 -11.5 -29.5t-28.5 -25.5t-36 -18t-34 -7q-28 0 -50.5 10.5t-39 28t-25.5 42t-9 52.5 q0 47 27 85q-60 2 -111 31t-88.5 77.5t-59 113.5t-21.5 137q0 74 21.5 139.5t59.5 114.5t90.5 76.5t114.5 27.5q61 0 112.5 -29.5t89.5 -79.5t60 -115t22 -134zM571 340q0 64 -18 120.5t-49.5 99.5t-75 67.5t-94.5 24.5t-94.5 -25.5t-75 -69t-49.5 -100t-18 -117.5 q0 -62 18 -118t49.5 -99t75 -68.5t94.5 -25.5t94.5 26t75 69t49.5 99.5t18 116.5z" />
<glyph unicode="&#x1eb;" d="M608 253q0 -42 -11 -80t-32 -71.5t-51 -59t-69 -40.5l-37 -12q-58 -21 -58 -89q0 -36 21.5 -60t56.5 -24q16 0 30 8.5t24.5 18.5t18 18.5t9.5 8.5q26 0 26 -28q0 -15 -11.5 -29.5t-28.5 -25.5t-36 -18t-34 -7q-28 0 -50.5 10.5t-39 28t-25.5 42t-9 52.5q0 45 26 84 q-55 1 -104.5 24t-86 60t-57.5 85.5t-21 104.5t22.5 104.5t60.5 85t88 57.5t104 21q56 0 106 -21.5t87 -58t59 -85t22 -104.5zM560 251q0 44 -18.5 84t-49.5 70.5t-72 48.5t-85 18q-45 0 -85.5 -18t-72 -48.5t-50 -70.5t-18.5 -84q0 -47 18 -87.5t48 -70t71.5 -47 t88.5 -17.5t88 17.5t71.5 47.5t48 70t17.5 87z" />
<glyph unicode="&#x1ec;" d="M619 340q0 -51 -12.5 -101.5t-35 -95t-54.5 -79.5t-69 -56l-45 -17q-27 -11 -40 -33.5t-13 -53.5q0 -36 21 -61.5t57 -25.5q16 0 30 8.5t24.5 18.5t18 18.5t9.5 8.5q26 0 26 -28q0 -15 -11.5 -29.5t-28.5 -25.5t-36 -18t-34 -7q-28 0 -50.5 10.5t-39 28t-25.5 42t-9 52.5 q0 47 27 85q-60 2 -111 31t-88.5 77.5t-59 113.5t-21.5 137q0 74 21.5 139.5t59.5 114.5t90.5 76.5t114.5 27.5q61 0 112.5 -29.5t89.5 -79.5t60 -115t22 -134zM571 340q0 64 -18 120.5t-49.5 99.5t-75 67.5t-94.5 24.5t-94.5 -25.5t-75 -69t-49.5 -100t-18 -117.5 q0 -62 18 -118t49.5 -99t75 -68.5t94.5 -25.5t94.5 26t75 69t49.5 99.5t18 116.5zM516 796q0 -27 -35 -27h-297q-33 0 -33 27q0 25 32 25h301q32 0 32 -25z" />
<glyph unicode="&#x1ed;" d="M608 253q0 -42 -11 -80t-32 -71.5t-51 -59t-69 -40.5l-37 -12q-58 -21 -58 -89q0 -36 21.5 -60t56.5 -24q16 0 30 8.5t24.5 18.5t18 18.5t9.5 8.5q26 0 26 -28q0 -15 -11.5 -29.5t-28.5 -25.5t-36 -18t-34 -7q-28 0 -50.5 10.5t-39 28t-25.5 42t-9 52.5q0 45 26 84 q-55 1 -104.5 24t-86 60t-57.5 85.5t-21 104.5t22.5 104.5t60.5 85t88 57.5t104 21q56 0 106 -21.5t87 -58t59 -85t22 -104.5zM560 251q0 44 -18.5 84t-49.5 70.5t-72 48.5t-85 18q-45 0 -85.5 -18t-72 -48.5t-50 -70.5t-18.5 -84q0 -47 18 -87.5t48 -70t71.5 -47 t88.5 -17.5t88 17.5t71.5 47.5t48 70t17.5 87zM519 652q0 -24 -29 -24h-310q-30 0 -30 24q0 25 29 25h308q32 0 32 -25z" />
<glyph unicode="&#x259;" d="M607 241q0 -55 -21 -103t-57 -83t-85.5 -55t-105.5 -20q-48 0 -90.5 13t-75 45t-51.5 86.5t-20 138.5h459q-12 99 -75 156.5t-161 57.5q-62 0 -112 -14t-91 -59q-13 -15 -23 -21.5t-13 -6.5q-25 0 -25 24q0 19 27 41.5t67 41.5t85.5 32t84.5 13q59 0 110.5 -22t90 -61 t60.5 -91t22 -113zM559 216h-409q4 -36 8 -57.5t9.5 -35t12.5 -22t20 -19.5q60 -53 142 -53q85 0 143.5 51t73.5 136z" />
<glyph unicode="&#x263;" d="M585 505q0 -9 -221 -365q71 -98 71 -207q0 -107 -96 -107q-94 0 -94 107q0 23 5.5 52t15.5 57.5t23 54.5t27 45l-234 356q0 9 11 17.5t21 8.5q5 0 9 -4l216 -329l203 329q1 4 11 7q10 0 21 -6.5t11 -15.5zM340 -140q47 0 47 83q0 102 -49 152q-49 -51 -49 -147 q0 -88 51 -88z" />
<glyph unicode="&#x292;" d="M565 26q0 -48 -20.5 -88.5t-53.5 -70t-75 -47t-88 -17.5q-44 0 -84 12t-71 28.5t-50 33t-19 27.5q0 24 22 24l11 -7t28 -16t35 -19t31 -15q24 -10 48.5 -14.5t47.5 -4.5q37 0 71.5 12t61 34.5t42 54.5t15.5 70q0 36 -16.5 69t-45 57.5t-65.5 39t-77 14.5q-32 0 -32 24 q0 20 21 22l198 202l-363 3q-35 0 -35 29q0 27 35 27h407q15 0 15 -20q0 -21 -16 -48l-187 -195l74 -27q135 -62 135 -194z" />
<glyph unicode="&#x294;" d="M536 479q0 -31 -7.5 -55t-28.5 -45.5t-57.5 -44t-95.5 -50.5v-271q0 -33 -25 -33q-24 0 -24 33v301q56 22 93 41.5t59 38t31 38.5t9 45q0 32 -13.5 61t-35.5 50.5t-51 34t-62 12.5q-59 0 -102.5 -24.5t-48.5 -66.5q0 -9 -6 -24l-14 -10q-25 0 -26 33q0 10 14 40 q50 101 187 101q45 0 82 -15t64.5 -42t42.5 -65t15 -83z" />
<glyph unicode="&#x2c0;" d="M536 479q0 -31 -7.5 -55t-28.5 -45.5t-57.5 -44t-95.5 -50.5v-51q1 1 1 2q-1 -27 -26 -34q-24 0 -24 32v81q56 22 93 41.5t59 38t31 38.5t9 45q0 32 -13.5 61t-35.5 50.5t-51 34t-62 12.5q-59 0 -102.5 -24.5t-48.5 -66.5q0 -9 -6 -24l-14 -10q-25 0 -26 33q0 10 14 40 q50 101 187 101q45 0 82 -15t64.5 -42t42.5 -65t15 -83z" />
<glyph unicode="&#x2c6;" d="M501 628q-2 -25 -25 -25q-5 0 -18 9t-32 24t-43.5 34.5t-50.5 42.5l-124 -101q-5 -4 -19 -9q-8 0 -15.5 8t-7.5 17q0 12 13 23l154 122l87 -68q32 -25 52 -42t27 -26q1 -1 1 -2q0 -4 1 -7z" />
<glyph unicode="&#x2c7;" d="M501 730q0 -6 -6.5 -14t-24.5 -24t-51.5 -42t-86.5 -68l-152 122q-14 12 -14 24q0 13 7.5 18.5t12.5 5.5h3l19 -7l124 -102q126 109 144 109q25 -1 25 -22z" />
<glyph unicode="&#x2d0;" d="M387 510l-29 -134q-3 -41 -25 -41q-13 0 -16.5 6.5t-9.5 33.5l-27 135h107zM387 -6h-107l27 136q6 27 9.5 33t16.5 6q22 0 25 -40z" />
<glyph unicode="&#x2d1;" d="M387 510l-29 -134q-3 -41 -25 -41q-13 0 -16.5 6.5t-9.5 33.5l-27 135h107z" />
<glyph unicode="&#x2d8;" d="M495 771q0 -37 -12.5 -67.5t-34 -52.5t-51 -35t-63.5 -13q-35 0 -64 13t-51 35.5t-34 53t-12 65.5h44q0 -53 33.5 -88t85.5 -35q25 0 46.5 9.5t37.5 26t25.5 39t9.5 48.5z" />
<glyph unicode="&#x2d9;" d="M380 669q0 -17 -15 -31t-32 -14q-45 0 -45 45q0 21 13 35t34 14q19 0 32 -15t13 -34z" />
<glyph unicode="&#x2da;" d="M434 694q0 -44 -28 -75t-72 -31q-43 0 -71.5 31.5t-28.5 74.5q0 21 9 40t23.5 33.5t33.5 23t40 8.5q18 0 35 -9t30.5 -24t21 -34.5t7.5 -37.5zM403 701q0 11 -6.5 22t-16.5 20t-22 14t-24 5q-30 0 -47 -19t-17 -48q0 -70 68 -70q30 0 47.5 22t17.5 54z" />
<glyph unicode="&#x2db;" d="M423 -96q0 -10 -10 -17.5t-25.5 -13.5t-32 -9.5t-29.5 -3.5q-36 0 -59 19t-23 49q0 28 23 46.5t52 18.5h75l-75 -35q-20 -1 -31 -8t-11 -20q0 -16 14.5 -25t32.5 -9q9 0 20 1.5t23 7.5l38 17l14 -4q4 -5 4 -14z" />
<glyph unicode="&#x2dc;" d="M513 689q0 -10 -13.5 -27t-31.5 -32.5t-37.5 -26.5t-33.5 -11q-15 0 -34.5 11.5t-38 26t-33 26t-20.5 11.5q-9 0 -23 -11.5t-28.5 -25t-26 -25t-14.5 -11.5q-25 0 -25 23q0 12 13 28t31.5 31t38 26t32.5 11q16 0 36 -11.5t38 -25.5t32.5 -25.5t20.5 -11.5q9 0 23 11.5 t28.5 25t26 25t14.5 11.5q25 0 25 -23z" />
<glyph unicode="&#x2dd;" d="M522 760q0 -11 -9 -20l-159 -132q-9 -6 -18 -6q-25 0 -25 26q0 10 9 19l159 133q9 5 17 5q26 0 26 -25zM356 760q0 -11 -9 -20l-159 -132q-9 -6 -17 -6q-26 0 -26 26q0 10 9 19l159 133q9 5 18 5q25 0 25 -25z" />
<glyph unicode="&#x300;" horiz-adv-x="0" d="M-229 628q0 -26 -25 -26q-8 0 -16 6l-159 132q-9 9 -9 20q0 25 25 25q8 0 16 -5l159 -133q9 -9 9 -19z" />
<glyph unicode="&#x301;" horiz-adv-x="0" d="M-173 760q0 -11 -9 -20l-159 -132q-8 -6 -16 -6q-26 0 -26 26q0 10 9 19l159 133q9 5 17 5q25 0 25 -25z" />
<glyph unicode="&#x304;" horiz-adv-x="0" d="M-148 652q0 -23 -29 -23l-310 -1q-30 0 -30 24q0 25 29 25h308q32 0 32 -25z" />
<glyph unicode="&#x30b;" horiz-adv-x="0" d="M-145 760q0 -11 -9 -20l-159 -132q-8 -6 -18 -6q-25 0 -25 26q0 10 9 19l159 133q8 5 17 5q26 0 26 -25zM-311 760q0 -11 -9 -20l-159 -132q-8 -6 -17 -6q-26 0 -26 26q0 10 9 19l159 133q8 5 18 5q25 0 25 -25z" />
<glyph unicode="&#x30c;" horiz-adv-x="0" d="M-166 730q0 -8 -7 -18.5t-18.5 -21.5t-26 -22t-29.5 -22l-88 -64l-152 122q-14 12 -14 24q0 -2 7 19q6 5 11 5q10 -1 29 -12.5t47 -34.5l72 -62q124 109 144 109q25 0 25 -22z" />
<glyph unicode="&#x328;" horiz-adv-x="0" d="M-244 -96q0 -10 -10 -17.5t-26 -13.5t-32.5 -9.5t-28.5 -3.5q-34 0 -58 18t-24 50q0 28 23 46.5t52 18.5h75l-75 -35q-42 -2 -42 -28q0 -34 47 -34q15 0 81 26l14 -4q4 -5 4 -14z" />
<glyph unicode="&#x358;" horiz-adv-x="0" d="M-23 709q0 -22 -17 -38.5t-39 -16.5q-23 0 -40.5 17.5t-17.5 40.5t17 39.5t41 16.5q23 0 39.5 -18t16.5 -41z" />
<glyph unicode="&#x3a9;" d="M624 21q0 -26 -14 -26h-219q-15 0 -15 25q0 62 49 124l91 107q50 67 50 147q0 58 -17 105t-48 80t-74.5 51t-97.5 18t-98 -19t-75 -53t-47 -80t-16 -102q0 -79 51 -147l97 -106q52 -61 52 -124q0 -26 -13 -26h-220q-15 0 -15 25t15 25h160q0 25 -12 51t-31 52t-42.5 52 t-45.5 51q-45 67 -45 147q0 68 20 124t57 94.5t89.5 60t120.5 21.5q63 0 116 -21.5t90 -60.5t57.5 -95t20.5 -123q0 -80 -47 -147l-83 -99q-45 -55 -45 -107h169q15 0 15 -24z" />
<glyph unicode="&#x3c0;" d="M628 26q0 -26 -33 -26h-102q-26 0 -26 24v433h-261v-436q0 -24 -24 -24q-25 0 -25 24v436h-72q-32 0 -39 4t-7 19t12.5 22t33.5 7h495q32 0 32 -29q0 -22 -5 -24q0 1 -27 1h-61v-409h77q32 0 32 -22z" />
<glyph unicode="&#x1e9e;" d="M380 -3l-59 9q-59 24 -89.5 68.5t-30.5 97.5q0 34 23 34q3 0 6 1t5.5 -4t5.5 -16t8 -35q6 -29 30 -57t59 -44l56 -7q25 4 49 15.5t44 30.5t32.5 43.5t12.5 54.5q0 130 -206 138l-56 2l214 318l-151 -1q-41 0 -75 -15.5t-59.5 -42t-39.5 -61.5t-14 -75l1 -446 q0 -25 -24 -25q-26 0 -26 23v448q0 51 18 96t50 78t75.5 51.5t94.5 18.5h193q15 0 15 -21q0 -22 -17 -48l-170 -256q21 -2 40.5 -4.5t39.5 -4.5q148 -54 148 -174q0 -34 -12 -66.5t-37 -58.5t-63 -44t-91 -21z" />
<glyph unicode="&#x2010;" d="M519 346q0 -26 -29 -26h-309q-31 0 -31 26q0 25 29 25h308q32 0 32 -25z" />
<glyph unicode="&#x2011;" d="M519 346q0 -26 -29 -26h-309q-31 0 -31 26q0 25 29 25h308q32 0 32 -25z" />
<glyph unicode="&#x2012;" d="M519 346q0 -26 -29 -26h-309q-31 0 -31 26q0 25 29 25h308q32 0 32 -25z" />
<glyph unicode="&#x2013;" d="M577 346q0 -26 -29 -26h-425q-31 0 -31 26q0 25 29 25h424q32 0 32 -25z" />
<glyph unicode="&#x2014;" d="M630 346q0 -26 -29 -26h-531q-32 0 -32 26q0 25 29 25h532q31 0 31 -25z" />
<glyph unicode="&#x2015;" d="M630 346q0 -26 -29 -26h-531q-32 0 -32 26q0 25 29 25h532q31 0 31 -25z" />
<glyph unicode="&#x2016;" d="M426 701l-1 -819q0 -34 -25 -34q-14 0 -19 8.5t-5 25.5l1 821q0 30 23 30q26 0 26 -32zM292 701l-1 -819q0 -34 -24 -34q-14 0 -19.5 8.5t-5.5 25.5l2 821q0 30 23 30q25 0 25 -32z" />
<glyph unicode="&#x2017;" d="M667 -205h-667v51h667v-51zM667 -106h-667v51h667v-51z" />
<glyph unicode="&#x2018;" d="M416 509q0 -69 -73 -69q-41 0 -66.5 31.5t-25.5 84.5q0 23 12.5 50t32.5 52.5t43 45.5t45 27l12 -22q-97 -63 -99 -129q0 -17 16 -17q6 0 15.5 2.5t13.5 2.5q30 0 52 -15t22 -44z" />
<glyph unicode="&#x2019;" d="M416 588q0 -23 -12.5 -50.5t-31.5 -52t-43 -45t-46 -27.5l-10 22q96 68 96 129q0 17 -16 17q-5 0 -15 -3t-16 -3q-31 0 -51 16t-20 44q0 69 71 69q45 0 69.5 -33t24.5 -83z" />
<glyph unicode="&#x201a;" d="M416 5q0 -24 -12.5 -51t-32.5 -52.5t-43 -45.5t-45 -27l-10 24q96 65 96 127q0 18 -16 18q-5 0 -15 -3t-16 -3q-30 0 -50.5 15.5t-20.5 43.5q0 70 70 70q44 0 69.5 -31.5t25.5 -84.5z" />
<glyph unicode="&#x201b;" d="M416 635q0 -29 -21 -44.5t-50 -15.5q-5 0 -15 3t-16 3q-16 0 -16 -17q0 -61 96 -129l-10 -22q-22 7 -46 27.5t-43 45t-31.5 52t-12.5 50.5q0 49 23.5 82.5t70.5 33.5q71 0 71 -69z" />
<glyph unicode="&#x201c;" d="M529 519q0 -72 -71 -72q-43 0 -69 33.5t-26 84.5q0 24 13 52t32.5 53t43.5 44.5t47 26.5l10 -23q-94 -59 -94 -135q0 -11 11 -11q6 0 15.5 3t14.5 3q73 0 73 -59zM305 516q0 -36 -17.5 -53.5t-55.5 -17.5q-44 0 -69 34t-25 85q0 24 13 52t32.5 53t43.5 44.5t47 26.5 l10 -23q-100 -63 -100 -129q0 -17 17 -17q5 0 15 3t15 3q73 0 74 -61z" />
<glyph unicode="&#x201d;" d="M529 594q0 -23 -13 -50.5t-32.5 -53t-44 -45.5t-46.5 -27l-9 24q99 64 99 128q0 17 -17 17q-4 0 -14 -3t-16 -3q-73 0 -73 59q0 72 72 72q44 0 69 -33.5t25 -84.5zM304 594q0 -23 -13 -51.5t-32.5 -54t-44 -44.5t-46.5 -26l-10 23q94 59 94 134q0 12 -11 12q-4 0 -14 -3 t-16 -3q-73 0 -73 59q0 72 72 72q44 0 69 -33.5t25 -84.5z" />
<glyph unicode="&#x201e;" d="M530 2q0 -23 -13.5 -51t-33 -53.5t-43.5 -45t-46 -25.5l-9 22q99 64 99 129q0 17 -18 17q-4 0 -14 -2.5t-15 -2.5q-39 0 -56.5 16t-17.5 49q0 66 73 66q42 0 68 -34.5t26 -84.5zM305 2q0 -23 -13.5 -51t-33 -53.5t-43.5 -45t-46 -25.5l-10 22q94 61 94 135q0 11 -12 11 q-4 0 -14 -2.5t-15 -2.5q-39 0 -56.5 16t-17.5 49q0 66 73 66q42 0 68 -34.5t26 -84.5z" />
<glyph unicode="&#x201f;" d="M529 640q0 -59 -73 -59q-5 0 -14.5 3t-15.5 3q-11 0 -11 -12q0 -75 94 -134l-10 -23q-23 7 -47 26t-43.5 44.5t-32.5 53.5t-13 52q0 51 25 84.5t69 33.5q72 0 72 -72zM304 640q0 -59 -73 -59q-5 0 -15 3t-15 3q-17 0 -17 -17q0 -64 99 -128l-9 -24q-23 7 -47 26.5 t-43.5 45t-32.5 53.5t-13 51q0 51 25 84.5t69 33.5q72 0 72 -72z" />
<glyph unicode="&#x2020;" d="M535 484q0 -27 -29 -27h-146v-501q0 -31 -28 -31q-21 0 -21 30v502h-146q-32 0 -32 27q0 24 32 24h146v193q0 33 24 33q25 0 25 -33v-193l143 -1q32 0 32 -23z" />
<glyph unicode="&#x2021;" d="M546 179q0 -22 -34 -22h-152v-201q0 -31 -26 -31q-25 0 -25 30v202l-155 -2q-33 0 -33 26q0 22 31 22h157v255h-157q-30 0 -30 27q0 23 30 23h157l1 193q0 31 24 31q13 0 20 -8.5t7 -22.5l-1 -193h154q32 0 32 -25t-34 -25h-152v-255h153q33 0 33 -24z" />
<glyph unicode="&#x2022;" d="M473 374q0 -28 -11 -54.5t-29.5 -46.5t-44 -33t-54.5 -13t-54 12.5t-44 32.5t-30 47t-11 55q0 29 11 54.5t30 45t44.5 31t54.5 11.5q27 0 52 -12t44 -32.5t30.5 -46t11.5 -51.5z" />
<glyph unicode="&#x2023;" d="M595 340l-522 -301v597z" />
<glyph unicode="&#x2024;" d="M401 60q0 -25 -18 -43.5t-43 -18.5h-15q-26 0 -42.5 18.5t-16.5 43.5q0 26 16 46t42 20h16q25 0 43 -20t18 -46z" />
<glyph unicode="&#x2025;" d="M517 61q0 -25 -17 -43.5t-44 -18.5h-15q-26 0 -42.5 18.5t-16.5 43.5q0 26 16.5 46.5t41.5 20.5h16q27 0 44 -20.5t17 -46.5zM284 61q0 -25 -17.5 -43.5t-43.5 -18.5h-15q-26 0 -43 18.5t-17 43.5q0 26 17 46.5t41 20.5h17q26 0 43.5 -20.5t17.5 -46.5z" />
<glyph unicode="&#x2026;" d="M630 61q0 -25 -17.5 -43.5t-44.5 -18.5h-15q-25 0 -42 18.5t-17 43.5q0 26 17 46.5t41 20.5h16q27 0 44.5 -20.5t17.5 -46.5zM405 61q0 -25 -17.5 -43.5t-44.5 -18.5h-15q-25 0 -42 18.5t-17 43.5q0 26 17 46.5t41 20.5h16q27 0 44.5 -20.5t17.5 -46.5zM172 61 q0 -25 -17.5 -43.5t-44.5 -18.5h-15q-25 0 -42 18.5t-17 43.5q0 26 17 46.5t41 20.5h16q27 0 44.5 -20.5t17.5 -46.5z" />
<glyph unicode="&#x2027;" d="M401 426q0 -25 -18.5 -44t-42.5 -19h-15q-27 0 -42.5 18t-15.5 45q0 66 57 66h16q27 0 44 -19t17 -47z" />
<glyph unicode="&#x2030;" d="M329 595q0 -29 -10 -57t-29.5 -49.5t-45.5 -34t-56 -12.5q-31 0 -57.5 12t-45 33t-29 49t-10.5 59q0 30 10.5 57.5t30 47.5t44 32.5t55.5 12.5q30 0 56.5 -12.5t45.5 -32.5t30 -47.5t11 -57.5zM646 137q0 -29 -11.5 -57t-30.5 -50t-46 -35.5t-56 -13.5q-30 0 -55.5 13 t-44.5 34.5t-30 50t-11 58.5t10.5 57.5t29.5 47.5t44.5 32.5t56.5 12.5q30 0 57 -12.5t46 -32.5t30 -47.5t11 -57.5zM500 441q-5 -9 -10.5 -14t-8.5 -6l-443 -148q-9 3 -10.5 5t-5.5 10q1 15 17 21q430 149 445 149q10 -3 16 -17zM341 138q0 -29 -10.5 -57t-29.5 -49.5 t-45 -34t-58 -12.5q-31 0 -57 12t-44.5 33t-29 49t-10.5 59q0 29 10.5 56.5t29 48t44 33.5t55.5 13q31 0 58 -11.5t46 -32t30 -48.5t11 -59zM299 592q0 24 -9 45t-23.5 36.5t-35 24t-43.5 8.5q-49 0 -78.5 -34t-29.5 -80q0 -24 8 -44.5t22.5 -37t34.5 -26.5t44 -10t44 9.5 t35 25t23 37t8 46.5zM611 136q0 22 -9 43.5t-25 37.5t-36.5 26t-42.5 10q-24 0 -43 -10.5t-32.5 -26.5t-21 -38.5t-7.5 -44.5q0 -48 30 -82t78 -34q22 0 42 10t35 27t23.5 38t8.5 44zM305 136q0 24 -8 45t-23 36.5t-35 25t-43 9.5q-49 0 -77.5 -34t-28.5 -82 q0 -25 8.5 -46.5t22.5 -37.5t33 -26t42 -10t43 9.5t35 26t23 38t8 46.5z" />
<glyph unicode="&#x2039;" d="M481 27q0 -27 -23 -27q-11 0 -26 15l-245 240l245 239q13 14 26 14q23 0 23 -24q0 -13 -12 -26l-195 -203l195 -204q12 -15 12 -24z" />
<glyph unicode="&#x203a;" d="M484 255l-251 -240q-15 -15 -24 -15q-14 0 -18.5 7t-4.5 20q0 12 11 24l196 204l-196 204q-13 13 -13 25q0 23 21 23q13 0 28 -13z" />
<glyph unicode="&#x2044;" d="M559 785q0 -7 -185 -410q-74 -160 -117.5 -254.5t-68 -143.5t-35.5 -63.5t-20 -14.5q-25 0 -25 23q0 11 185 411q67 144 110.5 236t70 145.5t40 74t18.5 20.5q27 0 27 -24z" />
<glyph unicode="&#x20ac;" d="M122 297h371q28 0 28 -26q0 -25 -30 -25h-359q14 -44 41.5 -81t64 -64t80 -41.5t89.5 -14.5q123 0 208 88q7 9 16 9q26 0 26 -26q0 -9 -7 -16q-100 -103 -243 -103q-57 0 -109.5 18.5t-96 51.5t-75 78.5t-45.5 100.5h-42q-29 0 -29 25q0 26 28 26h34l-1 10q-1 6 -1 13v13 v15h-31q-29 0 -29 26q0 25 28 25h39l1 7q12 57 43 105.5t74.5 84t98 55t113.5 19.5q143 0 243 -103q7 -7 7 -16q0 -26 -26 -26q-9 0 -16 9q-85 88 -208 88q-49 0 -94 -16.5t-81.5 -45t-64 -68.5t-39.5 -86l-2 -7h412q28 0 28 -25q0 -26 -30 -26h-417v-15v-13t2 -13z" />
<glyph unicode="&#x2122;" d="M635 360q-3 -18 -19 -18q-19 0 -19 18v287l-85 -196q-5 -11 -20 -11q-16 0 -21 10l-86 194v-284q0 -18 -18 -18q-20 0 -20 18l1 331q0 17 26 17q24 0 30 -14l88 -199l85 200q4 13 25 13q33 0 33 -17v-331zM328 677q0 -17 -11 -17h-119l2 -300q0 -18 -18 -18t-18 18v300 l-121 1q-11 0 -11 19q0 17 11 17h274q9 0 11 -20z" />
<glyph unicode="&#x2202;" d="M596 244q0 -65 -27 -114.5t-67 -82.5t-86.5 -50t-84.5 -17q-56 0 -103.5 22t-82 60t-54 86.5t-19.5 103.5t20.5 104t55.5 86t82.5 58.5t102.5 21.5q89 0 137 -36q-26 52 -62 97.5t-77 78.5t-84.5 51.5t-85.5 18.5q-13 0 -13 17q0 22 17 25q48 0 99.5 -22t100 -62 t91.5 -96t76 -122q32 -64 48 -120t16 -108zM548 253q0 45 -17 85t-45.5 70t-67.5 48t-82 18q-44 0 -82.5 -18t-67.5 -48.5t-46 -70.5t-17 -84q0 -48 15.5 -88.5t44 -70.5t67.5 -47t85 -17q47 0 85.5 17.5t67 47.5t44.5 70.5t16 87.5z" />
<glyph unicode="&#x2206;" d="M629 0h-591l257 684q7 21 39 21q33 0 41 -22zM559 51l-216 582h-18l-222 -582h456z" />
<glyph unicode="&#x220f;" d="M623 659q0 -22 -14 -26h-34v-612q0 -24 -24 -24t-24 24v612h-381v-612q0 -24 -25 -24q-26 0 -26 24v612h-30t-14.5 2.5t-5 7.5t-0.5 15q0 25 15 25h548q15 0 15 -24z" />
<glyph unicode="&#x2211;" d="M587 24q0 -24 -35 -24h-452q-18 0 -19 21q0 22 18 49l184 273l-184 279q-15 24 -15 44q0 24 15 24h408q34 0 34 -25q0 -28 -34 -28h-363l199 -292l-197 -294l406 -1q35 0 35 -26z" />
<glyph unicode="&#x221a;" d="M588 670l-289 -669q-10 -22 -41 -22q-25 0 -35 21l-143 287q-1 1 -1 3q0 8 20 8q27 0 32 -11l122 -236h20l262 619q4 14 29 14q24 0 24 -8v-6z" />
<glyph unicode="&#x221e;" d="M653 369q0 -48 -10.5 -87.5t-30.5 -68.5t-48 -44.5t-63 -15.5q-58 0 -101 52q-13 15 -66 108q-31 -53 -52 -85t-38.5 -49.5t-35 -22.5t-40.5 -5q-36 0 -64.5 16.5t-48.5 45.5t-30.5 69t-10.5 87q0 98 39.5 157t111.5 59q25 0 46 -7.5t40 -27.5t39.5 -54.5t45.5 -89.5 q62 176 163 176q32 0 60.5 -18t49.5 -47.5t32.5 -67.5t11.5 -80zM610 374q0 34 -7 63t-20 50.5t-32.5 34t-43.5 12.5q-86 0 -145 -167q18 -48 34.5 -78.5t32.5 -49.5t33.5 -26.5t38.5 -7.5q26 0 46 13t34 35.5t21.5 53.5t7.5 67zM300 376q-17 45 -33 75t-32.5 49t-34 26.5 t-38.5 7.5q-25 0 -46 -13.5t-35.5 -36t-22 -54t-7.5 -66.5q0 -33 7.5 -63t21.5 -52t33.5 -34t44.5 -12q88 0 142 173z" />
<glyph unicode="&#x222b;" d="M580 713q0 -18 -23 -24q-62 14 -77 14q-59 0 -91.5 -40.5t-32.5 -101.5l-1 -490q0 -35 -14 -68t-37 -59t-53.5 -42t-63.5 -16q-43 0 -71.5 12.5t-28.5 33.5q0 13 22 20q50 -13 80 -13q55 0 86.5 38t31.5 101v482q0 42 13.5 77t38 60.5t58 39.5t74.5 14q89 0 89 -38z" />
<glyph unicode="&#x2248;" d="M606 484q0 -18 -14.5 -33t-37.5 -27t-50 -19t-52 -7q-18 0 -51.5 8t-70.5 18t-70 18t-50 8q-55 0 -135 -45q-12 1 -12 20q0 18 12 35t33 29t48 19t57 7q19 0 52 -8t69.5 -18.5t70 -18.5t51.5 -8q13 0 33.5 7t41.5 15t37.5 15t18.5 7q19 -1 19 -22zM606 306 q0 -16 -15.5 -31t-38 -26.5t-49 -18.5t-49.5 -7q-18 0 -51 8t-69.5 18.5t-70.5 18.5t-53 8q-44 0 -135 -45q-14 1 -14 24q0 18 14.5 33t37.5 27t49.5 19t50.5 7q18 0 51 -8.5t69.5 -18.5t70 -18.5t51.5 -8.5q12 0 34.5 6.5t43 15t37 15.5t18.5 7q18 0 18 -25z" />
<glyph unicode="&#x2260;" d="M619 256q-2 -26 -30 -26h-291l-69 -122q-11 -19 -23 -19q-8 0 -19 8.5t-11 16.5q0 5 7 18l57 98h-162q-30 0 -30 29q0 22 31 22h190l72 124h-263q-29 0 -29 25q0 26 28 26h293l71 122q9 16 22 16q10 0 18.5 -7.5t8.5 -16.5q0 -4 -1.5 -8.5t-4.5 -10.5l-55 -95h163 q27 0 27 -26q0 -25 -30 -25h-189l-72 -124h261q30 0 30 -25z" />
<glyph unicode="&#x2264;" d="M579 575q0 -12 -19 -21l-388 -201l388 -201q17 -9 17 -21q0 -17 -20 -21q-14 4 -226 114l-246 129q61 32 121.5 64.5t122.5 65.5q215 113 227 113q11 0 13 -4t10 -17zM582 26q0 -26 -29 -26h-424q-32 0 -32 26q0 25 29 25h425q31 0 31 -25z" />
<glyph unicode="&#x2265;" d="M577 353q-222 -119 -471 -243q-20 4 -20 20q0 13 16 22l391 201l-391 201q-17 7 -17 19t5.5 17.5t15.5 5.5q11 0 226 -113q62 -33 122.5 -65.5t122.5 -64.5zM582 26q0 -26 -29 -26h-424q-32 0 -32 26q0 25 29 25h425q31 0 31 -25z" />
<glyph unicode="&#x25ca;" d="M492 317l-160 -338l-157 338l157 334zM445 316l-113 238l-110 -238l111 -241z" />
<glyph unicode="&#x25cc;" d="M570 416q4 -8 4 -15t-8 -14.5t-18 -7.5q-9 0 -17 9t-8 19q0 7 9 15t19 8q9 0 19 -14zM479 484q-7 -13 -18 -13t-19.5 7.5t-8.5 14.5q0 10 7.5 19t14.5 9q10 0 19.5 -7.5t9.5 -15.5q0 -5 -5 -14zM357 529q0 -23 -23 -23q-24 0 -24 23q0 24 24 24q23 0 23 -24zM607 281 q0 -25 -25 -25q-24 0 -24 25q0 23 24 23q25 0 25 -23zM230 508q4 -8 4 -15t-8.5 -14.5t-19.5 -7.5q-8 0 -15.5 8t-7.5 19q0 8 9.5 15.5t18.5 7.5q12 0 19 -13zM570 144q-7 -13 -19 -13q-9 0 -18.5 7.5t-9.5 15.5q0 11 7.5 19t15.5 8q11 0 19.5 -7.5t8.5 -15.5t-4 -14z M479 77q5 -10 5 -14q0 -7 -9 -15.5t-19 -8.5q-8 0 -15.5 9.5t-7.5 18.5q0 8 8 15.5t18 7.5q11 0 20 -13zM139 393q-9 -14 -20 -14q-10 0 -18 7.5t-8 14.5q0 11 7.5 20t15.5 9q10 0 19 -8t9 -15q0 -4 -5 -14zM357 31q0 -23 -23 -23q-24 0 -24 23q0 25 24 25q23 0 23 -25z M109 281q0 -25 -24 -25q-25 0 -25 25q0 23 25 23q24 0 24 -23zM139 168q5 -9 5 -14q0 -8 -9.5 -15.5t-19.5 -7.5q-7 0 -14.5 8.5t-7.5 18.5q0 8 8.5 15.5t19.5 7.5t18 -13zM230 53q-10 -14 -19 -14q-10 0 -19 8.5t-9 15.5q0 10 8.5 18.5t16.5 8.5q10 0 18 -7.5t8 -15.5 t-4 -14z" />
<glyph unicode="&#x25fc;" horiz-adv-x="522" d="M0 522h522v-522h-522v522z" />
<glyph unicode="&#x104b0;" d="M630 -5q0 -4 -3.5 -6.5t-16.5 -2.5q-28 0 -32 15l-235 632h-18l-236 -633q-4 -15 -30 -15q-21 0 -21 12q0 -2 257 687q7 21 39 21q33 0 41 -22l254 -682q1 -1 1 -6z" />
<glyph unicode="&#x104b1;" d="M360 264v-240q0 -24 -25 -24t-25 29v235q0 24 24 24q26 0 26 -24zM630 -5q0 -4 -3.5 -6.5t-16.5 -2.5q-28 0 -32 15l-235 632h-18l-236 -633q-4 -15 -30 -15q-21 0 -21 12q0 -2 257 687q7 21 39 21q33 0 41 -22l254 -682q1 -1 1 -6z" />
<glyph unicode="&#x104b2;" d="M379 220h1q0 -46 -48 -46q-43 0 -43 51q0 44 45 44t45 -49zM630 -5q0 -4 -3.5 -6.5t-16.5 -2.5q-28 0 -32 15l-235 632h-18l-236 -633q-4 -15 -30 -15q-21 0 -21 12q0 -2 257 687q7 21 39 21q33 0 41 -22l254 -682q1 -1 1 -6z" />
<glyph unicode="&#x104b3;" d="M585 26q0 -10 -11 -18.5t-21 -8.5q-5 0 -9 4l-216 329l-203 -329q-1 -4 -11 -6q-10 0 -21 6t-11 16q0 4 104 174q30 48 59 94.5t58 95.5v290q0 24 25 24t25 -24v-291q232 -344 232 -356z" />
<glyph unicode="&#x104b4;" d="M400 346q0 32 -12.5 62t-34 53.5t-50.5 37.5t-62 14q-37 0 -69.5 -17.5t-55.5 -47.5v-208q22 -28 54.5 -44.5t70.5 -16.5q34 0 63 13t50.5 36.5t33.5 53.5t12 64zM602 -100q0 -29 -53 -29q-3 0 -44 4q-34 60 -60 103t-48.5 73.5t-43.5 52t-43 38.5q-32 -12 -69 -12 q-67 0 -125 44l1 -153q0 -24 -25 -24q-27 0 -27 24v649q0 25 25 25q26 0 26 -25v-153q58 44 128 44q43 0 80.5 -16.5t65.5 -45.5t44 -68t16 -82q0 -57 -25.5 -105t-68.5 -78q44 -41 85 -96q13 -18 35 -54.5t55 -93.5q12 0 14 1h13q44 0 44 -23z" />
<glyph unicode="&#x104b5;" d="M608 190l-23 -166q-3 -12 -8 -18t-18 -6q-29 0 -25 24l23 166q3 28 -6.5 53.5t-30 46t-48 32t-56.5 11.5q-30 0 -57 -11.5t-47 -31.5t-30.5 -45.5t-5.5 -54.5l26 -166q3 -24 -26 -24h-17.5t-6 0.5t-4.5 3.5t-14 9q-39 21 -71.5 53.5t-56.5 73.5t-36.5 88t-12.5 97 q0 80 20 149.5t57 121t88.5 81t113.5 29.5q118 0 200 -83q0 42 1.5 54.5t22.5 12.5q25 0 25 -33v-138q0 -11 -7.5 -21.5t-17.5 -10.5q-24 0 -24 30q0 29 -18.5 54.5t-47 45t-64 30t-70.5 10.5q-54 0 -97.5 -24.5t-73.5 -67.5t-46.5 -102.5t-16.5 -129.5q0 -40 11 -78t30 -73 t44.5 -64t56.5 -50l-18 122q-6 40 8 75t41 60.5t64 41t79 15.5q39 0 76 -15.5t64.5 -41.5t41.5 -60.5t8 -74.5z" />
<glyph unicode="&#x104b6;" d="M527 136h-108q-13 0 -19 4t-6 20q0 20 25 26l112 1h3l1 3q3 28 -6.5 53.5t-30 46t-48 32t-56.5 11.5q-30 0 -57 -11.5t-47 -31.5t-30.5 -45.5t-5.5 -54.5l26 -166q3 -24 -26 -24h-17q-5 0 -6.5 0.5t-4.5 3.5t-14 9q-39 21 -71.5 53.5t-56.5 73.5t-36.5 88t-12.5 97 q0 80 20 149.5t56.5 121t88.5 81t114 29.5q118 0 200 -83q0 42 1.5 54.5t22.5 12.5q25 0 25 -33v-138q0 -11 -7.5 -21.5t-17.5 -10.5q-24 0 -24 30q0 29 -18.5 54.5t-47 45t-64 30t-70.5 10.5q-54 0 -97.5 -24.5t-73.5 -67.5t-46.5 -102.5t-16.5 -129.5q0 -40 11 -78t30 -73 t44.5 -64t56.5 -50l-18 122q-6 40 8 75t41 60.5t64 41t79 15.5q39 0 76 -15.5t64.5 -41.5t41.5 -60.5t8 -74.5l-1 -3h45q32 0 32 -27q0 -24 -31 -24h-53l-15 -112q-3 -12 -8 -18t-18 -6q-29 0 -25 24z" />
<glyph unicode="&#x104b7;" d="M507 304q-8 60 -24.5 123t-43.5 114t-65.5 83.5t-90.5 32.5q-57 0 -100.5 -24.5t-73 -67.5t-45 -102.5t-15.5 -129.5q0 -56 15.5 -110.5t45.5 -96.5t73.5 -68.5t99.5 -26.5q44 0 79.5 23.5t63.5 61.5t48 87t33 101zM664 629q0 -10 -10 -14t-22.5 -5.5t-23.5 -1.5t-12 -2 q-1 -45 -7 -96q-4 -43 -13.5 -97.5t-24.5 -113.5q7 -44 11 -83.5t6 -69.5q2 -17 2.5 -33t0.5 -31q1 -2 12 -2t23 -1.5t22 -6t10 -13.5q0 -14 -13 -19t-26 -9q-28 -7 -51 9.5t-34 43.5v26q0 13 -0.5 31t-1.5 40q-18 -42 -40.5 -78.5t-50.5 -63.5t-62 -43t-76 -16 q-64 0 -115.5 28.5t-88 76.5t-56.5 110.5t-20 129.5q0 80 18 149.5t53.5 121t88 81t120.5 29.5q49 0 87 -23t67 -61.5t50.5 -88.5t36.5 -104q6 37 8.5 69t4.5 55q1 14 1.5 27t0.5 24q13 27 35 43.5t50 9.5q14 -4 27 -9t13 -19z" />
<glyph unicode="&#x104b8;" d="M328 339h1q0 -47 -48 -47q-43 0 -43 51q0 44 45 44t45 -48zM507 304q-8 60 -24.5 123t-43.5 114t-65.5 83.5t-90.5 32.5q-57 0 -100.5 -24.5t-73 -67.5t-45 -102.5t-15.5 -129.5q0 -56 15.5 -110.5t45.5 -96.5t73.5 -68.5t99.5 -26.5q44 0 79.5 23.5t63.5 61.5t48 87 t33 101zM664 629q0 -10 -10 -14t-22.5 -5.5t-23.5 -1.5t-12 -2q-1 -45 -7 -96q-4 -43 -13.5 -97.5t-24.5 -113.5q7 -44 11 -83.5t6 -69.5q2 -17 2.5 -33t0.5 -31q1 -2 12 -2t23 -1.5t22 -6t10 -13.5q0 -14 -13 -19t-26 -9q-28 -7 -51 9.5t-34 43.5v26q0 13 -0.5 31t-1.5 40 q-18 -42 -40.5 -78.5t-50.5 -63.5t-62 -43t-76 -16q-64 0 -115.5 28.5t-88 76.5t-56.5 110.5t-20 129.5q0 80 18 149.5t53.5 121t88 81t120.5 29.5q49 0 87 -23t67 -61.5t50.5 -88.5t36.5 -104q6 37 8.5 69t4.5 55q1 14 1.5 27t0.5 24q13 27 35 43.5t50 9.5q14 -4 27 -9 t13 -19z" />
<glyph unicode="&#x104b9;" d="M578 186q0 -47 -18 -84.5t-50.5 -65t-77.5 -42t-97 -14.5q-48 0 -92.5 14.5t-78.5 40t-54 60.5t-20 77q0 34 24 34q3 0 6 1t5.5 -4t5 -16t8.5 -35q13 -52 64.5 -87t138.5 -35q40 0 74 12.5t59.5 33.5t40.5 49.5t15 62.5q0 49 -20 81.5t-51 57t-66.5 44.5t-66 42.5 t-51 52.5t-20.5 75q0 84 40 127.5t131 43.5q13 0 17 -5.5t6 -15.5q1 -10 -2.5 -18.5t-18.5 -8.5q-37 0 -61.5 -7t-38 -22.5t-19.5 -38.5t-6 -55q0 -34 20.5 -57t50.5 -43.5t66 -42t66 -50t50.5 -67.5t20.5 -95z" />
<glyph unicode="&#x104ba;" d="M578 186q0 -47 -18 -84.5t-50.5 -65t-77.5 -42t-97 -14.5q-48 0 -92.5 14.5t-78.5 40t-54 60.5t-20 77q0 34 24 34q3 0 6 1t5.5 -4t5 -16t8.5 -35q13 -52 64.5 -87t138.5 -35q40 0 74 12.5t59.5 33.5t40.5 49.5t15 62.5q0 49 -20 81.5t-51 57t-66.5 44.5t-66 42.5 t-51 52.5t-20.5 75q0 83 38 126t125 45v94q0 23 24 23q26 0 26 -23v-240q0 -24 -25 -24t-25 29v93q-68 -3 -91.5 -31.5t-23.5 -91.5q0 -34 20.5 -57t50.5 -43.5t66 -42t66 -50t50.5 -67.5t20.5 -95z" />
<glyph unicode="&#x104bb;" d="M571 471l-50 -448q-2 -23 -26 -23q-28 0 -24 24l50 447q4 39 -9.5 74t-40 61.5t-62 42.5t-75.5 16q-39 0 -75 -16t-62 -43t-40 -62t-10 -73l58 -447q4 -24 -25 -24q-13 0 -18 6t-8 18l-58 447q-7 50 10.5 94.5t51 77.5t79 52.5t96.5 19.5t97 -19.5t79 -52.5t50.5 -77.5 t11.5 -94.5z" />
<glyph unicode="&#x104bc;" d="M582 674q0 -28 -51 -28l-260 -245q25 -10 53.5 -22t56.5 -29t53 -40t43 -56q21 -39 32 -85.5t10.5 -94t-13 -92.5t-37.5 -79t-62.5 -55t-88.5 -21h-37q-34 0 -34 26t33 25q16 -1 23.5 -1.5t11 -0.5h5h6.5q56 0 89.5 34.5t47.5 86.5t9 111t-27 107q-16 34 -42 58.5 t-55.5 41.5t-59.5 28.5t-56 20.5l-97 -89v-254q0 -24 -25 -24q-24 0 -24 24v649q0 25 24 25q25 0 25 -25v-330l366 342q14 15 50 15q31 0 31 -23z" />
<glyph unicode="&#x104bd;" d="M632 674q0 -28 -51 -28l-260 -245q25 -10 53.5 -22t56 -29.5t53 -41t43.5 -54.5q22 -39 33 -85.5t10.5 -94t-13.5 -92.5t-38 -79t-62.5 -55t-88.5 -21h-37q-34 0 -34 26t32 25q17 -1 24.5 -1.5t11 -0.5h5h6.5q56 0 90 34.5t48 86.5t8.5 111t-27.5 107q-16 34 -42 58.5 t-55.5 41.5t-60 28.5t-55.5 20.5l-98 -89v-254q0 -24 -24 -24t-24 24v521h-46h-11.5t-12.5 1q-13 0 -22 6.5t-9 18.5t9 19t22 7h70v76q0 25 24 25t24 -25v-76l107 1q33 0 33 -27q0 -24 -32 -24l-108 -1v-203l367 342q14 15 50 15q31 0 31 -23z" />
<glyph unicode="&#x104be;" d="M421 -35q-21 14 -43.5 25.5t-49.5 11.5q-16 0 -35 -2t-36.5 -9t-29 -19.5t-11.5 -31.5q0 -17 8 -29t21 -20t28 -11.5t29 -3.5q44 0 74 24.5t45 64.5zM625 -183q0 -14 -11 -14q-6 0 -28.5 18t-48 40.5t-49 44t-30.5 27.5q-25 -56 -70.5 -81t-104.5 -25q-22 0 -43 9.5 t-37 24.5t-26 35t-10 44q0 31 15.5 52.5t39.5 35t52.5 19t53.5 5.5q29 0 55 -11t50 -25q2 11 2 21.5v20.5q0 68 -16 116.5t-47.5 83t-77.5 59.5t-106 47l-98 -89v-254q0 -24 -24 -24t-24 24v649q0 25 24 25t24 -25v-330l367 342q10 9 23 12t27 3q12 0 21.5 -4.5t9.5 -18.5 q0 -9 -5 -15t-13 -9t-17 -3.5t-16 -0.5l-260 -245q63 -27 110.5 -57t80 -69.5t49 -92t16.5 -125.5q0 -37 -7 -73q10 -8 35 -32.5t50 -52t44.5 -51t19.5 -31.5z" />
<glyph unicode="&#x104bf;" d="M597 168v-138q0 -33 -24 -33q-21 0 -22.5 12.5t-1.5 54.5q-83 -84 -200 -84q-62 0 -114 29.5t-88.5 81.5t-56.5 121.5t-20 149.5q0 67 23.5 129t65 110.5t96 76.5t116.5 28q15 0 17.5 -9t1.5 -20q-3 -22 -21 -22q-49 0 -94.5 -26t-81 -68t-57 -97t-21.5 -110 q0 -70 16 -129.5t46.5 -102.5t74 -67.5t97.5 -24.5q35 0 70.5 10.5t64 29.5t47 44t18.5 55q0 31 24 31q9 0 16.5 -10.5t7.5 -21.5z" />
<glyph unicode="&#x104c0;" d="M334 235q49 -1 70.5 18.5t24.5 50t-8.5 68t-27.5 73.5t-33 65t-26 43q-10 -16 -24.5 -46t-27.5 -65t-20 -71.5t-3.5 -66t21 -48.5t54.5 -21zM647 462q0 -30 -5 -51.5t-14.5 -39t-22.5 -34t-31 -35.5q-13 -14 -20 -14q-5 0 -9 9t-4 14q0 8 5 14q54 57 54 146 q0 31 -13.5 61.5t-35 53t-47 36.5t-49.5 14q-29 0 -52 -17.5t-41 -33.5q15 -21 36 -59.5t38.5 -82.5t26 -90.5t0.5 -83.5t-38.5 -61t-90.5 -24q-53 0 -80.5 23.5t-36 60t-2 81.5t21.5 89.5t34 83.5t35 63q-22 23 -47.5 35.5t-60.5 15.5q-45 3 -70.5 -24t-37.5 -70.5 t-15 -95.5t-3 -98l1 -327q0 -24 -25 -24q-27 0 -27 24v649q0 25 25 25q26 0 26 -25v-63q23 34 52 51.5t71 20.5q22 1 43.5 -5t39.5 -15t32.5 -20t23.5 -21q26 23 55.5 42t65.5 19q32 0 66.5 -18t62 -49t45.5 -70t18 -80z" />
<glyph unicode="&#x104c1;" d="M623 15v-12.5t-3.5 -11t-11.5 -8.5t-23 -3q-63 0 -117.5 28.5t-95.5 76.5t-65 110.5t-24 129.5q0 66 4.5 122t11.5 105l-204 -552q-5 -15 -30 -15q-21 0 -21 12q0 -2 256 687q7 19 29 20v2l2 -1h9q-2 0 2 -1t8 -5t5.5 -14t-4.5 -27l2 -1q-5 -20 -8 -43.5t-5 -48.5 q-5 -44 -8.5 -103t-3.5 -129q0 -56 21.5 -110.5t57 -96.5t81.5 -68.5t94 -26.5q22 0 31.5 -1t9.5 -15z" />
<glyph unicode="&#x104c2;" d="M571 340q1 64 -17 120.5t-49.5 99.5t-75.5 67.5t-95 24.5q-52 0 -95.5 -26t-75 -69t-49 -100t-17.5 -117q0 -69 20 -125.5t53 -98t75.5 -64.5t88.5 -23q51 0 94 25.5t75 68.5t50 99t18 118zM619 340q0 -76 -21 -140.5t-59.5 -113.5t-90.5 -77t-115 -28q-62 0 -113.5 29 t-89.5 78t-59.5 114t-21.5 138q0 74 21.5 139t59 113.5t90.5 77t115 28.5q61 0 112.5 -29.5t89.5 -79.5t60 -115t22 -134z" />
<glyph unicode="&#x104c3;" d="M378 339h1q0 -47 -48 -47q-43 0 -43 51q0 44 45 44t45 -48zM571 340q1 64 -17 120.5t-49.5 99.5t-75.5 67.5t-95 24.5q-52 0 -95.5 -26t-75 -69t-49 -100t-17.5 -117q0 -69 20 -125.5t53 -98t75.5 -64.5t88.5 -23q51 0 94 25.5t75 68.5t50 99t18 118zM619 340 q0 -76 -21 -140.5t-59.5 -113.5t-90.5 -77t-115 -28q-62 0 -113.5 29t-89.5 78t-59.5 114t-21.5 138q0 74 21.5 139t59 113.5t90.5 77t115 28.5q61 0 112.5 -29.5t89.5 -79.5t60 -115t22 -134z" />
<glyph unicode="&#x104c4;" d="M477 346q0 32 -13 62t-34.5 53.5t-51 37.5t-61.5 14q-37 0 -69.5 -17.5t-54.5 -47.5v-208q22 -28 53.5 -44.5t70.5 -16.5q33 0 62 13t51 36.5t34.5 53.5t12.5 64zM527 349q0 -44 -16.5 -84t-45 -70t-66.5 -47.5t-81 -17.5q-67 0 -125 44v-153q0 -24 -26 -24q-27 0 -27 24 v649q0 25 26 25q25 0 25 -25l2 -153q58 44 127 44q43 0 80.5 -16.5t65.5 -45.5t44.5 -68t16.5 -82z" />
<glyph unicode="&#x104c5;" d="M477 346q0 32 -13 62t-34.5 53.5t-51 37.5t-61.5 14q-37 0 -69.5 -17.5t-54.5 -47.5v-77l99 1q33 0 33 -26q0 -25 -32 -25l-100 -1v-80q22 -28 53.5 -44.5t70.5 -16.5q33 0 62 13t51 36.5t34.5 53.5t12.5 64zM527 349q0 -44 -16.5 -84t-45 -70t-66.5 -47.5t-81 -17.5 q-67 0 -125 44v-153q0 -24 -26 -24q-27 0 -27 24v299h-73q-12 0 -21.5 6.5t-9.5 19.5q0 12 9.5 18.5t21.5 6.5h73v299q0 25 26 25q25 0 25 -25l2 -153q58 44 127 44q43 0 80.5 -16.5t65.5 -45.5t44.5 -68t16.5 -82z" />
<glyph unicode="&#x104c6;" d="M597 657v-138q0 -11 -7.5 -21.5t-16.5 -10.5q-24 0 -24 30q0 29 -18.5 54.5t-47 45t-64 30t-70.5 10.5q-54 0 -97.5 -24.5t-74 -67.5t-46.5 -102.5t-16 -129.5q0 -56 21.5 -110.5t57 -96.5t81 -68.5t94.5 -26.5q18 0 21 -22q1 -10 -1.5 -19.5t-17.5 -9.5 q-62 0 -116.5 28.5t-96 76.5t-65 110.5t-23.5 129.5q0 80 20 149.5t56.5 121t88.5 81t114 29.5q117 0 200 -83q0 42 1.5 54.5t22.5 12.5q24 0 24 -33z" />
<glyph unicode="&#x104c7;" d="M428 188q-1 35 -5.5 58t-22.5 39.5t-54.5 28t-101.5 22.5q-54 11 -94 31q-29 -32 -45 -76t-16 -103q0 -38 18 -70.5t46.5 -54t65 -31t73.5 -2.5q59 12 98 55t38 103zM626 263v-242q0 -23 -24 -23q-25 0 -25 23v240q0 31 -21.5 63.5t-56.5 58.5t-79 42.5t-89 15.5 q-73 -1 -135 -36q30 -12 69 -20t84 -20q38 -9 62.5 -26t38.5 -40.5t19 -52t5 -60.5q2 -41 -12.5 -76.5t-40 -62.5t-61 -44.5t-75.5 -22.5q-46 -6 -90 10t-78.5 45.5t-55 69.5t-20.5 83q0 63 19 114.5t53 89.5q-27 24 -37.5 56.5t-10.5 73.5q0 42 17 77.5t46.5 60t69 38.5 t84.5 14q39 0 78.5 -14t71 -38t50.5 -56t19 -67q0 -34 -22 -34q-14 0 -18 9l-10 41q-6 24 -21 44t-37.5 34.5t-50.5 23.5t-58 9q-37 0 -68.5 -11.5t-54 -30.5t-35.5 -45t-13 -57q0 -33 9.5 -54.5t28.5 -36.5q44 34 99 49t115 9q50 -4 97 -25t83.5 -52t58.5 -69t22 -78z" />
<glyph unicode="&#x104c8;" d="M594 300v92q0 44 -15.5 85.5t-43 75t-64 56t-77.5 29.5h-105l-99 -586h86q30 0 52.5 -0.5t38.5 -0.5q45 0 86 22t72.5 58t50 80t18.5 89zM644 385v-80q0 -59 -22.5 -114t-61.5 -97.5t-90 -68t-108 -25.5h-190q-12 0 -15 1q-22 1 -22 21q0 2 1 4l102 612h-199 q-15 0 -15 24q0 26 15 26h210q12 0 40 -0.5t59 -2.5t59 -4t40 -7q43 -16 79.5 -45.5t62.5 -68t40.5 -83.5t14.5 -92z" />
<glyph unicode="&#x104c9;" d="M594 300v92q0 44 -15.5 85.5t-43 75t-64 56t-77.5 29.5h-105l-45 -267l97 1q33 0 33 -26q0 -25 -32 -25l-107 -1l-45 -268h86q30 0 52.5 -0.5t38.5 -0.5q45 0 86 22t72.5 58t50 80t18.5 89zM644 385v-80q0 -59 -22.5 -114t-61.5 -97.5t-90 -68t-108 -25.5h-190 q-12 0 -15 1q-22 1 -22 21q0 2 1 4l48 294h-68q-13 0 -22 6.5t-9 19.5q0 12 9 18.5t22 6.5h77l45 267h-199q-15 0 -15 24q0 26 15 26h210q12 0 40 -0.5t59 -2.5t59 -4t40 -7q43 -16 79.5 -45.5t62.5 -68t40.5 -83.5t14.5 -92z" />
<glyph unicode="&#x104ca;" d="M578 49q0 -42 -20 -77t-54 -60.5t-78 -40t-93 -14.5q-52 0 -97 14.5t-77.5 42t-50.5 65t-18 84.5q0 50 19 91t65 66q1 4 1 9q0 8 1 11l73 435h-136q-10 0 -13.5 7t-3.5 16q0 10 3.5 17.5t13.5 7.5h150q8 0 28.5 -0.5t43.5 -1.5t43.5 -3t29.5 -6q33 -13 59.5 -34t45.5 -50 t30 -62.5t11 -67.5v-58q0 -44 -16 -83t-44.5 -69t-66.5 -50t-81 -25q-66 -8 -107.5 -20t-64 -29.5t-30 -42t-7.5 -56.5q0 -34 15 -62.5t40.5 -49.5t60 -33.5t73.5 -12.5q87 0 138.5 35t64.5 87q5 24 8.5 35t5.5 16t5 4.5t6 -0.5q24 0 24 -35zM507 436v67q0 31 -11 60t-30 52 t-44.5 39t-53.5 21h-71l-71 -436l14 3q34 10 67.5 13t67.5 9q26 6 50.5 23.5t42.5 41.5t28.5 51.5t10.5 55.5z" />
<glyph unicode="&#x104cb;" d="M578 49q0 -42 -20 -77t-54 -60.5t-78 -40t-93 -14.5q-52 0 -97 14.5t-77.5 42t-50.5 65t-18 84.5q0 50 19 91t65 66q1 4 1 9q0 8 1 11l35 209h-68q-13 0 -22.5 6.5t-9.5 18.5q0 13 9.5 19.5t22.5 6.5h76l30 175h-136q-10 0 -13.5 7t-3.5 16q0 10 3.5 17.5t13.5 7.5h150 q8 0 28.5 -0.5t43.5 -1.5t43.5 -3t29.5 -6q33 -13 59.5 -34t45.5 -50t30 -62.5t11 -67.5v-58q0 -44 -16 -83t-44.5 -69t-66.5 -50t-81 -25q-66 -8 -107.5 -20t-64 -29.5t-30 -42t-7.5 -56.5q0 -34 15 -62.5t40.5 -49.5t60 -33.5t73.5 -12.5q87 0 138.5 35t64.5 87 q5 24 8.5 35t5.5 16t5 4.5t6 -0.5q24 0 24 -35zM507 436v67q0 31 -11 60t-30 52t-44.5 39t-53.5 21h-71l-28 -175l99 1q32 0 32 -27q0 -24 -31 -24l-109 -1l-34 -210l14 3q34 10 67.5 13t67.5 9q26 6 50.5 23.5t42.5 41.5t28.5 51.5t10.5 55.5z" />
<glyph unicode="&#x104cc;" d="M578 49q0 -42 -20 -77t-54 -60.5t-78 -40t-93 -14.5q-50 0 -93 13.5t-75 38t-51.5 58.5t-23.5 76h-41q-13 0 -22.5 6.5t-9.5 18.5q0 13 9.5 19.5t22.5 6.5h43q5 41 24 73.5t58 52.5q1 4 1 9q0 8 1 11l73 435h-136q-10 0 -13.5 7t-3.5 16q0 10 3.5 17.5t13.5 7.5h150 q8 0 28.5 -0.5t43.5 -1.5t43.5 -3t29.5 -6q33 -13 59.5 -34t45.5 -50t30 -62.5t11 -67.5v-58q0 -44 -16 -83t-44.5 -69t-66.5 -50t-81 -25q-58 -7 -97 -16.5t-62 -24t-34 -34t-15 -44.5h9l127 1q32 0 32 -27q0 -24 -31 -24l-136 -1h-1q5 -29 21 -54t41.5 -43t57.5 -28.5 t68 -10.5q87 0 138.5 35t64.5 87q5 24 8.5 35t5.5 16t5 4.5t6 -0.5q24 0 24 -35zM507 436v67q0 31 -11 60t-30 52t-44.5 39t-53.5 21h-71l-71 -436l14 3q34 10 67.5 13t67.5 9q26 6 50.5 23.5t42.5 41.5t28.5 51.5t10.5 55.5z" />
<glyph unicode="&#x104cd;" d="M650 271v-250q0 -23 -25 -23t-25 23v248q0 38 -14.5 62.5t-38 39t-54 20.5t-63.5 6q-21 0 -42 -13t-40.5 -31.5t-36 -39t-28.5 -35.5v-257q0 -24 -24 -24q-27 0 -27 24v612h-198q-11 0 -13 8.5t-2 16.5t2 16.5t13 8.5h496q8 0 12 -9t4 -15q0 -8 -2.5 -17t-12.5 -9h-248 v-284q35 41 80.5 67.5t101.5 26.5q38 0 72 -11.5t59 -33.5t39.5 -54t14.5 -73z" />
<glyph unicode="&#x104ce;" d="M571 670v-446q0 -51 -18 -95t-49.5 -77t-75 -52.5t-94.5 -19.5q-52 0 -95.5 19.5t-75 52.5t-49.5 77t-18 95v448q0 23 26 23q24 0 24 -25v-446q0 -40 14 -75t39.5 -61.5t59 -42t74.5 -15.5q39 0 73 15.5t59.5 42.5t40 62.5t14.5 73.5v446q0 25 25 25q26 0 26 -25z" />
<glyph unicode="&#x104cf;" d="M187 380h359l-102 -359q-3 -12 -7.5 -18t-17.5 -6t-21 6t-5 18l87 308h-359l98 341q4 13 9 19.5t19 6.5q12 0 19 -6.5t3 -19.5z" />
<glyph unicode="&#x104d0;" d="M571 235v-215q0 -23 -26 -23q-24 0 -24 24l1 214q0 36 -12 69.5t-33.5 59t-51 42.5t-65.5 22v-407q-13 -24 -26 -24q-14 0 -25 24v406q-35 -5 -64.5 -22.5t-51 -43.5t-34 -58.5t-12.5 -67.5v-214q0 -24 -25 -24q-26 0 -26 24v214q0 47 16 89.5t44 75t67 53t86 25.5v192 q0 25 25 25q26 0 26 -25v-192q46 -5 85 -25.5t66.5 -53t43.5 -75t16 -89.5z" />
<glyph unicode="&#x104d1;" d="M571 670v-214q0 -48 -16 -89.5t-44 -74t-67 -53.5t-86 -26v-192q0 -24 -25 -24q-26 0 -26 24v192q-46 5 -85 26t-66.5 53.5t-43.5 74t-16 89.5v216q0 23 26 23q24 0 24 -25l-1 -214q0 -37 12 -69.5t33.5 -58.5t51 -43t65.5 -22v407q12 25 26 25q13 0 25 -25v-406 q35 5 64.5 22.5t51 43.5t34 58.5t12.5 67.5v214q0 25 25 25q26 0 26 -25z" />
<glyph unicode="&#x104d2;" d="M564 669q0 -22 -16 -47l-380 -571l-20 -25q-8 -10 -15.5 -18t-11.5 -8q-18 0 -18 21q0 22 18 49l381 565h-360q-35 0 -35 27q0 28 35 28h407q15 0 15 -21z" />
<glyph unicode="&#x104d3;" d="M617 0q0 -16 -5.5 -19.5t-15.5 -4.5q-10 -2 -18 3.5t-8 18.5q0 44 -19 84t-49.5 70.5t-71 48.5t-85.5 18q-46 0 -86.5 -18t-72 -48.5t-50 -70.5t-18.5 -84q0 -13 -6 -15t-16 -3q-11 -1 -18.5 5t-4.5 18q1 12 2.5 23t3.5 23q3 19 8.5 40t14.5 37q6 12 12.5 20t11.5 18 l319 471h-360q-35 0 -35 27q0 28 35 28h407q15 0 15 -21q0 -23 -16 -47l-249 -373q53 20 101 20q56 0 106 -21.5t87 -58t59 -85t22 -104.5z" />
<glyph unicode="&#x104d8;" d="M532 -10q-23 0 -29 15l-167 453h-5l-169 -455q-3 -9 -10 -12t-16 -3q-8 0 -14.5 3t-6.5 12q0 4 2 9q2 4 4 9.5t5 14.5l35 94q23 63 58 155.5t80 217.5q8 19 35 19t34 -20l183 -493q1 -1 1 -7q0 -12 -20 -12z" />
<glyph unicode="&#x104d9;" d="M357 23q0 -23 -23 -23q-24 0 -24 27v170q0 22 24 22q23 0 23 -22v-174zM532 -10q-23 0 -29 15l-167 453h-5l-169 -455q-3 -9 -10 -12t-16 -3q-8 0 -14.5 3t-6.5 12q0 4 2 9q2 4 4 9.5t5 14.5l35 94q23 63 58 155.5t80 217.5q8 19 35 19t34 -20l183 -493q1 -1 1 -7 q0 -12 -20 -12z" />
<glyph unicode="&#x104da;" d="M372 171q0 -46 -40 -46q-36 0 -36 43q0 38 38 38q35 0 37 -35h1zM532 -10q-23 0 -29 15l-167 453h-5l-169 -455q-3 -9 -10 -12t-16 -3q-8 0 -14.5 3t-6.5 12q0 4 2 9q2 4 4 9.5t5 14.5l35 94q23 63 58 155.5t80 217.5q8 19 35 19t34 -20l183 -493q1 -1 1 -7 q0 -12 -20 -12z" />
<glyph unicode="&#x104db;" d="M604 1q0 -11 -19 -11q-25 0 -29 11l-214 457l-229 -457q-5 -11 -31 -11q-18 0 -18 10q168 343 200 407t53 107l-75 159q-10 22 -37 22q-16 0 -26 -5q-20 6 -24.5 10t-4.5 16q0 25 30 25q79 0 103 -50l321 -690v0z" />
<glyph unicode="&#x104dc;" d="M267 370q-51 0 -84 -43v-147q15 -19 36.5 -30t47.5 -11q23 0 42.5 9.5t35 25t23.5 37t8 44.5q0 22 -9 43t-24 37t-34.5 25.5t-41.5 9.5zM488 -95q-1 0 -9 0.5t-25 1.5q-25 44 -44 75.5t-34.5 53.5t-30 37t-29.5 27q-25 -7 -49 -7q-44 0 -84 26v-100q0 -24 -23 -24 q-25 0 -25 24v472q0 23 24 23t24 -23v-100q40 27 86 27q33 0 60.5 -13t48.5 -35t33 -51t12 -61q0 -41 -17 -76t-48 -58q28 -27 57 -66q10 -13 25.5 -38.5t38.5 -65.5q2 0 3 -1t3 1h10q15 0 26 -5t11 -17q0 -16 -12 -21.5t-32 -5.5z" />
<glyph unicode="&#x104dd;" d="M519 22q-2 -10 -6.5 -16t-17.5 -6q-28 0 -24 24l16 119v1q3 18 -4 35.5t-20.5 31.5t-31.5 22t-39 8t-39.5 -8t-32 -21.5t-20.5 -31.5t-3 -36l19 -120q2 -12 -5 -18t-20 -6h-13q-5 0 -9 3q-1 0 -2 2q-1 1 -4 2l-4 3q-58 32 -94.5 94.5t-36.5 136.5q0 58 15 110t41.5 90 t65 60t85.5 22q78 0 137 -53v11q0 7 2 17q4 14 21 14q13 0 18.5 -9t5.5 -22v-101q0 -8 -6.5 -17.5t-17.5 -9.5t-17 7.5t-6 19.5q0 20 -12 37.5t-32 30.5t-44 20.5t-49 7.5q-37 0 -67 -17t-51.5 -48t-33 -72.5t-11.5 -91.5q0 -52 25.5 -100t63.5 -79l-12 75q-4 30 6.5 56.5 t31 46.5t48.5 31t58 11q29 0 57 -11t48.5 -31t30.5 -46.5t7 -56.5z" />
<glyph unicode="&#x104de;" d="M520 22q-1 -10 -6 -16t-18 -6q-27 0 -24 24l9 70h-66q-11 0 -17 4t-6 19q0 19 22 25l74 1v1q3 18 -4 35.5t-20.5 31.5t-31.5 22t-39 8t-39.5 -8t-31.5 -21.5t-20 -31.5t-4 -36l19 -120q2 -12 -5 -18t-20 -6h-12q-6 0 -10 3q-1 0 -2 2q-1 1 -4 2l-4 3q-58 32 -94.5 94.5 t-36.5 136.5q0 58 15 110t41.5 90t65 60t85.5 22q78 0 137 -53v11q0 7 3 17q3 14 20 14q13 0 18.5 -9t5.5 -22v-101q0 -8 -6.5 -17.5t-17.5 -9.5t-17 7.5t-6 19.5q0 20 -12 37.5t-32 30.5t-44 20.5t-49 7.5q-37 0 -67 -17t-51.5 -48t-33 -72.5t-11.5 -91.5q0 -52 25.5 -100 t63.5 -79l-11 75q-5 30 5.5 56.5t31.5 46.5t48.5 31t57.5 11q29 0 57 -11t48.5 -31t31 -46.5t6.5 -56.5h30q29 0 29 -26q0 -13 -7.5 -18t-20.5 -5h-38z" />
<glyph unicode="&#x104df;" d="M297 476q-39 0 -69.5 -17t-51.5 -48t-32 -72.5t-11 -91.5q0 -41 11 -79t32.5 -68t52 -48t68.5 -18q30 0 54.5 15.5t44 42t34 61.5t24.5 73q-6 44 -18.5 89t-31 80t-45 58t-62.5 23zM550 442q-6 -1 -10 -1t-8 -1q-1 0 -1.5 0.5t-1.5 0.5q-1 -16 -1.5 -32.5t-3.5 -33.5 q-3 -32 -10 -71.5t-18 -81.5q6 -32 8.5 -59.5t4.5 -51.5q1 -11 1 -22v-21h4h7t10 -1q12 -1 20 -5t8 -13q0 -8 -3.5 -13t-7.5 -7q-6 -2 -11 -3.5t-10 -3.5q-24 -6 -42 7.5t-27 35.5v20v12t-1 16q-25 -54 -64 -91t-96 -37q-48 0 -86.5 21.5t-65.5 57t-41.5 81.5t-14.5 95 q0 59 13.5 111t39.5 90t65 60t90 22q35 0 61.5 -15t47.5 -40t36.5 -57.5t27.5 -68.5q2 20 2.5 36t1.5 29q3 9 3 18.5v18.5q10 21 27.5 34.5t40.5 7.5q11 -2 21 -7q5 -2 8.5 -7t3.5 -11q0 -10 -8.5 -14t-19.5 -5z" />
<glyph unicode="&#x104e0;" d="M336 256q0 -45 -40 -45q-37 0 -37 43q0 37 38 37q35 0 38 -35h1zM297 476q-39 0 -69.5 -17t-51.5 -48t-32 -72.5t-11 -91.5q0 -41 11 -79t32.5 -68t52 -48t68.5 -18q30 0 54.5 15.5t44 42t34 61.5t24.5 73q-6 44 -18.5 89t-31 80t-45 58t-62.5 23zM550 442q-6 -1 -10 -1 t-8 -1q-1 0 -1.5 0.5t-1.5 0.5q-1 -16 -1.5 -32.5t-3.5 -33.5q-3 -32 -10 -71.5t-18 -81.5q6 -32 8.5 -59.5t4.5 -51.5q1 -11 1 -22v-21h4h7t10 -1q12 -1 20 -5t8 -13q0 -8 -3.5 -13t-7.5 -7q-6 -2 -11 -3.5t-10 -3.5q-24 -6 -42 7.5t-27 35.5v20v12t-1 16q-25 -54 -64 -91 t-96 -37q-48 0 -86.5 21.5t-65.5 57t-41.5 81.5t-14.5 95q0 59 13.5 111t39.5 90t65 60t90 22q35 0 61.5 -15t47.5 -40t36.5 -57.5t27.5 -68.5q2 20 2.5 36t1.5 29q3 9 3 18.5v18.5q10 21 27.5 34.5t40.5 7.5q11 -2 21 -7q5 -2 8.5 -7t3.5 -11q0 -10 -8.5 -14t-19.5 -5z" />
</font>
</defs>
</svg>
