<?xml version="1.0" standalone="no"?>
<!DOCTYPE svg PUBLIC "-//W3C//DTD SVG 1.1//EN" "http://www.w3.org/Graphics/SVG/1.1/DTD/svg11.dtd" >
<svg xmlns="http://www.w3.org/2000/svg">
<metadata></metadata>
<defs>
<font id="barnsdallregular" horiz-adv-x="1479" >
<font-face units-per-em="2048" ascent="1556" descent="-492" />
<missing-glyph horiz-adv-x="651" />
<glyph unicode="&#x104b0;&#x358;" d="M1499 0h-543v106h166l-438 1145l-440 -1145h164v-106h-420v106h131l532 1387h168l533 -1387h147v-106zM1313 1399q0 -29 -10 -53t-28 -42t-42.5 -28t-52.5 -10q-57 0 -95 38t-38 95q0 56 38 94q39 39 95 39q28 0 52.5 -10t42.5 -28t28 -42.5t10 -52.5z" />
<glyph unicode="&#x104b3;&#x358;" horiz-adv-x="1352" d="M1370 0h-555v107h174l-373 604l-373 -604h168v-107h-434v107h141l449 724v556h-191v106h584v-106h-191v-537l461 -743h140v-107zM1352 1399q0 -29 -10 -53t-28 -42t-42.5 -28t-52.5 -10q-57 0 -95 38t-38 95q0 56 38 94q39 39 95 39q28 0 52.5 -10t42.5 -28t28 -42.5 t10 -52.5z" />
<glyph unicode="&#x104bb;&#x358;" horiz-adv-x="1726" d="M1470 0h-584v107h191l163 772q15 70 11 130.5t-19.5 111t-38.5 90t-46 67.5q-95 113 -323 113q-229 0 -322 -113q-24 -28 -47 -67.5t-38.5 -90t-19.5 -111t11 -130.5l162 -772h191v-107h-504v107h190l-162 792q-17 83 -11 155.5t26.5 133.5t51.5 109.5t64 83.5 q130 141 445 141t448 -142q33 -36 64.5 -84.5t52.5 -109t27 -132.5t-11 -155l-163 -792h191v-107zM1679 1399q0 -29 -10 -53t-28 -42t-42.5 -28t-52.5 -10q-57 0 -95 38t-38 95q0 56 38 94q39 39 95 39q28 0 52.5 -10t42.5 -28t28 -42.5t10 -52.5z" />
<glyph unicode="&#x104c2;&#x358;" horiz-adv-x="1679" d="M1335 745q0 331 -125 499.5t-370 168.5q-246 0 -371 -168.5t-125 -499.5q0 -330 125 -498.5t371 -168.5q247 0 371 167.5t124 499.5zM1565 745q0 -356 -222 -577q-197 -197 -503 -197q-153 0 -280 50t-224 147q-112 112 -166.5 253.5t-54.5 323.5t54.5 324t166.5 254 q197 197 504 197q325 0 525 -213q200 -214 200 -562zM1679 1399q0 -29 -10 -53t-28 -42t-42.5 -28t-52.5 -10q-57 0 -95 38t-38 95q0 56 38 94q39 39 95 39q28 0 52.5 -10t42.5 -28t28 -42.5t10 -52.5z" />
<glyph unicode="&#x104d8;&#x358;" horiz-adv-x="1157" d="M1151 0h-489v107h170l-299 731l-299 -731h159v-107h-399v107h119l391 956h135l391 -956h121v-107zM1133 969q0 -29 -10 -53t-28 -42t-42.5 -28t-52.5 -10q-57 0 -95 38t-38 95q0 56 38 94q39 39 95 39q28 0 52.5 -10t42.5 -28t28 -42.5t10 -52.5z" />
<glyph unicode="&#x104db;&#x358;" horiz-adv-x="1157" d="M1115 0h-489v107h170l-299 731l-299 -731h159v-107h-399v107h119l359 881l-38 93l-70 177q-19 46 -43.5 76t-41.5 46q-17 15 -38.5 23t-49.5 8q-60 0 -88.5 -29t-34.5 -98h-94v203q51 15 99.5 23t96.5 8q28 0 66.5 -3t77 -8.5t71 -14t47.5 -20.5q62 -45 111 -169 l487 -1196h121v-107zM1115 1399q0 -29 -10 -53t-28 -42t-42.5 -28t-52.5 -10q-57 0 -95 38t-38 95q0 56 38 94q39 39 95 39q28 0 52.5 -10t42.5 -28t28 -42.5t10 -52.5z" />
<glyph unicode="&#x104e3;&#x358;" horiz-adv-x="1249" d="M1131 0h-517v107h166l61 512q6 48 1.5 89t-16.5 74t-29.5 59t-38.5 44q-84 72 -221 72t-189 -72q-13 -18 -25 -44t-20 -59t-11 -74t3 -89l62 -512h166v-107h-455v107h166l-62 569q-11 107 23.5 186t94.5 130q116 100 309 100q192 0 310 -100q59 -51 93.5 -130t23.5 -186 l-61 -569h166v-107zM1306 969q0 -29 -10 -53t-28 -42t-42.5 -28t-52.5 -10q-57 0 -95 38t-38 95q0 56 38 94q39 39 95 39q28 0 52.5 -10t42.5 -28t28 -42.5t10 -52.5z" />
<glyph unicode="&#x104ea;&#x358;" horiz-adv-x="1278" d="M915 532q0 229 -75 345t-224 116t-224 -116t-75 -345t75.5 -345.5t223.5 -116.5q149 0 224 116.5t75 345.5zM1130 532q0 -254 -141 -408q-140 -153 -373 -153q-232 0 -373 153q-141 154 -141 408q0 253 140 407q141 153 374 153t373 -153q141 -153 141 -407zM1325 969 q0 -29 -10 -53t-28 -42t-42.5 -28t-52.5 -10q-57 0 -95 38t-38 95q0 56 38 94q39 39 95 39q28 0 52.5 -10t42.5 -28t28 -42.5t10 -52.5z" />
<glyph unicode="&#x104b0;&#x304;" d="M1499 106h-147l-533 1387h-168l-532 -1387h-131v-106h420v106h-164l440 1145l438 -1145h-166v-106h543v106zM416 1842h598v-148h-598v148z" />
<glyph unicode="&#xe000;&#x304;" d="M1499 106h-147l-533 1387h-168l-532 -1387h-131v-106h420v106h-164l440 1145l438 -1145h-166v-106h543v106zM1313 1399q0 28 -10 52.5t-28 42.5t-42.5 28t-52.5 10q-56 0 -95 -39q-38 -38 -38 -94q0 -57 38 -95t95 -38q28 0 52.5 10t42.5 28t28 42t10 53zM415 1842h598 v-148h-598v148z" />
<glyph unicode="&#x104b1;&#x304;" d="M729 455h-107v-455h107v455zM1499 106h-147l-533 1387h-168l-532 -1387h-131v-106h420v106h-164l440 1145l438 -1145h-166v-106h543v106zM415 1842h598v-148h-598v148z" />
<glyph unicode="&#x104b2;&#x304;" d="M817 488q0 56 -39 95q-38 39 -94 39t-95 -39q-38 -40 -38 -95t38 -95q38 -38 95 -38t95 38q38 40 38 95zM1499 106h-147l-533 1387h-168l-532 -1387h-131v-106h420v106h-164l440 1145l438 -1145h-166v-106h543v106zM415 1842h598v-148h-598v148z" />
<glyph unicode="&#x104b3;&#x304;" horiz-adv-x="1352" d="M1370 0h-555v107h174l-373 604l-373 -604h168v-107h-434v107h141l449 724v556h-191v106h584v-106h-191v-537l461 -743h140v-107zM366 1694v148h598v-148h-598z" />
<glyph unicode="&#xe001;&#x304;" horiz-adv-x="1352" d="M1370 0h-555v107h174l-373 604l-373 -604h168v-107h-434v107h141l449 724v556h-191v106h584v-106h-191v-537l461 -743h140v-107zM366 1694v148h598v-148h-598zM1352 1399q0 -29 -10 -53t-28 -42t-42.5 -28t-52.5 -10q-57 0 -95 38t-38 95q0 56 38 94q39 39 95 39 q28 0 52.5 -10t42.5 -28t28 -42.5t10 -52.5z" />
<glyph unicode="&#x104b7;&#x304;" horiz-adv-x="1464" d="M933 657q-9 -33 -22 -89.5t-31.5 -122.5t-42.5 -133t-54.5 -122t-67.5 -89.5t-81 -34.5q-65 0 -111 37t-78 97t-51.5 134.5t-29.5 149.5t-13.5 142.5t-3.5 113.5q0 45 3 112t13 140.5t29.5 147t52.5 132.5t81.5 95.5t117.5 36.5q34 0 63 -15.5t52 -40.5t41 -57t31 -66 t21.5 -67t12.5 -59zM1439 179q-15 -12 -34.5 -25.5t-40.5 -25t-43 -19.5t-42 -8q-21 0 -37 14.5t-27.5 37.5t-20 51t-14.5 55.5t-9.5 51.5t-5.5 39l-76 484l112 391q17 58 50.5 103.5t90.5 68.5v81h-109q-50 -32 -81 -74t-51 -90t-33 -100t-27 -106q-16 94 -40.5 169 t-68.5 127t-114 79.5t-176 27.5q-105 0 -185 -32.5t-138.5 -89t-97.5 -132t-62.5 -160.5t-33.5 -175.5t-10 -176.5q0 -73 9.5 -158.5t31.5 -171.5t58 -166.5t89.5 -142t125.5 -98.5t166 -37q65 0 113.5 14.5t84 41t60.5 63t44 80.5t33.5 94t29.5 103l16 -98q8 -48 30 -97 t56 -88.5t79 -64.5t99 -25q55 0 105.5 23.5t93.5 55.5v106zM415 1842h598v-148h-598v148z" />
<glyph unicode="&#x104b8;&#x304;" horiz-adv-x="1464" d="M758 740q0 28 -10 52.5t-28 42.5t-42.5 28t-52.5 10q-56 0 -95 -39q-38 -38 -38 -94q0 -58 38 -95q38 -38 95 -38q28 0 52.5 10t42.5 28t28 42t10 53zM933 657q-9 -33 -22 -89.5t-31.5 -122.5t-42.5 -133t-54.5 -122t-67.5 -89.5t-81 -34.5q-65 0 -111 37t-78 97 t-51.5 134.5t-29.5 149.5t-13.5 142.5t-3.5 113.5q0 45 3 112t13 140.5t29.5 147t52.5 132.5t81.5 95.5t117.5 36.5q34 0 63 -15.5t52 -40.5t41 -57t31 -66t21.5 -67t12.5 -59zM1439 179q-15 -12 -34.5 -25.5t-40.5 -25t-43 -19.5t-42 -8q-21 0 -37 14.5t-27.5 37.5t-20 51 t-14.5 55.5t-9.5 51.5t-5.5 39l-76 484l112 391q17 58 50.5 103.5t90.5 68.5v81h-109q-50 -32 -81 -74t-51 -90t-33 -100t-27 -106q-16 94 -40.5 169t-68.5 127t-114 79.5t-176 27.5q-105 0 -185 -32.5t-138.5 -89t-97.5 -132t-62.5 -160.5t-33.5 -175.5t-10 -176.5 q0 -73 9.5 -158.5t31.5 -171.5t58 -166.5t89.5 -142t125.5 -98.5t166 -37q65 0 113.5 14.5t84 41t60.5 63t44 80.5t33.5 94t29.5 103l16 -98q8 -48 30 -97t56 -88.5t79 -64.5t99 -25q55 0 105.5 23.5t93.5 55.5v106zM415 1842h598v-148h-598v148z" />
<glyph unicode="&#x104bb;&#x304;" horiz-adv-x="1726" d="M1470 107h-191l163 792q17 83 11 155t-27 132.5t-52.5 109t-64.5 84.5q-133 142 -448 142t-445 -141q-33 -35 -64 -83.5t-51.5 -109.5t-26.5 -133.5t11 -155.5l162 -792h-190v-107h504v107h-191l-162 772q-15 70 -11 130.5t19.5 111t38.5 90t47 67.5q93 113 322 113 q228 0 323 -113q23 -28 46 -67.5t38.5 -90t19.5 -111t-11 -130.5l-163 -772h-191v-107h584v107zM523 1842h598v-148h-598v148z" />
<glyph unicode="&#xe002;&#x304;" horiz-adv-x="1726" d="M1470 107h-191l163 792q17 83 11 155t-27 132.5t-52.5 109t-64.5 84.5q-133 142 -448 142t-445 -141q-33 -35 -64 -83.5t-51.5 -109.5t-26.5 -133.5t11 -155.5l162 -792h-190v-107h504v107h-191l-162 772q-15 70 -11 130.5t19.5 111t38.5 90t47 67.5q93 113 322 113 q228 0 323 -113q23 -28 46 -67.5t38.5 -90t19.5 -111t-11 -130.5l-163 -772h-191v-107h584v107zM1679 1399q0 28 -10 52.5t-28 42.5t-42.5 28t-52.5 10q-56 0 -95 -39q-38 -38 -38 -94q0 -57 38 -95t95 -38q28 0 52.5 10t42.5 28t28 42t10 53zM523 1842h598v-148h-598v148z " />
<glyph unicode="&#x104c2;&#x304;" horiz-adv-x="1679" d="M1335 745q0 -332 -124 -499.5t-371 -167.5q-246 0 -371 168.5t-125 498.5q0 331 125 499.5t371 168.5q245 0 370 -168.5t125 -499.5zM1565 745q0 348 -200 562q-200 213 -525 213q-307 0 -504 -197q-112 -112 -166.5 -254t-54.5 -324t54.5 -323.5t166.5 -253.5 q97 -97 224 -147t280 -50q306 0 503 197q222 221 222 577zM535 1842h598v-148h-598v148z" />
<glyph unicode="&#xe003;&#x304;" horiz-adv-x="1679" d="M1335 745q0 -332 -124 -499.5t-371 -167.5q-246 0 -371 168.5t-125 498.5q0 331 125 499.5t371 168.5q245 0 370 -168.5t125 -499.5zM1565 745q0 348 -200 562q-200 213 -525 213q-307 0 -504 -197q-112 -112 -166.5 -254t-54.5 -324t54.5 -323.5t166.5 -253.5 q97 -97 224 -147t280 -50q306 0 503 197q222 221 222 577zM1679 1399q0 28 -10 52.5t-28 42.5t-42.5 28t-52.5 10q-56 0 -95 -39q-38 -38 -38 -94q0 -57 38 -95t95 -38q28 0 52.5 10t42.5 28t28 42t10 53zM535 1842h598v-148h-598v148z" />
<glyph unicode="&#x104c3;&#x304;" horiz-adv-x="1679" d="M972 745q0 28 -10 52.5t-28 42.5t-42.5 28t-52.5 10q-56 0 -95 -39q-38 -38 -38 -94q0 -57 38 -95t95 -38q28 0 52.5 10t42.5 28t28 42t10 53zM1335 745q0 -332 -124.5 -499.5t-370.5 -167.5q-248 0 -372 167.5t-124 499.5q0 333 124 500.5t372 167.5q244 0 369.5 -168.5 t125.5 -499.5zM1565 745q0 348 -200 562q-200 213 -525 213q-309 0 -504 -197q-113 -112 -167 -254t-54 -324t54 -323.5t167 -253.5q97 -97 224 -147t280 -50q304 0 503 197q112 112 167 254.5t55 322.5zM535 1842h598v-148h-598v148z" />
<glyph unicode="&#x104ce;&#x304;" horiz-adv-x="1726" d="M1634 1493h-504v-107h191v-772q0 -287 -94 -399q-93 -113 -322 -113q-228 0 -323 113q-93 112 -93 399v772h191v107h-584v-107h191v-792q0 -339 133 -481t448 -142q314 0 445 141q131 142 131 482v792h190v107zM606 1842h598v-148h-598v148z" />
<glyph unicode="&#x104d8;&#x304;" horiz-adv-x="1157" d="M1151 107h-121l-391 956h-135l-391 -956h-119v-107h399v107h-159l299 731l299 -731h-170v-107h489v107zM307 1527h598v-148h-598v148z" />
<glyph unicode="&#xe004;&#x304;" horiz-adv-x="1157" d="M1151 107h-121l-391 956h-135l-391 -956h-119v-107h399v107h-159l299 731l299 -731h-170v-107h489v107zM1133 969q0 28 -10 52.5t-28 42.5t-42.5 28t-52.5 10q-56 0 -95 -39q-38 -38 -38 -94q0 -57 38 -95t95 -38q28 0 52.5 10t42.5 28t28 42t10 53zM307 1527h598v-148 h-598v148z" />
<glyph unicode="&#x104d9;&#x304;" horiz-adv-x="1157" d="M1151 107h-121l-391 956h-135l-391 -956h-119v-107h346v107h-106l299 731l299 -731h-114v-107h433v107zM583 455h-107v-455h107v455zM307 1527h598v-148h-598v148z" />
<glyph unicode="&#x104da;&#x304;" horiz-adv-x="1157" d="M1151 107h-121l-391 956h-135l-391 -956h-119v-107h346v107h-106l299 731l299 -731h-114v-107h433v107zM666 319q0 56 -39 95q-38 39 -94 39t-95 -39q-38 -40 -38 -95t38 -95q38 -38 95 -38t95 38q38 40 38 95zM307 1527h598v-148h-598v148z" />
<glyph unicode="&#x104db;&#x304;" horiz-adv-x="1157" d="M1115 0h-489v107h170l-299 731l-299 -731h159v-107h-399v107h119l359 881l-38 93l-70 177q-19 46 -43.5 76t-41.5 46q-17 15 -38.5 23t-49.5 8q-60 0 -88.5 -29t-34.5 -98h-94v203q51 15 99.5 23t96.5 8q28 0 66.5 -3t77 -8.5t71 -14t47.5 -20.5q62 -45 111 -169 l487 -1196h121v-107zM73 1694v148h598v-148h-598z" />
<glyph unicode="&#xe005;&#x304;" horiz-adv-x="1157" d="M1115 0h-489v107h170l-299 731l-299 -731h159v-107h-399v107h119l359 881l-38 93l-70 177q-19 46 -43.5 76t-41.5 46q-17 15 -38.5 23t-49.5 8q-60 0 -88.5 -29t-34.5 -98h-94v203q51 15 99.5 23t96.5 8q28 0 66.5 -3t77 -8.5t71 -14t47.5 -20.5q62 -45 111 -169 l487 -1196h121v-107zM73 1694v148h598v-148h-598zM1115 1399q0 -29 -10 -53t-28 -42t-42.5 -28t-52.5 -10q-57 0 -95 38t-38 95q0 56 38 94q39 39 95 39q28 0 52.5 -10t42.5 -28t28 -42.5t10 -52.5z" />
<glyph unicode="&#x104df;&#x304;" horiz-adv-x="1383" d="M801 340q-83 -245 -198 -254q-133 -10 -213 113q-73 114 -73 333q0 231 73 333q89 123 202 122q137 -2 186 -235l63 -294zM1328 170q-125 -75 -180 -50q-38 17 -74 174l-70 306l104 284q34 94 130 124v59h-101q-52 -26 -86 -65t-53 -92l-39 -111l-8 37q-29 130 -105 188 q-85 67 -256 67q-247 1 -364 -150q-124 -160 -124 -405q0 -251 124 -406q123 -153 320 -155q110 -2 172 35q94 55 126 141l40 111l15 -71q8 -41 29.5 -75t53.5 -62q143 -122 346 -5v121zM307 1527h598v-148h-598v148z" />
<glyph unicode="&#x104e0;&#x304;" horiz-adv-x="1383" d="M719 525q0 54 -39 95q-39 39 -94 39q-56 0 -95 -39q-38 -40 -38 -95q0 -57 38 -95q37 -38 95 -38t95 38q38 38 38 95zM801 340q-83 -245 -198 -254q-133 -10 -213 113q-73 114 -73 333q0 231 73 333q89 123 202 122q137 -2 186 -235l63 -294zM1328 170q-125 -75 -180 -50 q-38 17 -74 174l-70 306l104 284q34 94 130 124v59h-101q-52 -26 -86 -65t-53 -92l-39 -111l-8 37q-29 130 -105 188q-85 67 -256 67q-247 1 -364 -150q-124 -160 -124 -405q0 -251 124 -406q123 -153 320 -155q110 -2 172 35q94 55 126 141l40 111l15 -71q8 -41 29.5 -75 t53.5 -62q143 -122 346 -5v121zM307 1527h598v-148h-598v148z" />
<glyph unicode="&#x104e3;&#x304;" horiz-adv-x="1198" d="M1131 107h-166l61 569q11 107 -23.5 186t-93.5 130q-118 100 -310 100q-193 0 -309 -100q-60 -51 -94.5 -130t-23.5 -186l62 -569h-166v-107h455v107h-166l-62 512q-6 48 -3 89t11 74t20 59t25 44q52 72 189 72t221 -72q21 -18 38.5 -44t29.5 -59t16.5 -74t-1.5 -89 l-61 -512h-166v-107h517v107zM307 1527h598v-148h-598v148z" />
<glyph unicode="&#xe006;&#x304;" horiz-adv-x="1249" d="M1131 107h-166l61 569q11 107 -23.5 186t-93.5 130q-118 100 -310 100q-193 0 -309 -100q-60 -51 -94.5 -130t-23.5 -186l62 -569h-166v-107h455v107h-166l-62 512q-6 48 -3 89t11 74t20 59t25 44q52 72 189 72t221 -72q21 -18 38.5 -44t29.5 -59t16.5 -74t-1.5 -89 l-61 -512h-166v-107h517v107zM1306 969q0 28 -10 52.5t-28 42.5t-42.5 28t-52.5 10q-56 0 -95 -39q-38 -38 -38 -94q0 -57 38 -95t95 -38q28 0 52.5 10t42.5 28t28 42t10 53zM307 1527h598v-148h-598v148z" />
<glyph unicode="&#x104ea;&#x304;" horiz-adv-x="1233" d="M915 532q0 -229 -75 -345.5t-224 -116.5q-148 0 -223.5 116.5t-75.5 345.5t75 345t224 116t224 -116t75 -345zM1130 532q0 254 -141 407q-140 153 -373 153t-374 -153q-140 -154 -140 -407q0 -254 141 -408q141 -153 373 -153q233 0 373 153q141 154 141 408zM307 1527 h598v-148h-598v148z" />
<glyph unicode="&#xe007;&#x304;" horiz-adv-x="1278" d="M915 532q0 -229 -75 -345.5t-224 -116.5q-148 0 -223.5 116.5t-75.5 345.5t75 345t224 116t224 -116t75 -345zM1130 532q0 254 -141 407q-140 153 -373 153t-374 -153q-140 -154 -140 -407q0 -254 141 -408q141 -153 373 -153q233 0 373 153q141 154 141 408zM1325 969 q0 28 -10 52.5t-28 42.5t-42.5 28t-52.5 10q-56 0 -95 -39q-38 -38 -38 -94q0 -57 38 -95t95 -38q28 0 52.5 10t42.5 28t28 42t10 53zM307 1527h598v-148h-598v148z" />
<glyph unicode="&#x104eb;&#x304;" horiz-adv-x="1233" d="M750 532q0 54 -39 95q-39 39 -94 39q-58 0 -95 -39q-38 -38 -38 -95t38 -95q36 -38 95 -38q57 0 95 38q38 40 38 95zM916 532q0 -229 -75.5 -345.5t-223.5 -116.5q-149 0 -224 116.5t-75 345.5t75 345t224 116t224 -116t75 -345zM1131 532q0 252 -141 407 q-141 153 -373 153q-235 0 -374 -153q-140 -152 -140 -407t141 -408q139 -153 373 -153q232 0 373 153q141 156 141 408zM307 1527h598v-148h-598v148z" />
<glyph unicode="&#x104f6;&#x304;" horiz-adv-x="1198" d="M1192 1063h-455v-107h166v-512q0 -193 -53 -266q-53 -72 -189 -72q-137 0 -221 72q-83 72 -83 266v512h166v107h-517v-107h166v-569q0 -216 117 -316q118 -100 310 -100q193 0 309 100q118 100 118 316v569h166v107zM307 1527h598v-148h-598v148z" />
<glyph unicode="&#x104b0;&#x301;" d="M1499 106h-147l-533 1387h-168l-532 -1387h-131v-106h420v106h-164l440 1145l438 -1145h-166v-106h543v106zM811 1899h197l-262 -264h-117z" />
<glyph unicode="&#xe000;&#x301;" d="M1499 106h-147l-533 1387h-168l-532 -1387h-131v-106h420v106h-164l440 1145l438 -1145h-166v-106h543v106zM1313 1399q0 28 -10 52.5t-28 42.5t-42.5 28t-52.5 10q-56 0 -95 -39q-38 -38 -38 -94q0 -57 38 -95t95 -38q28 0 52.5 10t42.5 28t28 42t10 53zM811 1899h197 l-262 -264h-117z" />
<glyph unicode="&#x104b1;&#x301;" d="M729 455h-107v-455h107v455zM1499 106h-147l-533 1387h-168l-532 -1387h-131v-106h420v106h-164l440 1145l438 -1145h-166v-106h543v106zM811 1899h197l-262 -264h-117z" />
<glyph unicode="&#x104b2;&#x301;" d="M817 488q0 56 -39 95q-38 39 -94 39t-95 -39q-38 -40 -38 -95t38 -95q38 -38 95 -38t95 38q38 40 38 95zM1499 106h-147l-533 1387h-168l-532 -1387h-131v-106h420v106h-164l440 1145l438 -1145h-166v-106h543v106zM811 1899h197l-262 -264h-117z" />
<glyph unicode="&#x104b3;&#x301;" horiz-adv-x="1352" d="M1370 107h-140l-461 743v537h191v106h-584v-106h191v-556l-449 -724h-141v-107h434v107h-168l373 604l373 -604h-174v-107h555v107zM811 1899h197l-262 -264h-117z" />
<glyph unicode="&#xe001;&#x301;" horiz-adv-x="1352" d="M1370 107h-140l-461 743v537h191v106h-584v-106h191v-556l-449 -724h-141v-107h434v107h-168l373 604l373 -604h-174v-107h555v107zM811 1899h197l-262 -264h-117zM1352 1399q0 28 -10 52.5t-28 42.5t-42.5 28t-52.5 10q-56 0 -95 -39q-38 -38 -38 -94q0 -57 38 -95 t95 -38q28 0 52.5 10t42.5 28t28 42t10 53z" />
<glyph unicode="&#x104b7;&#x301;" horiz-adv-x="1464" d="M933 657q-9 -33 -22 -89.5t-31.5 -122.5t-42.5 -133t-54.5 -122t-67.5 -89.5t-81 -34.5q-65 0 -111 37t-78 97t-51.5 134.5t-29.5 149.5t-13.5 142.5t-3.5 113.5q0 45 3 112t13 140.5t29.5 147t52.5 132.5t81.5 95.5t117.5 36.5q34 0 63 -15.5t52 -40.5t41 -57t31 -66 t21.5 -67t12.5 -59zM1439 179q-15 -12 -34.5 -25.5t-40.5 -25t-43 -19.5t-42 -8q-21 0 -37 14.5t-27.5 37.5t-20 51t-14.5 55.5t-9.5 51.5t-5.5 39l-76 484l112 391q17 58 50.5 103.5t90.5 68.5v81h-109q-50 -32 -81 -74t-51 -90t-33 -100t-27 -106q-16 94 -40.5 169 t-68.5 127t-114 79.5t-176 27.5q-105 0 -185 -32.5t-138.5 -89t-97.5 -132t-62.5 -160.5t-33.5 -175.5t-10 -176.5q0 -73 9.5 -158.5t31.5 -171.5t58 -166.5t89.5 -142t125.5 -98.5t166 -37q65 0 113.5 14.5t84 41t60.5 63t44 80.5t33.5 94t29.5 103l16 -98q8 -48 30 -97 t56 -88.5t79 -64.5t99 -25q55 0 105.5 23.5t93.5 55.5v106zM811 1899h197l-262 -264h-117z" />
<glyph unicode="&#x104b8;&#x301;" horiz-adv-x="1464" d="M758 740q0 28 -10 52.5t-28 42.5t-42.5 28t-52.5 10q-56 0 -95 -39q-38 -38 -38 -94q0 -58 38 -95q38 -38 95 -38q28 0 52.5 10t42.5 28t28 42t10 53zM933 657q-9 -33 -22 -89.5t-31.5 -122.5t-42.5 -133t-54.5 -122t-67.5 -89.5t-81 -34.5q-65 0 -111 37t-78 97 t-51.5 134.5t-29.5 149.5t-13.5 142.5t-3.5 113.5q0 45 3 112t13 140.5t29.5 147t52.5 132.5t81.5 95.5t117.5 36.5q34 0 63 -15.5t52 -40.5t41 -57t31 -66t21.5 -67t12.5 -59zM1439 179q-15 -12 -34.5 -25.5t-40.5 -25t-43 -19.5t-42 -8q-29 0 -48.5 27t-32.5 64.5 t-20 77.5t-11 66l-78 498l112 391q17 58 50.5 103.5t90.5 68.5v81h-109q-50 -32 -81 -74t-51 -90t-33 -100t-27 -106q-16 94 -40.5 169t-68.5 127t-114 79.5t-176 27.5q-105 0 -185 -32.5t-138.5 -89t-97.5 -132t-62.5 -160.5t-33.5 -175.5t-10 -176.5q0 -73 9.5 -158.5 t31.5 -171.5t58 -166.5t89.5 -142t125.5 -98.5t166 -37q63 0 110.5 13.5t82.5 38.5t60 59.5t44 76t33.5 89.5t28.5 99l6 20l16 -98q8 -48 30 -97t56 -88.5t79 -64.5t99 -25q55 0 105.5 23.5t93.5 55.5v106zM811 1899h197l-262 -264h-117z" />
<glyph unicode="&#x104bb;&#x301;" horiz-adv-x="1726" d="M1470 107h-191l163 792q17 83 11 155t-27 132.5t-52.5 109t-64.5 84.5q-133 142 -448 142t-445 -141q-33 -35 -64 -83.5t-51.5 -109.5t-26.5 -133.5t11 -155.5l162 -792h-190v-107h504v107h-191l-162 772q-15 70 -11 130.5t19.5 111t38.5 90t47 67.5q93 113 322 113 q228 0 323 -113q23 -28 46 -67.5t38.5 -90t19.5 -111t-11 -130.5l-163 -772h-191v-107h584v107zM811 1899h197l-262 -264h-117z" />
<glyph unicode="&#xe002;&#x301;" horiz-adv-x="1726" d="M1470 107h-191l163 792q17 83 11 155t-27 132.5t-52.5 109t-64.5 84.5q-133 142 -448 142t-445 -141q-33 -35 -64 -83.5t-51.5 -109.5t-26.5 -133.5t11 -155.5l162 -792h-190v-107h504v107h-191l-162 772q-15 70 -11 130.5t19.5 111t38.5 90t47 67.5q93 113 322 113 q228 0 323 -113q23 -28 46 -67.5t38.5 -90t19.5 -111t-11 -130.5l-163 -772h-191v-107h584v107zM1679 1399q0 28 -10 52.5t-28 42.5t-42.5 28t-52.5 10q-56 0 -95 -39q-38 -38 -38 -94q0 -57 38 -95t95 -38q28 0 52.5 10t42.5 28t28 42t10 53zM811 1899h197l-262 -264h-117z " />
<glyph unicode="&#x104c2;&#x301;" horiz-adv-x="1679" d="M1335 745q0 -332 -124 -499.5t-371 -167.5q-246 0 -371 168.5t-125 498.5q0 331 125 499.5t371 168.5q245 0 370 -168.5t125 -499.5zM1565 745q0 348 -200 562q-200 213 -525 213q-307 0 -504 -197q-112 -112 -166.5 -254t-54.5 -324t54.5 -323.5t166.5 -253.5 q97 -97 224 -147t280 -50q306 0 503 197q222 221 222 577zM811 1899h197l-262 -264h-117z" />
<glyph unicode="&#xe003;&#x301;" horiz-adv-x="1679" d="M1335 745q0 -332 -124 -499.5t-371 -167.5q-246 0 -371 168.5t-125 498.5q0 331 125 499.5t371 168.5q245 0 370 -168.5t125 -499.5zM1565 745q0 348 -200 562q-200 213 -525 213q-307 0 -504 -197q-112 -112 -166.5 -254t-54.5 -324t54.5 -323.5t166.5 -253.5 q97 -97 224 -147t280 -50q306 0 503 197q222 221 222 577zM1679 1399q0 28 -10 52.5t-28 42.5t-42.5 28t-52.5 10q-56 0 -95 -39q-38 -38 -38 -94q0 -57 38 -95t95 -38q28 0 52.5 10t42.5 28t28 42t10 53zM811 1899h197l-262 -264h-117z" />
<glyph unicode="&#x104c3;&#x301;" horiz-adv-x="1679" d="M972 745q0 28 -10 52.5t-28 42.5t-42.5 28t-52.5 10q-56 0 -95 -39q-38 -38 -38 -94q0 -57 38 -95t95 -38q28 0 52.5 10t42.5 28t28 42t10 53zM1335 745q0 -332 -124.5 -499.5t-370.5 -167.5q-248 0 -372 167.5t-124 499.5q0 333 124 500.5t372 167.5q244 0 369.5 -168.5 t125.5 -499.5zM1565 745q0 348 -200 562q-200 213 -525 213q-309 0 -504 -197q-113 -112 -167 -254t-54 -324t54 -323.5t167 -253.5q97 -97 224 -147t280 -50q304 0 503 197q112 112 167 254.5t55 322.5zM811 1899h197l-262 -264h-117z" />
<glyph unicode="&#x104ce;&#x301;" horiz-adv-x="1726" d="M1634 1493h-504v-107h191v-772q0 -287 -94 -399q-93 -113 -322 -113q-228 0 -323 113q-93 112 -93 399v772h191v107h-584v-107h191v-792q0 -339 133 -481t448 -142q314 0 445 141q131 142 131 482v792h190v107zM811 1899h197l-262 -264h-117z" />
<glyph unicode="&#x104d8;&#x301;" horiz-adv-x="1157" d="M1151 107h-121l-391 956h-135l-391 -956h-119v-107h399v107h-159l299 731l299 -731h-170v-107h489v107zM745 1638h199l-340 -376h-117z" />
<glyph unicode="&#xe004;&#x301;" horiz-adv-x="1157" d="M1151 107h-121l-391 956h-135l-391 -956h-119v-107h399v107h-159l299 731l299 -731h-170v-107h489v107zM1133 969q0 28 -10 52.5t-28 42.5t-42.5 28t-52.5 10q-56 0 -95 -39q-38 -38 -38 -94q0 -57 38 -95t95 -38q28 0 52.5 10t42.5 28t28 42t10 53zM745 1638h199 l-340 -376h-117z" />
<glyph unicode="&#x104d9;&#x301;" horiz-adv-x="1157" d="M1151 107h-121l-391 956h-135l-391 -956h-119v-107h346v107h-106l299 731l299 -731h-114v-107h433v107zM583 455h-107v-455h107v455zM745 1638h199l-340 -376h-117z" />
<glyph unicode="&#x104da;&#x301;" horiz-adv-x="1157" d="M1151 107h-121l-391 956h-135l-391 -956h-119v-107h346v107h-106l299 731l299 -731h-114v-107h433v107zM666 319q0 56 -39 95q-38 39 -94 39t-95 -39q-38 -40 -38 -95t38 -95q38 -38 95 -38t95 38q38 40 38 95zM745 1638h199l-340 -376h-117z" />
<glyph unicode="&#x104db;&#x301;" horiz-adv-x="1157" d="M1115 107h-121l-487 1196q-49 124 -111 169q-15 12 -47.5 20.5t-71 14t-77 8.5t-66.5 3q-48 0 -96.5 -8t-99.5 -23v-203h94q6 69 34.5 98t88.5 29q28 0 49.5 -8t38.5 -23q17 -16 41.5 -46t43.5 -76l70 -177l38 -93l-359 -881h-119v-107h399v107h-159l299 731l299 -731 h-170v-107h489v107zM469 1899h197l-262 -264h-117z" />
<glyph unicode="&#xe005;&#x301;" horiz-adv-x="1157" d="M1115 107h-121l-487 1196q-49 124 -111 169q-15 12 -47.5 20.5t-71 14t-77 8.5t-66.5 3q-48 0 -96.5 -8t-99.5 -23v-203h94q6 69 34.5 98t88.5 29q28 0 49.5 -8t38.5 -23q17 -16 41.5 -46t43.5 -76l70 -177l38 -93l-359 -881h-119v-107h399v107h-159l299 731l299 -731 h-170v-107h489v107zM469 1899h197l-262 -264h-117zM1115 1399q0 28 -10 52.5t-28 42.5t-42.5 28t-52.5 10q-56 0 -95 -39q-38 -38 -38 -94q0 -57 38 -95t95 -38q28 0 52.5 10t42.5 28t28 42t10 53z" />
<glyph unicode="&#x104df;&#x301;" horiz-adv-x="1383" d="M801 340q-83 -245 -198 -254q-133 -10 -213 113q-73 114 -73 333q0 231 73 333q89 123 202 122q137 -2 186 -235l63 -294zM1328 170q-125 -75 -180 -50q-38 17 -74 174l-70 306l104 284q34 94 130 124v59h-101q-52 -26 -86 -65t-53 -92l-39 -111l-8 37q-29 130 -105 188 q-85 67 -256 67q-247 1 -364 -150q-124 -160 -124 -405q0 -251 124 -406q123 -153 320 -155q110 -2 172 35q94 55 126 141l40 111l15 -71q8 -41 29.5 -75t53.5 -62q143 -122 346 -5v121zM745 1638h199l-340 -376h-117z" />
<glyph unicode="&#x104e0;&#x301;" horiz-adv-x="1383" d="M719 525q0 54 -39 95q-39 39 -94 39q-56 0 -95 -39q-38 -40 -38 -95q0 -57 38 -95q37 -38 95 -38t95 38q38 38 38 95zM801 340q-83 -245 -198 -254q-133 -10 -213 113q-73 114 -73 333q0 231 73 333q89 123 202 122q137 -2 186 -235l63 -294zM1328 170q-125 -75 -180 -50 q-38 17 -74 174l-70 306l104 284q34 94 130 124v59h-101q-52 -26 -86 -65t-53 -92l-39 -111l-8 37q-29 130 -105 188q-85 67 -256 67q-247 1 -364 -150q-124 -160 -124 -405q0 -251 124 -406q123 -153 320 -155q110 -2 172 35q94 55 126 141l40 111l15 -71q8 -41 29.5 -75 t53.5 -62q143 -122 346 -5v121zM745 1638h199l-340 -376h-117z" />
<glyph unicode="&#x104e3;&#x301;" horiz-adv-x="1198" d="M1131 107h-166l61 569q11 107 -23.5 186t-93.5 130q-118 100 -310 100q-193 0 -309 -100q-60 -51 -94.5 -130t-23.5 -186l62 -569h-166v-107h455v107h-166l-62 512q-6 48 -3 89t11 74t20 59t25 44q52 72 189 72t221 -72q21 -18 38.5 -44t29.5 -59t16.5 -74t-1.5 -89 l-61 -512h-166v-107h517v107zM745 1638h199l-340 -376h-117z" />
<glyph unicode="&#xe006;&#x301;" horiz-adv-x="1249" d="M1131 107h-166l61 569q11 107 -23.5 186t-93.5 130q-118 100 -310 100q-193 0 -309 -100q-60 -51 -94.5 -130t-23.5 -186l62 -569h-166v-107h455v107h-166l-62 512q-6 48 -3 89t11 74t20 59t25 44q52 72 189 72t221 -72q21 -18 38.5 -44t29.5 -59t16.5 -74t-1.5 -89 l-61 -512h-166v-107h517v107zM1306 969q0 28 -10 52.5t-28 42.5t-42.5 28t-52.5 10q-56 0 -95 -39q-38 -38 -38 -94q0 -57 38 -95t95 -38q28 0 52.5 10t42.5 28t28 42t10 53zM745 1638h199l-340 -376h-117z" />
<glyph unicode="&#x104ea;&#x301;" horiz-adv-x="1233" d="M915 532q0 -229 -75 -345.5t-224 -116.5q-148 0 -223.5 116.5t-75.5 345.5t75 345t224 116t224 -116t75 -345zM1130 532q0 254 -141 407q-140 153 -373 153t-374 -153q-140 -154 -140 -407q0 -254 141 -408q141 -153 373 -153q233 0 373 153q141 154 141 408zM745 1638 h199l-340 -376h-117z" />
<glyph unicode="&#xe007;&#x301;" horiz-adv-x="1278" d="M915 532q0 -229 -75 -345.5t-224 -116.5q-148 0 -223.5 116.5t-75.5 345.5t75 345t224 116t224 -116t75 -345zM1130 532q0 254 -141 407q-140 153 -373 153t-374 -153q-140 -154 -140 -407q0 -254 141 -408q141 -153 373 -153q233 0 373 153q141 154 141 408zM1325 969 q0 28 -10 52.5t-28 42.5t-42.5 28t-52.5 10q-56 0 -95 -39q-38 -38 -38 -94q0 -57 38 -95t95 -38q28 0 52.5 10t42.5 28t28 42t10 53zM745 1638h199l-340 -376h-117z" />
<glyph unicode="&#x104eb;&#x301;" horiz-adv-x="1233" d="M750 532q0 54 -39 95q-39 39 -94 39q-58 0 -95 -39q-38 -38 -38 -95t38 -95q36 -38 95 -38q57 0 95 38q38 40 38 95zM916 532q0 -229 -75.5 -345.5t-223.5 -116.5q-149 0 -224 116.5t-75 345.5t75 345t224 116t224 -116t75 -345zM1131 532q0 252 -141 407 q-141 153 -373 153q-235 0 -374 -153q-140 -152 -140 -407t141 -408q139 -153 373 -153q232 0 373 153q141 156 141 408zM745 1638h199l-340 -376h-117z" />
<glyph unicode="&#x104f6;&#x301;" horiz-adv-x="1198" d="M1192 1063h-455v-107h166v-512q0 -193 -53 -266q-53 -72 -189 -72q-137 0 -221 72q-83 72 -83 266v512h166v107h-517v-107h166v-569q0 -216 117 -316q118 -100 310 -100q193 0 309 100q118 100 118 316v569h166v107zM745 1638h199l-340 -376h-117z" />
<glyph unicode="&#x104b0;&#x30b;" d="M1499 106h-147l-533 1387h-168l-532 -1387h-131v-106h420v106h-164l440 1145l438 -1145h-166v-106h543v106zM1071 1899h197l-262 -264h-117zM754 1899h197l-262 -264h-117z" />
<glyph unicode="&#xe000;&#x30b;" d="M1499 106h-147l-533 1387h-168l-532 -1387h-131v-106h420v106h-164l440 1145l438 -1145h-166v-106h543v106zM1313 1399q0 28 -10 52.5t-28 42.5t-42.5 28t-52.5 10q-56 0 -95 -39q-38 -38 -38 -94q0 -57 38 -95t95 -38q28 0 52.5 10t42.5 28t28 42t10 53zM1071 1899h197 l-262 -264h-117zM754 1899h197l-262 -264h-117z" />
<glyph unicode="&#x104b1;&#x30b;" d="M729 455h-107v-455h107v455zM1499 106h-147l-533 1387h-168l-532 -1387h-131v-106h420v106h-164l440 1145l438 -1145h-166v-106h543v106zM1071 1899h197l-262 -264h-117zM754 1899h197l-262 -264h-117z" />
<glyph unicode="&#x104b2;&#x30b;" d="M817 488q0 56 -39 95q-38 39 -94 39t-95 -39q-38 -40 -38 -95t38 -95q38 -38 95 -38t95 38q38 40 38 95zM1499 106h-147l-533 1387h-168l-532 -1387h-131v-106h420v106h-164l440 1145l438 -1145h-166v-106h543v106zM1071 1899h197l-262 -264h-117zM754 1899h197 l-262 -264h-117z" />
<glyph unicode="&#x104b3;&#x30b;" horiz-adv-x="1352" d="M1370 107h-140l-461 743v537h191v106h-584v-106h191v-556l-449 -724h-141v-107h434v107h-168l373 604l373 -604h-174v-107h555v107zM957 1899h197l-262 -264h-117zM640 1899h197l-262 -264h-117z" />
<glyph unicode="&#xe001;&#x30b;" horiz-adv-x="1352" d="M1370 107h-140l-461 743v537h191v106h-584v-106h191v-556l-449 -724h-141v-107h434v107h-168l373 604l373 -604h-174v-107h555v107zM957 1899h197l-262 -264h-117zM640 1899h197l-262 -264h-117zM1352 1399q0 28 -10 52.5t-28 42.5t-42.5 28t-52.5 10q-56 0 -95 -39 q-38 -38 -38 -94q0 -57 38 -95t95 -38q28 0 52.5 10t42.5 28t28 42t10 53z" />
<glyph unicode="&#x104b7;&#x30b;" horiz-adv-x="1464" d="M933 657q-9 -33 -22 -89.5t-31.5 -122.5t-42.5 -133t-54.5 -122t-67.5 -89.5t-81 -34.5q-65 0 -111 37t-78 97t-51.5 134.5t-29.5 149.5t-13.5 142.5t-3.5 113.5q0 45 3 112t13 140.5t29.5 147t52.5 132.5t81.5 95.5t117.5 36.5q34 0 63 -15.5t52 -40.5t41 -57t31 -66 t21.5 -67t12.5 -59zM1439 179q-15 -12 -34.5 -25.5t-40.5 -25t-43 -19.5t-42 -8q-21 0 -37 14.5t-27.5 37.5t-20 51t-14.5 55.5t-9.5 51.5t-5.5 39l-76 484l112 391q17 58 50.5 103.5t90.5 68.5v81h-109q-50 -32 -81 -74t-51 -90t-33 -100t-27 -106q-16 94 -40.5 169 t-68.5 127t-114 79.5t-176 27.5q-105 0 -185 -32.5t-138.5 -89t-97.5 -132t-62.5 -160.5t-33.5 -175.5t-10 -176.5q0 -73 9.5 -158.5t31.5 -171.5t58 -166.5t89.5 -142t125.5 -98.5t166 -37q65 0 113.5 14.5t84 41t60.5 63t44 80.5t33.5 94t29.5 103l16 -98q8 -48 30 -97 t56 -88.5t79 -64.5t99 -25q55 0 105.5 23.5t93.5 55.5v106zM1071 1899h197l-262 -264h-117zM754 1899h197l-262 -264h-117z" />
<glyph unicode="&#x104b8;&#x30b;" horiz-adv-x="1464" d="M758 740q0 28 -10 52.5t-28 42.5t-42.5 28t-52.5 10q-56 0 -95 -39q-38 -38 -38 -94q0 -58 38 -95q38 -38 95 -38q28 0 52.5 10t42.5 28t28 42t10 53zM933 657q-9 -33 -22 -89.5t-31.5 -122.5t-42.5 -133t-54.5 -122t-67.5 -89.5t-81 -34.5q-65 0 -111 37t-78 97 t-51.5 134.5t-29.5 149.5t-13.5 142.5t-3.5 113.5q0 45 3 112t13 140.5t29.5 147t52.5 132.5t81.5 95.5t117.5 36.5q34 0 63 -15.5t52 -40.5t41 -57t31 -66t21.5 -67t12.5 -59zM1439 179q-15 -12 -34.5 -25.5t-40.5 -25t-43 -19.5t-42 -8q-21 0 -37 14.5t-27.5 37.5t-20 51 t-14.5 55.5t-9.5 51.5t-5.5 39l-76 484l112 391q17 58 50.5 103.5t90.5 68.5v81h-109q-50 -32 -81 -74t-51 -90t-33 -100t-27 -106q-16 94 -40.5 169t-68.5 127t-114 79.5t-176 27.5q-105 0 -185 -32.5t-138.5 -89t-97.5 -132t-62.5 -160.5t-33.5 -175.5t-10 -176.5 q0 -73 9.5 -158.5t31.5 -171.5t58 -166.5t89.5 -142t125.5 -98.5t166 -37q65 0 113.5 14.5t84 41t60.5 63t44 80.5t33.5 94t29.5 103l16 -98q8 -48 30 -97t56 -88.5t79 -64.5t99 -25q55 0 105.5 23.5t93.5 55.5v106zM1071 1899h197l-262 -264h-117zM754 1899h197l-262 -264 h-117z" />
<glyph unicode="&#x104bb;&#x30b;" horiz-adv-x="1726" d="M1470 107h-191l163 792q17 83 11 155t-27 132.5t-52.5 109t-64.5 84.5q-133 142 -448 142t-445 -141q-33 -35 -64 -83.5t-51.5 -109.5t-26.5 -133.5t11 -155.5l162 -792h-190v-107h504v107h-191l-162 772q-15 70 -11 130.5t19.5 111t38.5 90t47 67.5q93 113 322 113 q228 0 323 -113q23 -28 46 -67.5t38.5 -90t19.5 -111t-11 -130.5l-163 -772h-191v-107h584v107zM1071 1899h197l-262 -264h-117zM754 1899h197l-262 -264h-117z" />
<glyph unicode="&#xe002;&#x30b;" horiz-adv-x="1726" d="M1470 107h-191l163 792q17 83 11 155t-27 132.5t-52.5 109t-64.5 84.5q-133 142 -448 142t-445 -141q-33 -35 -64 -83.5t-51.5 -109.5t-26.5 -133.5t11 -155.5l162 -792h-190v-107h504v107h-191l-162 772q-15 70 -11 130.5t19.5 111t38.5 90t47 67.5q93 113 322 113 q228 0 323 -113q23 -28 46 -67.5t38.5 -90t19.5 -111t-11 -130.5l-163 -772h-191v-107h584v107zM1679 1399q0 28 -10 52.5t-28 42.5t-42.5 28t-52.5 10q-56 0 -95 -39q-38 -38 -38 -94q0 -57 38 -95t95 -38q28 0 52.5 10t42.5 28t28 42t10 53zM1071 1899h197l-262 -264h-117 zM754 1899h197l-262 -264h-117z" />
<glyph unicode="&#x104c2;&#x30b;" horiz-adv-x="1679" d="M1335 745q0 -332 -124 -499.5t-371 -167.5q-246 0 -371 168.5t-125 498.5q0 331 125 499.5t371 168.5q245 0 370 -168.5t125 -499.5zM1565 745q0 348 -200 562q-200 213 -525 213q-307 0 -504 -197q-112 -112 -166.5 -254t-54.5 -324t54.5 -323.5t166.5 -253.5 q97 -97 224 -147t280 -50q306 0 503 197q222 221 222 577zM1071 1899h197l-262 -264h-117zM754 1899h197l-262 -264h-117z" />
<glyph unicode="&#xe003;&#x30b;" horiz-adv-x="1679" d="M1335 745q0 -332 -124 -499.5t-371 -167.5q-246 0 -371 168.5t-125 498.5q0 331 125 499.5t371 168.5q245 0 370 -168.5t125 -499.5zM1565 745q0 348 -200 562q-200 213 -525 213q-307 0 -504 -197q-112 -112 -166.5 -254t-54.5 -324t54.5 -323.5t166.5 -253.5 q97 -97 224 -147t280 -50q306 0 503 197q222 221 222 577zM1679 1399q0 28 -10 52.5t-28 42.5t-42.5 28t-52.5 10q-56 0 -95 -39q-38 -38 -38 -94q0 -57 38 -95t95 -38q28 0 52.5 10t42.5 28t28 42t10 53zM1071 1899h197l-262 -264h-117zM754 1899h197l-262 -264h-117z" />
<glyph unicode="&#x104c3;&#x30b;" horiz-adv-x="1679" d="M972 745q0 28 -10 52.5t-28 42.5t-42.5 28t-52.5 10q-56 0 -95 -39q-38 -38 -38 -94q0 -57 38 -95t95 -38q28 0 52.5 10t42.5 28t28 42t10 53zM1335 745q0 -332 -124.5 -499.5t-370.5 -167.5q-248 0 -372 167.5t-124 499.5q0 333 124 500.5t372 167.5q244 0 369.5 -168.5 t125.5 -499.5zM1565 745q0 348 -200 562q-200 213 -525 213q-309 0 -504 -197q-113 -112 -167 -254t-54 -324t54 -323.5t167 -253.5q97 -97 224 -147t280 -50q304 0 503 197q112 112 167 254.5t55 322.5zM1071 1899h197l-262 -264h-117zM754 1899h197l-262 -264h-117z" />
<glyph unicode="&#x104ce;&#x30b;" horiz-adv-x="1726" d="M1634 1493h-504v-107h191v-772q0 -287 -94 -399q-93 -113 -322 -113q-228 0 -323 113q-93 112 -93 399v772h191v107h-584v-107h191v-792q0 -339 133 -481t448 -142q314 0 445 141q131 142 131 482v792h190v107zM1071 1899h197l-262 -264h-117zM754 1899h197l-262 -264 h-117z" />
<glyph unicode="&#x104d8;&#x30b;" horiz-adv-x="1157" d="M1151 107h-121l-391 956h-135l-391 -956h-119v-107h399v107h-159l299 731l299 -731h-170v-107h489v107zM600 1638h170l-244 -376h-114zM930 1638h178l-287 -376h-116z" />
<glyph unicode="&#xe004;&#x30b;" horiz-adv-x="1157" d="M1151 107h-121l-391 956h-135l-391 -956h-119v-107h399v107h-159l299 731l299 -731h-170v-107h489v107zM1133 969q0 28 -10 52.5t-28 42.5t-42.5 28t-52.5 10q-56 0 -95 -39q-38 -38 -38 -94q0 -57 38 -95t95 -38q28 0 52.5 10t42.5 28t28 42t10 53zM600 1638h170 l-244 -376h-114zM930 1638h178l-287 -376h-116z" />
<glyph unicode="&#x104d9;&#x30b;" horiz-adv-x="1157" d="M1151 107h-121l-391 956h-135l-391 -956h-119v-107h346v107h-106l299 731l299 -731h-114v-107h433v107zM600 1638h170l-244 -376h-114zM930 1638h178l-287 -376h-116zM583 455h-107v-455h107v455z" />
<glyph unicode="&#x104da;&#x30b;" horiz-adv-x="1157" d="M1151 107h-121l-391 956h-135l-391 -956h-119v-107h346v107h-106l299 731l299 -731h-114v-107h433v107zM600 1638h170l-244 -376h-114zM930 1638h178l-287 -376h-116zM666 319q0 56 -39 95q-38 39 -94 39t-95 -39q-38 -40 -38 -95t38 -95q38 -38 95 -38t95 38 q38 40 38 95z" />
<glyph unicode="&#x104db;&#x30b;" horiz-adv-x="1157" d="M1115 0h-489v107h170l-299 731l-299 -731h159v-107h-399v107h119l359 881l-38 93l-70 177q-19 46 -43.5 76t-41.5 46q-17 15 -38.5 23t-49.5 8q-60 0 -88.5 -29t-34.5 -98h-94v203q51 15 99.5 23t96.5 8q28 0 66.5 -3t77 -8.5t71 -14t47.5 -20.5q62 -45 111 -169 l487 -1196h121v-107z" />
<glyph unicode="&#xe005;&#x30b;" horiz-adv-x="1157" d="M1115 0h-489v107h170l-299 731l-299 -731h159v-107h-399v107h119l359 881l-38 93l-70 177q-19 46 -43.5 76t-41.5 46q-17 15 -38.5 23t-49.5 8q-60 0 -88.5 -29t-34.5 -98h-94v203q51 15 99.5 23t96.5 8q28 0 66.5 -3t77 -8.5t71 -14t47.5 -20.5q62 -45 111 -169 l487 -1196h121v-107zM1115 1399q0 -29 -10 -53t-28 -42t-42.5 -28t-52.5 -10q-57 0 -95 38t-38 95q0 56 38 94q39 39 95 39q28 0 52.5 -10t42.5 -28t28 -42.5t10 -52.5z" />
<glyph unicode="&#x104df;&#x30b;" horiz-adv-x="1383" d="M801 340q-83 -245 -198 -254q-133 -10 -213 113q-73 114 -73 333q0 231 73 333q89 123 202 122q137 -2 186 -235l63 -294zM1328 170q-125 -75 -180 -50q-38 17 -74 174l-70 306l104 284q34 94 130 124v59h-101q-52 -26 -86 -65t-53 -92l-39 -111l-8 37q-29 130 -105 188 q-85 67 -256 67q-247 1 -364 -150q-124 -160 -124 -405q0 -251 124 -406q123 -153 320 -155q110 -2 172 35q94 55 126 141l40 111l15 -71q8 -41 29.5 -75t53.5 -62q143 -122 346 -5v121zM600 1638h170l-244 -376h-114zM930 1638h178l-287 -376h-116z" />
<glyph unicode="&#x104e0;&#x30b;" horiz-adv-x="1383" d="M719 525q0 54 -39 95q-39 39 -94 39q-56 0 -95 -39q-38 -40 -38 -95q0 -57 38 -95q37 -38 95 -38t95 38q38 38 38 95zM801 340q-83 -245 -198 -254q-133 -10 -213 113q-73 114 -73 333q0 231 73 333q89 123 202 122q137 -2 186 -235l63 -294zM1328 170q-125 -75 -180 -50 q-38 17 -74 174l-70 306l104 284q34 94 130 124v59h-101q-52 -26 -86 -65t-53 -92l-39 -111l-8 37q-29 130 -105 188q-85 67 -256 67q-247 1 -364 -150q-124 -160 -124 -405q0 -251 124 -406q123 -153 320 -155q110 -2 172 35q94 55 126 141l40 111l15 -71q8 -41 29.5 -75 t53.5 -62q143 -122 346 -5v121zM600 1638h170l-244 -376h-114zM930 1638h178l-287 -376h-116z" />
<glyph unicode="&#x104e3;&#x30b;" horiz-adv-x="1198" d="M1131 107h-166l61 569q11 107 -23.5 186t-93.5 130q-118 100 -310 100q-193 0 -309 -100q-60 -51 -94.5 -130t-23.5 -186l62 -569h-166v-107h455v107h-166l-62 512q-6 48 -3 89t11 74t20 59t25 44q52 72 189 72t221 -72q21 -18 38.5 -44t29.5 -59t16.5 -74t-1.5 -89 l-61 -512h-166v-107h517v107zM600 1638h170l-244 -376h-114zM930 1638h178l-287 -376h-116z" />
<glyph unicode="&#xe006;&#x30b;" horiz-adv-x="1249" d="M1131 107h-166l61 569q11 107 -23.5 186t-93.5 130q-118 100 -310 100q-193 0 -309 -100q-60 -51 -94.5 -130t-23.5 -186l62 -569h-166v-107h455v107h-166l-62 512q-6 48 -3 89t11 74t20 59t25 44q52 72 189 72t221 -72q21 -18 38.5 -44t29.5 -59t16.5 -74t-1.5 -89 l-61 -512h-166v-107h517v107zM1306 969q0 28 -10 52.5t-28 42.5t-42.5 28t-52.5 10q-56 0 -95 -39q-38 -38 -38 -94q0 -57 38 -95t95 -38q28 0 52.5 10t42.5 28t28 42t10 53zM600 1638h170l-244 -376h-114zM930 1638h178l-287 -376h-116z" />
<glyph unicode="&#x104ea;&#x30b;" horiz-adv-x="1233" d="M915 532q0 -229 -75 -345.5t-224 -116.5q-148 0 -223.5 116.5t-75.5 345.5t75 345t224 116t224 -116t75 -345zM1130 532q0 254 -141 407q-140 153 -373 153t-374 -153q-140 -154 -140 -407q0 -254 141 -408q141 -153 373 -153q233 0 373 153q141 154 141 408zM600 1638 h170l-244 -376h-114zM930 1638h178l-287 -376h-116z" />
<glyph unicode="&#xe007;&#x30b;" horiz-adv-x="1278" d="M915 532q0 -229 -75 -345.5t-224 -116.5q-148 0 -223.5 116.5t-75.5 345.5t75 345t224 116t224 -116t75 -345zM1130 532q0 254 -141 407q-140 153 -373 153t-374 -153q-140 -154 -140 -407q0 -254 141 -408q141 -153 373 -153q233 0 373 153q141 154 141 408zM1325 969 q0 28 -10 52.5t-28 42.5t-42.5 28t-52.5 10q-56 0 -95 -39q-38 -38 -38 -94q0 -57 38 -95t95 -38q28 0 52.5 10t42.5 28t28 42t10 53zM600 1638h170l-244 -376h-114zM930 1638h178l-287 -376h-116z" />
<glyph unicode="&#x104eb;&#x30b;" horiz-adv-x="1233" d="M750 532q0 54 -39 95q-39 39 -94 39q-58 0 -95 -39q-38 -38 -38 -95t38 -95q36 -38 95 -38q57 0 95 38q38 40 38 95zM916 532q0 -229 -75.5 -345.5t-223.5 -116.5q-149 0 -224 116.5t-75 345.5t75 345t224 116t224 -116t75 -345zM1131 532q0 252 -141 407 q-141 153 -373 153q-235 0 -374 -153q-140 -152 -140 -407t141 -408q139 -153 373 -153q232 0 373 153q141 156 141 408zM600 1638h170l-244 -376h-114zM930 1638h178l-287 -376h-116z" />
<glyph unicode="&#x104f6;&#x30b;" horiz-adv-x="1198" d="M1192 1063h-455v-107h166v-512q0 -193 -53 -266q-53 -72 -189 -72q-137 0 -221 72q-83 72 -83 266v512h166v107h-517v-107h166v-569q0 -216 117 -316q118 -100 310 -100q193 0 309 100q118 100 118 316v569h166v107zM600 1638h170l-244 -376h-114zM930 1638h178 l-287 -376h-116z" />
<glyph unicode="A&#x304;&#x301;" d="M796 2000h197l-262 -264h-117zM436 1705h598v-148h-598v148zM958 541h-548l274 710zM408 106h-164l125 328h628l125 -328h-166v-106h543v106h-147l-533 1387h-168l-532 -1387h-131v-106h420v106z" />
<glyph unicode="a&#x304;&#x301;" horiz-adv-x="1221" d="M248 1378v148h598v-148h-598zM815 559h-237q-138 0 -204.5 -58.5t-66.5 -181.5q0 -111 68 -176t184 -65q114 0 185 71t71 185v225zM999 106h164v-106h-348v115q-61 -75 -140.5 -109.5t-187.5 -34.5q-178 0 -281 94q-104 95 -104 254q0 164 119 256q118 91 336 91h258v73 q0 121 -73 187.5t-207 66.5q-111 0 -175.5 -49.5t-80.5 -148.5h-95v215q191 82 363 82q223 0 337.5 -108.5t114.5 -319.5v-558zM487 1556l258 376h199l-340 -376h-117z" />
<glyph unicode="E&#x304;&#x301;" horiz-adv-x="1495" d="M416 1705h598v-148h-598v148zM796 2000h197l-262 -264h-117zM1331 332h-123v-209h-702v625h489v-187h123v496h-123v-187h-489v500h686v-209h123v332h-1202v-107h190v-1280h-190v-106h1218v332z" />
<glyph unicode="e&#x304;&#x301;" horiz-adv-x="1212" d="M307 1379v148h598v-148h-598zM317 512v-8q0 -217 80.5 -325.5t239.5 -108.5q121 0 198.5 63t108.5 189h148q-89 -351 -474 -351q-234 0 -375 153t-141 408q0 252 139 406t365 154q242 0 370.5 -148t133.5 -432h-793zM893 618q-6 187 -78 281t-209 94q-128 0 -200.5 -94.5 t-88.5 -280.5h576zM487 1556l258 376h199l-340 -376h-117z" />
<glyph unicode="I&#x304;&#x301;" horiz-adv-x="809" d="M106 1705h598v-148h-598v148zM467 2000h197l-262 -264h-117zM696 1386v107h-583v-107h190v-1280h-190v-106h583v106h-190v1280h190z" />
<glyph unicode="i&#x304;&#x301;" horiz-adv-x="655" d="M434 106h174v-106h-534v106h176v850h-176v107h360v-957zM-45 1378v148h598v-148h-598zM144 1556l258 376h199l-340 -376h-117z" />
<glyph unicode="O&#x304;&#x301;" horiz-adv-x="1679" d="M540 1705h598v-148h-598v148zM899 2000h197l-262 -264h-117zM840 78q-246 0 -371 168.5t-125 498.5q0 331 125 499.5t371 168.5q245 0 370 -168.5t125 -499.5q0 -332 -124 -499.5t-371 -167.5zM840 -29q306 0 503 197q222 221 222 577q0 348 -200 562q-200 213 -525 213 q-307 0 -504 -197q-112 -112 -166.5 -254t-54.5 -324t54.5 -323.5t166.5 -253.5q97 -97 224 -147t280 -50z" />
<glyph unicode="o&#x304;&#x301;" horiz-adv-x="1233" d="M317 1378v148h598v-148h-598zM616 70q149 0 224 116.5t75 345.5t-75 345t-224 116t-224 -116t-75 -345t75.5 -345.5t223.5 -116.5zM616 -29q-232 0 -373 153q-141 154 -141 408q0 253 140 407q141 153 374 153t373 -153q141 -153 141 -407t-141 -408q-140 -153 -373 -153 zM487 1556l258 376h199l-340 -376h-117z" />
<glyph unicode="U&#x304;&#x301;" horiz-adv-x="1726" d="M566 1705h598v-148h-598v148zM926 2000h197l-262 -264h-117zM287 594q0 -339 133 -481t448 -142q314 0 445 141q131 142 131 482v792h190v107h-504v-107h191v-772q0 -287 -94 -399q-93 -113 -322 -113q-228 0 -323 113q-93 112 -93 399v772h191v107h-584v-107h191v-792z " />
<glyph unicode="u&#x304;&#x301;" horiz-adv-x="1319" d="M333 1378v148h598v-148h-598zM725 956v107h344v-957h174v-106h-358v188q-51 -106 -131.5 -161.5t-188.5 -55.5q-177 0 -260.5 100.5t-83.5 315.5v569h-166v107h351v-619q0 -193 47 -266q48 -72 170 -72q129 0 195.5 93.5t66.5 273.5v483h-160zM487 1556l258 376h199 l-340 -376h-117z" />
<glyph unicode="A&#x30b;" d="M1071 1899h197l-262 -264h-117zM754 1899h197l-262 -264h-117zM958 541h-548l274 710zM408 106h-164l125 328h628l125 -328h-166v-106h543v106h-147l-533 1387h-168l-532 -1387h-131v-106h420v106z" />
<glyph unicode="a&#x30b;" horiz-adv-x="1221" d="M549 1638h170l-244 -376h-114zM879 1638h178l-287 -376h-116zM815 334q0 -114 -71 -185t-185 -71q-116 0 -184 65t-68 176q0 123 66.5 181.5t204.5 58.5h237v-225zM999 664q0 211 -114.5 319.5t-337.5 108.5q-172 0 -363 -82v-215h95q16 99 80.5 148.5t175.5 49.5 q134 0 207 -66.5t73 -187.5v-73h-258q-218 0 -336 -91q-119 -92 -119 -256q0 -159 104 -254q103 -94 281 -94q108 0 187.5 34.5t140.5 109.5v-115h348v106h-164v558z" />
<glyph unicode="E&#x30b;" horiz-adv-x="1495" d="M1071 1899h197l-262 -264h-117zM754 1899h197l-262 -264h-117zM1331 332h-123v-209h-702v625h489v-187h123v496h-123v-187h-489v500h686v-209h123v332h-1202v-107h190v-1280h-190v-106h1218v332z" />
<glyph unicode="e&#x30b;" horiz-adv-x="1212" d="M600 1638h170l-244 -376h-114zM930 1638h178l-287 -376h-116zM1110 512q-5 284 -133.5 432t-370.5 148q-226 0 -365 -154t-139 -406q0 -255 141 -408t375 -153q385 0 474 351h-148q-31 -126 -108.5 -189t-198.5 -63q-159 0 -239.5 108.5t-80.5 325.5v8h793zM317 618 q16 186 88.5 280.5t200.5 94.5q137 0 209 -94t78 -281h-576z" />
<glyph unicode="I&#x30b;" horiz-adv-x="809" d="M683 1899h197l-262 -264h-117zM366 1899h197l-262 -264h-117zM696 1386v107h-583v-107h190v-1280h-190v-106h583v106h-190v1280h190z" />
<glyph unicode="i&#x30b;" horiz-adv-x="655" d="M434 106h174v-106h-534v106h176v850h-176v107h360v-957zM273 1638h170l-244 -376h-114zM603 1638h178l-287 -376h-116z" />
<glyph unicode="A&#x328;&#x304;" d="M-12 0v106h131l532 1387h168l533 -1387h147v-106h-149l-1 -2q-87 -123 -87 -170q0 -46 33.5 -74t89.5 -28q27 0 56 6.5t59 19.5l-1 -127q-36 -9 -69.5 -13.5t-65.5 -4.5q-113 0 -175 44.5t-62 125.5q0 49 30 101.5t99 121.5h-300v106h166l-125 328h-628l-125 -328h164 v-106h-420zM410 541h548l-274 710zM443 1694v148h598v-148h-598z" />
<glyph unicode="a&#x328;&#x304;" horiz-adv-x="1221" d="M999 664v-558h164v-106h-148l-1 -2q-87 -123 -87 -170q0 -46 33.5 -74t89.5 -28q27 0 56 6.5t59 19.5l-1 -127q-36 -9 -69.5 -13.5t-65.5 -4.5q-113 0 -175 44.5t-62 125.5q0 49 30 101.5t99 121.5h-106v115q-61 -74 -141 -109t-187 -35q-177 0 -281 94t-104 254 q0 165 119 256t336 91h258v73q0 121 -73.5 187.5t-206.5 66.5q-110 0 -175 -50t-81 -148h-95v215q96 41 186.5 61.5t176.5 20.5q221 0 336.5 -109.5t115.5 -318.5zM815 334v225h-237q-137 0 -204 -59t-67 -181q0 -111 68 -176t184 -65q115 0 185.5 71t70.5 185zM248 1526 h598v-148h-598v148z" />
<glyph unicode="I&#x328;&#x304;" horiz-adv-x="809" d="M506 106h190v-106h-150l-1 -2q-87 -123 -87 -170q0 -46 33.5 -74t89.5 -28q27 0 56 6.5t59 19.5l-1 -127q-36 -9 -69.5 -13.5t-65.5 -4.5q-113 0 -175 44.5t-62 125.5q0 49 30 101.5t99 121.5h-339v106h190v1280h-190v107h583v-107h-190v-1280zM105 1694v148h598v-148 h-598z" />
<glyph unicode="i&#x328;&#x304;" horiz-adv-x="655" d="M434 106h174v-106h-149l-1 -2q-87 -123 -87 -170q0 -46 33.5 -74t89.5 -28q27 0 56 6.5t59 19.5l-1 -127q-36 -9 -69.5 -13.5t-65.5 -4.5q-113 0 -175 44.5t-62 125.5q0 49 30 101.5t99 121.5h-291v106h176v850h-176v107h360v-957zM-45 1526h598v-148h-598v148z" />
<glyph unicode="&#x18f;&#x328;" horiz-adv-x="1679" d="M851 1413q-179 0 -286 -79q-108 -79 -156 -238h-184q66 209 221 316q156 108 394 108q325 0 525 -213q200 -214 200 -562q0 -180 -55 -323q-56 -143 -167 -254q-100 -99 -224 -148q-33 -14 -68 -23t-72 -15q-97 -110 -105 -154q-9 -46 19 -74t84 -28q27 0 57 6.5t63 19.5 l-26 -127q-37 -9 -71.5 -13.5t-66.5 -4.5q-113 0 -166.5 44.5t-37.5 125.5q9 49 49 102q32 41 89 93q-7 -1 -13.5 -1h-13.5q-151 0 -280 50q-126 49 -224 147q-112 112 -166 254q-55 141 -55 323v71h1218q0 140 -31.5 246t-91.5 182q-65 84 -153 126.5t-206 42.5zM1334 694 h-989q0 -147 31.5 -257.5t92.5 -190.5q64 -84 155.5 -126t215.5 -42q123 0 214.5 42t155.5 126q61 80 92.5 190.5t31.5 257.5z" />
<glyph unicode="&#x259;&#x328;" horiz-adv-x="1212" d="M102 551h793v8q0 215 -81 325q-81 109 -239 109q-121 0 -199 -63q-77 -64 -108 -189h-148q44 175 162 263q119 88 312 88q233 0 374 -154q142 -153 142 -407q0 -252 -139 -406q-95 -106 -231 -138q-101 -114 -109 -159q-9 -46 19 -74t84 -28q27 0 57 6.5t63 19.5 l-26 -127q-37 -9 -71.5 -13.5t-66.5 -4.5q-113 0 -166.5 44.5t-37.5 125.5q9 49 49 102q32 41 89 93q-9 -1 -18 -1q-241 0 -370 149q-129 148 -134 431zM319 445q6 -186 79 -281q72 -94 208 -94q127 0 200 95t89 280h-576z" />
<glyph unicode="A&#x328;&#x304;&#x301;" d="M-12 0v106h131l532 1387h168l533 -1387h147v-106h-149l-1 -2q-87 -123 -87 -170q0 -46 33.5 -74t89.5 -28q27 0 56 6.5t59 19.5l-1 -127q-36 -9 -69.5 -13.5t-65.5 -4.5q-113 0 -175 44.5t-62 125.5q0 49 30 101.5t99 121.5h-300v106h166l-125 328h-628l-125 -328h164 v-106h-420zM410 541h548l-274 710zM436 1705h598v-148h-598v148zM796 2000h197l-262 -264h-117z" />
<glyph unicode="a&#x328;&#x304;&#x301;" horiz-adv-x="1221" d="M999 664v-558h164v-106h-148l-1 -2q-87 -123 -87 -170q0 -46 33.5 -74t89.5 -28q27 0 56 6.5t59 19.5l-1 -127q-36 -9 -69.5 -13.5t-65.5 -4.5q-113 0 -175 44.5t-62 125.5q0 49 30 101.5t99 121.5h-106v115q-61 -74 -141 -109t-187 -35q-177 0 -281 94t-104 254 q0 165 119 256t336 91h258v73q0 121 -73.5 187.5t-206.5 66.5q-110 0 -175 -50t-81 -148h-95v215q96 41 186.5 61.5t176.5 20.5q221 0 336.5 -109.5t115.5 -318.5zM815 334v225h-237q-137 0 -204 -59t-67 -181q0 -111 68 -176t184 -65q115 0 185.5 71t70.5 185zM248 1526 h598v-148h-598v148zM745 1932h199l-340 -376h-117z" />
<glyph unicode="I&#x328;&#x304;&#x301;" horiz-adv-x="809" d="M506 106h190v-106h-150l-1 -2q-87 -123 -87 -170q0 -46 33.5 -74t89.5 -28q27 0 56 6.5t59 19.5l-1 -127q-36 -9 -69.5 -13.5t-65.5 -4.5q-113 0 -175 44.5t-62 125.5q0 49 30 101.5t99 121.5h-339v106h190v1280h-190v107h583v-107h-190v-1280zM105 1705h598v-148h-598 v148zM467 2000h197l-262 -264h-117z" />
<glyph unicode="i&#x328;&#x304;&#x301;" horiz-adv-x="655" d="M434 106h174v-106h-149l-1 -2q-87 -123 -87 -170q0 -46 33.5 -74t89.5 -28q27 0 56 6.5t59 19.5l-1 -127q-36 -9 -69.5 -13.5t-65.5 -4.5q-113 0 -175 44.5t-62 125.5q0 49 30 101.5t99 121.5h-291v106h176v850h-176v107h360v-957zM-45 1526h598v-148h-598v148zM402 1932 h199l-340 -376h-117z" />
<glyph unicode="O&#x328;&#x304;&#x301;" horiz-adv-x="1679" d="M799 -188q0 -46 33.5 -74t89.5 -28q27 0 56 6.5t59 19.5l-1 -127q-36 -9 -69.5 -13.5t-65.5 -4.5q-113 0 -175 44.5t-62 125.5q0 49 30 102q27 48 88 110q-119 8 -222 48q-127 50 -224 147q-112 112 -166.5 254t-54.5 323t54.5 323.5t166.5 254.5q98 98 224 147.5 t280 49.5q325 0 525 -213t200 -562q0 -179 -55 -322.5t-167 -254.5q-98 -98 -224 -148q-110 -42 -241 -48q-79 -115 -79 -160zM840 78q245 0 370 168.5t125 498.5q0 331 -125 499.5t-370 168.5q-246 0 -371 -168.5t-125 -499.5q0 -330 125 -498.5t371 -168.5zM540 1705h598 v-148h-598v148zM899 2000h197l-262 -264h-117z" />
<glyph unicode="o&#x328;&#x304;&#x301;" horiz-adv-x="1233" d="M575 -188q0 -46 33.5 -74t89.5 -28q27 0 56 6.5t59 19.5l-1 -127q-36 -9 -69.5 -13.5t-65.5 -4.5q-113 0 -175 44.5t-62 125.5q0 49 30 102q27 48 88 111q-192 17 -315 150q-141 154 -141 408t140.5 407t373.5 153t373.5 -153t140.5 -407t-141 -408q-128 -140 -334 -152 q-80 -115 -80 -160zM616 70q148 0 223.5 117t75.5 345t-75.5 344.5t-223.5 116.5t-223.5 -116.5t-75.5 -344.5t76 -345t223 -117zM317 1526h598v-148h-598v148zM745 1932h199l-340 -376h-117z" />
<glyph unicode="A&#x328;&#x30b;" d="M-12 0v106h131l532 1387h168l533 -1387h147v-106h-149l-1 -2q-87 -123 -87 -170q0 -46 33.5 -74t89.5 -28q27 0 56 6.5t59 19.5l-1 -127q-36 -9 -69.5 -13.5t-65.5 -4.5q-113 0 -175 44.5t-62 125.5q0 49 30 101.5t99 121.5h-300v106h166l-125 328h-628l-125 -328h164 v-106h-420zM410 541h548l-274 710zM1071 1899h197l-262 -264h-117zM754 1899h197l-262 -264h-117z" />
<glyph unicode="a&#x328;&#x30b;" horiz-adv-x="1221" d="M999 664v-558h164v-106h-149l-1 -2q-87 -123 -87 -170q0 -46 33.5 -74t89.5 -28q27 0 56 6.5t59 19.5l-1 -127q-36 -9 -69.5 -13.5t-65.5 -4.5q-113 0 -175 44.5t-62 125.5q0 49 30 101.5t99 121.5h-105v115q-61 -74 -141 -109t-187 -35q-177 0 -281 94t-104 254 q0 165 119 256t336 91h258v73q0 121 -73.5 187.5t-206.5 66.5q-110 0 -175 -50t-81 -148h-95v215q96 41 186.5 61.5t176.5 20.5q221 0 336.5 -109.5t115.5 -318.5zM815 334v225h-237q-137 0 -204 -59t-67 -181q0 -111 68 -176t184 -65q115 0 185.5 71t70.5 185zM879 1638 h178l-287 -376h-116zM549 1638h170l-244 -376h-114z" />
<glyph unicode="I&#x328;&#x30b;" horiz-adv-x="809" d="M506 106h190v-106h-149l-1 -2q-87 -123 -87 -170q0 -46 33.5 -74t89.5 -28q27 0 56 6.5t59 19.5l-1 -127q-36 -9 -69.5 -13.5t-65.5 -4.5q-113 0 -175 44.5t-62 125.5q0 49 30 101.5t99 121.5h-340v106h190v1280h-190v107h583v-107h-190v-1280zM683 1899h197l-262 -264 h-117zM366 1899h197l-262 -264h-117z" />
<glyph unicode="i&#x328;&#x30b;" horiz-adv-x="655" d="M434 106h174v-106h-150l-1 -2q-87 -123 -87 -170q0 -46 33.5 -74t89.5 -28q27 0 56 6.5t59 19.5l-1 -127q-36 -9 -69.5 -13.5t-65.5 -4.5q-113 0 -175 44.5t-62 125.5q0 49 30 101.5t99 121.5h-290v106h176v850h-176v107h360v-957zM603 1638h178l-287 -376h-116z M273 1638h170l-244 -376h-114z" />
<glyph unicode="O&#x328;&#x30b;" horiz-adv-x="1679" d="M799 -188q0 -46 33.5 -74t89.5 -28q27 0 56 6.5t59 19.5l-1 -127q-36 -9 -69.5 -13.5t-65.5 -4.5q-113 0 -175 44.5t-62 125.5q0 49 30 102q27 48 88 110q-119 8 -222 48q-127 50 -224 147q-112 112 -166.5 254t-54.5 323t54.5 323.5t166.5 254.5q98 98 224 147.5 t280 49.5q325 0 525 -213t200 -562q0 -179 -55 -322.5t-167 -254.5q-98 -98 -224 -148q-110 -42 -241 -48q-79 -115 -79 -160zM840 78q245 0 370 168.5t125 498.5q0 331 -125 499.5t-370 168.5q-246 0 -371 -168.5t-125 -499.5q0 -330 125 -498.5t371 -168.5zM754 1899h197 l-262 -264h-117zM1071 1899h197l-262 -264h-117z" />
<glyph unicode="o&#x328;&#x30b;" horiz-adv-x="1233" d="M575 -188q0 -46 33.5 -74t89.5 -28q27 0 56 6.5t59 19.5l-1 -127q-36 -9 -69.5 -13.5t-65.5 -4.5q-113 0 -175 44.5t-62 125.5q0 49 30 102q27 48 88 111q-192 17 -315 150q-141 154 -141 408t140.5 407t373.5 153t373.5 -153t140.5 -407t-141 -408q-128 -140 -334 -152 q-80 -115 -80 -160zM616 70q148 0 223.5 117t75.5 345t-75.5 344.5t-223.5 116.5t-223.5 -116.5t-75.5 -344.5t76 -345t223 -117zM930 1638h178l-287 -376h-116zM600 1638h170l-244 -376h-114z" />
<glyph unicode="A&#x328;&#x301;" d="M-12 0v106h131l532 1387h168l533 -1387h147v-106h-149l-1 -2q-87 -123 -87 -170q0 -46 33.5 -74t89.5 -28q27 0 56 6.5t59 19.5l-1 -127q-36 -9 -69.5 -13.5t-65.5 -4.5q-113 0 -175 44.5t-62 125.5q0 49 30 101.5t99 121.5h-300v106h166l-125 328h-628l-125 -328h164 v-106h-420zM410 541h548l-274 710zM811 1899h197l-262 -264h-117z" />
<glyph unicode="a&#x328;&#x301;" horiz-adv-x="1221" d="M999 664v-558h164v-106h-147l-1 -2q-87 -123 -87 -170q0 -46 33.5 -74t89.5 -28q27 0 56 6.5t59 19.5l-1 -127q-36 -9 -69.5 -13.5t-65.5 -4.5q-113 0 -175 44.5t-62 125.5q0 49 30 101.5t99 121.5h-107v115q-61 -74 -141 -109t-187 -35q-177 0 -281 94t-104 254 q0 165 119 256t336 91h258v73q0 121 -73.5 187.5t-206.5 66.5q-110 0 -175 -50t-81 -148h-95v215q96 41 186.5 61.5t176.5 20.5q221 0 336.5 -109.5t115.5 -318.5zM815 334v225h-237q-137 0 -204 -59t-67 -181q0 -111 68 -176t184 -65q115 0 185.5 71t70.5 185zM745 1638 h199l-340 -376h-117z" />
<glyph unicode="I&#x328;&#x301;" horiz-adv-x="809" d="M506 106h190v-106h-150l-1 -2q-87 -123 -87 -170q0 -46 33.5 -74t89.5 -28q27 0 56 6.5t59 19.5l-1 -127q-36 -9 -69.5 -13.5t-65.5 -4.5q-113 0 -175 44.5t-62 125.5q0 49 30 101.5t99 121.5h-339v106h190v1280h-190v107h583v-107h-190v-1280zM572 1899h197l-262 -264 h-117z" />
<glyph unicode="i&#x328;&#x301;" horiz-adv-x="655" d="M434 106h174v-106h-150l-1 -2q-87 -123 -87 -170q0 -46 33.5 -74t89.5 -28q27 0 56 6.5t59 19.5l-1 -127q-36 -9 -69.5 -13.5t-65.5 -4.5q-113 0 -175 44.5t-62 125.5q0 49 30 101.5t99 121.5h-290v106h176v850h-176v107h360v-957zM467 1638h199l-340 -376h-117z" />
<glyph unicode="ff" horiz-adv-x="1455" d="M948 955l-514 1v-850h236v-106h-596v106h176v850h-176v107h176v133q0 178 92 269t272 91q66 0 133 -12t133 -37v-202h-96q-2 75 -43 114t-121 39q-102 0 -144 -56.5t-42 -201.5v-137h514v132q0 178 92 269t272 91q66 0 133 -12t133 -37v-202h-96q-2 75 -43 114t-121 39 q-102 0 -144 -56.5t-42 -201.5v-137h296v-107h-296v-850h236v-106h-596v106h176v850z" />
<glyph unicode="fi" horiz-adv-x="1366" d="M1071 1286l-94 1q-3 86 -64 128.5t-184 42.5q-153 0 -224 -71t-71 -224v-100h711v-957h174v-106h-535v106h177v850h-527v-850h174v-106h-534v106h176v850h-176v107h176v96q0 197 117 297t346 100q87 0 178 -13t180 -40v-217z" />
<glyph unicode="fl" horiz-adv-x="1366" d="M733 1556h397v-1450h175v-106h-535v106h176v1344h-215q-163 0 -230 -65t-67 -222v-100h295v-107h-295v-850h174v-106h-534v106h176v850h-176v107h176v96q0 201 119.5 299t363.5 98z" />
<glyph unicode="ffi" horiz-adv-x="2105" d="M989 956h-557v-850h236v-106h-596v106h176v850h-176v107h176v133q0 178 92.5 269t271.5 91q67 0 134 -12t133 -37v-202h-97q-1 75 -42.5 114t-120.5 39q-103 0 -145 -56.5t-42 -201.5v-137h557v96q0 197 117 297t346 100q87 0 178 -13t180 -40v-217l-94 1 q-3 86 -64 128.5t-184 42.5q-153 0 -224 -71t-71 -224v-100h711v-957h174v-106h-535v106h177v850h-527v-850h174v-106h-534v106h176v850z" />
<glyph unicode="ffl" horiz-adv-x="2110" d="M985 956h-555v-850h236v-106h-596v106h176v850h-176v107h176v133q0 178 92.5 269t271.5 91q67 0 134 -12t133 -37v-202h-97q-1 75 -42.5 114t-120.5 39q-103 0 -145 -56.5t-42 -201.5v-137h555v96q0 201 119.5 299t363.5 98h397v-1450h175v-106h-535v106h176v1344h-215 q-163 0 -230 -65t-67 -222v-100h295v-107h-295v-850h174v-106h-534v106h176v850z" />
<glyph horiz-adv-x="0" />
<glyph horiz-adv-x="0" />
<glyph unicode="&#x9;" horiz-adv-x="0" />
<glyph unicode="&#xa;" horiz-adv-x="0" />
<glyph unicode=" "  horiz-adv-x="651" />
<glyph unicode="&#x09;" horiz-adv-x="651" />
<glyph unicode="&#xa0;" horiz-adv-x="651" />
<glyph unicode="!" horiz-adv-x="823" d="M279 104q0 55 38 95q37 39 95 39q55 0 94 -39t39 -95q0 -55 -39 -94t-94 -39q-57 0 -95 38q-38 40 -38 95zM350 672l-67 821h258l-68 -821v-252h-123v252z" />
<glyph unicode="&#x22;" horiz-adv-x="942" d="M201 1493h159v-555h-159v555zM582 1493h159v-555h-159v555z" />
<glyph unicode="#" horiz-adv-x="1716" d="M961 567l81 334h-282l-84 -334h285zM731 1470h170l-102 -415h282l103 415h172l-105 -415h308v-154h-347l-82 -334h314v-153h-352l-103 -414h-172l105 414h-283l-104 -414h-170l102 414h-309v153h348l82 334h-316v154h355z" />
<glyph unicode="$" horiz-adv-x="1303" d="M690 68q114 10 173 64.5t59 150.5q0 87 -58.5 146.5t-173.5 90.5v-452zM590 1187q-103 -7 -160 -59.5t-57 -140.5q0 -81 52.5 -133.5t164.5 -85.5v419zM176 348h108q7 -274 306 -280v485q-230 65 -323 147q-93 84 -93 222q0 159 110 257q109 97 306 109v268h100v-268 q200 -16 377 -98v-262h-109q-12 117 -81 183.5t-187 75.5v-452q245 -67 344 -154t99 -231q0 -165 -116 -266q-115 -100 -327 -115v-270h-100v270q-97 2 -199.5 27t-214.5 76v276z" />
<glyph unicode="%" horiz-adv-x="1946" d="M459 1427q-88 0 -137.5 -82.5t-49.5 -232.5q0 -74 13 -132t37.5 -99t59 -62.5t77.5 -21.5q42 0 76 21.5t58 62t37 99t13 132.5t-13 132.5t-37 99t-58 62t-76 21.5zM1489 694q-88 0 -137 -83.5t-49 -233.5q0 -74 13 -132t37 -98.5t58.5 -62t77.5 -21.5t77 21.5t58 62 t36.5 98.5t12.5 132t-13 132.5t-37 99.5t-58 63t-76 22zM1489 784q158 0 251 -110t93 -297q0 -188 -94 -297q-93 -109 -250 -109q-160 0 -253 109t-93 297q0 187 93 297q95 110 253 110zM430 -29l934 1549h152l-934 -1549h-152zM457 1520q157 0 252 -110q94 -109 94 -296 q0 -189 -94 -298q-93 -109 -252 -109t-252 109q-92 110 -92 298q0 186 93 296t251 110z" />
<glyph unicode="&#x26;" horiz-adv-x="1823" d="M524 844q-174 -156 -174 -361q0 -167 115 -279t287 -112q103 0 192.5 35t161.5 104zM1726 106v-106h-401l-137 145q-106 -88 -224 -131t-257 -43q-258 0 -409 132t-151 358q0 134 76 248.5t232 216.5q-51 61 -75 121.5t-24 126.5q0 159 114 252q115 94 312 94 q67 0 156.5 -17t204.5 -51v-258h-113q-14 108 -77.5 163.5t-174.5 55.5q-103 0 -167 -57q-64 -55 -64 -146q0 -61 34 -122q17 -30 52.5 -73t89.5 -100l516 -544q139 161 158 370h-180v107h473v-107h-172q-17 -131 -66 -243t-133 -209l172 -183h235z" />
<glyph unicode="'" horiz-adv-x="563" d="M201 1493h159v-555h-159v555z" />
<glyph unicode="(" horiz-adv-x="799" d="M653 -319q-244 109 -367.5 344.5t-123.5 592.5q0 358 123.5 593.5t367.5 344.5v-98q-154 -106 -221 -299q-67 -191 -67 -541q0 -349 67 -541q68 -192 221 -298v-98z" />
<glyph unicode=")" horiz-adv-x="799" d="M145 -221q153 106 221 298q68 195 68 541q0 348 -68 541q-67 193 -221 299v98q245 -109 368.5 -344.5t123.5 -593.5q0 -357 -123.5 -592.5t-368.5 -344.5v98z" />
<glyph unicode="*" horiz-adv-x="1024" d="M915 1356l76 -119l-391 -182l391 -185l-76 -118l-348 217l13 -381h-136l13 381l-348 -217l-76 118l391 183l-391 184l76 119l348 -217l-13 381h136l-13 -381z" />
<glyph unicode="+" horiz-adv-x="1716" d="M778 1284h160v-561h561v-162h-561v-561h-160v561h-561v162h561v561z" />
<glyph unicode="," horiz-adv-x="651" d="M74 -199q94 69 138 162.5t44 226.5v37h197q-8 -171 -80.5 -293.5t-218.5 -212.5z" />
<glyph unicode="-" horiz-adv-x="692" d="M90 471v156h512v-156h-512z" />
<glyph unicode="." horiz-adv-x="651" d="M193 104q0 55 38 95q37 39 95 39q55 0 94 -39t39 -95q0 -55 -39 -94t-94 -39q-57 0 -95 38q-38 40 -38 95z" />
<glyph unicode="/" horiz-adv-x="690" d="M0 -190l530 1683h160l-530 -1683h-160z" />
<glyph unicode="0" horiz-adv-x="1303" d="M651 70q153 0 229 168t76 507q0 340 -76 508t-229 168t-229 -168t-76 -508q0 -339 76 -507t229 -168zM651 -29q-244 0 -380 204q-136 203 -136 570q0 368 136 571q136 204 380 204q243 0 380 -204q136 -203 136 -571q0 -367 -136 -570q-137 -204 -380 -204z" />
<glyph unicode="1" horiz-adv-x="1303" d="M1012 0h-721v106h260v1242l-301 -195v131l364 236h138v-1414h260v-106z" />
<glyph unicode="2" horiz-adv-x="1303" d="M150 1137v266q108 57 215.5 87t212.5 30q232 0 368 -113q135 -113 135 -307q0 -110 -75.5 -241t-230.5 -283l-36 -35l-377 -377h623v184h117v-348h-963v109l453 452q75 75 128.5 143.5t85.5 131.5q64 125 64 264q0 151 -79 236q-78 85 -216 85q-284 0 -313 -284h-112z " />
<glyph unicode="3" horiz-adv-x="1303" d="M199 1167v263q118 45 225 67.5t201 22.5q218 0 342 -95q123 -95 123 -262q0 -136 -84.5 -226t-241.5 -122q92 -13 164 -47t121.5 -86.5t75.5 -123t26 -155.5q0 -105 -35.5 -185.5t-105 -135t-171 -83t-233.5 -28.5q-232 0 -450 101v290h112q10 -145 96.5 -218.5 t245.5 -73.5q153 0 241 88q89 89 89 243q0 177 -90.5 267t-267.5 90h-95v102h50q350 0 350 291q0 132 -71.5 201t-207.5 69q-271 0 -297 -254h-112z" />
<glyph unicode="4" horiz-adv-x="1303" d="M205 506h510v794zM1155 106v-106h-680v106h240v293h-652v109l654 1012h198v-1014h285v-107h-285v-293h240z" />
<glyph unicode="5" horiz-adv-x="1303" d="M240 1493h790v-164h-684v-428q103 72 277 72q242 0 382 -134t140 -366q0 -237 -142 -370q-141 -132 -397 -132q-208 0 -432 101v290h113q9 -143 90 -217.5t229 -74.5q159 0 243.5 103.5t84.5 299.5q0 195 -84 298t-244 103q-91 0 -158.5 -32t-121.5 -99h-86v750z" />
<glyph unicode="6" horiz-adv-x="1303" d="M670 70q142 0 217.5 103t75.5 298t-75.5 298t-217.5 103q-144 0 -218.5 -99.5t-74.5 -289.5q0 -200 75.5 -306.5t217.5 -106.5zM344 822q69 75 154 112t194 37q223 0 352 -134q130 -133 130 -366q0 -227 -140 -364q-139 -136 -372 -136q-252 0 -389 188 q-136 188 -136 539q0 392 161 607t454 215q79 0 166 -15t178 -45v-246h-113q-12 102 -76.5 154.5t-175.5 52.5q-194 0 -289 -147t-98 -452z" />
<glyph unicode="7" horiz-adv-x="1303" d="M1155 1493v-102l-584 -1391h-149l557 1329h-690v-184h-117v348h983z" />
<glyph unicode="8" horiz-adv-x="1303" d="M954 408q0 80 -20.5 142.5t-59 106t-95 66t-128.5 22.5t-128.5 -22.5t-95 -66t-59 -106t-20.5 -142.5q0 -162 79 -250t224 -88t224 88t79 250zM913 1133q0 137 -68.5 212.5t-193.5 75.5q-124 0 -193 -75.5t-69 -212.5q0 -138 69 -213.5t193 -75.5q125 0 193.5 75.5 t68.5 213.5zM805 795q171 -23 265 -126q95 -103 95 -261q0 -105 -34 -186.5t-99 -137t-161 -84.5t-220 -29q-123 0 -219 29t-161.5 84.5t-99.5 137t-34 186.5q0 158 95 261q94 103 266 126q-152 27 -232 114t-80 224q0 180 124 283q125 104 341 104t341 -104 q124 -103 124 -283q0 -137 -80 -224t-231 -114z" />
<glyph unicode="9" horiz-adv-x="1303" d="M958 669q-133 -149 -350 -149q-222 0 -351 134q-128 134 -128 366q0 227 139 363q140 137 373 137q251 0 388 -189q136 -189 136 -538q0 -392 -161 -607t-453 -215q-79 0 -166 15t-178 45v248h112q13 -102 78 -155.5t174 -53.5q194 0 289 146.5t98 452.5zM633 1421 q-143 0 -218 -103t-75 -298t75 -298.5t218 -103.5t218 100t75 290q0 200 -75.5 306.5t-217.5 106.5z" />
<glyph unicode=":" horiz-adv-x="690" d="M213 104q0 55 38 95q39 39 95 39t94 -39q39 -39 39 -95q0 -55 -38 -95q-38 -38 -95 -38t-95 38q-38 40 -38 95zM213 756q0 56 38 94q39 39 95 39q28 0 52.5 -10t42.5 -28t28 -42.5t10 -52.5q0 -29 -10 -53t-28 -42t-42.5 -28t-52.5 -10q-57 0 -95 38t-38 95z" />
<glyph unicode=";" horiz-adv-x="690" d="M74 -199q94 69 138 162.5t44 226.5v37h197q-8 -171 -80.5 -293.5t-218.5 -212.5zM217 756q0 56 38 94q39 39 95 39t94 -39q39 -39 39 -94q0 -56 -39 -95q-38 -38 -94 -38q-57 0 -95 38t-38 95z" />
<glyph unicode="&#x3c;" horiz-adv-x="1716" d="M1499 1190v-170l-1038 -379l1038 -377v-170l-1282 465v166z" />
<glyph unicode="=" horiz-adv-x="1716" d="M217 766v160h1282v-160h-1282zM217 358v160h1282v-160h-1282z" />
<glyph unicode="&#x3e;" horiz-adv-x="1716" d="M1255 641l-1038 379v170l1282 -465v-166l-1282 -465v170z" />
<glyph unicode="?" horiz-adv-x="1098" d="M360 104q0 55 38 95q39 39 96 39q55 0 94 -39t39 -95q0 -55 -39 -94t-94 -39q-58 0 -96 38t-38 95zM139 1167v260q106 48 201 70.5t180 22.5q222 0 350 -107q129 -107 129 -289q0 -371 -444 -473v-254h-123v328q178 43 267 143.5t89 257.5q0 137 -73 216t-199 79 q-115 0 -187 -65t-93 -189h-97z" />
<glyph unicode="@" horiz-adv-x="2048" d="M1294 248q-60 -82 -132.5 -122t-166.5 -40q-174 0 -284 125q-109 124 -109 326q0 201 109 325q110 125 284 125q94 0 166.5 -40t132.5 -122v142h156v-772q169 37 264 162q94 124 94 313q0 223 -135 393q-106 134 -258 204t-332 70q-182 0 -352 -77q-201 -92 -314 -282 q-112 -187 -112 -435q0 -168 50 -307.5t145 -243.5q110 -119 258.5 -181.5t322.5 -62.5q256 0 449 152l53 -70q-109 -94 -245 -140t-300 -46q-185 0 -350 67q-167 66 -291 189q-130 128 -196 290.5t-66 352.5q0 185 66.5 347t195.5 290q129 127 299 194q174 68 367 68 q215 0 390.5 -82.5t295.5 -239.5q76 -99 115 -213t39 -239q0 -268 -163 -424q-164 -155 -445 -158zM1294 590q0 124 -72 202t-186 78q-60 0 -107.5 -22.5t-80.5 -65t-50.5 -104.5t-17.5 -141q0 -160 67.5 -247t190.5 -87q114 0 185 78q71 80 71 204v105z" />
<glyph unicode="A" d="M684 1251l-274 -710h548zM408 0h-420v106h131l532 1387h168l533 -1387h147v-106h-543v106h166l-125 328h-628l-125 -328h164v-106z" />
<glyph unicode="B" horiz-adv-x="1505" d="M506 756v-650h299q180 0 263 78t83 248q0 169 -82.5 246.5t-263.5 77.5h-299zM506 1386v-524h254q164 0 239.5 63t75.5 199q0 137 -75.5 199.5t-239.5 62.5h-254zM113 0v106h190v1280h-190v107h737q227 0 341 -92t114 -277q0 -134 -79 -212.5t-233 -96.5 q191 -24 289 -121t98 -262q0 -222 -140 -327t-437 -105h-690z" />
<glyph unicode="C" horiz-adv-x="1567" d="M1444 395q-66 -211 -221 -317.5t-394 -106.5q-147 0 -271.5 50t-221.5 147q-112 112 -166.5 254t-54.5 323q0 348 201 561q201 214 530 214q123 0 260 -31.5t297 -97.5v-344h-113q-37 188 -148.5 277t-312.5 89q-241 0 -363 -168.5t-122 -499.5q0 -328 123 -497.5 t362 -169.5q335 0 431 317h184z" />
<glyph unicode="D" horiz-adv-x="1642" d="M506 1386v-1280h186q292 0 446 166q156 166 156 476q0 155 -39.5 274t-116 200t-188.5 122.5t-258 41.5h-186zM113 0v106h190v1280h-190v107h594q386 0 601 -197q216 -197 216 -548q0 -352 -216 -550t-601 -198h-594z" />
<glyph unicode="E" horiz-adv-x="1495" d="M1331 0h-1218v106h190v1280h-190v107h1202v-332h-123v209h-686v-500h489v187h123v-496h-123v187h-489v-625h702v209h123v-332z" />
<glyph unicode="F" horiz-adv-x="1421" d="M745 0h-632v106h190v1280h-190v107h1222v-332h-123v209h-706v-500h510v187h123v-496h-123v187h-510v-642h239v-106z" />
<glyph unicode="G" horiz-adv-x="1636" d="M1423 1047h-112q-35 187 -146 276.5t-309 89.5q-258 0 -385 -166t-127 -502q0 -331 130 -499t386 -168q227 0 412 112v385h-281v107h484v-557q-265 -154 -615 -154q-338 0 -542 211q-203 212 -203 563q0 354 204 564q204 211 549 211q129 0 264.5 -29.5t290.5 -89.5v-354 z" />
<glyph unicode="H" horiz-adv-x="1786" d="M696 0h-583v106h190v1280h-190v107h583v-107h-190v-516h774v516h-190v107h583v-107h-190v-1280h190v-106h-583v106h190v642h-774v-642h190v-106z" />
<glyph unicode="I" horiz-adv-x="809" d="M506 1386v-1280h190v-106h-583v106h190v1280h-190v107h583v-107h-190z" />
<glyph unicode="J" horiz-adv-x="821" d="M-172 -123h114q6 -196 179 -196q119 0 166 75q47 76 47 293v1337h-232v107h625v-107h-190v-1345q0 -248 -99 -357q-99 -110 -319 -110q-144 0 -291 68v235z" />
<glyph unicode="K" horiz-adv-x="1530" d="M696 0h-583v106h190v1280h-190v107h583v-107h-190v-565l643 565h-162v107h496v-107h-168l-641 -563l717 -717h170v-106h-347l-708 709v-603h190v-106z" />
<glyph unicode="L" horiz-adv-x="1360" d="M1311 0h-1198v106h190v1280h-190v107h583v-107h-190v-1263h682v250h123v-373z" />
<glyph unicode="M" horiz-adv-x="2097" d="M616 0h-503v106h190v1280h-201v107h435l524 -1063l524 1063h408v-107h-199v-1280h191v-106h-584v106h190v1154l-512 -1041h-141l-512 1041v-1154h190v-106z" />
<glyph unicode="N" horiz-adv-x="1792" d="M625 0h-525v106h201v1280h-201v107h383l895 -1178v1071h-200v107h524v-107h-201v-1415h-121l-956 1258v-1123h201v-106z" />
<glyph unicode="O" horiz-adv-x="1679" d="M840 78q247 0 371 167.5t124 499.5q0 331 -125 499.5t-370 168.5q-246 0 -371 -168.5t-125 -499.5q0 -330 125 -498.5t371 -168.5zM840 -29q-153 0 -280 50t-224 147q-112 112 -166.5 253.5t-54.5 323.5t54.5 324t166.5 254q197 197 504 197q325 0 525 -213 q200 -214 200 -562q0 -356 -222 -577q-197 -197 -503 -197z" />
<glyph unicode="P" horiz-adv-x="1378" d="M506 1386v-626h264q150 0 227.5 80t77.5 233q0 154 -77.5 233.5t-227.5 79.5h-264zM737 0h-624v106h190v1280h-190v107h706q224 0 355 -114q131 -113 131 -306q0 -192 -131 -306t-355 -114h-313v-547h231v-106z" />
<glyph unicode="Q" horiz-adv-x="1679" d="M864 -29q-344 0 -546 210q-203 212 -203 564q0 182 54.5 324t166.5 254q197 197 504 197q325 0 525 -213q200 -214 200 -562q0 -296 -150 -498q-150 -200 -414 -259q54 -67 131.5 -99t186.5 -32h31v-185q-335 16 -486 299zM840 78q247 0 371 167.5t124 499.5 q0 331 -125 499.5t-370 168.5q-246 0 -371 -168.5t-125 -499.5q0 -330 125 -498.5t371 -168.5z" />
<glyph unicode="R" horiz-adv-x="1542" d="M981 741q70 -19 120.5 -64.5t90.5 -127.5l217 -443h182v-106h-352l-233 475q-67 137 -123 178t-154 41h-223v-588h211v-106h-604v106h190v1280h-190v107h757q109 0 194 -26.5t143 -77.5t88 -125t30 -170q0 -309 -344 -353zM506 1386v-585h295q152 0 223.5 71t71.5 222 t-71.5 221.5t-223.5 70.5h-295z" />
<glyph unicode="S" horiz-adv-x="1403" d="M190 412l115 -1q5 -171 98 -252t285 -81q179 0 272 70t93 206q0 107 -57 166q-56 59 -238 113l-197 59q-213 64 -302 162q-87 97 -87 266q0 190 135 295t379 105q105 0 228 -22.5t264 -65.5v-318h-113q-16 157 -106 228q-89 71 -269 71q-159 0 -241 -64t-82 -188 q0 -106 62 -168q61 -61 263 -121l185 -55q202 -60 289 -156q87 -95 87 -253q0 -218 -138 -327.5t-415 -109.5q-124 0 -250.5 25t-259.5 76v340z" />
<glyph unicode="T" horiz-adv-x="1366" d="M975 0h-584v106h191v1268h-439v-233h-123v352h1326v-352h-123v233h-439v-1268h191v-106z" />
<glyph unicode="U" horiz-adv-x="1726" d="M287 1386h-191v107h584v-107h-191v-772q0 -287 93 -399q95 -113 323 -113q229 0 322 113q94 112 94 399v772h-191v107h504v-107h-190v-792q0 -340 -131 -482q-131 -141 -445 -141q-315 0 -448 142t-133 481v792z" />
<glyph unicode="V" d="M524 1386h-166l441 -1146l440 1146h-168v107h438v-107h-145l-533 -1386h-172l-530 1386h-149v107h544v-107z" />
<glyph unicode="W" horiz-adv-x="2105" d="M1952 1386l-391 -1386h-164l-342 1214l-342 -1214h-164l-391 1386h-148v107h545v-107h-186l311 -1103l340 1210h162l346 -1223l313 1116h-172v107h430v-107h-147z" />
<glyph unicode="X" horiz-adv-x="1458" d="M1034 106l-356 533l-365 -533h193v-106h-494v106h172l430 627l-436 653h-160v107h592v-107h-176l320 -481l329 481h-192v107h489v-107h-168l-395 -575l471 -705h160v-106h-592v106h178z" />
<glyph unicode="Y" horiz-adv-x="1352" d="M971 0h-584v106h191v537l-461 743h-140v107h555v-107h-174l373 -604l373 604h-168v107h434v-107h-141l-449 -724v-556h191v-106z" />
<glyph unicode="Z" horiz-adv-x="1423" d="M1343 0h-1251v72l930 1298h-772v-223h-123v346h1180v-72l-930 -1298h844v209h122v-332z" />
<glyph unicode="[" horiz-adv-x="799" d="M176 -270v1826h465v-106h-274v-1614h274v-106h-465z" />
<glyph unicode="\" horiz-adv-x="690" d="M0 1493h160l530 -1683h-160z" />
<glyph unicode="]" horiz-adv-x="799" d="M158 1556h465v-1826h-465v106h274v1614h-274v106z" />
<glyph unicode="^" horiz-adv-x="1716" d="M760 1493h196l543 -557h-153l-488 381l-487 -381h-154z" />
<glyph unicode="_" horiz-adv-x="1024" d="M0 -403h1024v-80h-1024v80z" />
<glyph unicode="`" horiz-adv-x="1024" d="M170 1636h197l260 -376h-117z" />
<glyph unicode="a" horiz-adv-x="1221" d="M815 559h-237q-138 0 -204.5 -58.5t-66.5 -181.5q0 -111 68 -176t184 -65q114 0 185 71t71 185v225zM999 106h164v-106h-348v115q-61 -75 -140.5 -109.5t-187.5 -34.5q-178 0 -281 94q-104 95 -104 254q0 164 119 256q118 91 336 91h258v73q0 121 -73 187.5t-207 66.5 q-111 0 -175.5 -49.5t-80.5 -148.5h-95v215q191 82 363 82q223 0 337.5 -108.5t114.5 -319.5v-558z" />
<glyph unicode="b" horiz-adv-x="1311" d="M59 106h177v1344h-177v106h361v-659q54 100 137 147.5t207 47.5q195 0 320 -155q124 -154 124 -405t-124 -406q-125 -155 -320 -155q-124 0 -207 47.5t-137 147.5v-166h-361v106zM420 479q0 -193 73 -293t214 -100q142 0 214 112.5t72 333.5q0 223 -72 334t-214 111 q-141 0 -214 -100.5t-73 -292.5v-105z" />
<glyph unicode="c" horiz-adv-x="1147" d="M1053 319q-39 -171 -149.5 -259.5t-287.5 -88.5q-232 0 -373 153q-141 154 -141 408q0 255 141 407q141 153 373 153q202 0 402 -95v-272h-107q-21 140 -91.5 204t-201.5 64q-301 0 -301 -461q0 -462 301 -462q120 0 190.5 61.5t96.5 187.5h148z" />
<glyph unicode="d" horiz-adv-x="1311" d="M1075 1556v-1450h176v-106h-360v166q-54 -100 -137 -147.5t-207 -47.5q-196 0 -321 155q-124 155 -124 406t124 405q125 155 321 155q124 0 207 -47.5t137 -147.5v553h-174v106h358zM891 584q0 192 -73 292.5t-214 100.5q-143 0 -215 -111t-72 -334q0 -221 72 -333.5 t215 -112.5q141 0 214 100t73 293v105z" />
<glyph unicode="e" horiz-adv-x="1212" d="M317 512v-8q0 -217 80.5 -325.5t239.5 -108.5q121 0 198.5 63t108.5 189h148q-89 -351 -474 -351q-234 0 -375 153t-141 408q0 252 139 406t365 154q242 0 370.5 -148t133.5 -432h-793zM893 618q-6 187 -78 281t-209 94q-128 0 -200.5 -94.5t-88.5 -280.5h576z" />
<glyph unicode="f" horiz-adv-x="758" d="M881 1305h-97q-1 75 -42.5 114t-120.5 39q-103 0 -145 -57q-42 -56 -42 -201v-137h297v-107h-297v-850h236v-106h-596v106h176v850h-176v107h176v133q0 179 92 269.5t272 90.5q136 0 267 -49v-202z" />
<glyph unicode="g" horiz-adv-x="1311" d="M1251 956h-176v-933q0 -229 -126 -353q-127 -125 -359 -125q-211 0 -385 76v223h96q18 -105 84.5 -152.5t192.5 -47.5q162 0 237.5 91.5t75.5 287.5v143q-54 -100 -137 -147.5t-207 -47.5q-196 0 -321 155q-124 155 -124 406t124 405q125 155 321 155q124 0 207 -47.5 t137 -147.5v166h360v-107zM891 584q0 192 -73 292.5t-214 100.5q-143 0 -215 -111t-72 -334q0 -221 72 -333.5t215 -112.5q141 0 214 100t73 293v105z" />
<glyph unicode="h" horiz-adv-x="1319" d="M594 0h-510v106h166v1344h-176v106h360v-682q51 109 132 163.5t190 54.5q176 0 259 -101t83 -315v-570h164v-106h-508v106h159v512q0 98 -12.5 164.5t-35.5 101.5q-48 72 -169 72q-129 0 -195.5 -92.5t-66.5 -271.5v-486h160v-106z" />
<glyph unicode="i" horiz-adv-x="655" d="M199 1393q0 45 33 80q34 34 81 34q46 0 79 -34q34 -34 34 -80q0 -47 -33 -80t-80 -33t-81 33q-33 33 -33 80zM434 1063v-957h174v-106h-534v106h176v850h-176v107h360z" />
<glyph unicode="j" horiz-adv-x="635" d="M205 1393q0 45 33 80q34 34 81 34q46 0 79 -34q34 -34 34 -80q0 -24 -8.5 -44.5t-24 -35.5t-36 -24t-44.5 -9q-47 0 -81 33q-33 33 -33 80zM250 956h-174v107h358v-1167q0 -164 -98 -257q-97 -94 -268 -94q-72 0 -137 16.5t-128 49.5v219h95q7 -97 49.5 -141.5 t124.5 -44.5q91 0 134.5 61t43.5 191v1060z" />
<glyph unicode="k" horiz-adv-x="1241" d="M586 106v-106h-516v106h166v1344h-177v106h361v-1013l448 413h-153v107h481v-107h-182l-316 -292l404 -558h153v-106h-524v106h152l-318 437l-145 -135v-302h166z" />
<glyph unicode="l" horiz-adv-x="655" d="M420 1556v-1450h174v-106h-535v106h177v1344h-177v106h361z" />
<glyph unicode="m" horiz-adv-x="1942" d="M1061 856q107 236 328 236q167 0 249 -103.5t82 -312.5v-570h166v-106h-510v106h160v549q0 163 -48 232t-159 69q-124 0 -188 -92.5t-64 -271.5v-486h160v-106h-504v106h160v556q0 158 -48 226t-159 68q-124 0 -188 -92.5t-64 -271.5v-486h160v-106h-510v106h166v852 h-176v105h360v-189q51 106 130 162t179 56q125 0 207.5 -61t110.5 -175z" />
<glyph unicode="n" horiz-adv-x="1319" d="M594 0h-510v106h166v850h-176v107h360v-189q51 109 132 163.5t190 54.5q176 0 259 -101t83 -315v-570h164v-106h-508v106h159v512q0 195 -48 267q-48 73 -169 73q-129 0 -195.5 -93t-66.5 -273v-486h160v-106z" />
<glyph unicode="o" horiz-adv-x="1233" d="M616 70q149 0 224 116.5t75 345.5t-75 345t-224 116t-224 -116t-75 -345t75.5 -345.5t223.5 -116.5zM616 -29q-232 0 -373 153q-141 154 -141 408q0 253 140 407q141 153 374 153t373 -153q141 -153 141 -407t-141 -408q-140 -153 -373 -153z" />
<glyph unicode="p" horiz-adv-x="1311" d="M420 479q0 -193 73 -293t214 -100q142 0 214 112.5t72 333.5q0 223 -72 334t-214 111q-141 0 -214 -100.5t-73 -292.5v-105zM236 -319v1275h-177v107h361v-166q54 100 137 147.5t207 47.5q195 0 320 -155q124 -154 124 -405t-124 -406q-125 -155 -320 -155 q-124 0 -207 47.5t-137 147.5v-485h174v-107h-535v107h177z" />
<glyph unicode="q" horiz-adv-x="1311" d="M1251 956h-176v-1275h176v-107h-534v107h174v485q-54 -100 -137 -147.5t-207 -47.5q-196 0 -321 155q-124 155 -124 406t124 405q125 155 321 155q124 0 207 -47.5t137 -147.5v166h360v-107zM891 584q0 192 -73 292.5t-214 100.5q-143 0 -215 -111t-72 -334 q0 -221 72 -333.5t215 -112.5q141 0 214 100t73 293v105z" />
<glyph unicode="r" horiz-adv-x="979" d="M979 799h-106q-10 157 -158 157q-137 0 -209 -93.5t-72 -270.5v-486h213v-106h-563v106h166v852h-176v105h360v-189q54 112 138.5 165t207.5 53q45 0 94.5 -7t104.5 -20v-266z" />
<glyph unicode="s" horiz-adv-x="1051" d="M115 307h106q7 -237 283 -237q125 0 189.5 46t64.5 136q0 69 -48 113q-23 22 -73 44t-127 48l-133 45q-68 23 -117.5 50.5t-81 61t-46.5 74.5t-15 92q0 146 107 229t296 83q85 0 177 -22t192 -64v-232h-106q-4 103 -71.5 161t-185.5 58q-235 0 -235 -164q0 -68 45 -108 q44 -40 180 -82l146 -45q75 -23 129 -52t88.5 -65.5t50.5 -81.5t16 -100q0 -151 -116 -238q-116 -86 -318 -86q-103 0 -200.5 21.5t-196.5 66.5v248z" />
<glyph unicode="t" horiz-adv-x="823" d="M221 956h-162v107h162v330h185v-330h346v-107h-346v-675q0 -135 26 -173t96 -38q72 0 105 42t35 138h139q-8 -145 -79 -212t-216 -67q-159 0 -225 70t-66 240v675z" />
<glyph unicode="u" horiz-adv-x="1319" d="M725 956v107h344v-957h174v-106h-358v188q-51 -106 -131.5 -161.5t-188.5 -55.5q-177 0 -260.5 100.5t-83.5 315.5v569h-166v107h351v-619q0 -193 47 -266q48 -72 170 -72q129 0 195.5 93.5t66.5 273.5v483h-160z" />
<glyph unicode="v" horiz-adv-x="1157" d="M641 0h-135l-391 956h-121v107h489v-107h-170l299 -731l299 731h-159v107h399v-107h-119z" />
<glyph unicode="w" horiz-adv-x="1753" d="M854 1063h129l272 -830l240 723h-154v107h385v-107h-118l-316 -956h-153l-262 795l-263 -795h-147l-315 956h-119v107h481v-107h-172l238 -723z" />
<glyph unicode="x" horiz-adv-x="1155" d="M373 956l223 -307l223 307h-143v107h409v-107h-141l-285 -393l332 -457h139v-106h-491v106h135l-231 318l-232 -318h138v-106h-404v106h141l293 404l-323 446h-131v107h475v-107h-127z" />
<glyph unicode="y" horiz-adv-x="1157" d="M512 -18l-397 974h-121v107h489v-107h-170l299 -731l299 731h-159v107h399v-107h-119l-487 -1196q-51 -125 -111 -169q-61 -46 -172 -46q-48 0 -96.5 8t-99.5 23v203h94q6 -69 34.5 -98t88.5 -29q54 0 88 31q36 33 71 122z" />
<glyph unicode="z" horiz-adv-x="1079" d="M1004 0h-922v86l666 870h-527v-184h-106v291h870v-86l-666 -871h578v193h107v-299z" />
<glyph unicode="{" horiz-adv-x="1303" d="M1047 -229v-105h-62q-248 0 -334 74q-84 73 -84 295v258q0 149 -54 208q-54 58 -196 58h-61v105h61q142 0 196 58t54 208v258q0 220 84 294q86 74 334 74h62v-104h-68q-140 0 -184 -44q-43 -43 -43 -185v-287q0 -158 -50 -226t-180 -98q132 -35 181 -101q49 -67 49 -224 v-287q0 -142 43 -185q44 -44 184 -44h68z" />
<glyph unicode="|" horiz-adv-x="690" d="M264 1565h162v-2048h-162v2048z" />
<glyph unicode="}" horiz-adv-x="1303" d="M256 -334v105h70q140 0 182 44q43 43 43 185v287q0 157 49 224q49 66 180 101q-130 30 -180 98q-49 67 -49 226v287q0 142 -43 185q-42 44 -182 44h-70v104h63q249 0 332 -74q84 -74 84 -294v-258q0 -150 54 -208t196 -58h62v-105h-62q-142 0 -196 -58q-54 -59 -54 -208 v-258q0 -222 -84 -295q-83 -74 -332 -74h-63z" />
<glyph unicode="~" horiz-adv-x="1716" d="M1499 659q-100 -88 -190 -130t-183 -42q-48 0 -115.5 15.5t-154.5 50.5l-10 4l-33 13q-74 29 -134 43t-108 14q-93 0 -178.5 -36t-175.5 -114v152q100 87 189.5 127.5t183.5 40.5q48 0 115.5 -15.5t154.5 -50.5l10 -4l31 -12q73 -29 133 -43.5t109 -14.5q182 0 356 150 v-148z" />
<glyph unicode="&#xa1;" horiz-adv-x="823" d="M279 1389q0 56 38 94.5t95 38.5q55 0 94 -39t39 -94q0 -56 -39 -95t-94 -39q-57 0 -95 39t-38 95zM283 0l67 821v252h123v-252l68 -821h-258z" />
<glyph unicode="&#xa2;" horiz-adv-x="1303" d="M629 991q-258 -30 -258 -459q0 -430 258 -460v919zM1104 319q-71 -309 -375 -346v-270h-100v270q-221 20 -348 169t-127 390q0 243 127 391q128 151 348 167v266h100v-266q182 -16 340 -93v-272h-106q-19 124 -76.5 189t-157.5 77v-919q91 12 148.5 75t78.5 172h148z" />
<glyph unicode="&#xa3;" horiz-adv-x="1303" d="M1102 1225h-105q-10 96 -66 146t-153 50q-128 0 -188 -77t-60 -242v-295h412v-107h-412v-579h478v227h116v-348h-987v106h193v594h-193v107h193v295q0 206 113.5 312t336.5 106q170 0 322 -50v-245z" />
<glyph unicode="&#xa4;" horiz-adv-x="1303" d="M1110 1192l94 -94l-209 -209q84 -118 84 -248q0 -69 -20.5 -128t-65.5 -116l207 -207l-96 -94l-207 205q-57 -45 -116 -65.5t-128 -20.5q-129 0 -250 82l-204 -205l-95 94l205 207q-42 63 -62 123.5t-20 124.5q0 70 20.5 129.5t65.5 116.5l-207 207l95 94l207 -207 q57 45 116.5 65.5t128.5 20.5q66 0 127 -20t121 -62zM922 643q0 112 -78 189q-77 77 -191 77q-111 0 -190 -77q-78 -77 -78 -189q0 -113 77 -192q78 -78 191 -78t191 78q78 79 78 192z" />
<glyph unicode="&#xa5;" horiz-adv-x="1303" d="M360 0v106h191v367h-404v105h404v65l-82 141h-322v105h263l-287 497h-139v107h553v-107h-175l343 -604l339 604h-167v107h432v-107h-142l-284 -497h272v-105h-332l-71 -122v-84h403v-105h-403v-367h190v-106h-582z" />
<glyph unicode="&#xa6;" horiz-adv-x="690" d="M264 408h162v-758h-162v758zM264 1432h162v-758h-162v758z" />
<glyph unicode="&#xa7;" horiz-adv-x="1024" d="M379 936q-68 -46 -95.5 -87.5t-27.5 -94.5q0 -131 363 -335l32 -18q117 77 117 191q0 75 -70 142q-68 67 -319 202zM829 1262h-92q-2 72 -54 113.5t-140 41.5q-100 0 -157.5 -48t-57.5 -132q0 -49 62 -106t184 -128l38 -22q97 -57 161.5 -101.5t95.5 -82.5 q63 -75 63 -174q0 -95 -52.5 -158t-166.5 -107q78 -48 114.5 -110.5t36.5 -153.5q0 -131 -102 -210q-101 -79 -275 -79q-91 0 -170 13.5t-157 42.5v209l92 -1q5 -161 217 -161q105 0 165 48.5t60 133.5q0 112 -228 240l-32 18q-215 121 -279 197q-63 75 -63 174 q0 94 59 160.5t168 97.5q-82 49 -121.5 112t-39.5 142q0 130 100 209q101 80 266 80q154 0 305 -56v-202z" />
<glyph unicode="&#xa8;" horiz-adv-x="1024" d="M317 1569q48 0 82.5 -34.5t34.5 -82.5q0 -51 -33 -84t-84 -33q-50 0 -83 33t-33 84q0 48 34.5 82.5t81.5 34.5zM707 1569q47 0 81.5 -34.5t34.5 -82.5q0 -51 -33 -84t-83 -33q-51 0 -84 33t-33 84q0 48 34.5 82.5t82.5 34.5z" />
<glyph unicode="&#xa9;" horiz-adv-x="2048" d="M1376 573q-27 -132 -117 -202t-233 -70q-187 0 -299 120q-111 120 -111 320q0 201 112 322t298 121q81 0 157.5 -18.5t164.5 -57.5v-213h-84q-17 109 -73.5 160t-162.5 51q-240 0 -240 -365q0 -362 238 -362q97 0 153.5 47t77.5 147h119zM1024 1485q305 0 524 -219 q217 -217 217 -525q0 -305 -217 -522q-219 -219 -524 -219t-524 219q-217 217 -217 522q0 308 217 525q219 219 524 219zM1024 1382q-263 0 -451 -188q-94 -94 -141 -207.5t-47 -245.5q0 -131 47 -243.5t141 -206.5q189 -189 451 -189q264 0 453 189q186 186 186 450 q0 265 -186 453q-188 188 -453 188z" />
<glyph unicode="&#xaa;" horiz-adv-x="973" d="M838 1219v-379h80v-84h-228v80q-48 -51 -110.5 -75t-149.5 -24q-141 0 -223 65t-82 177q0 114 95 178t265 64h205v45q0 84 -58 131t-163 47q-87 0 -138 -35t-65 -104h-76v157q77 29 149 43.5t138 14.5q177 0 269 -77t92 -224zM690 997v148h-188q-105 0 -159 -40t-54 -118 q0 -81 50.5 -123.5t147.5 -42.5q92 0 147.5 48.5t55.5 127.5zM166 639h698v-104h-698v104z" />
<glyph unicode="&#xab;" horiz-adv-x="1253" d="M1061 1059v-115l-297 -344l297 -344v-115l-469 418v82zM627 1059v-115l-297 -344l297 -344v-115l-469 418v82z" />
<glyph unicode="&#xac;" horiz-adv-x="1716" d="M217 862h1282v-575h-160v413h-1122v162z" />
<glyph unicode="&#xad;" horiz-adv-x="692" d="M90 471v156h512v-156h-512z" />
<glyph unicode="&#xae;" horiz-adv-x="2048" d="M895 1092v-301h125q166 0 166 151q0 150 -166 150h-125zM1141 754q42 -14 71.5 -39.5t49.5 -65.5l116 -229h76v-68h-190l-131 254q-18 35 -34 58.5t-32 34.5q-32 24 -80 24h-92v-303h84v-68h-317v68h83v672h-83v67h415q129 0 193.5 -56t64.5 -165q0 -165 -194 -184z M1024 1382q-263 0 -451 -188q-94 -94 -141 -207.5t-47 -245.5q0 -131 47 -243.5t141 -206.5q189 -189 451 -189q264 0 453 189q186 186 186 450q0 265 -186 453q-188 188 -453 188zM1024 1485q305 0 524 -219q217 -217 217 -525q0 -305 -217 -522q-219 -219 -524 -219 t-524 219q-217 217 -217 522q0 308 217 525q219 219 524 219z" />
<glyph unicode="&#xaf;" horiz-adv-x="1024" d="M213 1526h598v-148h-598v148z" />
<glyph unicode="&#xb0;" horiz-adv-x="1024" d="M512 1382q-75 0 -128 -53q-52 -52 -52 -129q0 -76 51 -127q52 -51 129 -51q75 0 128 51q52 52 52 127t-53 128q-53 54 -127 54zM512 1520q64 0 122.5 -25t102.5 -70q45 -46 68.5 -102.5t23.5 -122.5q0 -133 -93 -224q-91 -91 -226 -91t-225 90t-90 225q0 133 92 227 q91 93 225 93z" />
<glyph unicode="&#xb1;" horiz-adv-x="1716" d="M938 1284v-391h561v-162h-561v-391h-160v391h-561v162h561v391h160zM217 160h1282v-160h-1282v160z" />
<glyph unicode="&#xb2;" horiz-adv-x="821" d="M100 1296v158q66 32 136 49t139 17q137 0 223 -66t86 -170q0 -122 -194 -296l-19 -17l-238 -215h385v108h74v-196h-602v75l285 254q43 39 73.5 72.5t49.5 65.5t28 63t9 64q0 85 -48 134.5t-133 49.5q-78 0 -125 -37.5t-59 -112.5h-70z" />
<glyph unicode="&#xb3;" horiz-adv-x="821" d="M125 1317v151q73 26 139.5 39t126.5 13q139 0 213 -53.5t74 -153.5q0 -72 -52.5 -122t-148.5 -67q120 -16 180 -75.5t60 -159.5q0 -115 -87 -175.5t-251 -60.5q-72 0 -141 14t-138 42v170l70 -1q11 -151 195 -151q94 0 145 44t51 126q0 188 -203 188h-53v74h27 q196 0 196 148q0 67 -40.5 103t-116.5 36q-163 0 -176 -129h-70z" />
<glyph unicode="&#xb4;" horiz-adv-x="1024" d="M651 1638h199l-340 -376h-117z" />
<glyph unicode="&#xb5;" horiz-adv-x="1331" d="M739 1063h344v-959h174v-104h-358v188q-52 -106 -125.5 -161.5t-163.5 -55.5q-57 0 -104 18t-86 54v-362h174v-107h-535v107h177v1275h-166v107h350v-619q0 -194 48 -266t169 -72q128 0 195 94t67 273v483h-160v107z" />
<glyph unicode="&#xb6;" horiz-adv-x="1303" d="M1171 1493v-107h-118v-1583h-107v1583h-231v-1583h-107v846q-215 17 -333 127q-117 109 -117 295q0 191 130 306q131 116 345 116h538z" />
<glyph unicode="&#xb7;" horiz-adv-x="651" d="M190 711q0 56 38.5 94.5t95.5 38.5q55 0 94 -39t39 -94q0 -56 -39 -94.5t-94 -38.5q-57 0 -95.5 38t-38.5 95z" />
<glyph unicode="&#xb8;" horiz-adv-x="1024" d="M578 0q64 -64 95.5 -120t31.5 -105q0 -81 -63 -125.5t-175 -44.5q-42 0 -86 6t-90 18v131q41 -17 80.5 -25.5t74.5 -8.5q57 0 90 26.5t33 71.5q0 28 -22 72t-66 104h97z" />
<glyph unicode="&#xb9;" horiz-adv-x="821" d="M662 668h-486v84h172v634l-201 -106v94l240 129h102v-751h173v-84z" />
<glyph unicode="&#xba;" horiz-adv-x="963" d="M481 813q106 0 159.5 79.5t53.5 235.5t-54 236t-159 80q-104 0 -158.5 -81t-54.5 -235q0 -155 54 -235t159 -80zM481 737q-175 0 -281 107.5t-106 283.5q0 177 106 284.5t281 107.5t281 -107.5t106 -284.5t-105.5 -284t-281.5 -107zM137 639h688v-104h-688v104z" />
<glyph unicode="&#xbb;" horiz-adv-x="1253" d="M627 1059l469 -418v-82l-469 -418v115l297 344l-297 344v115zM193 1059l469 -418v-82l-469 -418v115l296 344l-296 344v115z" />
<glyph unicode="&#xbc;" horiz-adv-x="1985" d="M446 -29l942 1549h150l-942 -1549h-150zM662 668h-486v84h172v634l-201 -106v94l240 129h102v-751h173v-84zM1306 303h308v407zM1902 84v-84h-434v84h146v137h-398v84l400 530h141v-532h164v-82h-164v-137h145z" />
<glyph unicode="&#xbd;" horiz-adv-x="1985" d="M1263 628v158q66 32 136 49t139 17q137 0 223 -66t86 -170q0 -122 -194 -296l-19 -17l-238 -215h385v108h74v-196h-602v75l285 254q43 39 73.5 72.5t49.5 65.5t28 63t9 64q0 85 -48 134.5t-133 49.5q-78 0 -125 -37.5t-59 -112.5h-70zM446 -29l942 1549h150l-942 -1549 h-150zM662 668h-486v84h172v634l-201 -106v94l240 129h102v-751h173v-84z" />
<glyph unicode="&#xbe;" horiz-adv-x="1985" d="M446 -29l942 1549h150l-942 -1549h-150zM125 1317v151q73 26 139.5 39t126.5 13q139 0 213 -53.5t74 -153.5q0 -72 -52.5 -122t-148.5 -67q120 -16 180 -75.5t60 -159.5q0 -115 -87 -175.5t-251 -60.5q-72 0 -141 14t-138 42v170l70 -1q11 -151 195 -151q94 0 145 44 t51 126q0 188 -203 188h-53v74h27q196 0 196 148q0 67 -40.5 103t-116.5 36q-163 0 -176 -129h-70zM1306 303h308v407zM1902 84v-84h-434v84h146v137h-398v84l400 530h141v-532h164v-82h-164v-137h145z" />
<glyph unicode="&#xbf;" horiz-adv-x="1098" d="M778 1389q0 -56 -38.5 -95t-94.5 -39q-55 0 -94 39t-39 95q0 55 39 94t94 39q57 0 95 -38.5t38 -94.5zM999 66q-106 -47 -201 -70t-180 -23q-221 0 -350 107t-129 289q0 186 111 304t334 169v254h123v-328q-177 -43 -267 -144t-90 -257q0 -137 73.5 -216t199.5 -79 q113 0 186 65.5t94 188.5h96v-260z" />
<glyph unicode="&#xc0;" d="M410 541h548l-274 710zM-12 0v106h131l532 1387h168l533 -1387h147v-106h-543v106h166l-125 328h-628l-125 -328h164v-106h-420zM669 1899l183 -264h-117l-262 264h196z" />
<glyph unicode="&#xc1;" d="M410 541h548l-274 710zM-12 0v106h131l532 1387h168l533 -1387h147v-106h-543v106h166l-125 328h-628l-125 -328h164v-106h-420zM802 1899h197l-262 -264h-117z" />
<glyph unicode="&#xc2;" d="M410 541h548l-274 710zM-12 0v106h131l532 1387h168l533 -1387h147v-106h-543v106h166l-125 328h-628l-125 -328h164v-106h-420zM651 1899h176l231 -264h-116l-203 161l-203 -161h-116z" />
<glyph unicode="&#xc3;" d="M410 541h548l-274 710zM-12 0v106h131l532 1387h168l533 -1387h147v-106h-543v106h166l-125 328h-628l-125 -328h164v-106h-420zM726 1715l-48 28q-20 13 -40.5 20t-37.5 7q-39 0 -65 -28.5t-30 -74.5l-96 1q2 100 53 159t136 59q36 0 67 -9t86 -40l49 -26q23 -13 45 -20 t39 -7q41 0 64.5 27.5t23.5 74.5h97q-2 -105 -53.5 -162t-145.5 -57q-67 0 -139 45z" />
<glyph unicode="&#xc4;" d="M544 1884q48 0 83 -35q34 -34 34 -81q0 -51 -33 -84t-84 -33q-24 0 -45.5 9t-37 24.5t-24.5 37t-9 46.5q0 46 35 81t81 35zM934 1884q47 0 82 -35q34 -34 34 -81q0 -25 -9 -46.5t-24.5 -37t-37 -24.5t-45.5 -9q-51 0 -84 33t-33 84q0 46 35 81t82 35zM684 1251l-274 -710 h548zM408 0h-420v106h131l532 1387h168l533 -1387h147v-106h-543v106h166l-125 328h-628l-125 -328h164v-106z" />
<glyph unicode="&#xc5;" d="M887 1626q0 62 -45 107t-107 45q-64 0 -108 -44q-43 -43 -43 -108q0 -64 43 -107q44 -44 108 -44q63 0 107 44q45 43 45 107zM684 1251l-274 -710h546zM408 0h-420v106h131l489 1278q-72 37 -109.5 97.5t-37.5 144.5q0 114 80 194q79 81 194 81q114 0 194 -81 q81 -80 81 -194q0 -81 -39 -144t-111 -98l492 -1278h147v-106h-543v106h166l-125 328h-628l-125 -328h164v-106z" />
<glyph unicode="&#xc6;" horiz-adv-x="2050" d="M426 541h489v845h-100zM725 0v106h190v328h-538l-152 -328h164v-106h-424v106h131l590 1280h-215v107h1456v-332h-123v209h-688v-500h492v187h123v-496h-123v187h-492v-625h705v209h123v-332h-1219z" />
<glyph unicode="&#xc7;" horiz-adv-x="1567" d="M1444 395q-66 -211 -221 -317.5t-394 -106.5q-147 0 -271.5 50t-221.5 147q-112 112 -166.5 254t-54.5 323q0 348 201 561q201 214 530 214q123 0 260 -31.5t297 -97.5v-344h-113q-37 188 -148.5 277t-312.5 89q-241 0 -363 -168.5t-122 -499.5q0 -328 123 -497.5 t362 -169.5q335 0 431 317h184zM910 0q64 -64 95.5 -120t31.5 -105q0 -81 -63 -125.5t-175 -44.5q-42 0 -86 6t-90 18v131q41 -17 80.5 -25.5t74.5 -8.5q57 0 90 26.5t33 71.5q0 28 -22 72t-66 104h97z" />
<glyph unicode="&#xc8;" horiz-adv-x="1495" d="M113 0v106h190v1280h-190v107h1202v-332h-123v209h-686v-500h489v187h123v-496h-123v187h-489v-625h702v209h123v-332h-1218zM678 1899l183 -264h-117l-262 264h196z" />
<glyph unicode="&#xc9;" horiz-adv-x="1495" d="M629 1635l182 264h197l-262 -264h-117zM1331 0h-1218v106h190v1280h-190v107h1202v-332h-123v209h-686v-500h489v187h123v-496h-123v187h-489v-625h702v209h123v-332z" />
<glyph unicode="&#xca;" horiz-adv-x="1495" d="M113 0v106h190v1280h-190v107h1202v-332h-123v209h-686v-500h489v187h123v-496h-123v187h-489v-625h702v209h123v-332h-1218zM660 1899h176l231 -264h-116l-203 161l-203 -161h-116z" />
<glyph unicode="&#xcb;" horiz-adv-x="1495" d="M113 0v106h190v1280h-190v107h1202v-332h-123v209h-686v-500h489v187h123v-496h-123v187h-489v-625h702v209h123v-332h-1218zM553 1884q48 0 82.5 -35t34.5 -81q0 -50 -33.5 -83.5t-83.5 -33.5q-49 0 -82.5 33.5t-33.5 83.5q0 46 34.5 81t81.5 35zM943 1884 q47 0 81.5 -35t34.5 -81q0 -50 -33.5 -83.5t-82.5 -33.5q-50 0 -83.5 33.5t-33.5 83.5q0 46 34.5 81t82.5 35z" />
<glyph unicode="&#xcc;" horiz-adv-x="809" d="M506 106h190v-106h-583v106h190v1280h-190v107h583v-107h-190v-1280zM336 1899l183 -264h-117l-262 264h196z" />
<glyph unicode="&#xcd;" horiz-adv-x="809" d="M506 106h190v-106h-583v106h190v1280h-190v107h583v-107h-190v-1280zM469 1899h197l-262 -264h-117z" />
<glyph unicode="&#xce;" horiz-adv-x="809" d="M506 106h190v-106h-583v106h190v1280h-190v107h583v-107h-190v-1280zM318 1899h176l231 -264h-116l-203 161l-203 -161h-116z" />
<glyph unicode="&#xcf;" horiz-adv-x="809" d="M506 106h190v-106h-583v106h190v1280h-190v107h583v-107h-190v-1280zM211 1884q48 0 82.5 -35t34.5 -81q0 -50 -33.5 -83.5t-83.5 -33.5q-49 0 -82.5 33.5t-33.5 83.5q0 46 34.5 81t81.5 35zM601 1884q47 0 81.5 -35t34.5 -81q0 -50 -33.5 -83.5t-82.5 -33.5 q-50 0 -83.5 33.5t-33.5 83.5q0 46 34.5 81t82.5 35z" />
<glyph unicode="&#xd0;" horiz-adv-x="1653" d="M514 719v-613h188q291 0 447 166t156 476q0 155 -39.5 274t-116 200t-189 122.5t-258.5 41.5h-188v-542h336v-125h-336zM123 0v106h190v613h-200v125h200v542h-190v107h594q386 0 601 -197q216 -197 216 -548q0 -352 -216 -550t-601 -198h-594z" />
<glyph unicode="&#xd1;" horiz-adv-x="1792" d="M884 1715l-48 28q-21 12 -41 19.5t-37 7.5q-39 0 -65 -28.5t-30 -74.5l-96 1q1 50 15 90t38.5 68.5t59 44t76.5 15.5q35 0 67 -9q16 -5 36.5 -15t49.5 -25l49 -26q23 -13 45 -20t39 -7q42 0 65 27t23 75h97q-2 -106 -53.5 -162.5t-145.5 -56.5q-34 0 -68 11.5t-71 33.5z M625 0h-525v106h201v1280h-201v107h383l895 -1178v1071h-200v107h524v-107h-201v-1415h-121l-956 1258v-1123h201v-106z" />
<glyph unicode="&#xd2;" horiz-adv-x="1679" d="M840 78q245 0 370 168.5t125 498.5q0 331 -125 499.5t-370 168.5q-246 0 -371 -168.5t-125 -499.5q0 -330 125 -498.5t371 -168.5zM840 -29q-152 0 -279.5 50t-224.5 147q-112 112 -166.5 254t-54.5 323t54.5 323.5t166.5 254.5q98 98 224 147.5t280 49.5q325 0 525 -213 t200 -562q0 -179 -55 -322.5t-167 -254.5q-98 -98 -224 -147.5t-279 -49.5zM770 1899l183 -264h-117l-262 264h196z" />
<glyph unicode="&#xd3;" horiz-adv-x="1679" d="M840 78q245 0 370 168.5t125 498.5q0 331 -125 499.5t-370 168.5q-246 0 -371 -168.5t-125 -499.5q0 -330 125 -498.5t371 -168.5zM840 -29q-152 0 -279.5 50t-224.5 147q-112 112 -166.5 254t-54.5 323t54.5 323.5t166.5 254.5q98 98 224 147.5t280 49.5q325 0 525 -213 t200 -562q0 -179 -55 -322.5t-167 -254.5q-98 -98 -224 -147.5t-279 -49.5zM903 1899h197l-262 -264h-117z" />
<glyph unicode="&#xd4;" horiz-adv-x="1679" d="M840 78q245 0 370 168.5t125 498.5q0 331 -125 499.5t-370 168.5q-246 0 -371 -168.5t-125 -499.5q0 -330 125 -498.5t371 -168.5zM840 -29q-152 0 -279.5 50t-224.5 147q-112 112 -166.5 254t-54.5 323t54.5 323.5t166.5 254.5q98 98 224 147.5t280 49.5q325 0 525 -213 t200 -562q0 -179 -55 -322.5t-167 -254.5q-98 -98 -224 -147.5t-279 -49.5zM752 1899h176l231 -264h-116l-203 161l-203 -161h-116z" />
<glyph unicode="&#xd5;" horiz-adv-x="1679" d="M840 78q245 0 370 168.5t125 498.5q0 331 -125 499.5t-370 168.5q-246 0 -371 -168.5t-125 -499.5q0 -330 125 -498.5t371 -168.5zM840 -29q-152 0 -279.5 50t-224.5 147q-112 112 -166.5 254t-54.5 323t54.5 323.5t166.5 254.5q98 98 224 147.5t280 49.5q325 0 525 -213 t200 -562q0 -179 -55 -322.5t-167 -254.5q-98 -98 -224 -147.5t-279 -49.5zM827 1715l-48 28q-20 13 -40.5 20t-37.5 7q-39 0 -65 -28.5t-30 -74.5l-96 1q2 100 53 159t136 59q36 0 67 -9t86 -40l49 -26q23 -13 45 -20t39 -7q41 0 64.5 27.5t23.5 74.5h97 q-2 -105 -53.5 -162t-145.5 -57q-67 0 -139 45z" />
<glyph unicode="&#xd6;" horiz-adv-x="1679" d="M645 1884q48 0 83 -35q34 -34 34 -81q0 -51 -33 -84t-84 -33q-24 0 -45.5 9t-37 24.5t-24.5 37t-9 46.5q0 46 35 81t81 35zM1035 1884q47 0 82 -35q34 -34 34 -81q0 -25 -9 -46.5t-24.5 -37t-37 -24.5t-45.5 -9q-51 0 -84 33t-33 84q0 46 35 81t82 35zM840 78 q247 0 371 167.5t124 499.5q0 331 -125 499.5t-370 168.5q-246 0 -371 -168.5t-125 -499.5q0 -330 125 -498.5t371 -168.5zM840 -29q-153 0 -280 50t-224 147q-112 112 -166.5 253.5t-54.5 323.5t54.5 324t166.5 254q197 197 504 197q325 0 525 -213q200 -214 200 -562 q0 -356 -222 -577q-197 -197 -503 -197z" />
<glyph unicode="&#xd7;" horiz-adv-x="1716" d="M1319 1217l115 -113l-463 -463l463 -461l-115 -112l-461 460l-461 -460l-114 112l460 461l-460 463l114 113l461 -461z" />
<glyph unicode="&#xd8;" horiz-adv-x="1679" d="M1214 1239q-65 88 -157.5 131t-216.5 43q-246 0 -371 -168.5t-125 -499.5q0 -119 16 -215.5t50 -177.5zM463 256q64 -89 158 -133.5t219 -44.5q245 0 370 168.5t125 498.5q0 117 -16.5 215.5t-50.5 180.5zM1391 1276q87 -108 130.5 -239.5t43.5 -291.5 q0 -345 -200.5 -559.5t-524.5 -214.5q-141 0 -260 43t-220 129l-182 -200l-78 69l187 207q-87 105 -129.5 235.5t-42.5 290.5q0 346 201 560.5t524 214.5q141 0 261 -42.5t216 -125.5l178 198l80 -71z" />
<glyph unicode="&#xd9;" horiz-adv-x="1726" d="M287 1386h-191v107h584v-107h-191v-772q0 -286 93.5 -399t322.5 -113t322.5 113t93.5 399v772h-191v107h504v-107h-190v-792q0 -341 -131 -482t-445 -141t-447.5 142t-133.5 481v792zM833 1899l183 -264h-117l-262 264h196z" />
<glyph unicode="&#xda;" horiz-adv-x="1726" d="M287 1386h-191v107h584v-107h-191v-772q0 -286 93.5 -399t322.5 -113t322.5 113t93.5 399v772h-191v107h504v-107h-190v-792q0 -341 -131 -482t-445 -141t-447.5 142t-133.5 481v792zM966 1899h197l-262 -264h-117z" />
<glyph unicode="&#xdb;" horiz-adv-x="1726" d="M287 1386h-191v107h584v-107h-191v-772q0 -286 93.5 -399t322.5 -113t322.5 113t93.5 399v772h-191v107h504v-107h-190v-792q0 -341 -131 -482t-445 -141t-447.5 142t-133.5 481v792zM815 1899h176l231 -264h-116l-203 161l-203 -161h-116z" />
<glyph unicode="&#xdc;" horiz-adv-x="1726" d="M708 1884q48 0 83 -35q34 -34 34 -81q0 -51 -33 -84t-84 -33q-24 0 -45.5 9t-37 24.5t-24.5 37t-9 46.5q0 46 35 81t81 35zM1098 1884q47 0 82 -35q34 -34 34 -81q0 -25 -9 -46.5t-24.5 -37t-37 -24.5t-45.5 -9q-51 0 -84 33t-33 84q0 46 35 81t82 35zM287 1386h-191v107 h584v-107h-191v-772q0 -287 93 -399q95 -113 323 -113q229 0 322 113q94 112 94 399v772h-191v107h504v-107h-190v-792q0 -340 -131 -482q-131 -141 -445 -141q-315 0 -448 142t-133 481v792z" />
<glyph unicode="&#xdd;" horiz-adv-x="1352" d="M557 1635l182 264h197l-262 -264h-117zM971 0h-584v106h191v537l-461 743h-140v107h555v-107h-174l373 -604l373 604h-168v107h434v-107h-141l-449 -724v-556h191v-106z" />
<glyph unicode="&#xde;" horiz-adv-x="1384" d="M506 1061v-627h264q150 0 227.5 80t77.5 234q0 153 -77.5 233t-227.5 80h-264zM737 0h-624v106h190v1280h-190v107h624v-107h-231v-219h313q224 0 355 -114q131 -113 131 -305q0 -194 -132 -308q-131 -114 -354 -114h-313v-220h231v-106z" />
<glyph unicode="&#xdf;" horiz-adv-x="1368" d="M940 1210q-8 120 -77 184t-189 64q-132 0 -193 -64.5t-61 -203.5v-1190h-361v106h177v1080q0 175 114 273q115 97 324 97q424 0 448 -419h-22q-145 0 -229 -54q-83 -54 -83 -147q0 -52 27 -91q14 -19 38.5 -40.5t61.5 -44.5l89 -55q78 -48 131.5 -94.5t82.5 -89.5 q60 -86 60 -199q0 -155 -116 -253t-300 -98q-85 0 -169 18.5t-163 53.5v233h109q4 -102 59 -154t158 -52q112 0 175 60t63 165q0 84 -40 142q-41 59 -157 132l-86 54q-52 33 -88.5 64.5t-60 65t-34 69.5t-10.5 77q0 123 84 204.5t238 106.5z" />
<glyph unicode="&#xe0;" horiz-adv-x="1221" d="M815 559h-237q-138 0 -204.5 -58.5t-66.5 -181.5q0 -111 68 -176t184 -65q114 0 185 71t71 185v225zM999 106h164v-106h-348v115q-61 -75 -140.5 -109.5t-187.5 -34.5q-178 0 -281 94q-104 95 -104 254q0 164 119 256q118 91 336 91h258v73q0 121 -73 187.5t-207 66.5 q-111 0 -175.5 -49.5t-80.5 -148.5h-95v215q191 82 363 82q223 0 337.5 -108.5t114.5 -319.5v-558zM227 1636h197l260 -376h-117z" />
<glyph unicode="&#xe1;" horiz-adv-x="1221" d="M450 1262l258 376h199l-340 -376h-117zM815 559h-237q-138 0 -204.5 -58.5t-66.5 -181.5q0 -111 68 -176t184 -65q114 0 185 71t71 185v225zM999 106h164v-106h-348v115q-61 -75 -140.5 -109.5t-187.5 -34.5q-178 0 -281 94q-104 95 -104 254q0 164 119 256 q118 91 336 91h258v73q0 121 -73 187.5t-207 66.5q-111 0 -175.5 -49.5t-80.5 -148.5h-95v215q191 82 363 82q223 0 337.5 -108.5t114.5 -319.5v-558z" />
<glyph unicode="&#xe2;" horiz-adv-x="1221" d="M815 559h-237q-138 0 -204.5 -58.5t-66.5 -181.5q0 -111 68 -176t184 -65q114 0 185 71t71 185v225zM999 106h164v-106h-348v115q-61 -75 -140.5 -109.5t-187.5 -34.5q-178 0 -281 94q-104 95 -104 254q0 164 119 256q118 91 336 91h258v73q0 121 -73 187.5t-207 66.5 q-111 0 -175.5 -49.5t-80.5 -148.5h-95v215q191 82 363 82q223 0 337.5 -108.5t114.5 -319.5v-558zM250 1262l235 376h168l235 -376h-116l-203 260l-203 -260h-116z" />
<glyph unicode="&#xe3;" horiz-adv-x="1221" d="M508 1425q-26 25 -42.5 32t-35.5 7q-42 0 -66 -39.5t-29 -115.5h-96q2 136 53 209t142 73q38 0 71 -13t68 -48l57 -55q24 -23 40.5 -31t37.5 -8q43 0 67 40t28 115h96q-2 -136 -53 -209t-142 -73q-38 0 -71 13t-68 48zM815 559h-237q-138 0 -204.5 -58.5t-66.5 -181.5 q0 -111 68 -176t184 -65q114 0 185 71t71 185v225zM999 106h164v-106h-348v115q-61 -75 -140.5 -109.5t-187.5 -34.5q-178 0 -281 94q-104 95 -104 254q0 164 119 256q118 91 336 91h258v73q0 121 -73 187.5t-207 66.5q-111 0 -175.5 -49.5t-80.5 -148.5h-95v215 q191 82 363 82q223 0 337.5 -108.5t114.5 -319.5v-558z" />
<glyph unicode="&#xe4;" horiz-adv-x="1221" d="M815 559h-237q-138 0 -204.5 -58.5t-66.5 -181.5q0 -111 68 -176t184 -65q114 0 185 71t71 185v225zM999 106h164v-106h-348v115q-61 -75 -140.5 -109.5t-187.5 -34.5q-178 0 -281 94q-104 95 -104 254q0 164 119 256q118 91 336 91h258v73q0 121 -73 187.5t-207 66.5 q-111 0 -175.5 -49.5t-80.5 -148.5h-95v215q191 82 363 82q223 0 337.5 -108.5t114.5 -319.5v-558zM374 1569q48 0 82.5 -34.5t34.5 -82.5q0 -51 -33 -84t-84 -33q-50 0 -83 33t-33 84q0 48 34.5 82.5t81.5 34.5zM764 1569q47 0 81.5 -34.5t34.5 -82.5q0 -51 -33 -84 t-83 -33q-51 0 -84 33t-33 84q0 48 34.5 82.5t82.5 34.5z" />
<glyph unicode="&#xe5;" horiz-adv-x="1221" d="M843 1524q0 -115 -80 -195t-194 -80q-115 0 -195 80q-79 79 -79 195q0 115 79 194q80 80 195 80q114 0 194 -80t80 -194zM721 1524q0 63 -44 107t-108 44q-65 0 -109 -44q-43 -43 -43 -107q0 -66 43 -109t109 -43q64 0 108 44t44 108zM815 559h-237q-138 0 -204.5 -58.5 t-66.5 -181.5q0 -111 68 -176t184 -65q114 0 185 71t71 185v225zM999 106h164v-106h-348v115q-61 -75 -140.5 -109.5t-187.5 -34.5q-178 0 -281 94q-104 95 -104 254q0 164 119 256q118 91 336 91h258v73q0 121 -73 187.5t-207 66.5q-111 0 -175.5 -49.5t-80.5 -148.5h-95 v215q191 82 363 82q223 0 337.5 -108.5t114.5 -319.5v-558z" />
<glyph unicode="&#xe6;" horiz-adv-x="1925" d="M815 334v225h-237q-137 0 -204 -59t-67 -181q0 -111 68 -176t184 -65q115 0 185.5 71t70.5 185zM924 150q-83 -91 -184 -135t-226 -44q-197 0 -304.5 91t-107.5 257q0 165 119.5 256t335.5 91h258v73q0 120 -72 187t-200 67q-116 0 -182 -49.5t-82 -148.5h-95v215 q96 41 186.5 61.5t176.5 20.5q141 0 237.5 -43.5t151.5 -133.5q74 88 170 132.5t213 44.5q241 0 370 -149t133 -431h-792v-8q0 -215 80.5 -324.5t239.5 -109.5q121 0 198.5 63.5t108.5 188.5h147q-43 -175 -162 -263t-311 -88q-122 0 -225.5 45.5t-181.5 133.5zM1606 618 q-6 186 -78.5 280.5t-208.5 94.5q-127 0 -200.5 -95t-88.5 -280h576z" />
<glyph unicode="&#xe7;" horiz-adv-x="1147" d="M1053 319q-39 -171 -149.5 -259.5t-287.5 -88.5q-232 0 -373 153q-141 154 -141 408q0 255 141 407q141 153 373 153q202 0 402 -95v-272h-107q-21 140 -91.5 204t-201.5 64q-301 0 -301 -461q0 -462 301 -462q120 0 190.5 61.5t96.5 187.5h148zM678 0q64 -64 95.5 -120 t31.5 -105q0 -81 -63 -125.5t-175 -44.5q-42 0 -86 6t-90 18v131q41 -17 80.5 -25.5t74.5 -8.5q57 0 90 26.5t33 71.5q0 28 -22 72t-66 104h97z" />
<glyph unicode="&#xe8;" horiz-adv-x="1212" d="M317 512v-8q0 -217 80.5 -325.5t239.5 -108.5q121 0 198.5 63t108.5 189h148q-89 -351 -474 -351q-234 0 -375 153t-141 408q0 252 139 406t365 154q242 0 370.5 -148t133.5 -432h-793zM893 618q-6 187 -78 281t-209 94q-128 0 -200.5 -94.5t-88.5 -280.5h576zM264 1636 h197l260 -376h-117z" />
<glyph unicode="&#xe9;" horiz-adv-x="1212" d="M487 1262l258 376h199l-340 -376h-117zM317 512v-8q0 -217 80.5 -325.5t239.5 -108.5q121 0 198.5 63t108.5 189h148q-89 -351 -474 -351q-234 0 -375 153t-141 408q0 252 139 406t365 154q242 0 370.5 -148t133.5 -432h-793zM893 618q-6 187 -78 281t-209 94 q-128 0 -200.5 -94.5t-88.5 -280.5h576z" />
<glyph unicode="&#xea;" horiz-adv-x="1212" d="M317 512v-8q0 -217 80.5 -325.5t239.5 -108.5q121 0 198.5 63t108.5 189h148q-89 -351 -474 -351q-234 0 -375 153t-141 408q0 252 139 406t365 154q242 0 370.5 -148t133.5 -432h-793zM893 618q-6 187 -78 281t-209 94q-128 0 -200.5 -94.5t-88.5 -280.5h576zM287 1262 l235 376h168l235 -376h-116l-203 260l-203 -260h-116z" />
<glyph unicode="&#xeb;" horiz-adv-x="1212" d="M411 1569q47 0 82 -35t35 -82q0 -51 -33 -84t-84 -33q-25 0 -46.5 8.5t-37 24.5t-24 37t-8.5 47q0 48 34 82q35 35 82 35zM801 1569q46 0 81 -35t35 -82q0 -26 -8.5 -47t-24 -37t-37 -24.5t-46.5 -8.5q-51 0 -84 33t-33 84q0 48 34 82q35 35 83 35zM317 512v-8 q0 -217 80.5 -325.5t239.5 -108.5q121 0 198.5 63t108.5 189h148q-89 -351 -474 -351q-234 0 -375 153t-141 408q0 252 139 406t365 154q242 0 370.5 -148t133.5 -432h-793zM893 618q-6 187 -78 281t-209 94q-128 0 -200.5 -94.5t-88.5 -280.5h576z" />
<glyph unicode="&#xec;" horiz-adv-x="655" d="M434 1063v-957h174v-106h-534v106h176v850h-176v107h360zM-14 1636h197l260 -376h-117z" />
<glyph unicode="&#xed;" horiz-adv-x="655" d="M209 1262l258 376h199l-340 -376h-117zM434 1063v-957h174v-106h-534v106h176v850h-176v107h360z" />
<glyph unicode="&#xee;" horiz-adv-x="655" d="M434 1063v-957h174v-106h-534v106h176v850h-176v107h360zM9 1262l235 376h168l235 -376h-116l-203 260l-203 -260h-116z" />
<glyph unicode="&#xef;" horiz-adv-x="655" d="M133 1569q47 0 82 -35t35 -82q0 -51 -33 -84t-84 -33q-25 0 -46.5 8.5t-37 24.5t-24 37t-8.5 47q0 48 34 82q35 35 82 35zM523 1569q46 0 81 -35t35 -82q0 -26 -8.5 -47t-24 -37t-37 -24.5t-46.5 -8.5q-51 0 -84 33t-33 84q0 48 34 82q35 35 83 35zM434 1063v-957h174 v-106h-534v106h176v850h-176v107h360z" />
<glyph unicode="&#xf0;" horiz-adv-x="1233" d="M821 928q-45 9 -85.5 13.5t-80.5 4.5q-173 0 -255.5 -107t-82.5 -331q0 -211 78 -324.5t221 -113.5q145 0 222 114t77 328q0 112 -23 217t-71 199zM1047 1440l-287 -133q184 -168 277 -362.5t93 -412.5q0 -254 -141 -408q-140 -153 -373 -153q-230 0 -372 151t-142 396 q0 235 141 381q141 145 369 145q35 0 72.5 -3t89.5 -11q-22 54 -58 107t-87 108l-322 -149l-37 78l293 135q-61 58 -139 98.5t-174 62.5l18 86q236 -52 420 -188l322 150z" />
<glyph unicode="&#xf1;" horiz-adv-x="1319" d="M594 0h-510v106h166v850h-176v107h360v-189q51 109 132 163.5t190 54.5q176 0 259 -101t83 -315v-570h164v-106h-508v106h159v512q0 195 -48 267q-48 73 -169 73q-129 0 -195.5 -93t-66.5 -273v-486h160v-106zM598 1425q-26 25 -42.5 32t-35.5 7q-42 0 -66 -39.5 t-29 -115.5h-96q2 136 53 209t142 73q38 0 71 -13t68 -48l57 -55q24 -23 40.5 -31t37.5 -8q43 0 67 40t28 115h96q-2 -136 -53 -209t-142 -73q-38 0 -71 13t-68 48z" />
<glyph unicode="&#xf2;" horiz-adv-x="1233" d="M616 70q149 0 224 116.5t75 345.5t-75 345t-224 116t-224 -116t-75 -345t75.5 -345.5t223.5 -116.5zM616 -29q-232 0 -373 153q-141 154 -141 408q0 253 140 407q141 153 374 153t373 -153q141 -153 141 -407t-141 -408q-140 -153 -373 -153zM274 1636h197l260 -376h-117 z" />
<glyph unicode="&#xf3;" horiz-adv-x="1233" d="M497 1262l258 376h199l-340 -376h-117zM616 70q149 0 224 116.5t75 345.5t-75 345t-224 116t-224 -116t-75 -345t75.5 -345.5t223.5 -116.5zM616 -29q-232 0 -373 153q-141 154 -141 408q0 253 140 407q141 153 374 153t373 -153q141 -153 141 -407t-141 -408 q-140 -153 -373 -153z" />
<glyph unicode="&#xf4;" horiz-adv-x="1233" d="M616 70q149 0 224 116.5t75 345.5t-75 345t-224 116t-224 -116t-75 -345t75.5 -345.5t223.5 -116.5zM616 -29q-232 0 -373 153q-141 154 -141 408q0 253 140 407q141 153 374 153t373 -153q141 -153 141 -407t-141 -408q-140 -153 -373 -153zM297 1262l235 376h168 l235 -376h-116l-203 260l-203 -260h-116z" />
<glyph unicode="&#xf5;" horiz-adv-x="1233" d="M555 1425q-26 25 -42.5 32t-35.5 7q-42 0 -66 -39.5t-29 -115.5h-96q2 136 53 209t142 73q38 0 71 -13t68 -48l57 -55q24 -23 40.5 -31t37.5 -8q43 0 67 40t28 115h96q-2 -136 -53 -209t-142 -73q-38 0 -71 13t-68 48zM616 70q149 0 224 116.5t75 345.5t-75 345t-224 116 t-224 -116t-75 -345t75.5 -345.5t223.5 -116.5zM616 -29q-232 0 -373 153q-141 154 -141 408q0 253 140 407q141 153 374 153t373 -153q141 -153 141 -407t-141 -408q-140 -153 -373 -153z" />
<glyph unicode="&#xf6;" horiz-adv-x="1233" d="M616 70q149 0 224 116.5t75 345.5t-75 345t-224 116t-224 -116t-75 -345t75.5 -345.5t223.5 -116.5zM616 -29q-232 0 -373 153q-141 154 -141 408q0 253 140 407q141 153 374 153t373 -153q141 -153 141 -407t-141 -408q-140 -153 -373 -153zM421 1569q48 0 82.5 -34.5 t34.5 -82.5q0 -51 -33 -84t-84 -33q-50 0 -83 33t-33 84q0 48 34.5 82.5t81.5 34.5zM811 1569q47 0 81.5 -34.5t34.5 -82.5q0 -51 -33 -84t-83 -33q-51 0 -84 33t-33 84q0 48 34.5 82.5t82.5 34.5z" />
<glyph unicode="&#xf7;" horiz-adv-x="1716" d="M725 1012q0 56 38.5 94.5t94.5 38.5q55 0 94 -39t39 -94q0 -56 -39 -94.5t-94 -38.5q-57 0 -95 38t-38 95zM725 272q0 56 38.5 95t94.5 39q55 0 94 -39t39 -95q0 -55 -39 -94t-94 -39q-57 0 -95 38.5t-38 94.5zM217 723h1282v-162h-1282v162z" />
<glyph unicode="&#xf8;" horiz-adv-x="1233" d="M840 879q-38 57 -94 85.5t-130 28.5q-147 0 -223 -117t-76 -344q0 -72 7.5 -131t21.5 -108zM391 190q40 -61 95.5 -90.5t129.5 -29.5q147 0 223 117.5t76 344.5q0 76 -7.5 136.5t-22.5 111.5zM1004 922q62 -74 94 -173t32 -217q0 -254 -140.5 -407.5t-373.5 -153.5 q-94 0 -174 26.5t-147 80.5l-143 -172l-76 63l149 178q-61 77 -92 173.5t-31 211.5q0 254 140.5 407t373.5 153q94 0 174 -25.5t144 -75.5l139 166l76 -63z" />
<glyph unicode="&#xf9;" horiz-adv-x="1319" d="M725 956v107h344v-957h174v-106h-358v188q-51 -106 -131.5 -161.5t-188.5 -55.5q-177 0 -260.5 100.5t-83.5 315.5v569h-166v107h351v-619q0 -193 47 -266q48 -72 170 -72q129 0 195.5 93.5t66.5 273.5v483h-160zM242 1636h197l260 -376h-117z" />
<glyph unicode="&#xfa;" horiz-adv-x="1319" d="M465 1262l258 376h199l-340 -376h-117zM725 956v107h344v-957h174v-106h-358v188q-51 -106 -131.5 -161.5t-188.5 -55.5q-177 0 -260.5 100.5t-83.5 315.5v569h-166v107h351v-619q0 -193 47 -266q48 -72 170 -72q129 0 195.5 93.5t66.5 273.5v483h-160z" />
<glyph unicode="&#xfb;" horiz-adv-x="1319" d="M725 956v107h344v-957h174v-106h-358v188q-51 -106 -131.5 -161.5t-188.5 -55.5q-177 0 -260.5 100.5t-83.5 315.5v569h-166v107h351v-619q0 -193 47 -266q48 -72 170 -72q129 0 195.5 93.5t66.5 273.5v483h-160zM265 1262l235 376h168l235 -376h-116l-203 260l-203 -260 h-116z" />
<glyph unicode="&#xfc;" horiz-adv-x="1319" d="M389 1569q47 0 82 -35t35 -82q0 -51 -33 -84t-84 -33q-25 0 -46.5 8.5t-37 24.5t-24 37t-8.5 47q0 48 34 82q35 35 82 35zM779 1569q46 0 81 -35t35 -82q0 -26 -8.5 -47t-24 -37t-37 -24.5t-46.5 -8.5q-51 0 -84 33t-33 84q0 48 34 82q35 35 83 35zM725 956v107h344v-957 h174v-106h-358v188q-51 -106 -131.5 -161.5t-188.5 -55.5q-177 0 -260.5 100.5t-83.5 315.5v569h-166v107h351v-619q0 -193 47 -266q48 -72 170 -72q129 0 195.5 93.5t66.5 273.5v483h-160z" />
<glyph unicode="&#xfd;" horiz-adv-x="1157" d="M512 -18l-397 974h-121v107h489v-107h-170l299 -731l299 731h-159v107h399v-107h-119l-487 -1196q-51 -125 -111 -169q-61 -46 -172 -46q-48 0 -96.5 8t-99.5 23v203h94q6 -69 34.5 -98t88.5 -29q54 0 88 31q36 33 71 122zM719 1638h199l-340 -376h-117z" />
<glyph unicode="&#xfe;" horiz-adv-x="1311" d="M420 479q0 -193 73 -293t214 -100q142 0 214 112.5t72 333.5q0 223 -72 334t-214 111q-141 0 -214 -100.5t-73 -292.5v-105zM236 -319v1769h-177v106h361v-659q54 100 137 147.5t207 47.5q195 0 320 -155q124 -154 124 -405t-124 -406q-125 -155 -320 -155 q-124 0 -207 47.5t-137 147.5v-485h174v-107h-535v107h177z" />
<glyph unicode="&#xff;" horiz-adv-x="1157" d="M512 -18l-397 974h-121v107h489v-107h-170l299 -731l299 731h-159v107h399v-107h-119l-487 -1196q-51 -125 -111 -169q-61 -46 -172 -46q-48 0 -96.5 8t-99.5 23v203h94q6 -69 34.5 -98t88.5 -29q54 0 88 31q36 33 71 122zM385 1569q48 0 82.5 -34.5t34.5 -82.5 q0 -51 -33 -84t-84 -33q-50 0 -83 33t-33 84q0 48 34.5 82.5t81.5 34.5zM775 1569q47 0 81.5 -34.5t34.5 -82.5q0 -51 -33 -84t-83 -33q-51 0 -84 33t-33 84q0 48 34.5 82.5t82.5 34.5z" />
<glyph unicode="&#x100;" d="M684 1251l-274 -710h548zM408 0h-420v106h131l532 1387h168l533 -1387h147v-106h-543v106h166l-125 328h-628l-125 -328h164v-106zM436 1693v148h598v-148h-598z" />
<glyph unicode="&#x101;" horiz-adv-x="1221" d="M815 559h-237q-138 0 -204.5 -58.5t-66.5 -181.5q0 -111 68 -176t184 -65q114 0 185 71t71 185v225zM999 106h164v-106h-348v115q-61 -75 -140.5 -109.5t-187.5 -34.5q-178 0 -281 94q-104 95 -104 254q0 164 119 256q118 91 336 91h258v73q0 121 -73 187.5t-207 66.5 q-111 0 -175.5 -49.5t-80.5 -148.5h-95v215q191 82 363 82q223 0 337.5 -108.5t114.5 -319.5v-558zM248 1378v148h598v-148h-598z" />
<glyph unicode="&#x104;" d="M956 0v106h166l-125 328h-628l-125 -328h164v-106h-420v106h131l532 1387h168l533 -1387h147v-106h-151l-1 -2q-87 -123 -87 -170q0 -46 33 -74t90 -28q54 0 115 26l-1 -127q-72 -18 -135 -18q-114 0 -175.5 44.5t-61.5 125.5q0 49 30 101.5t99 121.5h-298zM684 1251 l-274 -710h548z" />
<glyph unicode="&#x105;" horiz-adv-x="1221" d="M815 0v115q-61 -75 -140.5 -109.5t-187.5 -34.5q-178 0 -281 94q-104 95 -104 254q0 164 119 256q118 91 336 91h258v73q0 121 -73 187.5t-207 66.5q-111 0 -175.5 -49.5t-80.5 -148.5h-95v215q191 82 363 82q223 0 337.5 -108.5t114.5 -319.5v-558h164v-106h-148l-1 -2 q-87 -123 -87 -170q0 -46 33 -74t90 -28q54 0 115 26l-1 -127q-72 -18 -135 -18q-114 0 -175.5 44.5t-61.5 125.5q0 49 30 101.5t99 121.5h-106zM815 559h-237q-138 0 -204.5 -58.5t-66.5 -181.5q0 -111 68 -176t184 -65q114 0 185 71t71 185v225z" />
<glyph unicode="&#x10c;" horiz-adv-x="1567" d="M909 1635h-176l-231 264h116l203 -162l203 162h116zM1444 395q-66 -211 -221 -317.5t-394 -106.5q-147 0 -271.5 50t-221.5 147q-112 112 -166.5 254t-54.5 323q0 348 201 561q201 214 530 214q123 0 260 -31.5t297 -97.5v-344h-113q-37 188 -148.5 277t-312.5 89 q-241 0 -363 -168.5t-122 -499.5q0 -328 123 -497.5t362 -169.5q335 0 431 317h184z" />
<glyph unicode="&#x10d;" horiz-adv-x="1147" d="M1053 319q-39 -171 -149.5 -259.5t-287.5 -88.5q-232 0 -373 153q-141 154 -141 408q0 255 141 407q141 153 373 153q202 0 402 -95v-272h-107q-21 140 -91.5 204t-201.5 64q-301 0 -301 -461q0 -462 301 -462q120 0 190.5 61.5t96.5 187.5h148zM690 1262h-168l-235 376 h116l203 -260l203 260h116z" />
<glyph unicode="&#x112;" horiz-adv-x="1495" d="M1331 0h-1218v106h190v1280h-190v107h1202v-332h-123v209h-686v-500h489v187h123v-496h-123v187h-489v-625h702v209h123v-332zM415 1694v148h598v-148h-598z" />
<glyph unicode="&#x113;" horiz-adv-x="1212" d="M317 512v-8q0 -217 80.5 -325.5t239.5 -108.5q121 0 198.5 63t108.5 189h148q-89 -351 -474 -351q-234 0 -375 153t-141 408q0 252 139 406t365 154q242 0 370.5 -148t133.5 -432h-793zM893 618q-6 187 -78 281t-209 94q-128 0 -200.5 -94.5t-88.5 -280.5h576zM307 1379 v148h598v-148h-598z" />
<glyph unicode="&#x118;" horiz-adv-x="1495" d="M113 0v106h190v1280h-190v107h1202v-332h-123v209h-686v-500h489v187h123v-496h-123v187h-489v-625h702v209h123v-332h-151l-1 -2q-87 -123 -87 -170q0 -46 33 -74t90 -28q54 0 115 26l-1 -127q-72 -18 -135 -18q-114 0 -175.5 44.5t-61.5 125.5q0 49 30 101.5t99 121.5 h-973z" />
<glyph unicode="&#x119;" horiz-adv-x="1212" d="M317 512v-8q0 -217 80.5 -325.5t239.5 -108.5q121 0 198.5 63t108.5 189h148q-63 -250 -278 -322h2l-1 -2q-87 -123 -87 -170q0 -46 33 -74t90 -28q54 0 115 26l-1 -127q-72 -18 -135 -18q-114 0 -175.5 44.5t-61.5 125.5q0 45 24 91.5t81 106.5q-20 -2 -39.5 -3 t-40.5 -1q-234 0 -375 153t-141 408q0 252 139 406t365 154q242 0 370.5 -148t133.5 -432h-793zM893 618q-6 187 -78 281t-209 94q-128 0 -200.5 -94.5t-88.5 -280.5h576z" />
<glyph unicode="&#x12a;" horiz-adv-x="809" d="M506 1386v-1280h190v-106h-583v106h190v1280h-190v107h583v-107h-190zM105 1694v148h598v-148h-598z" />
<glyph unicode="&#x12b;" horiz-adv-x="655" d="M434 1063v-957h174v-106h-534v106h176v850h-176v107h360zM-45 1378v148h598v-148h-598z" />
<glyph unicode="&#x12e;" horiz-adv-x="809" d="M113 0v106h190v1280h-190v107h583v-107h-190v-1280h190v-106h-152l-1 -2q-87 -123 -87 -170q0 -46 33 -74t90 -28q54 0 115 26l-1 -127q-72 -18 -135 -18q-114 0 -175.5 44.5t-61.5 125.5q0 49 30 101.5t99 121.5h-337z" />
<glyph unicode="&#x12f;" horiz-adv-x="655" d="M434 1063v-957h174v-106h-149l-1 -2q-87 -123 -87 -170q0 -46 33 -74t90 -28q54 0 115 26l-1 -127q-72 -18 -135 -18q-114 0 -175.5 44.5t-61.5 125.5q0 49 30 101.5t99 121.5h-291v106h176v850h-176v107h360zM199 1393q0 45 33 80q34 34 81 34q46 0 79 -34 q34 -34 34 -80q0 -47 -33 -80t-80 -33t-81 33q-33 33 -33 80z" />
<glyph unicode="&#x131;" horiz-adv-x="655" d="M434 106h174v-106h-534v106h176v850h-176v107h360v-957z" />
<glyph unicode="&#x14a;" horiz-adv-x="1792" d="M1377 -25l-953 1254v-1123h201v-106h-525v106h201v1280h-201v107h383l895 -1178v1071h-200v107h524v-107h-201v-1490q0 -69 -21 -132.5t-60.5 -112t-96.5 -77.5t-128 -29q-72 0 -137 16.5t-128 49.5v219h95q7 -97 49.5 -141.5t124.5 -44.5q91 0 134.5 61t43.5 191v79z " />
<glyph unicode="&#x14b;" horiz-adv-x="1319" d="M594 0h-510v106h166v850h-176v107h360v-189q51 109 132 163.5t190 54.5q173 0 259 -101q83 -100 83 -315v-780q0 -164 -98 -257q-97 -94 -268 -94q-72 0 -137 16.5t-128 49.5v219h95q7 -97 49.5 -141.5t124.5 -44.5q90 0 134 62q43 59 43 190v722q0 195 -48 267 q-48 73 -169 73q-129 0 -195.5 -93t-66.5 -273v-486h160v-106z" />
<glyph unicode="&#x14c;" horiz-adv-x="1679" d="M840 78q247 0 371 167.5t124 499.5q0 331 -125 499.5t-370 168.5q-246 0 -371 -168.5t-125 -499.5q0 -330 125 -498.5t371 -168.5zM840 -29q-153 0 -280 50t-224 147q-112 112 -166.5 253.5t-54.5 323.5t54.5 324t166.5 254q197 197 504 197q325 0 525 -213 q200 -214 200 -562q0 -356 -222 -577q-197 -197 -503 -197zM541 1694v148h598v-148h-598z" />
<glyph unicode="&#x14d;" horiz-adv-x="1233" d="M616 70q149 0 224 116.5t75 345.5t-75 345t-224 116t-224 -116t-75 -345t75.5 -345.5t223.5 -116.5zM616 -29q-232 0 -373 153q-141 154 -141 408q0 253 140 407q141 153 374 153t373 -153q141 -153 141 -407t-141 -408q-140 -153 -373 -153zM317 1378v148h598v-148h-598 z" />
<glyph unicode="&#x150;" horiz-adv-x="1679" d="M840 78q247 0 371 167.5t124 499.5q0 331 -125 499.5t-370 168.5q-246 0 -371 -168.5t-125 -499.5q0 -330 125 -498.5t371 -168.5zM840 -29q-153 0 -280 50t-224 147q-112 112 -166.5 253.5t-54.5 323.5t54.5 324t166.5 254q197 197 504 197q325 0 525 -213 q200 -214 200 -562q0 -356 -222 -577q-197 -197 -503 -197zM889 1635l182 264h197l-262 -264h-117zM572 1635l182 264h197l-262 -264h-117z" />
<glyph unicode="&#x151;" horiz-adv-x="1233" d="M616 70q149 0 224 116.5t75 345.5t-75 345t-224 116t-224 -116t-75 -345t75.5 -345.5t223.5 -116.5zM616 -29q-232 0 -373 153q-141 154 -141 408q0 253 140 407q141 153 374 153t373 -153q141 -153 141 -407t-141 -408q-140 -153 -373 -153zM412 1262l188 376h170 l-244 -376h-114zM705 1262l225 376h178l-287 -376h-116z" />
<glyph unicode="&#x152;" horiz-adv-x="2329" d="M1137 106v1280h-187q-292 0 -447 -164t-155 -472q0 -311 155.5 -477.5t446.5 -166.5h187zM2165 0h-1229q-385 0 -601 198t-216 552q0 351 215.5 547t601.5 196h1212v-332h-123v209h-686v-500h492v187h121v-496h-121v187h-492v-625h703v209h123v-332z" />
<glyph unicode="&#x153;" horiz-adv-x="2025" d="M616 70q148 0 223.5 117t75.5 345t-75.5 344.5t-223.5 116.5t-223.5 -116.5t-75.5 -344.5t76 -345t223 -117zM1923 512h-793v-8q0 -215 81 -324.5t239 -109.5q121 0 198.5 63.5t108.5 188.5h148q-44 -175 -162.5 -263t-310.5 -88q-130 0 -233.5 49t-176.5 146 q-69 -96 -172.5 -145.5t-233.5 -49.5q-232 0 -373 153.5t-141 407.5t140.5 407t373.5 153q132 0 235 -49.5t173 -145.5q73 96 173 145.5t222 49.5q242 0 370.5 -148.5t133.5 -431.5zM1706 618q-6 186 -78.5 280.5t-208.5 94.5q-127 0 -200 -95t-89 -280h576z" />
<glyph unicode="&#x160;" horiz-adv-x="1403" d="M790 1635h-176l-231 264h116l203 -162l203 162h116zM190 412l115 -1q5 -171 98 -252t285 -81q179 0 272 70t93 206q0 107 -57 166q-56 59 -238 113l-197 59q-213 64 -302 162q-87 97 -87 266q0 190 135 295t379 105q105 0 228 -22.5t264 -65.5v-318h-113 q-16 157 -106 228q-89 71 -269 71q-159 0 -241 -64t-82 -188q0 -106 62 -168q61 -61 263 -121l185 -55q202 -60 289 -156q87 -95 87 -253q0 -218 -138 -327.5t-415 -109.5q-124 0 -250.5 25t-259.5 76v340z" />
<glyph unicode="&#x161;" horiz-adv-x="1051" d="M115 307h106q7 -237 283 -237q125 0 189.5 46t64.5 136q0 69 -48 113q-23 22 -73 44t-127 48l-133 45q-68 23 -117.5 50.5t-81 61t-46.5 74.5t-15 92q0 146 107 229t296 83q85 0 177 -22t192 -64v-232h-106q-4 103 -71.5 161t-185.5 58q-235 0 -235 -164q0 -68 45 -108 q44 -40 180 -82l146 -45q75 -23 129 -52t88.5 -65.5t50.5 -81.5t16 -100q0 -151 -116 -238q-116 -86 -318 -86q-103 0 -200.5 21.5t-196.5 66.5v248zM610 1262h-168l-235 376h116l203 -260l203 260h116z" />
<glyph unicode="&#x16a;" horiz-adv-x="1726" d="M287 1386h-191v107h584v-107h-191v-772q0 -287 93 -399q95 -113 323 -113q229 0 322 113q94 112 94 399v772h-191v107h504v-107h-190v-792q0 -340 -131 -482q-131 -141 -445 -141q-315 0 -448 142t-133 481v792zM566 1694v148h598v-148h-598z" />
<glyph unicode="&#x16b;" horiz-adv-x="1319" d="M725 956v107h344v-957h174v-106h-358v188q-51 -106 -131.5 -161.5t-188.5 -55.5q-177 0 -260.5 100.5t-83.5 315.5v569h-166v107h351v-619q0 -193 47 -266q48 -72 170 -72q129 0 195.5 93.5t66.5 273.5v483h-160zM333 1378v148h598v-148h-598z" />
<glyph unicode="&#x170;" horiz-adv-x="1726" d="M287 1386h-191v107h584v-107h-191v-772q0 -287 93 -399q95 -113 323 -113q229 0 322 113q94 112 94 399v772h-191v107h504v-107h-190v-792q0 -340 -131 -482q-131 -141 -445 -141q-315 0 -448 142t-133 481v792zM1000 2068h170l-318 -376h-114zM1330 2068h178l-361 -376 h-116z" />
<glyph unicode="&#x171;" horiz-adv-x="1319" d="M725 956v107h344v-957h174v-106h-358v188q-51 -106 -131.5 -161.5t-188.5 -55.5q-177 0 -260.5 100.5t-83.5 315.5v569h-166v107h351v-619q0 -193 47 -266q48 -72 170 -72q129 0 195.5 93.5t66.5 273.5v483h-160zM607 1638h170l-318 -376h-114zM937 1638h178l-361 -376 h-116z" />
<glyph unicode="&#x172;" horiz-adv-x="1726" d="M287 594v792h-191v107h584v-107h-191v-772q0 -287 93 -399q95 -113 323 -113q229 0 322 113q94 112 94 399v772h-191v107h504v-107h-190v-792q0 -340 -131 -482q-80 -86 -226 -119q-106 -119 -115 -165t19 -74t84 -28q27 0 57 6.5t63 19.5l-26 -127q-37 -9 -71.5 -13.5 t-66.5 -4.5q-113 0 -166.5 44.5t-37.5 125.5q9 49 49 102q33 43 94 96q-25 -2 -50 -3t-52 -1q-315 0 -448 142t-133 481z" />
<glyph unicode="&#x173;" horiz-adv-x="1319" d="M885 188q-51 -106 -131.5 -161.5t-188.5 -55.5q-177 0 -260.5 100.5t-83.5 315.5v569h-166v107h351v-619q0 -193 47 -266q48 -72 170 -72q129 0 195.5 93.5t66.5 273.5v483h-160v107h344v-957h174v-106h-102l-1 -2q-111 -123 -120 -170q-9 -46 19 -74t84 -28q27 0 57 6.5 t63 19.5l-26 -127q-37 -9 -71.5 -13.5t-66.5 -4.5q-113 0 -166.5 44.5t-37.5 125.5q9 49 49.5 101.5t122.5 121.5h-162v188z" />
<glyph unicode="&#x178;" horiz-adv-x="1352" d="M387 0v106h191v537l-461 743h-140v107h555v-107h-174l373 -604l373 604h-168v107h434v-107h-141l-449 -724v-556h191v-106h-584zM481 1884q48 0 82.5 -35t34.5 -81q0 -50 -33.5 -83.5t-83.5 -33.5q-49 0 -82.5 33.5t-33.5 83.5q0 46 34.5 81t81.5 35zM871 1884 q47 0 81.5 -35t34.5 -81q0 -50 -33.5 -83.5t-82.5 -33.5q-50 0 -83.5 33.5t-33.5 83.5q0 46 34.5 81t82.5 35z" />
<glyph unicode="&#x17d;" horiz-adv-x="1423" d="M801 1635h-176l-231 264h116l203 -162l203 162h116zM1343 0h-1251v72l930 1298h-772v-223h-123v346h1180v-72l-930 -1298h844v209h122v-332z" />
<glyph unicode="&#x17e;" horiz-adv-x="1079" d="M1004 0h-922v86l666 870h-527v-184h-106v291h870v-86l-666 -871h578v193h107v-299zM625 1262h-168l-235 376h116l203 -260l203 260h116z" />
<glyph unicode="&#x18f;" horiz-adv-x="1679" d="M851 1413q-179 0 -286 -79q-108 -79 -156 -238h-184q66 209 221 316q156 108 394 108q325 0 525 -213q200 -214 200 -562q0 -180 -55 -323q-56 -143 -167 -254q-100 -99 -224 -148q-125 -49 -279 -49q-151 0 -280 50q-126 49 -224 147q-112 112 -166 254q-55 141 -55 323 v71h1218q0 140 -31.5 246t-91.5 182q-65 84 -153 126.5t-206 42.5zM345 694q0 -147 31.5 -257.5t92.5 -190.5q64 -84 155.5 -126t215.5 -42q123 0 214.5 42t155.5 126q61 80 92.5 190.5t31.5 257.5h-989z" />
<glyph unicode="&#x192;" horiz-adv-x="758" d="M881 1305h-97q0 21 -4 40q-9 46 -38 74q-42 39 -121 39q-103 0 -145 -56q-42 -57 -42 -202v-137h297v-107h-297v-975q0 -178 -92 -269q-93 -91 -272 -91q-67 0 -134 12t-133 37v202h97q0 -21 4 -40q9 -46 38 -74q42 -39 121 -39q103 0 145 57q42 56 42 205v975h-176v107 h176v133q0 178 92 269q93 91 272 91q67 0 134 -12t133 -37v-202z" />
<glyph unicode="&#x194;" horiz-adv-x="1458" d="M178 1386h-160v107h592v-107h-176l320 -481l329 481h-192v107h489v-107h-168l-395 -575q364 -466 364 -730q0 -269 -452 -269q-447 0 -447 249q0 229 332 672zM680 636q-263 -398 -263 -580q0 -138 312 -138q223 0 223 108q0 242 -272 610z" />
<glyph unicode="&#x1b7;" horiz-adv-x="1156" d="M528 852h-95v102l344 416h-527v-223h-123v346h873v-125l-369 -445l79 -7q184 -29 286 -150q101 -120 101 -312q0 -234 -141 -359q-140 -124 -404 -124q-117 0 -228 28q-112 28 -222 85v324h112q10 -161 97 -244t245 -83q153 0 242 100q88 99 88 271q0 197 -91 299 q-91 101 -267 101z" />
<glyph unicode="&#x1ea;" horiz-adv-x="1679" d="M1343 168q-184 -184 -465 -196q-79 -113 -79 -160q0 -46 33 -74t90 -28q54 0 115 26l-1 -127q-72 -18 -135 -18q-114 0 -175.5 44.5t-61.5 125.5q0 48 27.5 97.5t90.5 114.5q-134 9 -246 58t-200 137q-112 112 -166.5 253.5t-54.5 323.5t54.5 324t166.5 254 q197 197 504 197q325 0 525 -213q200 -214 200 -562q0 -356 -222 -577zM840 78q247 0 371 167.5t124 499.5q0 331 -125 499.5t-370 168.5q-246 0 -371 -168.5t-125 -499.5q0 -330 125 -498.5t371 -168.5z" />
<glyph unicode="&#x1eb;" horiz-adv-x="1233" d="M989 124q-126 -140 -334 -152q-80 -113 -80 -160q0 -46 33 -74t90 -28q54 0 115 26l-1 -127q-72 -18 -135 -18q-114 0 -175.5 44.5t-61.5 125.5q0 48 27.5 97.5t90.5 115.5q-192 16 -315 150q-141 154 -141 408q0 253 140 407q141 153 374 153t373 -153 q141 -153 141 -407t-141 -408zM616 70q149 0 224 116.5t75 345.5t-75 345t-224 116t-224 -116t-75 -345t75.5 -345.5t223.5 -116.5z" />
<glyph unicode="&#x1ec;" horiz-adv-x="1679" d="M1343 168q-184 -184 -465 -196q-79 -113 -79 -160q0 -46 33 -74t90 -28q54 0 115 26l-1 -127q-72 -18 -135 -18q-114 0 -175.5 44.5t-61.5 125.5q0 48 27.5 97.5t90.5 114.5q-134 9 -246 58t-200 137q-112 112 -166.5 253.5t-54.5 323.5t54.5 324t166.5 254 q197 197 504 197q325 0 525 -213q200 -214 200 -562q0 -356 -222 -577zM840 78q247 0 371 167.5t124 499.5q0 331 -125 499.5t-370 168.5q-246 0 -371 -168.5t-125 -499.5q0 -330 125 -498.5t371 -168.5zM541 1694v148h598v-148h-598z" />
<glyph unicode="&#x1ed;" horiz-adv-x="1233" d="M989 124q-126 -140 -334 -152q-80 -113 -80 -160q0 -46 33 -74t90 -28q54 0 115 26l-1 -127q-72 -18 -135 -18q-114 0 -175.5 44.5t-61.5 125.5q0 48 27.5 97.5t90.5 115.5q-192 16 -315 150q-141 154 -141 408q0 253 140 407q141 153 374 153t373 -153 q141 -153 141 -407t-141 -408zM616 70q149 0 224 116.5t75 345.5t-75 345t-224 116t-224 -116t-75 -345t75.5 -345.5t223.5 -116.5zM317 1378v148h598v-148h-598z" />
<glyph unicode="&#x259;" horiz-adv-x="1212" d="M102 551h793v8q0 215 -81 325q-81 109 -239 109q-121 0 -199 -63q-77 -64 -108 -189h-148q44 175 162 263q119 88 312 88q233 0 374 -154q142 -153 142 -407q0 -252 -139 -406t-365 -154q-241 0 -370 149q-129 148 -134 431zM319 445q6 -186 79 -281q72 -94 208 -94 q127 0 200 95t89 280h-576z" />
<glyph unicode="&#x263;" horiz-adv-x="1227" d="M1034 956l-308 -450q314 -473 314 -663q0 -157 -116 -235q-94 -64 -305 -64q-210 0 -292 103q-52 64 -52 172q0 170 270 616l-357 521h-163v107h553v-107h-173l256 -353l244 353h-192v107h489v-107h-168zM611 338q-221 -379 -221 -546q0 -55 33 -88q52 -54 191 -54 q130 0 185 47q39 34 39 91q2 106 -55 243t-172 307z" />
<glyph unicode="&#x292;" horiz-adv-x="1156" d="M528 423h-95v102l330 431h-527v-184h-106v291h870v-86l-369 -483l79 -7q184 -29 286 -150q101 -120 101 -312q0 -234 -141 -359q-140 -124 -404 -124q-117 0 -228 28q-112 28 -222 85v324h112q10 -161 97 -244t245 -83q153 0 242 100q88 99 88 271q0 197 -91 299 q-91 101 -267 101z" />
<glyph unicode="&#x294;" horiz-adv-x="1098" d="M410 106v726h116q90 0 134 62q42 60 42 254q0 190 -42 250q-44 62 -134 62q-82 0 -125 -46q-43 -44 -49 -140h-96v218q62 34 128 50t138 16q170 0 268 -93t98 -317q0 -228 -98 -322q-82 -77 -196 -85v-635h174v-106h-174h-184h-176v106h176z" />
<glyph unicode="&#x2c0;" horiz-adv-x="574" d="M160 769v407h76q58 0 87 34q27 34 27 143q0 106 -27 140q-29 34 -87 34q-54 0 -81 -25q-28 -25 -32 -79h-63v122q41 19 84 28q42 9 89 9q111 0 174 -52q64 -52 64 -177q0 -128 -64 -181q-53 -43 -127 -47v-356h113v-59h-113h-120h-114v59h114z" />
<glyph unicode="&#x2c6;" horiz-adv-x="1024" d="M428 1638h168l235 -376h-116l-203 260l-203 -260h-116z" />
<glyph unicode="&#x2c7;" horiz-adv-x="1024" d="M428 1262l-235 376h116l203 -260l203 260h116l-235 -376h-168z" />
<glyph unicode="&#x2d0;" horiz-adv-x="690" d="M474 0h-258l99 268h61zM216 888h258l-99 -268h-61z" />
<glyph unicode="&#x2d1;" horiz-adv-x="690" d="M216 888h258l-99 -268h-61z" />
<glyph unicode="&#x2d8;" horiz-adv-x="1024" d="M199 1608h96q13 -79 65 -114.5t152 -35.5t152 35.5t65 114.5h96q-10 -143 -89 -215t-224 -72t-224 72t-89 215z" />
<glyph unicode="&#x2d9;" horiz-adv-x="1024" d="M512 1569q48 0 82.5 -34.5t34.5 -82.5q0 -51 -33 -84t-84 -33t-84 33t-33 84q0 48 34.5 82.5t82.5 34.5z" />
<glyph unicode="&#x2da;" horiz-adv-x="1024" d="M786 1524q0 -115 -79.5 -195t-194.5 -80t-194.5 80t-79.5 195t79.5 194.5t194.5 79.5t194.5 -79.5t79.5 -194.5zM664 1524q0 63 -44 107t-108 44q-65 0 -108.5 -43.5t-43.5 -107.5q0 -65 43.5 -108.5t108.5 -43.5q64 0 108 44t44 108z" />
<glyph unicode="&#x2db;" horiz-adv-x="1024" d="M461 0h94l-1 -2q-87 -123 -87 -170q0 -46 33.5 -74t89.5 -28q27 0 56 6.5t59 19.5l-1 -127q-36 -9 -69.5 -13.5t-65.5 -4.5q-113 0 -175 44.5t-62 125.5q0 49 30 101.5t99 121.5z" />
<glyph unicode="&#x2dc;" horiz-adv-x="1024" d="M508 1370l-57 55q-26 24 -42.5 31.5t-35.5 7.5q-42 0 -66 -39.5t-29 -115.5h-96q2 135 53 208.5t142 73.5q38 0 70 -14t69 -47l57 -55q23 -23 40 -31t38 -8q43 0 67 40t28 115h96q-2 -135 -53 -208.5t-142 -73.5q-38 0 -70 14t-69 47z" />
<glyph unicode="&#x2dd;" horiz-adv-x="1024" d="M432 1638h170l-244 -376h-114zM762 1638h178l-287 -376h-116z" />
<glyph unicode="&#x300;" horiz-adv-x="0" d="M-969 1636h197l260 -376h-117z" />
<glyph unicode="&#x301;" horiz-adv-x="0" d="M-488 1638h199l-340 -376h-117z" />
<glyph unicode="&#x304;" horiz-adv-x="0" d="M-926 1526h598v-148h-598v148z" />
<glyph unicode="&#x30b;" horiz-adv-x="0" d="M-490 1638h170l-318 -376h-114zM-160 1638h178l-361 -376h-116z" />
<glyph unicode="&#x30c;" horiz-adv-x="0" d="M-558 1262l-161 376h116l152 -260l254 260h116l-309 -376h-168z" />
<glyph unicode="&#x328;" horiz-adv-x="0" d="M-525 0h94l-1 -2q-111 -123 -120 -170q-9 -46 19 -74t84 -28q27 0 57 6.5t63 19.5l-26 -127q-37 -9 -71.5 -13.5t-66.5 -4.5q-113 0 -166.5 44.5t-37.5 125.5q9 49 49.5 101.5t122.5 121.5z" />
<glyph unicode="&#x358;" horiz-adv-x="0" d="M-40 1251q0 -38 -30.5 -67t-68.5 -29q-41 0 -71.5 30.5t-30.5 71.5t30 70t72 29q41 0 70 -31.5t29 -73.5z" />
<glyph unicode="&#x3a9;" horiz-adv-x="1698" d="M1120 164h336v137h117v-301h-592v182q180 70 272.5 225.5t92.5 387.5q0 279 -137 448.5t-359 169.5t-359 -169.5t-137 -448.5q0 -233 92 -388t271 -225v-182h-590v301h117v-137h334q-209 87 -331 263t-122 390q0 151 57.5 282t167.5 234q99 91 227 139t273 48t272 -47.5 t226 -139.5q111 -103 169 -234.5t58 -281.5q0 -213 -122.5 -389.5t-332.5 -263.5z" />
<glyph unicode="&#x3c0;" horiz-adv-x="1346" d="M84 0v106h166v850h-176v107h1198v-107h-174v-850h164v-106h-508v106h159v850h-479v-850h160v-106h-510z" />
<glyph unicode="&#x1e9e;" horiz-adv-x="1698" d="M1337 404q0 357 -428 357h-95v102l396 536h-305q-98 0 -170.5 -23t-119.5 -65t-75.5 -108t-39.5 -143.5t-11 -180.5v-772h191v-107h-584v107h191v792q0 165 29.5 279t98 192.5t179.5 115t274 36.5h565v-125l-405 -545q48 -2 92.5 -7.5t98 -19.5t98.5 -35t89 -56t74.5 -79 t49 -108t18.5 -141q0 -113 -36 -198.5t-98.5 -136t-141.5 -75.5t-172 -25q-89 0 -184 31.5t-178 81.5v276h118q3 -57 14 -102.5t25.5 -74.5t37.5 -49.5t41.5 -30.5t45.5 -15.5t41 -6t37 -0.5q103 0 171 89.5t68 233.5z" />
<glyph unicode="&#x2010;" horiz-adv-x="692" d="M90 627h512v-156h-512v156z" />
<glyph unicode="&#x2011;" horiz-adv-x="692" d="M90 627h512v-156h-512v156z" />
<glyph unicode="&#x2012;" horiz-adv-x="1303" d="M90 610h1123v-133h-1123v133z" />
<glyph unicode="&#x2013;" horiz-adv-x="1024" d="M90 610h844v-133h-844v133z" />
<glyph unicode="&#x2014;" horiz-adv-x="2048" d="M90 610h1868v-133h-1868v133z" />
<glyph unicode="&#x2015;" horiz-adv-x="2048" d="M0 610h2048v-133h-2048v133z" />
<glyph unicode="&#x2016;" horiz-adv-x="1024" d="M594 1565h162v-2048h-162v2048zM264 1565h162v-2048h-162v2048z" />
<glyph unicode="&#x2017;" horiz-adv-x="1024" d="M0 -403h1024v-80h-1024v80zM0 -163h1024v-80h-1024v80z" />
<glyph unicode="&#x2018;" horiz-adv-x="651" d="M549 1440q-77 -64 -111.5 -149t-34.5 -214v-63h-194q1 174 63.5 294.5t198.5 211.5z" />
<glyph unicode="&#x2019;" horiz-adv-x="651" d="M145 1067q78 63 113 149t35 216v61h194q-1 -173 -64 -294t-200 -212z" />
<glyph unicode="&#x201a;" horiz-adv-x="651" d="M90 -199q95 69 138.5 162.5t43.5 226.5v37h197q-8 -171 -80.5 -293.5t-218.5 -212.5z" />
<glyph unicode="&#x201b;" horiz-adv-x="651" d="M487 1067l-78 -80q-137 91 -200 212t-64 294h194v-61q0 -130 35 -216t113 -149z" />
<glyph unicode="&#x201c;" horiz-adv-x="1047" d="M944 1440q-76 -64 -110.5 -149t-34.5 -214v-63h-195q2 175 64 295t198 211zM549 1440q-77 -64 -111.5 -149t-34.5 -214v-63h-194q1 174 63.5 294.5t198.5 211.5z" />
<glyph unicode="&#x201d;" horiz-adv-x="1047" d="M145 1067q78 63 113 149t35 216v61h194q-1 -173 -64 -294t-200 -212zM543 1067q76 63 110.5 148.5t34.5 214.5v63h194q-1 -175 -63.5 -295t-197.5 -211z" />
<glyph unicode="&#x201e;" horiz-adv-x="1061" d="M90 -199q95 69 138.5 162.5t43.5 226.5v37h197q-8 -171 -80.5 -293.5t-218.5 -212.5zM485 -199q95 69 139 162.5t44 226.5v37h196q-7 -171 -79.5 -293.5t-219.5 -212.5z" />
<glyph unicode="&#x201f;" horiz-adv-x="1047" d="M882 1067l-78 -80q-137 91 -200 212t-64 294h194v-61q0 -130 35 -216t113 -149zM484 1067l-78 -80q-135 91 -197.5 211t-63.5 295h194v-63q0 -129 34.5 -214.5t110.5 -148.5z" />
<glyph unicode="&#x2020;" horiz-adv-x="1024" d="M422 1493h180l-35 -442l400 28v-166l-400 29l35 -1139h-180l35 1139l-400 -29v166l400 -28z" />
<glyph unicode="&#x2021;" horiz-adv-x="1024" d="M422 1493h180l-35 -442l400 28v-166l-400 29l35 -295l-35 -293l400 29v-166l-400 29l35 -443h-180l35 443l-400 -29v166l400 -29l-35 293l35 295l-400 -29v166l400 -28z" />
<glyph unicode="&#x2022;" horiz-adv-x="1208" d="M307 762q0 124 86.5 209.5t212.5 85.5q124 0 209.5 -85.5t85.5 -209.5q0 -125 -86 -211t-211 -86t-211 86t-86 211z" />
<glyph unicode="&#x2023;" horiz-adv-x="1208" d="M307 385v752l674 -376z" />
<glyph unicode="&#x2024;" horiz-adv-x="684" d="M209 104q0 56 38.5 95t94.5 39q55 0 94 -39t39 -95q0 -55 -39 -94t-94 -39q-57 0 -95 38.5t-38 94.5z" />
<glyph unicode="&#x2025;" horiz-adv-x="1366" d="M891 104q0 56 38.5 95t94.5 39q55 0 94 -39t39 -95q0 -55 -39 -94t-94 -39q-57 0 -95 38.5t-38 94.5zM209 104q0 56 38.5 95t94.5 39q55 0 94 -39t39 -95q0 -55 -39 -94t-94 -39q-57 0 -95 38.5t-38 94.5z" />
<glyph unicode="&#x2026;" horiz-adv-x="2048" d="M1573 104q0 56 38.5 95t94.5 39q55 0 94 -39t39 -95q0 -55 -39 -94t-94 -39q-57 0 -95 38.5t-38 94.5zM891 104q0 56 38.5 95t94.5 39q55 0 94 -39t39 -95q0 -55 -39 -94t-94 -39q-57 0 -95 38.5t-38 94.5zM209 104q0 56 38.5 95t94.5 39q55 0 94 -39t39 -95 q0 -55 -39 -94t-94 -39q-57 0 -95 38.5t-38 94.5z" />
<glyph unicode="&#x2027;" horiz-adv-x="651" d="M190 711q0 56 38.5 94.5t95.5 38.5q55 0 94 -39t39 -94q0 -56 -39 -94.5t-94 -38.5q-57 0 -95.5 38t-38.5 95z" />
<glyph unicode="&#x2030;" horiz-adv-x="2748" d="M2292 784q158 0 251 -110t93 -297t-93.5 -296.5t-250.5 -109.5q-160 0 -253 109.5t-93 296.5q0 188 93.5 297.5t252.5 109.5zM2292 694q-87 0 -137 -84t-50 -233q0 -147 50 -230.5t137 -83.5q86 0 135 83.5t49 230.5q0 148 -49.5 232.5t-134.5 84.5zM459 1427 q-88 0 -137.5 -83t-49.5 -232q0 -146 50 -229.5t137 -83.5q86 0 135 83t49 230q0 148 -49.5 231.5t-134.5 83.5zM1489 692q-88 0 -137 -83t-49 -232q0 -147 50 -230.5t136 -83.5t135 83.5t49 230.5t-48.5 231t-133.5 84h-2zM1489 784q158 0 251 -110t93 -297t-93.5 -296.5 t-250.5 -109.5q-160 0 -253 109.5t-93 296.5q0 188 93.5 297.5t252.5 109.5zM1364 1520h152l-934 -1549h-152zM457 1520q158 0 252 -109.5t94 -296.5q0 -189 -93.5 -298t-252.5 -109t-251.5 109.5t-92.5 297.5q0 186 93 296t251 110z" />
<glyph unicode="&#x2039;" horiz-adv-x="819" d="M627 1059v-115l-297 -344l297 -344v-115l-469 418v82z" />
<glyph unicode="&#x203a;" horiz-adv-x="819" d="M193 1059l469 -418v-82l-469 -418v115l296 344l-296 344v115z" />
<glyph unicode="&#x2044;" horiz-adv-x="342" d="M567 1520h150l-942 -1549h-150z" />
<glyph unicode="&#x20ac;" horiz-adv-x="1303" d="M1137 395q-43 -205 -158.5 -314.5t-288.5 -109.5q-189 0 -325 152t-183 416h-190l45 104h135q-1 15 -2 39q-2 49 -2 63q0 34 1 58t3 47h-180l45 104h145q47 264 182.5 415t325.5 151q99 0 198.5 -31t223.5 -100v-342h-106q-20 180 -96.5 277t-198.5 97 q-136 0 -218.5 -119t-103.5 -348h504l-47 -104h-463q-1 -14 -2 -37q-2 -51 -2 -68q0 -9 1 -43t1 -59h375l-47 -104h-320q23 -230 105 -349.5t217 -119.5q116 0 191.5 83.5t101.5 241.5h133z" />
<glyph unicode="&#x2122;" horiz-adv-x="2048" d="M1118 1493l174 -270l181 270h219v-66h-86v-446h86v-66h-285v66h86v426l-209 -311h-43l-199 311v-426h84v-66h-241v66h86v446h-86v66h233zM242 1493h557v-170h-68v104h-153v-446h86v-66h-287v66h86v446h-156v-104h-65v170z" />
<glyph unicode="&#x2202;" horiz-adv-x="1059" d="M756 621q15 87 22.5 168.5t7.5 156.5q0 129 -36.5 194.5t-108.5 65.5q-55 0 -127 -58t-108 -58t-60 22t-24 53q0 62 72 111t173 49q180 0 287 -155t107 -418q0 -335 -144.5 -556t-357.5 -221q-152 0 -253.5 108t-101.5 271q0 198 110.5 326.5t272.5 128.5 q101 0 166 -45.5t103 -142.5zM707 494q0 116 -43.5 178.5t-122.5 62.5q-109 0 -179.5 -129t-70.5 -336q0 -116 43 -177.5t123 -61.5q109 0 179.5 130t70.5 333z" />
<glyph unicode="&#x2206;" horiz-adv-x="1430" d="M1075 164l-418 1089l-419 -1089h837zM51 0l572 1493h172l571 -1493h-1315z" />
<glyph unicode="&#x220f;" horiz-adv-x="1630" d="M53 1473h1522v-74h-191v-1718h191v-74h-596v74h192v1718h-714v-1718h192v-74h-596v74h191v1718h-191v74z" />
<glyph unicode="&#x2211;" horiz-adv-x="1462" d="M16 1473h1162l110 -365h-78l-73 227q-11 34 -41.5 49t-98.5 15h-690l809 -832v-37l-825 -735h885q63 1 81 13.5t29 49.5l72 230h78l-148 -481h-1272v41l920 815l-920 956v54z" />
<glyph unicode="&#x221a;" horiz-adv-x="1305" d="M1116 1661h189v-96h-115l-594 -1606h-66l-319 883l-125 -45l-25 80l283 98l256 -709z" />
<glyph unicode="&#x221e;" horiz-adv-x="1706" d="M915 559q50 -89 116.5 -133.5t150.5 -44.5q101 0 165 67.5t64 172.5q0 101 -59 168t-148 67q-81 0 -146.5 -66.5t-142.5 -230.5zM793 666q-49 88 -115.5 132t-151.5 44q-101 0 -165 -66.5t-64 -171.5q0 -101 59 -168t148 -67q81 0 146.5 66t142.5 231zM864 483 q-71 -136 -148.5 -199t-172.5 -63q-135 0 -228.5 112t-93.5 277q0 175 83.5 283t217.5 108q95 0 170 -61.5t150 -202.5q68 138 147 203.5t176 65.5q133 0 227.5 -113t94.5 -279q0 -174 -83.5 -281.5t-217.5 -107.5q-95 0 -168.5 58.5t-153.5 199.5z" />
<glyph unicode="&#x222b;" horiz-adv-x="1067" d="M311 -262q106 0 120 688q2 108 3 165q12 515 107 737t297 222q80 0 130 -42t50 -107q0 -54 -32 -85.5t-87 -31.5q-42 0 -70 19t-40 54q-6 15 -10.5 51t-20.5 36q-107 0 -121 -619q-4 -193 -8 -303q-17 -479 -111.5 -686t-290.5 -207q-79 0 -129.5 41.5t-50.5 106.5 q0 56 34 87.5t95 31.5q33 0 57 -14.5t39 -42.5q10 -18 15 -59.5t24 -41.5z" />
<glyph unicode="&#x2248;" horiz-adv-x="1716" d="M1499 612v-147q-99 -90 -189.5 -132t-183.5 -42q-92 0 -258 63q-15 6 -23 9q-10 4 -32 12q-147 57 -242 57q-92 0 -178.5 -36.5t-175.5 -112.5v147q101 90 190.5 131t182.5 41q96 0 270 -66l10 -4q11 -3 31 -12q145 -57 242 -57q92 0 180 36.5t176 112.5zM1499 1001v-147 q-98 -89 -188.5 -130.5t-184.5 -41.5q-96 0 -270 66l-10 4l-33 12q-147 57 -242 57q-92 0 -178.5 -36.5t-175.5 -112.5v147q101 90 190.5 131t182.5 41q96 0 270 -65l10 -4q11 -4 31 -13q145 -57 242 -57q92 0 180 36.5t176 112.5z" />
<glyph unicode="&#x2260;" horiz-adv-x="1716" d="M217 926h772l256 319l125 -102l-174 -217h303v-160h-440l-195 -248h635v-160h-774l-258 -319l-125 102l174 217h-299v160h438l195 248h-633v160z" />
<glyph unicode="&#x2264;" horiz-adv-x="1716" d="M1499 1026l-1055 -287l1055 -286v-166l-1282 368v170l1282 367v-166zM217 156h1282v-156h-1282v156z" />
<glyph unicode="&#x2265;" horiz-adv-x="1716" d="M1499 156v-156h-1282v156h1282zM217 1026v166l1282 -367v-170l-1282 -368v166l1055 286z" />
<glyph unicode="&#x25ca;" horiz-adv-x="1012" d="M506 1409l-385 -817l385 -825l385 825zM506 1653l500 -1061l-500 -1069l-500 1069z" />
<glyph unicode="&#x25cc;" horiz-adv-x="1787" d="M348 143q43 -60 102 -109q46 -38 102 -70l-49 -106q-70 40 -127 88q-75 61 -128 135zM1234 -36q56 32 102 70q52 44 102 109l100 -61q-59 -78 -128 -136q-57 -48 -128 -88zM1438 921q-44 60 -102 109q-46 38 -102 70l48 106q71 -40 128 -88q74 -61 128 -135zM552 1100 q-56 -32 -102 -70q-59 -49 -102 -109l-100 62q49 69 128 135q57 48 127 88zM740 -118q76 -22 153 -22t153 22l38 -110q-95 -27 -191 -27t-192 27zM1543 379q16 73 16 153t-16 153l110 39q20 -91 20 -192t-20 -192zM1046 1182q-76 22 -153 22t-153 -22l-39 110q96 27 192 27 t191 -27zM244 685q-16 -73 -16 -153t16 -153l-110 -39q-20 91 -20 192t20 192z" />
<glyph unicode="&#x25fc;" horiz-adv-x="1065" d="M0 1065h1065v-1065h-1065v1065z" />
<glyph unicode="&#x104b0;" d="M1499 0h-543v106h166l-438 1145l-440 -1145h164v-106h-420v106h131l532 1387h168l533 -1387h147v-106z" />
<glyph unicode="&#x104b1;" d="M729 0h-107v455h107v-455zM1499 0h-543v106h166l-438 1145l-440 -1145h164v-106h-420v106h131l532 1387h168l533 -1387h147v-106z" />
<glyph unicode="&#x104b2;" d="M817 488q0 -55 -38 -95q-38 -38 -95 -38t-95 38q-38 40 -38 95t38 95q39 39 95 39t94 -39q39 -39 39 -95zM1499 0h-543v106h166l-438 1145l-440 -1145h164v-106h-420v106h131l532 1387h168l533 -1387h147v-106z" />
<glyph unicode="&#x104b3;" horiz-adv-x="1352" d="M1370 0h-555v107h174l-373 604l-373 -604h168v-107h-434v107h141l449 724v556h-191v106h584v-106h-191v-537l461 -743h140v-107z" />
<glyph unicode="&#x104b4;" horiz-adv-x="1365" d="M1067 746q0 72 -10.5 142t-41 124.5t-87 88t-147.5 33.5q-81 0 -135.5 -23t-88 -63.5t-48 -96.5t-14.5 -122v-165q0 -66 14.5 -122t47.5 -96.5t88 -63.5t136 -23q91 0 147 33.5t87 88.5t41.5 124t10.5 141zM1546 -409h-352l-233 475q-17 34 -32 65.5t-29.5 55.5 t-29.5 39.5t-32 17.5q-57 8 -107.5 20t-93.5 33.5t-78.5 55t-63.5 85.5v-332h231v-106h-624v106h190v1280h-190v107h624v-107h-231v-331q57 104 142 149t201 45t200 -40.5t138 -109t80 -160t26 -193.5q0 -77 -14.5 -147.5t-44.5 -131t-76.5 -107.5t-109.5 -76 q32 -25 59.5 -60t50.5 -84l217 -443h182v-106z" />
<glyph unicode="&#x104b5;" horiz-adv-x="1661" d="M1652 0h-508v106h159l93 242q23 60 16 120t-37 108.5t-80.5 79t-115.5 30.5q-64 0 -122 -25t-97 -71.5t-53 -114.5t10 -153l90 -322h-1l6 -10q-82 -19 -183 -19q-147 0 -271.5 50t-221.5 147q-112 112 -166.5 254t-54.5 323q0 348 201 561q201 214 530 214 q123 0 260 -31.5t297 -97.5v-344h-113q-37 188 -148.5 277t-312.5 89q-241 0 -363 -168.5t-122 -499.5q0 -328 123 -497.5t362 -169.5q39 0 65 3l-67 241q-26 91 -13 180.5t64 160.5t141 115t220 44q88 0 164.5 -27t126.5 -79.5t66 -130t-15 -179.5l-93 -300h164v-106z" />
<glyph unicode="&#x104b6;" horiz-adv-x="1661" d="M1778 302h-229l-61 -196h164v-106h-508v106h159l75 196h-201v125h236q3 50 -13 97t-47 83t-75.5 57.5t-98.5 21.5q-64 0 -122 -25t-97 -71.5t-53 -114.5t10 -153l90 -322h-1l6 -10q-82 -19 -183 -19q-147 0 -271.5 50t-221.5 147q-112 112 -166.5 254t-54.5 323 q0 348 201 561q201 214 530 214q123 0 260 -31.5t297 -97.5v-344h-113q-37 188 -148.5 277t-312.5 89q-241 0 -363 -168.5t-122 -499.5q0 -328 123 -497.5t362 -169.5q39 0 65 3l-67 241q-26 91 -13 180.5t64 160.5t141 115t220 44q86 0 160.5 -25.5t125 -75.5t69 -123.5 t-6.5 -170.5h191v-125z" />
<glyph unicode="&#x104b7;" horiz-adv-x="1464" d="M865 1099q-4 26 -12.5 59t-21.5 67t-31 66t-41 57t-52 40.5t-63 15.5q-69 0 -117.5 -36.5t-81.5 -95.5t-52.5 -132.5t-29.5 -147t-13 -140.5t-3 -112q0 -46 3.5 -113.5t13.5 -142.5t29.5 -149.5t51.5 -134.5t78 -97t111 -37q44 0 81 34.5t67.5 89.5t54.5 122t42.5 133 t31.5 122.5t22 89.5zM1439 73q-43 -32 -93.5 -55.5t-105.5 -23.5q-54 0 -99 25t-79 64.5t-56 88.5t-30 97l-16 98q-15 -53 -29.5 -103t-33.5 -94t-44 -80.5t-60.5 -63t-84 -41t-113.5 -14.5q-94 0 -166 37t-125.5 98.5t-89.5 142t-58 166.5t-31.5 171.5t-9.5 158.5 q0 86 10 176.5t33.5 175.5t62.5 160.5t97.5 132t138.5 89t185 32.5q106 0 176 -27.5t114 -79.5t68.5 -127t40.5 -169q14 54 27 106t33 100t51 90t81 74h109v-81q-57 -23 -90.5 -68.5t-50.5 -103.5l-112 -391l76 -484q2 -15 5.5 -39t9.5 -51.5t14.5 -55.5t20 -51t27.5 -37.5 t37 -14.5q20 0 42 8t43 19.5t40.5 25t34.5 25.5v-106z" />
<glyph unicode="&#x104b8;" horiz-adv-x="1464" d="M758 740q0 -29 -10 -53t-28 -42t-42.5 -28t-52.5 -10q-57 0 -95 38q-38 37 -38 95q0 56 38 94q39 39 95 39q28 0 52.5 -10t42.5 -28t28 -42.5t10 -52.5zM865 1099q-4 26 -12.5 59t-21.5 67t-31 66t-41 57t-52 40.5t-63 15.5q-69 0 -117.5 -36.5t-81.5 -95.5t-52.5 -132.5 t-29.5 -147t-13 -140.5t-3 -112q0 -46 3.5 -113.5t13.5 -142.5t29.5 -149.5t51.5 -134.5t78 -97t111 -37q44 0 81 34.5t67.5 89.5t54.5 122t42.5 133t31.5 122.5t22 89.5zM1439 73q-43 -32 -93.5 -55.5t-105.5 -23.5q-54 0 -99 25t-79 64.5t-56 88.5t-30 97l-16 98 q-15 -53 -29.5 -103t-33.5 -94t-44 -80.5t-60.5 -63t-84 -41t-113.5 -14.5q-94 0 -166 37t-125.5 98.5t-89.5 142t-58 166.5t-31.5 171.5t-9.5 158.5q0 86 10 176.5t33.5 175.5t62.5 160.5t97.5 132t138.5 89t185 32.5q106 0 176 -27.5t114 -79.5t68.5 -127t40.5 -169 q14 54 27 106t33 100t51 90t81 74h109v-81q-57 -23 -90.5 -68.5t-50.5 -103.5l-112 -391l76 -484q2 -15 5.5 -39t9.5 -51.5t14.5 -55.5t20 -51t27.5 -37.5t37 -14.5q20 0 42 8t43 19.5t40.5 25t34.5 25.5v-106z" />
<glyph unicode="&#x104b9;" horiz-adv-x="1403" d="M1253 408q0 -127 -44.5 -211t-120.5 -134.5t-176 -71t-212 -20.5q-132 0 -259.5 26.5t-250.5 74.5v340l115 -1q3 -92 30.5 -155.5t77 -103t119 -57t156.5 -17.5q69 0 135 13t117 44.5t82 84.5t31 134q0 42 -24 101t-60.5 128.5t-79.5 146.5t-81 156t-66 156.5t-33.5 148 t16.5 131t84 104.5t168.5 69t269.5 25v-107q-132 0 -202 -31.5t-94 -85t-11.5 -125t46.5 -152.5t79.5 -166t87.5 -166t71 -153t29 -126z" />
<glyph unicode="&#x104ba;" horiz-adv-x="1403" d="M1253 408q0 -127 -44.5 -211t-120.5 -134.5t-176 -71t-212 -20.5q-132 0 -259.5 26.5t-250.5 74.5v340l115 -1q3 -92 30.5 -155.5t77 -103t119 -57t156.5 -17.5q69 0 135 13t117 44.5t82 84.5t31 134q0 40 -22 96t-56 121.5t-75 139t-79 149t-67.5 151t-40.5 145 t1.5 130.5t58.5 109t130.5 79.5t218.5 41.5v170h125v-439h-125v156q-91 -16 -134 -56.5t-50.5 -97.5t12.5 -127.5t55 -147t78 -155.5t81 -153.5t63.5 -140.5t25.5 -117z" />
<glyph unicode="&#x104bb;" horiz-adv-x="1726" d="M1470 0h-584v107h191l163 772q15 70 11 130.5t-19.5 111t-38.5 90t-46 67.5q-95 113 -323 113q-229 0 -322 -113q-24 -28 -47 -67.5t-38.5 -90t-19.5 -111t11 -130.5l162 -772h191v-107h-504v107h190l-162 792q-17 83 -11 155.5t26.5 133.5t51.5 109.5t64 83.5 q130 141 445 141t448 -142q33 -36 64.5 -84.5t52.5 -109t27 -132.5t-11 -155l-163 -792h191v-107z" />
<glyph unicode="&#x104bc;" horiz-adv-x="1530" d="M1483 1386h-168l-593 -514q46 13 97 20q290 44 449 -123q110 -115 110 -306v-439q0 -248 -99 -357q-99 -110 -316 -110q-144 0 -291 68v235h114q6 -196 179 -196q119 0 166 75q47 76 47 293v431q0 180 -78 233q-120 81 -307 57q-112 -13 -202 -105q-85 -85 -85 -197v-345 h190v-106h-583v106h190v1280h-190v107h583v-107h-190v-565l643 565h-162v107h496v-107z" />
<glyph unicode="&#x104bd;" horiz-adv-x="1585" d="M1483 1386h-168l-593 -514q17 4 35 8q15 3 31.5 6.5t30.5 5.5q290 44 449 -123q110 -115 110 -306v-439q0 -248 -99 -357q-99 -110 -316 -110q-144 0 -291 68v235h114q6 -196 179 -196q119 0 166 75q47 76 47 293v431q0 180 -78 233q-120 81 -307 57q-112 -13 -202 -105 q-43 -43 -63 -92t-22 -105l-3 -112l3 -233h190v-106h-583v106h190v1007h-203v125h203v148h-190v107h583v-107h-190v-148h195v-125h-195v-292l643 565h-162v107h496v-107z" />
<glyph unicode="&#x104be;" horiz-adv-x="1530" d="M1164 -216q-56 90 -218 90q-111 0 -111 -123q0 -95 165 -95q126 0 164 128zM1483 1386h-168l-593 -514q46 13 97 20q290 44 449 -123q110 -115 110 -306v-567q0 -57 -16.5 -103t-33.5 -83q43 -96 49 -164h-113l-17 75q-100 -76 -251 -76q-379 0 -379 199q0 230 260 230 q190 0 301 -60v549q0 180 -78 233q-120 81 -307 57q-112 -13 -202 -105q-85 -85 -85 -197v-345h190v-106h-583v106h190v1280h-190v107h583v-107h-190v-565l643 565h-162v107h496v-107z" />
<glyph unicode="&#x104bf;" horiz-adv-x="1567" d="M1444 395q-66 -211 -221 -317.5t-394 -106.5q-151 0 -271.5 43.5t-207.5 117.5t-141 173.5t-72 211t-0.5 229t73 229t149.5 211t228 173.5t309.5 117.5t393.5 43.5v-107q-179 0 -321.5 -37.5t-251 -101.5t-184.5 -149.5t-121.5 -181.5t-61.5 -197.5t-4.5 -197.5 t49 -181.5t99 -149.5t146 -101.5t189.5 -37.5q335 0 431 317h184z" />
<glyph unicode="&#x104c0;" horiz-adv-x="1700" d="M1251 985q-3 54 -13.5 105.5t-30.5 96.5t-50 82.5t-72 63.5q-95 -51 -148 -141.5t-65 -206.5q-6 -63 -4 -130.5t19.5 -125t54 -96.5t99.5 -44q43 -4 76.5 12t57.5 45.5t40 70t24.5 85.5t11 92t0.5 91zM1810 1018h-113q-18 97 -46 166t-73 113.5t-111.5 65.5t-162.5 21h-5 q75 -73 106 -175.5t29 -223.5q-2 -92 -29 -182t-77 -160.5t-122.5 -112t-164.5 -37.5q-89 4 -154.5 48t-110 113t-67 155.5t-23.5 175.5q-1 63 13 120t40 107t63.5 93.5t84.5 78.5q-90 0 -160.5 -22.5t-119.5 -68t-75 -114t-26 -161.5v-365v-547h231v-106h-624v106h190v1280 h-190v107h393v-193q32 63 71.5 104.5t87 66.5t103.5 35.5t121 10.5q124 0 217 -27q94 27 198 27q72 0 135 -14t123.5 -36t121 -50t126.5 -55v-344z" />
<glyph unicode="&#x104c1;" horiz-adv-x="1772" d="M1766 395q-66 -211 -221 -317.5t-394 -106.5q-147 0 -271.5 50t-221.5 147q-93 93 -146 205.5t-69 251.5l-199 -519h164v-106h-420v106h131l532 1387h134l-79 -190q-23 -55 -39 -137t-22 -178.5t0 -201.5t27.5 -206t59.5 -192t96 -160t138 -109.5t185 -40.5 q335 0 431 317h184z" />
<glyph unicode="&#x104c2;" horiz-adv-x="1679" d="M1335 745q0 331 -125 499.5t-370 168.5q-246 0 -371 -168.5t-125 -499.5q0 -330 125 -498.5t371 -168.5q247 0 371 167.5t124 499.5zM1565 745q0 -356 -222 -577q-197 -197 -503 -197q-153 0 -280 50t-224 147q-112 112 -166.5 253.5t-54.5 323.5t54.5 324t166.5 254 q197 197 504 197q325 0 525 -213q200 -214 200 -562z" />
<glyph unicode="&#x104c3;" horiz-adv-x="1679" d="M972 745q0 -29 -10 -53t-28 -42t-42.5 -28t-52.5 -10q-57 0 -95 38t-38 95q0 56 38 94q39 39 95 39q28 0 52.5 -10t42.5 -28t28 -42.5t10 -52.5zM1335 745q0 331 -125.5 499.5t-369.5 168.5q-248 0 -372 -167.5t-124 -500.5q0 -332 124 -499.5t372 -167.5 q246 0 370.5 167.5t124.5 499.5zM1565 745q0 -180 -55 -322.5t-167 -254.5q-199 -197 -503 -197q-153 0 -280 50t-224 147q-113 112 -167 253.5t-54 323.5t54 324t167 254q195 197 504 197q325 0 525 -213q200 -214 200 -562z" />
<glyph unicode="&#x104c4;" horiz-adv-x="1384" d="M1067 746q0 72 -10.5 142t-41 124.5t-87 88t-147.5 33.5q-81 0 -135.5 -23t-88 -63.5t-48 -96.5t-14.5 -122v-165q0 -66 14.5 -122t47.5 -96.5t88 -63.5t136 -23q91 0 147 33.5t87 88.5t41.5 124t10.5 141zM1282 746q0 -102 -26 -193t-80 -159.5t-138 -109t-200 -40.5 t-201 45t-142 149v-332h231v-106h-624v106h190v1280h-190v107h624v-107h-231v-331q57 104 142 149t201 45t200 -40.5t138 -109t80 -160t26 -193.5z" />
<glyph unicode="&#x104c5;" horiz-adv-x="1384" d="M1067 746q0 72 -10.5 142t-41 124.5t-87 88t-147.5 33.5q-81 0 -135.5 -23t-88 -63.5t-48 -96.5t-14.5 -122v-20h231v-125h-231v-20q0 -66 14.5 -122t47.5 -96.5t88 -63.5t136 -23q91 0 147 33.5t87 88.5t41.5 124t10.5 141zM1282 746q0 -102 -26 -193t-80 -159.5 t-138 -109t-200 -40.5t-201 45t-142 149v-332h231v-106h-624v106h190v578h-167v125h167v577h-190v107h624v-107h-231v-331q57 104 142 149t201 45t200 -40.5t138 -109t80 -160t26 -193.5z" />
<glyph unicode="&#x104c6;" horiz-adv-x="1567" d="M1403 1047h-113q-19 97 -57 166t-95.5 113.5t-134.5 65.5t-174 21q-112 0 -198.5 -37.5t-147 -101.5t-94.5 -149.5t-41 -181.5t14 -197.5t70 -197.5t126.5 -181.5t184.5 -149.5t243.5 -101.5t303.5 -37.5v-107q-212 0 -385 43.5t-307 117.5t-229.5 173.5t-153 211 t-78 229t-3.5 229t70.5 211t142.5 173.5t214 117.5t285 43.5q145 0 284.5 -37.5t272.5 -91.5v-344z" />
<glyph unicode="&#x104c7;" horiz-adv-x="1895" d="M1848 0h-508v106h159v340q0 116 -25.5 193.5t-79 124t-135 66t-192.5 19.5q-50 0 -108 -4.5t-121 -15.5q79 -23 154 -53t133 -77.5t93 -117.5t35 -173q0 -128 -45 -212t-120.5 -134t-176 -70.5t-211.5 -20.5q-120 0 -214.5 19t-160 67.5t-99.5 133.5t-34 217 q0 124 45.5 214t121.5 152q-41 25 -75.5 57t-59.5 74t-38.5 95t-13.5 120q0 75 20 134t55.5 103t84 75.5t105.5 50.5t120.5 28t128.5 9q126 0 249 -25.5t243 -62.5v-318h-113q-9 85 -38.5 142.5t-77.5 92.5t-113.5 49.5t-145.5 14.5q-63 0 -121.5 -12t-103 -41t-71.5 -77.5 t-27 -121.5q0 -55 18 -96t49.5 -72t74.5 -53.5t93 -40.5q61 19 125.5 32t129 21t127 11t120.5 3q108 0 212.5 -26t186 -81.5t131.5 -143.5t50 -211v-398h164v-106zM758 633q-66 20 -133 38t-130 41q-42 -26 -76.5 -57t-60 -68.5t-39.5 -82t-14 -96.5q0 -85 30.5 -147 t83 -102.5t122 -60.5t147.5 -20q69 0 134.5 13t116.5 44.5t82.5 84.5t31.5 134q0 46 -12.5 88.5t-44.5 77.5q-18 20 -48 37t-63.5 31.5t-67 25.5t-59.5 19z" />
<glyph unicode="&#x104c8;" horiz-adv-x="1642" d="M1294 748q0 310 -139.5 468t-431.5 158h-14l-203 -1268h190q287 0 442 166q156 166 156 476zM1524 748q0 -352 -216 -550t-601 -198h-594h-1v106h1h190l203 1268h-439v-233h-123v352h763q386 0 601 -197q216 -197 216 -548z" />
<glyph unicode="&#x104c9;" horiz-adv-x="1642" d="M1294 748q0 310 -139.5 468t-431.5 158h-14l-90 -565h200v-125h-220l-93 -578h190q287 0 442 166q156 166 156 476zM1524 748q0 -352 -216 -550t-601 -198h-594h-1v106h1h190l93 578h-178v125h198l90 565h-439v-233h-123v352h763q386 0 601 -197q216 -197 216 -548z" />
<glyph unicode="&#x104ca;" horiz-adv-x="1381" d="M1068 963q0 103 -24 179.5t-65.5 127t-95.5 75.5t-114 25h-11l-184 -834h124q96 0 166 28t115.5 82.5t67 134t21.5 182.5zM1263 962q0 -251 -172 -392q-39 -32 -100 -52.5t-135 -37t-155.5 -32t-160.5 -36.5t-151 -51.5t-126.5 -76t-86.5 -110.5t-32 -155q0 -136 93 -206 t272 -70q192 0 285 81t98 252l115 1v-340q-133 -51 -259.5 -76t-250.5 -25q-277 0 -415 109.5t-138 327.5q0 61 19 113.5t50.5 96.5t71.5 80t82 64q98 66 223 109l184 834h-289v-166h-105v289h466q275 0 446 -141t171 -390z" />
<glyph unicode="&#x104cb;" horiz-adv-x="1381" d="M1068 963q0 103 -24 179.5t-65.5 127t-95.5 75.5t-114 25h-11l-77 -348h112v-122h-138l-81 -364h124q96 0 166 28t115.5 82.5t67 134t21.5 182.5zM1263 962q0 -251 -172 -392q-39 -32 -100 -52.5t-135 -37t-155.5 -32t-160.5 -36.5t-151 -51.5t-126.5 -76t-86.5 -110.5 t-32 -155q0 -136 93 -206t272 -70q192 0 285 81t98 252l115 1v-340q-133 -51 -259.5 -76t-250.5 -25q-277 0 -415 109.5t-138 327.5q0 61 19 113.5t50.5 96.5t71.5 80t82 64q98 66 223 109l81 364h-180v122h206l77 348h-289v-166h-105v289h466q275 0 446 -141t171 -390z" />
<glyph unicode="&#x104cc;" horiz-adv-x="1563" d="M1445 962q0 -251 -172 -392q-36 -29 -91 -49t-121.5 -35.5t-141 -29.5t-148 -31.5t-143.5 -41.5t-128 -59t-100 -84.5t-61 -117.5h312v-122h-325q7 -127 99.5 -192t265.5 -65q192 0 285 81t98 252l115 1v-340q-133 -51 -259.5 -76t-250.5 -25q-503 0 -548 364h-187v122 h185q7 55 30.5 101.5t56 86t71.5 71.5t79 57q93 59 206 98l184 834h-289v-166h-105v289h466q275 0 446 -141t171 -390zM1250 963q0 103 -24 179.5t-65.5 127t-95.5 75.5t-114 25h-11l-184 -834h124q96 0 166 28t115.5 82.5t67 134t21.5 182.5z" />
<glyph unicode="&#x104cd;" horiz-adv-x="1644" d="M1612 0h-508v106h159v377q0 98 -12.5 164.5t-35.5 101.5q-48 72 -169 72q-129 0 -195.5 -92.5t-66.5 -271.5v-351h191v-106h-584v106h191v1268h-439v-233h-123v352h1326v-352h-123v233h-439v-635q51 109 132 163.5t190 54.5q176 0 259 -101t83 -315v-435h164v-106z" />
<glyph unicode="&#x104ce;" horiz-adv-x="1726" d="M1634 1386h-190v-792q0 -340 -131 -482q-131 -141 -445 -141q-315 0 -448 142t-133 481v792h-191v107h584v-107h-191v-772q0 -287 93 -399q95 -113 323 -113q229 0 322 113q94 112 94 399v772h-191v107h504v-107z" />
<glyph unicode="&#x104cf;" horiz-adv-x="1000" d="M887 870l-204 -764h190v-106h-583v106h190l172 642h-539l203 638h-190v107h583v-107h-190l-162 -516h530z" />
<glyph unicode="&#x104d0;" horiz-adv-x="1796" d="M1717 0h-201q-192 0 -192 291v290q0 241 -94 335q-65 67 -222 91v-900h190v-107h-583v107h190v900q-158 -26 -223 -91q-93 -93 -93 -335v-290q0 -291 -192 -291h-201v107h102q89 0 89 184v307q0 278 133 404q109 105 385 120v265h-190v106h583v-106h-190v-265 q268 -15 384 -120q134 -119 134 -404v-307q0 -184 89 -184h102v-107z" />
<glyph unicode="&#x104d1;" horiz-adv-x="1796" d="M1717 1386h-102q-89 0 -89 -184v-307q0 -285 -134 -404q-116 -105 -384 -120v-265h190v-106h-583v106h190v265q-276 15 -385 120q-133 126 -133 404v307q0 184 -89 184h-102v107h201q192 0 192 -291v-290q0 -242 93 -335q65 -66 223 -91v900h-190v107h583v-107h-190v-900 q157 24 222 91q94 94 94 335v290q0 291 192 291h201v-107z" />
<glyph unicode="&#x104d2;" horiz-adv-x="1423" d="M1307 1421l-938 -1315h164v-106h-548v106h131l906 1264h-772v-223h-123v346h1180v-72z" />
<glyph unicode="&#x104d3;" horiz-adv-x="1423" d="M1191 0q-48 159 -155.5 241.5t-275.5 82.5q-174 0 -279 -81t-158 -243h-231v72l930 1298h-772v-223h-123v346h1180v-72l-724 -1011q87 21 177 21q113 0 210 -26.5t175.5 -79.5t136.5 -134.5t93 -190.5h-184z" />
<glyph unicode="&#x104d8;" horiz-adv-x="1157" d="M1151 0h-489v107h170l-299 731l-299 -731h159v-107h-399v107h119l391 956h135l391 -956h121v-107z" />
<glyph unicode="&#x104d9;" horiz-adv-x="1157" d="M1151 0h-433v107h114l-299 731l-299 -731h106v-107h-346v107h119l391 956h135l391 -956h121v-107zM583 0h-107v455h107v-455z" />
<glyph unicode="&#x104da;" horiz-adv-x="1157" d="M1151 0h-433v107h114l-299 731l-299 -731h106v-107h-346v107h119l391 956h135l391 -956h121v-107zM666 319q0 -55 -38 -95q-38 -38 -95 -38t-95 38q-38 40 -38 95t38 95q39 39 95 39t94 -39q39 -39 39 -95z" />
<glyph unicode="&#x104db;" horiz-adv-x="1157" d="M1115 0h-489v107h170l-299 731l-299 -731h159v-107h-399v107h119l359 881l-38 93l-70 177q-19 46 -43.5 76t-41.5 46q-17 15 -38.5 23t-49.5 8q-60 0 -88.5 -29t-34.5 -98h-94v203q51 15 99.5 23t96.5 8q28 0 66.5 -3t77 -8.5t71 -14t47.5 -20.5q62 -45 111 -169 l487 -1196h121v-107z" />
<glyph unicode="&#x104dc;" horiz-adv-x="1019" d="M756 532q0 43 -6 89t-24 83.5t-51 62t-87 24.5q-50 0 -83 -19.5t-52 -51t-26.5 -72.5t-7.5 -84v-65q0 -43 7.5 -84t26.5 -72.5t51.5 -51t83.5 -19.5q54 0 87 24.5t51 62.5t24 84t6 89zM1166 -195l-2 -103h-285l-166 338q-8 15 -16 35.5t-18.5 39.5t-23.5 33.5t-30 18.5 q-29 7 -57.5 12t-54.5 13.5t-50 21.5t-44 36v-250h-360v106h176v850h-176v107h360v-250q40 47 93 65t113 18q77 0 134.5 -30.5t95.5 -81.5t57 -116.5t19 -135.5q0 -46 -8 -91.5t-25 -86.5t-44.5 -77t-67.5 -63q36 -22 56 -53t38 -68l141 -288h145z" />
<glyph unicode="&#x104dd;" horiz-adv-x="1269" d="M1266 0h-356v87h109l39 211q11 58 -7 98.5t-43 61.5q-52 43 -137 43q-44 0 -72 -11t-43 -31q-16 -21 -30 -61.5t-3 -99.5l57 -298q-19 -9 -44 -15q-21 -5 -51.5 -9.5t-68.5 -4.5q-232 0 -373 153q-141 154 -141 408q0 255 141 407q141 153 373 153q202 0 402 -95v-272 h-107q-21 140 -91.5 204t-201.5 64q-301 0 -301 -461q0 -462 301 -462q11 0 23 1t24 3l-41 258q-11 69 14 121.5t66 86.5q78 65 207 65q130 0 208 -65q40 -33 65 -86t14 -122l-38 -245h106v-87z" />
<glyph unicode="&#x104de;" horiz-adv-x="1378" d="M1380 212h-201l-19 -125h106v-87h-356v87h109l23 125h-164v122h184q0 44 -17 75t-37 49q-52 43 -137 43q-44 0 -72 -11t-43 -31q-16 -21 -30 -61.5t-3 -99.5l57 -298q-19 -9 -44 -15q-21 -5 -51.5 -9.5t-68.5 -4.5q-232 0 -373 153q-141 154 -141 408q0 255 141 407 q141 153 373 153q202 0 402 -95v-272h-107q-21 140 -91.5 204t-201.5 64q-301 0 -301 -461q0 -462 301 -462q11 0 23 1t24 3l-41 258q-11 69 14 121.5t66 86.5q78 65 207 65q130 0 208 -65q19 -17 36 -38t28 -47t15.5 -56.5t-0.5 -64.5h182v-122z" />
<glyph unicode="&#x104df;" horiz-adv-x="1383" d="M841 458l-63 294q-49 233 -186 235q-113 1 -202 -122q-73 -102 -73 -333q0 -219 73 -333q80 -123 213 -113q115 9 198 254zM1328 49q-203 -117 -346 5q-32 28 -53.5 62t-29.5 75l-15 71l-40 -111q-32 -86 -126 -141q-62 -37 -172 -35q-197 2 -320 155q-124 155 -124 406 q0 245 124 405q117 151 364 150q171 0 256 -67q76 -58 105 -188l8 -37l39 111q19 53 53 92t86 65h101v-59q-96 -30 -130 -124l-104 -284l70 -306q36 -157 74 -174q55 -25 180 50v-121z" />
<glyph unicode="&#x104e0;" horiz-adv-x="1383" d="M719 525q0 -57 -38 -95q-37 -38 -95 -38t-95 38q-38 38 -38 95q0 55 38 95q39 39 95 39q55 0 94 -39q39 -41 39 -95zM841 458l-63 294q-49 233 -186 235q-113 1 -202 -122q-73 -102 -73 -333q0 -219 73 -333q80 -123 213 -113q115 9 198 254zM1328 49q-203 -117 -346 5 q-32 28 -53.5 62t-29.5 75l-15 71l-40 -111q-32 -86 -126 -141q-62 -37 -172 -35q-197 2 -320 155q-124 155 -124 406q0 245 124 405q117 151 364 150q171 0 256 -67q76 -58 105 -188l8 -37l39 111q19 53 53 92t86 65h101v-59q-96 -30 -130 -124l-104 -284l70 -306 q36 -157 74 -174q55 -25 180 50v-121z" />
<glyph unicode="&#x104e1;" horiz-adv-x="1051" d="M946 295q0 -92 -38.5 -154t-100.5 -100t-139.5 -54t-155.5 -16q-104 0 -203 22.5t-194 65.5v248h106q2 -66 23.5 -111t59 -73t88.5 -40.5t112 -12.5q46 0 91.5 8t81.5 28.5t58.5 55.5t22.5 90q0 26 -18 66t-44.5 88.5t-58.5 104t-60 113t-48.5 114.5t-24 109t14 96.5 t64 77.5t127 52t203.5 19v-99q-97 0 -147 -21.5t-65.5 -58.5t-3.5 -86.5t39 -105.5t63.5 -115t69 -115t55 -106.5t22.5 -89.5z" />
<glyph unicode="&#x104e2;" horiz-adv-x="1051" d="M1038 832h-125v157q-97 0 -147 -21.5t-65.5 -58t-3.5 -85.5t39 -104.5t63.5 -114.5t69 -115t55 -106t22.5 -89q0 -92 -38.5 -154t-100.5 -100t-139.5 -54t-155.5 -16q-104 0 -203 22.5t-194 65.5v248h106q2 -66 23.5 -111t59 -73t88.5 -40.5t112 -12.5q46 0 91.5 8 t81.5 28.5t58.5 55.5t22.5 90q0 26 -17.5 66t-44.5 88.5t-59 104t-60 113t-48 114.5t-23.5 109t13.5 96.5t64 77.5t127.5 52t203.5 19l-1 170h125v-430z" />
<glyph unicode="&#x104e3;" horiz-adv-x="1198" d="M1131 0h-517v107h166l61 512q6 48 1.5 89t-16.5 74t-29.5 59t-38.5 44q-84 72 -221 72t-189 -72q-13 -18 -25 -44t-20 -59t-11 -74t3 -89l62 -512h166v-107h-455v107h166l-62 569q-11 107 23.5 186t94.5 130q116 100 309 100q192 0 310 -100q59 -51 93.5 -130t23.5 -186 l-61 -569h166v-107z" />
<glyph unicode="&#x104e4;" horiz-adv-x="1241" d="M1196 956h-182l-390 -360h155q198 0 275 -101q83 -110 83 -315v-284q0 -164 -99 -258q-98 -93 -268 -93q-141 0 -265 66v219h95q7 -97 49.5 -141.5t124.5 -44.5q84 0 134 62q44 53 44 190v226q0 98 -12.5 164.5t-35.5 101.5q-48 72 -185 72h-243l-56 -52v-302h166v-106 h-516v106h166v1345h-177v105h361v-1013l448 413h-153v107h481v-107z" />
<glyph unicode="&#x104e5;" horiz-adv-x="1280" d="M1196 956h-182l-390 -360h155q198 0 275 -101q83 -110 83 -315v-284q0 -164 -99 -258q-98 -93 -268 -93q-141 0 -265 66v219h95q7 -97 49.5 -141.5t124.5 -44.5q84 0 134 62q44 53 44 190v226q0 98 -12.5 164.5t-35.5 101.5q-48 72 -185 72h-243l-56 -52v-302h166v-106 h-516v106h166v1104h-186v122h186v119h-177v105h361v-224h316v-122h-316v-667l448 413h-153v107h481v-107z" />
<glyph unicode="&#x104e6;" horiz-adv-x="1241" d="M938 -216q-56 90 -218 90q-111 0 -111 -123q0 -95 165 -95q126 0 164 128zM1196 956h-182l-390 -360h155q198 0 275 -101q42 -55 63 -133.5t20 -181.5l-1 -284q-1 -57 -9 -103t-25 -83q43 -96 49 -164h-113l-17 75q-100 -76 -251 -76q-379 0 -379 199q0 230 260 230 q190 0 301 -60v208q0 98 -12.5 164.5t-35.5 101.5q-48 72 -185 72h-243l-56 -52v-302h166v-106h-516v106h166v1345h-177v105h361v-1013l448 413h-153v107h481v-107z" />
<glyph unicode="&#x104e7;" horiz-adv-x="1147" d="M1053 319q-39 -171 -149.5 -259.5t-287.5 -88.5q-138 0 -239.5 48t-165 127t-88.5 179.5t-9.5 206t72.5 206t156 179.5t241.5 127t329.5 48v-99q-141 0 -246.5 -39.5t-178 -104.5t-114 -148t-54 -169.5t1.5 -169.5t52.5 -148t100 -104.5t143.5 -39.5q120 0 190.5 61.5 t96.5 187.5h148z" />
<glyph unicode="&#x104e8;" horiz-adv-x="1613" d="M1164 555q-3 54 -13.5 105.5t-30.5 96.5t-50 82.5t-72 63.5q-95 -51 -148 -141.5t-65 -206.5q-6 -63 -4 -130.5t19.5 -125t54 -96.5t99.5 -44q44 -3 77 13t57 45.5t40 69.5t25 85t11 92t0 91zM1723 588h-113q-18 97 -46 166.5t-73 114t-111.5 65t-162.5 20.5h-5 q75 -73 106 -175.5t29 -223.5q-2 -92 -29 -182t-77 -160t-122.5 -112t-164.5 -38q-89 4 -154.5 48.5t-110 113.5t-67 155t-23.5 175q-1 63 13 120t40 107t63.5 93.5t84.5 78.5q-90 0 -160.5 -22.5t-119.5 -68t-75 -114t-26 -161.5v-365v-117h174v-106h-534v106h176v850h-176 v107h360v-193q32 63 71.5 104.5t87 66.5t103.5 35.5t121 10.5q124 0 217 -27q94 27 198 27q72 0 135 -14t123.5 -36t121 -50t126.5 -55v-344z" />
<glyph unicode="&#x104e9;" horiz-adv-x="1293" d="M1297 319q-39 -171 -149.5 -259.5t-287.5 -88.5q-232 0 -373 153q-101 110 -130 274l-123 -291h159v-107h-399v107h119l391 956h135l-8 -18q-19 -44 -37.5 -109t-32.5 -142t-20.5 -160.5t-1.5 -164t24 -153t57 -127t97.5 -87t144.5 -32.5q120 0 190.5 61.5t96.5 187.5 h148z" />
<glyph unicode="&#x104ea;" horiz-adv-x="1233" d="M915 532q0 229 -75 345t-224 116t-224 -116t-75 -345t75.5 -345.5t223.5 -116.5q149 0 224 116.5t75 345.5zM1130 532q0 -254 -141 -408q-140 -153 -373 -153q-232 0 -373 153q-141 154 -141 408q0 253 140 407q141 153 374 153t373 -153q141 -153 141 -407z" />
<glyph unicode="&#x104eb;" horiz-adv-x="1233" d="M750 532q0 -55 -38 -95q-38 -38 -95 -38q-59 0 -95 38q-38 38 -38 95t38 95q37 39 95 39q55 0 94 -39q39 -41 39 -95zM916 532q0 229 -75 345t-224 116t-224 -116t-75 -345t75 -345.5t224 -116.5q148 0 223.5 116.5t75.5 345.5zM1131 532q0 -252 -141 -408 q-141 -153 -373 -153q-234 0 -373 153q-141 153 -141 408t140 407q139 153 374 153q232 0 373 -153q141 -155 141 -407z" />
<glyph unicode="&#x104ec;" horiz-adv-x="1034" d="M59 0v106h176v850h-176v107h360v-250q73 83 206 83q134 0 222 -103q43 -51 63.5 -116t20.5 -145q0 -162 -84 -262q-86 -103 -222 -103q-133 0 -206 83v-250h-360zM756 532q0 136 -44.5 197.5t-123.5 61.5t-123 -53t-46 -163v-88q2 -111 46 -163t123 -52t123.5 62.5 t44.5 197.5z" />
<glyph unicode="&#x104ed;" horiz-adv-x="1034" d="M756 532q0 43 -6 89t-24 83.5t-51 62t-87 24.5q-47 0 -78 -16.5t-50.5 -44t-28.5 -64t-11 -75.5h205v-122h-205q2 -39 11.5 -74.5t29 -63t50.5 -43.5t77 -16q54 0 87 24.5t51 62.5t24 84t6 89zM931 532q0 -70 -19 -135.5t-57 -116.5t-95.5 -82t-134.5 -31q-60 0 -113 18 t-93 65v-250h-360v106h176v363h-176v122h176v365h-176v107h360v-250q40 47 93 65t113 18q77 0 134.5 -30.5t95.5 -81.5t57 -116.5t19 -135.5z" />
<glyph unicode="&#x104ee;" horiz-adv-x="1147" d="M1018 725h-107q-21 140 -91.5 204t-201.5 64q-82 0 -143.5 -39.5t-100 -104.5t-53 -148t-1.5 -169.5t54.5 -169.5t114 -148t178 -104.5t246.5 -39.5v-99q-187 0 -329.5 48t-241.5 127t-155.5 179.5t-72 206t9 206t88 179.5t165 127t239.5 48q202 0 402 -95v-272z" />
<glyph unicode="&#x104ef;" horiz-adv-x="1051" d="M1331 0h-366v107h114v214q0 84 -18.5 139.5t-57 89t-97 47.5t-138.5 14q-60 0 -132 -9l26 -8q75 -23 129 -52t88.5 -65.5t50.5 -81.5t16 -100q0 -151 -116 -238q-116 -86 -318 -86q-87 0 -156 14.5t-117.5 51.5t-74.5 99.5t-26 157.5q0 88 31.5 151.5t85.5 108.5 q-72 42 -105 96t-33 130q0 146 107 229t296 83q85 0 177 -22t192 -64v-232h-106q-4 103 -71.5 161t-185.5 58q-235 0 -235 -164q0 -68 45 -108q35 -32 128 -65q82 23 168 31t163 8q78 0 153 -18.5t133.5 -59t94.5 -103.5t36 -151v-256h119v-107zM353 510q-59 -36 -96 -89 t-37 -127q0 -61 23.5 -103.5t62.5 -69.5t90.5 -39t107.5 -12q125 0 189.5 46t64.5 136q0 69 -48 113q-23 22 -73 44t-127 48l-133 45z" />
<glyph unicode="&#x104f0;" horiz-adv-x="1199" d="M918 533q0 103 -24 179.5t-65.5 127t-95.5 75.5t-114 25h-11l-184 -834h124q96 0 166 28t115.5 82.5t67 134t21.5 182.5zM1113 532q0 -251 -172 -392q-172 -140 -445 -140h-423v106h167l184 834h-289v-166h-105v289h466q275 0 446 -141t171 -390z" />
<glyph unicode="&#x104f1;" horiz-adv-x="1199" d="M918 533q0 103 -24 179.5t-65.5 127t-95.5 75.5t-114 25h-11l-77 -349l112 1v-122h-139l-80 -364h124q96 0 166 28t115.5 82.5t67 134t21.5 182.5zM1113 532q0 -251 -172 -392q-172 -140 -445 -140h-423v106h167l80 364h-179v122l206 -1l77 349h-289v-166h-105v289h466 q275 0 446 -141t171 -390z" />
<glyph unicode="&#x104f2;" horiz-adv-x="1066" d="M508 406h62q124 0 180.5 69.5t56.5 209.5q0 67 -15 116.5t-40 82t-57.5 48.5t-67.5 18zM854 395q-30 -25 -75 -40t-96 -26q-51 -12 -107 -22.5t-110 -25.5t-101.5 -35t-82.5 -50t-55 -71.5t-20 -99.5q0 -83 56.5 -128t176.5 -45q63 0 108.5 13t75.5 41t45 72t17 106 l117 1v-270q-103 -40 -193.5 -58.5t-178.5 -18.5q-195 0 -298 80.5t-103 244.5q0 54 19 98t49 80t66.5 63.5t71 47.5t63 32t42.5 17l120 549h-163v-164h-105v289h341q197 0 321 -103q125 -105 125 -288q0 -184 -126 -289z" />
<glyph unicode="&#x104f3;" horiz-adv-x="1066" d="M582 745h73v-124h-100l-47 -215h62q124 0 180.5 69.5t56.5 209.5q0 69 -14.5 119.5t-39 82.5t-57.5 47.5t-69 15.5zM854 395q-30 -25 -75 -40t-96 -26q-51 -12 -107 -22.5t-110 -25.5t-101.5 -35t-82.5 -50t-55 -71.5t-20 -99.5q0 -83 56.5 -128t176.5 -45q63 0 108.5 13 t75.5 41t45 72t17 106l117 1v-270q-103 -40 -193.5 -58.5t-178.5 -18.5q-195 0 -298 80.5t-103 244.5q0 54 19 98t49 80t66.5 63.5t71 47.5t63 32t42.5 17l48 220h-119v124h146l45 205h-163v-164h-105v289h341q197 0 321 -103q125 -105 125 -288q0 -184 -126 -289z" />
<glyph unicode="&#x104f4;" horiz-adv-x="1181" d="M969 395q-30 -25 -75 -40t-96 -26q-51 -12 -107 -22.5t-110 -25.5q-41 -11 -78 -25t-68 -33t-55 -43t-38 -56h213v-124h-232q8 -71 64.5 -109.5t167.5 -38.5q63 0 108.5 13t75.5 41t45 72t17 106l117 1v-270q-103 -40 -193.5 -58.5t-178.5 -18.5q-176 0 -277 65t-120 197 h-119v124h122q16 65 58 114t90.5 83t92.5 53.5t63 26.5l120 549h-163v-164h-105v289h341q197 0 321 -103q125 -105 125 -288q0 -184 -126 -289zM623 406h62q124 0 180.5 69.5t56.5 209.5q0 69 -14.5 119.5t-39 82.5t-57.5 47.5t-69 15.5z" />
<glyph unicode="&#x104f5;" horiz-adv-x="1325" d="M1264 0h-395v106h103v296q0 125 -31 173q-31 46 -110 46q-80 0 -125 -55t-45 -161v-299h103v-106h-453v106h166v834h-289v-166h-105v289h972v-289h-105v166h-289v-371q67 141 209 141q57 0 109 -16t91.5 -49.5t63 -84.5t23.5 -121v-333h107v-106z" />
<glyph unicode="&#x104f6;" horiz-adv-x="1198" d="M1192 956h-166v-569q0 -216 -118 -316q-116 -100 -309 -100q-192 0 -310 100q-117 100 -117 316v569h-166v107h517v-107h-166v-512q0 -194 83 -266q84 -72 221 -72q136 0 189 72q53 73 53 266v512h-166v107h455v-107z" />
<glyph unicode="&#x104f7;" horiz-adv-x="811" d="M741 640l-184 -534h166v-106h-516v106h166l141 410h-444l184 441h-166v106h516v-106h-166l-131 -317h434z" />
<glyph unicode="&#x104f8;" horiz-adv-x="1606" d="M1477 0h-101q-111 95 -165 194q-64 115 -64 343q0 191 -55 297q-67 133 -195 130v-1283h175v-107h-535v107h175v1283q-130 3 -197 -130q-55 -106 -55 -297q0 -214 -64 -343q-44 -90 -165 -194h-101v59q53 38 90 149q37 107 37 329q0 162 23 223q38 100 110 172 q76 74 142 102q87 36 180 36v380h-176v106h361v-486q91 0 178 -36q66 -28 142 -102q72 -72 110 -172q23 -61 23 -223q0 -225 37 -329q41 -113 90 -149v-59z" />
<glyph unicode="&#x104f9;" horiz-adv-x="1606" d="M1477 1004q-49 -36 -90 -149q-37 -104 -37 -329q0 -162 -23 -223q-38 -100 -110 -172q-76 -74 -142 -102q-87 -36 -178 -36v-312h175v-107h-535v107h175v312q-93 0 -180 36q-66 28 -142 102q-72 72 -110 172q-23 61 -23 223q0 222 -37 329q-37 111 -90 149v59h101 q121 -104 165 -194q64 -129 64 -343q0 -191 55 -297q67 -133 197 -130v1351h-176v106h361v-1457q128 -3 195 130q55 106 55 297q0 228 64 343q54 99 165 194h101v-59z" />
<glyph unicode="&#x104fa;" horiz-adv-x="1079" d="M985 977l-666 -871h137v-106h-456v106h97l651 850h-527v-184h-106v291h870v-86z" />
<glyph unicode="&#x104fb;" horiz-adv-x="1079" d="M846 0q-26 126 -96.5 187.5t-190.5 61.5q-107 0 -175 -58l-65 -85h-1q-24 -46 -38 -106h-1h-197v86l666 870h-527v-184h-106v291h870v-86l-483 -631q14 1 27.5 1.5t27.5 0.5q177 0 287.5 -88.5t149.5 -259.5h-148z" />
</font>
</defs>
</svg>
