<?xml version="1.0" standalone="no"?>
<!DOCTYPE svg PUBLIC "-//W3C//DTD SVG 1.1//EN" "http://www.w3.org/Graphics/SVG/1.1/DTD/svg11.dtd" >
<svg xmlns="http://www.w3.org/2000/svg">
<metadata></metadata>
<defs>
<font id="barnsdallitalic" horiz-adv-x="1479" >
<font-face units-per-em="2048" ascent="1556" descent="-492" />
<missing-glyph horiz-adv-x="651" />
<glyph unicode="&#x104b0;&#x358;" d="M1499 0h-543l22 106h166l-195 1145l-683 -1145h164l-22 -106h-420l22 106h131l827 1387h168l238 -1387h147zM1610 1399q-6 -29 -21 -53t-37 -42t-48.5 -28t-54.5 -10q-58 0 -87 38q-30 38 -18 95q12 56 58 94q46 39 103 39q28 0 50.5 -10t36.5 -28t19 -42.5t-1 -52.5z " />
<glyph unicode="&#x104b3;&#x358;" horiz-adv-x="1352" d="M1370 0h-555l22 107h174l-244 604l-502 -604h168l-22 -107h-434l23 107h140l603 724l118 556h-191l23 106h584l-23 -106h-191l-114 -537l303 -743h140zM1616 1399q-6 -29 -21 -53t-37 -42t-48.5 -28t-54.5 -10q-58 0 -87 38q-30 38 -18 95q12 56 58 94q46 39 103 39 q28 0 50.5 -10t36.5 -28t19 -42.5t-1 -52.5z" />
<glyph unicode="&#x104bb;&#x358;" horiz-adv-x="1726" d="M1470 0h-584l22 107h191l327 772q30 70 38.5 130.5t4 111t-19 90t-31.5 67.5q-71 113 -299 113t-346 -113q-30 -28 -61.5 -67.5t-57.5 -90t-43 -111t-17 -130.5l-2 -772h191l-22 -107h-504l22 107h190l7 792q0 83 21.5 155.5t55 133.5t75 109.5t81.5 83.5 q160 141 475 141t418 -142q26 -36 47 -84.5t29 -109t-1.5 -132.5t-43.5 -155l-332 -792h191zM1976 1399q-6 -29 -21 -53t-37 -42t-48.5 -28t-54.5 -10q-58 0 -87 38q-30 38 -18 95q12 56 58 94q46 39 103 39q28 0 50.5 -10t36.5 -28t19 -42.5t-1 -52.5z" />
<glyph unicode="&#x104c2;&#x358;" horiz-adv-x="1679" d="M1493 745q70 331 -19 499.5t-334 168.5q-246 0 -407 -168.5t-231 -499.5q-71 -330 18.5 -498.5t335.5 -168.5q247 0 406.5 167.5t230.5 499.5zM1723 745q-38 -179 -123.5 -322.5t-221.5 -254.5q-239 -197 -545 -197q-153 0 -269 50t-193 147q-88 112 -112 253.5t14 323.5 t122.5 324t221.5 254q239 197 546 197q324 0 479 -213q154 -213 81 -562zM1976 1399q-6 -29 -21 -53t-37 -42t-48.5 -28t-54.5 -10q-58 0 -87 38q-30 38 -18 95q12 56 58 94q46 39 103 39q28 0 50.5 -10t36.5 -28t19 -42.5t-1 -52.5z" />
<glyph unicode="&#x104d8;&#x358;" horiz-adv-x="1157" d="M1151 0h-489l22 107h170l-143 731l-455 -731h159l-22 -107h-399l22 107h119l594 956h135l188 -956h121zM1338 969q-6 -29 -21 -53t-37 -42t-48.5 -28t-54.5 -10q-56 0 -87 38q-29 38 -18 95q12 56 58 94q48 39 104 39q28 0 50.5 -10t36.5 -28t18.5 -42.5t-1.5 -52.5z" />
<glyph unicode="&#x104db;&#x358;" horiz-adv-x="1157" d="M1115 0h-489l22 107h170l-143 731l-455 -731h159l-22 -107h-399l23 107h118l545 881l-17 93l-32 177q-9 46 -27.5 76t-31.5 46q-29 31 -82 31q-60 0 -94.5 -29t-55.5 -98h-94l44 203q54 15 104 23t98 8q28 0 66 -3t75 -8.5t67.5 -14t43.5 -19.5q51 -45 75 -170l233 -1196 h121zM1338 1399q-6 -29 -21 -53t-37 -42t-48.5 -28t-54.5 -10q-58 0 -87 38q-22 26 -22 63q0 8 1 16t3 16q12 56 58 94q46 39 103 39q50 0 79 -28.5t29 -74.5q0 -15 -3 -30z" />
<glyph unicode="&#x104e3;&#x358;" horiz-adv-x="1249" d="M1131 0h-517l22 107h166l170 512q16 48 20 89t-0.5 74t-17 59t-28.5 44q-69 72 -206 72t-204 -72q-17 -18 -35 -44t-33 -59t-26.5 -74t-15.5 -89l-47 -512h166l-22 -107h-455l22 107h166l59 569q6 53 22.5 99.5t41 86.5t55.5 72.5t66 57.5q139 100 331 100t288 -100 q24 -25 41 -57.5t24.5 -72.5t4.5 -86.5t-20 -99.5l-182 -569h166zM1511 969q-6 -29 -21 -53t-37 -42t-48.5 -28t-54.5 -10q-56 0 -87 38q-29 38 -18 95q12 56 58 94q48 39 104 39q28 0 50.5 -10t36.5 -28t18.5 -42.5t-1.5 -52.5z" />
<glyph unicode="&#x104ea;&#x358;" horiz-adv-x="1278" d="M1028 532q48 229 -2 345t-199 116t-249 -116t-148 -345q-49 -229 1.5 -345.5t198.5 -116.5q149 0 249 116.5t149 345.5zM1243 532q-54 -254 -228 -408q-173 -153 -406 -153q-232 0 -340 153q-108 154 -54 408q54 255 226 407q174 153 407 153t340 -153q109 -154 55 -407z M1530 969q-6 -29 -21 -53t-37 -42t-48.5 -28t-54.5 -10q-56 0 -87 38q-29 38 -18 95q12 56 58 94q48 39 104 39q28 0 50.5 -10t36.5 -28t18.5 -42.5t-1.5 -52.5z" />
<glyph unicode="&#x104b0;&#x304;" d="M1499 0h-543l22 106h166l-195 1145l-683 -1145h164l-22 -106h-420l22 106h131l827 1387h168l238 -1387h147zM775 1694l31 148h598l-31 -148h-598z" />
<glyph unicode="&#xe000;&#x304;" d="M1499 0h-543l22 106h166l-195 1145l-683 -1145h164l-22 -106h-420l22 106h131l827 1387h168l238 -1387h147zM1610 1399q-6 -29 -21 -53t-37 -42t-48.5 -28t-54.5 -10q-58 0 -87 38q-30 38 -18 95q12 56 58 94q46 39 103 39q28 0 50.5 -10t36.5 -28t19 -42.5t-1 -52.5z M775 1694l31 148h598l-31 -148h-598z" />
<glyph unicode="&#x104b1;&#x304;" d="M729 0h-107l96 455h107zM1499 0h-543l22 106h166l-195 1145l-683 -1145h164l-22 -106h-420l22 106h131l827 1387h168l238 -1387h147zM775 1694l31 148h598l-31 -148h-598z" />
<glyph unicode="&#x104b2;&#x304;" d="M920 488q-12 -57 -58 -95t-103 -38t-87 38q-30 41 -18 95q12 55 58 95q48 39 104 39t85 -39q31 -39 19 -95zM1499 0h-543l22 106h166l-195 1145l-683 -1145h164l-22 -106h-420l22 106h131l827 1387h168l238 -1387h147zM775 1694l31 148h598l-31 -148h-598z" />
<glyph unicode="&#x104b3;&#x304;" horiz-adv-x="1352" d="M1370 0h-555l22 107h174l-244 604l-502 -604h168l-22 -107h-434l23 107h140l603 724l118 556h-191l23 106h584l-23 -106h-191l-114 -537l303 -743h140zM726 1694l31 148h598l-31 -148h-598z" />
<glyph unicode="&#xe001;&#x304;" horiz-adv-x="1352" d="M1370 0h-555l22 107h174l-244 604l-502 -604h168l-22 -107h-434l23 107h140l603 724l118 556h-191l23 106h584l-23 -106h-191l-114 -537l303 -743h140zM726 1694l31 148h598l-31 -148h-598zM1616 1399q-6 -29 -21 -53t-37 -42t-48.5 -28t-54.5 -10q-58 0 -87 38 q-30 38 -18 95q12 56 58 94q46 39 103 39q28 0 50.5 -10t36.5 -28t19 -42.5t-1 -52.5z" />
<glyph unicode="&#x104b7;&#x304;" horiz-adv-x="1464" d="M1098 1099q2 26 0.5 59t-7.5 67t-17 66t-29 57t-43.5 40.5t-59.5 15.5q-68 0 -124.5 -36.5t-102 -95.5t-81 -132.5t-61 -147t-43 -140.5t-26.5 -112q-10 -46 -21 -113.5t-16.5 -142.5t-2 -149.5t23 -134.5t57.5 -97t103 -37q44 0 88 34.5t86 89.5t80.5 122t71 133 t57.5 122.5t41 89.5zM1454 73q-50 -32 -105.5 -55.5t-110.5 -23.5q-54 0 -94 25t-65.5 64.5t-37 88.5t-8.5 97l5 98q-40 -80 -78.5 -152t-88 -126t-117.5 -86t-166 -32q-94 0 -158 37t-104.5 98.5t-59.5 142t-22.5 166.5t5 171.5t24.5 158.5q18 86 47 176.5t71 175.5 t97 160.5t125.5 132t157.5 89t192 32.5q106 0 170 -27.5t97 -79.5t41.5 -127t4.5 -169q25 54 49.5 106t54.5 100t70 90t97 74h109l-18 -81q-62 -23 -105 -68.5t-72 -103.5l-195 -391l-27 -484q-1 -15 -2.5 -39t-1.5 -51.5t2.5 -55.5t9.5 -51t19.5 -37.5t33.5 -14.5 q20 0 43.5 8t47 19.5t46 25t40.5 25.5zM775 1694l31 148h598l-31 -148h-598z" />
<glyph unicode="&#x104b8;&#x304;" horiz-adv-x="1464" d="M915 740q-6 -29 -21 -53t-37 -42t-48.5 -28t-54.5 -10q-58 0 -87 38q-16 19 -20 43t2 52q12 57 58 94q46 39 103 39q28 0 50.5 -10t36.5 -28t19 -42.5t-1 -52.5zM1098 1099q2 26 0.5 59t-7.5 67t-17 66t-29 57t-43.5 40.5t-59.5 15.5q-68 0 -124.5 -36.5t-102 -95.5 t-81 -132.5t-61 -147t-43 -140.5t-26.5 -112q-10 -46 -21 -113.5t-16.5 -142.5t-2 -149.5t23 -134.5t57.5 -97t103 -37q44 0 88 34.5t86 89.5t80.5 122t71 133t57.5 122.5t41 89.5zM1454 73q-50 -32 -105.5 -55.5t-110.5 -23.5q-54 0 -94 25t-65.5 64.5t-37 88.5t-8.5 97 l5 98q-40 -80 -78.5 -152t-88 -126t-117.5 -86t-166 -32q-94 0 -158 37t-104.5 98.5t-59.5 142t-22.5 166.5t5 171.5t24.5 158.5q18 86 47 176.5t71 175.5t97 160.5t125.5 132t157.5 89t192 32.5q106 0 170 -27.5t97 -79.5t41.5 -127t4.5 -169q25 54 49.5 106t54.5 100 t70 90t97 74h109l-18 -81q-62 -23 -105 -68.5t-72 -103.5l-195 -391l-27 -484q-1 -15 -2.5 -39t-1.5 -51.5t2.5 -55.5t9.5 -51t19.5 -37.5t33.5 -14.5q20 0 43.5 8t47 19.5t46 25t40.5 25.5zM775 1694l31 148h598l-31 -148h-598z" />
<glyph unicode="&#x104bb;&#x304;" horiz-adv-x="1726" d="M1470 0h-584l22 107h191l327 772q30 70 38.5 130.5t4 111t-19 90t-31.5 67.5q-71 113 -299 113t-346 -113q-30 -28 -61.5 -67.5t-57.5 -90t-43 -111t-17 -130.5l-2 -772h191l-22 -107h-504l22 107h190l7 792q0 83 21.5 155.5t55 133.5t75 109.5t81.5 83.5 q160 141 475 141t418 -142q26 -36 47 -84.5t29 -109t-1.5 -132.5t-43.5 -155l-332 -792h191zM775 1694l31 148h598l-31 -148h-598z" />
<glyph unicode="&#xe002;&#x304;" horiz-adv-x="1726" d="M1470 0h-584l22 107h191l327 772q30 70 38.5 130.5t4 111t-19 90t-31.5 67.5q-71 113 -299 113t-346 -113q-30 -28 -61.5 -67.5t-57.5 -90t-43 -111t-17 -130.5l-2 -772h191l-22 -107h-504l22 107h190l7 792q0 83 21.5 155.5t55 133.5t75 109.5t81.5 83.5 q160 141 475 141t418 -142q26 -36 47 -84.5t29 -109t-1.5 -132.5t-43.5 -155l-332 -792h191zM1976 1399q-6 -29 -21 -53t-37 -42t-48.5 -28t-54.5 -10q-58 0 -87 38q-30 38 -18 95q12 56 58 94q46 39 103 39q28 0 50.5 -10t36.5 -28t19 -42.5t-1 -52.5zM775 1694l31 148h598 l-31 -148h-598z" />
<glyph unicode="&#x104c2;&#x304;" horiz-adv-x="1679" d="M1493 745q70 331 -19 499.5t-334 168.5q-246 0 -407 -168.5t-231 -499.5q-71 -330 18.5 -498.5t335.5 -168.5q247 0 406.5 167.5t230.5 499.5zM1723 745q-38 -179 -123.5 -322.5t-221.5 -254.5q-239 -197 -545 -197q-153 0 -269 50t-193 147q-88 112 -112 253.5t14 323.5 t122.5 324t221.5 254q239 197 546 197q324 0 479 -213q154 -213 81 -562zM775 1694l31 148h598l-31 -148h-598z" />
<glyph unicode="&#xe003;&#x304;" horiz-adv-x="1679" d="M1493 745q70 331 -19 499.5t-334 168.5q-246 0 -407 -168.5t-231 -499.5q-71 -330 18.5 -498.5t335.5 -168.5q247 0 406.5 167.5t230.5 499.5zM1723 745q-38 -179 -123.5 -322.5t-221.5 -254.5q-239 -197 -545 -197q-153 0 -269 50t-193 147q-88 112 -112 253.5t14 323.5 t122.5 324t221.5 254q239 197 546 197q324 0 479 -213q154 -213 81 -562zM1976 1399q-6 -29 -21 -53t-37 -42t-48.5 -28t-54.5 -10q-58 0 -87 38q-30 38 -18 95q12 56 58 94q46 39 103 39q28 0 50.5 -10t36.5 -28t19 -42.5t-1 -52.5zM775 1694l31 148h598l-31 -148h-598z " />
<glyph unicode="&#x104c3;&#x304;" horiz-adv-x="1679" d="M1130 745q-6 -29 -21 -53t-37 -42t-48.5 -28t-54.5 -10q-58 0 -87 38q-30 38 -18 95q12 56 58 94q46 39 103 39q28 0 50.5 -10t36.5 -28t19 -42.5t-1 -52.5zM1493 745q70 331 -19.5 499.5t-333.5 168.5q-248 0 -407.5 -167.5t-230.5 -500.5q-71 -332 17.5 -499.5 t336.5 -167.5q246 0 406 167.5t231 499.5zM1723 745q-76 -356 -345 -577q-241 -197 -545 -197q-153 0 -269 50t-193 147q-89 112 -112.5 253.5t14.5 323.5t122.5 324t221.5 254q238 197 546 197q324 0 479 -213q154 -213 81 -562zM775 1694l31 148h598l-31 -148h-598z" />
<glyph unicode="&#x104ce;&#x304;" horiz-adv-x="1726" d="M1928 1386h-190l-168 -792q-72 -339 -234 -482q-161 -141 -475 -141q-315 0 -417 142q-103 142 -31 481l168 792h-191l23 107h584l-23 -107h-191l-164 -772q-61 -286 8 -399q71 -113 299 -113t346 113q117 111 179 399l164 772h-191l23 107h504zM775 1694l31 148h598 l-31 -148h-598z" />
<glyph unicode="&#x104d8;&#x304;" horiz-adv-x="1157" d="M1151 0h-489l22 107h170l-143 731l-455 -731h159l-22 -107h-399l22 107h119l594 956h135l188 -956h121zM600 1379l31 148h598l-31 -148h-598z" />
<glyph unicode="&#xe004;&#x304;" horiz-adv-x="1157" d="M1151 0h-489l22 107h170l-143 731l-455 -731h159l-22 -107h-399l22 107h119l594 956h135l188 -956h121zM1338 969q-6 -29 -21 -53t-37 -42t-48.5 -28t-54.5 -10q-56 0 -87 38q-29 38 -18 95q12 56 58 94q48 39 104 39q28 0 50.5 -10t36.5 -28t18.5 -42.5t-1.5 -52.5z M600 1379l31 148h598l-31 -148h-598z" />
<glyph unicode="&#x104d9;&#x304;" horiz-adv-x="1157" d="M1151 0h-433l22 107h114l-143 731l-455 -731h106l-22 -107h-346l22 107h119l594 956h135l188 -956h121zM600 1379l31 148h598l-31 -148h-598zM583 0h-107l96 455h107z" />
<glyph unicode="&#x104da;&#x304;" horiz-adv-x="1157" d="M1151 0h-433l22 107h114l-143 731l-455 -731h106l-22 -107h-346l22 107h119l594 956h135l188 -956h121zM600 1379l31 148h598l-31 -148h-598zM733 319q-12 -57 -58 -95t-103 -38t-87 38q-30 41 -18 95q12 55 58 95q48 39 104 39t85 -39q31 -39 19 -95z" />
<glyph unicode="&#x104db;&#x304;" horiz-adv-x="1157" d="M1115 0h-489l22 107h170l-143 731l-455 -731h159l-22 -107h-399l23 107h118l547 881l-19 93l-32 177q-9 46 -27.5 76t-31.5 46q-29 31 -82 31q-60 0 -94.5 -29t-55.5 -98h-94l44 203q54 15 104 23t98 8q28 0 66 -3t75 -8.5t67.5 -14t43.5 -20.5q53 -45 75 -169l233 -1196 h121zM433 1694l31 148h598l-31 -148h-598z" />
<glyph unicode="&#xe005;&#x304;" horiz-adv-x="1157" d="M1115 0h-489l22 107h170l-143 731l-455 -731h159l-22 -107h-399l23 107h118l547 881l-19 93l-32 177q-9 46 -27.5 76t-31.5 46q-29 31 -82 31q-60 0 -94.5 -29t-55.5 -98h-94l44 203q54 15 104 23t98 8q28 0 66 -3t75 -8.5t67.5 -14t43.5 -20.5q53 -45 75 -169l233 -1196 h121zM433 1694l31 148h598l-31 -148h-598zM1338 1399q-6 -29 -21 -53t-37 -42t-48.5 -28t-54.5 -10q-58 0 -87 38q-22 26 -22 63q0 8 1 16t3 16q12 56 58 94q46 39 103 39q50 0 79 -28.5t29 -74.5q0 -15 -3 -30z" />
<glyph unicode="&#x104df;&#x304;" horiz-adv-x="1383" d="M938 458l-1 294q1 233 -136 235q-112 1 -228 -122q-94 -101 -143 -333q-24 -111 -23 -193.5t25 -139.5q53 -123 189 -113q117 9 252 254zM1338 49q-228 -117 -345 5q-54 57 -54 137v71l-63 -111q-51 -86 -156 -141q-70 -37 -180 -35q-197 2 -287 155q-91 155 -38 406 q53 245 211 405q149 152 395 150q172 0 242 -67q63 -58 65 -188v-37l63 111q60 106 172 157h101l-12 -59q-102 -30 -157 -124l-164 -284l5 -306q3 -158 37 -174q49 -25 191 50zM600 1379l31 148h598l-31 -148h-598z" />
<glyph unicode="&#x104e0;&#x304;" horiz-adv-x="1383" d="M830 525q-12 -57 -58 -95q-45 -38 -103 -38q-59 0 -87 38q-30 38 -18 95q12 55 58 95q48 39 104 39q55 0 85 -39q31 -40 19 -95zM938 458l-1 294q1 233 -136 235q-112 1 -228 -122q-94 -101 -143 -333q-24 -111 -23 -193.5t25 -139.5q53 -123 189 -113q117 9 252 254z M1338 49q-228 -117 -345 5q-54 57 -54 137v71l-63 -111q-51 -86 -156 -141q-70 -37 -180 -35q-197 2 -287 155q-91 155 -38 406q53 245 211 405q149 152 395 150q172 0 242 -67q63 -58 65 -188v-37l63 111q60 106 172 157h101l-12 -59q-102 -30 -157 -124l-164 -284l5 -306 q3 -158 37 -174q49 -25 191 50zM600 1379l31 148h598l-31 -148h-598z" />
<glyph unicode="&#x104e3;&#x304;" horiz-adv-x="1198" d="M1131 0h-517l22 107h166l170 512q16 48 20 89t-0.5 74t-17 59t-28.5 44q-69 72 -206 72t-204 -72q-17 -18 -35 -44t-33 -59t-26.5 -74t-15.5 -89l-47 -512h166l-22 -107h-455l22 107h166l59 569q6 53 22.5 99.5t41 86.5t55.5 72.5t66 57.5q139 100 331 100t288 -100 q24 -25 41 -57.5t24.5 -72.5t4.5 -86.5t-20 -99.5l-182 -569h166zM600 1379l31 148h598l-31 -148h-598z" />
<glyph unicode="&#xe006;&#x304;" horiz-adv-x="1249" d="M1131 0h-517l22 107h166l170 512q16 48 20 89t-0.5 74t-17 59t-28.5 44q-69 72 -206 72t-204 -72q-17 -18 -35 -44t-33 -59t-26.5 -74t-15.5 -89l-47 -512h166l-22 -107h-455l22 107h166l59 569q6 53 22.5 99.5t41 86.5t55.5 72.5t66 57.5q139 100 331 100t288 -100 q24 -25 41 -57.5t24.5 -72.5t4.5 -86.5t-20 -99.5l-182 -569h166zM1511 969q-6 -29 -21 -53t-37 -42t-48.5 -28t-54.5 -10q-56 0 -87 38q-29 38 -18 95q12 56 58 94q48 39 104 39q28 0 50.5 -10t36.5 -28t18.5 -42.5t-1.5 -52.5zM600 1379l31 148h598l-31 -148h-598z" />
<glyph unicode="&#x104ea;&#x304;" horiz-adv-x="1233" d="M1028 532q48 229 -2 345t-199 116t-249 -116t-148 -345q-49 -229 1.5 -345.5t198.5 -116.5q149 0 249 116.5t149 345.5zM1243 532q-54 -254 -228 -408q-173 -153 -406 -153q-232 0 -340 153q-108 154 -54 408q54 255 226 407q174 153 407 153t340 -153q109 -154 55 -407z M600 1379l31 148h598l-31 -148h-598z" />
<glyph unicode="&#xe007;&#x304;" horiz-adv-x="1278" d="M1028 532q48 229 -2 345t-199 116t-249 -116t-148 -345q-49 -229 1.5 -345.5t198.5 -116.5q149 0 249 116.5t149 345.5zM1243 532q-54 -254 -228 -408q-173 -153 -406 -153q-232 0 -340 153q-108 154 -54 408q54 255 226 407q174 153 407 153t340 -153q109 -154 55 -407z M1530 969q-6 -29 -21 -53t-37 -42t-48.5 -28t-54.5 -10q-56 0 -87 38q-29 38 -18 95q12 56 58 94q48 39 104 39q28 0 50.5 -10t36.5 -28t18.5 -42.5t-1.5 -52.5zM600 1379l31 148h598l-31 -148h-598z" />
<glyph unicode="&#x104eb;&#x304;" horiz-adv-x="1233" d="M863 532q-12 -56 -59 -95q-46 -38 -103 -38q-58 0 -87 38t-17 95q11 57 58 95q45 39 103 39q54 0 86 -39q29 -40 19 -95zM1029 532q48 229 -2 345t-199 116t-249 -116t-148 -345q-49 -229 1 -345.5t199 -116.5q148 0 248.5 116.5t149.5 345.5zM1244 532 q-54 -252 -228 -408q-174 -153 -406 -153q-234 0 -340 153q-108 153 -54 408q27 128 82.5 229t143.5 178q172 153 407 153q232 0 340 -153q54 -77 68 -178t-13 -229zM600 1379l31 148h598l-31 -148h-598z" />
<glyph unicode="&#x104f6;&#x304;" horiz-adv-x="1198" d="M1395 956h-166l-121 -569q-47 -217 -185 -316q-139 -100 -331 -100t-288 100q-97 101 -50 316l121 569h-166l22 107h517l-22 -107h-166l-109 -512q-21 -97 -14 -163.5t40 -102.5q69 -72 206 -72q136 0 204 72q68 71 110 266l109 512h-166l22 107h455zM600 1379l31 148 h598l-31 -148h-598z" />
<glyph unicode="&#x104b0;&#x301;" d="M1521 106h-147l-238 1387h-168l-827 -1387h-131l-22 -106h420l22 106h-164l683 1145l195 -1145h-166l-22 -106h543zM1214 1899h197l-318 -264h-117z" />
<glyph unicode="&#xe000;&#x301;" d="M1521 106h-147l-238 1387h-168l-827 -1387h-131l-22 -106h420l22 106h-164l683 1145l195 -1145h-166l-22 -106h543zM1610 1399q6 28 1 52.5t-19 42.5t-36.5 28t-50.5 10q-57 0 -103 -39q-46 -38 -58 -94q-12 -57 18 -95q29 -38 87 -38q28 0 54.5 10t48.5 28t37 42t21 53z M1214 1899h197l-318 -264h-117z" />
<glyph unicode="&#x104b1;&#x301;" d="M825 455h-107l-96 -455h107zM1521 106h-147l-238 1387h-168l-827 -1387h-131l-22 -106h420l22 106h-164l683 1145l195 -1145h-166l-22 -106h543zM1214 1899h197l-318 -264h-117z" />
<glyph unicode="&#x104b2;&#x301;" d="M920 488q12 56 -19 95q-29 39 -85 39t-104 -39q-46 -40 -58 -95q-12 -54 18 -95q30 -38 87 -38t103 38t58 95zM1521 106h-147l-238 1387h-168l-827 -1387h-131l-22 -106h420l22 106h-164l683 1145l195 -1145h-166l-22 -106h543zM1214 1899h197l-318 -264h-117z" />
<glyph unicode="&#x104b3;&#x301;" horiz-adv-x="1352" d="M1392 107h-140l-303 743l114 537h191l23 106h-584l-23 -106h191l-118 -556l-603 -724h-140l-23 -107h434l22 107h-168l502 604l244 -604h-174l-22 -107h555zM1214 1899h197l-318 -264h-117z" />
<glyph unicode="&#xe001;&#x301;" horiz-adv-x="1352" d="M1392 107h-140l-303 743l114 537h191l23 106h-584l-23 -106h191l-118 -556l-603 -724h-140l-23 -107h434l22 107h-168l502 604l244 -604h-174l-22 -107h555zM1214 1899h197l-318 -264h-117zM1616 1399q6 28 1 52.5t-19 42.5t-36.5 28t-50.5 10q-57 0 -103 -39 q-46 -38 -58 -94q-12 -57 18 -95q29 -38 87 -38q28 0 54.5 10t48.5 28t37 42t21 53z" />
<glyph unicode="&#x104b7;&#x301;" horiz-adv-x="1464" d="M1072 657q-16 -33 -41 -89.5t-57.5 -122.5t-71 -133t-80.5 -122t-86 -89.5t-88 -34.5q-65 0 -103 37t-57.5 97t-23 134.5t2 149.5t16.5 142.5t21 113.5q9 45 26.5 112t43 140.5t61 147t81 132.5t102 95.5t124.5 36.5q34 0 59.5 -15.5t43.5 -40.5t29 -57t17 -66t7.5 -67 t-0.5 -59zM1477 179q-18 -12 -40.5 -25.5t-46 -25t-47 -19.5t-43.5 -8q-21 0 -33.5 14.5t-19.5 37.5t-9.5 51t-2.5 55.5t1.5 51.5t2.5 39l27 484l195 391q29 58 72 103.5t105 68.5l18 81h-109q-57 -32 -97 -74t-70 -90t-54.5 -100t-49.5 -106q4 94 -4.5 169t-41.5 127 t-97 79.5t-170 27.5q-105 0 -192 -32.5t-157.5 -89t-125.5 -132t-97 -160.5t-71 -175.5t-47 -176.5q-16 -73 -24.5 -158.5t-5 -171.5t22.5 -166.5t59.5 -142t104.5 -98.5t158 -37q98 0 166 32t117.5 86t88 126t78.5 152l-5 -98q-3 -48 8.5 -97t37 -88.5t65.5 -64.5t94 -25 q55 0 110.5 23.5t105.5 55.5zM1214 1899h197l-318 -264h-117z" />
<glyph unicode="&#x104b8;&#x301;" horiz-adv-x="1464" d="M915 740q6 28 1 52.5t-19 42.5t-36.5 28t-50.5 10q-57 0 -103 -39q-46 -37 -58 -94q-6 -28 -2 -52t20 -43q29 -38 87 -38q28 0 54.5 10t48.5 28t37 42t21 53zM1072 657q-16 -33 -41 -89.5t-57.5 -122.5t-71 -133t-80.5 -122t-86 -89.5t-88 -34.5q-65 0 -103 37t-57.5 97 t-23 134.5t2 149.5t16.5 142.5t21 113.5q9 45 26.5 112t43 140.5t61 147t81 132.5t102 95.5t124.5 36.5q34 0 59.5 -15.5t43.5 -40.5t29 -57t17 -66t7.5 -67t-0.5 -59zM1477 179q-18 -12 -40.5 -25.5t-46 -25t-47 -19.5t-43.5 -8q-21 0 -33.5 14.5t-19.5 37.5t-9.5 51 t-2.5 55.5t1.5 51.5t2.5 39l27 484l195 391q29 58 72 103.5t105 68.5l18 81h-109q-57 -32 -97 -74t-70 -90t-54.5 -100t-49.5 -106q4 94 -4.5 169t-41.5 127t-97 79.5t-170 27.5q-105 0 -192 -32.5t-157.5 -89t-125.5 -132t-97 -160.5t-71 -175.5t-47 -176.5 q-16 -73 -24.5 -158.5t-5 -171.5t22.5 -166.5t59.5 -142t104.5 -98.5t158 -37q98 0 166 32t117.5 86t88 126t78.5 152l-5 -98q-3 -48 8.5 -97t37 -88.5t65.5 -64.5t94 -25q55 0 110.5 23.5t105.5 55.5zM1214 1899h197l-318 -264h-117z" />
<glyph unicode="&#x104bb;&#x301;" horiz-adv-x="1726" d="M1492 107h-191l332 792q34 83 43.5 155t1.5 132.5t-29 109t-47 84.5q-103 142 -418 142t-475 -141q-40 -35 -81.5 -83.5t-75 -109.5t-55 -133.5t-21.5 -155.5l-7 -792h-190l-22 -107h504l22 107h-191l2 772q0 70 17 130.5t43 111t57.5 90t61.5 67.5q118 113 346 113 t299 -113q17 -28 31.5 -67.5t19 -90t-4 -111t-38.5 -130.5l-327 -772h-191l-22 -107h584zM1214 1899h197l-318 -264h-117z" />
<glyph unicode="&#xe002;&#x301;" horiz-adv-x="1726" d="M1492 107h-191l332 792q34 83 43.5 155t1.5 132.5t-29 109t-47 84.5q-103 142 -418 142t-475 -141q-40 -35 -81.5 -83.5t-75 -109.5t-55 -133.5t-21.5 -155.5l-7 -792h-190l-22 -107h504l22 107h-191l2 772q0 70 17 130.5t43 111t57.5 90t61.5 67.5q118 113 346 113 t299 -113q17 -28 31.5 -67.5t19 -90t-4 -111t-38.5 -130.5l-327 -772h-191l-22 -107h584zM1976 1399q6 28 1 52.5t-19 42.5t-36.5 28t-50.5 10q-57 0 -103 -39q-46 -38 -58 -94q-12 -57 18 -95q29 -38 87 -38q28 0 54.5 10t48.5 28t37 42t21 53zM1214 1899h197l-318 -264 h-117z" />
<glyph unicode="&#x104c2;&#x301;" horiz-adv-x="1679" d="M1493 745q-71 -332 -230.5 -499.5t-406.5 -167.5q-246 0 -335.5 168.5t-18.5 498.5q70 331 231 499.5t407 168.5q245 0 334 -168.5t19 -499.5zM1723 745q73 349 -81 562q-155 213 -479 213q-307 0 -546 -197q-137 -112 -221.5 -254t-122.5 -324t-14 -323.5t112 -253.5 q77 -97 193 -147t269 -50q306 0 545 197q136 111 221.5 254.5t123.5 322.5zM1214 1899h197l-318 -264h-117z" />
<glyph unicode="&#xe003;&#x301;" horiz-adv-x="1679" d="M1493 745q-71 -332 -230.5 -499.5t-406.5 -167.5q-246 0 -335.5 168.5t-18.5 498.5q70 331 231 499.5t407 168.5q245 0 334 -168.5t19 -499.5zM1723 745q73 349 -81 562q-155 213 -479 213q-307 0 -546 -197q-137 -112 -221.5 -254t-122.5 -324t-14 -323.5t112 -253.5 q77 -97 193 -147t269 -50q306 0 545 197q136 111 221.5 254.5t123.5 322.5zM1976 1399q6 28 1 52.5t-19 42.5t-36.5 28t-50.5 10q-57 0 -103 -39q-46 -38 -58 -94q-12 -57 18 -95q29 -38 87 -38q28 0 54.5 10t48.5 28t37 42t21 53zM1214 1899h197l-318 -264h-117z" />
<glyph unicode="&#x104c3;&#x301;" horiz-adv-x="1679" d="M1130 745q6 28 1 52.5t-19 42.5t-36.5 28t-50.5 10q-57 0 -103 -39q-46 -38 -58 -94q-12 -57 18 -95q29 -38 87 -38q28 0 54.5 10t48.5 28t37 42t21 53zM1493 745q-71 -332 -231 -499.5t-406 -167.5q-248 0 -336.5 167.5t-17.5 499.5q71 333 230.5 500.5t407.5 167.5 q244 0 333.5 -168.5t19.5 -499.5zM1723 745q73 349 -81 562q-155 213 -479 213q-308 0 -546 -197q-137 -112 -221.5 -254t-122.5 -324t-14.5 -323.5t112.5 -253.5q77 -97 193 -147t269 -50q304 0 545 197q269 221 345 577zM1214 1899h197l-318 -264h-117z" />
<glyph unicode="&#x104ce;&#x301;" horiz-adv-x="1726" d="M1951 1493h-504l-23 -107h191l-164 -772q-62 -288 -179 -399q-118 -113 -346 -113t-299 113q-69 113 -8 399l164 772h191l23 107h-584l-23 -107h191l-168 -792q-72 -339 31 -481q102 -142 417 -142q314 0 475 141q162 143 234 482l168 792h190zM1214 1899h197l-318 -264 h-117z" />
<glyph unicode="&#x104d8;&#x301;" horiz-adv-x="1157" d="M1151 0h-489l22 107h170l-143 731l-455 -731h159l-22 -107h-399l22 107h119l594 956h135l188 -956h121zM755 1262l338 376h199l-420 -376h-117z" />
<glyph unicode="&#xe004;&#x301;" horiz-adv-x="1157" d="M1151 0h-489l22 107h170l-143 731l-455 -731h159l-22 -107h-399l22 107h119l594 956h135l188 -956h121zM1338 969q-6 -29 -21 -53t-37 -42t-48.5 -28t-54.5 -10q-56 0 -87 38q-29 38 -18 95q12 56 58 94q48 39 104 39q28 0 50.5 -10t36.5 -28t18.5 -42.5t-1.5 -52.5z M755 1262l338 376h199l-420 -376h-117z" />
<glyph unicode="&#x104d9;&#x301;" horiz-adv-x="1157" d="M1151 0h-433l22 107h114l-143 731l-455 -731h106l-22 -107h-346l22 107h119l594 956h135l188 -956h121zM755 1262l338 376h199l-420 -376h-117zM583 0h-107l96 455h107z" />
<glyph unicode="&#x104da;&#x301;" horiz-adv-x="1157" d="M1151 0h-433l22 107h114l-143 731l-455 -731h106l-22 -107h-346l22 107h119l594 956h135l188 -956h121zM755 1262l338 376h199l-420 -376h-117zM733 319q-12 -57 -58 -95t-103 -38t-87 38q-30 41 -18 95q12 55 58 95q48 39 104 39t85 -39q31 -39 19 -95z" />
<glyph unicode="&#x104db;&#x301;" horiz-adv-x="1157" d="M1137 107h-121l-233 1196q-22 124 -75 169q-13 12 -43.5 20.5t-67.5 14t-75 8.5t-66 3q-48 0 -98 -8t-104 -23l-44 -203h94q21 69 55.5 98t94.5 29q53 0 82 -31q13 -16 31.5 -46t27.5 -76l32 -177l19 -93l-547 -881h-118l-23 -107h399l22 107h-159l455 731l143 -731h-170 l-22 -107h489zM872 1899h197l-318 -264h-117z" />
<glyph unicode="&#xe005;&#x301;" horiz-adv-x="1157" d="M1137 107h-121l-233 1196q-22 124 -75 169q-13 12 -43.5 20.5t-67.5 14t-75 8.5t-66 3q-48 0 -98 -8t-104 -23l-44 -203h94q21 69 55.5 98t94.5 29q53 0 82 -31q13 -16 31.5 -46t27.5 -76l32 -177l19 -93l-547 -881h-118l-23 -107h399l22 107h-159l455 731l143 -731h-170 l-22 -107h489zM872 1899h197l-318 -264h-117zM1338 1399q3 15 3 30q0 46 -29 74.5t-79 28.5q-57 0 -103 -39q-46 -38 -58 -94q-2 -8 -3 -16t-1 -16q0 -37 22 -63q29 -38 87 -38q28 0 54.5 10t48.5 28t37 42t21 53z" />
<glyph unicode="&#x104df;&#x301;" horiz-adv-x="1383" d="M938 458l-1 294q1 233 -136 235q-112 1 -228 -122q-94 -101 -143 -333q-24 -111 -23 -193.5t25 -139.5q53 -123 189 -113q117 9 252 254zM1338 49q-228 -117 -345 5q-54 57 -54 137v71l-63 -111q-51 -86 -156 -141q-70 -37 -180 -35q-197 2 -287 155q-91 155 -38 406 q53 245 211 405q149 152 395 150q172 0 242 -67q63 -58 65 -188v-37l63 111q60 106 172 157h101l-12 -59q-102 -30 -157 -124l-164 -284l5 -306q3 -158 37 -174q49 -25 191 50zM755 1262l338 376h199l-420 -376h-117z" />
<glyph unicode="&#x104e0;&#x301;" horiz-adv-x="1383" d="M830 525q-12 -57 -58 -95q-45 -38 -103 -38q-59 0 -87 38q-30 38 -18 95q12 55 58 95q48 39 104 39q55 0 85 -39q31 -40 19 -95zM938 458l-1 294q1 233 -136 235q-112 1 -228 -122q-94 -101 -143 -333q-24 -111 -23 -193.5t25 -139.5q53 -123 189 -113q117 9 252 254z M1338 49q-228 -117 -345 5q-54 57 -54 137v71l-63 -111q-51 -86 -156 -141q-70 -37 -180 -35q-197 2 -287 155q-91 155 -38 406q53 245 211 405q149 152 395 150q172 0 242 -67q63 -58 65 -188v-37l63 111q60 106 172 157h101l-12 -59q-102 -30 -157 -124l-164 -284l5 -306 q3 -158 37 -174q49 -25 191 50zM755 1262l338 376h199l-420 -376h-117z" />
<glyph unicode="&#x104e3;&#x301;" horiz-adv-x="1198" d="M1131 0h-517l22 107h166l170 512q16 48 20 89t-0.5 74t-17 59t-28.5 44q-69 72 -206 72t-204 -72q-17 -18 -35 -44t-33 -59t-26.5 -74t-15.5 -89l-47 -512h166l-22 -107h-455l22 107h166l59 569q6 53 22.5 99.5t41 86.5t55.5 72.5t66 57.5q139 100 331 100t288 -100 q24 -25 41 -57.5t24.5 -72.5t4.5 -86.5t-20 -99.5l-182 -569h166zM755 1262l338 376h199l-420 -376h-117z" />
<glyph unicode="&#xe006;&#x301;" horiz-adv-x="1249" d="M1131 0h-517l22 107h166l170 512q16 48 20 89t-0.5 74t-17 59t-28.5 44q-69 72 -206 72t-204 -72q-17 -18 -35 -44t-33 -59t-26.5 -74t-15.5 -89l-47 -512h166l-22 -107h-455l22 107h166l59 569q6 53 22.5 99.5t41 86.5t55.5 72.5t66 57.5q139 100 331 100t288 -100 q24 -25 41 -57.5t24.5 -72.5t4.5 -86.5t-20 -99.5l-182 -569h166zM1511 969q-6 -29 -21 -53t-37 -42t-48.5 -28t-54.5 -10q-56 0 -87 38q-29 38 -18 95q12 56 58 94q48 39 104 39q28 0 50.5 -10t36.5 -28t18.5 -42.5t-1.5 -52.5zM755 1262l338 376h199l-420 -376h-117z" />
<glyph unicode="&#x104ea;&#x301;" horiz-adv-x="1233" d="M1028 532q48 229 -2 345t-199 116t-249 -116t-148 -345q-49 -229 1.5 -345.5t198.5 -116.5q149 0 249 116.5t149 345.5zM1243 532q-54 -254 -228 -408q-173 -153 -406 -153q-232 0 -340 153q-108 154 -54 408q54 255 226 407q174 153 407 153t340 -153q109 -154 55 -407z M755 1262l338 376h199l-420 -376h-117z" />
<glyph unicode="&#xe007;&#x301;" horiz-adv-x="1278" d="M1028 532q48 229 -2 345t-199 116t-249 -116t-148 -345q-49 -229 1.5 -345.5t198.5 -116.5q149 0 249 116.5t149 345.5zM1243 532q-54 -254 -228 -408q-173 -153 -406 -153q-232 0 -340 153q-108 154 -54 408q54 255 226 407q174 153 407 153t340 -153q109 -154 55 -407z M1530 969q-6 -29 -21 -53t-37 -42t-48.5 -28t-54.5 -10q-56 0 -87 38q-29 38 -18 95q12 56 58 94q48 39 104 39q28 0 50.5 -10t36.5 -28t18.5 -42.5t-1.5 -52.5zM755 1262l338 376h199l-420 -376h-117z" />
<glyph unicode="&#x104eb;&#x301;" horiz-adv-x="1233" d="M863 532q-12 -56 -59 -95q-46 -38 -103 -38q-58 0 -87 38t-17 95q11 57 58 95q45 39 103 39q54 0 86 -39q29 -40 19 -95zM1029 532q48 229 -2 345t-199 116t-249 -116t-148 -345q-49 -229 1 -345.5t199 -116.5q148 0 248.5 116.5t149.5 345.5zM1244 532 q-54 -252 -228 -408q-174 -153 -406 -153q-234 0 -340 153q-108 153 -54 408q27 128 82.5 229t143.5 178q172 153 407 153q232 0 340 -153q54 -77 68 -178t-13 -229zM755 1262l338 376h199l-420 -376h-117z" />
<glyph unicode="&#x104f6;&#x301;" horiz-adv-x="1198" d="M1395 956h-166l-121 -569q-47 -217 -185 -316q-139 -100 -331 -100t-288 100q-97 101 -50 316l121 569h-166l22 107h517l-22 -107h-166l-109 -512q-21 -97 -14 -163.5t40 -102.5q69 -72 206 -72q136 0 204 72q68 71 110 266l109 512h-166l22 107h455zM755 1262l338 376 h199l-420 -376h-117z" />
<glyph unicode="&#x104b0;&#x30b;" d="M1521 106h-147l-238 1387h-168l-827 -1387h-131l-22 -106h420l22 106h-164l683 1145l195 -1145h-166l-22 -106h543zM1474 1899h197l-318 -264h-117zM1157 1899h197l-318 -264h-117z" />
<glyph unicode="&#xe000;&#x30b;" d="M1521 106h-147l-238 1387h-168l-827 -1387h-131l-22 -106h420l22 106h-164l683 1145l195 -1145h-166l-22 -106h543zM1610 1399q6 28 1 52.5t-19 42.5t-36.5 28t-50.5 10q-57 0 -103 -39q-46 -38 -58 -94q-12 -57 18 -95q29 -38 87 -38q28 0 54.5 10t48.5 28t37 42t21 53z M1474 1899h197l-318 -264h-117zM1157 1899h197l-318 -264h-117z" />
<glyph unicode="&#x104b1;&#x30b;" d="M825 455h-107l-96 -455h107zM1521 106h-147l-238 1387h-168l-827 -1387h-131l-22 -106h420l22 106h-164l683 1145l195 -1145h-166l-22 -106h543zM1474 1899h197l-318 -264h-117zM1157 1899h197l-318 -264h-117z" />
<glyph unicode="&#x104b2;&#x30b;" d="M920 488q12 56 -19 95q-29 39 -85 39t-104 -39q-46 -40 -58 -95q-12 -54 18 -95q30 -38 87 -38t103 38t58 95zM1521 106h-147l-238 1387h-168l-827 -1387h-131l-22 -106h420l22 106h-164l683 1145l195 -1145h-166l-22 -106h543zM1474 1899h197l-318 -264h-117zM1157 1899 h197l-318 -264h-117z" />
<glyph unicode="&#x104b3;&#x30b;" horiz-adv-x="1352" d="M1392 107h-140l-303 743l114 537h191l23 106h-584l-23 -106h191l-118 -556l-603 -724h-140l-23 -107h434l22 107h-168l502 604l244 -604h-174l-22 -107h555zM1360 1899h197l-318 -264h-117zM1043 1899h197l-318 -264h-117z" />
<glyph unicode="&#xe001;&#x30b;" horiz-adv-x="1352" d="M1392 107h-140l-303 743l114 537h191l23 106h-584l-23 -106h191l-118 -556l-603 -724h-140l-23 -107h434l22 107h-168l502 604l244 -604h-174l-22 -107h555zM1360 1899h197l-318 -264h-117zM1043 1899h197l-318 -264h-117zM1616 1399q6 28 1 52.5t-19 42.5t-36.5 28 t-50.5 10q-57 0 -103 -39q-46 -38 -58 -94q-12 -57 18 -95q29 -38 87 -38q28 0 54.5 10t48.5 28t37 42t21 53z" />
<glyph unicode="&#x104b7;&#x30b;" horiz-adv-x="1464" d="M1072 657q-16 -33 -41 -89.5t-57.5 -122.5t-71 -133t-80.5 -122t-86 -89.5t-88 -34.5q-65 0 -103 37t-57.5 97t-23 134.5t2 149.5t16.5 142.5t21 113.5q9 45 26.5 112t43 140.5t61 147t81 132.5t102 95.5t124.5 36.5q34 0 59.5 -15.5t43.5 -40.5t29 -57t17 -66t7.5 -67 t-0.5 -59zM1477 179q-18 -12 -40.5 -25.5t-46 -25t-47 -19.5t-43.5 -8q-21 0 -33.5 14.5t-19.5 37.5t-9.5 51t-2.5 55.5t1.5 51.5t2.5 39l27 484l195 391q29 58 72 103.5t105 68.5l18 81h-109q-57 -32 -97 -74t-70 -90t-54.5 -100t-49.5 -106q4 94 -4.5 169t-41.5 127 t-97 79.5t-170 27.5q-105 0 -192 -32.5t-157.5 -89t-125.5 -132t-97 -160.5t-71 -175.5t-47 -176.5q-16 -73 -24.5 -158.5t-5 -171.5t22.5 -166.5t59.5 -142t104.5 -98.5t158 -37q98 0 166 32t117.5 86t88 126t78.5 152l-5 -98q-3 -48 8.5 -97t37 -88.5t65.5 -64.5t94 -25 q55 0 110.5 23.5t105.5 55.5zM1474 1899h197l-318 -264h-117zM1157 1899h197l-318 -264h-117z" />
<glyph unicode="&#x104b8;&#x30b;" horiz-adv-x="1464" d="M915 740q6 28 1 52.5t-19 42.5t-36.5 28t-50.5 10q-57 0 -103 -39q-46 -37 -58 -94q-6 -28 -2 -52t20 -43q29 -38 87 -38q28 0 54.5 10t48.5 28t37 42t21 53zM1072 657q-16 -33 -41 -89.5t-57.5 -122.5t-71 -133t-80.5 -122t-86 -89.5t-88 -34.5q-65 0 -103 37t-57.5 97 t-23 134.5t2 149.5t16.5 142.5t21 113.5q9 45 26.5 112t43 140.5t61 147t81 132.5t102 95.5t124.5 36.5q34 0 59.5 -15.5t43.5 -40.5t29 -57t17 -66t7.5 -67t-0.5 -59zM1477 179q-18 -12 -40.5 -25.5t-46 -25t-47 -19.5t-43.5 -8q-21 0 -33.5 14.5t-19.5 37.5t-9.5 51 t-2.5 55.5t1.5 51.5t2.5 39l27 484l195 391q29 58 72 103.5t105 68.5l18 81h-109q-57 -32 -97 -74t-70 -90t-54.5 -100t-49.5 -106q4 94 -4.5 169t-41.5 127t-97 79.5t-170 27.5q-105 0 -192 -32.5t-157.5 -89t-125.5 -132t-97 -160.5t-71 -175.5t-47 -176.5 q-16 -73 -24.5 -158.5t-5 -171.5t22.5 -166.5t59.5 -142t104.5 -98.5t158 -37q98 0 166 32t117.5 86t88 126t78.5 152l-5 -98q-3 -48 8.5 -97t37 -88.5t65.5 -64.5t94 -25q55 0 110.5 23.5t105.5 55.5zM1474 1899h197l-318 -264h-117zM1157 1899h197l-318 -264h-117z" />
<glyph unicode="&#x104bb;&#x30b;" horiz-adv-x="1726" d="M1492 107h-191l332 792q34 83 43.5 155t1.5 132.5t-29 109t-47 84.5q-103 142 -418 142t-475 -141q-40 -35 -81.5 -83.5t-75 -109.5t-55 -133.5t-21.5 -155.5l-7 -792h-190l-22 -107h504l22 107h-191l2 772q0 70 17 130.5t43 111t57.5 90t61.5 67.5q118 113 346 113 t299 -113q17 -28 31.5 -67.5t19 -90t-4 -111t-38.5 -130.5l-327 -772h-191l-22 -107h584zM1474 1899h197l-318 -264h-117zM1157 1899h197l-318 -264h-117z" />
<glyph unicode="&#xe002;&#x30b;" horiz-adv-x="1726" d="M1492 107h-191l332 792q34 83 43.5 155t1.5 132.5t-29 109t-47 84.5q-103 142 -418 142t-475 -141q-40 -35 -81.5 -83.5t-75 -109.5t-55 -133.5t-21.5 -155.5l-7 -792h-190l-22 -107h504l22 107h-191l2 772q0 70 17 130.5t43 111t57.5 90t61.5 67.5q118 113 346 113 t299 -113q17 -28 31.5 -67.5t19 -90t-4 -111t-38.5 -130.5l-327 -772h-191l-22 -107h584zM1976 1399q6 28 1 52.5t-19 42.5t-36.5 28t-50.5 10q-57 0 -103 -39q-46 -38 -58 -94q-12 -57 18 -95q29 -38 87 -38q28 0 54.5 10t48.5 28t37 42t21 53zM1474 1899h197l-318 -264 h-117zM1157 1899h197l-318 -264h-117z" />
<glyph unicode="&#x104c2;&#x30b;" horiz-adv-x="1679" d="M1493 745q-71 -332 -230.5 -499.5t-406.5 -167.5q-246 0 -335.5 168.5t-18.5 498.5q70 331 231 499.5t407 168.5q245 0 334 -168.5t19 -499.5zM1723 745q73 349 -81 562q-155 213 -479 213q-307 0 -546 -197q-137 -112 -221.5 -254t-122.5 -324t-14 -323.5t112 -253.5 q77 -97 193 -147t269 -50q306 0 545 197q136 111 221.5 254.5t123.5 322.5zM1474 1899h197l-318 -264h-117zM1157 1899h197l-318 -264h-117z" />
<glyph unicode="&#xe003;&#x30b;" horiz-adv-x="1679" d="M1493 745q-71 -332 -230.5 -499.5t-406.5 -167.5q-246 0 -335.5 168.5t-18.5 498.5q70 331 231 499.5t407 168.5q245 0 334 -168.5t19 -499.5zM1723 745q73 349 -81 562q-155 213 -479 213q-307 0 -546 -197q-137 -112 -221.5 -254t-122.5 -324t-14 -323.5t112 -253.5 q77 -97 193 -147t269 -50q306 0 545 197q136 111 221.5 254.5t123.5 322.5zM1976 1399q6 28 1 52.5t-19 42.5t-36.5 28t-50.5 10q-57 0 -103 -39q-46 -38 -58 -94q-12 -57 18 -95q29 -38 87 -38q28 0 54.5 10t48.5 28t37 42t21 53zM1474 1899h197l-318 -264h-117zM1157 1899 h197l-318 -264h-117z" />
<glyph unicode="&#x104c3;&#x30b;" horiz-adv-x="1679" d="M1130 745q6 28 1 52.5t-19 42.5t-36.5 28t-50.5 10q-57 0 -103 -39q-46 -38 -58 -94q-12 -57 18 -95q29 -38 87 -38q28 0 54.5 10t48.5 28t37 42t21 53zM1493 745q-71 -332 -231 -499.5t-406 -167.5q-248 0 -336.5 167.5t-17.5 499.5q71 333 230.5 500.5t407.5 167.5 q244 0 333.5 -168.5t19.5 -499.5zM1723 745q73 349 -81 562q-155 213 -479 213q-308 0 -546 -197q-137 -112 -221.5 -254t-122.5 -324t-14.5 -323.5t112.5 -253.5q77 -97 193 -147t269 -50q304 0 545 197q269 221 345 577zM1474 1899h197l-318 -264h-117zM1157 1899h197 l-318 -264h-117z" />
<glyph unicode="&#x104ce;&#x30b;" horiz-adv-x="1726" d="M1951 1493h-504l-23 -107h191l-164 -772q-62 -288 -179 -399q-118 -113 -346 -113t-299 113q-69 113 -8 399l164 772h191l23 107h-584l-23 -107h191l-168 -792q-72 -339 31 -481q102 -142 417 -142q314 0 475 141q162 143 234 482l168 792h190zM1474 1899h197l-318 -264 h-117zM1157 1899h197l-318 -264h-117z" />
<glyph unicode="&#x104d8;&#x30b;" horiz-adv-x="1157" d="M1173 107h-121l-188 956h-135l-594 -956h-119l-22 -107h399l22 107h-159l455 731l143 -731h-170l-22 -107h489zM948 1638h170l-324 -376h-114zM1278 1638h178l-367 -376h-116z" />
<glyph unicode="&#xe004;&#x30b;" horiz-adv-x="1157" d="M1173 107h-121l-188 956h-135l-594 -956h-119l-22 -107h399l22 107h-159l455 731l143 -731h-170l-22 -107h489zM1338 969q6 28 1.5 52.5t-18.5 42.5t-36.5 28t-50.5 10q-56 0 -104 -39q-46 -38 -58 -94q-11 -57 18 -95q31 -38 87 -38q28 0 54.5 10t48.5 28t37 42t21 53z M948 1638h170l-324 -376h-114zM1278 1638h178l-367 -376h-116z" />
<glyph unicode="&#x104d9;&#x30b;" horiz-adv-x="1157" d="M1173 107h-121l-188 956h-135l-594 -956h-119l-22 -107h346l22 107h-106l455 731l143 -731h-114l-22 -107h433zM948 1638h170l-324 -376h-114zM1278 1638h178l-367 -376h-116zM679 455h-107l-96 -455h107z" />
<glyph unicode="&#x104da;&#x30b;" horiz-adv-x="1157" d="M1173 107h-121l-188 956h-135l-594 -956h-119l-22 -107h346l22 107h-106l455 731l143 -731h-114l-22 -107h433zM948 1638h170l-324 -376h-114zM1278 1638h178l-367 -376h-116zM733 319q12 56 -19 95q-29 39 -85 39t-104 -39q-46 -40 -58 -95q-12 -54 18 -95 q30 -38 87 -38t103 38t58 95z" />
<glyph unicode="&#x104db;&#x30b;" horiz-adv-x="1157" d="M1137 107h-121l-233 1196q-22 124 -75 169q-13 12 -43.5 20.5t-67.5 14t-75 8.5t-66 3q-48 0 -98 -8t-104 -23l-44 -203h94q21 69 55.5 98t94.5 29q53 0 82 -31q13 -16 31.5 -46t27.5 -76l32 -177l19 -93l-547 -881h-118l-23 -107h399l22 107h-159l455 731l143 -731h-170 l-22 -107h489zM886 1899h197l-318 -264h-117zM569 1899h197l-318 -264h-117z" />
<glyph unicode="&#xe005;&#x30b;" horiz-adv-x="1157" d="M1137 107h-121l-233 1196q-22 124 -75 169q-13 12 -43.5 20.5t-67.5 14t-75 8.5t-66 3q-48 0 -98 -8t-104 -23l-44 -203h94q21 69 55.5 98t94.5 29q53 0 82 -31q13 -16 31.5 -46t27.5 -76l32 -177l19 -93l-547 -881h-118l-23 -107h399l22 107h-159l455 731l143 -731h-170 l-22 -107h489zM886 1899h197l-318 -264h-117zM569 1899h197l-318 -264h-117zM1338 1399q3 15 3 30q0 46 -29 74.5t-79 28.5q-57 0 -103 -39q-46 -38 -58 -94q-2 -8 -3 -16t-1 -16q0 -37 22 -63q29 -38 87 -38q28 0 54.5 10t48.5 28t37 42t21 53z" />
<glyph unicode="&#x104df;&#x30b;" horiz-adv-x="1383" d="M873 340q-135 -245 -252 -254q-136 -10 -189 113q-24 57 -25 139.5t23 193.5q49 232 143 333q116 123 228 122q137 -2 136 -235l1 -294zM1364 170q-142 -75 -191 -50q-34 16 -37 174l-5 306l164 284q55 94 157 124l12 59h-101q-112 -51 -172 -157l-63 -111v37 q-2 130 -65 188q-70 67 -242 67q-246 2 -395 -150q-158 -160 -211 -405q-53 -251 38 -406q90 -153 287 -155q110 -2 180 35q105 55 156 141l63 111v-71q0 -80 54 -137q117 -122 345 -5zM948 1638h170l-324 -376h-114zM1278 1638h178l-367 -376h-116z" />
<glyph unicode="&#x104e0;&#x30b;" horiz-adv-x="1383" d="M830 525q12 55 -19 95q-30 39 -85 39q-56 0 -104 -39q-46 -40 -58 -95q-12 -57 18 -95q28 -38 87 -38q58 0 103 38q46 38 58 95zM873 340q-135 -245 -252 -254q-136 -10 -189 113q-24 57 -25 139.5t23 193.5q49 232 143 333q116 123 228 122q137 -2 136 -235l1 -294z M1364 170q-142 -75 -191 -50q-34 16 -37 174l-5 306l164 284q55 94 157 124l12 59h-101q-112 -51 -172 -157l-63 -111v37q-2 130 -65 188q-70 67 -242 67q-246 2 -395 -150q-158 -160 -211 -405q-53 -251 38 -406q90 -153 287 -155q110 -2 180 35q105 55 156 141l63 111v-71 q0 -80 54 -137q117 -122 345 -5zM948 1638h170l-324 -376h-114zM1278 1638h178l-367 -376h-116z" />
<glyph unicode="&#x104e3;&#x30b;" horiz-adv-x="1198" d="M1153 107h-166l182 569q17 53 20 99.5t-4.5 86.5t-24.5 72.5t-41 57.5q-96 100 -288 100t-331 -100q-35 -25 -66 -57.5t-55.5 -72.5t-41 -86.5t-22.5 -99.5l-59 -569h-166l-22 -107h455l22 107h-166l47 512q4 48 15.5 89t26.5 74t33 59t35 44q67 72 204 72t206 -72 q16 -18 28.5 -44t17 -59t0.5 -74t-20 -89l-170 -512h-166l-22 -107h517zM948 1638h170l-324 -376h-114zM1278 1638h178l-367 -376h-116z" />
<glyph unicode="&#xe006;&#x30b;" horiz-adv-x="1249" d="M1153 107h-166l182 569q17 53 20 99.5t-4.5 86.5t-24.5 72.5t-41 57.5q-96 100 -288 100t-331 -100q-35 -25 -66 -57.5t-55.5 -72.5t-41 -86.5t-22.5 -99.5l-59 -569h-166l-22 -107h455l22 107h-166l47 512q4 48 15.5 89t26.5 74t33 59t35 44q67 72 204 72t206 -72 q16 -18 28.5 -44t17 -59t0.5 -74t-20 -89l-170 -512h-166l-22 -107h517zM1511 969q6 28 1.5 52.5t-18.5 42.5t-36.5 28t-50.5 10q-56 0 -104 -39q-46 -38 -58 -94q-11 -57 18 -95q31 -38 87 -38q28 0 54.5 10t48.5 28t37 42t21 53zM948 1638h170l-324 -376h-114zM1278 1638 h178l-367 -376h-116z" />
<glyph unicode="&#x104ea;&#x30b;" horiz-adv-x="1233" d="M1028 532q-49 -229 -149 -345.5t-249 -116.5q-148 0 -198.5 116.5t-1.5 345.5q48 229 148 345t249 116t199 -116t2 -345zM1243 532q54 253 -55 407q-107 153 -340 153t-407 -153q-172 -152 -226 -407q-54 -254 54 -408q108 -153 340 -153q233 0 406 153q174 154 228 408z M948 1638h170l-324 -376h-114zM1278 1638h178l-367 -376h-116z" />
<glyph unicode="&#xe007;&#x30b;" horiz-adv-x="1278" d="M1028 532q-49 -229 -149 -345.5t-249 -116.5q-148 0 -198.5 116.5t-1.5 345.5q48 229 148 345t249 116t199 -116t2 -345zM1243 532q54 253 -55 407q-107 153 -340 153t-407 -153q-172 -152 -226 -407q-54 -254 54 -408q108 -153 340 -153q233 0 406 153q174 154 228 408z M1530 969q6 28 1.5 52.5t-18.5 42.5t-36.5 28t-50.5 10q-56 0 -104 -39q-46 -38 -58 -94q-11 -57 18 -95q31 -38 87 -38q28 0 54.5 10t48.5 28t37 42t21 53zM948 1638h170l-324 -376h-114zM1278 1638h178l-367 -376h-116z" />
<glyph unicode="&#x104eb;&#x30b;" horiz-adv-x="1233" d="M863 532q10 55 -19 95q-32 39 -86 39q-58 0 -103 -39q-47 -38 -58 -95q-12 -57 17 -95t87 -38q57 0 103 38q47 39 59 95zM1029 532q-49 -229 -149.5 -345.5t-248.5 -116.5q-149 0 -199 116.5t-1 345.5q48 229 148 345t249 116t199 -116t2 -345zM1244 532q27 128 13 229 t-68 178q-108 153 -340 153q-235 0 -407 -153q-88 -77 -143.5 -178t-82.5 -229q-54 -255 54 -408q106 -153 340 -153q232 0 406 153q174 156 228 408zM948 1638h170l-324 -376h-114zM1278 1638h178l-367 -376h-116z" />
<glyph unicode="&#x104f6;&#x30b;" horiz-adv-x="1198" d="M1417 1063h-455l-22 -107h166l-109 -512q-42 -195 -110 -266q-68 -72 -204 -72q-137 0 -206 72q-33 36 -40 102.5t14 163.5l109 512h166l22 107h-517l-22 -107h166l-121 -569q-47 -215 50 -316q96 -100 288 -100t331 100q138 99 185 316l121 569h166zM948 1638h170 l-324 -376h-114zM1278 1638h178l-367 -376h-116z" />
<glyph unicode="A&#x304;&#x301;" d="M1221 2000h197l-319 -264h-117zM798 1705h598l-32 -148h-598zM1072 541h-548l425 710zM430 106h-164l195 328h628l55 -328h-166l-22 -106h543l22 106h-147l-238 1387h-168l-827 -1387h-131l-22 -106h420z" />
<glyph unicode="a&#x304;&#x301;" horiz-adv-x="1221" d="M540 1378l32 148h598l-32 -148h-598zM933 559h-237q-138 0 -217 -58.5t-105 -181.5q-23 -112 31 -176q54 -65 170 -65q114 0 200 71t110 185zM1021 106h164l-22 -106h-348l24 115q-77 -75 -164 -109.5t-195 -34.5q-177 0 -261 94q-83 95 -50 254q36 164 174 256 q137 91 355 91h258l16 73q25 121 -34 187.5t-192 66.5q-111 0 -186.5 -49.5t-112.5 -148.5h-95l46 215q209 82 381 82q221 0 313 -109.5t48 -318.5zM817 1556l338 376h199l-420 -376h-117z" />
<glyph unicode="E&#x304;&#x301;" horiz-adv-x="1495" d="M778 1705h598l-32 -148h-598zM1221 2000h197l-319 -264h-117zM1401 332h-123l-44 -209h-702l132 625h489l-39 -187h123l105 496h-123l-40 -187h-489l107 500h686l-45 -209h123l71 332h-1202l-23 -107h190l-272 -1280h-190l-22 -106h1218z" />
<glyph unicode="e&#x304;&#x301;" horiz-adv-x="1212" d="M600 1379l31 148h598l-31 -148h-598zM425 512l-1 -8q-46 -217 11 -325.5t216 -108.5q121 0 212 63t149 189h148q-164 -351 -549 -351q-234 0 -342 153t-54 408q52 251 225 406q172 154 398 154q242 0 338.5 -148t41.5 -432h-793zM1024 618q34 187 -18 281t-189 94 q-128 0 -221 -94.5t-148 -280.5h576zM817 1556l338 376h199l-420 -376h-117z" />
<glyph unicode="I&#x304;&#x301;" horiz-adv-x="809" d="M468 1705h598l-32 -148h-598zM892 2000h197l-319 -264h-117zM990 1386l23 107h-583l-23 -107h190l-272 -1280h-190l-22 -106h583l22 106h-190l272 1280h190z" />
<glyph unicode="i&#x304;&#x301;" horiz-adv-x="655" d="M456 106h174l-22 -106h-534l22 106h176l181 850h-176l22 107h360zM247 1378l32 148h598l-32 -148h-598zM474 1556l338 376h199l-420 -376h-117z" />
<glyph unicode="O&#x304;&#x301;" horiz-adv-x="1679" d="M902 1705h598l-32 -148h-598zM1324 2000h197l-319 -264h-117zM856 78q-246 0 -335.5 168.5t-18.5 498.5q70 331 231 499.5t407 168.5q245 0 334 -168.5t19 -499.5q-71 -332 -230.5 -499.5t-406.5 -167.5zM833 -29q306 0 545 197q136 111 221.5 254.5t123.5 322.5 q73 349 -81 562q-155 213 -479 213q-307 0 -546 -197q-137 -112 -221.5 -254t-122.5 -324t-14 -323.5t112 -253.5q77 -97 193 -147t269 -50z" />
<glyph unicode="o&#x304;&#x301;" horiz-adv-x="1233" d="M609 1378l32 148h598l-32 -148h-598zM630 70q149 0 249 116.5t149 345.5q48 229 -2 345t-199 116t-249 -116t-148 -345q-49 -229 1.5 -345.5t198.5 -116.5zM609 -29q-232 0 -340 153q-108 154 -54 408q54 255 226 407q174 153 407 153t340 -153q109 -154 55 -407 q-54 -254 -228 -408q-173 -153 -406 -153zM817 1556l338 376h199l-420 -376h-117z" />
<glyph unicode="U&#x304;&#x301;" horiz-adv-x="1726" d="M928 1705h598l-32 -148h-598zM1351 2000h197l-319 -264h-117zM413 594q-72 -339 31 -481q102 -142 417 -142q314 0 475 141q162 143 234 482l168 792h190l23 107h-504l-23 -107h191l-164 -772q-62 -288 -179 -399q-118 -113 -346 -113t-299 113q-69 113 -8 399l164 772 h191l23 107h-584l-23 -107h191z" />
<glyph unicode="u&#x304;&#x301;" horiz-adv-x="1319" d="M625 1378l32 148h598l-32 -148h-598zM928 956l22 107h344l-203 -957h174l-22 -106h-358l39 188q-74 -106 -166 -161.5t-200 -55.5q-177 0 -239 100.5t-16 315.5l121 569h-166l22 107h351l-131 -619q-21 -97 -23 -163.5t13 -102.5q33 -72 155 -72q129 0 215.5 93.5 t124.5 273.5l103 483h-160zM817 1556l338 376h199l-420 -376h-117z" />
<glyph unicode="A&#x30b;" d="M1474 1899h197l-318 -264h-117zM1157 1899h197l-318 -264h-117zM1072 541h-548l425 710zM430 106h-164l195 328h628l55 -328h-166l-22 -106h543l22 106h-147l-238 1387h-168l-827 -1387h-131l-22 -106h420z" />
<glyph unicode="a&#x30b;" horiz-adv-x="1221" d="M897 1638h170l-324 -376h-114zM1227 1638h178l-367 -376h-116zM885 334q-24 -114 -110 -185t-200 -71q-116 0 -170 65q-54 64 -31 176q26 123 105 181.5t217 58.5h237zM1140 664q44 209 -48 318.5t-313 109.5q-172 0 -381 -82l-46 -215h95q37 99 112.5 148.5t186.5 49.5 q133 0 192 -66.5t34 -187.5l-16 -73h-258q-218 0 -355 -91q-138 -92 -174 -256q-33 -159 50 -254q84 -94 261 -94q108 0 195 34.5t164 109.5l-24 -115h348l22 106h-164z" />
<glyph unicode="E&#x30b;" horiz-adv-x="1495" d="M1474 1899h197l-318 -264h-117zM1157 1899h197l-318 -264h-117zM1401 332h-123l-44 -209h-702l132 625h489l-39 -187h123l105 496h-123l-40 -187h-489l107 500h686l-45 -209h123l71 332h-1202l-23 -107h190l-272 -1280h-190l-22 -106h1218z" />
<glyph unicode="e&#x30b;" horiz-adv-x="1212" d="M948 1638h170l-324 -376h-114zM1278 1638h178l-367 -376h-116zM1218 512q55 284 -41.5 432t-338.5 148q-226 0 -398 -154q-173 -155 -225 -406q-54 -255 54 -408t342 -153q385 0 549 351h-148q-58 -126 -149 -189t-212 -63q-159 0 -216 108.5t-11 325.5l1 8h793zM448 618 q55 186 148 280.5t221 94.5q137 0 189 -94t18 -281h-576z" />
<glyph unicode="I&#x30b;" horiz-adv-x="809" d="M1086 1899h197l-318 -264h-117zM769 1899h197l-318 -264h-117zM990 1386l23 107h-583l-23 -107h190l-272 -1280h-190l-22 -106h583l22 106h-190l272 1280h190z" />
<glyph unicode="i&#x30b;" horiz-adv-x="655" d="M456 106h174l-22 -106h-534l22 106h176l181 850h-176l22 107h360zM621 1638h170l-324 -376h-114zM951 1638h178l-367 -376h-116z" />
<glyph unicode="A&#x328;&#x304;" d="M-12 0l22 106h131l827 1387h168l238 -1387h147l-22 -106h-149l-2 -2q-113 -123 -123 -170q-10 -46 17.5 -74t83.5 -28q27 0 57.5 6.5t63.5 19.5l-28 -127q-38 -9 -72.5 -13.5t-66.5 -4.5q-113 0 -165.5 44.5t-35.5 125.5q11 49 52 101.5t125 121.5h-300l22 106h166 l-55 328h-628l-195 -328h164l-22 -106h-420zM524 541h548l-123 710zM837 1842h598l-28 -148h-598z" />
<glyph unicode="a&#x328;&#x304;" horiz-adv-x="1221" d="M1140 664l-119 -558h164l-22 -106h-148l-2 -2q-113 -123 -123 -170q-10 -46 17.5 -74t83.5 -28q27 0 57.5 6.5t63.5 19.5l-28 -127q-38 -9 -72.5 -13.5t-66.5 -4.5q-113 0 -165.5 44.5t-35.5 125.5q11 49 52 101.5t125 121.5h-106l24 115q-77 -74 -164.5 -109t-194.5 -35 q-177 0 -261 94t-50 254q35 165 173.5 256t355.5 91h258l16 73q25 121 -34 187.5t-192 66.5q-110 0 -186 -50t-113 -148h-95l46 215q105 41 200 61.5t181 20.5q221 0 313 -109.5t48 -318.5zM885 334l48 225h-237q-137 0 -216.5 -59t-105.5 -181q-23 -111 31 -176t170 -65 q115 0 200.5 71t109.5 185zM572 1526h598l-32 -148h-598z" />
<glyph unicode="I&#x328;&#x304;" horiz-adv-x="809" d="M528 106h190l-22 -106h-150l-2 -2q-113 -123 -123 -170q-10 -46 17.5 -74t83.5 -28q27 0 57.5 6.5t63.5 19.5l-28 -127q-38 -9 -72.5 -13.5t-66.5 -4.5q-113 0 -165.5 44.5t-35.5 125.5q11 49 52 101.5t125 121.5h-339l22 106h190l272 1280h-190l23 107h583l-23 -107 h-190zM484 1842h598l-28 -148h-598z" />
<glyph unicode="i&#x328;&#x304;" horiz-adv-x="655" d="M456 106h174l-22 -106h-149l-2 -2q-113 -123 -123 -170q-10 -46 17.5 -74t83.5 -28q27 0 57.5 6.5t63.5 19.5l-28 -127q-38 -9 -72.5 -13.5t-66.5 -4.5q-113 0 -165.5 44.5t-35.5 125.5q11 49 52 101.5t125 121.5h-291l22 106h176l181 850h-176l22 107h360zM279 1526h598 l-32 -148h-598z" />
<glyph unicode="&#x18f;&#x328;" horiz-adv-x="1679" d="M981 1413q-178 0 -302 -79q-123 -80 -202 -238h-184q107 209 283 316q177 108 415 108q325 0 483.5 -213t90.5 -562q-35 -179 -118 -323q-82 -142 -216 -254q-118 -98 -253 -148q-46 -17 -94 -27q-106 -119 -115 -165t19 -74t84 -28q27 0 57 6.5t63 19.5l-26 -127 q-37 -9 -71.5 -13.5t-66.5 -4.5q-113 0 -166.5 44.5t-37.5 125.5q9 49 49 102q33 42 92 95q-37 -3 -76 -3q-152 0 -270 50q-117 50 -195 147q-90 112 -117 254t8 323l14 71h1218q54 279 -40 428q-92 169 -326 169zM1324 694h-989q-57 -292 37 -448q92 -168 338 -168 q245 0 403 168q154 156 211 448z" />
<glyph unicode="&#x259;&#x328;" horiz-adv-x="1212" d="M106 551h793l1 8q42 215 -17 325q-60 109 -218 109q-121 0 -212 -63q-89 -64 -144 -189h-148q78 175 213 263q136 88 329 88q233 0 344 -154q112 -153 63 -407q-49 -252 -218 -406q-104 -95 -229 -131q-107 -120 -116 -166t19 -74t84 -28q27 0 57 6.5t63 19.5l-26 -127 q-37 -9 -71.5 -13.5t-66.5 -4.5q-113 0 -166.5 44.5t-37.5 125.5q9 49 49 102q32 41 91 94q-22 -2 -45 -2q-241 0 -341 149q-100 148 -50 431zM302 445q-30 -186 25 -281q53 -94 189 -94q127 0 218.5 95t143.5 280h-576z" />
<glyph unicode="A&#x328;&#x304;&#x301;" d="M-12 0l22 106h131l827 1387h168l238 -1387h147l-22 -106h-149l-2 -2q-113 -123 -123 -170q-10 -46 17.5 -74t83.5 -28q27 0 57.5 6.5t63.5 19.5l-28 -127q-38 -9 -72.5 -13.5t-66.5 -4.5q-113 0 -165.5 44.5t-35.5 125.5q11 49 52 101.5t125 121.5h-300l22 106h166 l-55 328h-628l-195 -328h164l-22 -106h-420zM524 541h548l-123 710zM798 1705h598l-32 -148h-598zM1221 2000h197l-319 -264h-117z" />
<glyph unicode="a&#x328;&#x304;&#x301;" horiz-adv-x="1221" d="M1140 664l-119 -558h164l-22 -106h-148l-2 -2q-113 -123 -123 -170q-10 -46 17.5 -74t83.5 -28q27 0 57.5 6.5t63.5 19.5l-28 -127q-38 -9 -72.5 -13.5t-66.5 -4.5q-113 0 -165.5 44.5t-35.5 125.5q11 49 52 101.5t125 121.5h-106l24 115q-77 -74 -164.5 -109t-194.5 -35 q-177 0 -261 94t-50 254q35 165 173.5 256t355.5 91h258l16 73q25 121 -34 187.5t-192 66.5q-110 0 -186 -50t-113 -148h-95l46 215q105 41 200 61.5t181 20.5q221 0 313 -109.5t48 -318.5zM885 334l48 225h-237q-137 0 -216.5 -59t-105.5 -181q-23 -111 31 -176t170 -65 q115 0 200.5 71t109.5 185zM572 1526h598l-32 -148h-598zM1155 1932h199l-420 -376h-117z" />
<glyph unicode="I&#x328;&#x304;&#x301;" horiz-adv-x="809" d="M528 106h190l-22 -106h-150l-2 -2q-113 -123 -123 -170q-10 -46 17.5 -74t83.5 -28q27 0 57.5 6.5t63.5 19.5l-28 -127q-38 -9 -72.5 -13.5t-66.5 -4.5q-113 0 -165.5 44.5t-35.5 125.5q11 49 52 101.5t125 121.5h-339l22 106h190l272 1280h-190l23 107h583l-23 -107 h-190zM467 1705h598l-32 -148h-598zM892 2000h197l-319 -264h-117z" />
<glyph unicode="i&#x328;&#x304;&#x301;" horiz-adv-x="655" d="M456 106h174l-22 -106h-149l-2 -2q-113 -123 -123 -170q-10 -46 17.5 -74t83.5 -28q27 0 57.5 6.5t63.5 19.5l-28 -127q-38 -9 -72.5 -13.5t-66.5 -4.5q-113 0 -165.5 44.5t-35.5 125.5q11 49 52 101.5t125 121.5h-291l22 106h176l181 850h-176l22 107h360zM279 1526h598 l-32 -148h-598zM812 1932h199l-420 -376h-117z" />
<glyph unicode="O&#x328;&#x304;&#x301;" horiz-adv-x="1679" d="M759 -188q-10 -46 17.5 -74t83.5 -28q27 0 57.5 6.5t62.5 19.5l-28 -127q-38 -9 -72 -13.5t-66 -4.5q-113 0 -166 44.5t-35 125.5q10 49 51 102q38 48 112 110q-118 8 -212 48q-116 50 -193 147q-88 112 -112.5 254t14.5 323q38 181 123 323.5t221 254.5 q119 98 255.5 147.5t290.5 49.5q325 0 479.5 -213t80.5 -562q-38 -179 -123.5 -322.5t-221.5 -254.5q-119 -98 -255 -148q-119 -42 -251 -48q-104 -115 -113 -160zM856 78q245 0 406 168.5t231 498.5q70 331 -19 499.5t-334 168.5q-246 0 -407 -168.5t-231 -499.5 q-70 -330 19 -498.5t335 -168.5zM902 1705h598l-32 -148h-598zM1324 2000h197l-319 -264h-117z" />
<glyph unicode="o&#x328;&#x304;&#x301;" horiz-adv-x="1233" d="M535 -188q-10 -46 17.5 -74t83.5 -28q27 0 57.5 6.5t62.5 19.5l-28 -127q-38 -9 -72 -13.5t-66 -4.5q-113 0 -166 44.5t-35 125.5q10 49 51 102q38 48 112 111q-188 17 -283 150q-108 154 -54 408t227 407t406 153t341 -153t54 -407t-228 -408q-158 -140 -366 -152 q-105 -115 -114 -160zM630 70q148 0 248.5 117t149.5 345q48 228 -2.5 344.5t-198.5 116.5t-248.5 -116.5t-148.5 -344.5q-49 -228 2 -345t198 -117zM641 1526h598l-32 -148h-598zM1155 1932h199l-420 -376h-117z" />
<glyph unicode="A&#x328;&#x30b;" d="M-12 0l22 106h131l827 1387h168l238 -1387h147l-22 -106h-149l-2 -2q-113 -123 -123 -170q-10 -46 17.5 -74t83.5 -28q27 0 57.5 6.5t63.5 19.5l-28 -127q-38 -9 -72.5 -13.5t-66.5 -4.5q-113 0 -165.5 44.5t-35.5 125.5q11 49 52 101.5t125 121.5h-300l22 106h166 l-55 328h-628l-195 -328h164l-22 -106h-420zM524 541h548l-123 710zM1474 1899h197l-318 -264h-117zM1157 1899h197l-318 -264h-117z" />
<glyph unicode="a&#x328;&#x30b;" horiz-adv-x="1221" d="M1140 664l-119 -558h164l-22 -106h-149l-2 -2q-113 -123 -123 -170q-10 -46 17.5 -74t83.5 -28q27 0 57.5 6.5t63.5 19.5l-28 -127q-38 -9 -72.5 -13.5t-66.5 -4.5q-113 0 -165.5 44.5t-35.5 125.5q11 49 52 101.5t125 121.5h-105l24 115q-77 -74 -164.5 -109t-194.5 -35 q-177 0 -261 94t-50 254q35 165 173.5 256t355.5 91h258l16 73q25 121 -34 187.5t-192 66.5q-110 0 -186 -50t-113 -148h-95l46 215q105 41 200 61.5t181 20.5q221 0 313 -109.5t48 -318.5zM885 334l48 225h-237q-137 0 -216.5 -59t-105.5 -181q-23 -111 31 -176t170 -65 q115 0 200.5 71t109.5 185zM1227 1638h178l-367 -376h-116zM897 1638h170l-324 -376h-114z" />
<glyph unicode="I&#x328;&#x30b;" horiz-adv-x="809" d="M528 106h190l-22 -106h-149l-2 -2q-113 -123 -123 -170q-10 -46 17.5 -74t83.5 -28q27 0 57.5 6.5t63.5 19.5l-28 -127q-38 -9 -72.5 -13.5t-66.5 -4.5q-113 0 -165.5 44.5t-35.5 125.5q11 49 52 101.5t125 121.5h-340l22 106h190l272 1280h-190l23 107h583l-23 -107 h-190zM1086 1899h197l-318 -264h-117zM769 1899h197l-318 -264h-117z" />
<glyph unicode="i&#x328;&#x30b;" horiz-adv-x="655" d="M456 106h174l-22 -106h-150l-2 -2q-113 -123 -123 -170q-10 -46 17.5 -74t83.5 -28q27 0 57.5 6.5t63.5 19.5l-28 -127q-38 -9 -72.5 -13.5t-66.5 -4.5q-113 0 -165.5 44.5t-35.5 125.5q11 49 52 101.5t125 121.5h-290l22 106h176l181 850h-176l22 107h360zM951 1638h178 l-367 -376h-116zM621 1638h170l-324 -376h-114z" />
<glyph unicode="O&#x328;&#x30b;" horiz-adv-x="1679" d="M759 -188q-10 -46 17.5 -74t83.5 -28q27 0 57.5 6.5t62.5 19.5l-28 -127q-38 -9 -72 -13.5t-66 -4.5q-113 0 -166 44.5t-35 125.5q10 49 51 102q38 48 112 110q-118 8 -212 48q-116 50 -193 147q-88 112 -112.5 254t14.5 323q38 181 123 323.5t221 254.5 q119 98 255.5 147.5t290.5 49.5q325 0 479.5 -213t80.5 -562q-38 -179 -123.5 -322.5t-221.5 -254.5q-119 -98 -255 -148q-119 -42 -251 -48q-104 -115 -113 -160zM856 78q245 0 406 168.5t231 498.5q70 331 -19 499.5t-334 168.5q-246 0 -407 -168.5t-231 -499.5 q-70 -330 19 -498.5t335 -168.5zM1157 1899h197l-318 -264h-117zM1474 1899h197l-318 -264h-117z" />
<glyph unicode="o&#x328;&#x30b;" horiz-adv-x="1233" d="M535 -188q-10 -46 17.5 -74t83.5 -28q27 0 57.5 6.5t62.5 19.5l-28 -127q-38 -9 -72 -13.5t-66 -4.5q-113 0 -166 44.5t-35 125.5q10 49 51 102q38 48 112 111q-188 17 -283 150q-108 154 -54 408t227 407t406 153t341 -153t54 -407t-228 -408q-158 -140 -366 -152 q-105 -115 -114 -160zM630 70q148 0 248.5 117t149.5 345q48 228 -2.5 344.5t-198.5 116.5t-248.5 -116.5t-148.5 -344.5q-49 -228 2 -345t198 -117zM1278 1638h178l-367 -376h-116zM948 1638h170l-324 -376h-114z" />
<glyph unicode="A&#x328;&#x301;" d="M-12 0l22 106h131l827 1387h168l238 -1387h147l-22 -106h-149l-2 -2q-113 -123 -123 -170q-10 -46 17.5 -74t83.5 -28q27 0 57.5 6.5t63.5 19.5l-28 -127q-38 -9 -72.5 -13.5t-66.5 -4.5q-113 0 -165.5 44.5t-35.5 125.5q11 49 52 101.5t125 121.5h-300l22 106h166 l-55 328h-628l-195 -328h164l-22 -106h-420zM524 541h548l-123 710zM1214 1899h197l-318 -264h-117z" />
<glyph unicode="a&#x328;&#x301;" horiz-adv-x="1221" d="M1140 664l-119 -558h164l-22 -106h-147l-2 -2q-113 -123 -123 -170q-10 -46 17.5 -74t83.5 -28q27 0 57.5 6.5t63.5 19.5l-28 -127q-38 -9 -72.5 -13.5t-66.5 -4.5q-113 0 -165.5 44.5t-35.5 125.5q11 49 52 101.5t125 121.5h-107l24 115q-77 -74 -164.5 -109t-194.5 -35 q-177 0 -261 94t-50 254q35 165 173.5 256t355.5 91h258l16 73q25 121 -34 187.5t-192 66.5q-110 0 -186 -50t-113 -148h-95l46 215q105 41 200 61.5t181 20.5q221 0 313 -109.5t48 -318.5zM885 334l48 225h-237q-137 0 -216.5 -59t-105.5 -181q-23 -111 31 -176t170 -65 q115 0 200.5 71t109.5 185zM1093 1638h199l-420 -376h-117z" />
<glyph unicode="I&#x328;&#x301;" horiz-adv-x="809" d="M528 106h190l-22 -106h-150l-2 -2q-113 -123 -123 -170q-10 -46 17.5 -74t83.5 -28q27 0 57.5 6.5t63.5 19.5l-28 -127q-38 -9 -72.5 -13.5t-66.5 -4.5q-113 0 -165.5 44.5t-35.5 125.5q11 49 52 101.5t125 121.5h-339l22 106h190l272 1280h-190l23 107h583l-23 -107 h-190zM975 1899h197l-318 -264h-117z" />
<glyph unicode="i&#x328;&#x301;" horiz-adv-x="655" d="M456 106h174l-22 -106h-150l-2 -2q-113 -123 -123 -170q-10 -46 17.5 -74t83.5 -28q27 0 57.5 6.5t63.5 19.5l-28 -127q-38 -9 -72.5 -13.5t-66.5 -4.5q-113 0 -165.5 44.5t-35.5 125.5q11 49 52 101.5t125 121.5h-290l22 106h176l181 850h-176l22 107h360zM815 1638h199 l-420 -376h-117z" />
<glyph unicode="ff" horiz-adv-x="1451" d="M1005 956h-500l-198 -1022q-35 -178 -145 -269t-289 -91l12 98q105 0 156 56q53 60 82 206l198 1022h-176l21 107h176l26 133q35 179 145 269q110 91 289 91q67 0 131.5 -12t126.5 -37l-40 -202h-97q4 21 4 40q0 46 -24 74q-34 39 -113 39q-103 0 -156 -56.5t-81 -201.5 l-27 -137h500l26 133q35 179 145 269q110 91 289 91q67 0 131.5 -12t125.5 -37l-39 -202h-97q4 21 4 40q0 46 -24 74q-34 39 -113 39q-103 0 -156 -56.5t-81 -201.5l-27 -137h297l-21 -107h-297l-198 -1022q-35 -178 -145 -269t-289 -91l12 98q105 0 156 56q53 60 82 206z " />
<glyph unicode="fi" horiz-adv-x="1366" d="M321 956h-176l21 107h176l19 96q38 197 174.5 297t365.5 100q87 0 175.5 -13t172.5 -40l-42 -217l-94 1q3 18 3 34q0 61 -42 95q-53 42 -176 42q-153 0 -238 -71t-114 -224l-20 -100h711l-186 -957h174l-20 -106h-358l185 956h-527l-198 -1022q-35 -178 -145 -269 t-289 -91l12 98q105 0 156 56q53 60 82 206z" />
<glyph unicode="fl" horiz-adv-x="1366" d="M321 956h-176l21 107h176l19 96q39 201 177.5 299t382.5 98h397l-282 -1450h175l-20 -106h-359l281 1450h-215q-163 0 -242.5 -65t-109.5 -222l-20 -100h295l-21 -107h-295l-198 -1022q-35 -178 -145 -269t-289 -91l12 98q105 0 156 56q53 60 82 206z" />
<glyph unicode="ffi" horiz-adv-x="1928" d="M994 956h-489l-198 -1022q-35 -178 -145 -269t-289 -91l12 98q105 0 156 56q53 60 82 206l198 1022h-176l21 107h176l26 133q35 179 145 269q110 91 289 91q67 0 131.5 -12t126.5 -37l-40 -202h-97q4 21 4 40q0 46 -24 74q-34 39 -113 39q-103 0 -156 -56.5t-81 -201.5 l-27 -137h489l19 96q38 197 174.5 297t365.5 100q87 0 175.5 -13t172.5 -40l-43 -217l-93 1q2 18 2 34q0 61 -41 95q-53 42 -176 42q-153 0 -238 -71t-115 -224l-19 -100h711l-186 -957h174l-21 -106h-358l186 956h-527l-199 -1022q-34 -178 -144.5 -269t-289.5 -91l12 98 q105 0 156 56q54 60 82 206z" />
<glyph unicode="ffl" horiz-adv-x="2019" d="M1019 956h-514l-198 -1022q-35 -178 -145 -269t-289 -91l12 98q105 0 156 56q53 60 82 206l198 1022h-176l21 107h176l26 133q35 179 145 269q110 91 289 91q67 0 131.5 -12t126.5 -37l-40 -202h-97q4 21 4 40q0 46 -24 74q-34 39 -113 39q-103 0 -156 -56.5t-81 -201.5 l-27 -137h514l19 96q39 201 177.5 299t382.5 98h397l-282 -1450h175l-20 -106h-359l281 1450h-215q-163 0 -242.5 -65t-109.5 -222l-20 -100h295l-21 -107h-295l-198 -1022q-35 -178 -145 -269t-289 -91l12 98q105 0 156 56q53 60 82 206z" />
<glyph horiz-adv-x="1024" />
<glyph horiz-adv-x="0" />
<glyph unicode="&#x9;" horiz-adv-x="0" />
<glyph unicode="&#xa;" horiz-adv-x="0" />
<glyph unicode=" "  horiz-adv-x="651" />
<glyph unicode="&#x09;" horiz-adv-x="651" />
<glyph unicode="&#xa0;" horiz-adv-x="651" />
<glyph unicode="!" horiz-adv-x="823" d="M316 238q55 0 86.5 -39t20.5 -95q-11 -55 -57.5 -94t-101.5 -39q-57 0 -87.5 38.5t-19.5 94.5t56.5 95t102.5 39zM431 1493h258l-228 -821l-49 -252h-123l49 252z" />
<glyph unicode="&#x22;" horiz-adv-x="942" d="M360 1493v-555h-159v555h159zM741 1493v-555h-159v555h159z" />
<glyph unicode="#" horiz-adv-x="1716" d="M1042 901h-282l-84 -334h285zM901 1470l-102 -415h282l103 415h172l-105 -415h308v-154h-347l-82 -334h314v-153h-352l-103 -414h-172l105 414h-283l-104 -414h-170l102 414h-309v153h348l82 334h-316v154h355l104 415h170z" />
<glyph unicode="$" horiz-adv-x="1303" d="M581 68q115 10 185.5 65t88.5 150q17 86 -30.5 146t-155.5 91zM699 1187q-105 -7 -172 -59.5t-84 -140.5q-16 -80 26.5 -133t147.5 -86zM68 72l54 276h108q-23 -137 39.5 -207t211.5 -73l95 485q-218 64 -295 147.5t-50 221.5q31 160 160 257t327 109l52 268h100 l-52 -268q100 -8 188.5 -32.5t169.5 -65.5l-51 -262h-109q11 116 -45 183t-172 76l-88 -452q233 -67 314.5 -153.5t53.5 -231.5q-32 -166 -167.5 -266t-349.5 -115l-52 -270h-100l52 270q-96 2 -194 27.5t-200 75.5z" />
<glyph unicode="%" horiz-adv-x="1946" d="M591 1427q-88 0 -153.5 -83t-94.5 -232q-28 -147 6 -231t120 -84q85 0 150.5 83.5t94.5 231.5t-4.5 231.5t-118.5 83.5zM1479 694q-87 0 -153 -84t-95 -233q-28 -147 5.5 -230.5t119.5 -83.5t151.5 83.5t93.5 230.5q29 148 -4 232.5t-118 84.5zM1496 784q158 0 230 -110 t35.5 -297t-151.5 -296.5t-272 -109.5q-160 0 -231.5 109.5t-35.5 296.5q37 188 151.5 297.5t273.5 109.5zM1515 1520h152l-1236 -1549h-152zM875 1114q-37 -189 -151.5 -298t-273.5 -109t-230.5 109.5t-34.5 297.5q36 186 150.5 296t272.5 110t230.5 -109.5t36.5 -296.5z " />
<glyph unicode="&#x26;" horiz-adv-x="1823" d="M1006 231l-463 613q-102 -78 -163 -168.5t-81 -192.5q-8 -43 -8 -82q0 -113 69 -197q93 -112 265 -112q102 0 199.5 35.5t181.5 103.5zM1581 0h-401l-109 145q-122 -88 -249.5 -131t-265.5 -43q-258 0 -383 132q-93 98 -93 247q0 52 12 111q26 133 124.5 248.5 t273.5 216.5q-39 61 -51 122q-6 29 -6 60q0 32 6 66q31 159 164 252.5t330 93.5q67 0 153 -17t194 -51l-50 -258h-113q1 12 1 24q0 89 -47 139q-53 56 -163 56q-103 0 -178 -56.5t-93 -146.5q-4 -21 -4 -42q0 -40 15 -80q21 -58 108 -173l410 -544q85 80 142.5 172.5 t87.5 197.5l21 107h293l-21 -107h-172q-42 -130 -113.5 -243t-173.5 -209l137 -183h235z" />
<glyph unicode="'" horiz-adv-x="563" d="M360 1493v-555h-159v555h159z" />
<glyph unicode="(" horiz-adv-x="799" d="M471 -319q-222 109 -300 345.5t-9 591.5q69 356 239 592.5t434 345.5l-19 -98q-174 -106 -278.5 -298.5t-172.5 -541.5q-68 -348 -38.5 -540.5t163.5 -298.5z" />
<glyph unicode=")" horiz-adv-x="799" d="M-36 -319l19 98q174 106 279 298.5t173 540.5q68 349 38 541.5t-164 298.5l19 98q223 -109 301 -345.5t9 -592.5q-69 -355 -239 -591.5t-435 -345.5z" />
<glyph unicode="*" horiz-adv-x="1024" d="M991 1237l-391 -182l391 -185l-76 -118l-348 217l13 -381h-136l13 381l-348 -217l-76 118l391 183l-391 184l76 119l348 -217l-13 381h136l-13 -381l348 217z" />
<glyph unicode="+" horiz-adv-x="1716" d="M938 1284v-561h561v-162h-561v-561h-160v561h-561v162h561v561h160z" />
<glyph unicode="," horiz-adv-x="651" d="M40 -199q108 69 170 162.5t88 226.5l7 37h197q-41 -171 -137.5 -293.5t-259.5 -212.5z" />
<glyph unicode="-" horiz-adv-x="692" d="M105 627h512l-30 -156h-512z" />
<glyph unicode="." horiz-adv-x="651" d="M352 238q55 0 86.5 -39t20.5 -95q-11 -55 -57.5 -94t-101.5 -39q-57 0 -87.5 38.5t-19.5 94.5t56.5 95t102.5 39z" />
<glyph unicode="/" horiz-adv-x="690" d="M695 1493h160l-858 -1683h-160z" />
<glyph unicode="0" horiz-adv-x="1303" d="M956 745q66 340 22.5 508t-196.5 168t-261.5 -168t-174.5 -508q-66 -339 -22.5 -507t196.5 -168t261.5 168t174.5 507zM500 -29q-243 0 -339.5 204t-25.5 570q71 367 247.5 571t419.5 204q244 0 340 -204t25 -571q-71 -366 -247 -570t-420 -204z" />
<glyph unicode="1" horiz-adv-x="1303" d="M143 0l21 106h260l241 1242l-339 -195l26 131l410 236h138l-275 -1414h260l-21 -106h-721z" />
<glyph unicode="2" horiz-adv-x="1303" d="M336 1137h-112l52 266q118 57 232.5 87t218.5 30q233 0 346 -113t75 -307q-42 -219 -408 -524q-28 -23 -43 -35l-450 -377h623l36 184h117l-68 -348h-963l21 109l541 452q179 150 267.5 275.5t115.5 263.5q29 151 -33 236t-200 85q-143 0 -234.5 -71t-133.5 -213z" />
<glyph unicode="3" horiz-adv-x="1303" d="M332 1430q126 44 238 67t206 23q219 0 323.5 -94.5t71.5 -262.5q-26 -135 -128.5 -225.5t-264.5 -122.5q178 -26 259 -133.5t47 -278.5q-40 -209 -202.5 -320.5t-426.5 -111.5q-117 0 -223.5 25t-206.5 76l56 290h112q-18 -144 55 -218t231 -74q153 0 258.5 88.5 t135.5 242.5q34 176 -39.5 266.5t-249.5 90.5h-95l20 102h50q175 0 276.5 72.5t130.5 218.5q25 131 -33.5 200.5t-193.5 69.5t-222 -64t-124 -190h-112z" />
<glyph unicode="4" horiz-adv-x="1303" d="M667 506l154 794l-664 -794h510zM1008 0h-680l21 106h240l57 293h-652l21 109l851 1012h198l-197 -1014h285l-21 -107h-285l-57 -293h240z" />
<glyph unicode="5" horiz-adv-x="1303" d="M1178 1493l-32 -164h-684l-83 -428q59 36 132 54t159 18q242 0 356 -134t69 -366q-46 -237 -213.5 -369.5t-423.5 -132.5q-103 0 -206 25t-206 76l56 290h113q-19 -142 48 -217t214 -75q158 0 263.5 104t143.5 299q37 194 -27 297.5t-223 103.5q-90 0 -165 -32t-141 -99 h-86l146 750h790z" />
<glyph unicode="6" horiz-adv-x="1303" d="M695 872q-143 0 -237.5 -100t-131.5 -289q-39 -199 16.5 -306t196.5 -107t237 103.5t133.5 297.5t-18 297.5t-196.5 103.5zM359 822q82 75 175.5 112t201.5 37q223 0 326.5 -134t58.5 -366q-44 -227 -210.5 -363.5t-399.5 -136.5q-253 0 -352 188.5t-31 538.5 q76 392 279 607t496 215q79 0 163 -15t169 -45l-48 -246h-113q8 101 -47 154t-165 53q-194 0 -317.5 -147t-185.5 -452z" />
<glyph unicode="7" horiz-adv-x="1303" d="M1280 1391l-854 -1391h-149l815 1329h-690l-36 -184h-117l68 348h983z" />
<glyph unicode="8" horiz-adv-x="1303" d="M888 408q31 160 -31 248.5t-206 88.5t-241 -88.5t-128 -248.5q-31 -161 31.5 -249.5t206.5 -88.5t240.5 88.5t127.5 249.5zM988 1133q27 136 -27.5 212t-178.5 76q-123 0 -207 -76t-111 -212q-26 -137 28.5 -213t177.5 -76q124 0 208 76t110 213zM815 795 q165 -23 240 -125.5t44 -261.5q-40 -210 -195.5 -323.5t-403.5 -113.5q-247 0 -358 113.5t-71 323.5q31 159 146 261.5t291 125.5q-146 27 -209.5 114.5t-37.5 223.5q35 180 179.5 283.5t361.5 103.5t320.5 -103.5t68.5 -283.5q-26 -136 -123.5 -223.5t-252.5 -114.5z" />
<glyph unicode="9" horiz-adv-x="1303" d="M943 669q-81 -75 -175.5 -112t-203.5 -37q-222 0 -324.5 134t-57.5 366q44 227 210.5 363.5t399.5 136.5q253 0 351.5 -188.5t30.5 -538.5q-76 -392 -279 -607t-495 -215q-79 0 -163 15t-169 45l48 248h112q-6 -101 48.5 -155t163.5 -54q194 0 317.5 146.5t185.5 452.5z M764 1421q-142 0 -237.5 -103.5t-133 -297.5t17.5 -298t197 -104t237 100.5t132 289.5q39 199 -16.5 306t-196.5 107z" />
<glyph unicode=":" horiz-adv-x="690" d="M169 9q-30 39 -19 95t57 95t102 39t87 -39t20 -95t-56.5 -94.5t-102.5 -38.5t-88 38zM435 889q57 0 87.5 -38t19.5 -95t-56 -95t-102 -38q-56 0 -87.5 38.5t-20.5 94.5t57 94.5t102 38.5z" />
<glyph unicode=";" horiz-adv-x="690" d="M-23 -199q107 69 169.5 162.5t88.5 226.5l7 37h197q-41 -171 -137.5 -293.5t-260.5 -212.5zM572 756q-11 -56 -57 -94.5t-102 -38.5t-87 38.5t-20 94.5t57 94.5t102 38.5t86.5 -39t20.5 -94z" />
<glyph unicode="&#x3c;" horiz-adv-x="1716" d="M1499 1020l-1038 -379l1038 -377v-170l-1282 465v166l1282 465v-170z" />
<glyph unicode="=" horiz-adv-x="1716" d="M217 926h1282v-160h-1282v160zM217 518h1282v-160h-1282v160z" />
<glyph unicode="&#x3e;" horiz-adv-x="1716" d="M217 1020v170l1282 -465v-166l-1282 -465v170l1038 377z" />
<glyph unicode="?" horiz-adv-x="1098" d="M395 238q55 0 86.5 -39t20.5 -95q-10 -55 -57 -94t-102 -39q-57 0 -88 38.5t-20 94.5t57 95t103 39zM271 1427q116 47 216 70t184 23q222 0 329.5 -107t72.5 -289q-37 -186 -170 -304t-366 -169l-50 -254h-123l64 328q185 43 294.5 144t139.5 257q27 137 -31 216t-184 79 q-114 0 -199 -65.5t-130 -188.5h-97z" />
<glyph unicode="@" horiz-adv-x="2048" d="M1237 248q-75 -82 -156.5 -122t-174.5 -40q-175 0 -259.5 125t-45.5 326t172 325.5t308 124.5q93 0 159 -40t109 -122l27 142h156l-150 -772q178 37 296 162t155 313q21 111 6.5 210t-65.5 183q-80 133 -219 203.5t-318 70.5q-90 0 -181.5 -19t-185.5 -58 q-220 -93 -368.5 -281.5t-196.5 -435.5q-32 -167 -9.5 -307.5t97.5 -243.5q86 -119 223 -181.5t310 -62.5q129 0 248.5 38t230.5 114l39 -70q-126 -93 -272 -139.5t-309 -46.5q-183 0 -336.5 66.5t-254.5 189.5q-104 127 -139 290.5t2 352.5q36 184 134.5 347t251.5 290 q151 126 337 194t380 68q214 0 374 -83t249 -239q57 -98 73.5 -213t-7.5 -239q-52 -268 -245 -423.5t-476 -158.5zM1283 485l20 105q24 125 -32 202.5t-171 77.5q-121 0 -205.5 -87.5t-115.5 -245.5q-31 -159 20 -246.5t173 -87.5q114 0 200 78.5t111 203.5z" />
<glyph unicode="A" d="M371 541h548l-136 710zM-156 0l20 106h131l802 1387h168l264 -1387h146l-20 -106h-543l20 106h166l-61 328h-628l-189 -328h164l-20 -106h-420z" />
<glyph unicode="B" horiz-adv-x="1505" d="M382 106h299q180 0 278.5 78t131.5 248q33 169 -34.5 246.5t-248.5 77.5h-299zM529 862h254q164 0 252 63t114 199q27 137 -36.5 199.5t-227.5 62.5h-254zM-31 0l20 106h190l249 1280h-190l21 107h737q226 0 322.5 -92.5t60.5 -276.5q-25 -133 -120 -212t-252 -97 q186 -24 265.5 -121.5t47.5 -261.5q-43 -222 -203.5 -327t-457.5 -105h-690z" />
<glyph unicode="C" horiz-adv-x="1567" d="M1376 395q-107 -209 -283.5 -316.5t-414.5 -107.5q-146 0 -261 50t-193 147q-90 112 -117 254.5t8 322.5q68 348 310.5 561.5t571.5 213.5q122 0 253.5 -32t277.5 -97l-66 -344h-113q-1 188 -95 277t-295 89q-239 0 -395 -169.5t-220 -498.5q-64 -328 26 -497.5 t329 -169.5q167 0 290.5 79.5t202.5 237.5h184z" />
<glyph unicode="D" horiz-adv-x="1642" d="M382 106h186q291 0 479 166t248.5 476t-63 474t-415.5 164h-186zM-31 0l20 106h190l249 1280h-190l21 107h594q386 0 563.5 -197t108.5 -548q-68 -352 -322.5 -550t-639.5 -198h-594z" />
<glyph unicode="E" horiz-adv-x="1495" d="M-31 0l20 106h190l249 1280h-190l21 107h1202l-64 -332h-123l40 209h-686l-97 -500h489l36 187h123l-96 -496h-123l36 187h-489l-121 -625h702l40 209h123l-64 -332h-1218z" />
<glyph unicode="F" horiz-adv-x="1421" d="M-31 0l20 106h190l249 1280h-190l21 107h1222l-64 -332h-123l40 209h-706l-97 -500h510l36 187h123l-96 -496h-123l36 187h-510l-125 -642h239l-20 -106h-632z" />
<glyph unicode="G" horiz-adv-x="1636" d="M1370 1047q1 187 -92.5 276.5t-291.5 89.5q-258 0 -417.5 -166t-224.5 -502q-64 -329 34 -498t352 -169q113 0 221.5 28t212.5 84l75 385h-281l21 107h484l-109 -557q-148 -77 -309 -115.5t-336 -38.5q-338 0 -500 211.5t-94 562.5q69 354 314 564.5t590 210.5 q128 0 258.5 -29.5t272.5 -89.5l-68 -354h-112z" />
<glyph unicode="H" horiz-adv-x="1786" d="M-31 0l20 106h190l249 1280h-190l21 107h583l-21 -107h-190l-100 -516h774l100 516h-190l21 107h583l-21 -107h-190l-249 -1280h190l-20 -106h-583l20 106h191l124 642h-774l-125 -642h190l-20 -106h-583z" />
<glyph unicode="I" horiz-adv-x="809" d="M382 106h190l-20 -106h-583l20 106h190l249 1280h-190l21 107h583l-21 -107h-190z" />
<glyph unicode="J" horiz-adv-x="821" d="M-344 -358l45 235h114q-16 -99 18.5 -147.5t122.5 -48.5q119 0 180.5 75t104.5 293l260 1337h-232l21 107h625l-21 -107h-190l-262 -1345q-48 -247 -168.5 -357t-340.5 -110q-71 0 -141 17t-136 51z" />
<glyph unicode="K" horiz-adv-x="1530" d="M-31 0l20 106h190l249 1280h-190l21 107h583l-21 -107h-190l-110 -565l753 565h-162l21 107h496l-21 -107h-168l-750 -563l577 -717h170l-20 -106h-347l-570 709l-118 -603h190l-20 -106h-583z" />
<glyph unicode="L" horiz-adv-x="1360" d="M-31 0l20 106h190l249 1280h-190l21 107h583l-21 -107h-190l-245 -1263h682l48 250h123l-72 -373h-1198z" />
<glyph unicode="M" horiz-adv-x="2097" d="M-31 0l20 106h190l249 1280h-201l21 107h435l317 -1063l731 1063h408l-21 -107h-199l-248 -1280h190l-20 -106h-584l20 106h190l225 1154l-715 -1041h-141l-309 1041l-225 -1154h190l-20 -106h-503z" />
<glyph unicode="N" horiz-adv-x="1792" d="M-41 0l20 106h201l249 1280h-201l21 107h383l666 -1178l208 1071h-200l21 107h524l-21 -107h-201l-275 -1415h-121l-711 1258l-219 -1123h201l-20 -106h-525z" />
<glyph unicode="O" horiz-adv-x="1679" d="M710 78q245 0 403 168.5t222 498.5q64 331 -28 499.5t-337 168.5q-246 0 -404 -168.5t-222 -499.5q-64 -330 28 -498.5t338 -168.5zM689 -29q-152 0 -269.5 50t-195.5 147q-90 112 -117 254t8 323t117 323.5t216 254.5q117 98 253 147.5t290 49.5q325 0 483.5 -213 t90.5 -562q-35 -179 -118 -322.5t-216 -254.5q-117 -98 -253 -147.5t-289 -49.5z" />
<glyph unicode="P" horiz-adv-x="1378" d="M510 760h264q149 0 242.5 80.5t122.5 232.5q30 153 -32.5 233t-211.5 80h-264zM-31 0l20 106h190l249 1280h-190l21 107h706q224 0 333 -113.5t71 -306.5q-37 -192 -190 -306t-377 -114h-313l-107 -547h231l-20 -106h-624z" />
<glyph unicode="Q" horiz-adv-x="1679" d="M743 -29q-343 0 -506 211q-113 147 -113 366q0 92 20 197q35 181 117.5 323.5t215.5 254.5q117 98 253 147.5t290 49.5q325 0 483 -213q111 -149 111 -365q0 -92 -20 -197q-58 -296 -247 -497.5t-464 -259.5q41 -67 112 -99t180 -32h250l-36 -185h-117q-265 0 -375 82 q-108 82 -154 217zM739 78q245 0 403 168.5t222 498.5q26 136 26 245q0 155 -54 254q-92 169 -337 169q-246 0 -404 -168.5t-222 -499.5q-26 -135 -26 -244q0 -155 54 -255q92 -168 338 -168z" />
<glyph unicode="R" horiz-adv-x="1542" d="M981 741q66 -19 108 -64.5t66 -127.5l130 -443h182l-20 -106h-352l-141 475q-40 138 -88 178.5t-146 40.5h-223l-115 -588h211l-20 -106h-604l20 106h190l249 1280h-190l21 107h757q218 0 316.5 -104t61.5 -295q-30 -154 -134 -242.5t-279 -110.5zM518 801h295 q151 0 236.5 71.5t115 221.5t-29 221t-209.5 71h-295z" />
<glyph unicode="S" horiz-adv-x="1403" d="M59 72l66 340l115 -1q-28 -170 49.5 -251.5t268.5 -81.5q178 0 285.5 70.5t133.5 205.5q21 108 -24.5 166t-216.5 113l-185 59q-202 65 -270.5 162t-35.5 266q37 190 192.5 295t399.5 105q104 0 223.5 -22.5t250.5 -65.5l-61 -318h-113q13 158 -61.5 228.5t-255.5 70.5 q-158 0 -253 -64.5t-119 -187.5q-21 -107 29 -168t240 -121l174 -55q191 -61 259 -155.5t37 -253.5q-42 -217 -202.5 -327t-435.5 -110q-123 0 -245.5 25t-244.5 76z" />
<glyph unicode="T" horiz-adv-x="1366" d="M246 0l20 106h191l247 1268h-439l-45 -233h-123l68 352h1326l-68 -352h-123l45 233h-439l-247 -1268h191l-20 -106h-584z" />
<glyph unicode="U" horiz-adv-x="1726" d="M414 1386h-191l21 107h584l-21 -107h-191l-150 -772q-56 -286 16 -399t301 -113t344 113t171 399l150 772h-191l21 107h504l-21 -107h-190l-154 -792q-66 -341 -224.5 -482t-472.5 -141t-420 142t-40 481z" />
<glyph unicode="V" d="M482 1386l219 -1146l662 1146h-168l21 107h438l-21 -107h-145l-802 -1386h-172l-261 1386h-149l21 107h544l-21 -107h-166z" />
<glyph unicode="W" horiz-adv-x="2105" d="M1416 0h-164l-106 1214l-578 -1214h-164l-122 1386h-148l21 107h545l-21 -107h-186l97 -1103l575 1210h162l108 -1223l530 1116h-172l21 107h430l-21 -107h-147z" />
<glyph unicode="X" horiz-adv-x="1458" d="M658 639l-469 -533h193l-20 -106h-494l20 106h172l552 627l-309 653h-160l21 107h592l-21 -107h-176l227 -481l422 481h-192l21 107h489l-21 -107h-168l-506 -575l334 -705h160l-21 -106h-592l20 106h178z" />
<glyph unicode="Y" horiz-adv-x="1352" d="M242 0l20 106h191l105 537l-317 743h-140l21 107h555l-21 -107h-174l256 -604l490 604h-168l21 107h434l-21 -107h-141l-589 -724l-109 -556h191l-20 -106h-584z" />
<glyph unicode="Z" horiz-adv-x="1423" d="M-53 0l14 72l1182 1298h-772l-43 -223h-123l67 346h1180l-14 -72l-1182 -1298h844l40 209h122l-64 -332h-1251z" />
<glyph unicode="[" horiz-adv-x="799" d="M354 1556h465l-20 -106h-274l-314 -1614h274l-20 -106h-465z" />
<glyph unicode="\" horiz-adv-x="690" d="M324 1493l202 -1683h-160l-202 1683h160z" />
<glyph unicode="]" horiz-adv-x="799" d="M801 1556l-354 -1826h-465l20 106h274l314 1614h-274l20 106h465z" />
<glyph unicode="^" horiz-adv-x="1716" d="M956 1493l543 -557h-153l-488 381l-487 -381h-154l543 557h196z" />
<glyph unicode="_" horiz-adv-x="1024" d="M1024 -403v-80h-1024v80h1024z" />
<glyph unicode="`" horiz-adv-x="1024" d="M564 1636l186 -376h-117l-266 376h197z" />
<glyph unicode="a" horiz-adv-x="1221" d="M744 166q-133 -195 -348 -195q-176 0 -265 119q-62 84 -62 204q0 51 11 108q68 353 314 535q209 155 462 155q170 0 228 -29l-186 -957h158l-20 -106h-324zM263 300q0 -214 207 -214q126 0 211.5 100.5t123.5 292.5l93 482v0q0 29 -80 29q-192 0 -341 -150 q-148 -151 -201 -425q-13 -64 -13 -115z" />
<glyph unicode="b" horiz-adv-x="1311" d="M369 1450h-177l21 106h361l-128 -659q73 100 166 147.5t216 47.5q196 0 290 -155q62 -102 62 -245q0 -75 -17 -160q-49 -250 -203 -405.5t-350 -155.5q-123 0 -197.5 47.5t-108.5 147.5l-32 -166h-184zM365 479q-16 -79 -16 -142q0 -91 32 -151q54 -100 194 -100 q141 0 235.5 113t137.5 333q20 101 20 180q0 92 -28 153q-50 112 -192 112q-140 0 -233 -101t-130 -292z" />
<glyph unicode="c" horiz-adv-x="1147" d="M1012 319q-72 -170 -200.5 -259t-304.5 -89q-232 0 -343 153q-77 107 -77 261q0 69 15 147q50 255 220.5 407.5t402.5 152.5q101 0 196.5 -23.5t186.5 -71.5l-52 -272h-107v26q0 120 -52 178q-58 64 -189 64q-149 0 -247.5 -115.5t-143.5 -345.5q-20 -105 -20 -187 q0 -96 28 -159q53 -116 203 -116q119 0 202 62t134 187h148z" />
<glyph unicode="d" horiz-adv-x="1311" d="M1229 1556l-302 -1556h-184l32 166q-74 -100 -166.5 -147.5t-215.5 -47.5q-196 0 -290 155q-63 103 -63 247q0 74 17 159q49 250 203 405t351 155q123 0 197 -47.5t109 -147.5l107 553h-174l21 106h358zM836 479l20 105q15 78 15 141q0 91 -32 151q-53 101 -193 101 q-142 0 -236.5 -112t-137.5 -333q-20 -101 -20 -179q0 -93 28 -154q50 -113 192 -113q140 0 233 100.5t131 292.5z" />
<glyph unicode="e" horiz-adv-x="1212" d="M300 408q-4 -38 -4 -72q0 -94 34 -156q59 -110 217 -110q116 0 173 35q102 63 126 144h135q-40 -127 -189 -216q-104 -62 -310 -62t-317 153q-78 107 -78 262q0 68 15 145q49 253 218 407t409 154q391 0 391 -277q0 -203 -205 -302q-209 -101 -615 -105zM813 632 q112 66 112 190q0 171 -227 171q-134 0 -227 -102t-150 -377q321 15 492 118z" />
<glyph unicode="f" horiz-adv-x="758" d="M1021 1305h-97q4 21 4 40q0 46 -24 74q-34 39 -113 39q-103 0 -156 -56.5t-81 -201.5l-27 -137h297l-21 -107h-297l-198 -1022q-35 -178 -145 -269t-289 -91l12 98q105 0 156 56q53 60 82 206l198 1022h-176l21 107h176l26 133q35 179 145 269q110 91 289 91 q67 0 131.5 -12t126.5 -37z" />
<glyph unicode="g" horiz-adv-x="1311" d="M1223 1063l-203 -1040q-46 -238 -194 -353q-161 -125 -384 -125q-105 0 -197 19t-173 57l44 223h96q-3 -104 55 -152t183 -48q162 0 255 92q93 90 131 287l28 143q-73 -100 -166 -147.5t-210 -47.5q-176 0 -265 119q-56 75 -62 179q-4 61 10 133q69 353 314 535 q209 154 453 155q224 1 285 -29zM1019 956q-1 34 -109 34q-195 0 -342 -150q-147 -151 -201 -425q-15 -81 -11 -142q4 -62 29 -104q49 -83 177 -83q140 0 233 100.5t130 292.5l20 105z" />
<glyph unicode="h" horiz-adv-x="1319" d="M99 0l282 1450h-176l20 106h360l-132 -682q72 108 164 163t200 55q176 0 239 -101q39 -61 39 -163q0 -67 -17 -152l-111 -570h164l-20 -106h-349l120 618q20 103 20 172q0 61 -16 94q-33 72 -155 72q-128 0 -213.5 -93t-119.5 -271l-115 -592h-184z" />
<glyph unicode="i" horiz-adv-x="655" d="M323 1393q9 46 49 80t87 34q46 0 73 -34q21 -26 21 -58q0 -11 -3 -22q-9 -47 -48.5 -80t-86.5 -33t-74 33q-20 25 -20 57q0 11 2 23zM308 106h174l-20 -106h-358l185 956h-176l21 107h360z" />
<glyph unicode="j" horiz-adv-x="635" d="M375 1393q8 46 48.5 80t87.5 34q46 0 73 -34q20 -26 20 -58q0 -11 -2 -22q-10 -47 -48.5 -80t-86.5 -33q-47 0 -75 33q-20 25 -20 57q0 11 3 23zM335 956h-174l20 107h358l-226 -1167q-32 -164 -148 -257.5t-287 -93.5q-72 0 -134 16.5t-118 49.5l43 219h95 q-3 -25 -3 -46q0 -62 25 -95q34 -45 116 -45q91 0 146 61.5t81 190.5z" />
<glyph unicode="k" horiz-adv-x="1241" d="M676 664l295 -558h153l-20 -106h-295l-290 543l-171 -135l-79 -408h-184l282 1450h-177l20 106h361l-197 -1013l529 413h-153l20 107h299l-20 -107z" />
<glyph unicode="l" horiz-adv-x="655" d="M289 106h174l-20 -106h-358l282 1450h-177l20 106h361z" />
<glyph unicode="m" horiz-adv-x="1942" d="M1121 856q76 117 170 176.5t204 59.5q167 0 229 -104q37 -62 37 -163q0 -66 -16 -149l-111 -570h166l-20 -106h-350l127 655q15 78 15 134q0 62 -18 98q-34 69 -145 69q-123 0 -205.5 -93t-117.5 -271l-115 -592h-184l129 662q14 75 14 129q0 62 -18 97q-35 68 -146 68 q-123 0 -205.5 -93t-117.5 -271l-115 -592h-184l186 958h-176l20 105h360l-36 -189q71 106 161 162t190 56q124 0 195 -61.5t77 -174.5z" />
<glyph unicode="n" horiz-adv-x="1319" d="M144 0l186 956h-176l20 107h360l-36 -189q72 108 164 163t200 55q176 0 240 -101q38 -61 38 -163q0 -67 -17 -152l-111 -570h164l-20 -106h-349l120 618q20 103 20 172q0 61 -16 96q-34 72 -155 72q-128 0 -213 -93.5t-120 -272.5l-115 -592h-184z" />
<glyph unicode="o" horiz-adv-x="1233" d="M526 70q148 0 246.5 117t142.5 345q20 104 20 185q0 96 -28 159q-53 117 -201 117t-246.5 -116.5t-142.5 -344.5q-20 -104 -20 -184q0 -97 29 -161q53 -117 200 -117zM507 -29q-232 0 -343 153q-77 107 -77 261q0 69 15 147q49 254 219.5 407t403.5 153t344 -153 q76 -106 76 -260q0 -69 -15 -147q-49 -254 -219.5 -407.5t-403.5 -153.5z" />
<glyph unicode="p" horiz-adv-x="1311" d="M469 584l-21 -105q-15 -79 -15 -142q0 -91 32 -151q54 -100 194 -100q141 0 235.5 113t137.5 333q19 101 19 180q0 92 -27 153q-51 112 -192 112q-140 0 -233 -101t-130 -292zM357 956h-177l21 107h361l-32 -166q73 100 166 147.5t216 47.5q196 0 289 -155 q62 -102 62 -245q0 -75 -16 -160q-49 -250 -203 -405.5t-350 -155.5q-123 0 -197.5 47.5t-108.5 147.5l-116 -592h-184z" />
<glyph unicode="q" horiz-adv-x="1311" d="M859 166q-69 -100 -153 -148q-84 -47 -195 -47q-176 0 -265 119q-56 75 -62 179q-4 61 10 133q69 353 314 535q209 154 454 155q194 1 255 -29l-269 -1383h177l-21 -106h-361zM933 990q-192 0 -341 -150q-148 -151 -202 -425q-15 -81 -11 -142q4 -62 29 -104 q49 -83 177 -83q126 0 211.5 100.5t122.5 292.5l94 482q1 29 -80 29z" />
<glyph unicode="r" horiz-adv-x="979" d="M1080 1065l-52 -266h-106q3 20 3 37q0 52 -24 81q-31 39 -106 39q-136 0 -227 -94t-125 -270l-115 -592h-184l186 958h-176l20 105h360l-36 -189q75 111 170.5 164.5t217.5 53.5q45 0 93 -7t101 -20z" />
<glyph unicode="s" horiz-adv-x="1051" d="M71 307h106q-4 -29 -4 -55q0 -182 247 -182q248 0 284 182q3 18 3 50q0 31 -34 68.5t-177 86.5l-125 45q-128 44 -169.5 100.5t-41.5 121.5q0 26 5 56q29 146 152 229t301 83q177 0 363 -86l-45 -232h-106q4 23 4 43q0 73 -50.5 124.5t-167.5 51.5q-235 0 -267 -164 q-4 -17 -4 -47q0 -31 32.5 -66t159.5 -77l137 -45q142 -47 195 -118q37 -50 37 -99q0 -210 -168 -319q-132 -87 -334 -87t-381 88z" />
<glyph unicode="t" horiz-adv-x="823" d="M274 956h-162l21 107h162l64 330h185l-64 -330h346l-21 -107h-346l-131 -675q-15 -79 -15 -125q0 -32 7 -48q19 -38 89 -38q72 0 113.5 42.5t61.5 137.5h139q-36 -145 -120 -212t-229 -67q-159 0 -212 71q-32 43 -32 123q0 51 13 116z" />
<glyph unicode="u" horiz-adv-x="1319" d="M991 1063h184l-186 -957h174l-20 -106h-358l36 188q-72 -106 -163.5 -161.5t-198.5 -55.5q-177 0 -241 101q-39 60 -39 163q0 67 17 152l110 569h-166l21 107h351l-120 -619q-20 -103 -20 -171q0 -61 16 -95q33 -72 155 -72q128 0 213.5 94t119.5 273z" />
<glyph unicode="v" horiz-adv-x="1157" d="M538 0h-135l-205 956h-121l20 107h275l180 -838q115 100 192 227q160 264 217 504h-122l21 107h275q-109 -412 -247 -643q-120 -200 -350 -420z" />
<glyph unicode="w" horiz-adv-x="1753" d="M1197 233q133 144 163 197q110 200 218 526l-155 -1l21 108h267l-21 -108h-1q-102 -371 -199 -550q-143 -255 -300 -405h-153l-109 795l-417 -795h-147l-129 956l-120 -2l21 109h274l112 -830l435 830h129z" />
<glyph unicode="x" horiz-adv-x="1155" d="M131 0h-125l469 510l-236 446h-131l20 107h270l221 -414l381 414h125l-460 -500l243 -457h139l-20 -106h-279l-226 424z" />
<glyph unicode="y" horiz-adv-x="1157" d="M1178 1054q-99 -572 -273 -874q-255 -443 -460 -576q-91 -59 -331 -59q-47 0 -94.5 8t-95.5 23l40 203h94q-2 -16 -2 -31q0 -42 18 -66q25 -34 90 -34q176 0 329 153l-251 1155h-121l21 107h275l236 -1055q161 241 200 340q126 311 151 599h-121l21 107h274z" />
<glyph unicode="z" horiz-adv-x="1079" d="M816 975q108 0 213 88h60l-16 -86l-727 -758q10 -3 39 -12q34 -11 68 -33l49 -30q94 -57 162 -57q131 0 285 150l-24 -121q-171 -168 -301 -168q-79 2 -190 71t-181 69q-108 0 -213 -88h-60l16 86l728 757q-11 4 -40 13q-34 11 -68 33l-49 30q-94 57 -162 57 q-131 0 -285 -150l24 121q171 168 301 168q79 -2 190 -71t181 -69z" />
<glyph unicode="{" horiz-adv-x="1303" d="M884 -229l-21 -105h-62q-249 0 -319 74t-27 295l50 258q29 150 -13.5 208t-184.5 58h-61l20 105h61q142 0 207.5 58t94.5 208l50 258q43 221 142 294.5t348 73.5h62l-21 -104h-68q-141 0 -192.5 -44t-78.5 -185l-56 -287q-31 -158 -94 -226t-199 -98q126 -34 162 -101 t5 -224l-56 -287q-27 -141 7.5 -185t175.5 -44h68z" />
<glyph unicode="|" horiz-adv-x="690" d="M426 1565v-2048h-162v2048h162z" />
<glyph unicode="}" horiz-adv-x="1303" d="M93 -229h70q140 0 191 43.5t78 185.5l56 287q31 157 93 224t199 101q-124 30 -160.5 98t-5.5 226l56 287q28 142 -6.5 185.5t-174.5 43.5h-70l21 104h63q249 0 318 -73.5t26 -294.5l-50 -258q-29 -150 13.5 -208t184.5 -58h62l-20 -105h-62q-142 0 -207.5 -58t-94.5 -208 l-50 -258q-43 -221 -141 -295t-347 -74h-63z" />
<glyph unicode="~" horiz-adv-x="1716" d="M1499 807v-148q-100 -88 -190 -130t-183 -42q-96 0 -270 66l-10 4q-11 4 -33 13q-147 57 -242 57q-92 0 -178.5 -36.5t-175.5 -113.5v152q100 87 189.5 127.5t183.5 40.5q96 0 270 -66l10 -4q11 -4 31 -12q145 -58 242 -58q92 0 180 37t176 113z" />
<glyph unicode="&#xa1;" horiz-adv-x="823" d="M560 1522q55 0 86.5 -39t20.5 -94q-11 -56 -57.5 -95t-101.5 -39q-57 0 -87.5 39t-19.5 95t56.5 94.5t102.5 38.5zM135 0l227 821l49 252h123l-49 -252l-92 -821h-258z" />
<glyph unicode="&#xa2;" horiz-adv-x="1303" d="M719 991q-132 -15 -219 -130t-129 -329q-41 -215 1 -330t168 -130zM1063 319q-65 -154 -175.5 -240.5t-266.5 -105.5l-53 -270h-100l53 270q-216 19 -314.5 169t-52.5 390q48 242 204.5 391.5t379.5 166.5l52 266h100l-52 -266q90 -8 169.5 -31t152.5 -62l-53 -272h-106 q5 123 -40 188.5t-142 77.5l-179 -919q92 12 162.5 75.5t112.5 171.5h148z" />
<glyph unicode="&#xa3;" horiz-adv-x="1303" d="M1193 1225h-105q9 95 -38 145.5t-143 50.5q-127 0 -202.5 -77.5t-107.5 -241.5l-57 -295h412l-21 -107h-412l-112 -579h478l44 227h116l-68 -348h-987l21 106h193l115 594h-193l21 107h193l57 295q40 205 175.5 311.5t356.5 106.5q85 0 163.5 -12.5t148.5 -37.5z" />
<glyph unicode="&#xa4;" horiz-adv-x="1303" d="M901 985l209 207l94 -94l-209 -209q43 -60 63.5 -121t20.5 -127q0 -69 -20.5 -128t-65.5 -116l207 -207l-96 -94l-207 205q-56 -44 -115.5 -65t-128.5 -21q-64 0 -126.5 20.5t-123.5 61.5l-204 -205l-95 94l205 207q-41 62 -61.5 123t-20.5 125q0 70 21 129.5t65 116.5 l-207 207l95 94l207 -207q56 44 116 65t129 21q66 0 127 -20t121 -62zM922 643q0 112 -77.5 189t-191.5 77q-112 0 -190 -77t-78 -189q0 -114 77.5 -192t190.5 -78t191 78.5t78 191.5z" />
<glyph unicode="&#xa5;" horiz-adv-x="1303" d="M215 0l20 106h191l72 367h-404l20 105h404l13 65l-55 141h-322l21 105h263l-191 497h-139l21 107h553l-21 -107h-175l226 -604l456 604h-167l21 107h432l-21 -107h-142l-380 -497h272l-21 -105h-332l-94 -122l-17 -84h403l-20 -105h-403l-72 -367h190l-20 -106h-582z" />
<glyph unicode="&#xa6;" horiz-adv-x="690" d="M426 408v-758h-162v758h162zM426 1432v-758h-162v758h162z" />
<glyph unicode="&#xa7;" horiz-adv-x="1024" d="M432 936q-77 -46 -112.5 -87.5t-45.5 -94.5q-26 -132 298 -335l28 -18q66 38 104.5 86t49.5 105q15 75 -41.5 142t-280.5 202zM985 1464l-39 -202h-92q12 72 -32 113.5t-132 41.5q-100 0 -167 -48.5t-83 -131.5q-19 -97 200 -234q23 -15 34 -22q174 -109 222 -184 t28 -174q-18 -95 -83 -158t-187 -107q69 -47 93 -110t6 -154q-25 -131 -142.5 -210t-290.5 -79q-90 0 -167 13.5t-149 42.5l41 209l92 -1q-14 -80 32 -120.5t153 -40.5q104 0 174 49t87 133q22 113 -182 240q-18 12 -28 18q-192 122 -240.5 197t-29.5 174q18 94 90 160.5 t187 97.5q-72 49 -99.5 112t-11.5 142q25 130 140.5 209.5t281.5 79.5q78 0 151 -14t143 -42z" />
<glyph unicode="&#xa8;" horiz-adv-x="1024" d="M534 1569q48 0 76 -35q27 -34 18 -82q-10 -51 -49 -84q-40 -33 -91 -33q-50 0 -76 33q-27 33 -17 84q9 48 51 82q41 35 88 35zM924 1569q47 0 75 -35q27 -34 18 -82q-10 -51 -49 -84q-40 -33 -90 -33q-51 0 -77 33q-27 33 -17 84q9 48 51 82q41 35 89 35z" />
<glyph unicode="&#xa9;" horiz-adv-x="2048" d="M1376 573q-27 -131 -117.5 -201.5t-232.5 -70.5q-187 0 -298.5 120t-111.5 320q0 201 112.5 322t297.5 121q80 0 157.5 -18.5t164.5 -57.5v-213h-84q-17 109 -74 160t-162 51q-119 0 -179.5 -91.5t-60.5 -273.5q0 -181 60 -271.5t178 -90.5q97 0 153.5 47.5t77.5 146.5 h119zM1765 741q0 -152 -54 -282.5t-163 -239.5t-240.5 -164t-283.5 -55t-283.5 55t-240.5 164t-163 239.5t-54 282.5q0 154 54 285t163 240t240.5 164t283.5 55t283.5 -55t240.5 -164t163 -240t54 -285zM1024 1382q-131 0 -244 -47t-207 -141q-93 -93 -140.5 -207.5 t-47.5 -245.5q0 -130 47.5 -243t140.5 -207q94 -94 207 -141.5t244 -47.5q132 0 245.5 47.5t207.5 141.5q93 93 139.5 206t46.5 244q0 133 -47 246.5t-139 206.5q-94 94 -207.5 141t-245.5 47z" />
<glyph unicode="&#xaa;" horiz-adv-x="973" d="M613 756l34 178q-60 -77 -124 -121q-66 -43 -139 -57q-33 -6 -61 -6q-94 0 -145 67q-45 58 -45 152q0 46 10 100q33 166 139 285q107 118 246 145q29 5 54 5q40 0 72 -13q53 -22 87 -81l15 84h126l-126 -650h128l-17 -88h-254zM685 1130l17 86q6 32 6 59q0 61 -31 97 q-33 41 -93 41q-20 0 -42 -4q-97 -18 -164 -100q-68 -83 -93 -213q-10 -51 -10 -92q0 -64 24 -102q31 -48 96 -48q19 0 41 4q91 17 160 93t89 179zM92 639h698l-20 -104h-698z" />
<glyph unicode="&#xab;" horiz-adv-x="1253" d="M1150 1059l-22 -115l-364 -344l230 -344l-22 -115l-388 418l16 82zM716 1059l-22 -115l-364 -344l230 -344l-22 -115l-388 418l16 82z" />
<glyph unicode="&#xac;" horiz-adv-x="1716" d="M217 862h1282v-575h-160v413h-1122v162z" />
<glyph unicode="&#xad;" horiz-adv-x="692" d="M105 627h512l-30 -156h-512z" />
<glyph unicode="&#xae;" horiz-adv-x="2048" d="M895 791h125q83 0 124.5 38t41.5 113q0 74 -42 112t-124 38h-125v-301zM1141 754q42 -14 71.5 -39.5t49.5 -65.5l116 -229h76v-68h-190l-131 254q-35 70 -66 93.5t-80 23.5h-92v-303h84v-68h-317v68h83v672h-83v67h415q128 0 193 -56t65 -165q0 -83 -48 -128.5 t-146 -55.5zM1024 1382q-131 0 -244 -47t-207 -141q-93 -93 -140.5 -207.5t-47.5 -245.5q0 -130 47.5 -243t140.5 -207q94 -94 207 -141.5t244 -47.5q132 0 245.5 47.5t207.5 141.5q93 93 139.5 206t46.5 244q0 133 -47 246.5t-139 206.5q-94 94 -207.5 141t-245.5 47z M1765 741q0 -152 -54 -282.5t-163 -239.5t-240.5 -164t-283.5 -55t-283.5 55t-240.5 164t-163 239.5t-54 282.5q0 154 54 285t163 240t240.5 164t283.5 55t283.5 -55t240.5 -164t163 -240t54 -285z" />
<glyph unicode="&#xaf;" horiz-adv-x="1024" d="M396 1526h598l-28 -148h-598z" />
<glyph unicode="&#xb0;" horiz-adv-x="1024" d="M512 1382q-76 0 -128 -52.5t-52 -129.5q0 -76 51.5 -127t128.5 -51q76 0 128 51.5t52 126.5t-53 128.5t-127 53.5zM512 1520q64 0 123 -24.5t102 -70.5q46 -45 69 -102t23 -123q0 -132 -92.5 -223.5t-226.5 -91.5q-135 0 -225 90t-90 225q0 134 92 227t225 93z" />
<glyph unicode="&#xb1;" horiz-adv-x="1716" d="M938 1284v-391h561v-162h-561v-391h-160v391h-561v162h561v391h160zM217 160h1282v-160h-1282v160z" />
<glyph unicode="&#xb2;" horiz-adv-x="821" d="M209 1296h-70l31 158q72 32 145.5 49t142.5 17q138 0 210.5 -66t52.5 -170q-24 -122 -252 -296l-22 -17l-280 -215h385l21 108h74l-38 -196h-602l15 75l334 254q101 77 150 138t62 127q16 85 -23 134.5t-123 49.5q-78 0 -132 -38t-81 -112z" />
<glyph unicode="&#xb3;" horiz-adv-x="821" d="M199 1468q78 26 147.5 39t128.5 13q138 0 202 -54t45 -153q-14 -72 -76.5 -122t-161.5 -67q116 -16 165 -75.5t30 -159.5q-23 -114 -122 -175t-262 -61q-72 0 -139 14t-129 42l33 170l69 -1q-9 -74 32.5 -112.5t133.5 -38.5q94 0 153.5 44t75.5 126q18 93 -23.5 140.5 t-142.5 47.5h-53l14 74h27q97 0 153.5 37t71.5 111q13 67 -20.5 103t-109.5 36q-82 0 -132 -32t-69 -97h-70z" />
<glyph unicode="&#xb4;" horiz-adv-x="1024" d="M858 1638h199l-414 -376h-117z" />
<glyph unicode="&#xb5;" horiz-adv-x="1331" d="M1044 1063h184l-187 -959h174l-20 -104h-358l37 188q-73 -106 -157.5 -161.5t-174.5 -55.5q-57 0 -100.5 18t-75.5 54l-91 -469h-184l269 1382h-166l21 107h350l-121 -619q-19 -102 -19 -170q0 -62 16 -96q34 -72 155 -72q128 0 213 94t120 273z" />
<glyph unicode="&#xb6;" horiz-adv-x="1303" d="M797 1493h538l-21 -107h-118l-307 -1583h-107l307 1583h-231l-307 -1583h-107l164 846q-212 17 -308 127.5t-60 294.5q37 190 189.5 306t367.5 116z" />
<glyph unicode="&#xb7;" horiz-adv-x="651" d="M190 711q11 56 57 94.5t103 38.5q55 0 86.5 -39t20.5 -94q-11 -56 -57.5 -94.5t-101.5 -38.5q-57 0 -88 38t-20 95z" />
<glyph unicode="&#xb8;" horiz-adv-x="1024" d="M616 0q52 -64 72.5 -120t11.5 -105q-16 -81 -87.5 -125.5t-183.5 -44.5q-42 0 -85 6t-87 18l26 131q37 -17 75 -25.5t73 -8.5q57 0 95 26.5t47 71.5q6 28 -7.5 72t-46.5 104h97z" />
<glyph unicode="&#xb9;" horiz-adv-x="821" d="M95 668l16 84h172l123 634l-221 -106l18 94l265 129h102l-146 -751h173l-16 -84h-486z" />
<glyph unicode="&#xba;" horiz-adv-x="963" d="M439 813q106 0 175 79.5t99.5 235.5t-8 236t-143.5 80q-104 0 -174.5 -81t-99.5 -235q-31 -155 7.5 -235t143.5 -80zM425 737q-175 0 -260.5 107.5t-50.5 283.5q34 177 161 284.5t302 107.5t260 -107.5t50.5 -284.5t-160.5 -284t-302 -107zM61 639h688l-20 -104h-688z " />
<glyph unicode="&#xbb;" horiz-adv-x="1253" d="M716 1059l388 -418l-16 -82l-550 -418l22 115l364 344l-230 344zM282 1059l388 -418l-16 -82l-550 -418l22 115l363 344l-229 344z" />
<glyph unicode="&#xbc;" horiz-adv-x="1985" d="M1462 303l79 407l-387 -407h308zM1691 0h-434l16 84h146l27 137h-398l16 84l503 530h141l-103 -532h164l-16 -82h-164l-27 -137h145zM1539 1520h150l-1244 -1549h-150zM95 668l16 84h172l123 634l-221 -106l18 94l265 129h102l-146 -751h173l-16 -84h-486z" />
<glyph unicode="&#xbd;" horiz-adv-x="1985" d="M1539 1520h150l-1244 -1549h-150zM95 668l16 84h172l123 634l-221 -106l18 94l265 129h102l-146 -751h173l-16 -84h-486zM1242 628h-70l31 158q72 32 145.5 49t142.5 17q138 0 210.5 -66t52.5 -170q-24 -122 -252 -296l-22 -17l-280 -215h385l21 108h74l-38 -196h-602 l15 75l334 254q101 77 150 138t62 127q16 85 -23 134.5t-123 49.5q-78 0 -132 -38t-81 -112z" />
<glyph unicode="&#xbe;" horiz-adv-x="1985" d="M1462 303l79 407l-387 -407h308zM1691 0h-434l16 84h146l27 137h-398l16 84l503 530h141l-103 -532h164l-16 -82h-164l-27 -137h145zM1539 1520h150l-1244 -1549h-150zM199 1468q78 26 147.5 39t128.5 13q138 0 202 -54t45 -153q-14 -72 -76.5 -122t-161.5 -67 q116 -16 165 -75.5t30 -159.5q-23 -114 -122 -175t-262 -61q-72 0 -139 14t-129 42l33 170l69 -1q-9 -74 32.5 -112.5t133.5 -38.5q94 0 153.5 44t75.5 126q18 93 -23.5 140.5t-142.5 47.5h-53l14 74h27q97 0 153.5 37t71.5 111q13 67 -20.5 103t-109.5 36q-82 0 -132 -32 t-69 -97h-70z" />
<glyph unicode="&#xbf;" horiz-adv-x="1098" d="M744 1255q-55 0 -86.5 39t-20.5 95q10 55 57 94t102 39q57 0 87.5 -38.5t19.5 -94.5t-57 -95t-102 -39zM867 66q-116 -47 -215.5 -70t-184.5 -23q-221 0 -329 107t-73 289q37 186 170.5 304t366.5 169l50 254h123l-64 -328q-185 -43 -295 -144t-140 -257 q-27 -137 31.5 -216t184.5 -79q113 0 198.5 65.5t130.5 188.5h96z" />
<glyph unicode="&#xc0;" d="M370 541h548l-136 710zM-157 0l20 106h131l802 1387h168l264 -1387h146l-20 -106h-543l20 106h166l-61 328h-628l-189 -328h164l-20 -106h-420zM866 1899l131 -264h-117l-210 264h196z" />
<glyph unicode="&#xc1;" d="M370 541h548l-136 710zM-157 0l20 106h131l802 1387h168l264 -1387h146l-20 -106h-543l20 106h166l-61 328h-628l-189 -328h164l-20 -106h-420zM1051 1899h197l-314 -264h-117z" />
<glyph unicode="&#xc2;" d="M370 541h548l-136 710zM-157 0l20 106h131l802 1387h168l264 -1387h146l-20 -106h-543l20 106h166l-61 328h-628l-189 -328h164l-20 -106h-420zM852 1899h176l179 -264h-116l-171 161l-235 -161h-116z" />
<glyph unicode="&#xc3;" d="M370 541h548l-136 710zM-157 0l20 106h131l802 1387h168l264 -1387h146l-20 -106h-543l20 106h166l-61 328h-628l-189 -328h164l-20 -106h-420zM913 1715l-43 28q-17 13 -36 20t-36 7q-39 0 -71 -29q-31 -28 -44 -74l-96 1q21 100 84 159q62 59 147 59q36 0 66 -9 q29 -9 78 -40l44 -26q20 -13 41 -20q20 -7 37 -7q41 0 70 27q29 28 38 75h97q-22 -105 -85 -162q-62 -57 -156 -57q-67 0 -131 45z" />
<glyph unicode="&#xc4;" d="M750 1884q48 0 75 -35q28 -35 19 -81q-10 -50 -50 -83q-40 -34 -90 -34q-49 0 -76 34q-27 33 -17 83q9 46 50 81q42 35 89 35zM1140 1884q47 0 74 -35q28 -35 19 -81q-10 -50 -50 -83q-40 -34 -89 -34q-50 0 -77 34q-27 33 -17 83q9 46 50 81q42 35 90 35zM370 541h548 l-136 710zM-157 0l20 106h131l802 1387h168l264 -1387h146l-20 -106h-543l20 106h166l-61 328h-628l-189 -328h164l-20 -106h-420z" />
<glyph unicode="&#xc5;" d="M897 1778q-64 0 -116 -43.5t-65 -108.5q-12 -63 23 -107t99 -44q63 0 116 44t65.5 107t-23.5 107.5t-99 44.5zM331 541h546l-134 710zM-196 0l21 106h131l737 1278q-65 37 -90.5 98t-9.5 144q22 114 118 194.5t210 80.5t178.5 -80.5t42.5 -194.5q-15 -80 -66.5 -143.5 t-130.5 -98.5l244 -1278h147l-21 -106h-543l21 106h166l-61 328h-628l-189 -328h164l-21 -106h-420z" />
<glyph unicode="&#xc6;" horiz-adv-x="2050" d="M387 541h489l164 845h-100zM581 0l20 106h190l64 328h-538l-216 -328h164l-20 -106h-424l20 106h131l839 1280h-215l21 107h1456l-64 -332h-123l40 209h-688l-97 -500h492l36 187h123l-96 -496h-123l36 187h-492l-121 -625h705l40 209h123l-64 -332h-1219z" />
<glyph unicode="&#xc7;" horiz-adv-x="1567" d="M1376 395q-107 -209 -283.5 -316.5t-414.5 -107.5q-146 0 -261 50t-193 147q-90 112 -117 254.5t8 322.5q68 348 310.5 561.5t571.5 213.5q122 0 253.5 -32t277.5 -97l-66 -344h-113q-1 188 -95 277t-295 89q-239 0 -395 -169.5t-220 -498.5q-64 -328 26 -497.5 t329 -169.5q167 0 290.5 79.5t202.5 237.5h184zM738 0q52 -64 72.5 -120t11.5 -105q-16 -81 -87.5 -125.5t-183.5 -44.5q-42 0 -85 6t-87 18l26 131q37 -17 75 -25.5t73 -8.5q57 0 95 26.5t47 71.5q6 28 -7.5 72t-46.5 104h97z" />
<glyph unicode="&#xc8;" horiz-adv-x="1495" d="M-32 0l20 106h190l249 1280h-190l21 107h1202l-64 -332h-123l40 209h-686l-97 -500h489l36 187h123l-96 -496h-123l36 187h-489l-121 -625h702l40 209h123l-64 -332h-1218zM946 1899l131 -264h-117l-210 264h196z" />
<glyph unicode="&#xc9;" horiz-adv-x="1495" d="M1059 1899h197l-314 -264h-117zM-32 0l20 106h190l249 1280h-190l21 107h1202l-64 -332h-123l40 209h-686l-97 -500h489l36 187h123l-96 -496h-123l36 187h-489l-121 -625h702l40 209h123l-64 -332h-1218z" />
<glyph unicode="&#xca;" horiz-adv-x="1495" d="M-32 0l20 106h190l249 1280h-190l21 107h1202l-64 -332h-123l40 209h-686l-97 -500h489l36 187h123l-96 -496h-123l36 187h-489l-121 -625h702l40 209h123l-64 -332h-1218zM908 1899h176l179 -264h-116l-171 161l-235 -161h-116z" />
<glyph unicode="&#xcb;" horiz-adv-x="1495" d="M-32 0l20 106h190l249 1280h-190l21 107h1202l-64 -332h-123l40 209h-686l-97 -500h489l36 187h123l-96 -496h-123l36 187h-489l-121 -625h702l40 209h123l-64 -332h-1218zM812 1884q48 0 75 -35q28 -35 19 -81q-10 -50 -50 -83q-40 -34 -90 -34q-49 0 -76 34 q-27 33 -17 83q9 46 50 81q42 35 89 35zM1202 1884q47 0 74 -35q28 -35 19 -81q-10 -50 -50 -83q-40 -34 -89 -34q-50 0 -77 34q-27 33 -17 83q9 46 50 81q42 35 90 35z" />
<glyph unicode="&#xcc;" horiz-adv-x="809" d="M381 106h190l-20 -106h-583l20 106h190l249 1280h-190l21 107h583l-21 -107h-190zM569 1899l131 -264h-117l-210 264h196z" />
<glyph unicode="&#xcd;" horiz-adv-x="809" d="M381 106h190l-20 -106h-583l20 106h190l249 1280h-190l21 107h583l-21 -107h-190zM718 1899h197l-314 -264h-117z" />
<glyph unicode="&#xce;" horiz-adv-x="809" d="M381 106h190l-20 -106h-583l20 106h190l249 1280h-190l21 107h583l-21 -107h-190zM567 1899h176l179 -264h-116l-171 161l-235 -161h-116z" />
<glyph unicode="&#xcf;" horiz-adv-x="809" d="M381 106h190l-20 -106h-583l20 106h190l249 1280h-190l21 107h583l-21 -107h-190zM435 1884q48 0 75 -35q28 -35 19 -81q-10 -50 -50 -83q-40 -34 -90 -34q-49 0 -76 34q-27 33 -17 83q9 46 50 81q42 35 89 35zM825 1884q47 0 74 -35q28 -35 19 -81q-10 -50 -50 -83 q-40 -34 -89 -34q-50 0 -77 34q-27 33 -17 83q9 46 50 81q42 35 90 35z" />
<glyph unicode="&#xd0;" horiz-adv-x="1653" d="M390 106h188q291 0 479.5 166t249 476t-63.5 474t-416 164h-188l-105 -542h336l-24 -125h-336zM-21 0l20 106h190l120 613h-200l24 125h200l105 542h-190l21 107h594q386 0 563.5 -197t108.5 -548q-68 -352 -322.5 -550t-639.5 -198h-594z" />
<glyph unicode="&#xd1;" horiz-adv-x="1792" d="M1107 1715l-43 28q-17 13 -36 20t-36 7q-39 0 -71 -29q-31 -28 -44 -74l-96 1q21 100 84 159q62 59 147 59q36 0 66 -9q29 -9 78 -40l44 -26q20 -13 41 -20q20 -7 37 -7q41 0 70 27q29 28 38 75h97q-22 -105 -85 -162q-62 -57 -156 -57q-67 0 -131 45zM-42 0l20 106h201 l249 1280h-201l21 107h383l666 -1178l208 1071h-200l21 107h524l-21 -107h-201l-275 -1415h-121l-711 1258l-219 -1123h201l-20 -106h-525z" />
<glyph unicode="&#xd2;" horiz-adv-x="1679" d="M710 78q245 0 403 168.5t222 498.5q64 331 -28 499.5t-337 168.5q-246 0 -404 -168.5t-222 -499.5q-64 -330 28 -498.5t338 -168.5zM689 -29q-152 0 -269.5 50t-195.5 147q-90 112 -117 254t8 323t117 323.5t216 254.5q117 98 253 147.5t290 49.5q325 0 483.5 -213 t90.5 -562q-35 -179 -118 -322.5t-216 -254.5q-117 -98 -253 -147.5t-289 -49.5zM1038 1899l131 -264h-117l-210 264h196z" />
<glyph unicode="&#xd3;" horiz-adv-x="1679" d="M710 78q245 0 403 168.5t222 498.5q64 331 -28 499.5t-337 168.5q-246 0 -404 -168.5t-222 -499.5q-64 -330 28 -498.5t338 -168.5zM689 -29q-152 0 -269.5 50t-195.5 147q-90 112 -117 254t8 323t117 323.5t216 254.5q117 98 253 147.5t290 49.5q325 0 483.5 -213 t90.5 -562q-35 -179 -118 -322.5t-216 -254.5q-117 -98 -253 -147.5t-289 -49.5zM1151 1899h197l-314 -264h-117z" />
<glyph unicode="&#xd4;" horiz-adv-x="1679" d="M710 78q245 0 403 168.5t222 498.5q64 331 -28 499.5t-337 168.5q-246 0 -404 -168.5t-222 -499.5q-64 -330 28 -498.5t338 -168.5zM689 -29q-152 0 -269.5 50t-195.5 147q-90 112 -117 254t8 323t117 323.5t216 254.5q117 98 253 147.5t290 49.5q325 0 483.5 -213 t90.5 -562q-35 -179 -118 -322.5t-216 -254.5q-117 -98 -253 -147.5t-289 -49.5zM1000 1899h176l179 -264h-116l-171 161l-235 -161h-116z" />
<glyph unicode="&#xd5;" horiz-adv-x="1679" d="M710 78q245 0 403 168.5t222 498.5q64 331 -28 499.5t-337 168.5q-246 0 -404 -168.5t-222 -499.5q-64 -330 28 -498.5t338 -168.5zM689 -29q-152 0 -269.5 50t-195.5 147q-90 112 -117 254t8 323t117 323.5t216 254.5q117 98 253 147.5t290 49.5q325 0 483.5 -213 t90.5 -562q-35 -179 -118 -322.5t-216 -254.5q-117 -98 -253 -147.5t-289 -49.5zM1049 1715l-43 28q-17 13 -36 20t-36 7q-39 0 -71 -29q-31 -28 -44 -74l-96 1q21 100 84 159q62 59 147 59q36 0 66 -9q29 -9 78 -40l44 -26q20 -13 41 -20q20 -7 37 -7q41 0 70 27 q29 28 38 75h97q-22 -105 -85 -162q-62 -57 -156 -57q-67 0 -131 45z" />
<glyph unicode="&#xd6;" horiz-adv-x="1679" d="M904 1884q48 0 75 -35q28 -35 19 -81q-10 -50 -50 -83q-40 -34 -90 -34q-49 0 -76 34q-27 33 -17 83q9 46 50 81q42 35 89 35zM1294 1884q47 0 74 -35q28 -35 19 -81q-10 -50 -50 -83q-40 -34 -89 -34q-50 0 -77 34q-27 33 -17 83q9 46 50 81q42 35 90 35zM710 78 q245 0 403 168.5t222 498.5q64 331 -28 499.5t-337 168.5q-246 0 -404 -168.5t-222 -499.5q-64 -330 28 -498.5t338 -168.5zM689 -29q-152 0 -269.5 50t-195.5 147q-90 112 -117 254t8 323t117 323.5t216 254.5q117 98 253 147.5t290 49.5q325 0 483.5 -213t90.5 -562 q-35 -179 -118 -322.5t-216 -254.5q-117 -98 -253 -147.5t-289 -49.5z" />
<glyph unicode="&#xd7;" horiz-adv-x="1716" d="M1434 1104l-463 -463l463 -461l-115 -112l-461 460l-461 -460l-114 112l460 461l-460 463l114 113l461 -461l461 461z" />
<glyph unicode="&#xd8;" horiz-adv-x="1679" d="M1311 1239q-48 88 -132 131t-208 43q-246 0 -404 -168.5t-222 -499.5q-23 -119 -26 -215.5t15 -177.5zM369 256q46 -89 131.5 -133.5t210.5 -44.5q245 0 403 168.5t222 498.5q22 117 25 215.5t-15 180.5zM1495 1276q66 -108 84 -239.5t-13 -291.5q-67 -345 -309.5 -559.5 t-566.5 -214.5q-141 0 -251.5 43t-194.5 129l-221 -200l-65 69l227 207q-66 105 -83 235.5t14 290.5q67 346 309.5 560.5t565.5 214.5q141 0 253 -42.5t192 -125.5l216 198l66 -71z" />
<glyph unicode="&#xd9;" horiz-adv-x="1726" d="M414 1386h-191l21 107h584l-21 -107h-191l-150 -772q-56 -286 16 -399t301 -113t344 113t171 399l150 772h-191l21 107h504l-21 -107h-190l-154 -792q-66 -341 -224.5 -482t-472.5 -141t-420 142t-40 481zM1102 1899l131 -264h-117l-210 264h196z" />
<glyph unicode="&#xda;" horiz-adv-x="1726" d="M414 1386h-191l21 107h584l-21 -107h-191l-150 -772q-56 -286 16 -399t301 -113t344 113t171 399l150 772h-191l21 107h504l-21 -107h-190l-154 -792q-66 -341 -224.5 -482t-472.5 -141t-420 142t-40 481zM1215 1899h197l-314 -264h-117z" />
<glyph unicode="&#xdb;" horiz-adv-x="1726" d="M414 1386h-191l21 107h584l-21 -107h-191l-150 -772q-56 -286 16 -399t301 -113t344 113t171 399l150 772h-191l21 107h504l-21 -107h-190l-154 -792q-66 -341 -224.5 -482t-472.5 -141t-420 142t-40 481zM1064 1899h176l179 -264h-116l-171 161l-235 -161h-116z" />
<glyph unicode="&#xdc;" horiz-adv-x="1726" d="M968 1884q48 0 75 -35q28 -35 19 -81q-10 -50 -50 -83q-40 -34 -90 -34q-49 0 -76 34q-27 33 -17 83q9 46 50 81q42 35 89 35zM1358 1884q47 0 74 -35q28 -35 19 -81q-10 -50 -50 -83q-40 -34 -89 -34q-50 0 -77 34q-27 33 -17 83q9 46 50 81q42 35 90 35zM414 1386h-191 l21 107h584l-21 -107h-191l-150 -772q-56 -286 16 -399t301 -113t344 113t171 399l150 772h-191l21 107h504l-21 -107h-190l-154 -792q-66 -341 -224.5 -482t-472.5 -141t-420 142t-40 481z" />
<glyph unicode="&#xdd;" horiz-adv-x="1352" d="M987 1899h197l-314 -264h-117zM242 0l20 106h191l105 537l-317 743h-140l21 107h555l-21 -107h-174l256 -604l490 604h-168l21 107h434l-21 -107h-141l-589 -724l-109 -556h191l-20 -106h-584z" />
<glyph unicode="&#xde;" horiz-adv-x="1384" d="M446 434h264q149 0 243 80.5t123 233.5q30 152 -32.5 232.5t-211.5 80.5h-264zM-31 0l20 106h190l249 1280h-190l21 107h624l-21 -107h-231l-42 -219h313q224 0 333 -113.5t71 -305.5q-37 -194 -191 -308t-377 -114h-313l-43 -220h231l-20 -106h-624z" />
<glyph unicode="&#xdf;" horiz-adv-x="1368" d="M1027 1210q15 119 -42 183.5t-176 64.5q-132 0 -205.5 -64.5t-100.5 -203.5l-244 -1256q-35 -178 -145 -269t-289 -91l12 98q105 0 156 56q53 60 82 206l243 1252q34 176 167.5 273t342.5 97q213 0 304.5 -104t62.5 -315h-22q-145 0 -239 -54t-112 -147 q-11 -52 8.5 -90.5t83.5 -85.5l79 -55q135 -99 178 -184t21 -199q-30 -155 -164.5 -253t-319.5 -98q-85 0 -165.5 18.5t-152.5 53.5l45 233h109q-15 -101 30 -153.5t147 -52.5q111 0 186.5 60.5t95.5 164.5q16 84 -12 143q-29 57 -132 131l-75 54q-92 66 -124 129 q-32 65 -16 147q24 122 124.5 204t258.5 107z" />
<glyph unicode="&#xe0;" horiz-adv-x="1221" d="M744 166q-133 -195 -348 -195q-176 0 -265 119q-62 84 -62 204q0 51 11 108q68 353 314 535q209 155 462 155q170 0 228 -29l-186 -957h158l-20 -106h-324zM263 300q0 -214 207 -214q126 0 211.5 100.5t123.5 292.5l93 482v0q0 29 -80 29q-192 0 -341 -150 q-148 -151 -201 -425q-13 -64 -13 -115zM621 1636l186 -376h-117l-266 376h197z" />
<glyph unicode="&#xe1;" horiz-adv-x="1221" d="M744 166q-133 -195 -348 -195q-176 0 -265 119q-62 84 -62 204q0 51 11 108q68 353 314 535q209 155 462 155q170 0 228 -29l-186 -957h158l-20 -106h-324zM263 300q0 -214 207 -214q126 0 211.5 100.5t123.5 292.5l93 482v0q0 29 -80 29q-192 0 -341 -150 q-148 -151 -201 -425q-13 -64 -13 -115zM915 1638h199l-414 -376h-117z" />
<glyph unicode="&#xe2;" horiz-adv-x="1221" d="M714 1638h168l161 -376h-116l-152 260l-254 -260h-116zM744 166q-133 -195 -348 -195q-176 0 -265 119q-62 84 -62 204q0 51 11 108q68 353 314 535q209 155 462 155q170 0 228 -29l-186 -957h158l-20 -106h-324zM263 300q0 -214 207 -214q126 0 211.5 100.5t123.5 292.5 l93 482v0q0 29 -80 29q-192 0 -341 -150q-148 -151 -201 -425q-13 -64 -13 -115z" />
<glyph unicode="&#xe3;" horiz-adv-x="1221" d="M760 1370l-46 55q-21 24 -36 31q-15 8 -34 8q-42 0 -74 -40q-32 -39 -51 -115h-96q28 135 93 209q65 73 156 73q38 0 68 -14q29 -14 60 -47l46 -55q18 -23 34 -31q15 -8 36 -8q43 0 75 40t50 115h96q-28 -135 -93 -209q-65 -73 -156 -73q-38 0 -68 14q-29 14 -60 47z M744 166q-133 -195 -348 -195q-176 0 -265 119q-62 84 -62 204q0 51 11 108q68 353 314 535q209 155 462 155q170 0 228 -29l-186 -957h158l-20 -106h-324zM263 300q0 -214 207 -214q126 0 211.5 100.5t123.5 292.5l93 482v0q0 29 -80 29q-192 0 -341 -150 q-148 -151 -201 -425q-13 -64 -13 -115z" />
<glyph unicode="&#xe4;" horiz-adv-x="1221" d="M744 166q-133 -195 -348 -195q-176 0 -265 119q-62 84 -62 204q0 51 11 108q68 353 314 535q209 155 462 155q170 0 228 -29l-186 -957h158l-20 -106h-324zM263 300q0 -214 207 -214q126 0 211.5 100.5t123.5 292.5l93 482v0q0 29 -80 29q-192 0 -341 -150 q-148 -151 -201 -425q-13 -64 -13 -115zM591 1569q48 0 76 -35q27 -34 18 -82q-10 -51 -49 -84q-40 -33 -91 -33q-50 0 -76 33q-27 33 -17 84q9 48 51 82q41 35 88 35zM981 1569q47 0 75 -35q27 -34 18 -82q-10 -51 -49 -84q-40 -33 -90 -33q-51 0 -77 33q-27 33 -17 84 q9 48 51 82q41 35 89 35z" />
<glyph unicode="&#xe5;" horiz-adv-x="1221" d="M602 1718q95 80 210 80t179 -80q64 -79 42 -194t-117 -195t-210 -80t-179 80t-42 195t117 194zM911 1524q12 63 -23 107q-36 44 -100 44q-65 0 -117 -43q-51 -44 -64 -108q-13 -65 23 -108q35 -44 100 -44q64 0 116 44q53 44 65 108zM744 166q-133 -195 -348 -195 q-176 0 -265 119q-62 84 -62 204q0 51 11 108q68 353 314 535q209 155 462 155q170 0 228 -29l-186 -957h158l-20 -106h-324zM263 300q0 -214 207 -214q126 0 211.5 100.5t123.5 292.5l93 482v0q0 29 -80 29q-192 0 -341 -150q-148 -151 -201 -425q-13 -64 -13 -115z" />
<glyph unicode="&#xe6;" horiz-adv-x="1925" d="M1526 632q112 66 112 190q0 171 -227 171q-134 0 -227 -102t-150 -377q317 14 492 118zM1195 -29q-238 0 -344 196q-144 -196 -441 -196h-14q-176 0 -265 119q-62 84 -62 204q0 51 11 108q68 353 314 535q209 155 462 155q170 0 228 -29l-19 -97q159 126 377 126 q391 0 391 -277q0 -399 -820 -407q-4 -38 -4 -72q0 -94 34 -156q59 -110 217 -110q116 0 173 35q102 63 126 144h135q-40 -127 -189 -216q-104 -62 -310 -62zM276 415q-13 -65 -13 -118q0 -211 207 -211q126 0 211.5 100.5t123.5 292.5l93 482q0 29 -80 29q-192 0 -341 -150 q-148 -151 -201 -425z" />
<glyph unicode="&#xe7;" horiz-adv-x="1147" d="M1012 319q-72 -170 -200.5 -259t-304.5 -89q-232 0 -343 153q-77 107 -77 261q0 69 15 147q50 255 220.5 407.5t402.5 152.5q101 0 196.5 -23.5t186.5 -71.5l-52 -272h-107v26q0 120 -52 178q-58 64 -189 64q-149 0 -247.5 -115.5t-143.5 -345.5q-20 -105 -20 -187 q0 -96 28 -159q53 -116 203 -116q119 0 202 62t134 187h148zM556 0q52 -64 72.5 -120t11.5 -105q-16 -81 -87.5 -125.5t-183.5 -44.5q-42 0 -85 6t-87 18l26 131q37 -17 75 -25.5t73 -8.5q57 0 95 26.5t47 71.5q6 28 -7.5 72t-46.5 104h97z" />
<glyph unicode="&#xe8;" horiz-adv-x="1212" d="M300 408q-4 -38 -4 -72q0 -94 34 -156q59 -110 217 -110q116 0 173 35q102 63 126 144h135q-40 -127 -189 -216q-104 -62 -310 -62t-317 153q-78 107 -78 262q0 68 15 145q49 253 218 407t409 154q391 0 391 -277q0 -203 -205 -302q-209 -101 -615 -105zM813 632 q112 66 112 190q0 171 -227 171q-134 0 -227 -102t-150 -377q321 15 492 118zM658 1636l186 -376h-117l-266 376h197z" />
<glyph unicode="&#xe9;" horiz-adv-x="1212" d="M300 408q-4 -38 -4 -72q0 -94 34 -156q59 -110 217 -110q116 0 173 35q102 63 126 144h135q-40 -127 -189 -216q-104 -62 -310 -62t-317 153q-78 107 -78 262q0 68 15 145q49 253 218 407t409 154q391 0 391 -277q0 -203 -205 -302q-209 -101 -615 -105zM813 632 q112 66 112 190q0 171 -227 171q-134 0 -227 -102t-150 -377q321 15 492 118zM952 1638h199l-414 -376h-117z" />
<glyph unicode="&#xea;" horiz-adv-x="1212" d="M751 1638h168l161 -376h-116l-152 260l-254 -260h-116zM300 408q-4 -38 -4 -72q0 -94 34 -156q59 -110 217 -110q116 0 173 35q102 63 126 144h135q-40 -127 -189 -216q-104 -62 -310 -62t-317 153q-78 107 -78 262q0 68 15 145q49 253 218 407t409 154q391 0 391 -277 q0 -203 -205 -302q-209 -101 -615 -105zM813 632q112 66 112 190q0 171 -227 171q-134 0 -227 -102t-150 -377q321 15 492 118z" />
<glyph unicode="&#xeb;" horiz-adv-x="1212" d="M300 408q-4 -38 -4 -72q0 -94 34 -156q59 -110 217 -110q116 0 173 35q102 63 126 144h135q-40 -127 -189 -216q-104 -62 -310 -62t-317 153q-78 107 -78 262q0 68 15 145q49 253 218 407t409 154q391 0 391 -277q0 -203 -205 -302q-209 -101 -615 -105zM813 632 q112 66 112 190q0 171 -227 171q-134 0 -227 -102t-150 -377q321 15 492 118zM628 1569q48 0 76 -35q27 -34 18 -82q-10 -51 -49 -84q-40 -33 -91 -33q-50 0 -76 33q-27 33 -17 84q9 48 51 82q41 35 88 35zM1018 1569q47 0 75 -35q27 -34 18 -82q-10 -51 -49 -84 q-40 -33 -90 -33q-51 0 -77 33q-27 33 -17 84q9 48 51 82q41 35 89 35z" />
<glyph unicode="&#xec;" horiz-adv-x="655" d="M351 106h174l-20 -106h-358l186 956h-176l20 107h360zM380 1636l186 -376h-117l-266 376h197z" />
<glyph unicode="&#xed;" horiz-adv-x="655" d="M351 106h174l-20 -106h-358l186 956h-176l20 107h360zM674 1638h199l-414 -376h-117z" />
<glyph unicode="&#xee;" horiz-adv-x="655" d="M351 106h174l-20 -106h-358l186 956h-176l20 107h360zM473 1638h168l161 -376h-116l-152 260l-254 -260h-116z" />
<glyph unicode="&#xef;" horiz-adv-x="655" d="M351 106h174l-20 -106h-358l186 956h-176l20 107h360zM350 1569q48 0 76 -35q27 -34 18 -82q-10 -51 -49 -84q-40 -33 -91 -33q-50 0 -76 33q-27 33 -17 84q9 48 51 82q41 35 88 35zM740 1569q47 0 75 -35q27 -34 18 -82q-10 -51 -49 -84q-40 -33 -90 -33q-51 0 -77 33 q-27 33 -17 84q9 48 51 82q41 35 89 35z" />
<glyph unicode="&#xf0;" horiz-adv-x="1233" d="M853 928q-43 9 -83 13.5t-80 4.5q-173 0 -276 -107t-147 -331q-40 -210 16 -324t198 -114q144 0 244 114.5t141 327.5q22 112 19 217.5t-32 198.5zM866 1307q150 -167 205.5 -362.5t13.5 -412.5q-49 -254 -219.5 -407.5t-403.5 -153.5q-229 0 -342 151.5t-66 395.5 q46 236 215.5 381t397.5 145q35 0 71.5 -3t87.5 -11q-12 53 -38 106.5t-65 108.5l-351 -149l-22 78l319 135q-50 58 -120.5 98.5t-161.5 62.5l35 86q114 -26 209.5 -73t174.5 -115l351 150l21 -78z" />
<glyph unicode="&#xf1;" horiz-adv-x="1319" d="M790 1370l-46 55q-21 24 -36 31q-15 8 -34 8q-42 0 -74 -40q-32 -39 -51 -115h-96q28 135 93 209q65 73 156 73q38 0 68 -14q29 -14 60 -47l46 -55q18 -23 34 -31q15 -8 36 -8q43 0 75 40t50 115h96q-28 -135 -93 -209q-65 -73 -156 -73q-38 0 -68 14q-29 14 -60 47z M144 0l186 956h-176l20 107h360l-36 -189q72 108 164 163t200 55q176 0 240 -101q38 -61 38 -163q0 -67 -17 -152l-111 -570h164l-20 -106h-349l120 618q20 103 20 172q0 61 -16 96q-34 72 -155 72q-128 0 -213 -93.5t-120 -272.5l-115 -592h-184z" />
<glyph unicode="&#xf2;" horiz-adv-x="1233" d="M526 70q148 0 246.5 117t142.5 345q20 104 20 185q0 96 -28 159q-53 117 -201 117t-246.5 -116.5t-142.5 -344.5q-20 -104 -20 -184q0 -97 29 -161q53 -117 200 -117zM507 -29q-232 0 -343 153q-77 107 -77 261q0 69 15 147q49 254 219.5 407t403.5 153t344 -153 q76 -106 76 -260q0 -69 -15 -147q-49 -254 -219.5 -407.5t-403.5 -153.5zM668 1636l186 -376h-117l-266 376h197z" />
<glyph unicode="&#xf3;" horiz-adv-x="1233" d="M526 70q148 0 246.5 117t142.5 345q20 104 20 185q0 96 -28 159q-53 117 -201 117t-246.5 -116.5t-142.5 -344.5q-20 -104 -20 -184q0 -97 29 -161q53 -117 200 -117zM507 -29q-232 0 -343 153q-77 107 -77 261q0 69 15 147q49 254 219.5 407t403.5 153t344 -153 q76 -106 76 -260q0 -69 -15 -147q-49 -254 -219.5 -407.5t-403.5 -153.5zM962 1638h199l-414 -376h-117z" />
<glyph unicode="&#xf4;" horiz-adv-x="1233" d="M761 1638h168l161 -376h-116l-152 260l-254 -260h-116zM526 70q148 0 246.5 117t142.5 345q20 104 20 185q0 96 -28 159q-53 117 -201 117t-246.5 -116.5t-142.5 -344.5q-20 -104 -20 -184q0 -97 29 -161q53 -117 200 -117zM507 -29q-232 0 -343 153q-77 107 -77 261 q0 69 15 147q49 254 219.5 407t403.5 153t344 -153q76 -106 76 -260q0 -69 -15 -147q-49 -254 -219.5 -407.5t-403.5 -153.5z" />
<glyph unicode="&#xf5;" horiz-adv-x="1233" d="M807 1370l-46 55q-21 24 -36 31q-15 8 -34 8q-42 0 -74 -40q-32 -39 -51 -115h-96q28 135 93 209q65 73 156 73q38 0 68 -14q29 -14 60 -47l46 -55q18 -23 34 -31q15 -8 36 -8q43 0 75 40t50 115h96q-28 -135 -93 -209q-65 -73 -156 -73q-38 0 -68 14q-29 14 -60 47z M526 70q148 0 246.5 117t142.5 345q20 104 20 185q0 96 -28 159q-53 117 -201 117t-246.5 -116.5t-142.5 -344.5q-20 -104 -20 -184q0 -97 29 -161q53 -117 200 -117zM507 -29q-232 0 -343 153q-77 107 -77 261q0 69 15 147q49 254 219.5 407t403.5 153t344 -153 q76 -106 76 -260q0 -69 -15 -147q-49 -254 -219.5 -407.5t-403.5 -153.5z" />
<glyph unicode="&#xf6;" horiz-adv-x="1233" d="M526 70q148 0 246.5 117t142.5 345q20 104 20 185q0 96 -28 159q-53 117 -201 117t-246.5 -116.5t-142.5 -344.5q-20 -104 -20 -184q0 -97 29 -161q53 -117 200 -117zM507 -29q-232 0 -343 153q-77 107 -77 261q0 69 15 147q49 254 219.5 407t403.5 153t344 -153 q76 -106 76 -260q0 -69 -15 -147q-49 -254 -219.5 -407.5t-403.5 -153.5zM638 1569q48 0 76 -35q27 -34 18 -82q-10 -51 -49 -84q-40 -33 -91 -33q-50 0 -76 33q-27 33 -17 84q9 48 51 82q41 35 88 35zM1028 1569q47 0 75 -35q27 -34 18 -82q-10 -51 -49 -84 q-40 -33 -90 -33q-51 0 -77 33q-27 33 -17 84q9 48 51 82q41 35 89 35z" />
<glyph unicode="&#xf7;" horiz-adv-x="1716" d="M725 1012q0 56 38.5 94.5t94.5 38.5q55 0 94 -39t39 -94q0 -56 -39 -94.5t-94 -38.5q-57 0 -95 38t-38 95zM858 406q55 0 94 -39t39 -95q0 -55 -39 -94t-94 -39q-57 0 -95 38.5t-38 94.5t38.5 95t94.5 39zM217 723h1282v-162h-1282v162z" />
<glyph unicode="&#xf8;" horiz-adv-x="1233" d="M909 879q-27 57 -77.5 85.5t-124.5 28.5q-147 0 -246 -117t-143 -344q-14 -72 -18 -131t1 -108zM326 190q28 -61 77.5 -90.5t123.5 -29.5q147 0 246 117.5t143 344.5q15 76 19 136.5t-1 111.5zM1081 922q48 -74 60.5 -173t-10.5 -217q-49 -254 -219.5 -407.5 t-403.5 -153.5q-94 0 -169 26.5t-131 80.5l-177 -172l-63 63l183 178q-46 77 -58 173.5t10 211.5q49 254 219.5 407t403.5 153q94 0 169 -25.5t129 -75.5l172 166l63 -63z" />
<glyph unicode="&#xf9;" horiz-adv-x="1319" d="M991 1063h184l-186 -957h174l-20 -106h-358l36 188q-72 -106 -163.5 -161.5t-198.5 -55.5q-177 0 -241 101q-39 60 -39 163q0 67 17 152l110 569h-166l21 107h351l-120 -619q-20 -103 -20 -171q0 -61 16 -95q33 -72 155 -72q128 0 213.5 94t119.5 273zM636 1636l186 -376 h-117l-266 376h197z" />
<glyph unicode="&#xfa;" horiz-adv-x="1319" d="M991 1063h184l-186 -957h174l-20 -106h-358l36 188q-72 -106 -163.5 -161.5t-198.5 -55.5q-177 0 -241 101q-39 60 -39 163q0 67 17 152l110 569h-166l21 107h351l-120 -619q-20 -103 -20 -171q0 -61 16 -95q33 -72 155 -72q128 0 213.5 94t119.5 273zM930 1638h199 l-414 -376h-117z" />
<glyph unicode="&#xfb;" horiz-adv-x="1319" d="M729 1638h168l161 -376h-116l-152 260l-254 -260h-116zM991 1063h184l-186 -957h174l-20 -106h-358l36 188q-72 -106 -163.5 -161.5t-198.5 -55.5q-177 0 -241 101q-39 60 -39 163q0 67 17 152l110 569h-166l21 107h351l-120 -619q-20 -103 -20 -171q0 -61 16 -95 q33 -72 155 -72q128 0 213.5 94t119.5 273z" />
<glyph unicode="&#xfc;" horiz-adv-x="1319" d="M991 1063h184l-186 -957h174l-20 -106h-358l36 188q-72 -106 -163.5 -161.5t-198.5 -55.5q-177 0 -241 101q-39 60 -39 163q0 67 17 152l110 569h-166l21 107h351l-120 -619q-20 -103 -20 -171q0 -61 16 -95q33 -72 155 -72q128 0 213.5 94t119.5 273zM606 1569 q48 0 76 -35q27 -34 18 -82q-10 -51 -49 -84q-40 -33 -91 -33q-50 0 -76 33q-27 33 -17 84q9 48 51 82q41 35 88 35zM996 1569q47 0 75 -35q27 -34 18 -82q-10 -51 -49 -84q-40 -33 -90 -33q-51 0 -77 33q-27 33 -17 84q9 48 51 82q41 35 89 35z" />
<glyph unicode="&#xfd;" horiz-adv-x="1157" d="M1178 1054q-99 -572 -273 -874q-255 -443 -460 -576q-91 -59 -331 -59q-47 0 -94.5 8t-95.5 23l40 203h94q-2 -16 -2 -31q0 -42 18 -66q25 -34 90 -34q176 0 329 153l-251 1155h-121l21 107h275l236 -1055q161 241 200 340q126 311 151 599h-121l21 107h274zM926 1638 h199l-414 -376h-117z" />
<glyph unicode="&#xfe;" horiz-adv-x="1311" d="M424 584l-21 -105q-15 -79 -15 -142q0 -91 32 -151q54 -100 194 -100q141 0 235.5 113t137.5 333q19 101 19 180q0 92 -27 153q-51 112 -192 112q-140 0 -233 -101t-130 -292zM408 1450h-177l21 106h361l-128 -659q73 100 165.5 147.5t215.5 47.5q196 0 290 -155 q62 -102 62 -245q0 -75 -16 -160q-49 -250 -203 -405.5t-350 -155.5q-123 0 -197.5 47.5t-109.5 147.5l-115 -592h-184z" />
<glyph unicode="&#xff;" horiz-adv-x="1157" d="M1178 1054q-99 -572 -273 -874q-255 -443 -460 -576q-91 -59 -331 -59q-47 0 -94.5 8t-95.5 23l40 203h94q-2 -16 -2 -31q0 -42 18 -66q25 -34 90 -34q176 0 329 153l-251 1155h-121l21 107h275l236 -1055q161 241 200 340q126 311 151 599h-121l21 107h274zM602 1569 q48 0 76 -35q27 -34 18 -82q-10 -51 -49 -84q-40 -33 -91 -33q-50 0 -76 33q-27 33 -17 84q9 48 51 82q41 35 88 35zM992 1569q47 0 75 -35q27 -34 18 -82q-10 -51 -49 -84q-40 -33 -90 -33q-51 0 -77 33q-27 33 -17 84q9 48 51 82q41 35 89 35z" />
<glyph unicode="&#x100;" d="M620 1841h598l-28 -148h-598zM370 541h548l-136 710zM-157 0l20 106h131l802 1387h168l264 -1387h146l-20 -106h-543l20 106h166l-61 328h-628l-189 -328h164l-20 -106h-420z" />
<glyph unicode="&#x101;" horiz-adv-x="1221" d="M431 1526h598l-28 -148h-598zM744 166q-133 -195 -348 -195q-176 0 -265 119q-62 84 -62 204q0 51 11 108q68 353 314 535q209 155 462 155q170 0 228 -29l-186 -957h158l-20 -106h-324zM263 300q0 -214 207 -214q126 0 211.5 100.5t123.5 292.5l93 482v0q0 29 -80 29 q-192 0 -341 -150q-148 -151 -201 -425q-13 -64 -13 -115z" />
<glyph unicode="&#x104;" d="M814 0h94l-1 -2q-111 -123 -120 -170q-9 -46 19 -74t84 -28q27 0 57 6.5t63 19.5l-26 -127q-37 -9 -71.5 -13.5t-66.5 -4.5q-113 0 -166.5 44.5t-37.5 125.5q9 49 49.5 101.5t122.5 121.5zM370 541h548l-136 710zM-157 0l20 106h131l802 1387h168l264 -1387h146l-20 -106 h-543l20 106h166l-61 328h-628l-189 -328h164l-20 -106h-420z" />
<glyph unicode="&#x105;" horiz-adv-x="1221" d="M709 0h94l-1 -2q-111 -123 -120 -170q-9 -46 19 -74t84 -28q27 0 57 6.5t63 19.5l-26 -127q-37 -9 -71.5 -13.5t-66.5 -4.5q-113 0 -166.5 44.5t-37.5 125.5q9 49 49.5 101.5t122.5 121.5zM744 166q-133 -195 -348 -195q-176 0 -265 119q-62 84 -62 204q0 51 11 108 q68 353 314 535q209 155 462 155q170 0 228 -29l-186 -957h158l-20 -106h-324zM263 300q0 -214 207 -214q126 0 211.5 100.5t123.5 292.5l93 482v0q0 29 -80 29q-192 0 -341 -150q-148 -151 -201 -425q-13 -64 -13 -115z" />
<glyph unicode="&#x10c;" horiz-adv-x="1567" d="M939 1635l-179 264h116l171 -162l235 162h116l-283 -264h-176zM1376 395q-107 -209 -283.5 -316.5t-414.5 -107.5q-146 0 -261 50t-193 147q-90 112 -117 254.5t8 322.5q68 348 310.5 561.5t571.5 213.5q122 0 253.5 -32t277.5 -97l-66 -344h-113q-1 188 -95 277t-295 89 q-239 0 -395 -169.5t-220 -498.5q-64 -328 26 -497.5t329 -169.5q167 0 290.5 79.5t202.5 237.5h184z" />
<glyph unicode="&#x10d;" horiz-adv-x="1147" d="M675 1262l-161 376h116l152 -260l254 260h116l-309 -376h-168zM1012 319q-72 -170 -200.5 -259t-304.5 -89q-232 0 -343 153q-77 107 -77 261q0 69 15 147q50 255 220.5 407.5t402.5 152.5q101 0 196.5 -23.5t186.5 -71.5l-52 -272h-107v26q0 120 -52 178q-58 64 -189 64 q-149 0 -247.5 -115.5t-143.5 -345.5q-20 -105 -20 -187q0 -96 28 -159q53 -116 203 -116q119 0 202 62t134 187h148z" />
<glyph unicode="&#x112;" horiz-adv-x="1495" d="M659 1842h598l-28 -148h-598zM-32 0l20 106h190l249 1280h-190l21 107h1202l-64 -332h-123l40 209h-686l-97 -500h489l36 187h123l-96 -496h-123l36 187h-489l-121 -625h702l40 209h123l-64 -332h-1218z" />
<glyph unicode="&#x113;" horiz-adv-x="1212" d="M490 1527h598l-28 -148h-598zM300 408q-4 -38 -4 -72q0 -94 34 -156q59 -110 217 -110q116 0 173 35q102 63 126 144h135q-40 -127 -189 -216q-104 -62 -310 -62t-317 153q-78 107 -78 262q0 68 15 145q49 253 218 407t409 154q391 0 391 -277q0 -203 -205 -302 q-209 -101 -615 -105zM813 632q112 66 112 190q0 171 -227 171q-134 0 -227 -102t-150 -377q321 15 492 118z" />
<glyph unicode="&#x118;" horiz-adv-x="1495" d="M944 0h94l-1 -2q-111 -123 -120 -170q-9 -46 19 -74t84 -28q27 0 57 6.5t63 19.5l-26 -127q-37 -9 -71.5 -13.5t-66.5 -4.5q-113 0 -166.5 44.5t-37.5 125.5q9 49 49.5 101.5t122.5 121.5zM-32 0l20 106h190l249 1280h-190l21 107h1202l-64 -332h-123l40 209h-686 l-97 -500h489l36 187h123l-96 -496h-123l36 187h-489l-121 -625h702l40 209h123l-64 -332h-1218z" />
<glyph unicode="&#x119;" horiz-adv-x="1212" d="M616 0h94l-1 -2q-111 -123 -120 -170q-9 -46 19 -74t84 -28q27 0 57 6.5t63 19.5l-26 -127q-37 -9 -71.5 -13.5t-66.5 -4.5q-113 0 -166.5 44.5t-37.5 125.5q9 49 49.5 101.5t122.5 121.5zM300 408q-4 -38 -4 -72q0 -94 34 -156q59 -110 217 -110q116 0 173 35 q102 63 126 144h135q-40 -127 -189 -216q-104 -62 -310 -62t-317 153q-78 107 -78 262q0 68 15 145q49 253 218 407t409 154q391 0 391 -277q0 -203 -205 -302q-209 -101 -615 -105zM813 632q112 66 112 190q0 171 -227 171q-134 0 -227 -102t-150 -377q321 15 492 118z" />
<glyph unicode="&#x12a;" horiz-adv-x="809" d="M326 1842h598l-28 -148h-598zM381 106h190l-20 -106h-583l20 106h190l249 1280h-190l21 107h583l-21 -107h-190z" />
<glyph unicode="&#x12b;" horiz-adv-x="655" d="M351 106h174l-20 -106h-358l186 956h-176l20 107h360zM138 1526h598l-28 -148h-598z" />
<glyph unicode="&#x12e;" horiz-adv-x="809" d="M305 0h94l-1 -2q-111 -123 -120 -170q-9 -46 19 -74t84 -28q27 0 57 6.5t63 19.5l-26 -127q-37 -9 -71.5 -13.5t-66.5 -4.5q-113 0 -166.5 44.5t-37.5 125.5q9 49 49.5 101.5t122.5 121.5zM419 106h190l-20 -106h-583l20 106h190l249 1280h-190l21 107h583l-21 -107h-190 z" />
<glyph unicode="&#x12f;" horiz-adv-x="655" d="M232 0h94l-1 -2q-111 -123 -120 -170q-9 -46 19 -74t84 -28q27 0 57 6.5t63 19.5l-26 -127q-37 -9 -71.5 -13.5t-66.5 -4.5q-113 0 -166.5 44.5t-37.5 125.5q9 49 49.5 101.5t122.5 121.5zM361 1393q9 46 49 80t87 34q46 0 73 -34q21 -26 21 -58q0 -11 -3 -22 q-9 -47 -48.5 -80t-86.5 -33t-74 33q-20 25 -20 57q0 11 2 23zM346 106h174l-20 -106h-358l185 956h-176l21 107h360z" />
<glyph unicode="&#x131;" horiz-adv-x="655" d="M351 106h174l-20 -106h-358l186 956h-176l20 107h360z" />
<glyph unicode="&#x14a;" horiz-adv-x="1792" d="M-41 0l20 106h201l249 1280h-201l21 107h383l666 -1178l208 1071h-200l21 107h524l-21 -107h-201l-288 -1490q-32 -164 -148 -257.5t-230 -93.5q-72 0 -134 16.5t-118 49.5l43 219h95q-3 -25 -3 -46q0 -62 25 -95q34 -45 116 -45q91 0 146 61.5t81 190.5l16 80l-708 1253 l-219 -1123h201l-20 -106h-525z" />
<glyph unicode="&#x14b;" horiz-adv-x="1319" d="M831 -104l140 722q20 103 20 172q0 61 -16 96q-34 72 -155 72q-128 0 -213 -93.5t-120 -272.5l-115 -592h-184l186 956h-176l21 107h360l-37 -189q72 108 164 163t200 55q174 0 240 -101q38 -59 38 -162q0 -67 -17 -153l-151 -780q-32 -164 -147.5 -257.5t-286.5 -93.5 q-72 0 -134.5 16.5t-118.5 49.5l43 219h95q-3 -25 -3 -46q0 -62 25 -95q34 -45 116 -45q91 0 146 62q55 60 80 190z" />
<glyph unicode="&#x14c;" horiz-adv-x="1679" d="M785 1842h598l-28 -148h-598zM710 78q245 0 403 168.5t222 498.5q64 331 -28 499.5t-337 168.5q-246 0 -404 -168.5t-222 -499.5q-64 -330 28 -498.5t338 -168.5zM689 -29q-152 0 -269.5 50t-195.5 147q-90 112 -117 254t8 323t117 323.5t216 254.5q117 98 253 147.5 t290 49.5q325 0 483.5 -213t90.5 -562q-35 -179 -118 -322.5t-216 -254.5q-117 -98 -253 -147.5t-289 -49.5z" />
<glyph unicode="&#x14d;" horiz-adv-x="1233" d="M500 1526h598l-28 -148h-598zM526 70q148 0 246.5 117t142.5 345q20 104 20 185q0 96 -28 159q-53 117 -201 117t-246.5 -116.5t-142.5 -344.5q-20 -104 -20 -184q0 -97 29 -161q53 -117 200 -117zM507 -29q-232 0 -343 153q-77 107 -77 261q0 69 15 147 q49 254 219.5 407t403.5 153t344 -153q76 -106 76 -260q0 -69 -15 -147q-49 -254 -219.5 -407.5t-403.5 -153.5z" />
<glyph unicode="&#x150;" horiz-adv-x="1679" d="M1414 1899h197l-314 -264h-117zM1097 1899h197l-314 -264h-117zM710 78q245 0 403 168.5t222 498.5q64 331 -28 499.5t-337 168.5q-246 0 -404 -168.5t-222 -499.5q-64 -330 28 -498.5t338 -168.5zM689 -29q-152 0 -269.5 50t-195.5 147q-90 112 -117 254t8 323 t117 323.5t216 254.5q117 98 253 147.5t290 49.5q325 0 483.5 -213t90.5 -562q-35 -179 -118 -322.5t-216 -254.5q-117 -98 -253 -147.5t-289 -49.5z" />
<glyph unicode="&#x151;" horiz-adv-x="1233" d="M817 1638h170l-318 -376h-114zM1147 1638h178l-361 -376h-116zM526 70q148 0 246.5 117t142.5 345q20 104 20 185q0 96 -28 159q-53 117 -201 117t-246.5 -116.5t-142.5 -344.5q-20 -104 -20 -184q0 -97 29 -161q53 -117 200 -117zM507 -29q-232 0 -343 153 q-77 107 -77 261q0 69 15 147q49 254 219.5 407t403.5 153t344 -153q76 -106 76 -260q0 -69 -15 -147q-49 -254 -219.5 -407.5t-403.5 -153.5z" />
<glyph unicode="&#x152;" horiz-adv-x="2329" d="M1012 106l249 1280h-187q-292 0 -478.5 -164t-246.5 -472q-61 -311 62 -477.5t414 -166.5h187zM2020 0h-1229q-385 0 -562.5 198t-108.5 552q68 351 321.5 547t639.5 196h1212l-64 -332h-123l40 209h-686l-97 -500h492l36 187h121l-96 -496h-121l36 187h-492l-121 -625 h703l40 209h123z" />
<glyph unicode="&#x153;" horiz-adv-x="2025" d="M526 70q148 0 246.5 117t142.5 345t-8.5 344.5t-200.5 116.5t-246.5 -116.5t-142.5 -344.5t9 -345t200 -117zM1626 632q112 66 112 190q0 171 -227 171q-134 0 -227 -102t-150 -377q319 15 492 118zM1113 408q-4 -38 -4 -72q0 -94 34 -156q59 -110 217 -110q116 0 173 35 q102 63 126 144h135q-40 -127 -189 -216q-104 -62 -310 -62t-317 153q-15 20 -26 41q-20 -21 -42 -41q-170 -153 -403 -153q-232 0 -343 153q-77 107 -77 261q0 69 15 147q49 254 219.5 407t403.5 153t344 -153q14 -19 25 -40q19 20 39 39q169 154 409 154q391 0 391 -277 q0 -203 -205 -302q-209 -101 -615 -105z" />
<glyph unicode="&#x160;" horiz-adv-x="1403" d="M819 1635l-179 264h116l171 -162l235 162h116l-283 -264h-176zM59 72l66 340l115 -1q-28 -170 49.5 -251.5t268.5 -81.5q178 0 285.5 70.5t133.5 205.5q21 108 -24.5 166t-216.5 113l-185 59q-202 65 -270.5 162t-35.5 266q37 190 192.5 295t399.5 105q104 0 223.5 -22.5 t250.5 -65.5l-61 -318h-113q13 158 -61.5 228.5t-255.5 70.5q-158 0 -253 -64.5t-119 -187.5q-21 -107 29 -168t240 -121l174 -55q191 -61 259 -155.5t37 -253.5q-42 -217 -202.5 -327t-435.5 -110q-123 0 -245.5 25t-244.5 76z" />
<glyph unicode="&#x161;" horiz-adv-x="1051" d="M595 1262l-161 376h116l152 -260l254 260h116l-309 -376h-168zM71 307h106q-4 -29 -4 -55q0 -182 247 -182q248 0 284 182q3 18 3 50q0 31 -34 68.5t-177 86.5l-125 45q-128 44 -169.5 100.5t-41.5 121.5q0 26 5 56q29 146 152 229t301 83q177 0 363 -86l-45 -232h-106 q4 23 4 43q0 73 -50.5 124.5t-167.5 51.5q-235 0 -267 -164q-4 -17 -4 -47q0 -31 32.5 -66t159.5 -77l137 -45q142 -47 195 -118q37 -50 37 -99q0 -210 -168 -319q-132 -87 -334 -87t-381 88z" />
<glyph unicode="&#x16a;" horiz-adv-x="1726" d="M810 1842h598l-28 -148h-598zM414 1386h-191l21 107h584l-21 -107h-191l-150 -772q-56 -286 16 -399t301 -113t344 113t171 399l150 772h-191l21 107h504l-21 -107h-190l-154 -792q-66 -341 -224.5 -482t-472.5 -141t-420 142t-40 481z" />
<glyph unicode="&#x16b;" horiz-adv-x="1319" d="M516 1526h598l-28 -148h-598zM991 1063h184l-186 -957h174l-20 -106h-358l36 188q-72 -106 -163.5 -161.5t-198.5 -55.5q-177 0 -241 101q-39 60 -39 163q0 67 17 152l110 569h-166l21 107h351l-120 -619q-20 -103 -20 -171q0 -61 16 -95q33 -72 155 -72q128 0 213.5 94 t119.5 273z" />
<glyph unicode="&#x170;" horiz-adv-x="1726" d="M414 1386h-191l21 107h584l-21 -107h-191l-150 -772q-56 -286 16 -399t301 -113t344 113t171 399l150 772h-191l21 107h504l-21 -107h-190l-154 -792q-66 -341 -224.5 -482t-472.5 -141t-420 142t-40 481zM1077 2011h170l-318 -376h-114zM1407 2011h178l-361 -376h-116z " />
<glyph unicode="&#x171;" horiz-adv-x="1319" d="M991 1063h184l-186 -957h174l-20 -106h-358l36 188q-72 -106 -163.5 -161.5t-198.5 -55.5q-177 0 -241 101q-39 60 -39 163q0 67 17 152l110 569h-166l21 107h351l-120 -619q-20 -103 -20 -171q0 -61 16 -95q33 -72 155 -72q128 0 213.5 94t119.5 273zM721 1638h170 l-318 -376h-114zM1051 1638h178l-361 -376h-116z" />
<glyph unicode="&#x172;" horiz-adv-x="1726" d="M414 1386h-191l21 107h584l-21 -107h-191l-150 -772q-56 -286 16 -399t301 -113t344 113t171 399l150 772h-191l21 107h504l-21 -107h-190l-154 -792q-66 -341 -225 -482q-95 -85 -246 -118q-107 -120 -116 -166t19 -74t84 -28q27 0 57 6.5t63 19.5l-26 -127 q-37 -9 -71.5 -13.5t-66.5 -4.5q-113 0 -166.5 44.5t-37.5 125.5q9 49 49 102q33 43 94 97q-51 -5 -108 -5q-314 0 -420 142t-40 481z" />
<glyph unicode="&#x173;" horiz-adv-x="1319" d="M991 1063h184l-186 -957h174l-20 -106h-70l-1 -2q-111 -123 -120 -170q-9 -46 19 -74t84 -28q27 0 57 6.5t63 19.5l-26 -127q-37 -9 -71.5 -13.5t-66.5 -4.5q-113 0 -166.5 44.5t-37.5 125.5q9 49 49.5 101.5t122.5 121.5h-194l36 188q-72 -106 -163.5 -161.5 t-198.5 -55.5q-177 0 -241 101q-39 60 -39 163q0 67 17 152l110 569h-166l21 107h351l-120 -619q-20 -103 -20 -171q0 -61 16 -95q33 -72 155 -72q128 0 213.5 94t119.5 273z" />
<glyph unicode="&#x178;" horiz-adv-x="1352" d="M242 0l20 106h191l105 537l-317 743h-140l21 107h555l-21 -107h-174l256 -604l490 604h-168l21 107h434l-21 -107h-141l-589 -724l-109 -556h191l-20 -106h-584zM740 1884q48 0 75 -35q28 -35 19 -81q-10 -50 -50 -83q-40 -34 -90 -34q-49 0 -76 34q-27 33 -17 83 q9 46 50 81q42 35 89 35zM1130 1884q47 0 74 -35q28 -35 19 -81q-10 -50 -50 -83q-40 -34 -89 -34q-50 0 -77 34q-27 33 -17 83q9 46 50 81q42 35 90 35z" />
<glyph unicode="&#x17d;" horiz-adv-x="1423" d="M831 1635l-179 264h116l171 -162l235 162h116l-283 -264h-176zM-53 0l14 72l1182 1298h-772l-43 -223h-123l67 346h1180l-14 -72l-1182 -1298h844l40 209h122l-64 -332h-1251z" />
<glyph unicode="&#x17e;" horiz-adv-x="1079" d="M610 1262l-161 376h116l152 -260l254 260h116l-309 -376h-168zM815 975q108 0 213 88h60l-16 -86l-727 -758q10 -3 39 -12q34 -11 68 -33l49 -30q94 -57 162 -57q131 0 285 150l-24 -121q-171 -168 -301 -168q-79 2 -190 71t-181 69q-108 0 -213 -88h-60l16 86l728 757 q-11 4 -40 13q-34 11 -68 33l-49 30q-94 57 -162 57q-131 0 -285 -150l24 121q171 168 301 168q79 -2 190 -71t181 -69z" />
<glyph unicode="&#x18f;" horiz-adv-x="1679" d="M981 1413q-178 0 -302 -79q-123 -80 -202 -238h-184q107 209 283 316q177 108 415 108q325 0 483.5 -213t90.5 -562q-35 -179 -118 -323q-82 -142 -216 -254q-118 -98 -253 -148q-136 -49 -289 -49q-152 0 -270 50q-117 50 -195 147q-90 112 -117 254t8 323l14 71h1218 q54 279 -40 428q-92 169 -326 169zM1324 694h-989q-57 -292 37 -448q92 -168 338 -168q245 0 403 168q154 156 211 448z" />
<glyph unicode="&#x192;" horiz-adv-x="758" d="M1021 1305h-97q4 21 4 40q0 46 -24 74q-34 39 -113 39q-103 0 -156 -56.5t-81 -201.5l-27 -137h297l-21 -107h-297l-189 -975q-35 -178 -145 -269t-289 -91q-67 0 -131.5 12t-126.5 37l40 202h97q-4 -21 -4 -40q0 -46 24 -74q34 -39 113 -39q103 0 156 56.5t82 205.5 l189 975h-176l21 107h176l26 133q35 178 145 269t289 91q67 0 131.5 -12t126.5 -37z" />
<glyph unicode="&#x194;" horiz-adv-x="1458" d="M630 733l-309 653h-160l20 107h592l-20 -107h-176l226 -481l423 481h-192l20 107h489l-20 -107h-168l-507 -575q273 -467 222 -730q-52 -269 -504 -269q-447 0 -399 249q45 230 463 672zM677 636q-340 -398 -376 -580q-27 -138 285 -138q223 0 244 108q47 242 -153 610z " />
<glyph unicode="&#x1b7;" horiz-adv-x="1156" d="M552 852h-95l20 102l425 416h-527l-43 -223h-123l67 346h873l-24 -125l-456 -445l78 -7q178 -29 257 -150q77 -120 40 -312q-46 -234 -211 -359q-164 -124 -428 -124q-117 0 -222 28q-107 28 -206 85l63 324h112q-21 -161 49.5 -244t228.5 -83q153 0 262 100 q107 99 141 271q38 197 -33 299q-72 101 -248 101z" />
<glyph unicode="&#x1ea;" horiz-adv-x="1679" d="M656 -16h94l-1 -2q-111 -123 -120 -170q-9 -46 19 -74t84 -28q27 0 57 6.5t63 19.5l-26 -127q-37 -9 -71.5 -13.5t-66.5 -4.5q-113 0 -166.5 44.5t-37.5 125.5q9 49 49.5 101.5t122.5 121.5zM710 78q245 0 403 168.5t222 498.5q64 331 -28 499.5t-337 168.5 q-246 0 -404 -168.5t-222 -499.5q-64 -330 28 -498.5t338 -168.5zM689 -29q-152 0 -269.5 50t-195.5 147q-90 112 -117 254t8 323t117 323.5t216 254.5q117 98 253 147.5t290 49.5q325 0 483.5 -213t90.5 -562q-35 -179 -118 -322.5t-216 -254.5q-117 -98 -253 -147.5 t-289 -49.5z" />
<glyph unicode="&#x1eb;" horiz-adv-x="1233" d="M467 -16h94l-1 -2q-111 -123 -120 -170q-9 -46 19 -74t84 -28q27 0 57 6.5t63 19.5l-26 -127q-37 -9 -71.5 -13.5t-66.5 -4.5q-113 0 -166.5 44.5t-37.5 125.5q9 49 49.5 101.5t122.5 121.5zM526 70q148 0 246.5 117t142.5 345q20 104 20 185q0 96 -28 159 q-53 117 -201 117t-246.5 -116.5t-142.5 -344.5q-20 -104 -20 -184q0 -97 29 -161q53 -117 200 -117zM507 -29q-232 0 -343 153q-77 107 -77 261q0 69 15 147q49 254 219.5 407t403.5 153t344 -153q76 -106 76 -260q0 -69 -15 -147q-49 -254 -219.5 -407.5t-403.5 -153.5z " />
<glyph unicode="&#x1ec;" horiz-adv-x="1679" d="M656 -16h94l-1 -2q-111 -123 -120 -170q-9 -46 19 -74t84 -28q27 0 57 6.5t63 19.5l-26 -127q-37 -9 -71.5 -13.5t-66.5 -4.5q-113 0 -166.5 44.5t-37.5 125.5q9 49 49.5 101.5t122.5 121.5zM710 78q245 0 403 168.5t222 498.5q64 331 -28 499.5t-337 168.5 q-246 0 -404 -168.5t-222 -499.5q-64 -330 28 -498.5t338 -168.5zM689 -29q-152 0 -269.5 50t-195.5 147q-90 112 -117 254t8 323t117 323.5t216 254.5q117 98 253 147.5t290 49.5q325 0 483.5 -213t90.5 -562q-35 -179 -118 -322.5t-216 -254.5q-117 -98 -253 -147.5 t-289 -49.5zM724 1842h598l-28 -148h-598z" />
<glyph unicode="&#x1ed;" horiz-adv-x="1233" d="M467 -16h94l-1 -2q-111 -123 -120 -170q-9 -46 19 -74t84 -28q27 0 57 6.5t63 19.5l-26 -127q-37 -9 -71.5 -13.5t-66.5 -4.5q-113 0 -166.5 44.5t-37.5 125.5q9 49 49.5 101.5t122.5 121.5zM526 70q148 0 246.5 117t142.5 345q20 104 20 185q0 96 -28 159 q-53 117 -201 117t-246.5 -116.5t-142.5 -344.5q-20 -104 -20 -184q0 -97 29 -161q53 -117 200 -117zM507 -29q-232 0 -343 153q-77 107 -77 261q0 69 15 147q49 254 219.5 407t403.5 153t344 -153q76 -106 76 -260q0 -69 -15 -147q-49 -254 -219.5 -407.5t-403.5 -153.5z M500 1526h598l-28 -148h-598z" />
<glyph unicode="&#x259;" horiz-adv-x="1212" d="M106 551h793l1 8q42 215 -17 325q-60 109 -218 109q-121 0 -212 -63q-89 -64 -144 -189h-148q78 175 213 263q136 88 329 88q233 0 344 -154q112 -153 63 -407q-49 -252 -218 -406t-395 -154q-241 0 -341 149q-100 148 -50 431zM302 445q-30 -186 25 -281q53 -94 189 -94 q127 0 218.5 95t143.5 280h-576z" />
<glyph unicode="&#x263;" horiz-adv-x="1227" d="M802 432q176 -448 149 -589q-31 -157 -161 -235q-108 -64 -318 -64q-208 0 -271 103q-40 65 -19 172q34 174 426 542l-292 595h-163l21 107h302l280 -534q298 266 298 534h152q0 -247 -404 -631zM655 264q-333 -323 -363 -472q-11 -54 15 -88q42 -54 181 -54 q131 0 194 47q46 34 57 91q37 190 -84 476z" />
<glyph unicode="&#x292;" horiz-adv-x="1156" d="M552 423h-95l20 102l414 431h-527l-36 -184h-106l57 291h870l-17 -86l-463 -483l78 -7q178 -29 257 -150q77 -120 40 -312q-45 -234 -211 -359q-164 -124 -428 -124q-117 0 -222 28q-107 28 -206 85l63 324h112q-21 -161 50 -244t229 -83q153 0 261 100q107 99 141 271 q38 197 -33 299q-72 101 -248 101z" />
<glyph unicode="&#x294;" horiz-adv-x="1098" d="M279 106l141 726h116q90 0 146 62q54 60 92 254q37 190 6 250q-32 62 -122 62q-82 0 -134 -46q-51 -44 -76 -140h-96l43 218q68 34 137 50t141 16q170 0 250 -93t37 -317q-45 -228 -161 -322q-97 -77 -212 -85l-124 -635h174l-20 -106h-174h-184h-176l20 106h176z" />
<glyph unicode="&#x2c0;" horiz-adv-x="574" d="M87 769l79 407h76q58 0 93 34q34 34 55 143q21 106 0 140q-22 34 -80 34q-54 0 -86 -25q-33 -25 -47 -79h-63l24 122q44 19 89 28q44 9 91 9q111 0 164 -52q54 -52 29 -177q-25 -128 -99 -181q-61 -43 -136 -47l-69 -356h113l-12 -59h-347l12 59h114z" />
<glyph unicode="&#x2c6;" horiz-adv-x="1024" d="M657 1638h168l161 -376h-116l-152 260l-254 -260h-116z" />
<glyph unicode="&#x2c7;" horiz-adv-x="1024" d="M581 1262l-161 376h116l152 -260l254 260h116l-309 -376h-168z" />
<glyph unicode="&#x2d0;" horiz-adv-x="690" d="M474 0h-258l155 268h61zM404 888h258l-156 -268h-61z" />
<glyph unicode="&#x2d1;" horiz-adv-x="690" d="M404 888h258l-156 -268h-61z" />
<glyph unicode="&#x2d8;" horiz-adv-x="1024" d="M409 1608h96q-2 -79 43 -114q45 -36 145 -36t159 36q59 35 87 114h96q-38 -143 -131 -215t-238 -72t-210 72t-47 215z" />
<glyph unicode="&#x2d9;" horiz-adv-x="1024" d="M801 1534q27 -34 18 -82q-10 -51 -49 -84q-40 -33 -91 -33t-77 33q-27 33 -17 84q9 48 51 82q41 35 89 35t76 -35z" />
<glyph unicode="&#x2da;" horiz-adv-x="1024" d="M545 1718q95 80 210 80t179 -80q64 -79 42 -194t-117 -195t-210 -80t-179 80t-42 195t117 194zM854 1524q12 63 -23 107q-36 44 -100 44q-65 0 -117 -43q-51 -44 -64 -108q-13 -65 23 -108q35 -44 100 -44q64 0 116 44q53 44 65 108z" />
<glyph unicode="&#x2db;" horiz-adv-x="1024" d="M499 0h94l-1 -2q-111 -123 -120 -170q-9 -46 19 -74t84 -28q27 0 57 6.5t63 19.5l-26 -127q-37 -9 -71.5 -13.5t-66.5 -4.5q-113 0 -166.5 44.5t-37.5 125.5q9 49 49.5 101.5t122.5 121.5z" />
<glyph unicode="&#x2dc;" horiz-adv-x="1024" d="M703 1370l-46 55q-21 24 -36 31q-15 8 -34 8q-42 0 -74 -40q-32 -39 -51 -115h-96q28 135 93 209q65 73 156 73q38 0 68 -14q29 -14 60 -47l46 -55q18 -23 34 -31q15 -8 36 -8q43 0 75 40t50 115h96q-28 -135 -93 -209q-65 -73 -156 -73q-38 0 -68 14q-29 14 -60 47z" />
<glyph unicode="&#x2dd;" horiz-adv-x="1024" d="M649 1638h170l-318 -376h-114zM979 1638h178l-361 -376h-116z" />
<glyph unicode="&#x300;" horiz-adv-x="0" d="M-575 1636l186 -376h-117l-266 376h197z" />
<glyph unicode="&#x301;" horiz-adv-x="0" d="M-281 1638h199l-414 -376h-117z" />
<glyph unicode="&#x304;" horiz-adv-x="0" d="M-743 1526h598l-28 -148h-598z" />
<glyph unicode="&#x30b;" horiz-adv-x="0" d="M-490 1638h170l-318 -376h-114zM-160 1638h178l-361 -376h-116z" />
<glyph unicode="&#x30c;" horiz-adv-x="0" d="M-558 1262l-161 376h116l152 -260l254 260h116l-309 -376h-168z" />
<glyph unicode="&#x328;" horiz-adv-x="0" d="M-525 0h94l-1 -2q-111 -123 -120 -170q-9 -46 19 -74t84 -28q27 0 57 6.5t63 19.5l-26 -127q-37 -9 -71.5 -13.5t-66.5 -4.5q-113 0 -166.5 44.5t-37.5 125.5q9 49 49.5 101.5t122.5 121.5z" />
<glyph unicode="&#x358;" horiz-adv-x="0" d="M225 1251q-8 -38 -44.5 -67t-74.5 -29q-41 0 -65 30.5t-15 71.5q8 41 44.5 70t78.5 29q41 0 63 -31.5t13 -73.5z" />
<glyph unicode="&#x3a9;" horiz-adv-x="1698" d="M1005 164h336l27 137h117l-59 -301h-592l36 182q193 70 316 225.5t168 387.5q54 279 -50 448.5t-326 169.5t-392 -169.5t-224 -448.5q-45 -233 16.5 -388t227.5 -225l-36 -182h-590l59 301h117l-27 -137h334q-192 87 -280 263t-46 390q29 151 112 282t213 234 q117 91 254.5 139t282.5 48t262.5 -47.5t198.5 -139.5q91 -103 123.5 -234.5t3.5 -281.5q-41 -213 -198 -389.5t-384 -263.5z" />
<glyph unicode="&#x3c0;" horiz-adv-x="1346" d="M-18 0l20 106h166l166 850h-176l20 107h1198l-20 -107h-174l-166 -850h164l-20 -106h-508l20 106h159l166 850h-479l-166 -850h160l-20 -106h-510z" />
<glyph unicode="&#x1e9e;" horiz-adv-x="1698" d="M1422 404q76 357 -352 357h-95l22 102l510 536h-305q-98 0 -175.5 -23t-133.5 -65t-98.5 -108t-70 -143.5t-49.5 -180.5l-164 -772h191l-22 -107h-584l22 107h191l169 792q35 165 88.5 279t138.5 192.5t204 115t282 36.5h565l-27 -125l-520 -545q47 -2 90.5 -7.5 t94 -19.5t91 -35t77 -56t57.5 -79t26 -108t-11 -141q-24 -113 -78.5 -198.5t-127.5 -136t-157.5 -75.5t-177.5 -25q-89 0 -177 31.5t-161 81.5l59 276h118q-9 -57 -7.5 -102.5t9.5 -74.5t27 -49.5t35 -30.5t42 -15.5t40 -6t37 -0.5q103 0 190 89.5t117 233.5z" />
<glyph unicode="&#x2010;" horiz-adv-x="692" d="M105 627h512l-30 -156h-512z" />
<glyph unicode="&#x2011;" horiz-adv-x="692" d="M105 627h512l-30 -156h-512z" />
<glyph unicode="&#x2012;" horiz-adv-x="1303" d="M103 610h1123l-26 -133h-1123z" />
<glyph unicode="&#x2013;" horiz-adv-x="1024" d="M103 610h844l-26 -133h-844z" />
<glyph unicode="&#x2014;" horiz-adv-x="2048" d="M103 610h1868l-26 -133h-1868z" />
<glyph unicode="&#x2015;" horiz-adv-x="2048" d="M14 610h2048l-26 -133h-2048z" />
<glyph unicode="&#x2016;" horiz-adv-x="1024" d="M426 1565v-2048h-162v2048h162zM756 1565v-2048h-162v2048h162z" />
<glyph unicode="&#x2017;" horiz-adv-x="1024" d="M1024 -403v-80h-1024v80h1024zM1024 -163v-80h-1024v80h1024z" />
<glyph unicode="&#x2018;" horiz-adv-x="651" d="M583 1440q-90 -64 -141 -149t-76 -214l-12 -63h-194q35 174 120.5 294.5t239.5 211.5z" />
<glyph unicode="&#x2019;" horiz-adv-x="651" d="M111 1067q91 63 142.5 149t76.5 216l12 61h194q-34 -173 -120.5 -294t-241.5 -212z" />
<glyph unicode="&#x201a;" horiz-adv-x="651" d="M56 -199q109 69 170.5 162.5t87.5 226.5l7 37h197q-41 -171 -137.5 -293.5t-259.5 -212.5z" />
<glyph unicode="&#x201b;" horiz-adv-x="651" d="M466 1067l-94 -80q-118 91 -156 212q-19 62 -19 139q0 71 17 155h194l-13 -61q-17 -80 -17 -144q0 -39 7 -72q16 -86 81 -149z" />
<glyph unicode="&#x201c;" horiz-adv-x="1047" d="M978 1440q-89 -64 -140 -149t-76 -214l-12 -63h-195q36 175 121 295t239 211zM583 1440q-90 -64 -141 -149t-76 -214l-12 -63h-194q35 174 120.5 294.5t239.5 211.5z" />
<glyph unicode="&#x201d;" horiz-adv-x="1047" d="M111 1067q91 63 142.5 149t76.5 216l12 61h194q-34 -173 -120.5 -294t-241.5 -212zM509 1067q89 63 140 148.5t76 214.5l12 63h194q-35 -175 -120.5 -295t-238.5 -211z" />
<glyph unicode="&#x201e;" horiz-adv-x="1061" d="M56 -199q109 69 170.5 162.5t87.5 226.5l7 37h197q-41 -171 -137.5 -293.5t-259.5 -212.5zM451 -199q109 69 171 162.5t88 226.5l7 37h196q-40 -171 -136.5 -293.5t-260.5 -212.5z" />
<glyph unicode="&#x201f;" horiz-adv-x="1047" d="M861 1067l-94 -80q-118 91 -156 212q-19 62 -19 139q0 71 17 155h194l-13 -61q-17 -80 -17 -144q0 -39 7 -72q16 -86 81 -149zM463 1067l-94 -80q-116 91 -154 211q-19 61 -19 137q0 72 18 158h194l-14 -63q-16 -80 -16 -143q0 -39 6 -71q16 -86 79 -149z" />
<glyph unicode="&#x2020;" horiz-adv-x="1024" d="M586 1493h180l-121 -442l406 28l-32 -166l-395 29l-186 -1139h-180l256 1139l-405 -29l32 166l394 -28z" />
<glyph unicode="&#x2021;" horiz-adv-x="1024" d="M587 1493h180l-121 -442l406 28l-32 -166l-395 29l-22 -295l-92 -293l405 29l-32 -166l-394 29l-51 -443h-180l121 443l-406 -29l32 166l395 -29l22 293l92 295l-405 -29l32 166l394 -28z" />
<glyph unicode="&#x2022;" horiz-adv-x="1208" d="M307 762q0 124 86.5 209.5t212.5 85.5q124 0 209.5 -85.5t85.5 -209.5q0 -125 -86 -211t-211 -86t-211 86t-86 211z" />
<glyph unicode="&#x2023;" horiz-adv-x="1208" d="M307 385v752l674 -376z" />
<glyph unicode="&#x2024;" horiz-adv-x="685" d="M368 238q55 0 86.5 -39t20.5 -95q-11 -55 -57.5 -94t-101.5 -39q-57 0 -87.5 38.5t-19.5 94.5t57 95t102 39z" />
<glyph unicode="&#x2025;" horiz-adv-x="1366" d="M1050 238q55 0 86.5 -39t20.5 -95q-11 -55 -57.5 -94t-101.5 -39q-57 0 -87.5 38.5t-19.5 94.5t57 95t102 39zM368 238q55 0 86.5 -39t20.5 -95q-11 -55 -57.5 -94t-101.5 -39q-57 0 -87.5 38.5t-19.5 94.5t57 95t102 39z" />
<glyph unicode="&#x2026;" horiz-adv-x="2048" d="M1732 238q55 0 86.5 -39t20.5 -95q-11 -55 -57.5 -94t-101.5 -39q-57 0 -87.5 38.5t-19.5 94.5t57 95t102 39zM1050 238q55 0 86.5 -39t20.5 -95q-11 -55 -57.5 -94t-101.5 -39q-57 0 -87.5 38.5t-19.5 94.5t57 95t102 39zM368 238q55 0 86.5 -39t20.5 -95 q-11 -55 -57.5 -94t-101.5 -39q-57 0 -87.5 38.5t-19.5 94.5t57 95t102 39z" />
<glyph unicode="&#x2027;" horiz-adv-x="651" d="M190 711q11 56 57 94.5t103 38.5q55 0 86.5 -39t20.5 -94q-11 -56 -57.5 -94.5t-101.5 -38.5q-57 0 -88 38t-20 95z" />
<glyph unicode="&#x2030;" horiz-adv-x="2748" d="M2299 784q158 0 230 -110t35.5 -297t-151.5 -296.5t-272 -109.5q-160 0 -231.5 109.5t-35.5 296.5q37 188 151.5 297.5t273.5 109.5zM2282 694q-87 0 -153.5 -84t-95.5 -233q-28 -147 5.5 -230.5t120.5 -83.5q86 0 151.5 83.5t93.5 230.5q29 148 -4 232.5t-118 84.5z M591 1427q-88 0 -153.5 -83t-94.5 -232q-28 -146 5.5 -229.5t120.5 -83.5q86 0 151.5 83t93.5 230q29 148 -4.5 231.5t-118.5 83.5zM1479 692q-88 0 -153.5 -83t-94.5 -232q-28 -147 5.5 -230.5t119.5 -83.5t151.5 83.5t94 230.5t-3.5 231t-117 84h-2zM1496 784 q158 0 230 -110t35.5 -297t-151.5 -296.5t-272 -109.5q-160 0 -231.5 109.5t-35.5 296.5q37 188 151.5 297.5t273.5 109.5zM1515 1520h152l-1236 -1549h-152zM875 1114q-37 -189 -151.5 -298t-273.5 -109t-230.5 109.5t-34.5 297.5q36 186 150.5 296t272.5 110t230.5 -109.5 t36.5 -296.5z" />
<glyph unicode="&#x2039;" horiz-adv-x="819" d="M716 1059l-22 -115l-364 -344l230 -344l-22 -115l-388 418l16 82z" />
<glyph unicode="&#x203a;" horiz-adv-x="819" d="M282 1059l388 -418l-16 -82l-550 -418l22 115l363 344l-229 344z" />
<glyph unicode="&#x2044;" horiz-adv-x="342" d="M719 1520h150l-1244 -1549h-150z" />
<glyph unicode="&#x20ac;" horiz-adv-x="1303" d="M1070 395q-83 -205 -220 -314.5t-310 -109.5q-189 0 -295 152t-102 416h-190l65 104h135q2 15 6 39q7 49 10 63q7 34 12.5 58t11.5 47h-180l66 104h145q98 264 263 415t355 151q99 0 192 -31t204 -100l-66 -342h-106q15 180 -43 277t-180 97q-136 0 -241.5 -119 t-170.5 -348h504l-68 -104h-463q-3 -14 -9 -37q-12 -51 -15 -68q-2 -9 -7.5 -43t-10.5 -59h375l-67 -104h-320q-22 -230 37 -349.5t194 -119.5q116 0 207.5 83.5t148.5 241.5h133z" />
<glyph unicode="&#x2122;" horiz-adv-x="2048" d="M1118 1493l174 -270l181 270h219v-66h-86v-446h86v-66h-285v66h86v426l-209 -311h-43l-199 311v-426h84v-66h-241v66h86v446h-86v66h233zM242 1493h557v-170h-68v104h-153v-446h86v-66h-287v66h86v446h-156v-104h-65v170z" />
<glyph unicode="&#x2202;" horiz-adv-x="1059" d="M756 621q15 87 22.5 168.5t7.5 156.5q0 129 -36.5 194.5t-108.5 65.5q-55 0 -127 -58t-108 -58t-60 22t-24 53q0 62 72 111t173 49q180 0 287 -155t107 -418q0 -335 -144.5 -556t-357.5 -221q-152 0 -253.5 108t-101.5 271q0 198 110.5 326.5t272.5 128.5 q101 0 166 -45.5t103 -142.5zM707 494q0 116 -43.5 178.5t-122.5 62.5q-109 0 -179.5 -129t-70.5 -336q0 -116 43 -177.5t123 -61.5q109 0 179.5 130t70.5 333z" />
<glyph unicode="&#x2206;" horiz-adv-x="1430" d="M1075 164l-418 1089l-419 -1089h837zM51 0l572 1493h172l571 -1493h-1315z" />
<glyph unicode="&#x220f;" horiz-adv-x="1630" d="M53 1473h1522v-74h-191v-1718h191v-74h-596v74h192v1718h-714v-1718h192v-74h-596v74h191v1718h-191v74z" />
<glyph unicode="&#x2211;" horiz-adv-x="1462" d="M16 1473h1162l110 -365h-78l-73 227q-11 34 -41.5 49t-98.5 15h-690l809 -832v-37l-825 -735h885q63 1 81 13.5t29 49.5l72 230h78l-148 -481h-1272v41l920 815l-920 956v54z" />
<glyph unicode="&#x221a;" horiz-adv-x="1305" d="M1116 1661h189v-96h-115l-594 -1606h-66l-319 883l-125 -45l-25 80l283 98l256 -709z" />
<glyph unicode="&#x221e;" horiz-adv-x="1706" d="M915 559q50 -89 116.5 -133.5t150.5 -44.5q101 0 165 67.5t64 172.5q0 101 -59 168t-148 67q-81 0 -146.5 -66.5t-142.5 -230.5zM793 666q-49 88 -115.5 132t-151.5 44q-101 0 -165 -66.5t-64 -171.5q0 -101 59 -168t148 -67q81 0 146.5 66t142.5 231zM864 483 q-71 -136 -148.5 -199t-172.5 -63q-135 0 -228.5 112t-93.5 277q0 175 83.5 283t217.5 108q95 0 170 -61.5t150 -202.5q68 138 147 203.5t176 65.5q133 0 227.5 -113t94.5 -279q0 -174 -83.5 -281.5t-217.5 -107.5q-95 0 -168.5 58.5t-153.5 199.5z" />
<glyph unicode="&#x222b;" horiz-adv-x="1067" d="M311 -262q106 0 120 688q2 108 3 165q12 515 107 737t297 222q80 0 130 -42t50 -107q0 -54 -32 -85.5t-87 -31.5q-42 0 -70 19t-40 54q-6 15 -10.5 51t-20.5 36q-107 0 -121 -619q-4 -193 -8 -303q-17 -479 -111.5 -686t-290.5 -207q-79 0 -129.5 41.5t-50.5 106.5 q0 56 34 87.5t95 31.5q33 0 57 -14.5t39 -42.5q10 -18 15 -59.5t24 -41.5z" />
<glyph unicode="&#x2248;" horiz-adv-x="1716" d="M1499 612v-147q-99 -90 -189.5 -132t-183.5 -42q-92 0 -258 63q-15 6 -23 9q-10 4 -32 12q-147 57 -242 57q-92 0 -178.5 -36.5t-175.5 -112.5v147q101 90 190.5 131t182.5 41q96 0 270 -66l10 -4q11 -3 31 -12q145 -57 242 -57q92 0 180 36.5t176 112.5zM1499 1001v-147 q-98 -89 -188.5 -130.5t-184.5 -41.5q-96 0 -270 66l-10 4l-33 12q-147 57 -242 57q-92 0 -178.5 -36.5t-175.5 -112.5v147q101 90 190.5 131t182.5 41q96 0 270 -65l10 -4q11 -4 31 -13q145 -57 242 -57q92 0 180 36.5t176 112.5z" />
<glyph unicode="&#x2260;" horiz-adv-x="1716" d="M217 926h772l256 319l125 -102l-174 -217h303v-160h-440l-195 -248h635v-160h-774l-258 -319l-125 102l174 217h-299v160h438l195 248h-633v160z" />
<glyph unicode="&#x2264;" horiz-adv-x="1716" d="M1499 1026l-1055 -287l1055 -286v-166l-1282 368v170l1282 367v-166zM217 156h1282v-156h-1282v156z" />
<glyph unicode="&#x2265;" horiz-adv-x="1716" d="M1499 156v-156h-1282v156h1282zM217 1026v166l1282 -367v-170l-1282 -368v166l1055 286z" />
<glyph unicode="&#x25ca;" horiz-adv-x="1012" d="M506 1409l-385 -817l385 -825l385 825zM506 1653l500 -1061l-500 -1069l-500 1069z" />
<glyph unicode="&#x25cc;" horiz-adv-x="1787" d="M348 143q43 -60 102 -109q46 -38 102 -70l-49 -106q-70 40 -127 88q-75 61 -128 135zM1234 -36q56 32 102 70q52 44 102 109l100 -61q-59 -78 -128 -136q-57 -48 -128 -88zM1438 921q-44 60 -102 109q-46 38 -102 70l48 106q71 -40 128 -88q74 -61 128 -135zM552 1100 q-56 -32 -102 -70q-59 -49 -102 -109l-100 62q49 69 128 135q57 48 127 88zM740 -118q76 -22 153 -22t153 22l38 -110q-95 -27 -191 -27t-192 27zM1543 379q16 73 16 153t-16 153l110 39q20 -91 20 -192t-20 -192zM1046 1182q-76 22 -153 22t-153 -22l-39 110q96 27 192 27 t191 -27zM244 685q-16 -73 -16 -153t16 -153l-110 -39q-20 91 -20 192t20 192z" />
<glyph unicode="&#x25fc;" horiz-adv-x="1065" d="M0 1065h1065v-1065h-1065v1065z" />
<glyph unicode="&#x104b0;" d="M1499 0h-543l22 106h166l-195 1145l-683 -1145h164l-22 -106h-420l22 106h131l827 1387h168l238 -1387h147z" />
<glyph unicode="&#x104b1;" d="M729 0h-107l96 455h107zM1499 0h-543l22 106h166l-195 1145l-683 -1145h164l-22 -106h-420l22 106h131l827 1387h168l238 -1387h147z" />
<glyph unicode="&#x104b2;" d="M920 488q-12 -57 -58 -95t-103 -38t-87 38q-30 41 -18 95q12 55 58 95q48 39 104 39t85 -39q31 -39 19 -95zM1499 0h-543l22 106h166l-195 1145l-683 -1145h164l-22 -106h-420l22 106h131l827 1387h168l238 -1387h147z" />
<glyph unicode="&#x104b3;" horiz-adv-x="1352" d="M1370 0h-555l22 107h174l-244 604l-502 -604h168l-22 -107h-434l23 107h140l603 724l118 556h-191l23 106h584l-23 -106h-191l-114 -537l303 -743h140z" />
<glyph unicode="&#x104b4;" horiz-adv-x="1365" d="M1225 746q10 48 16 95.5t4 90.5t-14.5 80t-38.5 64t-67.5 42.5t-102.5 15.5q-81 0 -140.5 -23t-101.5 -63.5t-68.5 -96.5t-40.5 -122l-35 -165q-14 -66 -12 -122t27 -96.5t75 -63.5t131 -23q91 0 154 33.5t105.5 88.5t68 124t40.5 141zM1459 -409h-352l-132 475 q-10 34 -18 65.5t-17.5 55.5t-21.5 39.5t-29 17.5q-56 8 -103.5 20t-85.5 33.5t-66.5 55t-45.5 85.5l-71 -332h231l-22 -106h-624l22 106h190l272 1280h-190l23 107h624l-23 -107h-231l-70 -331q78 104 173 149t211 45t191 -40.5t115 -109t46.5 -160t-15.5 -193.5 q-16 -77 -45.5 -147.5t-72.5 -131t-99.5 -107.5t-125.5 -76q27 -25 46.5 -60t32.5 -84l123 -443h182z" />
<glyph unicode="&#x104b5;" horiz-adv-x="1661" d="M1652 0h-508l22 106h159l144 242q36 60 42 120t-14 108.5t-64 79t-109 30.5q-64 0 -127.5 -25t-112.5 -71.5t-77 -114.5t-22 -153l22 -322h-1l3 -10q-44 -10 -90.5 -14.5t-96.5 -4.5q-147 0 -260.5 50t-190.5 147q-88 112 -112 254t14 323q73 347 320 561 q245 214 576 214q123 0 253 -31.5t276 -97.5l-73 -344h-113q3 188 -89.5 277t-293.5 89q-241 0 -399 -168.5t-228 -499.5q-70 -328 17 -497.5t326 -169.5q39 0 66 3l-16 241q-6 91 25.5 180.5t97.5 160.5t165.5 115t229.5 44q88 0 158.5 -27t109.5 -79.5t39 -130t-53 -179.5 l-157 -300h164z" />
<glyph unicode="&#x104b6;" horiz-adv-x="1661" d="M1842 302h-229l-103 -196h164l-22 -106h-508l22 106h159l117 196h-201l26 125h236q14 50 8 97t-29.5 83t-63.5 57.5t-94 21.5q-64 0 -127.5 -25t-112.5 -71.5t-77 -114.5t-22 -153l22 -322h-1l3 -10q-44 -10 -90.5 -14.5t-96.5 -4.5q-147 0 -260.5 50t-190.5 147 q-88 112 -112 254t14 323q73 347 320 561q245 214 576 214q123 0 253 -31.5t276 -97.5l-73 -344h-113q3 188 -89.5 277t-293.5 89q-241 0 -399 -168.5t-228 -499.5q-70 -328 17 -497.5t326 -169.5q39 0 66 3l-16 241q-6 91 25.5 180.5t97.5 160.5t165.5 115t229.5 44 q86 0 155 -25.5t109 -75.5t43 -123.5t-43 -170.5h191z" />
<glyph unicode="&#x104b7;" horiz-adv-x="1464" d="M1098 1099q2 26 0.5 59t-7.5 67t-17 66t-29 57t-43.5 40.5t-59.5 15.5q-68 0 -124.5 -36.5t-102 -95.5t-81 -132.5t-61 -147t-43 -140.5t-26.5 -112q-10 -46 -21 -113.5t-16.5 -142.5t-2 -149.5t23 -134.5t57.5 -97t103 -37q44 0 88 34.5t86 89.5t80.5 122t71 133 t57.5 122.5t41 89.5zM1454 73q-50 -32 -105.5 -55.5t-110.5 -23.5q-54 0 -94 25t-65.5 64.5t-37 88.5t-8.5 97l5 98q-40 -80 -78.5 -152t-88 -126t-117.5 -86t-166 -32q-94 0 -158 37t-104.5 98.5t-59.5 142t-22.5 166.5t5 171.5t24.5 158.5q18 86 47 176.5t71 175.5 t97 160.5t125.5 132t157.5 89t192 32.5q106 0 170 -27.5t97 -79.5t41.5 -127t4.5 -169q25 54 49.5 106t54.5 100t70 90t97 74h109l-18 -81q-62 -23 -105 -68.5t-72 -103.5l-195 -391l-27 -484q-1 -15 -2.5 -39t-1.5 -51.5t2.5 -55.5t9.5 -51t19.5 -37.5t33.5 -14.5 q20 0 43.5 8t47 19.5t46 25t40.5 25.5z" />
<glyph unicode="&#x104b8;" horiz-adv-x="1464" d="M915 740q-6 -29 -21 -53t-37 -42t-48.5 -28t-54.5 -10q-58 0 -87 38q-16 19 -20 43t2 52q12 57 58 94q46 39 103 39q28 0 50.5 -10t36.5 -28t19 -42.5t-1 -52.5zM1098 1099q2 26 0.5 59t-7.5 67t-17 66t-29 57t-43.5 40.5t-59.5 15.5q-68 0 -124.5 -36.5t-102 -95.5 t-81 -132.5t-61 -147t-43 -140.5t-26.5 -112q-10 -46 -21 -113.5t-16.5 -142.5t-2 -149.5t23 -134.5t57.5 -97t103 -37q44 0 88 34.5t86 89.5t80.5 122t71 133t57.5 122.5t41 89.5zM1454 73q-50 -32 -105.5 -55.5t-110.5 -23.5q-54 0 -94 25t-65.5 64.5t-37 88.5t-8.5 97 l5 98q-40 -80 -78.5 -152t-88 -126t-117.5 -86t-166 -32q-94 0 -158 37t-104.5 98.5t-59.5 142t-22.5 166.5t5 171.5t24.5 158.5q18 86 47 176.5t71 175.5t97 160.5t125.5 132t157.5 89t192 32.5q106 0 170 -27.5t97 -79.5t41.5 -127t4.5 -169q25 54 49.5 106t54.5 100 t70 90t97 74h109l-18 -81q-62 -23 -105 -68.5t-72 -103.5l-195 -391l-27 -484q-1 -15 -2.5 -39t-1.5 -51.5t2.5 -55.5t9.5 -51t19.5 -37.5t33.5 -14.5q20 0 43.5 8t47 19.5t46 25t40.5 25.5z" />
<glyph unicode="&#x104b9;" horiz-adv-x="1403" d="M1339 408q-27 -127 -89.5 -211t-149 -134.5t-191 -71t-216.5 -20.5q-132 0 -254 26.5t-234 74.5l72 340l115 -1q-17 -92 -3 -155.5t55 -103t107 -57t153 -17.5q69 0 137.5 13t126.5 44.5t100.5 84.5t59.5 134q9 42 -2.5 101t-33 128.5t-48.5 146.5t-48.5 156t-32.5 156.5 t-1.5 148t44.5 131t106 104.5t183 69t275 25l-23 -107q-106 0 -175.5 -20.5t-110.5 -56.5t-57.5 -85.5t-16 -108t14.5 -123.5t34 -132.5t42 -134t38.5 -129t24 -117.5t-1.5 -98z" />
<glyph unicode="&#x104ba;" horiz-adv-x="1403" d="M1339 408q-27 -127 -89.5 -211t-149 -134.5t-191 -71t-216.5 -20.5q-132 0 -254 26.5t-234 74.5l72 340l115 -1q-17 -92 -3 -155.5t55 -103t107 -57t153 -17.5q69 0 137.5 13t126.5 44.5t100.5 84.5t59.5 134q9 40 -1.5 96t-30.5 121.5t-45.5 139t-47 149t-35.5 151 t-10 145t29.5 130.5t81.5 109t147.5 79.5t227.5 41.5l36 170h125l-93 -439h-125l33 156q-95 -16 -146 -56.5t-71.5 -97.5t-15 -127.5t24.5 -147t45 -155.5t48 -153.5t33.5 -140.5t0.5 -117z" />
<glyph unicode="&#x104bb;" horiz-adv-x="1726" d="M1470 0h-584l22 107h191l327 772q30 70 38.5 130.5t4 111t-19 90t-31.5 67.5q-71 113 -299 113t-346 -113q-30 -28 -61.5 -67.5t-57.5 -90t-43 -111t-17 -130.5l-2 -772h191l-22 -107h-504l22 107h190l7 792q0 83 21.5 155.5t55 133.5t75 109.5t81.5 83.5 q160 141 475 141t418 -142q26 -36 47 -84.5t29 -109t-1.5 -132.5t-43.5 -155l-332 -792h191z" />
<glyph unicode="&#x104bc;" horiz-adv-x="1530" d="M1777 1386h-168l-702 -514q23 6 48.5 11t52.5 9q300 44 423 -123q85 -114 45 -306l-93 -439q-52 -246 -175 -357q-124 -110 -340 -110q-145 0 -276 68l50 235h114q-36 -196 137 -196q119 0 182 75q62 74 109 293l92 431q38 181 -29 233q-102 81 -294 57 q-116 -14 -225 -105q-103 -85 -127 -197l-73 -345h190l-22 -106h-583l22 106h190l272 1280h-190l23 107h583l-23 -107h-190l-120 -565l763 565h-162l23 107h496z" />
<glyph unicode="&#x104bd;" horiz-adv-x="1585" d="M1777 1386h-168l-702 -514q19 4 37 8q16 3 33 6.5t31 5.5q300 44 423 -123q85 -114 45 -306l-93 -439q-52 -246 -175 -357q-124 -110 -340 -110q-145 0 -276 68l50 235h114q-36 -196 137 -196q119 0 182 75q62 74 109 293l92 431q38 181 -29 233q-102 81 -294 57 q-116 -14 -225 -105q-52 -43 -82.5 -92t-44.5 -105l-26 -112l-47 -233h190l-22 -106h-583l22 106h190l214 1007h-203l27 125h203l31 148h-190l23 107h583l-23 -107h-190l-31 -148h195l-27 -125h-195l-62 -292l763 565h-162l23 107h496z" />
<glyph unicode="&#x104be;" horiz-adv-x="1530" d="M1118 -216q-38 90 -199 90q-112 0 -137 -123q-21 -95 144 -95q127 0 192 128zM1777 1386h-168l-702 -514q23 6 48.5 11t52.5 9q300 44 423 -123q85 -114 45 -306l-121 -567q-12 -57 -38 -103t-51 -83q11 -49 14.5 -90t-0.5 -74h-113l-1 75q-116 -76 -267 -76 q-379 0 -337 199q50 230 309 230q190 0 288 -60l117 549q38 181 -29 233q-102 81 -294 57q-116 -14 -225 -105q-103 -85 -127 -197l-73 -345h190l-22 -106h-583l22 106h190l272 1280h-190l23 107h583l-23 -107h-190l-120 -565l763 565h-162l23 107h496z" />
<glyph unicode="&#x104bf;" horiz-adv-x="1567" d="M1527 395q-111 -211 -288.5 -317.5t-416.5 -106.5q-151 0 -262 43.5t-182.5 117.5t-104 173.5t-27 211t48 229t122 229t194.5 211t265 173.5t334.5 117.5t402.5 43.5l-23 -107q-179 0 -329.5 -37.5t-272.5 -101.5t-216.5 -149.5t-160 -181.5t-103 -197.5t-46.5 -197.5 t10 -181.5t67 -149.5t124.5 -101.5t181.5 -37.5q336 0 498 317h184z" />
<glyph unicode="&#x104c0;" horiz-adv-x="1700" d="M1460 985q8 54 8.5 105.5t-10 96.5t-32.5 82.5t-58 63.5q-106 -51 -178 -141.5t-109 -206.5q-20 -63 -32.5 -130.5t-7 -125t34 -96.5t90.5 -44q43 -4 79.5 12t67 45.5t54.5 70t42.5 85.5t31 92t19.5 91zM2026 1018h-113q2 97 -10.5 166t-48 113.5t-98 65.5t-158.5 21h-5 q59 -73 68.5 -176t-18.5 -223q-14 -62 -39.5 -123t-60.5 -116.5t-79 -103t-94.5 -81.5t-107 -52.5t-117.5 -15.5q-87 4 -144 48t-86 113t-33.5 155.5t13.5 175.5q25 126 101 227t185 172q-90 0 -165.5 -22.5t-134.5 -68t-99.5 -114t-59.5 -161.5l-78 -365l-116 -547h231 l-22 -106h-624l22 106h190l272 1280h-190l23 107h393l-41 -193q45 63 93 104.5t101 66.5t111.5 35.5t123.5 10.5q124 0 211 -27q100 27 204 27q72 0 132 -14t115.5 -36t110.5 -50t115 -55z" />
<glyph unicode="&#x104c1;" horiz-adv-x="1772" d="M1849 395q-111 -211 -288.5 -317.5t-416.5 -106.5q-147 0 -260.5 50t-190.5 147q-73 93 -102.5 205.5t-15.5 251.5l-309 -519h164l-22 -106h-420l22 106h131l827 1387h134l-120 -190q-35 -55 -68.5 -137t-59.5 -178.5t-42.5 -201.5t-16.5 -206t18.5 -192t62 -160 t115 -109.5t176.5 -40.5q336 0 498 317h184z" />
<glyph unicode="&#x104c2;" horiz-adv-x="1679" d="M1493 745q70 331 -19 499.5t-334 168.5q-246 0 -407 -168.5t-231 -499.5q-71 -330 18.5 -498.5t335.5 -168.5q247 0 406.5 167.5t230.5 499.5zM1723 745q-38 -179 -123.5 -322.5t-221.5 -254.5q-239 -197 -545 -197q-153 0 -269 50t-193 147q-88 112 -112 253.5t14 323.5 t122.5 324t221.5 254q239 197 546 197q324 0 479 -213q154 -213 81 -562z" />
<glyph unicode="&#x104c3;" horiz-adv-x="1679" d="M1130 745q-6 -29 -21 -53t-37 -42t-48.5 -28t-54.5 -10q-58 0 -87 38q-30 38 -18 95q12 56 58 94q46 39 103 39q28 0 50.5 -10t36.5 -28t19 -42.5t-1 -52.5zM1493 745q70 331 -19.5 499.5t-333.5 168.5q-248 0 -407.5 -167.5t-230.5 -500.5q-71 -332 17.5 -499.5 t336.5 -167.5q246 0 406 167.5t231 499.5zM1723 745q-76 -356 -345 -577q-241 -197 -545 -197q-153 0 -269 50t-193 147q-89 112 -112.5 253.5t14.5 323.5t122.5 324t221.5 254q238 197 546 197q324 0 479 -213q154 -213 81 -562z" />
<glyph unicode="&#x104c4;" horiz-adv-x="1384" d="M1225 746q10 48 16 95.5t4 90.5t-14.5 80t-38.5 64t-67.5 42.5t-102.5 15.5q-81 0 -140.5 -23t-101.5 -63.5t-68.5 -96.5t-40.5 -122l-35 -165q-14 -66 -12 -122t27 -96.5t75 -63.5t131 -23q91 0 154 33.5t105.5 88.5t68 124t40.5 141zM1440 746q-22 -102 -67 -193 t-114 -159.5t-161.5 -109t-208.5 -40.5t-191.5 45t-109.5 149l-71 -332h231l-22 -106h-624l22 106h190l272 1280h-190l23 107h624l-23 -107h-231l-70 -331q78 104 173 149t211 45t191 -40.5t115 -109t46.5 -160t-15.5 -193.5z" />
<glyph unicode="&#x104c5;" horiz-adv-x="1384" d="M1225 746q10 48 16 95.5t4 90.5t-14.5 80t-38.5 64t-67.5 42.5t-102.5 15.5q-81 0 -140.5 -23t-101.5 -63.5t-68.5 -96.5t-40.5 -122l-5 -20h231l-26 -125h-231l-4 -20q-14 -66 -12 -122t27 -96.5t75 -63.5t131 -23q91 0 154 33.5t105.5 88.5t68 124t40.5 141zM1440 746 q-22 -102 -67 -193t-114 -159.5t-161.5 -109t-208.5 -40.5t-191.5 45t-109.5 149l-71 -332h231l-22 -106h-624l22 106h190l123 578h-167l26 125h167l123 577h-190l23 107h624l-23 -107h-231l-70 -331q78 104 173 149t211 45t191 -40.5t115 -109t46.5 -160t-15.5 -193.5z" />
<glyph unicode="&#x104c6;" horiz-adv-x="1567" d="M1625 1047h-113q2 97 -21.5 166t-71.5 113.5t-120.5 65.5t-169.5 21q-112 0 -206.5 -37.5t-168.5 -101.5t-126 -149.5t-79.5 -181.5t-28.5 -197.5t27.5 -197.5t88 -181.5t153 -149.5t222 -101.5t295.5 -37.5l-23 -107q-212 0 -375.5 43.5t-281.5 117.5t-192.5 173.5 t-108.5 211t-29 229t45.5 229t115 211t179.5 173.5t239 117.5t294 43.5q144 0 276 -37.5t253 -91.5z" />
<glyph unicode="&#x104c7;" horiz-adv-x="1895" d="M1848 0h-508l22 106h159l72 340q25 116 15.5 193.5t-52.5 124t-120.5 66t-188.5 19.5q-67 0 -151 -8.5t-173 -28.5t-176.5 -53t-160 -82t-125 -115.5t-70.5 -153.5q-18 -85 -0.5 -147t61.5 -102.5t109 -60.5t143 -20q69 0 137 13t126 44.5t101 84.5t60 134q10 46 6 88.5 t-28 77.5q-14 20 -40 37t-56.5 31.5t-62 25.5t-55.5 19q-64 21 -130 40t-126 43t-110 56.5t-82 79.5t-42.5 112.5t8.5 155.5q24 112 84 189t142 123.5t178.5 67t194.5 20.5q126 0 243.5 -25.5t229.5 -62.5l-68 -318h-113q10 85 -7.5 142.5t-58.5 92.5t-103 49.5t-142 14.5 q-63 0 -124 -12t-112 -41t-88 -77.5t-53 -121.5q-14 -65 1 -111t50.5 -78.5t87.5 -55.5t112 -42t123.5 -37t122.5 -41t109 -54t82.5 -76.5t44 -108.5t-6.5 -149q-27 -128 -89.5 -212t-149.5 -134t-191.5 -70.5t-215.5 -20.5q-120 0 -210.5 19t-145.5 67.5t-71 133.5t12 217 q25 118 86 205.5t144.5 149.5t184.5 101.5t207.5 62t211.5 31t197 8.5q72 0 141 -11.5t128 -35.5t106.5 -61t77 -88t38 -117.5t-8.5 -148.5l-85 -398h164z" />
<glyph unicode="&#x104c8;" horiz-adv-x="1642" d="M1452 748q66 310 -39.5 468t-397.5 158h-14l-473 -1268h190q287 0 477 166q191 166 257 476zM1682 748q-73 -351 -332 -550q-258 -198 -643 -198h-594h-1l22 106h1h190l473 1268h-439l-50 -233h-123l75 352h763q386 0 559 -197q174 -197 99 -548z" />
<glyph unicode="&#x104c9;" horiz-adv-x="1642" d="M1452 748q66 310 -39.5 468t-397.5 158h-14l-211 -565h200l-26 -125h-220l-216 -578h190q287 0 477 166q191 166 257 476zM1682 748q-73 -351 -332 -550q-258 -198 -643 -198h-594h-1l22 106h1h190l216 578h-178l26 125h198l211 565h-439l-50 -233h-123l75 352h763 q386 0 559 -197q174 -197 99 -548z" />
<glyph unicode="&#x104ca;" horiz-adv-x="1642" d="M1199 963q22 103 14 179.5t-38 127t-79 75.5t-109 25h-11l-362 -834h124q96 0 172 28t133 82.5t95.5 134t60.5 182.5zM1394 962q-54 -252 -255 -392q-46 -32 -111.5 -52.5t-143 -37t-162 -32t-168 -36.5t-162 -51.5t-142.5 -76t-110 -110.5t-65 -155q-29 -136 49 -206 t257 -70q192 0 302 81t152 252l115 1l-72 -340q-284 -101 -532 -101q-276 0 -390.5 109.5t-68.5 327.5q13 61 43.5 113.5t71 96.5t88 80t95.5 64q112 66 245 109l362 834h-289l-36 -166h-105l62 289h466q275 0 416 -141t88 -390z" />
<glyph unicode="&#x104cb;" horiz-adv-x="1642" d="M1199 963q22 103 14 179.5t-38 127t-79 75.5t-109 25h-11l-151 -348h112l-26 -122h-138l-159 -364h124q96 0 172 28t133 82.5t95.5 134t60.5 182.5zM1394 962q-54 -252 -255 -392q-46 -32 -111.5 -52.5t-143 -37t-162 -32t-168 -36.5t-162 -51.5t-142.5 -76t-110 -110.5 t-65 -155q-29 -136 49 -206t257 -70q192 0 302 81t152 252l115 1l-72 -340q-284 -101 -532 -101q-276 0 -390.5 109.5t-68.5 327.5q13 61 43.5 113.5t71 96.5t88 80t95.5 64q112 66 245 109l159 364h-180l26 122h206l151 348h-289l-36 -166h-105l62 289h466q275 0 416 -141 t88 -390z" />
<glyph unicode="&#x104cc;" horiz-adv-x="1642" d="M1394 962q-54 -252 -255 -392q-56 -39 -141.5 -62t-185.5 -42.5t-205.5 -41.5t-201 -58.5t-173.5 -94.5t-122 -149h270l-26 -122h-283q-20 -126 58.5 -191.5t251.5 -65.5q192 0 302 81t152 252l115 1l-72 -340q-284 -101 -532 -101q-502 0 -470 364h-174l26 122h173 q19 55 52 101.5t74 86t86.5 71.5t90.5 57q105 59 226 98l362 834h-289l-36 -166h-105l62 289h466q275 0 416 -141t88 -390zM1199 963q22 103 14 179.5t-38 127t-79 75.5t-109 25h-11l-362 -834h124q96 0 172 28t133 82.5t95.5 134t60.5 182.5z" />
<glyph unicode="&#x104cd;" horiz-adv-x="1644" d="M1612 0h-508l22 106h159l80 377q21 98 23 164.5t-14 101.5q-33 72 -154 72q-129 0 -215 -92.5t-124 -271.5l-75 -351h191l-22 -106h-584l22 106h191l270 1268h-439l-50 -233h-123l75 352h1326l-75 -352h-123l50 233h-439l-135 -635q74 109 166.5 163.5t201.5 54.5 q176 0 237.5 -101t15.5 -315l-92 -435h164z" />
<glyph unicode="&#x104ce;" horiz-adv-x="1726" d="M1928 1386h-190l-168 -792q-72 -339 -234 -482q-161 -141 -475 -141q-315 0 -417 142q-103 142 -31 481l168 792h-191l23 107h584l-23 -107h-191l-164 -772q-61 -286 8 -399q71 -113 299 -113t346 113q117 111 179 399l164 772h-191l23 107h504z" />
<glyph unicode="&#x104cf;" horiz-adv-x="1000" d="M1071 870l-366 -764h190l-22 -106h-583l22 106h190l308 642h-539l339 638h-190l23 107h583l-23 -107h-190l-272 -516h530z" />
<glyph unicode="&#x104d0;" horiz-adv-x="1796" d="M1717 0h-201q-193 0 -131 291l62 290q51 241 -23 335q-50 67 -202 91l-192 -900h190l-22 -107h-583l22 107h190l192 900q-162 -25 -243 -91q-113 -93 -164 -335l-62 -290q-62 -291 -253 -291h-201l22 107h102q89 0 128 184l66 307q59 278 218 404q132 105 411 120l56 265 h-190l23 106h583l-23 -106h-190l-56 -265q265 -15 358 -120q109 -118 49 -404l-66 -307q-39 -184 50 -184h102z" />
<glyph unicode="&#x104d1;" horiz-adv-x="1796" d="M2011 1386h-102q-89 0 -128 -184l-65 -307q-62 -286 -220 -404q-138 -105 -410 -120l-56 -265h190l-22 -106h-583l22 106h190l56 265q-272 15 -359 120q-107 127 -47 404l65 307q39 184 -50 184h-102l23 107h201q191 0 130 -291l-62 -290q-51 -241 22 -335 q52 -66 204 -91l191 900h-190l23 107h583l-23 -107h-190l-191 -900q162 24 241 91q114 93 165 335l62 290q61 291 254 291h201z" />
<glyph unicode="&#x104d2;" horiz-adv-x="1423" d="M1609 1421l-1218 -1315h164l-22 -106h-548l22 106h131l1175 1264h-772l-48 -223h-123l74 346h1180z" />
<glyph unicode="&#x104d3;" horiz-adv-x="1423" d="M1191 0q-15 159 -105 241.5t-258 82.5q-174 0 -296 -81t-209 -243h-231l15 72l1206 1298h-772l-48 -223h-123l74 346h1180l-15 -72l-939 -1011q91 21 181 21q113 0 204.5 -26.5t159 -79.5t108.5 -134.5t52 -190.5h-184z" />
<glyph unicode="&#x104d8;" horiz-adv-x="1157" d="M1151 0h-489l22 107h170l-143 731l-455 -731h159l-22 -107h-399l22 107h119l594 956h135l188 -956h121z" />
<glyph unicode="&#x104d9;" horiz-adv-x="1157" d="M1151 0h-433l22 107h114l-143 731l-455 -731h106l-22 -107h-346l22 107h119l594 956h135l188 -956h121zM583 0h-107l96 455h107z" />
<glyph unicode="&#x104da;" horiz-adv-x="1157" d="M1151 0h-433l22 107h114l-143 731l-455 -731h106l-22 -107h-346l22 107h119l594 956h135l188 -956h121zM733 319q-12 -57 -58 -95t-103 -38t-87 38q-30 41 -18 95q12 55 58 95q48 39 104 39t85 -39q31 -39 19 -95z" />
<glyph unicode="&#x104db;" horiz-adv-x="1157" d="M1115 0h-489l22 107h170l-143 731l-455 -731h159l-22 -107h-399l23 107h118l547 881l-19 93l-32 177q-9 46 -27.5 76t-31.5 46q-29 31 -82 31q-60 0 -94.5 -29t-55.5 -98h-94l44 203q54 15 104 23t98 8q28 0 66 -3t75 -8.5t67.5 -14t43.5 -20.5q53 -45 75 -169l233 -1196 h121z" />
<glyph unicode="&#x104dc;" horiz-adv-x="1019" d="M869 532q9 43 12.5 89t-6 83.5t-37.5 62t-82 24.5q-50 0 -87 -19.5t-63 -51t-42.5 -72.5t-25.5 -84l-13 -65q-9 -43 -10.5 -84t10.5 -72.5t40.5 -51t79.5 -19.5q54 0 92 24.5t64 62.5t42.5 84t25.5 89zM1124 -195l-24 -103h-285l-94 338q-4 15 -8 35.5t-10.5 39.5 t-16.5 33.5t-26 18.5q-27 7 -54.5 12t-52 13.5t-45.5 21.5t-36 36l-53 -250h-360l22 106h176l181 850h-176l22 107h360l-53 -250q50 47 107 65t117 18q77 0 128 -30.5t78 -81.5t32.5 -116.5t-9.5 -135.5q-10 -46 -27.5 -91.5t-43.5 -86.5t-61.5 -77t-80.5 -63q32 -22 45 -53 t23 -68l80 -288h145z" />
<glyph unicode="&#x104dd;" horiz-adv-x="1269" d="M1266 0h-356l18 87h109l84 211q12 29 14.5 53.5t-1 45t-11.5 35.5t-18 26q-43 43 -128 43q-44 0 -74 -11t-50 -31q-10 -11 -21.5 -26.5t-21.5 -35.5t-17 -45t-7 -54l-6 -298q-21 -9 -47 -15q-23 -5 -54.5 -9.5t-69.5 -4.5q-232 0 -340 153q-108 154 -54 408 q54 255 227 407q174 153 406 153q201 0 381 -95l-57 -272h-107q8 140 -48.5 204t-187.5 64q-301 0 -399 -461q-99 -462 202 -462q11 0 23.5 1t24.5 3l14 258q4 69 40 121.5t84 86.5q93 65 221 65q130 0 194 -65q16 -17 28.5 -38.5t18.5 -47.5t3.5 -57t-15.5 -65l-90 -245 h106z" />
<glyph unicode="&#x104de;" horiz-adv-x="1378" d="M1266 0h-356l18 87h109l84 211q12 29 14.5 53.5t-1 45t-11.5 35.5t-18 26q-43 43 -128 43q-44 0 -74 -11t-50 -31q-10 -11 -21.5 -26.5t-21.5 -35.5t-17 -45t-7 -54l-6 -298q-21 -9 -47 -15q-23 -5 -54.5 -9.5t-69.5 -4.5q-232 0 -340 153q-108 154 -54 408 q54 255 227 407q174 153 406 153q201 0 381 -95l-57 -272h-107q8 140 -48.5 204t-187.5 64q-301 0 -399 -461q-99 -462 202 -462q11 0 23.5 1t24.5 3l14 258q4 69 40 121.5t84 86.5q93 65 221 65q130 0 194 -65q16 -17 28.5 -38.5t18.5 -47.5t3.5 -57t-15.5 -65l-90 -245 h106zM1425 212h-316h-186l25 122h209h293z" />
<glyph unicode="&#x104df;" horiz-adv-x="1383" d="M938 458l-1 294q1 233 -136 235q-112 1 -228 -122q-94 -101 -143 -333q-24 -111 -23 -193.5t25 -139.5q53 -123 189 -113q117 9 252 254zM1338 49q-228 -117 -345 5q-54 57 -54 137v71l-63 -111q-51 -86 -156 -141q-70 -37 -180 -35q-197 2 -287 155q-91 155 -38 406 q53 245 211 405q149 152 395 150q172 0 242 -67q63 -58 65 -188v-37l63 111q60 106 172 157h101l-12 -59q-102 -30 -157 -124l-164 -284l5 -306q3 -158 37 -174q49 -25 191 50z" />
<glyph unicode="&#x104e0;" horiz-adv-x="1383" d="M830 525q-12 -57 -58 -95q-45 -38 -103 -38q-59 0 -87 38q-30 38 -18 95q12 55 58 95q48 39 104 39q55 0 85 -39q31 -40 19 -95zM938 458l-1 294q1 233 -136 235q-112 1 -228 -122q-94 -101 -143 -333q-24 -111 -23 -193.5t25 -139.5q53 -123 189 -113q117 9 252 254z M1338 49q-228 -117 -345 5q-54 57 -54 137v71l-63 -111q-51 -86 -156 -141q-70 -37 -180 -35q-197 2 -287 155q-91 155 -38 406q53 245 211 405q149 152 395 150q172 0 242 -67q63 -58 65 -188v-37l63 111q60 106 172 157h101l-12 -59q-102 -30 -157 -124l-164 -284l5 -306 q3 -158 37 -174q49 -25 191 50z" />
<glyph unicode="&#x104e1;" horiz-adv-x="1051" d="M1008 295q-20 -92 -71.5 -154t-121.5 -100t-151 -54t-159 -16q-104 0 -198 22.5t-180 65.5l53 248h106q-12 -66 0 -111t43.5 -73t79.5 -40.5t109 -12.5q46 0 93 8t87.5 28.5t70.5 55.5t42 90q6 26 -3.5 66t-26 88.5t-36.5 104t-36 113t-24 114.5t-0.5 109t34.5 96.5 t80.5 77.5t138 52t207.5 19l-21 -99q-97 0 -151.5 -21.5t-78 -58.5t-22 -86.5t16.5 -105.5t39 -115t44.5 -115t32 -106.5t3.5 -89.5z" />
<glyph unicode="&#x104e2;" horiz-adv-x="1051" d="M1214 832h-125l34 157q-97 0 -151.5 -21.5t-78 -58t-22 -85.5t17 -104.5t39 -114.5t44.5 -115t32.5 -106t3.5 -89q-20 -92 -71.5 -154t-121.5 -100t-151 -54t-159 -16q-104 0 -198 22.5t-180 65.5l53 248h106q-12 -66 0 -111t43.5 -73t79.5 -40.5t109 -12.5q46 0 93 8 t87.5 28.5t70.5 55.5t42 90q6 26 -3.5 66t-26 88.5t-36.5 104t-36 113t-24 114.5t0 109t34.5 96.5t80.5 77.5t138.5 52t207.5 19l35 170h125z" />
<glyph unicode="&#x104e3;" horiz-adv-x="1198" d="M1131 0h-517l22 107h166l170 512q16 48 20 89t-0.5 74t-17 59t-28.5 44q-69 72 -206 72t-204 -72q-17 -18 -35 -44t-33 -59t-26.5 -74t-15.5 -89l-47 -512h166l-22 -107h-455l22 107h166l59 569q6 53 22.5 99.5t41 86.5t55.5 72.5t66 57.5q139 100 331 100t288 -100 q24 -25 41 -57.5t24.5 -72.5t4.5 -86.5t-20 -99.5l-182 -569h166z" />
<glyph unicode="&#x104e4;" horiz-adv-x="1241" d="M1399 956h-182l-467 -360h155q198 0 254 -101q59 -111 16 -315l-61 -284q-35 -164 -153 -258q-119 -93 -288 -93q-142 0 -251 66l46 219h95q-14 -97 19.5 -141.5t115.5 -44.5q83 0 147 62q56 54 84 190l48 226q21 98 23 164.5t-14 101.5q-33 72 -170 72h-243l-67 -52 l-64 -302h166l-22 -106h-516l22 106h166l286 1345h-177l22 105h361l-215 -1013l536 413h-153l22 107h481z" />
<glyph unicode="&#x104e5;" horiz-adv-x="1280" d="M1399 956h-182l-467 -360h155q198 0 254 -101q59 -111 16 -315l-61 -284q-35 -164 -153 -258q-119 -93 -288 -93q-142 0 -251 66l46 219h95q-14 -97 19.5 -141.5t115.5 -44.5q83 0 147 62q56 54 84 190l48 226q21 98 23 164.5t-14 101.5q-33 72 -170 72h-243l-67 -52 l-64 -302h166l-22 -106h-516l22 106h166l235 1104h-186l26 122h186l25 119h-177l22 105h361l-47 -224h316l-26 -122h-316l-142 -667l536 413h-153l22 107h481z" />
<glyph unicode="&#x104e6;" horiz-adv-x="1241" d="M892 -216q-38 90 -199 90q-112 0 -137 -123q-21 -95 144 -95q127 0 192 128zM1399 956h-182l-467 -360h155q198 0 254 -101q29 -55 34 -133.5t-18 -181.5l-62 -284q-13 -57 -30.5 -103t-42.5 -83q11 -49 14.5 -90t-0.5 -74h-113l-1 75q-116 -76 -267 -76q-379 0 -337 199 q50 230 309 230q190 0 288 -60l44 208q21 98 23 164.5t-14 101.5q-33 72 -170 72h-243l-67 -52l-64 -302h166l-22 -106h-516l22 106h166l286 1345h-177l22 105h361l-215 -1013l536 413h-153l22 107h481z" />
<glyph unicode="&#x104e7;" horiz-adv-x="1147" d="M1120 319q-75 -171 -204.5 -259.5t-306.5 -88.5q-138 0 -229 48t-138 127t-50 179.5t35 206t116 206t194 179.5t268.5 127t339.5 48l-21 -99q-141 0 -255 -39.5t-200.5 -104.5t-145.5 -148t-90 -169.5t-34.5 -169.5t21 -148t77.5 -104.5t135 -39.5q236 0 340 249h148z " />
<glyph unicode="&#x104e8;" horiz-adv-x="1613" d="M1281 555q9 54 9 105.5t-10 96.5t-32.5 82.5t-58.5 63.5q-106 -51 -178 -141.5t-109 -206.5q-20 -63 -32 -130.5t-6.5 -125t33.5 -96.5t90 -44q64 -5 114.5 32t87 96t59.5 131t33 137zM1847 588h-113q2 97 -10.5 166.5t-48 114t-98 65t-158.5 20.5h-5q60 -73 69 -175.5 t-19 -223.5q-14 -61 -39.5 -122t-60.5 -116.5t-78.5 -103.5t-94 -82t-107 -52.5t-117.5 -15.5q-88 4 -144.5 48.5t-86 113.5t-33.5 155t13 175q26 126 101.5 227t184.5 172q-90 0 -165.5 -22.5t-134 -68t-99 -114t-60.5 -161.5l-77 -365l-25 -117h174l-22 -106h-534l22 106 h176l181 850h-176l22 107h360l-41 -193q45 63 93.5 104.5t101.5 66.5t111.5 35.5t123.5 10.5q124 0 211 -27q100 27 204 27q72 0 132 -14t115.5 -36t110 -50t115.5 -55z" />
<glyph unicode="&#x104e9;" horiz-adv-x="1293" d="M1364 319q-75 -171 -204.5 -259.5t-306.5 -88.5q-232 0 -340 153q-78 111 -72 274l-185 -291h159l-22 -107h-399l22 107h119l594 956h135l-11 -18q-28 -44 -60.5 -109t-63 -142t-55 -160.5t-36.5 -164t-8.5 -153t30 -127t79 -87t137.5 -32.5q236 0 340 249h148z" />
<glyph unicode="&#x104ea;" horiz-adv-x="1233" d="M1028 532q48 229 -2 345t-199 116t-249 -116t-148 -345q-49 -229 1.5 -345.5t198.5 -116.5q149 0 249 116.5t149 345.5zM1243 532q-54 -254 -228 -408q-173 -153 -406 -153q-232 0 -340 153q-108 154 -54 408q54 255 226 407q174 153 407 153t340 -153q109 -154 55 -407z " />
<glyph unicode="&#x104eb;" horiz-adv-x="1233" d="M863 532q-12 -56 -59 -95q-46 -38 -103 -38q-58 0 -87 38t-17 95q11 57 58 95q45 39 103 39q54 0 86 -39q29 -40 19 -95zM1029 532q48 229 -2 345t-199 116t-249 -116t-148 -345q-49 -229 1 -345.5t199 -116.5q148 0 248.5 116.5t149.5 345.5zM1244 532 q-54 -252 -228 -408q-174 -153 -406 -153q-234 0 -340 153q-108 153 -54 408q27 128 82.5 229t143.5 178q172 153 407 153q232 0 340 -153q54 -77 68 -178t-13 -229z" />
<glyph unicode="&#x104ec;" horiz-adv-x="1034" d="M869 532q28 136 -3 197.5t-110 61.5q-81 0 -137 -55.5t-81 -171.5l-13 -65q-25 -117 7 -172t113 -55q79 0 137 62.5t87 197.5zM419 0h-360l22 106h176l181 850h-176l22 107h360l-21 -103l-182 -854zM1044 532q-35 -161 -140 -262q-109 -103 -244 -103q-133 0 -188 83 l-12 -55h-83l127 600l18 83h83l-14 -65q90 83 224 83q135 0 200 -103q32 -51 39 -116t-10 -145z" />
<glyph unicode="&#x104ed;" horiz-adv-x="1034" d="M869 532q9 43 12.5 89t-6 83.5t-37.5 62t-82 24.5q-47 0 -81.5 -16.5t-60 -44t-42.5 -64t-27 -75.5h205l-26 -122h-205q-6 -39 -4.5 -74.5t15 -63t41.5 -43.5t74 -16q54 0 92 24.5t64 62.5t42.5 84t25.5 89zM1044 532q-15 -70 -48 -135.5t-82 -116.5t-113 -82t-141 -31 q-59 0 -109 18t-79 65l-53 -250h-360l22 106h176l77 363h-176l26 122h176l78 365h-176l22 107h360l-53 -250q50 47 107 65t117 18q77 0 128 -30.5t78 -81.5t32.5 -116.5t-9.5 -135.5z" />
<glyph unicode="&#x104ee;" horiz-adv-x="1147" d="M1172 725h-107q8 140 -48.5 204t-187.5 64q-82 0 -152 -39.5t-122.5 -104.5t-84.5 -148t-37.5 -169.5t18.5 -169.5t82.5 -148t155.5 -104.5t238 -39.5l-21 -99q-187 0 -319 48t-214 127t-117.5 179.5t-28.5 206t53 206t126 179.5t192 127t250 48q201 0 381 -95z" />
<glyph unicode="&#x104ef;" horiz-adv-x="1051" d="M1331 0h-366l22 107h114l46 214q18 84 11 139.5t-38 89t-87 47.5t-136 14q-48 0 -108.5 -6t-124.5 -20.5t-126.5 -38t-115 -59t-90 -83.5t-50.5 -110q-13 -61 1 -103.5t48 -69.5t82.5 -39t104.5 -12q125 0 199.5 46t93.5 136q15 70 -24 113q-19 22 -64 44t-116 48 l-124 45q-127 46 -175 111t-26 167q32 147 156 229q125 83 314 83q85 0 172 -22t178 -64l-49 -232h-106q18 103 -37 161t-173 58q-235 0 -270 -164q-15 -68 22 -108q35 -40 162 -82l137 -45q70 -23 118 -52t74.5 -65.5t33 -81.5t-5.5 -100q-31 -150 -166 -238 q-134 -86 -337 -86q-87 0 -153 14.5t-106.5 51.5t-53 99.5t7.5 157.5q18 85 61.5 148t104 107.5t133 73t149 44.5t152.5 22t142 6q78 0 149 -18.5t121 -59t73 -103.5t4 -151l-55 -256h119z" />
<glyph unicode="&#x104f0;" horiz-adv-x="1199" d="M1031 533q22 103 14 179.5t-38.5 127t-79.5 75.5t-109 25h-11l-361 -834h124q193 0 305 110.5t156 316.5zM1226 532q-54 -251 -256 -392q-202 -140 -474 -140h-423l22 106h167l361 834h-289l-35 -166h-105l61 289h466q275 0 416 -141t89 -390z" />
<glyph unicode="&#x104f1;" horiz-adv-x="1199" d="M1031 533q22 103 14 179.5t-38.5 127t-79.5 75.5t-109 25h-11l-151 -349l112 1l-26 -122h-139l-157 -364h124q193 0 305 110.5t156 316.5zM1226 532q-54 -251 -256 -392q-202 -140 -474 -140h-423l22 106h167l157 364h-179l26 122l206 -1l151 349h-289l-35 -166h-105 l61 289h466q275 0 416 -141t89 -390z" />
<glyph unicode="&#x104f2;" horiz-adv-x="1037" d="M565 406h62q124 0 195.5 69.5t100.5 209.5q14 67 9.5 116.5t-22.5 82t-47 48.5t-64 18zM908 395q-35 -25 -83 -40t-102 -26q-54 -12 -112 -22.5t-115 -25.5t-108.5 -35t-93 -50t-70.5 -71.5t-41 -99.5q-18 -83 29 -128t167 -45q63 0 111 13t84 41t60.5 72t39.5 106l118 1 l-58 -270q-111 -40 -205.5 -58.5t-182.5 -18.5q-194 0 -280 81t-52 244q11 54 39.5 98t66 80t80 63.5t81 47.5t70 32t46.5 17l236 549h-163l-34 -164h-105l61 289h341q197 0 299 -103q103 -106 64 -288q-40 -184 -188 -289z" />
<glyph unicode="&#x104f3;" horiz-adv-x="1037" d="M711 745h73l-27 -124h-100l-92 -215h62q124 0 195.5 69.5t100.5 209.5q15 69 11 119.5t-22 82.5t-47.5 47.5t-65.5 15.5zM908 395q-35 -25 -83 -40t-102 -26q-53 -12 -111.5 -22.5t-115.5 -25.5t-108.5 -35t-93 -50t-70.5 -71.5t-41 -99.5q-18 -83 29 -128t167 -45 q63 0 111 13t84 41t60.5 72t39.5 106l118 1l-58 -270q-111 -40 -205.5 -58.5t-182.5 -18.5q-194 0 -280 81t-52 244q11 54 39.5 98t66 80t80 63.5t81 47.5t70 32t46.5 17l94 220h-119l27 124h146l88 205h-163l-34 -164h-105l61 289h341q197 0 299 -103q103 -106 64 -288 q-40 -184 -188 -289z" />
<glyph unicode="&#x104f4;" horiz-adv-x="1037" d="M908 395q-35 -25 -83 -40t-102 -26q-53 -12 -111.5 -22.5t-115.5 -25.5q-44 -11 -84 -25.5t-75 -33t-64 -43.5t-50 -57h159l-27 -124h-176q-7 -70 41.5 -108t158.5 -38q63 0 111 13t84 41t60.5 72t39.5 106l118 1l-58 -270q-111 -40 -205.5 -58.5t-182.5 -18.5 q-175 0 -261.5 64.5t-79.5 195.5h-112l27 124h113q19 43 50 79.5t66.5 66t73.5 52.5t72 39.5t61 26.5t41 15l236 549h-163l-34 -164h-105l61 289h341q197 0 299 -103q103 -106 64 -288q-40 -184 -188 -289zM565 406h62q124 0 195.5 69.5t100.5 209.5q15 69 11 119.5 t-22 82.5t-47.5 47.5t-65.5 15.5z" />
<glyph unicode="&#x104f5;" horiz-adv-x="1325" d="M1264 0h-395l22 106h103l63 296q14 63 15 106.5t-9 66.5q-22 46 -101 46q-80 0 -136 -55t-79 -161l-64 -299h103l-22 -106h-453l22 106h166l177 834h-289l-35 -166h-105l61 289h972l-61 -289h-105l35 166h-289l-79 -371q97 141 239 141q57 0 106 -16t81 -49.5t45 -84.5 t-2 -121l-71 -333h107z" />
<glyph unicode="&#x104f6;" horiz-adv-x="1198" d="M1395 956h-166l-121 -569q-47 -217 -185 -316q-139 -100 -331 -100t-288 100q-97 101 -50 316l121 569h-166l22 107h517l-22 -107h-166l-109 -512q-21 -97 -14 -163.5t40 -102.5q69 -72 206 -72q136 0 204 72q68 71 110 266l109 512h-166l22 107h455z" />
<glyph unicode="&#x104f7;" horiz-adv-x="811" d="M877 640l-298 -534h166l-22 -106h-516l22 106h166l228 410h-444l278 441h-166l22 106h516l-22 -106h-166l-198 -317h434z" />
<glyph unicode="&#x104f8;" horiz-adv-x="1606" d="M1477 0h-101q-45 48 -76 95.5t-48 98.5q-40 115 9 343q41 191 8 297q-39 133 -168 130l-272 -1283h175l-23 -107h-535l23 107h175l272 1283q-128 3 -224 -130q-77 -106 -118 -297q-47 -214 -137 -343q-32 -46 -83.5 -94t-122.5 -100h-101l12 59q62 38 122 149 q30 54 56.5 136t50.5 193q17 82 35 137.5t35 85.5q30 51 67 94t80 78q91 74 163 102q94 36 188 36l81 380h-176l22 106h361q-24 -111 -39.5 -184t-24.5 -117.5t-13.5 -64.5t-5.5 -25t0 0t2.5 12t2.5 10t-1 -5.5t-7.5 -34t-16.5 -77.5q90 0 170 -36q60 -28 121 -102 q55 -70 73 -172q10 -60 -24 -223q-48 -224 -33 -329q17 -114 58 -149z" />
<glyph unicode="&#x104f9;" horiz-adv-x="1606" d="M1690 1004q-57 -36 -122 -149q-30 -53 -56.5 -135t-50.5 -194q-17 -82 -35 -137.5t-35 -85.5q-61 -101 -147 -172q-46 -38 -87 -63t-76 -39q-95 -36 -186 -36l-66 -312h175l-23 -107h-535l23 107h175l66 312q-93 0 -172 36q-59 27 -121 102q-57 72 -73 172q-10 60 24 223 q48 221 33 329q-13 112 -58 149l12 59h101q99 -103 124 -194q19 -66 16.5 -151t-25.5 -192q-41 -191 -8 -297q39 -133 170 -130l287 1351h-176l22 106h361l-309 -1457q126 -3 222 130q77 106 118 297q50 229 137 343q38 51 89.5 98.5t116.5 95.5h101z" />
<glyph unicode="&#x104fa;" horiz-adv-x="1079" d="M1192 977l-851 -871h137l-22 -106h-456l22 106h97l832 850h-527l-39 -184h-106l61 291h870z" />
<glyph unicode="&#x104fb;" horiz-adv-x="1079" d="M846 0q0 126 -57.5 187.5t-177.5 61.5q-107 0 -187 -58l-83 -85h-1q-17 -23 -32 -49.5t-28 -56.5h-1h-197l18 86l851 870h-527l-39 -184h-106l61 291h870l-18 -86l-617 -631q14 1 27.5 1.5t27.5 0.5q177 0 269 -88.5t95 -259.5h-148z" />
</font>
</defs>
</svg>
